ply
format ascii 1.0
comment Created by Blender 2.92.0 - www.blender.org
element vertex 154
property float x
property float y
property float z
property float nx
property float ny
property float nz
property float s
property float t
property uchar red
property uchar green
property uchar blue
property uchar alpha
element face 68
property list uchar uint vertex_indices
end_header
0.625877 1.000000 1.000000 0.989355 0.000000 0.145522 0.625000 0.250000 255 255 255 255
0.266140 -0.425227 3.445733 0.989355 0.000000 0.145522 0.375000 0.250000 255 255 255 255
0.625877 -1.000000 1.000000 0.989355 0.000000 0.145522 0.375000 0.250000 255 255 255 255
-0.625877 -1.000000 1.000000 -0.000000 -1.000000 -0.000000 0.375000 0.500000 255 255 255 255
0.625877 -1.000000 -2.083021 -0.000000 -1.000000 -0.000000 0.125000 0.750000 255 255 255 255
0.625877 -1.000000 1.000000 -0.000000 -1.000000 -0.000000 0.125000 0.500000 255 255 255 255
0.625877 1.000000 1.000000 -0.000000 1.000000 0.000000 0.875000 0.500000 255 255 255 255
-0.625877 1.000000 -2.083021 -0.000000 1.000000 0.000000 0.625000 0.750000 255 255 255 255
-0.625877 1.000000 1.000000 -0.000000 1.000000 0.000000 0.625000 0.500000 254 255 255 255
0.025258 2.648990 -6.890793 0.000000 -0.048315 -0.998832 0.625000 0.750000 255 255 255 255
0.069374 -0.465520 -6.740138 0.000000 -0.048315 -0.998832 0.375000 1.000000 255 255 255 255
-0.069374 -0.465520 -6.740138 0.000000 -0.048315 -0.998832 0.375000 0.750000 255 255 255 255
-0.032917 -0.609298 -5.710270 0.000000 -0.990395 -0.138268 0.375000 0.750000 255 255 255 255
0.069374 -0.465520 -6.740138 0.000000 -0.990395 -0.138268 0.125000 0.750000 255 255 255 255
0.032917 -0.609298 -5.710270 0.000000 -0.990395 -0.138268 0.125000 0.750000 255 255 255 255
0.032917 0.609298 -5.710270 0.000000 0.500925 0.865491 0.875000 0.750000 255 255 255 255
0.025258 2.648990 -6.890793 0.000000 0.500925 0.865491 0.625000 0.750000 255 255 255 255
-0.032917 0.609298 -5.710270 0.000000 0.500925 0.865491 0.625000 0.750000 255 255 255 255
0.266140 0.425227 3.445733 0.000000 -0.000000 1.000000 0.625000 0.250000 255 255 255 255
-0.266140 -0.425227 3.445733 0.000000 -0.000000 1.000000 0.375000 0.500000 255 255 255 255
0.266140 -0.425227 3.445733 0.000000 -0.000000 1.000000 0.375000 0.250000 255 255 255 255
-0.625877 -1.000000 1.000000 -0.989355 0.000000 0.145522 0.375000 0.500000 255 255 255 255
-0.266140 0.425227 3.445733 -0.989355 0.000000 0.145522 0.625000 0.500000 255 255 255 255
-0.625877 1.000000 1.000000 -0.989355 0.000000 0.145522 0.625000 0.500000 254 255 255 255
0.625877 -1.000000 1.000000 0.000000 -0.973479 0.228778 0.125000 0.500000 255 255 255 255
-0.266140 -0.425227 3.445733 0.000000 -0.973479 0.228778 0.375000 0.500000 255 255 255 255
-0.625877 -1.000000 1.000000 0.000000 -0.973479 0.228778 0.375000 0.500000 255 255 255 255
-0.625877 1.000000 1.000000 0.000000 0.973479 0.228778 0.625000 0.500000 40 239 255 255
0.266140 0.425227 3.445733 0.000000 0.973479 0.228778 0.875000 0.500000 44 239 255 255
0.625877 1.000000 1.000000 0.000000 0.973479 0.228778 0.875000 0.500000 42 239 255 255
0.625877 -0.079036 0.837435 1.000000 0.000000 -0.000000 0.490121 0.134880 255 255 255 255
0.625877 -1.000000 -2.083021 1.000000 0.000000 -0.000000 0.375000 0.000000 255 255 255 255
0.625877 0.079036 -1.920456 1.000000 0.000000 -0.000000 0.490121 0.115120 255 255 255 255
0.625877 1.000000 -2.083021 1.000000 0.000000 -0.000000 0.625000 0.000000 255 255 255 255
0.625877 0.079036 -1.920456 1.000000 -0.000000 0.000000 0.509880 0.115120 255 255 255 255
0.625877 1.000000 1.000000 1.000000 -0.000000 0.000000 0.625000 0.250000 255 255 255 255
0.625877 0.079036 0.837435 1.000000 -0.000000 0.000000 0.509879 0.134880 255 255 255 255
0.625877 -1.000000 1.000000 1.000000 -0.000000 -0.000000 0.375000 0.250000 255 255 255 255
-0.625877 -0.079036 0.837435 -1.000000 -0.000000 0.000000 0.490121 0.615120 255 255 255 255
-0.625877 1.000000 1.000000 -1.000000 -0.000000 0.000000 0.625000 0.500000 254 255 255 255
-0.625877 0.079036 0.837435 -1.000000 -0.000000 0.000000 0.509880 0.615121 255 255 255 255
-0.625877 -1.000000 -2.083021 -1.000000 0.000000 0.000000 0.375000 0.750000 255 255 255 255
-0.625877 -1.000000 1.000000 -1.000000 0.000000 0.000000 0.375000 0.500000 255 255 255 255
-0.625877 1.000000 -2.083021 -1.000000 0.000000 0.000000 0.625000 0.750000 255 255 255 255
-0.625877 0.079036 -1.920456 -1.000000 0.000000 0.000000 0.509879 0.634880 255 255 255 255
5.657875 -0.079036 -1.218068 0.031398 0.999507 0.000000 0.509879 0.134880 255 255 255 255
0.625877 0.079036 -1.920456 0.031398 0.999507 0.000000 0.509880 0.115120 255 255 255 255
0.625877 0.079036 0.837435 0.031398 0.999507 0.000000 0.509879 0.134880 255 255 255 255
0.625877 -0.079036 0.837435 0.378153 0.000000 0.925743 0.490121 0.134880 255 255 255 255
5.657875 -0.079036 -1.218068 0.378153 0.000000 0.925743 0.509879 0.134880 255 255 255 255
0.625877 0.079036 0.837435 0.378153 0.000000 0.925743 0.509879 0.134880 255 255 255 255
0.625877 0.079036 -1.920456 -0.023368 -0.998089 -0.057207 0.509880 0.115120 255 255 255 255
5.657875 -0.079036 -1.218068 -0.023368 -0.998089 -0.057207 0.490121 0.134880 255 255 255 255
0.625877 -0.079036 0.837435 -0.023368 -0.998089 -0.057207 0.490121 0.134880 255 255 255 255
-0.625877 0.079036 0.837435 -0.378153 0.000000 0.925743 0.509880 0.615121 255 255 255 255
-5.657875 -0.079036 -1.218068 -0.378153 0.000000 0.925743 0.490121 0.615120 255 255 255 255
-0.625877 -0.079036 0.837435 -0.378153 0.000000 0.925743 0.490121 0.615120 255 255 255 255
-0.625877 0.079036 -1.920456 -0.031398 0.999507 0.000000 0.490121 0.634880 255 255 255 255
-5.657875 -0.079036 -1.218068 -0.031398 0.999507 0.000000 0.509880 0.615121 255 255 255 255
-0.625877 0.079036 0.837435 -0.031398 0.999507 0.000000 0.509880 0.615121 255 255 255 255
-5.657875 -0.079036 -1.218068 0.023368 -0.998089 -0.057207 0.490121 0.615120 255 255 255 255
-0.625877 0.079036 -1.920456 0.023368 -0.998089 -0.057207 0.490121 0.634880 255 255 255 255
-0.625877 -0.079036 0.837435 0.023368 -0.998089 -0.057207 0.490121 0.615120 255 255 255 255
-0.625877 1.000000 -2.083021 -0.986900 0.000000 -0.161332 0.625000 0.750000 255 255 255 255
-0.032917 -0.609298 -5.710270 -0.986900 0.000000 -0.161332 0.375000 0.750000 255 255 255 255
-0.625877 -1.000000 -2.083021 -0.986900 0.000000 -0.161332 0.375000 0.750000 255 255 255 255
0.625877 1.000000 -2.083021 0.000000 0.994249 -0.107093 0.875000 0.750000 255 255 255 255
-0.032917 0.609298 -5.710270 0.000000 0.994249 -0.107093 0.625000 0.750000 255 255 255 255
-0.625877 1.000000 -2.083021 0.000000 0.994249 -0.107093 0.625000 0.750000 255 255 255 255
-0.625877 -1.000000 -2.083021 0.000000 -0.994249 -0.107093 0.375000 0.750000 255 255 255 255
0.032917 -0.609298 -5.710270 0.000000 -0.994249 -0.107093 0.125000 0.750000 255 255 255 255
0.625877 -1.000000 -2.083021 0.000000 -0.994249 -0.107093 0.125000 0.750000 255 255 255 255
0.625877 -1.000000 -2.083021 0.986900 0.000000 -0.161332 0.375000 0.000000 255 255 255 255
0.032917 0.609298 -5.710270 0.986900 0.000000 -0.161332 0.625000 0.000000 255 255 255 255
0.625877 1.000000 -2.083021 0.986900 0.000000 -0.161332 0.625000 0.000000 255 255 255 255
0.033925 -0.345844 -6.741109 0.141132 0.049826 0.988736 0.552548 0.000000 255 255 255 255
0.069374 -0.465520 -6.740138 0.141132 0.049826 0.988736 0.375000 0.000000 255 255 255 255
0.025258 2.648990 -6.890793 0.141132 0.049826 0.988736 0.625000 0.000000 255 255 255 255
-0.040224 -0.470016 -5.860960 -0.999315 -0.016670 0.033048 0.440858 0.750000 255 255 255 255
-0.069374 -0.465520 -6.740138 -0.999315 -0.016670 0.033048 0.375000 0.750000 255 255 255 255
-0.032917 -0.609298 -5.710270 -0.999315 -0.016670 0.033048 0.375000 0.750000 255 255 255 255
0.033925 -0.345844 -6.741109 0.999714 0.018033 -0.015732 0.552548 0.000000 255 255 255 255
0.032917 0.609298 -5.710270 0.999714 0.018033 -0.015732 0.625000 0.000000 255 255 255 255
0.048874 -0.406133 -5.860206 0.999714 0.018033 -0.015732 0.536930 0.000000 255 255 255 255
-0.033925 -0.345844 -6.741109 -0.999684 0.018928 -0.016561 0.552548 0.750000 255 255 255 255
-0.032917 0.609298 -5.710270 -0.999684 0.018928 -0.016561 0.625000 0.750000 255 255 255 255
0.025258 2.648990 -6.890793 -0.999684 0.018928 -0.016561 0.625000 0.750000 255 255 255 255
-0.048874 -0.406133 -5.860206 -0.994384 0.000000 0.105831 0.536931 0.750000 255 255 255 255
-0.032917 -0.609298 -5.710270 -0.994384 0.000000 0.105831 0.375000 0.750000 255 255 255 255
-0.032917 0.609298 -5.710270 -0.994384 0.000000 0.105831 0.625000 0.750000 255 255 255 255
0.048874 -0.406133 -5.860206 0.988285 -0.132941 -0.074956 0.536930 0.000000 255 255 255 255
0.032917 -0.609298 -5.710270 0.988285 -0.132941 -0.074956 0.375000 0.000000 255 255 255 255
0.040224 -0.470016 -5.860960 0.988285 -0.132941 -0.074956 0.440858 0.000000 255 255 255 255
0.040224 -0.470016 -5.860960 0.413589 -0.066728 0.908015 0.440858 0.000000 255 255 255 255
2.074651 -0.575617 -6.795375 0.413589 -0.066728 0.908015 0.536930 0.000000 255 255 255 255
0.048874 -0.406133 -5.860206 0.413589 -0.066728 0.908015 0.536930 0.000000 255 255 255 255
0.069374 -0.465520 -6.740138 -0.055010 -0.998462 -0.006931 0.428336 0.000000 255 255 255 255
2.074651 -0.575617 -6.795375 -0.055010 -0.998462 -0.006931 0.440858 0.000000 255 255 255 255
0.040224 -0.470016 -5.860960 -0.055010 -0.998462 -0.006931 0.440858 0.000000 255 255 255 255
0.033925 -0.345844 -6.741109 -0.028439 -0.016532 -0.999459 0.552548 0.000000 255 255 255 255
2.074651 -0.575617 -6.795375 -0.028439 -0.016532 -0.999459 0.428336 0.000000 255 255 255 255
0.069374 -0.465520 -6.740138 -0.028439 -0.016532 -0.999459 0.428336 0.000000 255 255 255 255
0.048874 -0.406133 -5.860206 0.113374 0.991363 0.065925 0.536930 0.000000 255 255 255 255
2.074651 -0.575617 -6.795375 0.113374 0.991363 0.065925 0.552548 0.000000 255 255 255 255
0.033925 -0.345844 -6.741109 0.113374 0.991363 0.065925 0.552548 0.000000 255 255 255 255
-0.048874 -0.406133 -5.860206 -0.469202 -0.073926 0.879991 0.536931 0.750000 255 255 255 255
-2.066110 -0.451445 -6.939582 -0.469202 -0.073926 0.879991 0.440858 0.750000 255 255 255 255
-0.040224 -0.470016 -5.860960 -0.469202 -0.073926 0.879991 0.440858 0.750000 255 255 255 255
-0.033925 -0.345844 -6.741109 -0.058319 0.996035 0.067179 0.552548 0.750000 255 255 255 255
-2.066110 -0.451445 -6.939582 -0.058319 0.996035 0.067179 0.536931 0.750000 255 255 255 255
-0.048874 -0.406133 -5.860206 -0.058319 0.996035 0.067179 0.536931 0.750000 255 255 255 255
-0.069374 -0.465520 -6.740138 0.099060 -0.037409 -0.994378 0.428336 0.750000 255 255 255 255
-2.066110 -0.451445 -6.939582 0.099060 -0.037409 -0.994378 0.552548 0.750000 255 255 255 255
-0.033925 -0.345844 -6.741109 0.099060 -0.037409 -0.994378 0.552548 0.750000 255 255 255 255
-0.040224 -0.470016 -5.860960 -0.006560 -0.999967 -0.004897 0.440858 0.750000 255 255 255 255
-2.066110 -0.451445 -6.939582 -0.006560 -0.999967 -0.004897 0.428336 0.750000 255 255 255 255
-0.069374 -0.465520 -6.740138 -0.006560 -0.999967 -0.004897 0.428336 0.750000 255 255 255 255
0.266140 0.425227 3.445733 0.989355 -0.000000 0.145522 0.625000 0.250000 255 255 255 255
-0.625877 -1.000000 -2.083021 0.000000 -1.000000 0.000000 0.375000 0.750000 255 255 255 255
0.625877 1.000000 -2.083021 0.000000 1.000000 0.000000 0.875000 0.750000 255 255 255 255
-0.069374 -0.465520 -6.740138 -0.000000 -0.990395 -0.138268 0.375000 0.750000 255 255 255 255
-0.266140 0.425227 3.445733 0.000000 0.000000 1.000000 0.625000 0.500000 255 255 255 255
-0.266140 -0.425227 3.445733 -0.989355 0.000000 0.145522 0.375000 0.500000 255 255 255 255
0.266140 -0.425227 3.445733 0.000000 -0.973479 0.228778 0.125000 0.500000 255 255 255 255
-0.266140 0.425227 3.445733 0.000000 0.973479 0.228778 0.625000 0.500000 44 239 255 255
-0.625877 0.079036 -1.920456 -1.000000 0.000000 0.000000 0.490121 0.634880 255 255 255 255
5.657875 -0.079036 -1.218068 0.018156 0.995412 0.093946 0.509879 0.134880 255 255 255 255
5.657875 0.079036 -2.892938 0.018156 0.995412 0.093946 0.509880 0.115120 255 255 255 255
0.625877 0.079036 -1.920456 0.018156 0.995412 0.093946 0.509880 0.115120 255 255 255 255
-0.625877 0.079036 -1.920456 -0.018156 0.995412 0.093946 0.490121 0.634880 255 255 255 255
-5.657875 0.079036 -2.892938 -0.018156 0.995412 0.093946 0.490121 0.634880 255 255 255 255
-5.657875 -0.079036 -1.218068 -0.018156 0.995412 0.093946 0.509880 0.615121 255 255 255 255
-0.032917 0.609298 -5.710270 -0.986900 0.000000 -0.161332 0.625000 0.750000 255 255 255 255
0.032917 0.609298 -5.710270 0.000000 0.994249 -0.107093 0.875000 0.750000 255 255 255 255
-0.032917 -0.609298 -5.710270 -0.000000 -0.994249 -0.107093 0.375000 0.750000 255 255 255 255
0.032917 -0.609298 -5.710270 0.986900 0.000000 -0.161332 0.375000 0.000000 255 255 255 255
-0.033925 -0.345844 -6.741109 -0.149537 0.052305 0.987372 0.552548 0.750000 255 255 255 255
0.025258 2.648990 -6.890793 -0.149537 0.052305 0.987372 0.625000 0.750000 255 255 255 255
-0.069374 -0.465520 -6.740138 -0.149537 0.052305 0.987372 0.375000 0.750000 255 255 255 255
0.040224 -0.470016 -5.860960 0.999315 -0.016670 0.033048 0.440858 0.000000 255 255 255 255
0.032917 -0.609298 -5.710270 0.999315 -0.016670 0.033048 0.375000 0.000000 255 255 255 255
0.069374 -0.465520 -6.740138 0.999315 -0.016670 0.033048 0.375000 0.000000 255 255 255 255
0.033925 -0.345844 -6.741109 0.999995 0.002812 -0.001628 0.552548 0.000000 255 255 255 255
0.025258 2.648990 -6.890793 0.999995 0.002812 -0.001628 0.625000 0.000000 255 255 255 255
0.032917 0.609298 -5.710270 0.999995 0.002812 -0.001628 0.625000 0.000000 255 255 255 255
-0.033925 -0.345844 -6.741109 -0.999714 0.018033 -0.015732 0.552548 0.750000 255 255 255 255
-0.048874 -0.406133 -5.860206 -0.999714 0.018033 -0.015732 0.536931 0.750000 255 255 255 255
-0.032917 0.609298 -5.710270 -0.999714 0.018033 -0.015732 0.625000 0.750000 255 255 255 255
-0.048874 -0.406133 -5.860206 -0.988286 -0.132941 -0.074956 0.536931 0.750000 255 255 255 255
-0.040224 -0.470016 -5.860960 -0.988286 -0.132941 -0.074956 0.440858 0.750000 255 255 255 255
-0.032917 -0.609298 -5.710270 -0.988286 -0.132941 -0.074956 0.375000 0.750000 255 255 255 255
0.048874 -0.406133 -5.860206 0.994384 -0.000000 0.105831 0.536930 0.000000 255 255 255 255
0.032917 0.609298 -5.710270 0.994384 -0.000000 0.105831 0.625000 0.000000 255 255 255 255
0.032917 -0.609298 -5.710270 0.994384 -0.000000 0.105831 0.375000 0.000000 255 255 255 255
3 0 1 2
3 3 4 5
3 6 7 8
3 9 10 11
3 12 13 14
3 15 16 17
3 18 19 20
3 21 22 23
3 24 25 26
3 27 28 29
3 30 31 32
3 32 31 33
3 34 35 36
3 36 37 30
3 38 39 40
3 38 41 42
3 40 43 44
3 44 43 41
3 45 46 47
3 48 49 50
3 51 52 53
3 54 55 56
3 57 58 59
3 60 61 62
3 63 64 65
3 66 67 68
3 69 70 71
3 72 73 74
3 75 76 77
3 78 79 80
3 81 82 83
3 84 85 86
3 87 88 89
3 90 91 92
3 93 94 95
3 96 97 98
3 99 100 101
3 102 103 104
3 105 106 107
3 108 109 110
3 111 112 113
3 114 115 116
3 0 117 1
3 3 118 4
3 6 119 7
3 12 120 13
3 18 121 19
3 21 122 22
3 24 123 25
3 27 124 28
3 30 37 31
3 34 33 35
3 36 35 37
3 38 42 39
3 38 125 41
3 40 39 43
3 126 127 128
3 129 130 131
3 63 132 64
3 66 133 67
3 69 134 70
3 72 135 73
3 136 137 138
3 139 140 141
3 142 143 144
3 145 146 147
3 148 149 150
3 151 152 153
