ply
format ascii 1.0
comment Created by Blender 2.92.0 - www.blender.org
element vertex 61
property float x
property float y
property float z
property float nx
property float ny
property float nz
property float s
property float t
property uchar red
property uchar green
property uchar blue
property uchar alpha
element face 25
property list uchar uint vertex_indices
end_header
0.000000 -0.750000 -0.750000 -0.840168 -0.485071 0.242536 0.250000 0.490000 255 255 255 255
0.000000 0.250000 1.250000 -0.840168 -0.485071 0.242536 0.250000 0.250000 171 235 255 255
-0.866025 0.750000 -0.750000 -0.840168 -0.485071 0.242536 0.457846 0.130000 255 255 255 255
0.000000 -0.750000 -0.750000 0.866025 -0.500000 0.000000 0.250000 0.490000 255 255 255 255
0.866025 0.750000 -2.786813 0.866025 -0.500000 0.000000 0.042154 0.130000 255 255 255 255
0.866025 0.750000 -0.750000 0.866025 -0.500000 0.000000 0.042154 0.130000 255 255 255 255
-0.866025 0.750000 -0.750000 0.000000 0.970143 0.242536 0.457846 0.130000 255 255 255 255
0.000000 0.250000 1.250000 0.000000 0.970143 0.242536 0.250000 0.250000 171 235 255 255
0.866025 0.750000 -0.750000 0.000000 0.970143 0.242536 0.042154 0.130000 255 255 255 255
0.866025 0.750000 -0.750000 0.840168 -0.485071 0.242536 0.042154 0.130000 255 255 255 255
0.000000 0.250000 1.250000 0.840168 -0.485071 0.242536 0.250000 0.250000 171 235 255 255
0.000000 -0.750000 -0.750000 0.840168 -0.485071 0.242536 0.250000 0.490000 255 255 255 255
0.866025 0.750000 -2.786813 0.854308 -0.507848 -0.110673 0.042154 0.130000 255 255 255 255
0.000000 -0.750000 -2.588758 0.854308 -0.507848 -0.110673 0.250000 0.490000 255 255 255 255
0.042137 0.036491 -5.872486 0.854308 -0.507848 -0.110673 0.042154 0.130000 255 255 255 255
-0.866025 0.750000 -0.750000 -0.866025 -0.500000 -0.000000 0.457846 0.130000 255 255 255 255
0.000000 -0.750000 -2.588758 -0.866025 -0.500000 -0.000000 0.250000 0.490000 255 255 255 255
0.000000 -0.750000 -0.750000 -0.866025 -0.500000 -0.000000 0.250000 0.490000 255 255 255 255
-0.866025 0.750000 -2.786813 0.000000 0.974292 -0.225288 0.457846 0.130000 255 255 255 255
0.866025 0.750000 -2.786813 0.000000 0.974292 -0.225288 0.042154 0.130000 255 255 255 255
0.042137 0.036491 -5.872486 0.000000 0.974292 -0.225288 0.457846 0.130000 255 255 255 255
0.000000 -0.750000 -2.588758 -0.850671 -0.508662 -0.132746 0.250000 0.490000 255 255 255 255
-0.866025 0.750000 -2.786813 -0.850671 -0.508662 -0.132746 0.457846 0.130000 255 255 255 255
0.042137 0.036491 -5.872486 -0.850671 -0.508662 -0.132746 0.250000 0.490000 255 255 255 255
0.866025 0.750000 -2.786813 0.000000 -1.000000 -0.000000 0.042154 0.130000 255 255 255 255
5.576326 0.750000 -2.617339 0.000000 -1.000000 -0.000000 0.042154 0.130000 255 255 255 255
0.866025 0.750000 -0.750000 0.000000 -1.000000 -0.000000 0.042154 0.130000 255 255 255 255
5.576326 0.760051 -2.617339 -0.000000 1.000000 0.000000 0.042154 0.130000 255 255 255 255
0.866025 0.760051 -2.786813 -0.000000 1.000000 0.000000 0.042154 0.130000 255 255 255 255
0.866025 0.760051 -0.750000 -0.000000 1.000000 0.000000 0.042154 0.130000 255 255 255 255
-5.576326 0.750000 -2.617339 -0.000000 -1.000000 -0.000000 0.457846 0.130000 255 255 255 255
-0.866025 0.750000 -2.786813 -0.000000 -1.000000 -0.000000 0.457846 0.130000 255 255 255 255
-0.866025 0.750000 -0.750000 -0.000000 -1.000000 -0.000000 0.457846 0.130000 255 255 255 255
-0.866025 0.760051 -2.786813 0.000000 1.000000 0.000000 0.457846 0.130000 255 255 255 255
-5.576326 0.760051 -2.617339 0.000000 1.000000 0.000000 0.457846 0.130000 255 255 255 255
-0.866025 0.760051 -0.750000 0.000000 1.000000 0.000000 0.457846 0.130000 255 255 255 255
1.574649 0.032869 -5.894294 0.000000 -0.999993 0.003602 0.457846 0.130000 255 255 255 255
0.009987 0.040136 -3.876691 0.000000 -0.999993 0.003602 0.250000 0.250000 255 255 255 255
-1.554675 0.032869 -5.894294 0.000000 -0.999993 0.003602 0.042154 0.130000 255 255 255 255
0.044390 0.012042 -5.843796 -0.999813 -0.008659 -0.017317 0.042154 0.130000 255 255 255 255
0.018410 0.012042 -4.343796 -0.999813 -0.008659 -0.017317 0.250000 0.490000 255 255 255 255
0.018410 2.012042 -5.343796 -0.999813 -0.008659 -0.017317 0.250000 0.250000 255 255 255 255
0.018410 0.012042 -4.343796 0.000000 -1.000000 0.000000 0.750000 0.490000 255 255 255 255
-0.025981 0.012042 -5.776097 0.000000 -1.000000 0.000000 0.957846 0.130000 255 255 255 255
0.044390 0.012042 -5.843796 0.000000 -1.000000 0.000000 0.542154 0.130000 255 255 255 255
0.044390 0.012042 -5.843796 0.999813 0.008659 0.017317 0.042154 0.130000 255 255 255 255
0.018410 2.012042 -5.343796 0.999813 0.008659 0.017317 0.250000 0.250000 255 255 255 255
0.018410 0.012042 -4.343796 0.999813 0.008659 0.017317 0.250000 0.490000 255 255 255 255
1.574649 0.032869 -5.894294 0.000000 0.999993 -0.003602 0.457846 0.130000 255 255 255 255
-1.554675 0.032869 -5.894294 0.000000 0.999993 -0.003602 0.042154 0.130000 255 255 255 255
0.009987 0.040136 -3.876691 0.000000 0.999993 -0.003602 0.250000 0.250000 255 255 255 255
0.866025 0.750000 -2.786813 0.000000 1.000000 0.000000 0.000000 0.000000 255 255 255 255
-0.866025 0.750000 -0.750000 0.000000 1.000000 0.000000 0.000000 0.000000 255 255 255 255
0.866025 0.750000 -0.750000 0.000000 1.000000 0.000000 0.000000 0.000000 255 255 255 255
-0.866025 0.750000 -2.786813 -0.000000 1.000000 0.000000 0.000000 0.000000 255 255 255 255
0.000000 -0.750000 -2.588758 0.866025 -0.500000 0.000000 0.250000 0.490000 255 255 255 255
-0.866025 0.750000 -2.786813 -0.866025 -0.500000 0.000000 0.457846 0.130000 255 255 255 255
5.576326 0.750000 -3.792106 -0.000000 -1.000000 -0.000000 0.042154 0.130000 255 255 255 255
5.576326 0.760051 -3.792106 -0.000000 1.000000 0.000000 0.042154 0.130000 255 255 255 255
-5.576326 0.750000 -3.792106 -0.000000 -1.000000 0.000000 0.457846 0.130000 255 255 255 255
-5.576326 0.760051 -3.792106 -0.000000 1.000000 0.000000 0.457846 0.130000 255 255 255 255
3 0 1 2
3 3 4 5
3 6 7 8
3 9 10 11
3 12 13 14
3 15 16 17
3 18 19 20
3 21 22 23
3 24 25 26
3 27 28 29
3 30 31 32
3 33 34 35
3 36 37 38
3 39 40 41
3 42 43 44
3 45 46 47
3 48 49 50
3 51 52 53
3 51 54 52
3 3 55 4
3 15 56 16
3 24 57 25
3 27 58 28
3 30 59 31
3 33 60 34
