ply
format ascii 1.0
comment Created by Blender 2.92.0 - www.blender.org
element vertex 300
property float x
property float y
property float z
property float nx
property float ny
property float nz
property float s
property float t
property uchar red
property uchar green
property uchar blue
property uchar alpha
element face 100
property list uchar uint vertex_indices
end_header
-62.286472 -0.701663 86.336472 -0.990466 -0.126970 -0.053440 0.684210 0.789474 255 206 127 255
-49.391479 -93.944191 68.877357 -0.990466 -0.126970 -0.053440 0.667782 0.736842 255 209 128 255
-53.010181 -83.631844 111.445518 -0.990466 -0.126970 -0.053440 0.684283 0.870596 255 210 129 255
-36.329109 -2.301761 -26.952427 -0.885767 0.000483 -0.464131 0.631579 0.421053 255 191 116 255
-40.963196 -106.438568 -18.217001 -0.885767 0.000483 -0.464131 0.638078 0.449800 255 204 125 255
-48.712700 3.923271 -3.312584 -0.885767 0.000483 -0.464131 0.631579 0.473684 255 210 129 255
-11.928022 2.483989 -31.714911 0.153340 0.127394 -0.979927 0.526316 0.368421 255 210 129 255
-16.779802 -119.272842 -48.302998 0.153340 0.127394 -0.979927 0.556347 0.344771 255 199 123 255
-26.876940 -1.266349 -34.541695 0.153340 0.127394 -0.979927 0.598442 0.368421 255 191 116 255
-46.850887 -5.925526 4.646755 -0.996487 -0.073587 -0.039993 0.631579 0.526316 255 210 129 255
-41.269760 -99.366547 37.516415 -0.996487 -0.073587 -0.039993 0.635513 0.630799 255 191 116 255
-48.164101 3.149420 20.669504 -0.996487 -0.073587 -0.039993 0.631579 0.578947 255 210 129 255
-33.162609 -0.220398 41.560658 -0.870249 0.090909 -0.484152 0.631579 0.631579 255 191 116 255
-41.269760 -99.366547 37.516415 -0.870249 0.090909 -0.484152 0.635513 0.630799 255 191 116 255
-44.809929 1.945843 62.903137 -0.870249 0.090909 -0.484152 0.631579 0.726694 255 204 127 255
-11.448927 -0.700418 -107.626129 -0.193175 -0.022842 0.980898 0.543247 0.157895 255 210 129 255
25.577185 -132.554810 -103.404770 -0.193175 -0.022842 0.980898 0.414581 0.163369 255 186 113 255
7.527625 4.435201 -103.769348 -0.193175 -0.022842 0.980898 0.468246 0.157895 255 210 129 255
-109.131912 -1.506169 -38.234844 0.971586 -0.013056 0.236326 0.877100 0.368421 255 210 129 255
-117.846115 -84.393692 -6.988184 0.971586 -0.013056 0.236326 0.894737 0.476161 255 183 111 255
-110.221413 -83.250580 -38.271824 0.971586 -0.013056 0.236326 0.861728 0.368142 255 199 121 255
-127.336624 1.744386 15.096369 0.963226 0.037927 0.266002 0.894737 0.541514 255 203 124 255
-117.846115 -84.393692 -6.988184 0.963226 0.037927 0.266002 0.894737 0.476161 255 183 111 255
-117.393661 -0.077289 -20.648592 0.963226 0.037927 0.266002 0.894737 0.431196 255 210 129 255
-112.139114 3.973365 37.729069 0.830999 -0.086882 -0.549447 0.894737 0.631579 255 208 127 255
-121.122124 -82.064766 37.747833 0.830999 -0.086882 -0.549447 0.894737 0.635957 255 187 113 255
-127.336624 1.744386 15.096369 0.830999 -0.086882 -0.549447 0.894737 0.541514 255 203 124 255
35.316727 0.216992 -43.896015 -0.324992 0.072365 -0.942944 0.388601 0.368421 255 213 142 255
-2.184054 -123.145340 -40.438408 -0.324992 0.072365 -0.942944 0.500023 0.368421 255 204 125 255
4.652529 -5.836655 -33.791981 -0.324992 0.072365 -0.942944 0.473684 0.368421 255 205 128 255
-92.173897 1.395541 -89.220032 0.285174 0.163057 0.944504 0.802836 0.210526 255 210 130 255
-79.257622 -95.172935 -76.448494 0.285174 0.163057 0.944504 0.757556 0.236046 255 208 129 255
-73.915199 -3.131263 -93.951378 0.285174 0.163057 0.944504 0.736842 0.210526 255 210 129 255
-126.310524 2.068704 54.856560 0.989946 0.084166 -0.113680 0.894737 0.684210 255 210 129 255
-116.802589 -68.205528 85.623962 0.989946 0.084166 -0.113680 0.889330 0.789543 255 185 112 255
-121.122124 -82.064766 37.747833 0.989946 0.084166 -0.113680 0.894737 0.635957 255 187 113 255
136.704681 -5.115459 -93.866882 -0.691526 -0.023014 0.721985 0.052632 0.210526 255 210 129 255
160.090164 -159.637863 -76.393600 -0.691526 -0.023014 0.721985 0.000000 0.257851 255 199 122 255
156.635178 0.622222 -74.594322 -0.691526 -0.023014 0.721985 0.000000 0.210526 255 210 129 255
42.936073 -5.441538 -97.249329 0.565211 0.048265 0.823533 0.368421 0.157895 255 204 125 255
57.924686 -145.717667 -99.315170 0.565211 0.048265 0.823533 0.289752 0.163443 255 182 110 255
59.548656 4.597610 -109.239311 0.565211 0.048265 0.823533 0.315789 0.157895 255 192 117 255
-73.915199 -3.131263 -93.951378 0.393410 -0.050403 0.917980 0.736842 0.210526 255 210 129 255
-63.234680 -102.827187 -104.002617 0.393410 -0.050403 0.917980 0.712205 0.157895 255 209 129 255
-58.623966 -0.185392 -100.342842 0.393410 -0.050403 0.917980 0.692463 0.157895 255 210 129 255
52.157463 -0.901271 -43.454407 0.027668 0.022007 -0.999375 0.315789 0.368421 255 213 141 255
38.424458 -138.119812 -46.856201 0.027668 0.022007 -0.999375 0.373023 0.367459 255 206 126 255
35.316727 0.216992 -43.896015 0.027668 0.022007 -0.999375 0.388601 0.368421 255 213 142 255
156.635178 0.622222 -74.594322 -0.994236 0.104965 0.021839 0.000000 0.000000 255 210 129 255
140.785629 -155.855972 -44.076103 -0.994236 0.104965 0.021839 0.000000 0.000000 255 189 115 255
156.602966 -4.724688 -50.361462 -0.994236 0.104965 0.021839 0.000000 0.000000 255 210 129 255
59.548656 4.597610 -109.239311 -0.641333 0.057443 0.765110 0.315789 0.157895 255 192 117 255
57.924686 -145.717667 -99.315170 -0.641333 0.057443 0.765110 0.289752 0.163443 255 182 110 255
75.137146 -2.834764 -95.614670 -0.641333 0.057443 0.765110 0.263158 0.157895 255 200 122 255
88.701637 4.355001 -42.521084 0.022284 0.022548 -0.999497 0.219982 0.368421 255 210 129 255
38.424458 -138.119812 -46.856201 0.022284 0.022548 -0.999497 0.373023 0.367459 255 206 126 255
52.157463 -0.901271 -43.454407 0.022284 0.022548 -0.999497 0.315789 0.368421 255 213 141 255
75.137146 -2.834764 -95.614670 0.170121 -0.045987 0.984350 0.263158 0.157895 255 200 122 255
57.924686 -145.717667 -99.315170 0.170121 -0.045987 0.984350 0.289752 0.163443 255 182 110 255
92.773361 -0.898049 -98.572174 0.170121 -0.045987 0.984350 0.196366 0.157895 255 210 129 255
-44.809929 1.945843 62.903137 -0.880480 0.012542 -0.473918 0.631579 0.726694 255 204 127 255
-49.391479 -93.944191 68.877357 -0.880480 0.012542 -0.473918 0.667782 0.736842 255 209 128 255
-51.551483 5.505284 75.522301 -0.880480 0.012542 -0.473918 0.684210 0.736842 255 210 129 255
-71.544571 -1.520956 125.918449 -0.985722 0.133574 0.102521 0.736842 0.925024 255 208 128 255
-82.868637 -72.956924 110.112953 -0.985722 0.133574 0.102521 0.770502 0.863435 255 206 127 255
-77.897980 -65.571404 148.282410 -0.985722 0.133574 0.102521 0.744547 0.987522 255 210 130 255
-36.329109 -2.301761 -26.952427 -0.965712 0.064078 0.251584 0.631579 0.421053 255 191 116 255
-48.598118 -106.291512 -47.561359 -0.965712 0.064078 0.251584 0.653031 0.347477 255 201 123 255
-40.963196 -106.438568 -18.217001 -0.965712 0.064078 0.251584 0.638078 0.449800 255 204 125 255
-62.286472 -0.701663 86.336472 -0.665197 0.147226 0.732009 0.684210 0.789474 255 206 127 255
-53.010181 -83.631844 111.445518 -0.665197 0.147226 0.732009 0.684283 0.870596 255 210 129 255
-49.342873 5.471216 96.857140 -0.665197 0.147226 0.732009 0.684210 0.842105 255 187 113 255
-46.850887 -5.925526 4.646755 -0.998355 -0.056934 -0.006799 0.631579 0.526316 255 210 129 255
-40.963196 -106.438568 -18.217001 -0.998355 -0.056934 -0.006799 0.638078 0.449800 255 204 125 255
-41.108181 -106.658119 4.911661 -0.998355 -0.056934 -0.006799 0.644228 0.519637 255 193 117 255
102.389793 0.542844 -39.930794 0.178908 -0.025888 -0.983525 0.157895 0.368421 255 210 129 255
99.681213 -161.927567 -36.146984 0.178908 -0.025888 -0.983525 0.165072 0.366913 255 191 116 255
88.701637 4.355001 -42.521084 0.178908 -0.025888 -0.983525 0.219982 0.368421 255 210 129 255
-44.809929 1.945843 62.903137 -0.966339 0.030253 -0.255489 0.631579 0.726694 255 204 127 255
-41.269760 -99.366547 37.516415 -0.966339 0.030253 -0.255489 0.635513 0.630799 255 191 116 255
-49.391479 -93.944191 68.877357 -0.966339 0.030253 -0.255489 0.667782 0.736842 255 209 128 255
126.328857 1.271992 -44.285423 -0.178344 -0.019938 -0.983766 0.074964 0.368421 255 210 130 255
99.681213 -161.927567 -36.146984 -0.178344 -0.019938 -0.983766 0.165072 0.366913 255 191 116 255
102.389793 0.542844 -39.930794 -0.178344 -0.019938 -0.983766 0.157895 0.368421 255 210 129 255
-127.336624 1.744386 15.096369 0.993434 0.092031 0.067958 0.894737 0.541514 255 203 124 255
-121.122124 -82.064766 37.747833 0.993434 0.092031 0.067958 0.894737 0.635957 255 187 113 255
-117.846115 -84.393692 -6.988184 0.993434 0.092031 0.067958 0.894737 0.476161 255 183 111 255
-109.131912 -1.506169 -38.234844 0.955208 -0.057903 0.290215 0.877100 0.368421 255 210 129 255
-101.154877 -92.804512 -82.706116 0.955208 -0.057903 0.290215 0.823632 0.230044 255 210 129 255
-103.812195 2.070103 -55.030537 0.955208 -0.057903 0.290215 0.842105 0.307744 255 211 131 255
126.328857 1.271992 -44.285423 -0.186744 -0.018490 -0.982235 0.074964 0.368421 255 210 130 255
140.785629 -155.855972 -44.076103 -0.186744 -0.018490 -0.982235 0.019793 0.359268 255 189 115 255
99.681213 -161.927567 -36.146984 -0.186744 -0.018490 -0.982235 0.165072 0.366913 255 191 116 255
-113.696579 -4.216721 115.837311 0.878969 0.168056 -0.446286 0.894737 0.894737 255 210 129 255
-116.802589 -68.205528 85.623962 0.878969 0.168056 -0.446286 0.889330 0.789543 255 185 112 255
-122.029251 0.088774 101.047272 0.878969 0.168056 -0.446286 0.894737 0.829635 255 210 129 255
-89.865570 -6.041407 155.013947 0.646881 -0.066762 -0.759663 0.000000 0.000000 255 210 129 255
-113.522507 -55.779606 139.240341 0.646881 -0.066762 -0.759663 0.000000 0.000000 255 210 130 255
-111.150406 3.726471 136.030685 0.646881 -0.066762 -0.759663 0.000000 0.000000 255 210 129 255
156.602966 -4.724688 -50.361462 -0.200498 -0.019752 -0.979495 0.000000 0.368421 255 210 129 255
140.785629 -155.855972 -44.076103 -0.200498 -0.019752 -0.979495 0.019793 0.359268 255 189 115 255
126.328857 1.271992 -44.285423 -0.200498 -0.019752 -0.979495 0.074964 0.368421 255 210 130 255
-11.448927 -0.700418 -107.626129 0.103232 0.102526 0.989359 0.543247 0.157895 255 210 129 255
-44.951099 -108.236870 -92.986549 0.103232 0.102526 0.989359 0.654456 0.184812 255 190 115 255
-12.929245 -118.661278 -95.247528 0.103232 0.102526 0.989359 0.552728 0.163218 255 184 111 255
-50.209221 0.506774 121.306610 -0.227014 0.244559 -0.942685 0.684210 0.894737 255 187 113 255
-82.868637 -72.956924 110.112953 -0.227014 0.244559 -0.942685 0.770502 0.863435 255 206 127 255
-71.544571 -1.520956 125.918449 -0.227014 0.244559 -0.942685 0.736842 0.925024 255 208 128 255
57.924686 -145.717667 -99.315170 0.201409 0.935755 0.289476 0.289752 0.163443 255 182 110 255
124.367401 -169.955887 -67.192017 0.201409 0.935755 0.289476 0.090874 0.275881 255 183 112 255
121.933884 -159.344833 -99.800011 0.201409 0.935755 0.289476 0.091409 0.178264 255 186 113 255
25.577185 -132.554810 -103.404770 0.378236 0.925625 -0.012499 0.414581 0.163369 255 186 113 255
99.681213 -161.927567 -36.146984 0.378236 0.925625 -0.012499 0.165072 0.366913 255 191 116 255
57.924686 -145.717667 -99.315170 0.378236 0.925625 -0.012499 0.289752 0.163443 255 182 110 255
124.367401 -169.955887 -67.192017 -0.335947 0.891145 -0.304959 0.090874 0.275881 255 183 112 255
140.785629 -155.855972 -44.076103 -0.335947 0.891145 -0.304959 0.019793 0.359268 255 189 115 255
160.090164 -159.637863 -76.393600 -0.335947 0.891145 -0.304959 0.000000 0.257851 255 199 122 255
-16.779802 -119.272842 -48.302998 0.322564 0.946339 0.019847 0.556347 0.344771 255 199 123 255
38.424458 -138.119812 -46.856201 0.322564 0.946339 0.019847 0.373023 0.367459 255 206 126 255
25.577185 -132.554810 -103.404770 0.322564 0.946339 0.019847 0.414581 0.163369 255 186 113 255
-79.257622 -95.172935 -76.448494 0.350816 0.936368 -0.011935 0.757556 0.236046 255 208 129 255
-48.598118 -106.291512 -47.561359 0.350816 0.936368 -0.011935 0.653031 0.347477 255 201 123 255
-44.951099 -108.236870 -92.986549 0.350816 0.936368 -0.011935 0.654456 0.184812 255 190 115 255
-110.221413 -83.250580 -38.271824 0.337971 0.937468 -0.083237 0.861728 0.368142 255 199 121 255
-40.963196 -106.438568 -18.217001 0.337971 0.937468 -0.083237 0.638078 0.449800 255 204 125 255
-48.598118 -106.291512 -47.561359 0.337971 0.937468 -0.083237 0.653031 0.347477 255 201 123 255
-110.221413 -83.250580 -38.271824 0.314603 0.949160 0.010982 0.861728 0.368142 255 199 121 255
-41.108181 -106.658119 4.911661 0.314603 0.949160 0.010982 0.644228 0.519637 255 193 117 255
-40.963196 -106.438568 -18.217001 0.314603 0.949160 0.010982 0.638078 0.449800 255 204 125 255
-98.793961 -86.703827 8.194625 0.309396 0.928336 -0.206075 0.831590 0.533311 255 194 118 255
-41.269760 -99.366547 37.516415 0.309396 0.928336 -0.206075 0.635513 0.630799 255 191 116 255
-41.108181 -106.658119 4.911661 0.309396 0.928336 -0.206075 0.644228 0.519637 255 193 117 255
-98.793961 -86.703827 8.194625 -0.149360 0.953306 -0.262488 0.831590 0.533311 255 194 118 255
-121.122124 -82.064766 37.747833 -0.149360 0.953306 -0.262488 0.894737 0.635957 255 187 113 255
-116.802589 -68.205528 85.623962 -0.149360 0.953306 -0.262488 0.889330 0.789543 255 185 112 255
-116.802589 -68.205528 85.623962 0.339582 0.937647 -0.074177 0.889330 0.789543 255 185 112 255
-49.391479 -93.944191 68.877357 0.339582 0.937647 -0.074177 0.667782 0.736842 255 209 128 255
-41.269760 -99.366547 37.516415 0.339582 0.937647 -0.074177 0.635513 0.630799 255 191 116 255
-49.391479 -93.944191 68.877357 0.337909 0.920891 -0.194365 0.667782 0.736842 255 209 128 255
-82.868637 -72.956924 110.112953 0.337909 0.920891 -0.194365 0.770502 0.863435 255 206 127 255
-53.010181 -83.631844 111.445518 0.337909 0.920891 -0.194365 0.684283 0.870596 255 210 129 255
-26.876940 -1.266349 -34.541695 0.024963 0.117901 -0.992712 0.598442 0.368421 255 191 116 255
-16.779802 -119.272842 -48.302998 0.024963 0.117901 -0.992712 0.556347 0.344771 255 199 123 255
-48.598118 -106.291512 -47.561359 0.024963 0.117901 -0.992712 0.653031 0.347477 255 201 123 255
-77.033867 -0.985027 148.151688 -0.970701 0.012502 -0.239964 0.736842 1.000000 255 210 130 255
-71.544571 -1.520956 125.918449 -0.970701 0.012502 -0.239964 0.736842 0.925024 255 208 128 255
-77.897980 -65.571404 148.282410 -0.970701 0.012502 -0.239964 0.744547 0.987522 255 210 130 255
-62.286472 -0.701663 86.336472 -0.718160 0.030853 -0.695194 0.684210 0.789474 255 206 127 255
-51.551483 5.505284 75.522301 -0.718160 0.030853 -0.695194 0.684210 0.736842 255 210 129 255
-49.391479 -93.944191 68.877357 -0.718160 0.030853 -0.695194 0.667782 0.736842 255 209 128 255
-11.928022 2.483989 -31.714911 0.492128 0.098232 -0.864963 0.526316 0.368421 255 210 129 255
-2.184054 -123.145340 -40.438408 0.492128 0.098232 -0.864963 0.500023 0.368421 255 204 125 255
-16.779802 -119.272842 -48.302998 0.492128 0.098232 -0.864963 0.556347 0.344771 255 199 123 255
-50.209221 0.506774 121.306610 -0.998941 0.036534 -0.027979 0.684210 0.894737 255 187 113 255
-49.342873 5.471216 96.857140 -0.998941 0.036534 -0.027979 0.684210 0.842105 255 187 113 255
-53.010181 -83.631844 111.445518 -0.998941 0.036534 -0.027979 0.684283 0.870596 255 210 129 255
-46.850887 -5.925526 4.646755 -0.998350 -0.056895 0.007776 0.631579 0.526316 255 210 129 255
-41.108181 -106.658119 4.911661 -0.998350 -0.056895 0.007776 0.644228 0.519637 255 193 117 255
-41.269760 -99.366547 37.516415 -0.998350 -0.056895 0.007776 0.635513 0.630799 255 191 116 255
-11.448927 -0.700418 -107.626129 0.240068 0.098333 0.965763 0.543247 0.157895 255 210 129 255
-12.929245 -118.661278 -95.247528 0.240068 0.098333 0.965763 0.552728 0.163218 255 184 111 255
25.577185 -132.554810 -103.404770 0.240068 0.098333 0.965763 0.414581 0.163369 255 186 113 255
-11.928022 2.483989 -31.714911 -0.093495 0.061750 -0.993703 0.526316 0.368421 255 210 129 255
4.652529 -5.836655 -33.791981 -0.093495 0.061750 -0.993703 0.473684 0.368421 255 205 128 255
-2.184054 -123.145340 -40.438408 -0.093495 0.061750 -0.993703 0.500023 0.368421 255 204 125 255
-109.131912 -1.506169 -38.234844 0.905255 0.063211 0.420139 0.877100 0.368421 255 210 129 255
-117.393661 -0.077289 -20.648592 0.905255 0.063211 0.420139 0.894737 0.431196 255 210 129 255
-117.846115 -84.393692 -6.988184 0.905255 0.063211 0.420139 0.894737 0.476161 255 183 111 255
35.316727 0.216992 -43.896015 -0.149674 0.017791 -0.988575 0.388601 0.368421 255 213 142 255
38.424458 -138.119812 -46.856201 -0.149674 0.017791 -0.988575 0.373023 0.367459 255 206 126 255
-2.184054 -123.145340 -40.438408 -0.149674 0.017791 -0.988575 0.500023 0.368421 255 204 125 255
-92.173897 1.395541 -89.220032 -0.264445 0.091599 0.960041 0.802836 0.210526 255 210 130 255
-101.154877 -92.804512 -82.706116 -0.264445 0.091599 0.960041 0.823632 0.230044 255 210 129 255
-79.257622 -95.172935 -76.448494 -0.264445 0.091599 0.960041 0.757556 0.236046 255 208 129 255
-126.310524 2.068704 54.856560 0.987535 0.151812 0.041572 0.894737 0.684210 255 210 129 255
-125.832993 -4.475562 67.411156 0.987535 0.151812 0.041572 0.894737 0.736842 255 208 128 255
-116.802589 -68.205528 85.623962 0.987535 0.151812 0.041572 0.889330 0.789543 255 185 112 255
42.936073 -5.441538 -97.249329 -0.186987 -0.022023 0.982115 0.368421 0.157895 255 204 125 255
7.527625 4.435201 -103.769348 -0.186987 -0.022023 0.982115 0.468246 0.157895 255 210 129 255
25.577185 -132.554810 -103.404770 -0.186987 -0.022023 0.982115 0.414581 0.163369 255 186 113 255
-113.696579 -4.216721 115.837311 0.993182 -0.045383 -0.107378 0.894737 0.894737 255 210 129 255
-111.150406 3.726471 136.030685 0.993182 -0.045383 -0.107378 0.894737 0.985984 255 210 129 255
-113.522507 -55.779606 139.240341 0.993182 -0.045383 -0.107378 0.863157 0.979094 255 210 130 255
136.704681 -5.115459 -93.866882 -0.522717 0.017273 0.852331 0.052632 0.210526 255 210 129 255
121.933884 -159.344833 -99.800011 -0.522717 0.017273 0.852331 0.091409 0.178264 255 186 113 255
160.090164 -159.637863 -76.393600 -0.522717 0.017273 0.852331 0.000000 0.257851 255 199 122 255
42.936073 -5.441538 -97.249329 -0.137073 -0.029228 0.990130 0.368421 0.157895 255 204 125 255
25.577185 -132.554810 -103.404770 -0.137073 -0.029228 0.990130 0.414581 0.163369 255 186 113 255
57.924686 -145.717667 -99.315170 -0.137073 -0.029228 0.990130 0.289752 0.163443 255 182 110 255
136.704681 -5.115459 -93.866882 -0.610238 0.027986 0.791723 0.052632 0.210526 255 210 129 255
127.121490 1.792673 -101.497528 -0.610238 0.027986 0.791723 0.065194 0.157895 255 210 129 255
121.933884 -159.344833 -99.800011 -0.610238 0.027986 0.791723 0.091409 0.178264 255 186 113 255
-73.915199 -3.131263 -93.951378 0.868839 0.043356 0.493193 0.736842 0.210526 255 210 129 255
-79.257622 -95.172935 -76.448494 0.868839 0.043356 0.493193 0.757556 0.236046 255 208 129 255
-63.234680 -102.827187 -104.002617 0.868839 0.043356 0.493193 0.712205 0.157895 255 209 129 255
156.635178 0.622222 -74.594322 -0.859086 -0.012776 -0.511671 0.000000 0.000000 255 210 129 255
160.090164 -159.637863 -76.393600 -0.859086 -0.012776 -0.511671 0.000000 0.000000 255 199 122 255
140.785629 -155.855972 -44.076103 -0.859086 -0.012776 -0.511671 0.000000 0.000000 255 189 115 255
88.701637 4.355001 -42.521084 0.161912 -0.027122 -0.986432 0.219982 0.368421 255 210 129 255
99.681213 -161.927567 -36.146984 0.161912 -0.027122 -0.986432 0.165072 0.366913 255 191 116 255
38.424458 -138.119812 -46.856201 0.161912 -0.027122 -0.986432 0.373023 0.367459 255 206 126 255
-36.329109 -2.301761 -26.952427 -0.625123 0.222049 -0.748275 0.631579 0.421053 255 191 116 255
-26.876940 -1.266349 -34.541695 -0.625123 0.222049 -0.748275 0.598442 0.368421 255 191 116 255
-48.598118 -106.291512 -47.561359 -0.625123 0.222049 -0.748275 0.653031 0.347477 255 201 123 255
92.773361 -0.898049 -98.572174 0.006166 -0.006614 0.999959 0.196366 0.157895 255 210 129 255
57.924686 -145.717667 -99.315170 0.006166 -0.006614 0.999959 0.289752 0.163443 255 182 110 255
121.933884 -159.344833 -99.800011 0.006166 -0.006614 0.999959 0.091409 0.178264 255 186 113 255
-46.850887 -5.925526 4.646755 -0.988463 -0.086226 0.124522 0.631579 0.526316 255 210 129 255
-48.712700 3.923271 -3.312584 -0.988463 -0.086226 0.124522 0.631579 0.473684 255 210 129 255
-40.963196 -106.438568 -18.217001 -0.988463 -0.086226 0.124522 0.638078 0.449800 255 204 125 255
-33.162609 -0.220398 41.560658 -0.808319 0.042142 0.587234 0.631579 0.631579 255 191 116 255
-48.164101 3.149420 20.669504 -0.808319 0.042142 0.587234 0.631579 0.578947 255 210 129 255
-41.269760 -99.366547 37.516415 -0.808319 0.042142 0.587234 0.635513 0.630799 255 191 116 255
127.121490 1.792673 -101.497528 0.084253 0.007784 0.996414 0.065194 0.157895 255 210 129 255
92.773361 -0.898049 -98.572174 0.084253 0.007784 0.996414 0.196366 0.157895 255 210 129 255
121.933884 -159.344833 -99.800011 0.084253 0.007784 0.996414 0.091409 0.178264 255 186 113 255
-92.173897 1.395541 -89.220032 0.944076 -0.067693 0.322704 0.802836 0.210526 255 210 130 255
-103.812195 2.070103 -55.030537 0.944076 -0.067693 0.322704 0.842105 0.307744 255 211 131 255
-101.154877 -92.804512 -82.706116 0.944076 -0.067693 0.322704 0.823632 0.230044 255 210 129 255
-112.139114 3.973365 37.729069 0.772340 -0.080501 0.630088 0.894737 0.631579 255 208 127 255
-126.310524 2.068704 54.856560 0.772340 -0.080501 0.630088 0.894737 0.684210 255 210 129 255
-121.122124 -82.064766 37.747833 0.772340 -0.080501 0.630088 0.894737 0.635957 255 187 113 255
-109.131912 -1.506169 -38.234844 0.979169 -0.013142 0.202619 0.877100 0.368421 255 210 129 255
-110.221413 -83.250580 -38.271824 0.979169 -0.013142 0.202619 0.861728 0.368142 255 199 121 255
-101.154877 -92.804512 -82.706116 0.979169 -0.013142 0.202619 0.823632 0.230044 255 210 129 255
-125.832993 -4.475562 67.411156 0.986618 0.103888 -0.125669 0.894737 0.736842 255 208 128 255
-122.029251 0.088774 101.047272 0.986618 0.103888 -0.125669 0.894737 0.829635 255 210 129 255
-116.802589 -68.205528 85.623962 0.986618 0.103888 -0.125669 0.889330 0.789543 255 185 112 255
-113.696579 -4.216721 115.837311 0.998190 -0.022029 -0.055961 0.894737 0.894737 255 210 129 255
-113.522507 -55.779606 139.240341 0.998190 -0.022029 -0.055961 0.863157 0.979094 255 210 130 255
-116.802589 -68.205528 85.623962 0.998190 -0.022029 -0.055961 0.889330 0.789543 255 185 112 255
-89.865570 -6.041407 155.013947 0.284806 0.164052 -0.944443 0.000000 0.000000 255 210 129 255
-77.897980 -65.571404 148.282410 0.284806 0.164052 -0.944443 0.000000 0.000000 255 210 130 255
-113.522507 -55.779606 139.240341 0.284806 0.164052 -0.944443 0.000000 0.000000 255 210 130 255
-58.623966 -0.185392 -100.342842 -0.517637 -0.007254 0.855570 0.692463 0.157895 255 210 129 255
-63.234680 -102.827187 -104.002617 -0.517637 -0.007254 0.855570 0.712205 0.157895 255 209 129 255
-44.951099 -108.236870 -92.986549 -0.517637 -0.007254 0.855570 0.654456 0.184812 255 190 115 255
-89.865570 -6.041407 155.013947 -0.472975 0.004545 -0.881064 0.000000 0.000000 255 210 129 255
-77.033867 -0.985027 148.151688 -0.472975 0.004545 -0.881064 0.000000 0.000000 255 210 130 255
-77.897980 -65.571404 148.282410 -0.472975 0.004545 -0.881064 0.000000 0.000000 255 210 130 255
-11.448927 -0.700418 -107.626129 0.152932 0.086375 0.984455 0.543247 0.157895 255 210 129 255
-58.623966 -0.185392 -100.342842 0.152932 0.086375 0.984455 0.692463 0.157895 255 210 129 255
-44.951099 -108.236870 -92.986549 0.152932 0.086375 0.984455 0.654456 0.184812 255 190 115 255
-50.209221 0.506774 121.306610 0.084654 0.113206 -0.989959 0.684210 0.894737 255 187 113 255
-53.010181 -83.631844 111.445518 0.084654 0.113206 -0.989959 0.684283 0.870596 255 210 129 255
-82.868637 -72.956924 110.112953 0.084654 0.113206 -0.989959 0.770502 0.863435 255 206 127 255
-63.234680 -102.827187 -104.002617 0.323604 0.943305 -0.073862 0.712205 0.157895 255 209 129 255
-79.257622 -95.172935 -76.448494 0.323604 0.943305 -0.073862 0.757556 0.236046 255 208 129 255
-44.951099 -108.236870 -92.986549 0.323604 0.943305 -0.073862 0.654456 0.184812 255 190 115 255
160.090164 -159.637863 -76.393600 -0.187056 0.929941 0.316574 0.000000 0.257851 255 199 122 255
121.933884 -159.344833 -99.800011 -0.187056 0.929941 0.316574 0.091409 0.178264 255 186 113 255
124.367401 -169.955887 -67.192017 -0.187056 0.929941 0.316574 0.090874 0.275881 255 183 112 255
25.577185 -132.554810 -103.404770 0.346722 0.937087 0.040647 0.414581 0.163369 255 186 113 255
-12.929245 -118.661278 -95.247528 0.346722 0.937087 0.040647 0.552728 0.163218 255 184 111 255
-16.779802 -119.272842 -48.302998 0.346722 0.937087 0.040647 0.556347 0.344771 255 199 123 255
124.367401 -169.955887 -67.192017 0.333469 0.942518 0.021429 0.090874 0.275881 255 183 112 255
57.924686 -145.717667 -99.315170 0.333469 0.942518 0.021429 0.289752 0.163443 255 182 110 255
99.681213 -161.927567 -36.146984 0.333469 0.942518 0.021429 0.165072 0.366913 255 191 116 255
25.577185 -132.554810 -103.404770 0.360747 0.932612 0.009821 0.414581 0.163369 255 186 113 255
38.424458 -138.119812 -46.856201 0.360747 0.932612 0.009821 0.373023 0.367459 255 206 126 255
99.681213 -161.927567 -36.146984 0.360747 0.932612 0.009821 0.165072 0.366913 255 191 116 255
-12.929245 -118.661278 -95.247528 0.378264 0.924695 0.043073 0.552728 0.163218 255 184 111 255
-48.598118 -106.291512 -47.561359 0.378264 0.924695 0.043073 0.653031 0.347477 255 201 123 255
-16.779802 -119.272842 -48.302998 0.378264 0.924695 0.043073 0.556347 0.344771 255 199 123 255
-12.929245 -118.661278 -95.247528 0.308492 0.951093 -0.015963 0.552728 0.163218 255 184 111 255
-44.951099 -108.236870 -92.986549 0.308492 0.951093 -0.015963 0.654456 0.184812 255 190 115 255
-48.598118 -106.291512 -47.561359 0.308492 0.951093 -0.015963 0.653031 0.347477 255 201 123 255
-79.257622 -95.172935 -76.448494 0.348927 0.937100 -0.009648 0.757556 0.236046 255 208 129 255
-110.221413 -83.250580 -38.271824 0.348927 0.937100 -0.009648 0.861728 0.368142 255 199 121 255
-48.598118 -106.291512 -47.561359 0.348927 0.937100 -0.009648 0.653031 0.347477 255 201 123 255
124.367401 -169.955887 -67.192017 -0.208608 0.893790 -0.397016 0.090874 0.275881 255 183 112 255
99.681213 -161.927567 -36.146984 -0.208608 0.893790 -0.397016 0.165072 0.366913 255 191 116 255
140.785629 -155.855972 -44.076103 -0.208608 0.893790 -0.397016 0.019793 0.359268 255 189 115 255
38.424458 -138.119812 -46.856201 0.323219 0.936069 -0.138940 0.373023 0.367459 255 206 126 255
-16.779802 -119.272842 -48.302998 0.323219 0.936069 -0.138940 0.556347 0.344771 255 199 123 255
-2.184054 -123.145340 -40.438408 0.323219 0.936069 -0.138940 0.500023 0.368421 255 204 125 255
-79.257622 -95.172935 -76.448494 0.155738 0.971780 -0.177168 0.757556 0.236046 255 208 129 255
-101.154877 -92.804512 -82.706116 0.155738 0.971780 -0.177168 0.823632 0.230044 255 210 129 255
-110.221413 -83.250580 -38.271824 0.155738 0.971780 -0.177168 0.861728 0.368142 255 199 121 255
-110.221413 -83.250580 -38.271824 0.076804 0.995523 0.055096 0.861728 0.368142 255 199 121 255
-117.846115 -84.393692 -6.988184 0.076804 0.995523 0.055096 0.894737 0.476161 255 183 111 255
-98.793961 -86.703827 8.194625 0.076804 0.995523 0.055096 0.831590 0.533311 255 194 118 255
-110.221413 -83.250580 -38.271824 0.326382 0.945185 -0.010023 0.861728 0.368142 255 199 121 255
-98.793961 -86.703827 8.194625 0.326382 0.945185 -0.010023 0.831590 0.533311 255 194 118 255
-41.108181 -106.658119 4.911661 0.326382 0.945185 -0.010023 0.644228 0.519637 255 193 117 255
-117.846115 -84.393692 -6.988184 0.151857 0.987581 -0.040292 0.894737 0.476161 255 183 111 255
-121.122124 -82.064766 37.747833 0.151857 0.987581 -0.040292 0.894737 0.635957 255 187 113 255
-98.793961 -86.703827 8.194625 0.151857 0.987581 -0.040292 0.831590 0.533311 255 194 118 255
-41.269760 -99.366547 37.516415 0.288624 0.944239 -0.158456 0.635513 0.630799 255 191 116 255
-98.793961 -86.703827 8.194625 0.288624 0.944239 -0.158456 0.831590 0.533311 255 194 118 255
-116.802589 -68.205528 85.623962 0.288624 0.944239 -0.158456 0.889330 0.789543 255 185 112 255
-49.391479 -93.944191 68.877357 0.296447 0.926697 -0.230981 0.667782 0.736842 255 209 128 255
-116.802589 -68.205528 85.623962 0.296447 0.926697 -0.230981 0.889330 0.789543 255 185 112 255
-82.868637 -72.956924 110.112953 0.296447 0.926697 -0.230981 0.770502 0.863435 255 206 127 255
-82.868637 -72.956924 110.112953 0.297631 0.925866 -0.232783 0.770502 0.863435 255 206 127 255
-116.802589 -68.205528 85.623962 0.297631 0.925866 -0.232783 0.889330 0.789543 255 185 112 255
-113.522507 -55.779606 139.240341 0.297631 0.925866 -0.232783 0.863157 0.979094 255 210 130 255
-82.868637 -72.956924 110.112953 0.309952 0.925099 -0.219364 0.770502 0.863435 255 206 127 255
-113.522507 -55.779606 139.240341 0.309952 0.925099 -0.219364 0.863157 0.979094 255 210 130 255
-77.897980 -65.571404 148.282410 0.309952 0.925099 -0.219364 0.744547 0.987522 255 210 130 255
3 0 1 2
3 3 4 5
3 6 7 8
3 9 10 11
3 12 13 14
3 15 16 17
3 18 19 20
3 21 22 23
3 24 25 26
3 27 28 29
3 30 31 32
3 33 34 35
3 36 37 38
3 39 40 41
3 42 43 44
3 45 46 47
3 48 49 50
3 51 52 53
3 54 55 56
3 57 58 59
3 60 61 62
3 63 64 65
3 66 67 68
3 69 70 71
3 72 73 74
3 75 76 77
3 78 79 80
3 81 82 83
3 84 85 86
3 87 88 89
3 90 91 92
3 93 94 95
3 96 97 98
3 99 100 101
3 102 103 104
3 105 106 107
3 108 109 110
3 111 112 113
3 114 115 116
3 117 118 119
3 120 121 122
3 123 124 125
3 126 127 128
3 129 130 131
3 132 133 134
3 135 136 137
3 138 139 140
3 141 142 143
3 144 145 146
3 147 148 149
3 150 151 152
3 153 154 155
3 156 157 158
3 159 160 161
3 162 163 164
3 165 166 167
3 168 169 170
3 171 172 173
3 174 175 176
3 177 178 179
3 180 181 182
3 183 184 185
3 186 187 188
3 189 190 191
3 192 193 194
3 195 196 197
3 198 199 200
3 201 202 203
3 204 205 206
3 207 208 209
3 210 211 212
3 213 214 215
3 216 217 218
3 219 220 221
3 222 223 224
3 225 226 227
3 228 229 230
3 231 232 233
3 234 235 236
3 237 238 239
3 240 241 242
3 243 244 245
3 246 247 248
3 249 250 251
3 252 253 254
3 255 256 257
3 258 259 260
3 261 262 263
3 264 265 266
3 267 268 269
3 270 271 272
3 273 274 275
3 276 277 278
3 279 280 281
3 282 283 284
3 285 286 287
3 288 289 290
3 291 292 293
3 294 295 296
3 297 298 299
