ply
format ascii 1.0
comment Created by Blender 2.92.0 - www.blender.org
element vertex 114
property float x
property float y
property float z
property float nx
property float ny
property float nz
property float s
property float t
property uchar red
property uchar green
property uchar blue
property uchar alpha
element face 38
property list uchar uint vertex_indices
end_header
-107.896851 -100.839165 76.280556 0.196245 0.963466 -0.182265 1.000000 0.000000 255 202 117 255
-53.831745 -97.537193 151.947006 0.196245 0.963466 -0.182265 0.000000 1.000000 255 183 94 255
-45.606731 -110.426201 92.670601 0.196245 0.963466 -0.182265 0.000000 0.000000 255 192 103 255
-107.896851 -100.839165 76.280556 0.328510 0.925051 -0.190690 1.000000 0.000000 255 202 117 255
-35.053917 -136.084229 30.793892 0.328510 0.925051 -0.190690 0.000000 0.000000 255 191 101 255
-107.194817 -112.601738 20.428886 0.328510 0.925051 -0.190690 1.000000 0.000000 255 190 100 255
-107.194817 -112.601738 20.428886 0.299552 0.860183 -0.412740 1.000000 0.000000 255 190 100 255
-43.032959 -151.044968 -13.123384 0.299552 0.860183 -0.412740 0.000000 0.000000 255 191 101 255
-118.731895 -134.800049 -34.207314 0.299552 0.860183 -0.412740 1.000000 0.000000 255 190 100 255
-118.731895 -134.800049 -34.207314 -0.211063 0.970719 -0.114707 1.000000 0.000000 255 190 100 255
-58.244312 -129.321274 -99.141029 -0.211063 0.970719 -0.114707 0.000000 0.000000 255 191 101 255
-127.655449 -141.910873 -77.963982 -0.211063 0.970719 -0.114707 1.000000 0.000000 255 183 91 255
-43.032959 -151.044968 -13.123384 0.492475 0.860527 0.130236 0.000000 0.000000 255 191 101 255
14.595497 -171.000565 -99.184578 0.492475 0.860527 0.130236 0.000000 0.000000 255 190 99 255
-58.244312 -129.321274 -99.141029 0.492475 0.860527 0.130236 0.000000 0.000000 255 191 101 255
24.430023 -155.930283 -35.329002 0.228616 0.939029 -0.256826 0.000000 0.000000 255 191 101 255
124.500618 -195.539413 -91.072395 0.228616 0.939029 -0.256826 0.000000 0.000000 255 173 76 255
14.595497 -171.000565 -99.184578 0.228616 0.939029 -0.256826 0.000000 0.000000 255 190 99 255
-53.831745 -97.537193 151.947006 -0.987510 0.052695 -0.148482 0.000000 1.000000 255 183 94 255
-36.599991 42.319695 86.977150 -0.987510 0.052695 -0.148482 0.000000 0.000000 255 191 101 255
-45.606731 -110.426201 92.670601 -0.987510 0.052695 -0.148482 0.000000 0.000000 255 192 103 255
-43.032959 -151.044968 -13.123384 -0.316563 -0.072525 -0.945795 0.000000 0.000000 255 191 101 255
14.032310 29.664841 -46.080452 -0.316563 -0.072525 -0.945795 0.000000 0.000000 255 191 101 255
24.430023 -155.930283 -35.329002 -0.316563 -0.072525 -0.945795 0.000000 0.000000 255 191 101 255
-107.194817 -112.601738 20.428886 0.992312 0.023826 0.121449 1.000000 0.000000 255 190 100 255
-102.452087 13.331817 -43.027946 0.992312 0.023826 0.121449 1.000000 0.000000 255 191 101 255
-109.343895 34.021904 9.223159 0.992312 0.023826 0.121449 1.000000 0.000000 255 191 101 255
-35.053917 -136.084229 30.793892 -0.980804 -0.038221 0.191216 0.000000 0.000000 255 191 101 255
-50.803886 24.624863 -17.869308 -0.980804 -0.038221 0.191216 0.000000 0.000000 255 191 101 255
-43.032959 -151.044968 -13.123384 -0.980804 -0.038221 0.191216 0.000000 0.000000 255 191 101 255
-107.896851 -100.839165 76.280556 0.994370 0.082783 0.066151 1.000000 0.000000 255 202 117 255
-126.651093 60.645931 156.105270 0.994370 0.082783 0.066151 1.000000 1.000000 255 192 107 255
-114.343643 -106.496971 180.268127 0.994370 0.082783 0.066151 1.000000 1.000000 255 204 119 255
14.595497 -171.000565 -99.184578 0.013348 0.059002 0.998169 0.000000 0.000000 255 190 99 255
138.829224 10.845466 -111.594948 0.013348 0.059002 0.998169 0.000000 0.000000 255 191 101 255
13.806274 23.892616 -110.694298 0.013348 0.059002 0.998169 0.000000 0.000000 255 201 130 255
-58.244312 -129.321274 -99.141029 0.268660 0.125277 0.955054 0.000000 0.000000 255 191 101 255
-139.896805 11.145568 -94.597343 0.268660 0.125277 0.955054 1.000000 0.000000 255 191 101 255
-127.655449 -141.910873 -77.963982 0.268660 0.125277 0.955054 1.000000 0.000000 255 183 91 255
-53.831745 -97.537193 151.947006 -0.219262 -0.075366 -0.972751 0.000000 1.000000 255 183 94 255
-126.651093 60.645931 156.105270 -0.219262 -0.075366 -0.972751 1.000000 1.000000 255 192 107 255
-52.096432 52.619820 139.922180 -0.219262 -0.075366 -0.972751 0.000000 1.000000 255 191 101 255
24.430023 -155.930283 -35.329002 0.233905 -0.046991 -0.971123 0.000000 0.000000 255 191 101 255
132.543488 12.314528 -17.429787 0.233905 -0.046991 -0.971123 0.000000 0.000000 255 191 101 255
136.611115 -191.529465 -6.586396 0.233905 -0.046991 -0.971123 0.000000 0.000000 255 191 101 255
-127.655449 -141.910873 -77.963982 0.976563 -0.118042 -0.179973 1.000000 0.000000 255 183 91 255
-102.452087 13.331817 -43.027946 0.976563 -0.118042 -0.179973 1.000000 0.000000 255 191 101 255
-118.731895 -134.800049 -34.207314 0.976563 -0.118042 -0.179973 1.000000 0.000000 255 190 100 255
-107.896851 -100.839165 76.280556 0.938405 0.161865 0.305281 1.000000 0.000000 255 202 117 255
-109.343895 34.021904 9.223159 0.938405 0.161865 0.305281 1.000000 0.000000 255 191 101 255
-130.930603 35.101021 75.006592 0.938405 0.161865 0.305281 1.000000 0.000000 255 191 101 255
-45.606731 -110.426201 92.670601 -0.987440 -0.034073 -0.154275 0.000000 0.000000 255 192 103 255
-38.839298 35.112061 17.211662 -0.987440 -0.034073 -0.154275 0.000000 0.000000 255 191 101 255
-35.053917 -136.084229 30.793892 -0.987440 -0.034073 -0.154275 0.000000 0.000000 255 191 101 255
-58.244312 -129.321274 -99.141029 0.058284 0.047783 0.997156 0.000000 0.000000 255 191 101 255
13.806274 23.892616 -110.694298 0.058284 0.047783 0.997156 0.000000 0.000000 255 201 130 255
-58.581425 20.193813 -106.285973 0.058284 0.047783 0.997156 0.000000 0.000000 255 191 101 255
-107.896851 -100.839165 76.280556 -0.125137 0.991065 0.046164 1.000000 0.000000 255 202 117 255
-114.343643 -106.496971 180.268127 -0.125137 0.991065 0.046164 1.000000 1.000000 255 204 119 255
-53.831745 -97.537193 151.947006 -0.125137 0.991065 0.046164 0.000000 1.000000 255 183 94 255
-107.896851 -100.839165 76.280556 0.229641 0.912282 -0.339126 1.000000 0.000000 255 202 117 255
-45.606731 -110.426201 92.670601 0.229641 0.912282 -0.339126 0.000000 0.000000 255 192 103 255
-35.053917 -136.084229 30.793892 0.229641 0.912282 -0.339126 0.000000 0.000000 255 191 101 255
-107.194817 -112.601738 20.428886 0.335119 0.871593 -0.357800 1.000000 0.000000 255 190 100 255
-35.053917 -136.084229 30.793892 0.335119 0.871593 -0.357800 0.000000 0.000000 255 191 101 255
-43.032959 -151.044968 -13.123384 0.335119 0.871593 -0.357800 0.000000 0.000000 255 191 101 255
-118.731895 -134.800049 -34.207314 0.146413 0.964948 0.217805 1.000000 0.000000 255 190 100 255
-43.032959 -151.044968 -13.123384 0.146413 0.964948 0.217805 0.000000 0.000000 255 191 101 255
-58.244312 -129.321274 -99.141029 0.146413 0.964948 0.217805 0.000000 0.000000 255 191 101 255
-43.032959 -151.044968 -13.123384 -0.004880 0.973419 -0.228981 0.000000 0.000000 255 191 101 255
24.430023 -155.930283 -35.329002 -0.004880 0.973419 -0.228981 0.000000 0.000000 255 191 101 255
14.595497 -171.000565 -99.184578 -0.004880 0.973419 -0.228981 0.000000 0.000000 255 190 99 255
24.430023 -155.930283 -35.329002 0.322309 0.942258 -0.090923 0.000000 0.000000 255 191 101 255
136.611115 -191.529465 -6.586396 0.322309 0.942258 -0.090923 0.000000 0.000000 255 191 101 255
124.500618 -195.539413 -91.072395 0.322309 0.942258 -0.090923 0.000000 0.000000 255 173 76 255
-53.831745 -97.537193 151.947006 -0.960262 -0.011235 -0.278873 0.000000 1.000000 255 183 94 255
-52.096432 52.619820 139.922180 -0.960262 -0.011235 -0.278873 0.000000 1.000000 255 191 101 255
-36.599991 42.319695 86.977150 -0.960262 -0.011235 -0.278873 0.000000 0.000000 255 191 101 255
-43.032959 -151.044968 -13.123384 -0.395859 -0.042294 -0.917337 0.000000 0.000000 255 191 101 255
-50.803886 24.624863 -17.869308 -0.395859 -0.042294 -0.917337 0.000000 0.000000 255 191 101 255
14.032310 29.664841 -46.080452 -0.395859 -0.042294 -0.917337 0.000000 0.000000 255 191 101 255
-107.194817 -112.601738 20.428886 0.980236 -0.117218 -0.159364 1.000000 0.000000 255 190 100 255
-118.731895 -134.800049 -34.207314 0.980236 -0.117218 -0.159364 1.000000 0.000000 255 190 100 255
-102.452087 13.331817 -43.027946 0.980236 -0.117218 -0.159364 1.000000 0.000000 255 191 101 255
-35.053917 -136.084229 30.793892 -0.946875 0.004576 0.321570 0.000000 0.000000 255 191 101 255
-38.839298 35.112061 17.211662 -0.946875 0.004576 0.321570 0.000000 0.000000 255 191 101 255
-50.803886 24.624863 -17.869308 -0.946875 0.004576 0.321570 0.000000 0.000000 255 191 101 255
-107.896851 -100.839165 76.280556 0.980781 0.165211 -0.103794 1.000000 0.000000 255 202 117 255
-130.930603 35.101021 75.006592 0.980781 0.165211 -0.103794 1.000000 0.000000 255 191 101 255
-126.651093 60.645931 156.105270 0.980781 0.165211 -0.103794 1.000000 1.000000 255 192 107 255
14.595497 -171.000565 -99.184578 -0.050489 0.102294 0.993472 0.000000 0.000000 255 190 99 255
124.500618 -195.539413 -91.072395 -0.050489 0.102294 0.993472 0.000000 0.000000 255 173 76 255
138.829224 10.845466 -111.594948 -0.050489 0.102294 0.993472 0.000000 0.000000 255 191 101 255
-58.244312 -129.321274 -99.141029 0.136930 0.047591 0.989437 0.000000 0.000000 255 191 101 255
-58.581425 20.193813 -106.285973 0.136930 0.047591 0.989437 0.000000 0.000000 255 191 101 255
-139.896805 11.145568 -94.597343 0.136930 0.047591 0.989437 1.000000 0.000000 255 191 101 255
-53.831745 -97.537193 151.947006 -0.398920 -0.159906 -0.902936 0.000000 1.000000 255 183 94 255
-114.343643 -106.496971 180.268127 -0.398920 -0.159906 -0.902936 1.000000 1.000000 255 204 119 255
-126.651093 60.645931 156.105270 -0.398920 -0.159906 -0.902936 1.000000 1.000000 255 192 107 255
24.430023 -155.930283 -35.329002 0.228738 -0.043523 -0.972515 0.000000 0.000000 255 191 101 255
14.032310 29.664841 -46.080452 0.228738 -0.043523 -0.972515 0.000000 0.000000 255 191 101 255
132.543488 12.314528 -17.429787 0.228738 -0.043523 -0.972515 0.000000 0.000000 255 191 101 255
-127.655449 -141.910873 -77.963982 0.809168 0.000862 -0.587576 1.000000 0.000000 255 183 91 255
-139.896805 11.145568 -94.597343 0.809168 0.000862 -0.587576 1.000000 0.000000 255 191 101 255
-102.452087 13.331817 -43.027946 0.809168 0.000862 -0.587576 1.000000 0.000000 255 191 101 255
-107.896851 -100.839165 76.280556 0.999838 0.015368 0.009331 1.000000 0.000000 255 202 117 255
-107.194817 -112.601738 20.428886 0.999838 0.015368 0.009331 1.000000 0.000000 255 190 100 255
-109.343895 34.021904 9.223159 0.999838 0.015368 0.009331 1.000000 0.000000 255 191 101 255
-45.606731 -110.426201 92.670601 -0.997875 0.059804 0.025851 0.000000 0.000000 255 192 103 255
-36.599991 42.319695 86.977150 -0.997875 0.059804 0.025851 0.000000 0.000000 255 191 101 255
-38.839298 35.112061 17.211662 -0.997875 0.059804 0.025851 0.000000 0.000000 255 191 101 255
-58.244312 -129.321274 -99.141029 0.034390 0.059058 0.997662 0.000000 0.000000 255 191 101 255
14.595497 -171.000565 -99.184578 0.034390 0.059058 0.997662 0.000000 0.000000 255 190 99 255
13.806274 23.892616 -110.694298 0.034390 0.059058 0.997662 0.000000 0.000000 255 201 130 255
3 0 1 2
3 3 4 5
3 6 7 8
3 9 10 11
3 12 13 14
3 15 16 17
3 18 19 20
3 21 22 23
3 24 25 26
3 27 28 29
3 30 31 32
3 33 34 35
3 36 37 38
3 39 40 41
3 42 43 44
3 45 46 47
3 48 49 50
3 51 52 53
3 54 55 56
3 57 58 59
3 60 61 62
3 63 64 65
3 66 67 68
3 69 70 71
3 72 73 74
3 75 76 77
3 78 79 80
3 81 82 83
3 84 85 86
3 87 88 89
3 90 91 92
3 93 94 95
3 96 97 98
3 99 100 101
3 102 103 104
3 105 106 107
3 108 109 110
3 111 112 113
