ply
format ascii 1.0
comment Created by Blender 2.92.0 - www.blender.org
element vertex 56
property float x
property float y
property float z
property float nx
property float ny
property float nz
property float s
property float t
property uchar red
property uchar green
property uchar blue
property uchar alpha
element face 24
property list uchar uint vertex_indices
end_header
124.500618 -195.539413 -91.072395 0.418883 0.061008 0.905989 0.000000 0.000000 255 173 76 255
238.593521 -6.864608 -156.528290 0.418883 0.061008 0.905989 0.000000 0.000000 255 191 101 255
138.829224 10.845466 -111.594948 0.418883 0.061008 0.905989 0.000000 0.000000 255 191 101 255
136.611115 -191.529465 -6.586396 -0.418338 -0.056570 -0.906528 0.000000 0.000000 255 191 101 255
232.307785 -5.395545 -62.363121 -0.418338 -0.056570 -0.906528 0.000000 0.000000 255 191 101 255
236.375412 -209.239532 -51.519730 -0.418338 -0.056570 -0.906528 0.000000 0.000000 255 191 101 255
124.500618 -195.539413 -91.072395 0.144788 0.987150 -0.067607 0.000000 0.000000 255 173 76 255
236.375412 -209.239532 -51.519730 0.144788 0.987150 -0.067607 0.000000 0.000000 255 191 101 255
224.264923 -213.249481 -136.005737 0.144788 0.987150 -0.067607 0.000000 0.000000 255 173 76 255
232.307785 -5.395545 -62.363121 -0.661893 -0.052983 -0.747723 0.000000 0.000000 255 191 101 255
311.273254 -206.067596 -118.044891 -0.661893 -0.052983 -0.747723 0.000000 0.000000 255 191 101 255
236.375412 -209.239532 -51.519730 -0.661893 -0.052983 -0.747723 0.000000 0.000000 255 191 101 255
224.264923 -213.249481 -136.005737 -0.074703 0.996534 -0.036590 0.000000 0.000000 255 173 76 255
311.273254 -206.067596 -118.044891 -0.074703 0.996534 -0.036590 0.000000 0.000000 255 191 101 255
299.162781 -210.077545 -202.530899 -0.074703 0.996534 -0.036590 0.000000 0.000000 255 173 76 255
238.593521 -6.864608 -156.528290 0.663143 0.028336 0.747956 0.000000 0.000000 255 191 101 255
299.162781 -210.077545 -202.530899 0.663143 0.028336 0.747956 0.000000 0.000000 255 173 76 255
313.491394 -3.692674 -223.053452 0.663143 0.028336 0.747956 0.000000 0.000000 255 191 101 255
311.273254 -206.067596 -118.044891 -0.234002 -0.220223 -0.946966 0.000000 0.000000 255 191 101 255
391.074097 -29.819683 -178.751862 -0.234002 -0.220223 -0.946966 0.000000 0.000000 255 191 101 255
398.002808 -233.663666 -133.058716 -0.234002 -0.220223 -0.946966 0.000000 0.000000 255 191 101 255
299.162781 -210.077545 -202.530899 0.288423 0.953579 -0.086603 0.000000 0.000000 255 173 76 255
398.002808 -233.663666 -133.058716 0.288423 0.953579 -0.086603 0.000000 0.000000 255 191 101 255
385.892334 -237.673615 -217.544708 0.288423 0.953579 -0.086603 0.000000 0.000000 255 173 76 255
299.162781 -210.077545 -202.530899 0.458956 0.056305 0.886673 0.000000 0.000000 255 173 76 255
399.040009 -31.288746 -265.582306 0.458956 0.056305 0.886673 0.000000 0.000000 255 191 101 255
313.491394 -3.692674 -223.053452 0.458956 0.056305 0.886673 0.000000 0.000000 255 191 101 255
398.002808 -233.663666 -133.058716 0.088892 -0.037504 -0.995335 0.000000 0.000000 255 191 101 255
506.195679 -7.074547 -131.934067 0.088892 -0.037504 -0.995335 0.000000 0.000000 255 191 101 255
510.263306 -285.209381 -121.090683 0.088892 -0.037504 -0.995335 0.000000 0.000000 255 191 101 255
398.002808 -233.663666 -133.058716 0.424127 0.899669 -0.103497 0.000000 0.000000 255 191 101 255
498.152832 -289.219330 -205.576675 0.424127 0.899669 -0.103497 0.000000 0.000000 255 173 76 255
385.892334 -237.673615 -217.544708 0.424127 0.899669 -0.103497 0.000000 0.000000 255 173 76 255
385.892334 -237.673615 -217.544708 -0.361016 0.233164 0.902940 0.000000 0.000000 255 173 76 255
512.481445 -8.543610 -226.099228 -0.361016 0.233164 0.902940 0.000000 0.000000 255 191 101 255
399.040009 -31.288746 -265.582306 -0.361016 0.233164 0.902940 0.000000 0.000000 255 191 101 255
224.264923 -213.249481 -136.005737 0.418883 0.061008 0.905989 0.000000 0.000000 255 173 76 255
132.543488 12.314528 -17.429787 -0.418338 -0.056570 -0.906528 0.000000 0.000000 255 191 101 255
136.611115 -191.529465 -6.586396 0.144788 0.987150 -0.067607 0.000000 0.000000 255 191 101 255
307.205627 -2.223611 -128.888275 -0.661893 -0.052983 -0.747723 0.000000 0.000000 255 191 101 255
236.375412 -209.239532 -51.519730 -0.074703 0.996534 -0.036590 0.000000 0.000000 255 191 101 255
224.264923 -213.249481 -136.005737 0.663143 0.028336 0.747956 0.000000 0.000000 255 173 76 255
311.273254 -206.067596 -118.044891 -0.523722 -0.055670 -0.850069 0.000000 0.000000 255 191 101 255
307.205627 -2.223611 -128.888275 -0.523722 -0.055670 -0.850069 0.000000 0.000000 255 191 101 255
391.074097 -29.819683 -178.751862 -0.523722 -0.055670 -0.850069 0.000000 0.000000 255 191 101 255
311.273254 -206.067596 -118.044891 0.288423 0.953579 -0.086603 0.000000 0.000000 255 191 101 255
299.162781 -210.077545 -202.530899 0.230367 0.206655 0.950907 0.000000 0.000000 255 173 76 255
385.892334 -237.673615 -217.544708 0.230367 0.206655 0.950907 0.000000 0.000000 255 173 76 255
399.040009 -31.288746 -265.582306 0.230367 0.206655 0.950907 0.000000 0.000000 255 191 101 255
398.002808 -233.663666 -133.058716 0.401582 -0.187300 -0.896466 0.000000 0.000000 255 191 101 255
391.074097 -29.819683 -178.751862 0.401582 -0.187300 -0.896466 0.000000 0.000000 255 191 101 255
506.195679 -7.074547 -131.934067 0.401582 -0.187300 -0.896466 0.000000 0.000000 255 191 101 255
510.263306 -285.209381 -121.090683 0.424127 0.899669 -0.103497 0.000000 0.000000 255 191 101 255
385.892334 -237.673615 -217.544708 -0.070975 0.076343 0.994552 0.000000 0.000000 255 173 76 255
498.152832 -289.219330 -205.576675 -0.070975 0.076343 0.994552 0.000000 0.000000 255 173 76 255
512.481445 -8.543610 -226.099228 -0.070975 0.076343 0.994552 0.000000 0.000000 255 191 101 255
3 0 1 2
3 3 4 5
3 6 7 8
3 9 10 11
3 12 13 14
3 15 16 17
3 18 19 20
3 21 22 23
3 24 25 26
3 27 28 29
3 30 31 32
3 33 34 35
3 0 36 1
3 3 37 4
3 6 38 7
3 9 39 10
3 12 40 13
3 15 41 16
3 42 43 44
3 21 45 22
3 46 47 48
3 49 50 51
3 30 52 31
3 53 54 55
