ply
format ascii 1.0
comment Created by Blender 2.92.0 - www.blender.org
element vertex 86
property float x
property float y
property float z
property float nx
property float ny
property float nz
property float s
property float t
property uchar red
property uchar green
property uchar blue
property uchar alpha
element face 32
property list uchar uint vertex_indices
end_header
41.751316 -16.990889 -35.471848 -0.648762 -0.104842 0.753735 0.000000 0.000000 139 112 80 255
33.950409 -25.238129 -43.333485 -0.648762 -0.104842 0.753735 0.000000 0.000000 255 205 147 255
42.926895 -26.733654 -35.815174 -0.648762 -0.104842 0.753735 0.000000 0.000000 140 113 80 255
33.233543 -26.124573 -36.652645 0.176799 0.973044 0.148079 0.000000 0.000000 144 116 83 255
33.950409 -25.238129 -43.333485 0.176799 0.973044 0.148079 0.000000 0.000000 255 205 147 255
25.084463 -24.629047 -36.750320 0.176799 0.973044 0.148079 0.000000 0.000000 247 199 142 255
31.928167 -14.516432 -35.962818 0.060077 0.037022 -0.997507 0.000000 0.000000 147 118 84 255
25.084463 -24.629047 -36.750320 0.060077 0.037022 -0.997507 0.000000 0.000000 247 199 142 255
23.779087 -3.924192 -36.060493 0.060077 0.037022 -0.997507 0.000000 0.000000 254 204 146 255
31.928167 -14.516432 -35.962818 -0.077666 -0.481533 -0.872980 0.000000 0.000000 147 118 84 255
32.774830 -1.912994 -42.990158 -0.077666 -0.481533 -0.872980 0.000000 0.000000 139 112 80 255
41.751316 -16.990889 -35.471848 -0.077666 -0.481533 -0.872980 0.000000 0.000000 139 112 80 255
32.774830 -1.912994 -42.990158 0.020401 -0.013687 0.999698 0.000000 0.000000 139 112 80 255
21.215031 -21.926111 -43.028244 0.020401 -0.013687 0.999698 0.000000 0.000000 255 205 147 255
33.950409 -25.238129 -43.333485 0.020401 -0.013687 0.999698 0.000000 0.000000 255 205 147 255
25.084463 -24.629047 -36.750320 0.624584 0.779393 -0.049401 0.000000 0.000000 247 199 142 255
21.215031 -21.926111 -43.028244 0.624584 0.779393 -0.049401 0.000000 0.000000 255 205 147 255
20.902903 -21.317030 -37.365135 0.624584 0.779393 -0.049401 0.000000 0.000000 255 205 147 255
23.779087 -3.924192 -36.060493 0.101639 0.057689 -0.993147 0.000000 0.000000 254 204 146 255
20.902903 -21.317030 -37.365135 0.101639 0.057689 -0.993147 0.000000 0.000000 255 205 147 255
18.108831 -4.518472 -36.675308 0.101639 0.057689 -0.993147 0.000000 0.000000 255 205 147 255
18.550758 -2.507274 -42.684914 0.002686 -0.017309 0.999847 0.000000 0.000000 254 204 146 255
16.138571 -22.187344 -43.019127 0.002686 -0.017309 0.999847 0.000000 0.000000 255 205 147 255
21.215031 -21.926111 -43.028244 0.002686 -0.017309 0.999847 0.000000 0.000000 255 205 147 255
20.902903 -21.317030 -37.365135 -0.051278 0.992653 -0.109589 0.000000 0.000000 255 205 147 255
16.138571 -22.187344 -43.019127 -0.051278 0.992653 -0.109589 0.000000 0.000000 255 205 147 255
15.826441 -21.578262 -37.356018 -0.051278 0.992653 -0.109589 0.000000 0.000000 255 205 147 255
18.108831 -4.518472 -36.675308 -0.003872 0.040387 -0.999177 0.000000 0.000000 255 205 147 255
15.826441 -21.578262 -37.356018 -0.003872 0.040387 -0.999177 0.000000 0.000000 255 205 147 255
13.032370 -4.779704 -36.666195 -0.003872 0.040387 -0.999177 0.000000 0.000000 255 205 147 255
16.138571 -22.187344 -43.019127 0.377179 0.035387 0.925464 0.000000 0.000000 255 205 147 255
7.563054 -4.618493 -40.195896 0.377179 0.035387 0.925464 0.000000 0.000000 252 203 146 255
10.227328 -24.037329 -40.539227 0.377179 0.035387 0.925464 0.000000 0.000000 255 205 147 255
15.826441 -21.578262 -37.356018 -0.341714 0.932227 -0.119097 0.000000 0.000000 255 205 147 255
10.227328 -24.037329 -40.539227 -0.341714 0.932227 -0.119097 0.000000 0.000000 255 205 147 255
9.915197 -23.428247 -34.876118 -0.341714 0.932227 -0.119097 0.000000 0.000000 255 205 147 255
15.826441 -21.578262 -37.356018 -0.380009 -0.025236 -0.924638 0.000000 0.000000 255 205 147 255
7.121127 -6.629691 -34.186291 -0.380009 -0.025236 -0.924638 0.000000 0.000000 246 198 141 255
13.032370 -4.779704 -36.666195 -0.380009 -0.025236 -0.924638 0.000000 0.000000 255 205 147 255
10.227328 -24.037329 -40.539227 0.382642 0.036177 0.923188 0.000000 0.000000 255 205 147 255
2.147386 -6.276876 -37.886227 0.382642 0.036177 0.923188 0.000000 0.000000 255 205 147 255
4.811660 -25.695713 -38.229557 0.382642 0.036177 0.923188 0.000000 0.000000 251 202 145 255
9.915197 -23.428247 -34.876118 -0.336778 0.934032 -0.119020 0.000000 0.000000 255 205 147 255
4.811660 -25.695713 -38.229557 -0.336778 0.934032 -0.119020 0.000000 0.000000 251 202 145 255
4.499529 -25.086630 -32.566448 -0.336778 0.934032 -0.119020 0.000000 0.000000 255 205 147 255
9.915197 -23.428247 -34.876118 -0.385354 -0.026217 -0.922396 0.000000 0.000000 255 205 147 255
1.705458 -8.288075 -31.876623 -0.385354 -0.026217 -0.922396 0.000000 0.000000 238 191 137 255
7.121127 -6.629691 -34.186291 -0.385354 -0.026217 -0.922396 0.000000 0.000000 246 198 141 255
41.751316 -16.990889 -35.471848 -0.684992 -0.045226 0.727145 0.000000 0.000000 139 112 80 255
32.774830 -1.912994 -42.990158 -0.684992 -0.045226 0.727145 0.000000 0.000000 139 112 80 255
33.950409 -25.238129 -43.333485 -0.684992 -0.045226 0.727145 0.000000 0.000000 255 205 147 255
33.233543 -26.124573 -36.652645 0.050357 0.989336 0.136673 0.000000 0.000000 144 116 83 255
42.926895 -26.733654 -35.815174 0.050357 0.989336 0.136673 0.000000 0.000000 140 113 80 255
33.950409 -25.238129 -43.333485 0.050357 0.989336 0.136673 0.000000 0.000000 255 205 147 255
31.928167 -14.516432 -35.962818 0.023323 0.061919 -0.997809 0.000000 0.000000 147 118 84 255
33.233543 -26.124573 -36.652645 0.023323 0.061919 -0.997809 0.000000 0.000000 144 116 83 255
25.084463 -24.629047 -36.750320 0.023323 0.061919 -0.997809 0.000000 0.000000 247 199 142 255
31.928167 -14.516432 -35.962818 -0.503732 -0.394630 -0.768454 0.000000 0.000000 147 118 84 255
23.779087 -3.924192 -36.060493 -0.503732 -0.394630 -0.768454 0.000000 0.000000 254 204 146 255
32.774830 -1.912994 -42.990158 -0.503732 -0.394630 -0.768454 0.000000 0.000000 139 112 80 255
32.774830 -1.912994 -42.990158 0.022064 -0.014647 0.999649 0.000000 0.000000 139 112 80 255
18.550758 -2.507274 -42.684914 0.022064 -0.014647 0.999649 0.000000 0.000000 254 204 146 255
21.215031 -21.926111 -43.028244 0.022064 -0.014647 0.999649 0.000000 0.000000 255 205 147 255
25.084463 -24.629047 -36.750320 0.249341 0.935798 0.249222 0.000000 0.000000 247 199 142 255
33.950409 -25.238129 -43.333485 0.249341 0.935798 0.249222 0.000000 0.000000 255 205 147 255
21.215031 -21.926111 -43.028244 0.249341 0.935798 0.249222 0.000000 0.000000 255 205 147 255
23.779087 -3.924192 -36.060493 0.179393 0.044054 -0.982791 0.000000 0.000000 254 204 146 255
25.084463 -24.629047 -36.750320 0.179393 0.044054 -0.982791 0.000000 0.000000 247 199 142 255
20.902903 -21.317030 -37.365135 0.179393 0.044054 -0.982791 0.000000 0.000000 255 205 147 255
13.474298 -2.768506 -42.675800 0.002686 -0.017309 0.999847 0.000000 0.000000 255 205 147 255
20.902903 -21.317030 -37.365135 -0.051278 0.992654 -0.109589 0.000000 0.000000 255 205 147 255
21.215031 -21.926111 -43.028244 -0.051278 0.992654 -0.109589 0.000000 0.000000 255 205 147 255
16.138571 -22.187344 -43.019127 -0.051278 0.992654 -0.109589 0.000000 0.000000 255 205 147 255
18.108831 -4.518472 -36.675308 -0.003873 0.040387 -0.999177 0.000000 0.000000 255 205 147 255
20.902903 -21.317030 -37.365135 -0.003873 0.040387 -0.999177 0.000000 0.000000 255 205 147 255
15.826441 -21.578262 -37.356018 -0.003873 0.040387 -0.999177 0.000000 0.000000 255 205 147 255
13.474298 -2.768506 -42.675800 0.377179 0.035387 0.925464 0.000000 0.000000 255 205 147 255
16.138571 -22.187344 -43.019127 -0.341714 0.932227 -0.119097 0.000000 0.000000 255 205 147 255
15.826441 -21.578262 -37.356018 -0.380009 -0.025236 -0.924639 0.000000 0.000000 255 205 147 255
9.915197 -23.428247 -34.876118 -0.380009 -0.025236 -0.924639 0.000000 0.000000 255 205 147 255
7.121127 -6.629691 -34.186291 -0.380009 -0.025236 -0.924639 0.000000 0.000000 246 198 141 255
7.563054 -4.618493 -40.195896 0.382642 0.036177 0.923188 0.000000 0.000000 252 203 146 255
9.915197 -23.428247 -34.876118 -0.336778 0.934032 -0.119019 0.000000 0.000000 255 205 147 255
10.227328 -24.037329 -40.539227 -0.336778 0.934032 -0.119019 0.000000 0.000000 255 205 147 255
4.811660 -25.695713 -38.229557 -0.336778 0.934032 -0.119019 0.000000 0.000000 251 202 145 255
4.499529 -25.086630 -32.566448 -0.385354 -0.026217 -0.922396 0.000000 0.000000 255 205 147 255
3 0 1 2
3 3 4 5
3 6 7 8
3 9 10 11
3 12 13 14
3 15 16 17
3 18 19 20
3 21 22 23
3 24 25 26
3 27 28 29
3 30 31 32
3 33 34 35
3 36 37 38
3 39 40 41
3 42 43 44
3 45 46 47
3 48 49 50
3 51 52 53
3 54 55 56
3 57 58 59
3 60 61 62
3 63 64 65
3 66 67 68
3 21 69 22
3 70 71 72
3 73 74 75
3 30 76 31
3 33 77 34
3 78 79 80
3 39 81 40
3 82 83 84
3 45 85 46
