ply
format ascii 1.0
comment Created by Blender 2.92.0 - www.blender.org
element vertex 56
property float x
property float y
property float z
property float nx
property float ny
property float nz
property float s
property float t
property uchar red
property uchar green
property uchar blue
property uchar alpha
element face 22
property list uchar uint vertex_indices
end_header
1.000000 -1.000000 5.086934 0.000000 0.180410 -0.983592 0.625000 0.750000 115 59 27 255
-3.759575 -3.759575 4.580774 0.000000 0.180410 -0.983592 0.625000 1.000000 3 255 90 255
-1.000000 -1.000000 5.086934 0.000000 0.180410 -0.983592 0.625000 1.000000 112 53 3 255
1.000000 -1.000000 5.086934 0.000000 -1.000000 0.000000 0.625000 0.750000 115 59 27 255
-1.000000 -1.000000 -1.000000 0.000000 -1.000000 0.000000 0.375000 1.000000 112 53 3 255
1.000000 -1.000000 -1.000000 0.000000 -1.000000 0.000000 0.375000 0.750000 112 53 0 255
-1.000000 -1.000000 5.086934 -1.000000 0.000000 0.000000 0.625000 0.000000 112 53 3 255
-1.000000 1.000000 -1.000000 -1.000000 0.000000 0.000000 0.375000 0.250000 125 81 63 255
-1.000000 -1.000000 -1.000000 -1.000000 0.000000 0.000000 0.375000 0.000000 112 53 3 255
1.000000 1.000000 -1.000000 0.000000 0.000000 -1.000000 0.375000 0.500000 112 53 0 255
-1.000000 -1.000000 -1.000000 0.000000 0.000000 -1.000000 0.125000 0.750000 112 53 3 255
-1.000000 1.000000 -1.000000 0.000000 0.000000 -1.000000 0.125000 0.500000 125 81 63 255
1.000000 1.000000 5.086934 1.000000 0.000000 -0.000000 0.625000 0.500000 119 69 45 255
1.000000 -1.000000 -1.000000 1.000000 0.000000 -0.000000 0.375000 0.750000 112 53 0 255
1.000000 1.000000 -1.000000 1.000000 0.000000 -0.000000 0.375000 0.500000 112 53 0 255
-1.000000 1.000000 5.086934 0.000000 1.000000 -0.000000 0.625000 0.250000 112 53 3 255
1.000000 1.000000 -1.000000 0.000000 1.000000 -0.000000 0.375000 0.500000 112 53 0 255
-1.000000 1.000000 -1.000000 0.000000 1.000000 -0.000000 0.375000 0.250000 125 81 63 255
-1.000000 -1.000000 5.086934 0.180410 0.000000 -0.983592 0.625000 0.000000 112 53 3 255
-3.759575 3.759575 4.580774 0.180410 0.000000 -0.983592 0.625000 0.250000 68 255 110 255
-1.000000 1.000000 5.086934 0.180410 0.000000 -0.983592 0.625000 0.250000 112 53 3 255
1.000000 1.000000 5.086934 -0.180410 0.000000 -0.983592 0.625000 0.500000 119 69 45 255
3.759575 -3.759575 4.580774 -0.180410 0.000000 -0.983592 0.625000 0.750000 4 255 90 255
1.000000 -1.000000 5.086934 -0.180410 0.000000 -0.983592 0.625000 0.750000 115 59 27 255
-1.000000 1.000000 5.086934 0.000000 -0.180410 -0.983592 0.625000 0.250000 112 53 3 255
3.759575 3.759575 4.580774 0.000000 -0.180410 -0.983592 0.625000 0.500000 105 255 133 255
1.000000 1.000000 5.086934 0.000000 -0.180410 -0.983592 0.625000 0.500000 119 69 45 255
3.759575 3.759575 4.580774 -0.000000 0.927906 0.372814 0.625000 0.500000 105 255 133 255
-3.759575 3.759575 4.580774 -0.000000 0.927906 0.372814 0.625000 0.250000 68 255 110 255
0.000000 0.000000 13.938065 -0.000000 0.927906 0.372814 0.625000 0.250000 10 255 91 255
3.759575 -3.759575 4.580774 0.927906 0.000000 0.372814 0.625000 0.750000 4 255 90 255
3.759575 3.759575 4.580774 0.927906 0.000000 0.372814 0.625000 0.500000 105 255 133 255
0.000000 0.000000 13.938065 0.927906 0.000000 0.372814 0.625000 0.500000 10 255 91 255
-3.759575 3.759575 4.580774 -0.927906 0.000000 0.372814 0.625000 0.250000 68 255 110 255
-3.759575 -3.759575 4.580774 -0.927906 0.000000 0.372814 0.625000 0.000000 3 255 90 255
0.000000 0.000000 13.938065 -0.927906 0.000000 0.372814 0.625000 0.000000 10 255 91 255
-3.759575 -3.759575 4.580774 0.000000 -0.927906 0.372814 0.625000 1.000000 3 255 90 255
3.759575 -3.759575 4.580774 0.000000 -0.927906 0.372814 0.625000 0.750000 4 255 90 255
0.000000 0.000000 13.938065 0.000000 -0.927906 0.372814 0.625000 0.750000 10 255 91 255
1.000000 -1.000000 5.086934 0.000000 0.180410 -0.983591 0.625000 0.750000 115 59 27 255
3.759575 -3.759575 4.580774 0.000000 0.180410 -0.983591 0.625000 0.750000 4 255 90 255
-3.759575 -3.759575 4.580774 0.000000 0.180410 -0.983591 0.625000 1.000000 3 255 90 255
-1.000000 -1.000000 5.086934 0.000000 -1.000000 0.000000 0.625000 1.000000 112 53 3 255
-1.000000 1.000000 5.086934 -1.000000 0.000000 0.000000 0.625000 0.250000 112 53 3 255
1.000000 -1.000000 -1.000000 0.000000 0.000000 -1.000000 0.375000 0.750000 112 53 0 255
1.000000 -1.000000 5.086934 1.000000 0.000000 0.000000 0.625000 0.750000 115 59 27 255
1.000000 1.000000 5.086934 0.000000 1.000000 -0.000000 0.625000 0.500000 119 69 45 255
-1.000000 -1.000000 5.086934 0.180410 0.000000 -0.983591 0.625000 0.000000 112 53 3 255
-3.759575 -3.759575 4.580774 0.180410 0.000000 -0.983591 0.625000 0.000000 3 255 90 255
-3.759575 3.759575 4.580774 0.180410 0.000000 -0.983591 0.625000 0.250000 68 255 110 255
1.000000 1.000000 5.086934 -0.180410 0.000000 -0.983591 0.625000 0.500000 119 69 45 255
3.759575 3.759575 4.580774 -0.180410 0.000000 -0.983591 0.625000 0.500000 105 255 133 255
3.759575 -3.759575 4.580774 -0.180410 0.000000 -0.983591 0.625000 0.750000 4 255 90 255
-1.000000 1.000000 5.086934 -0.000000 -0.180410 -0.983591 0.625000 0.250000 112 53 3 255
-3.759575 3.759575 4.580774 -0.000000 -0.180410 -0.983591 0.625000 0.250000 68 255 110 255
3.759575 3.759575 4.580774 -0.000000 -0.180410 -0.983591 0.625000 0.500000 105 255 133 255
3 0 1 2
3 3 4 5
3 6 7 8
3 9 10 11
3 12 13 14
3 15 16 17
3 18 19 20
3 21 22 23
3 24 25 26
3 27 28 29
3 30 31 32
3 33 34 35
3 36 37 38
3 39 40 41
3 3 42 4
3 6 43 7
3 9 44 10
3 12 45 13
3 15 46 16
3 47 48 49
3 50 51 52
3 53 54 55
