# Blender v2.93.1 OBJ File: 'untitled.blend'
# www.blender.org
mtllib diamonds.mtl
o diamonds_Cube.002
v 1.000000 -2.295781 7.810934
v 1.000000 -0.295781 7.810934
v -1.000000 -2.295781 7.810934
v -1.000000 -0.295781 7.810934
v 1.000000 -2.295781 -0.189066
v 1.000000 -0.295781 -0.189066
v -1.000000 -2.295781 -0.189066
v -1.000000 -0.295781 -0.189066
v 1.000000 1.704219 7.810934
v -1.000000 1.704219 7.810934
v -1.000000 1.704219 -0.189066
v 1.000000 1.704219 -0.189066
v -1.000000 -2.295781 3.810934
v -1.000000 -0.295781 3.810934
v 1.000000 -2.295781 3.810934
v 1.000000 -0.295781 3.810934
v -1.000000 1.704219 3.810934
v 1.000000 1.704219 3.810934
v -1.000000 -0.295781 1.810934
v 1.000000 -2.295781 1.810934
v -1.000000 1.704219 1.810934
v -1.000000 -2.295781 1.810934
v 1.000000 -0.295781 1.810934
v 1.000000 1.704219 1.810934
v -1.000000 -2.295781 5.810934
v 1.000000 -0.295781 5.810934
v 1.000000 1.704219 5.810934
v -1.000000 -0.295781 5.810934
v 1.000000 -2.295781 5.810934
v -1.000000 1.704219 5.810934
vt 0.666667 0.333333
vt 0.500000 0.666667
vt 0.500000 0.333333
vt 0.333333 1.000000
vt 0.166667 0.666667
vt 0.166667 1.000000
vt 0.333333 1.000000
vt 0.166667 0.666667
vt 0.166667 1.000000
vt 0.166667 0.666667
vt 0.333333 1.000000
vt 0.333333 0.666667
vt 0.500000 1.000000
vt 0.666667 0.666667
vt 0.500000 0.666667
vt 0.333333 1.000000
vt 0.166667 0.666667
vt 0.333333 0.666667
vt 0.166667 1.000000
vt 0.333333 0.666667
vt 0.166667 0.666667
vt 0.166667 0.666667
vt 0.333333 1.000000
vt 0.166667 1.000000
vt 0.666667 0.666667
vt 0.500000 0.333333
vt 0.666667 0.333333
vt 0.166667 0.666667
vt 0.333333 1.000000
vt 0.166667 1.000000
vt -0.000000 1.000000
vt 0.166667 0.666667
vt 0.166667 1.000000
vt 0.166667 1.000000
vt 0.333333 0.666667
vt 0.166667 0.666667
vt 0.333333 1.000000
vt 0.166667 0.666667
vt 0.333333 0.666667
vt 0.500000 1.000000
vt 0.666667 0.666667
vt 0.500000 0.666667
vt 0.166667 0.666667
vt 0.333333 1.000000
vt 0.333333 0.666667
vt 0.333333 1.000000
vt 0.166667 0.666667
vt 0.166667 1.000000
vt 0.166667 0.666667
vt 0.333333 0.666667
vt 0.333333 1.000000
vt 0.333333 0.666667
vt 0.166667 1.000000
vt 0.333333 0.666667
vt 0.166667 0.666667
vt 0.333333 1.000000
vt 0.166667 0.666667
vt 0.333333 0.666667
vt 0.500000 1.000000
vt 0.666667 0.666667
vt 0.500000 0.666667
vt 0.000000 0.666667
vt 0.000000 1.000000
vt 0.333333 1.000000
vt 0.166667 1.000000
vt 0.500000 1.000000
vt 0.666667 0.666667
vt 0.500000 0.666667
vt 0.166667 0.666667
vt 0.000000 1.000000
vt 0.000000 0.666667
vt 0.166667 1.000000
vt 0.333333 0.666667
vt 0.166667 0.666667
vt 0.333333 1.000000
vt 0.333333 0.666667
vt 0.166667 0.666667
vt 0.333333 1.000000
vt 0.333333 0.666667
vt 0.666667 0.666667
vt 0.333333 0.666667
vt 0.166667 1.000000
vt 0.666667 1.000000
vt 0.166667 1.000000
vt 0.333333 1.000000
vt 0.333333 0.666667
vt 0.500000 0.666667
vt 0.333333 0.666667
vt 0.000000 0.666667
vt 0.166667 1.000000
vt 0.666667 1.000000
vt 0.166667 1.000000
vt 0.166667 1.000000
vt 0.333333 1.000000
vt 0.666667 1.000000
vt 0.666667 1.000000
vt 0.333333 1.000000
vt 0.166667 1.000000
vn 0.0000 0.0000 -1.0000
vn 1.0000 0.0000 -0.0000
vn 0.0000 0.0000 1.0000
vn -1.0000 0.0000 0.0000
vn 0.0000 1.0000 0.0000
vn 0.0000 -1.0000 -0.0000
usemtl Minecraft
s off
f 3/1/1 2/2/1 1/3/1
f 7/4/2 19/5/2 22/6/2
f 5/7/3 8/8/3 7/9/3
f 1/10/4 26/11/4 29/12/4
f 20/13/5 7/14/5 22/15/5
f 30/16/2 4/17/2 28/18/2
f 27/19/6 10/20/6 30/21/6
f 12/22/3 8/23/3 6/24/3
f 10/25/1 2/26/1 4/27/1
f 24/28/4 6/29/4 23/30/4
f 27/31/4 16/32/4 26/33/4
f 24/34/6 17/35/6 21/36/6
f 21/37/2 14/38/2 19/39/2
f 29/40/5 13/41/5 25/42/5
f 15/43/4 23/44/4 20/45/4
f 13/46/2 28/47/2 25/48/2
f 20/49/4 6/29/4 5/50/4
f 11/51/2 19/5/2 8/52/2
f 12/53/6 21/54/6 11/55/6
f 18/56/4 23/57/4 16/58/4
f 15/59/5 22/60/5 13/61/5
f 22/6/2 14/62/2 13/63/2
f 25/64/2 4/17/2 3/65/2
f 1/66/5 25/67/5 3/68/5
f 9/69/4 26/70/4 2/71/4
f 18/72/6 30/73/6 17/74/6
f 17/75/2 28/47/2 14/76/2
f 29/77/4 16/78/4 15/79/4
f 3/1/1 4/80/1 2/2/1
f 7/4/2 8/52/2 19/5/2
f 5/7/3 6/81/3 8/8/3
f 1/10/4 2/82/4 26/11/4
f 20/13/5 5/83/5 7/14/5
f 30/16/2 10/84/2 4/17/2
f 27/19/6 9/85/6 10/20/6
f 12/22/3 11/86/3 8/23/3
f 10/25/1 9/87/1 2/26/1
f 24/28/4 12/88/4 6/29/4
f 27/31/4 18/89/4 16/32/4
f 24/34/6 18/56/6 17/35/6
f 21/37/2 17/90/2 14/38/2
f 29/40/5 15/91/5 13/41/5
f 15/43/4 16/92/4 23/44/4
f 13/46/2 14/76/2 28/47/2
f 20/49/4 23/30/4 6/29/4
f 11/51/2 21/93/2 19/5/2
f 12/53/6 24/94/6 21/54/6
f 18/56/4 24/34/4 23/57/4
f 15/59/5 20/95/5 22/60/5
f 22/6/2 19/5/2 14/62/2
f 25/64/2 28/18/2 4/17/2
f 1/66/5 29/96/5 25/67/5
f 9/69/4 27/19/4 26/70/4
f 18/72/6 27/97/6 30/73/6
f 17/75/2 30/98/2 28/47/2
f 29/77/4 26/33/4 16/78/4
