# Blender v2.93.1 OBJ File: 'untitled.blend'
# www.blender.org
mtllib icosahedron2.mtl
o Icosphere
v -1.842862 -0.793465 -0.337982
v -1.119262 -0.240680 0.187738
v -2.119247 -0.240680 0.512658
v -2.737288 -0.240680 -0.337982
v -2.119247 -0.240680 -1.188622
v -1.119262 -0.240680 -0.863702
v -1.566478 0.653750 0.512658
v -2.566463 0.653750 0.187738
v -2.566463 0.653750 -0.863702
v -1.566478 0.653750 -1.188622
v -0.948438 0.653750 -0.337982
v -1.842862 1.206535 -0.337982
vt 0.181819 0.000000
vt 0.272728 0.157461
vt 0.090910 0.157461
vt 0.909091 0.000000
vt 1.000000 0.157461
vt 0.818182 0.157461
vt 0.363637 0.314921
vt 0.181819 0.314921
vt 0.000000 0.314921
vt 0.909091 0.314921
vt 0.727273 0.314921
vt 0.272728 0.472382
vt 0.818182 0.472382
vt 0.363637 0.000000
vt 0.454546 0.157461
vt 0.727273 0.000000
vt 0.636364 0.157461
vt 0.545455 0.000000
vt 0.545455 0.314921
vt 0.090910 0.472382
vt 0.636364 0.472382
vt 0.454546 0.472382
vn 0.1876 -0.7947 0.5774
vn -0.4911 -0.7947 0.3568
vn 0.7946 0.1876 0.5774
vn -0.3035 0.1876 0.9342
vn -0.9822 0.1876 0.0000
vn 0.4911 0.7947 0.3568
vn -0.6071 0.7947 0.0000
vn 0.6071 -0.7947 0.0000
vn -0.4911 -0.7947 -0.3568
vn 0.1876 -0.7947 -0.5774
vn 0.9822 -0.1876 0.0000
vn 0.3035 -0.1876 0.9342
vn -0.7946 -0.1876 0.5774
vn -0.7946 -0.1876 -0.5774
vn 0.3035 -0.1876 -0.9342
vn -0.3035 0.1876 -0.9342
vn 0.7946 0.1876 -0.5774
vn -0.1876 0.7947 0.5774
vn -0.1876 0.7947 -0.5774
vn 0.4911 0.7947 -0.3568
usemtl Material.001
s off
f 1/1/1 2/2/1 3/3/1
f 1/4/2 3/5/2 4/6/2
f 2/2/3 11/7/3 7/8/3
f 3/3/4 7/8/4 8/9/4
f 4/6/5 8/10/5 9/11/5
f 7/8/6 11/7/6 12/12/6
f 9/11/7 8/10/7 12/13/7
usemtl Material.002
f 2/2/8 1/14/8 6/15/8
f 1/16/9 4/6/9 5/17/9
f 1/18/10 5/17/10 6/15/10
f 2/2/11 6/15/11 11/7/11
f 3/3/12 2/2/12 7/8/12
f 4/6/13 3/5/13 8/10/13
f 5/17/14 4/6/14 9/11/14
f 6/15/15 5/17/15 10/19/15
f 5/17/16 9/11/16 10/19/16
f 6/15/17 10/19/17 11/7/17
f 8/9/18 7/8/18 12/20/18
f 10/19/19 9/11/19 12/21/19
f 11/7/20 10/19/20 12/22/20
