# Blender v2.93.1 OBJ File: 'untitled.blend'
# www.blender.org
mtllib red_green_cube_simple.mtl
o Cube
v -3.842863 -1.793465 1.662018
v -2.797535 2.206535 0.616691
v -3.842863 -1.793465 -2.337982
v -2.797535 2.206535 -1.292655
v 0.157138 -1.793465 1.662018
v -0.888190 2.206535 0.616691
v 0.157138 -1.793465 -2.337982
v -0.888190 2.206535 -1.292655
v -3.842863 2.206535 1.662018
v -3.842863 2.206535 -2.337982
v 0.157138 2.206535 -2.337982
v 0.157138 2.206535 1.662018
v -2.352862 -1.370379 0.172018
v -2.352862 -0.350379 0.172018
v -2.352862 -1.370379 -0.847982
v -2.352862 -0.350379 -0.847982
v -1.332862 -1.370379 0.172018
v -1.332862 -0.350379 0.172018
v -1.332862 -1.370379 -0.847982
v -1.332862 -0.350379 -0.847982
vt 0.375000 0.500000
vt 0.625000 0.250000
vt 0.375000 0.250000
vt 0.375000 1.000000
vt 0.625000 0.750000
vt 0.375000 0.750000
vt 0.125000 0.750000
vt 0.125000 0.500000
vt 0.875000 0.750000
vt 0.865554 0.509446
vt 0.865554 0.740554
vt 0.875000 0.500000
vt 0.634446 0.509446
vt 0.625000 0.500000
vt 0.634446 0.740554
vt 0.625000 0.000000
vt 0.375000 0.250000
vt 0.375000 0.000000
vt 0.625000 0.250000
vt 0.375000 0.500000
vt 0.625000 0.500000
vt 0.375000 0.750000
vt 0.625000 0.750000
vt 0.375000 1.000000
vt 0.125000 0.750000
vt 0.125000 0.500000
vt 0.875000 0.500000
vt 0.625000 1.000000
vt 0.625000 1.000000
vt 0.875000 0.750000
vt 0.625000 0.000000
vt 0.375000 0.000000
vn 0.0000 0.0000 1.0000
vn 0.0000 0.0000 -1.0000
vn 0.0000 1.0000 0.0000
vn 0.0000 -1.0000 0.0000
vn -1.0000 0.0000 0.0000
vn 1.0000 0.0000 0.0000
usemtl white
s off
f 7/1/1 10/2/1 3/3/1
f 1/4/2 12/5/2 5/6/2
f 1/7/3 7/1/3 3/8/3
f 9/9/4 4/10/4 2/11/4
f 10/12/4 8/13/4 4/10/4
f 11/14/4 6/15/4 8/13/4
f 12/5/4 2/11/4 6/15/4
f 14/16/5 15/17/5 13/18/5
f 16/19/2 19/20/2 15/17/2
f 20/21/6 17/22/6 19/20/6
f 18/23/1 13/24/1 17/22/1
f 19/20/4 13/25/4 15/26/4
f 16/27/3 18/23/3 20/21/3
f 7/1/1 11/14/1 10/2/1
f 1/4/2 9/28/2 12/5/2
f 1/7/3 5/6/3 7/1/3
f 9/9/4 10/12/4 4/10/4
f 10/12/4 11/14/4 8/13/4
f 11/14/4 12/5/4 6/15/4
f 12/5/4 9/9/4 2/11/4
f 14/16/5 16/19/5 15/17/5
f 16/19/2 20/21/2 19/20/2
f 20/21/6 18/23/6 17/22/6
f 18/23/1 14/29/1 13/24/1
f 19/20/4 17/22/4 13/25/4
f 16/27/3 14/30/3 18/23/3
usemtl red
f 5/6/5 11/14/5 7/1/5
f 5/6/5 12/5/5 11/14/5
usemtl green
f 3/3/6 9/31/6 1/32/6
f 3/3/6 10/2/6 9/31/6
usemtl bright
f 6/15/4 4/10/4 8/13/4
f 6/15/4 2/11/4 4/10/4
