ply
format ascii 1.0
comment Created by Blender 2.92.0 - www.blender.org
element vertex 326
property float x
property float y
property float z
property float nx
property float ny
property float nz
property float s
property float t
property uchar red
property uchar green
property uchar blue
property uchar alpha
element face 159
property list uchar uint vertex_indices
end_header
-2.000000 -5.377600 2.000000 0.000000 0.230189 -0.973146 0.375000 0.500000 147 133 102 255
-2.541946 0.991102 3.506458 0.000000 0.230189 -0.973146 0.625000 0.250000 147 133 102 255
2.000000 -5.377600 2.000000 0.000000 0.230189 -0.973146 0.375000 0.250000 147 133 102 255
-2.000000 -5.377600 -2.000000 0.924130 0.382078 0.000000 0.375000 0.750000 147 133 102 255
-4.633115 0.991102 3.506458 0.924130 0.382078 0.000000 0.625000 0.500000 147 133 102 255
-2.000000 -5.377600 2.000000 0.924130 0.382078 0.000000 0.375000 0.500000 147 133 102 255
-2.000000 -5.377600 -2.000000 -0.000000 0.293766 0.955877 0.375000 0.750000 147 133 102 255
-2.541946 0.991102 -3.957271 -0.000000 0.293766 0.955877 0.625000 1.000000 147 133 102 255
-4.633115 0.991102 -3.957271 -0.000000 0.293766 0.955877 0.625000 0.750000 147 133 102 255
2.000000 -5.377600 -2.000000 0.000000 1.000000 0.000000 0.125000 0.750000 115 196 116 255
-2.000000 -5.377600 2.000000 0.000000 1.000000 0.000000 0.375000 0.500000 115 196 116 255
2.000000 -5.377600 2.000000 0.000000 1.000000 0.000000 0.125000 0.500000 115 196 116 255
2.604269 0.991102 3.877356 0.069093 0.276037 -0.958660 0.625000 0.250000 147 133 102 255
2.000000 -5.377600 2.000000 0.069093 0.276037 -0.958660 0.375000 0.250000 147 133 102 255
-2.541946 0.991102 3.506458 0.069093 0.276037 -0.958660 0.625000 0.250000 147 133 102 255
2.000000 -5.377600 -2.000000 -0.069652 0.247334 0.966424 0.375000 1.000000 147 133 102 255
2.604269 0.991102 -3.586373 -0.069652 0.247334 0.966424 0.625000 1.000000 147 133 102 255
-2.541946 0.991102 -3.957271 -0.069652 0.247334 0.966424 0.625000 1.000000 147 133 102 255
6.165030 -5.377600 -1.699818 0.000000 1.000000 -0.000000 0.125000 0.750000 115 196 116 255
7.472310 0.991102 3.738269 -0.027823 0.225605 -0.973821 0.625000 0.250000 147 133 102 255
6.165030 -5.377600 2.300182 -0.027823 0.225605 -0.973821 0.375000 0.250000 147 133 102 255
2.604269 0.991102 3.877356 -0.027823 0.225605 -0.973821 0.625000 0.250000 147 133 102 255
6.165030 -5.377600 -1.699818 0.027263 0.297901 0.954207 0.375000 1.000000 147 133 102 255
7.472310 0.991102 -3.725460 0.027263 0.297901 0.954207 0.625000 1.000000 147 133 102 255
2.604269 0.991102 -3.586373 0.027263 0.297901 0.954207 0.625000 1.000000 147 133 102 255
10.104924 -5.377600 2.187614 -0.000000 1.000000 0.000000 0.125000 0.500000 115 196 116 255
6.165030 -5.377600 2.300182 -0.000000 1.000000 0.000000 0.125000 0.500000 115 196 116 255
12.293987 0.991102 3.877356 0.027938 0.247364 -0.968520 0.625000 0.250000 147 133 102 255
10.104924 -5.377600 2.187614 0.027938 0.247364 -0.968520 0.375000 0.250000 147 133 102 255
7.472310 0.991102 3.738269 0.027938 0.247364 -0.968520 0.625000 0.250000 147 133 102 255
10.104924 -5.377600 -1.812386 -0.050615 0.268070 0.962069 0.375000 1.000000 147 133 102 255
12.293987 0.991102 -3.471787 -0.050615 0.268070 0.962069 0.625000 1.000000 147 133 102 255
7.472310 0.991102 -3.725460 -0.050615 0.268070 0.962069 0.625000 1.000000 147 133 102 255
14.007296 -5.377600 -1.699818 0.000000 1.000000 -0.000000 0.125000 0.750000 115 196 116 255
10.104924 -5.377600 -1.812386 0.000000 1.000000 -0.000000 0.125000 0.750000 115 196 116 255
18.579466 0.991102 2.068491 -0.272932 0.161439 -0.948391 0.625000 0.250000 147 133 102 255
14.007296 -5.377600 2.300182 -0.272932 0.161439 -0.948391 0.375000 0.250000 147 133 102 255
12.293987 0.991102 3.877356 -0.272932 0.161439 -0.948391 0.625000 0.250000 147 133 102 255
14.007296 -5.377600 -1.699818 0.288356 0.327880 0.899636 0.375000 1.000000 147 133 102 255
16.486387 0.991102 -4.815558 0.288356 0.327880 0.899636 0.625000 1.000000 147 133 102 255
12.293987 0.991102 -3.471787 0.288356 0.327880 0.899636 0.625000 1.000000 147 133 102 255
19.094376 -5.377600 0.836197 -0.000000 1.000000 0.000000 0.125000 0.500000 115 196 116 255
14.007296 -5.377600 2.300182 -0.000000 1.000000 0.000000 0.125000 0.500000 115 196 116 255
24.064058 0.991102 -1.968391 -0.589359 0.107282 -0.800716 0.625000 0.250000 147 133 102 255
19.094376 -5.377600 0.836197 -0.589359 0.107282 -0.800716 0.375000 0.250000 147 133 102 255
18.579466 0.991102 2.068491 -0.589359 0.107282 -0.800716 0.625000 0.250000 147 133 102 255
17.400368 -5.377600 -2.787384 0.217423 0.324377 0.920601 0.375000 1.000000 147 133 102 255
17.863235 0.991102 -5.140736 0.217423 0.324377 0.920601 0.625000 1.000000 147 133 102 255
16.486387 0.991102 -4.815558 0.217423 0.324377 0.920601 0.625000 1.000000 147 133 102 255
20.466034 -5.377600 -4.998508 -0.000000 1.000000 -0.000000 0.125000 0.750000 115 196 116 255
17.400368 -5.377600 -2.787384 -0.000000 1.000000 -0.000000 0.125000 0.750000 115 196 116 255
24.064058 0.991102 -1.968391 -0.890777 0.106334 -0.441825 0.625000 0.250000 147 133 102 255
25.658463 -5.377600 -6.715672 -0.890777 0.106334 -0.441825 0.375000 0.250000 147 133 102 255
23.533270 -5.377600 -2.431007 -0.890777 0.106334 -0.441825 0.375000 0.250000 147 133 102 255
20.466034 -5.377600 -4.998508 0.864470 0.361106 0.349707 0.375000 1.000000 147 133 102 255
19.360111 0.991102 -8.840991 0.864470 0.361106 0.349707 0.625000 1.000000 147 133 102 255
17.863235 0.991102 -5.140736 0.864470 0.361106 0.349707 0.625000 1.000000 147 133 102 255
25.658463 -5.377600 -6.715672 0.000000 1.000000 0.000000 0.125000 0.500000 115 196 116 255
23.533270 -5.377600 -2.431007 0.000000 1.000000 0.000000 0.125000 0.500000 115 196 116 255
26.689898 0.991102 -7.262424 -0.986161 0.154565 -0.059960 0.625000 0.250000 147 133 102 255
25.946831 -5.377600 -11.458422 -0.986161 0.154565 -0.059960 0.375000 0.250000 147 133 102 255
25.658463 -5.377600 -6.715672 -0.986161 0.154565 -0.059960 0.375000 0.250000 147 133 102 255
21.867983 -5.377600 -7.993268 0.632986 0.341722 0.694662 0.375000 1.000000 147 133 102 255
21.954845 0.991102 -11.205351 0.632986 0.341722 0.694662 0.625000 1.000000 147 133 102 255
19.360111 0.991102 -8.840991 0.632986 0.341722 0.694662 0.625000 1.000000 147 133 102 255
25.946831 -5.377600 -11.458422 0.000000 1.000000 0.000000 0.125000 0.500000 115 196 116 255
21.867983 -5.377600 -7.993268 0.000000 1.000000 0.000000 0.125000 0.750000 115 196 116 255
18.127110 -4.459430 1.081048 -0.857074 0.143409 0.494831 0.250000 0.490000 83 141 84 255
18.127110 -2.383984 0.479556 -0.857074 0.143409 0.494831 0.250000 0.250000 83 141 84 255
17.606203 -4.459430 0.178811 -0.857074 0.143409 0.494831 0.457846 0.130000 83 141 84 255
17.606203 -4.459430 0.178811 0.000000 0.143409 -0.989664 0.457846 0.130000 83 141 84 255
18.127110 -2.383984 0.479556 0.000000 0.143409 -0.989664 0.250000 0.250000 83 141 84 255
18.648018 -4.459430 0.178811 0.000000 0.143409 -0.989664 0.042154 0.130000 83 141 84 255
18.648018 -4.459430 0.178811 0.857073 0.143409 0.494833 0.042154 0.130000 83 141 84 255
18.127110 -2.383984 0.479556 0.857073 0.143409 0.494833 0.250000 0.250000 83 141 84 255
18.127110 -4.459430 1.081048 0.857073 0.143409 0.494833 0.250000 0.490000 83 141 84 255
18.127890 -4.457077 0.585196 -0.866024 0.000000 0.500002 1.000000 1.000000 107 97 74 255
18.026070 -5.319273 0.408839 -0.866024 0.000000 0.500002 0.666667 0.500000 107 97 74 255
18.127890 -5.319273 0.585196 -0.866024 0.000000 0.500002 1.000000 0.500000 107 97 74 255
18.026070 -4.457077 0.408839 0.000000 0.000000 -1.000000 0.666667 1.000000 107 97 74 255
18.229710 -5.319273 0.408839 0.000000 0.000000 -1.000000 0.333333 0.500000 107 97 74 255
18.026070 -5.319273 0.408839 0.000000 0.000000 -1.000000 0.666667 0.500000 107 97 74 255
18.229710 -4.457077 0.408839 0.866024 0.000000 0.500002 0.333333 1.000000 107 97 74 255
18.127890 -5.319273 0.585196 0.866024 0.000000 0.500002 -0.000000 0.500000 107 97 74 255
18.229710 -5.319273 0.408839 0.866024 0.000000 0.500002 0.333333 0.500000 107 97 74 255
18.100254 -4.776737 -0.186850 -0.570343 0.143409 0.808791 0.042154 0.130000 83 141 84 255
17.917582 -3.274568 -0.582021 -0.570343 0.143409 0.808791 0.250000 0.250000 83 141 84 255
17.484018 -4.776737 -0.621407 -0.570343 0.143409 0.808791 0.250000 0.490000 83 141 84 255
17.841385 -4.772364 -0.588376 -0.419604 0.000000 -0.907707 1.000000 1.000000 107 97 74 255
17.975172 -5.399075 -0.650221 -0.419604 0.000000 -0.907707 0.666667 0.500000 107 97 74 255
17.841385 -5.399075 -0.588376 -0.419604 0.000000 -0.907707 1.000000 0.500000 107 97 74 255
17.975172 -4.772364 -0.650221 0.995899 0.000000 0.090469 0.666667 1.000000 107 97 74 255
17.961838 -5.399075 -0.503435 0.995899 0.000000 0.090469 0.333333 0.500000 107 97 74 255
17.975172 -5.399075 -0.650221 0.995899 0.000000 0.090469 0.666667 0.500000 107 97 74 255
17.961838 -4.772364 -0.503435 -0.576300 0.000000 0.817238 0.333333 1.000000 107 97 74 255
17.841385 -5.399075 -0.588376 -0.576300 0.000000 0.817238 -0.000000 0.500000 107 97 74 255
17.961838 -5.399075 -0.503435 -0.576300 0.000000 0.817238 0.333333 0.500000 107 97 74 255
17.484018 -4.776737 -0.621407 -0.000000 -1.000000 -0.000000 0.250000 0.490000 83 141 84 255
18.168472 -4.776737 -0.937804 -0.000000 -1.000000 -0.000000 0.457846 0.130000 83 141 84 255
18.100254 -4.776737 -0.186850 -0.000000 -1.000000 -0.000000 0.042154 0.130000 83 141 84 255
18.587135 -4.459430 0.020073 -0.000000 -1.000000 0.000000 0.250000 0.490000 83 141 84 255
19.047688 -4.459430 -0.914415 -0.000000 -1.000000 0.000000 0.457846 0.130000 83 141 84 255
19.626703 -4.459430 -0.048320 -0.000000 -1.000000 0.000000 0.042154 0.130000 83 141 84 255
19.202988 -4.476047 -0.268229 0.065646 0.000000 0.997843 0.333333 1.000000 107 97 74 255
18.999788 -5.319273 -0.254861 0.065646 0.000000 0.997843 -0.000000 0.500000 107 97 74 255
19.202988 -5.319273 -0.268229 0.065646 0.000000 0.997843 0.333333 0.500000 107 97 74 255
19.089809 -4.476047 -0.437522 0.831332 0.000000 -0.555776 0.666667 1.000000 107 97 74 255
19.202988 -5.319273 -0.268229 0.831332 0.000000 -0.555776 0.333333 0.500000 107 97 74 255
19.089809 -5.319273 -0.437522 0.831332 0.000000 -0.555776 0.666667 0.500000 107 97 74 255
18.999788 -4.476047 -0.254861 -0.896984 0.000000 -0.442063 1.000000 1.000000 107 97 74 255
19.089809 -5.319273 -0.437522 -0.896984 0.000000 -0.442063 0.666667 0.500000 107 97 74 255
18.999788 -5.319273 -0.254861 -0.896984 0.000000 -0.442063 1.000000 0.500000 107 97 74 255
19.626703 -4.459430 -0.048320 0.064969 0.143409 0.987529 0.042154 0.130000 83 141 84 255
19.087175 -2.383984 -0.314221 0.064969 0.143409 0.987529 0.250000 0.250000 83 141 84 255
18.587135 -4.459430 0.020073 0.064969 0.143409 0.987529 0.250000 0.490000 83 141 84 255
19.047688 -4.459430 -0.914415 0.822739 0.143409 -0.550031 0.457846 0.130000 83 141 84 255
19.087175 -2.383984 -0.314221 0.822739 0.143409 -0.550031 0.250000 0.250000 83 141 84 255
19.626703 -4.459430 -0.048320 0.822739 0.143409 -0.550031 0.042154 0.130000 83 141 84 255
18.587135 -4.459430 0.020073 -0.887710 0.143409 -0.437498 0.250000 0.490000 83 141 84 255
19.087175 -2.383984 -0.314221 -0.887710 0.143409 -0.437498 0.250000 0.250000 83 141 84 255
19.047688 -4.459430 -0.914415 -0.887710 0.143409 -0.437498 0.457846 0.130000 83 141 84 255
18.127110 -4.459430 1.081048 0.000000 -1.000000 0.000000 0.250000 0.490000 83 141 84 255
17.606203 -4.459430 0.178811 0.000000 -1.000000 0.000000 0.457846 0.130000 83 141 84 255
18.648018 -4.459430 0.178811 0.000000 -1.000000 0.000000 0.042154 0.130000 83 141 84 255
18.168472 -4.776737 -0.937804 0.985605 0.143409 0.089534 0.457846 0.130000 83 141 84 255
17.917582 -3.274568 -0.582021 0.985605 0.143409 0.089534 0.250000 0.250000 83 141 84 255
18.100254 -4.776737 -0.186850 0.985605 0.143409 0.089534 0.042154 0.130000 83 141 84 255
17.484018 -4.776737 -0.621407 -0.415262 0.143409 -0.898327 0.250000 0.490000 83 141 84 255
17.917582 -3.274568 -0.582021 -0.415262 0.143409 -0.898327 0.250000 0.250000 83 141 84 255
18.168472 -4.776737 -0.937804 -0.415262 0.143409 -0.898327 0.457846 0.130000 83 141 84 255
-4.633115 0.991102 3.506458 0.000000 0.230189 -0.973146 0.625000 0.500000 147 133 102 255
-4.633115 0.991102 -3.957271 0.924130 0.382078 0.000000 0.625000 0.750000 147 133 102 255
2.000000 -5.377600 -2.000000 0.000000 0.293766 0.955877 0.375000 1.000000 147 133 102 255
-2.000000 -5.377600 -2.000000 -0.000000 1.000000 0.000000 0.375000 0.750000 115 196 116 255
6.165030 -5.377600 2.300182 0.069093 0.276037 -0.958660 0.375000 0.250000 147 133 102 255
6.165030 -5.377600 -1.699818 -0.069652 0.247334 0.966424 0.375000 1.000000 147 133 102 255
10.104924 -5.377600 2.187614 -0.027823 0.225605 -0.973821 0.375000 0.250000 147 133 102 255
10.104924 -5.377600 -1.812386 0.027263 0.297901 0.954207 0.375000 1.000000 147 133 102 255
14.007296 -5.377600 2.300182 0.027938 0.247364 -0.968520 0.375000 0.250000 147 133 102 255
10.104924 -5.377600 -1.812386 -0.027835 0.260988 0.964941 0.375000 1.000000 147 133 102 255
14.007296 -5.377600 -1.699818 -0.027835 0.260988 0.964941 0.375000 1.000000 147 133 102 255
12.293987 0.991102 -3.471787 -0.027835 0.260988 0.964941 0.625000 1.000000 147 133 102 255
18.579466 0.991102 2.068491 -0.272933 0.161439 -0.948391 0.625000 0.250000 147 133 102 255
19.094376 -5.377600 0.836197 -0.272933 0.161439 -0.948391 0.375000 0.250000 147 133 102 255
14.007296 -5.377600 2.300182 -0.272933 0.161439 -0.948391 0.375000 0.250000 147 133 102 255
17.400368 -5.377600 -2.787384 0.288356 0.327880 0.899636 0.375000 1.000000 147 133 102 255
23.533270 -5.377600 -2.431007 -0.589359 0.107282 -0.800716 0.375000 0.250000 147 133 102 255
17.400368 -5.377600 -2.787384 0.566538 0.249078 0.785490 0.375000 1.000000 147 133 102 255
20.466034 -5.377600 -4.998508 0.566538 0.249078 0.785490 0.375000 1.000000 147 133 102 255
17.863235 0.991102 -5.140736 0.566538 0.249078 0.785490 0.625000 1.000000 147 133 102 255
26.689898 0.991102 -7.262424 -0.890777 0.106334 -0.441825 0.625000 0.250000 147 133 102 255
20.466034 -5.377600 -4.998508 0.837071 0.381782 0.391861 0.375000 1.000000 147 133 102 255
21.867983 -5.377600 -7.993268 0.837071 0.381782 0.391861 0.375000 1.000000 147 133 102 255
19.360111 0.991102 -8.840991 0.837071 0.381782 0.391861 0.625000 1.000000 147 133 102 255
26.689898 0.991102 -7.262424 -0.984679 0.000000 0.174376 0.625000 0.250000 147 133 102 255
25.946831 0.991102 -11.458422 -0.984679 0.000000 0.174376 0.625000 0.250000 147 133 102 255
25.946831 -5.377600 -11.458422 -0.984679 0.000000 0.174376 0.375000 0.250000 147 133 102 255
21.867983 -5.377600 -7.993268 0.999635 0.000000 0.027033 0.375000 1.000000 147 133 102 255
21.954845 -5.377600 -11.205351 0.999635 0.000000 0.027033 0.375000 1.000000 147 133 102 255
21.954845 0.991102 -11.205351 0.999635 0.000000 0.027033 0.625000 1.000000 147 133 102 255
21.954845 -5.377600 -11.205351 0.000000 1.000000 0.000000 0.125000 0.750000 115 196 116 255
18.026070 -4.457077 0.408839 -0.866024 0.000000 0.500002 0.666667 1.000000 107 97 74 255
18.229710 -4.457077 0.408839 0.000000 0.000000 -1.000000 0.333333 1.000000 107 97 74 255
18.127890 -4.457077 0.585196 0.866024 -0.000000 0.500002 -0.000000 1.000000 107 97 74 255
17.975172 -4.772364 -0.650221 -0.419604 0.000000 -0.907707 0.666667 1.000000 107 97 74 255
17.961838 -4.772364 -0.503435 0.995899 -0.000000 0.090469 0.333333 1.000000 107 97 74 255
17.841385 -4.772364 -0.588376 -0.576300 0.000000 0.817238 -0.000000 1.000000 107 97 74 255
18.999788 -4.476047 -0.254861 0.065646 -0.000000 0.997843 -0.000000 1.000000 107 97 74 255
19.202988 -4.476047 -0.268229 0.831332 0.000000 -0.555776 0.333333 1.000000 107 97 74 255
19.089809 -4.476047 -0.437522 -0.896984 0.000000 -0.442063 0.666667 1.000000 107 97 74 255
25.946831 -2.193249 -11.458422 -0.992175 0.000000 0.124854 0.500000 0.250000 147 133 102 255
25.420914 0.991102 -15.637709 -0.992175 0.000000 0.124854 0.625000 0.250000 147 133 102 255
25.420914 -2.885034 -15.637709 -0.992175 0.000000 0.124854 0.500000 0.250000 147 133 102 255
21.954845 -5.377600 -11.205351 0.992396 0.000000 -0.123083 0.375000 1.000000 147 133 102 255
21.508171 0.991102 -14.806793 0.992396 0.000000 -0.123083 0.625000 1.000000 147 133 102 255
21.954845 0.991102 -11.205351 0.992396 0.000000 -0.123083 0.625000 1.000000 147 133 102 255
25.946831 -5.377600 -11.458422 -0.022574 0.934181 -0.356086 0.125000 0.500000 115 196 116 255
21.508171 -6.761170 -14.806793 -0.022574 0.934181 -0.356086 0.125000 0.750000 115 196 116 255
21.954845 -5.377600 -11.205351 -0.022574 0.934181 -0.356086 0.125000 0.750000 115 196 116 255
25.420914 0.991102 -15.637709 -0.843402 0.000000 0.537283 0.625000 0.250000 147 133 102 255
22.908058 -2.885034 -19.582273 -0.843402 0.000000 0.537283 0.500000 0.250000 147 133 102 255
25.420914 -2.885034 -15.637709 -0.843402 0.000000 0.537283 0.500000 0.250000 147 133 102 255
21.508171 0.991102 -14.806793 0.563354 0.122678 -0.817057 0.625000 1.000000 147 133 102 255
19.663818 -6.761170 -17.242428 0.563354 0.122678 -0.817057 0.375000 1.000000 147 133 102 255
18.815456 0.991102 -16.663397 0.563354 0.122678 -0.817057 0.625000 1.000000 147 133 102 255
21.508171 -6.761170 -14.806793 -0.000000 1.000000 -0.000000 0.125000 0.750000 115 196 116 255
22.908058 -6.761170 -19.582273 -0.000000 1.000000 -0.000000 0.125000 0.500000 115 196 116 255
19.663818 -6.761170 -17.242428 -0.000000 1.000000 -0.000000 0.125000 0.750000 115 196 116 255
22.908058 0.991102 -19.582273 -0.812981 0.000000 0.582290 0.625000 0.250000 147 133 102 255
20.836145 -2.885034 -22.475037 -0.812981 0.000000 0.582290 0.500000 0.250000 147 133 102 255
22.908058 -2.885034 -19.582273 -0.812981 0.000000 0.582290 0.500000 0.250000 147 133 102 255
18.815456 0.991102 -16.663397 0.752757 0.130570 -0.645220 0.625000 1.000000 147 133 102 255
17.329599 -6.761170 -19.965683 0.752757 0.130570 -0.645220 0.375000 1.000000 147 133 102 255
16.481237 0.991102 -19.386652 0.752757 0.130570 -0.645220 0.625000 1.000000 147 133 102 255
20.573839 -6.761170 -22.305529 -0.000000 1.000000 -0.000000 0.125000 0.500000 115 196 116 255
17.329599 -6.761170 -19.965683 -0.000000 1.000000 -0.000000 0.125000 0.750000 115 196 116 255
20.836145 -2.885034 -22.475037 -0.777163 0.178952 0.603319 0.500000 0.250000 147 133 102 255
19.515688 0.991102 -25.325689 -0.777163 0.178952 0.603319 0.625000 0.250000 147 133 102 255
18.942907 -2.885034 -24.913805 -0.777163 0.178952 0.603319 0.500000 0.250000 147 133 102 255
16.481237 0.991102 -19.386652 0.725493 0.183571 -0.663296 0.625000 1.000000 147 133 102 255
15.021242 -6.761170 -23.129038 0.725493 0.183571 -0.663296 0.375000 1.000000 147 133 102 255
13.244095 0.991102 -22.927336 0.725493 0.183571 -0.663296 0.625000 1.000000 147 133 102 255
18.680601 -6.761170 -24.744297 -0.000000 1.000000 0.000000 0.125000 0.500000 115 196 116 255
16.435274 -6.761170 -23.753199 -0.000000 1.000000 0.000000 0.125000 0.653396 115 196 116 255
19.515688 0.991102 -25.325689 -0.973778 0.160978 0.160754 0.625000 0.250000 147 133 102 255
18.613375 -2.885034 -26.909973 -0.973778 0.160978 0.160754 0.500000 0.250000 147 133 102 255
18.942907 -2.885034 -24.913805 -0.973778 0.160978 0.160754 0.500000 0.250000 147 133 102 255
13.244095 0.991102 -22.927336 0.996956 0.072667 0.028247 0.625000 1.000000 147 133 102 255
13.919086 -6.761170 -26.807348 0.996956 0.072667 0.028247 0.375000 1.000000 147 133 102 255
13.226950 2.854157 -27.115030 0.996956 0.072667 0.028247 0.625000 1.000000 147 133 102 255
13.919086 -6.761170 -26.807348 -0.000000 1.000000 0.000000 0.125000 0.750000 115 196 116 255
15.021242 -6.761170 -23.129038 -0.000000 1.000000 0.000000 0.125000 0.750000 115 196 116 255
18.987688 0.991102 -26.901056 -0.950762 0.092494 -0.295798 0.625000 0.250000 147 133 102 255
19.049015 -2.885034 -28.310219 -0.950762 0.092494 -0.295798 0.500000 0.250000 147 133 102 255
18.613375 -2.885034 -26.909973 -0.950762 0.092494 -0.295798 0.500000 0.250000 147 133 102 255
13.226950 2.854157 -27.115030 0.986804 0.019351 0.160760 0.625000 1.000000 147 133 102 255
13.897796 -6.761170 -30.075541 0.986804 0.019351 0.160760 0.375000 1.000000 147 133 102 255
13.759369 2.854157 -30.383223 0.986804 0.019351 0.160760 0.625000 1.000000 147 133 102 255
17.495207 -6.761170 -28.705511 0.000000 1.000000 -0.000000 0.125000 0.548045 115 196 116 255
13.897796 -6.761170 -30.075541 0.000000 1.000000 -0.000000 0.125000 0.750000 115 196 116 255
13.897796 -6.761170 -30.075541 0.822822 0.030005 0.567507 0.375000 1.000000 147 133 102 255
15.632977 0.991102 -33.001244 0.822822 0.030005 0.567507 0.625000 1.000000 147 133 102 255
13.759369 2.854157 -30.383223 0.822822 0.030005 0.567507 0.625000 1.000000 147 133 102 255
16.145046 -6.761170 -32.434490 -0.000000 1.000000 0.000000 0.125000 0.750000 115 196 116 255
16.145046 -6.761170 -32.434490 0.595052 0.097626 0.797735 0.375000 1.000000 147 133 102 255
17.522644 0.991102 -34.410797 0.595052 0.097626 0.797735 0.625000 1.000000 147 133 102 255
15.632977 0.991102 -33.001244 0.595052 0.097626 0.797735 0.625000 1.000000 147 133 102 255
18.416588 -6.761170 -33.017941 0.000000 1.000000 -0.000000 0.125000 0.693119 115 196 116 255
18.034714 -6.761170 -33.844044 0.000000 1.000000 -0.000000 0.125000 0.750000 115 196 116 255
21.871519 0.991102 -30.390837 -0.640725 0.080744 -0.763513 0.625000 0.250000 147 133 102 255
22.747589 -2.885034 -31.535931 -0.640725 0.080744 -0.763513 0.500000 0.250000 147 133 102 255
20.458170 -2.885034 -29.614695 -0.640725 0.080744 -0.763513 0.500000 0.250000 147 133 102 255
18.034714 -6.761170 -33.844044 0.207719 0.084964 0.974492 0.375000 1.000000 147 133 102 255
21.069199 0.991102 -35.166767 0.207719 0.084964 0.974492 0.625000 1.000000 147 133 102 255
17.522644 0.991102 -34.410797 0.207719 0.084964 0.974492 0.625000 1.000000 147 133 102 255
22.747589 -6.761170 -31.535931 0.000000 1.000000 -0.000000 0.125000 0.500000 115 196 116 255
21.069199 -6.761170 -35.166767 0.000000 1.000000 -0.000000 0.125000 0.750000 115 196 116 255
20.458170 -2.885034 -29.614695 -0.390387 0.213328 -0.895594 0.500000 0.250000 147 133 102 255
22.747589 -6.761170 -31.535931 -0.390387 0.213328 -0.895594 0.375000 0.250000 147 133 102 255
19.713104 -6.761170 -30.213207 -0.390387 0.213328 -0.895594 0.375000 0.250000 147 133 102 255
18.613375 -2.885034 -26.909973 -0.940198 0.174540 -0.292512 0.500000 0.250000 147 133 102 255
18.351023 -6.761170 -28.379585 -0.940198 0.174540 -0.292512 0.375000 0.250000 147 133 102 255
17.915382 -6.761170 -26.979340 -0.940198 0.174540 -0.292512 0.375000 0.250000 147 133 102 255
18.680601 -6.761170 -24.744297 -0.933529 0.162385 0.319615 0.375000 0.250000 147 133 102 255
18.613375 -2.885034 -26.909973 -0.933529 0.162385 0.319615 0.500000 0.250000 147 133 102 255
17.915382 -6.761170 -26.979340 -0.933529 0.162385 0.319615 0.375000 0.250000 147 133 102 255
20.573839 -6.761170 -22.305529 -0.787381 0.080014 0.611251 0.375000 0.250000 147 133 102 255
18.942907 -2.885034 -24.913805 -0.787381 0.080014 0.611251 0.500000 0.250000 147 133 102 255
18.680601 -6.761170 -24.744297 -0.787381 0.080014 0.611251 0.375000 0.250000 147 133 102 255
22.908058 -6.761170 -19.582273 -0.756848 0.079587 0.648727 0.375000 0.250000 147 133 102 255
20.836145 -2.885034 -22.475037 -0.756848 0.079587 0.648727 0.500000 0.250000 147 133 102 255
20.573839 -6.761170 -22.305529 -0.756848 0.079587 0.648727 0.375000 0.250000 147 133 102 255
22.908058 -6.761170 -19.582273 -0.843402 0.000000 0.537283 0.375000 0.250000 147 133 102 255
25.420914 -6.761170 -15.637709 -0.843402 0.000000 0.537283 0.375000 0.250000 147 133 102 255
25.946831 -5.377600 -11.458422 -0.992175 0.000000 0.124854 0.375000 0.250000 147 133 102 255
25.420914 -6.761170 -15.637709 -0.992175 0.000000 0.124854 0.375000 0.250000 147 133 102 255
19.423328 0.991102 -28.301302 -0.677792 0.067138 -0.732182 0.625000 0.250000 147 133 102 255
20.458170 -2.885034 -29.614695 -0.677792 0.067138 -0.732182 0.500000 0.250000 147 133 102 255
19.049015 -2.885034 -28.310219 -0.677792 0.067138 -0.732182 0.500000 0.250000 147 133 102 255
20.458170 -2.885034 -29.614695 -0.626812 0.235185 -0.742829 0.500000 0.250000 147 133 102 255
19.713104 -6.761170 -30.213207 -0.626812 0.235185 -0.742829 0.375000 0.250000 147 133 102 255
18.801708 -6.761170 -29.444155 -0.626812 0.235185 -0.742829 0.375000 0.250000 147 133 102 255
17.915382 -6.761170 -26.979340 0.000000 1.000000 0.000000 0.125000 0.500000 115 196 116 255
18.351023 -6.761170 -28.379585 0.000000 1.000000 0.000000 0.125000 0.500000 115 196 116 255
17.118313 -6.761170 -26.945036 0.000000 1.000000 -0.000000 0.125000 0.549863 115 196 116 255
17.876339 -6.761170 -30.485748 0.000000 1.000000 -0.000000 0.125000 0.587080 115 196 116 255
19.713104 -6.761170 -30.213207 0.000000 1.000000 -0.000000 0.125000 0.500000 115 196 116 255
18.801708 -6.761170 -29.444155 0.000000 1.000000 -0.000000 0.125000 0.500000 115 196 116 255
25.946831 0.991102 -11.458422 -0.992175 0.000000 0.124854 0.625000 0.250000 147 133 102 255
21.508171 -6.761170 -14.806793 0.992396 0.000000 -0.123083 0.375000 1.000000 147 133 102 255
25.946831 -5.377600 -11.458422 -0.065031 0.949734 -0.306230 0.125000 0.500000 115 196 116 255
25.420914 -6.761170 -15.637709 -0.065031 0.949734 -0.306230 0.125000 0.500000 115 196 116 255
21.508171 -6.761170 -14.806793 -0.065031 0.949734 -0.306230 0.125000 0.750000 115 196 116 255
22.908058 0.991102 -19.582273 -0.843402 0.000000 0.537283 0.625000 0.250000 147 133 102 255
21.508171 0.991102 -14.806793 0.797222 0.000000 -0.603686 0.625000 1.000000 147 133 102 255
21.508171 -6.761170 -14.806793 0.797222 0.000000 -0.603686 0.375000 1.000000 147 133 102 255
19.663818 -6.761170 -17.242428 0.797222 0.000000 -0.603686 0.375000 1.000000 147 133 102 255
25.420914 -6.761170 -15.637709 0.000000 1.000000 -0.000000 0.125000 0.500000 115 196 116 255
22.908058 0.991102 -19.582273 -0.896510 0.175694 0.406696 0.625000 0.250000 147 133 102 255
21.408926 0.991102 -22.886921 -0.896510 0.175694 0.406696 0.625000 0.250000 147 133 102 255
20.836145 -2.885034 -22.475037 -0.896510 0.175694 0.406696 0.500000 0.250000 147 133 102 255
19.663818 -6.761170 -17.242428 0.752757 0.130570 -0.645220 0.375000 1.000000 147 133 102 255
21.408926 0.991102 -22.886921 -0.777163 0.178952 0.603319 0.625000 0.250000 147 133 102 255
16.481237 0.991102 -19.386652 0.800804 0.131282 -0.584361 0.625000 1.000000 147 133 102 255
17.329599 -6.761170 -19.965683 0.800804 0.131282 -0.584361 0.375000 1.000000 147 133 102 255
15.021242 -6.761170 -23.129038 0.800804 0.131282 -0.584361 0.375000 1.000000 147 133 102 255
19.515688 0.991102 -25.325689 -0.944275 0.090459 0.316483 0.625000 0.250000 147 133 102 255
18.987688 0.991102 -26.901056 -0.944275 0.090459 0.316483 0.625000 0.250000 147 133 102 255
18.613375 -2.885034 -26.909973 -0.944275 0.090459 0.316483 0.500000 0.250000 147 133 102 255
13.244095 0.991102 -22.927336 0.934143 0.221428 -0.279904 0.625000 1.000000 147 133 102 255
15.021242 -6.761170 -23.129038 0.934143 0.221428 -0.279904 0.375000 1.000000 147 133 102 255
13.919086 -6.761170 -26.807348 0.934143 0.221428 -0.279904 0.375000 1.000000 147 133 102 255
19.423328 0.991102 -28.301302 -0.950762 0.092494 -0.295798 0.625000 0.250000 147 133 102 255
13.226950 2.854157 -27.115030 0.997413 0.071588 -0.006497 0.625000 1.000000 147 133 102 255
13.919086 -6.761170 -26.807348 0.997413 0.071588 -0.006497 0.375000 1.000000 147 133 102 255
13.897796 -6.761170 -30.075541 0.997413 0.071588 -0.006497 0.375000 1.000000 147 133 102 255
13.897796 -6.761170 -30.075541 0.720571 0.097782 0.686451 0.375000 1.000000 147 133 102 255
16.145046 -6.761170 -32.434490 0.720571 0.097782 0.686451 0.375000 1.000000 147 133 102 255
15.632977 0.991102 -33.001244 0.720571 0.097782 0.686451 0.625000 1.000000 147 133 102 255
16.145046 -6.761170 -32.434490 0.595052 0.097627 0.797736 0.375000 1.000000 147 133 102 255
18.034714 -6.761170 -33.844044 0.595052 0.097627 0.797736 0.375000 1.000000 147 133 102 255
17.522644 0.991102 -34.410797 0.595052 0.097627 0.797736 0.625000 1.000000 147 133 102 255
21.871519 0.991102 -30.390837 -0.794221 0.000000 -0.607629 0.625000 0.250000 147 133 102 255
22.747589 0.991102 -31.535931 -0.794221 0.000000 -0.607629 0.625000 0.250000 147 133 102 255
22.747589 -2.885034 -31.535931 -0.794221 0.000000 -0.607629 0.500000 0.250000 147 133 102 255
18.034714 -6.761170 -33.844044 0.399585 0.000000 0.916696 0.375000 1.000000 147 133 102 255
21.069199 -6.761170 -35.166767 0.399585 0.000000 0.916696 0.375000 1.000000 147 133 102 255
21.069199 0.991102 -35.166767 0.399585 0.000000 0.916696 0.625000 1.000000 147 133 102 255
20.458170 -2.885034 -29.614695 -0.642824 0.000000 -0.766014 0.500000 0.250000 147 133 102 255
22.747589 -2.885034 -31.535931 -0.642824 0.000000 -0.766014 0.500000 0.250000 147 133 102 255
22.747589 -6.761170 -31.535931 -0.642824 0.000000 -0.766014 0.375000 0.250000 147 133 102 255
19.049015 -2.885034 -28.310219 -0.940198 0.174540 -0.292512 0.500000 0.250000 147 133 102 255
18.680601 -6.761170 -24.744297 -0.983964 0.073690 0.162435 0.375000 0.250000 147 133 102 255
18.942907 -2.885034 -24.913805 -0.983964 0.073690 0.162435 0.500000 0.250000 147 133 102 255
18.613375 -2.885034 -26.909973 -0.983964 0.073690 0.162435 0.500000 0.250000 147 133 102 255
20.836145 -2.885034 -22.475037 -0.787381 0.080014 0.611251 0.500000 0.250000 147 133 102 255
22.908058 -6.761170 -19.582273 -0.812981 0.000000 0.582290 0.375000 0.250000 147 133 102 255
19.423328 0.991102 -28.301302 -0.646893 0.084111 -0.757928 0.625000 0.250000 147 133 102 255
21.871519 0.991102 -30.390837 -0.646893 0.084111 -0.757928 0.625000 0.250000 147 133 102 255
20.458170 -2.885034 -29.614695 -0.646893 0.084111 -0.757928 0.500000 0.250000 147 133 102 255
18.801708 -6.761170 -29.444155 -0.907428 0.170279 -0.384160 0.375000 0.250000 147 133 102 255
18.351023 -6.761170 -28.379585 -0.907428 0.170279 -0.384160 0.375000 0.250000 147 133 102 255
19.049015 -2.885034 -28.310219 -0.907428 0.170279 -0.384160 0.500000 0.250000 147 133 102 255
19.049015 -2.885034 -28.310219 -0.657781 0.249839 -0.710566 0.500000 0.250000 147 133 102 255
20.458170 -2.885034 -29.614695 -0.657781 0.249839 -0.710566 0.500000 0.250000 147 133 102 255
18.801708 -6.761170 -29.444155 -0.657781 0.249839 -0.710566 0.375000 0.250000 147 133 102 255
3 0 1 2
3 3 4 5
3 6 7 8
3 9 10 11
3 12 13 14
3 15 16 17
3 11 18 9
3 19 20 21
3 22 23 24
3 25 18 26
3 27 28 29
3 30 31 32
3 25 33 34
3 35 36 37
3 38 39 40
3 41 33 42
3 43 44 45
3 46 47 48
3 41 49 50
3 51 52 53
3 54 55 56
3 57 49 58
3 59 60 61
3 62 63 64
3 65 66 57
3 67 68 69
3 70 71 72
3 73 74 75
3 76 77 78
3 79 80 81
3 82 83 84
3 85 86 87
3 88 89 90
3 91 92 93
3 94 95 96
3 97 98 99
3 100 101 102
3 103 104 105
3 106 107 108
3 109 110 111
3 112 113 114
3 115 116 117
3 118 119 120
3 121 122 123
3 124 125 126
3 127 128 129
3 0 130 1
3 3 131 4
3 6 132 7
3 9 133 10
3 12 134 13
3 15 135 16
3 11 26 18
3 19 136 20
3 22 137 23
3 25 34 18
3 27 138 28
3 139 140 141
3 25 42 33
3 142 143 144
3 38 145 39
3 41 50 33
3 43 146 44
3 147 148 149
3 41 58 49
3 51 150 52
3 151 152 153
3 57 66 49
3 154 155 156
3 157 158 159
3 65 160 66
3 76 161 77
3 79 162 80
3 82 163 83
3 88 164 89
3 91 165 92
3 94 166 95
3 103 167 104
3 106 168 107
3 109 169 110
3 170 171 172
3 173 174 175
3 176 177 178
3 179 180 181
3 182 183 184
3 185 186 187
3 188 189 190
3 191 192 193
3 187 194 195
3 196 197 198
3 199 200 201
3 194 202 203
3 204 205 206
3 207 208 209
3 203 210 211
3 212 213 214
3 215 216 217
3 210 218 219
3 220 221 222
3 218 223 219
3 224 225 226
3 223 227 228
3 229 230 231
3 232 233 234
3 227 235 236
3 237 238 239
3 240 241 242
3 243 244 245
3 246 247 248
3 249 250 251
3 181 252 253
3 254 172 255
3 256 257 258
3 259 260 261
3 218 262 263
3 264 202 262
3 265 266 227
3 218 267 265
3 170 268 171
3 173 269 174
3 270 271 272
3 179 273 180
3 274 275 276
3 185 277 186
3 278 279 280
3 191 281 192
3 187 186 194
3 196 282 197
3 283 284 285
3 211 195 203
3 195 194 203
3 286 287 288
3 289 290 291
3 203 264 210
3 212 292 213
3 293 294 295
3 210 264 218
3 296 297 298
3 218 265 223
3 299 300 301
3 223 265 227
3 302 303 304
3 305 306 307
3 236 228 227
3 227 266 235
3 308 309 310
3 240 311 241
3 312 313 314
3 246 315 247
3 316 190 189
3 181 180 252
3 254 170 172
3 317 318 319
3 320 321 322
3 323 324 325
3 218 264 262
3 264 203 202
3 265 267 266
3 218 263 267
