ply
format ascii 1.0
comment Created by Blender 2.92.0 - www.blender.org
element vertex 285
property float x
property float y
property float z
property float nx
property float ny
property float nz
property float s
property float t
property uchar red
property uchar green
property uchar blue
property uchar alpha
element face 95
property list uchar uint vertex_indices
end_header
157.155289 -25.634447 -90.909294 -0.714162 0.282703 0.640353 0.125000 0.625000 147 133 102 255
159.199371 -19.920765 -91.152077 -0.714162 0.282703 0.640353 0.314022 0.625000 147 133 102 255
158.461075 -19.920765 -91.975471 -0.714162 0.282703 0.640353 0.314022 0.625000 147 133 102 255
153.576538 -19.803068 -88.477821 0.522100 0.200910 -0.828883 0.316321 0.500000 147 133 102 255
158.991928 -25.422956 -86.428940 0.522100 0.200910 -0.828883 0.125000 0.562500 147 133 102 255
154.641693 -25.505934 -89.189194 0.522100 0.200910 -0.828883 0.125000 0.562500 147 133 102 255
156.610870 -25.606613 -90.536736 0.027193 0.998820 -0.040243 0.125000 0.611463 115 196 116 255
159.163177 -25.603630 -88.738029 0.027193 0.998820 -0.040243 0.125000 0.610013 115 196 116 255
159.217194 -25.634447 -89.466400 0.027193 0.998820 -0.040243 0.125000 0.625000 115 196 116 255
159.104675 -25.570255 -87.949203 0.024988 0.998961 -0.038119 0.125000 0.593782 178 136 64 255
156.610870 -25.606613 -90.536736 0.024988 0.998961 -0.038119 0.125000 0.611463 178 136 64 255
156.318237 -25.591652 -90.336487 0.024988 0.998961 -0.038119 0.125000 0.604187 178 136 64 255
154.641693 -25.505934 -89.189194 0.026183 0.998756 -0.042432 0.125000 0.562500 115 196 116 255
159.069717 -25.525694 -86.921890 0.026183 0.998756 -0.042432 0.125000 0.584083 115 196 116 255
159.104675 -25.570255 -87.949203 0.026183 0.998756 -0.042432 0.125000 0.593782 115 196 116 255
159.129761 -25.584562 -88.287376 0.027190 0.998820 -0.040240 0.125000 0.600740 178 136 64 255
156.610870 -25.606613 -90.536736 0.027190 0.998820 -0.040240 0.125000 0.611463 178 136 64 255
159.104675 -25.570255 -87.949203 0.027190 0.998820 -0.040240 0.125000 0.593782 178 136 64 255
159.104889 -23.585743 -87.959923 -0.997809 -0.010070 -0.065383 0.162066 0.595440 147 133 102 255
159.070221 -23.828083 -87.393532 -0.997809 -0.010070 -0.065383 0.153299 0.584746 147 133 102 255
158.882767 -19.803068 -85.152740 -0.997809 -0.010070 -0.065383 0.316321 0.500000 147 133 102 255
159.104675 -25.570255 -87.949203 0.548771 0.835956 0.005341 0.125000 0.593782 178 136 64 255
160.895264 -26.742329 -88.477570 0.548771 0.835956 0.005341 0.125000 0.600740 178 136 64 255
159.129761 -25.584562 -88.287376 0.548771 0.835956 0.005341 0.125000 0.600740 178 136 64 255
159.070221 -23.828083 -87.393532 -0.453086 -0.864665 -0.216950 0.153299 0.584746 66 66 66 255
160.855240 -24.684063 -87.709877 -0.453086 -0.864665 -0.216950 0.162066 0.595440 66 66 66 255
160.820572 -24.808008 -87.143486 -0.453086 -0.864665 -0.216950 0.153299 0.584746 66 66 66 255
159.163177 -25.603630 -88.738029 -0.246005 -0.170001 0.954244 0.125000 0.610013 66 66 66 255
160.894775 -25.087824 -88.199730 -0.246005 -0.170001 0.954244 0.150160 0.605334 66 66 66 255
159.144424 -23.958481 -88.449776 -0.246005 -0.170001 0.954244 0.150160 0.605334 66 66 66 255
159.163177 -25.603630 -88.738029 0.548770 0.835957 0.005322 0.125000 0.610013 115 196 116 255
159.129761 -25.584562 -88.287376 0.548770 0.835957 0.005322 0.125000 0.600740 115 196 116 255
160.895264 -26.742329 -88.477570 0.548770 0.835957 0.005322 0.125000 0.610013 115 196 116 255
159.069717 -25.525694 -86.921890 -0.008127 -0.276858 -0.960876 0.125000 0.584083 66 66 66 255
160.820572 -24.808008 -87.143486 -0.008127 -0.276858 -0.960876 0.153299 0.584746 66 66 66 255
160.830902 -26.490807 -86.658707 -0.008127 -0.276858 -0.960876 0.125000 0.584083 66 66 66 255
159.104675 -25.570255 -87.949203 0.482927 0.875396 -0.021538 0.125000 0.593782 115 196 116 255
159.069717 -25.525694 -86.921890 0.482927 0.875396 -0.021538 0.125000 0.584083 115 196 116 255
160.830902 -26.490807 -86.658707 0.482927 0.875396 -0.021538 0.125000 0.593782 115 196 116 255
159.144424 -23.958481 -88.449776 -0.511728 -0.703121 0.493716 0.150160 0.605334 66 66 66 255
160.855240 -24.684063 -87.709877 -0.511728 -0.703121 0.493716 0.162066 0.595440 66 66 66 255
159.104889 -23.585743 -87.959923 -0.511728 -0.703121 0.493716 0.162066 0.595440 66 66 66 255
160.820572 -24.808008 -87.143486 -0.140791 -0.856020 -0.497400 0.153299 0.584746 66 66 66 255
162.337204 -25.167339 -86.954369 -0.140791 -0.856020 -0.497400 0.162066 0.595440 66 66 66 255
162.059967 -25.409435 -86.459251 -0.140791 -0.856020 -0.497400 0.153299 0.584746 66 66 66 255
160.830902 -26.490807 -86.658707 0.292536 0.948591 -0.120825 0.125000 0.593782 178 136 64 255
162.706711 -27.192810 -87.628479 0.292536 0.948591 -0.120825 0.125000 0.600740 178 136 64 255
160.895264 -26.742329 -88.477570 0.292536 0.948591 -0.120825 0.125000 0.600740 178 136 64 255
160.895264 -26.742329 -88.477570 -0.463551 -0.146875 0.873812 0.125000 0.610013 66 66 66 255
162.585587 -25.537943 -87.378426 -0.463551 -0.146875 0.873812 0.150160 0.605334 66 66 66 255
160.894775 -25.087824 -88.199730 -0.463551 -0.146875 0.873812 0.150160 0.605334 66 66 66 255
160.894775 -25.087824 -88.199730 -0.494510 -0.689871 0.528714 0.150160 0.605334 66 66 66 255
162.337204 -25.167339 -86.954369 -0.494510 -0.689871 0.528714 0.162066 0.595440 66 66 66 255
160.855240 -24.684063 -87.709877 -0.494510 -0.689871 0.528714 0.162066 0.595440 66 66 66 255
160.830902 -26.490807 -86.658707 0.406306 -0.302785 -0.862112 0.125000 0.584083 66 66 66 255
162.059967 -25.409435 -86.459251 0.406306 -0.302785 -0.862112 0.153299 0.584746 66 66 66 255
161.858704 -26.935574 -86.018105 0.406306 -0.302785 -0.862112 0.125000 0.584083 66 66 66 255
162.585587 -25.537943 -87.378426 -0.549131 -0.761654 0.344004 0.150160 0.605334 66 66 66 255
163.573059 -25.411516 -85.522209 -0.549131 -0.761654 0.344004 0.162066 0.595440 66 66 66 255
162.337204 -25.167339 -86.954369 -0.549131 -0.761654 0.344004 0.162066 0.595440 66 66 66 255
161.858704 -26.935574 -86.018105 0.711303 -0.283787 -0.643050 0.125000 0.584083 66 66 66 255
163.047104 -25.563156 -85.309235 0.711303 -0.283787 -0.643050 0.153299 0.584746 66 66 66 255
162.614166 -27.143131 -85.090858 0.711303 -0.283787 -0.643050 0.125000 0.584083 66 66 66 255
162.059967 -25.409435 -86.459251 0.164934 -0.949073 -0.268435 0.153299 0.584746 66 66 66 255
163.573059 -25.411516 -85.522209 0.164934 -0.949073 -0.268435 0.162066 0.595440 66 66 66 255
163.047104 -25.563156 -85.309235 0.164934 -0.949073 -0.268435 0.153299 0.584746 66 66 66 255
161.858704 -26.935574 -86.018105 0.197745 0.978861 -0.052230 0.125000 0.593782 178 136 64 255
164.282974 -27.414593 -85.817162 0.197745 0.978861 -0.052230 0.125000 0.600740 178 136 64 255
162.706711 -27.192810 -87.628479 0.197745 0.978861 -0.052230 0.125000 0.600740 178 136 64 255
162.585587 -25.537943 -87.378426 -0.761489 -0.166147 0.626522 0.150160 0.605334 66 66 66 255
163.473282 -25.896843 -86.394676 -0.761489 -0.166147 0.626522 0.146611 0.605994 66 66 66 255
164.032074 -25.830013 -85.697784 -0.761489 -0.166147 0.626522 0.150160 0.605334 66 66 66 255
163.047104 -25.563156 -85.309235 0.234229 -0.960321 -0.151396 0.153299 0.584746 66 66 66 255
163.782028 -25.678925 -83.437889 0.234229 -0.960321 -0.151396 0.162066 0.595440 66 66 66 255
163.217819 -25.807016 -83.498291 0.234229 -0.960321 -0.151396 0.153299 0.584746 66 66 66 255
162.614166 -27.143131 -85.090858 0.226108 0.960803 0.160414 0.125000 0.593782 178 136 64 255
164.547119 -27.886503 -83.362961 0.226108 0.960803 0.160414 0.125000 0.600740 178 136 64 255
164.282974 -27.414593 -85.817162 0.226108 0.960803 0.160414 0.125000 0.600740 178 136 64 255
164.282974 -27.414593 -85.817162 -0.983765 -0.161641 0.077960 0.125000 0.610013 66 66 66 255
164.269577 -26.155729 -83.376099 -0.983765 -0.161641 0.077960 0.150160 0.605334 66 66 66 255
164.032074 -25.830013 -85.697784 -0.983765 -0.161641 0.077960 0.150160 0.605334 66 66 66 255
164.032074 -25.830013 -85.697784 -0.678937 -0.733734 -0.026066 0.150160 0.605334 66 66 66 255
163.782028 -25.678925 -83.437889 -0.678937 -0.733734 -0.026066 0.162066 0.595440 66 66 66 255
163.573059 -25.411516 -85.522209 -0.678937 -0.733734 -0.026066 0.162066 0.595440 66 66 66 255
162.614166 -27.143131 -85.090858 0.949373 -0.292585 -0.114384 0.125000 0.584083 66 66 66 255
163.217819 -25.807016 -83.498291 0.949373 -0.292585 -0.114384 0.153299 0.584746 66 66 66 255
162.733063 -27.375349 -83.510040 0.949373 -0.292585 -0.114384 0.125000 0.584083 66 66 66 255
164.547119 -27.886503 -83.362961 -0.941350 -0.153234 -0.300631 0.125000 0.610013 66 66 66 255
163.714798 -26.255960 -81.587860 -0.941350 -0.153234 -0.300631 0.150160 0.605334 66 66 66 255
164.269577 -26.155729 -83.376099 -0.941350 -0.153234 -0.300631 0.150160 0.605334 66 66 66 255
164.269577 -26.155729 -83.376099 -0.665382 -0.710183 -0.230015 0.150160 0.605334 66 66 66 255
163.277863 -25.732885 -81.812843 -0.665382 -0.710183 -0.230015 0.162066 0.595440 66 66 66 255
163.782028 -25.678925 -83.437889 -0.665382 -0.710183 -0.230015 0.162066 0.595440 66 66 66 255
162.733063 -27.375349 -83.510040 0.908033 -0.295259 0.297151 0.125000 0.584083 66 66 66 255
162.768433 -25.810024 -82.062767 0.908033 -0.295259 0.297151 0.153299 0.584746 66 66 66 255
162.317001 -27.376490 -82.239777 0.908033 -0.295259 0.297151 0.125000 0.584083 66 66 66 255
163.217819 -25.807016 -83.498291 0.130916 -0.990630 0.038907 0.153299 0.584746 66 66 66 255
163.277863 -25.732885 -81.812843 0.130916 -0.990630 0.038907 0.162066 0.595440 66 66 66 255
162.768433 -25.810024 -82.062767 0.130916 -0.990630 0.038907 0.153299 0.584746 66 66 66 255
162.733063 -27.375349 -83.510040 0.260210 0.958046 0.120165 0.125000 0.593782 178 136 64 255
163.971054 -27.966154 -81.480492 0.260210 0.958046 0.120165 0.125000 0.600740 178 136 64 255
164.547119 -27.886503 -83.362961 0.260210 0.958046 0.120165 0.125000 0.600740 178 136 64 255
162.768433 -25.810024 -82.062767 0.612595 -0.260851 0.746113 0.153299 0.584746 66 66 66 255
161.599075 -27.346651 -81.639893 0.612595 -0.260851 0.746113 0.125000 0.584083 66 66 66 255
162.317001 -27.376490 -82.239777 0.612595 -0.260851 0.746113 0.125000 0.584083 66 66 66 255
162.768433 -25.810024 -82.062767 0.171793 -0.918471 0.356228 0.153299 0.584746 66 66 66 255
162.205826 -25.418194 -80.781181 0.171793 -0.918471 0.356228 0.162066 0.595440 66 66 66 255
161.896210 -25.660534 -81.256699 0.171793 -0.918471 0.356228 0.153299 0.584746 66 66 66 255
162.317001 -27.376490 -82.239777 0.347708 0.937133 -0.029678 0.125000 0.593782 178 136 64 255
162.631073 -27.426548 -80.140762 0.347708 0.937133 -0.029678 0.125000 0.600740 178 136 64 255
163.971054 -27.966154 -81.480492 0.347708 0.937133 -0.029678 0.125000 0.600740 178 136 64 255
163.714798 -26.255960 -81.587860 -0.720917 -0.164743 -0.673156 0.150160 0.605334 66 66 66 255
162.631073 -27.426548 -80.140762 -0.720917 -0.164743 -0.673156 0.125000 0.610013 66 66 66 255
162.465942 -25.790932 -80.364204 -0.720917 -0.164743 -0.673156 0.150160 0.605334 66 66 66 255
163.277863 -25.732885 -81.812843 -0.550204 -0.763143 -0.338952 0.162066 0.595440 66 66 66 255
162.465942 -25.790932 -80.364204 -0.550204 -0.763143 -0.338952 0.150160 0.605334 66 66 66 255
162.205826 -25.418194 -80.781181 -0.550204 -0.763143 -0.338952 0.162066 0.595440 66 66 66 255
163.575394 -27.013386 -86.564407 -0.752789 -0.152695 0.640307 0.129302 0.609213 66 66 66 255
162.804047 -26.373060 -87.318558 -0.752789 -0.152695 0.640307 0.137875 0.607619 66 66 66 255
162.706711 -27.192810 -87.628479 -0.752789 -0.152695 0.640307 0.125000 0.610013 66 66 66 255
163.557724 -26.562637 -86.470818 -0.761364 -0.167959 0.626191 0.136894 0.607801 255 101 91 255
163.890701 -26.487579 -86.045830 -0.761364 -0.167959 0.626191 0.139029 0.607404 255 101 91 255
163.519318 -26.208261 -86.422462 -0.761364 -0.167959 0.626191 0.143325 0.606605 255 101 91 255
157.155289 -25.634447 -90.909294 -0.557522 0.233308 0.796703 0.125000 0.625000 147 133 102 255
159.217194 -25.634447 -89.466400 -0.557522 0.233308 0.796703 0.125000 0.625000 147 133 102 255
159.199371 -19.920765 -91.152077 -0.557522 0.233308 0.796703 0.314022 0.625000 147 133 102 255
153.576538 -19.803068 -88.477821 0.520409 0.198699 -0.830478 0.316321 0.500000 147 133 102 255
158.882767 -19.803068 -85.152740 0.520409 0.198699 -0.830478 0.316321 0.500000 147 133 102 255
158.991928 -25.422956 -86.428940 0.520409 0.198699 -0.830478 0.125000 0.562500 147 133 102 255
159.217194 -25.634447 -89.466400 0.025822 0.998985 -0.036900 0.125000 0.625000 115 196 116 255
157.155289 -25.634447 -90.909294 0.025822 0.998985 -0.036900 0.125000 0.625000 115 196 116 255
156.610870 -25.606613 -90.536736 0.025822 0.998985 -0.036900 0.125000 0.611463 115 196 116 255
156.610870 -25.606613 -90.536736 0.027195 0.998820 -0.040245 0.125000 0.611463 115 196 116 255
159.129761 -25.584562 -88.287376 0.027195 0.998820 -0.040245 0.125000 0.600740 115 196 116 255
159.163177 -25.603630 -88.738029 0.027195 0.998820 -0.040245 0.125000 0.610013 115 196 116 255
159.104675 -25.570255 -87.949203 0.024988 0.998961 -0.038120 0.125000 0.593782 115 196 116 255
156.318237 -25.591652 -90.336487 0.024988 0.998961 -0.038120 0.125000 0.604187 115 196 116 255
154.641693 -25.505934 -89.189194 0.024988 0.998961 -0.038120 0.125000 0.562500 115 196 116 255
154.641693 -25.505934 -89.189194 0.100506 0.977057 -0.187772 0.125000 0.562500 115 196 116 255
158.991928 -25.422956 -86.428940 0.100506 0.977057 -0.187772 0.125000 0.562500 115 196 116 255
159.069717 -25.525694 -86.921890 0.100506 0.977057 -0.187772 0.125000 0.584083 115 196 116 255
159.217194 -25.634447 -89.466400 -0.997255 0.001602 -0.074024 0.125000 0.625000 147 133 102 255
159.163177 -25.603630 -88.738029 -0.997255 0.001602 -0.074024 0.125000 0.610013 147 133 102 255
159.144424 -23.958481 -88.449776 -0.997255 0.001602 -0.074024 0.150160 0.605334 147 133 102 255
159.199371 -19.920765 -91.152077 -0.998870 -0.016288 -0.044647 0.314022 0.625000 147 133 102 255
159.217194 -25.634447 -89.466400 -0.998870 -0.016288 -0.044647 0.125000 0.625000 147 133 102 255
159.144424 -23.958481 -88.449776 -0.998870 -0.016288 -0.044647 0.150160 0.605334 147 133 102 255
159.069717 -25.525694 -86.921890 -0.988230 -0.040678 -0.147468 0.125000 0.584083 147 133 102 255
158.991928 -25.422956 -86.428940 -0.988230 -0.040678 -0.147468 0.125000 0.562500 147 133 102 255
159.070221 -23.828083 -87.393532 -0.988230 -0.040678 -0.147468 0.153299 0.584746 147 133 102 255
158.991928 -25.422956 -86.428940 -0.996625 -0.000719 -0.082082 0.125000 0.562500 147 133 102 255
158.882767 -19.803068 -85.152740 -0.996625 -0.000719 -0.082082 0.316321 0.500000 147 133 102 255
159.070221 -23.828083 -87.393532 -0.996625 -0.000719 -0.082082 0.153299 0.584746 147 133 102 255
158.882767 -19.803068 -85.152740 -0.998435 -0.019815 -0.052302 0.316321 0.500000 147 133 102 255
159.199371 -19.920765 -91.152077 -0.998435 -0.019815 -0.052302 0.314022 0.625000 147 133 102 255
159.104889 -23.585743 -87.959923 -0.998435 -0.019815 -0.052302 0.162066 0.595440 147 133 102 255
159.199371 -19.920765 -91.152077 -0.997828 -0.026715 -0.060206 0.314022 0.625000 147 133 102 255
159.144424 -23.958481 -88.449776 -0.997828 -0.026715 -0.060206 0.150160 0.605334 147 133 102 255
159.104889 -23.585743 -87.959923 -0.997828 -0.026715 -0.060206 0.162066 0.595440 147 133 102 255
159.104675 -25.570255 -87.949203 0.524533 0.845686 -0.098385 0.125000 0.593782 178 136 64 255
160.830902 -26.490807 -86.658707 0.524533 0.845686 -0.098385 0.125000 0.593782 178 136 64 255
160.895264 -26.742329 -88.477570 0.524533 0.845686 -0.098385 0.125000 0.600740 178 136 64 255
159.070221 -23.828083 -87.393532 -0.454073 -0.808746 -0.373829 0.153299 0.584746 66 66 66 255
159.104889 -23.585743 -87.959923 -0.454073 -0.808746 -0.373829 0.162066 0.595440 66 66 66 255
160.855240 -24.684063 -87.709877 -0.454073 -0.808746 -0.373829 0.162066 0.595440 66 66 66 255
159.163177 -25.603630 -88.738029 -0.249110 -0.160461 0.955090 0.125000 0.610013 66 66 66 255
160.895264 -26.742329 -88.477570 -0.249110 -0.160461 0.955090 0.125000 0.610013 66 66 66 255
160.894775 -25.087824 -88.199730 -0.249110 -0.160461 0.955090 0.150160 0.605334 66 66 66 255
159.069717 -25.525694 -86.921890 -0.012219 -0.267664 -0.963435 0.125000 0.584083 66 66 66 255
159.070221 -23.828083 -87.393532 -0.012219 -0.267664 -0.963435 0.153299 0.584746 66 66 66 255
160.820572 -24.808008 -87.143486 -0.012219 -0.267664 -0.963435 0.153299 0.584746 66 66 66 255
159.144424 -23.958481 -88.449776 -0.514205 -0.681733 0.520417 0.150160 0.605334 66 66 66 255
160.894775 -25.087824 -88.199730 -0.514205 -0.681733 0.520417 0.150160 0.605334 66 66 66 255
160.855240 -24.684063 -87.709877 -0.514205 -0.681733 0.520417 0.162066 0.595440 66 66 66 255
160.820572 -24.808008 -87.143486 -0.198649 -0.954805 -0.221102 0.153299 0.584746 66 66 66 255
160.855240 -24.684063 -87.709877 -0.198649 -0.954805 -0.221102 0.162066 0.595440 66 66 66 255
162.337204 -25.167339 -86.954369 -0.198649 -0.954805 -0.221102 0.162066 0.595440 66 66 66 255
160.830902 -26.490807 -86.658707 0.371579 0.927182 0.047565 0.125000 0.593782 178 136 64 255
161.858704 -26.935574 -86.018105 0.371579 0.927182 0.047565 0.125000 0.593782 178 136 64 255
162.706711 -27.192810 -87.628479 0.371579 0.927182 0.047565 0.125000 0.600740 178 136 64 255
160.895264 -26.742329 -88.477570 -0.452019 -0.165528 0.876516 0.125000 0.610013 66 66 66 255
162.706711 -27.192810 -87.628479 -0.452019 -0.165528 0.876516 0.125000 0.610013 66 66 66 255
162.585587 -25.537943 -87.378426 -0.452019 -0.165528 0.876516 0.150160 0.605334 66 66 66 255
160.894775 -25.087824 -88.199730 -0.424903 -0.790170 0.441689 0.150160 0.605334 66 66 66 255
162.585587 -25.537943 -87.378426 -0.424903 -0.790170 0.441689 0.150160 0.605334 66 66 66 255
162.337204 -25.167339 -86.954369 -0.424903 -0.790170 0.441689 0.162066 0.595440 66 66 66 255
160.830902 -26.490807 -86.658707 0.369482 -0.255138 -0.893525 0.125000 0.584083 66 66 66 255
160.820572 -24.808008 -87.143486 0.369482 -0.255138 -0.893525 0.153299 0.584746 66 66 66 255
162.059967 -25.409435 -86.459251 0.369482 -0.255138 -0.893525 0.153299 0.584746 66 66 66 255
162.585587 -25.537943 -87.378426 -0.555859 -0.755319 0.347151 0.150160 0.605334 66 66 66 255
164.032074 -25.830013 -85.697784 -0.555859 -0.755319 0.347151 0.150160 0.605334 66 66 66 255
163.573059 -25.411516 -85.522209 -0.555859 -0.755319 0.347151 0.162066 0.595440 66 66 66 255
161.858704 -26.935574 -86.018105 0.709500 -0.280445 -0.646498 0.125000 0.584083 66 66 66 255
162.059967 -25.409435 -86.459251 0.709500 -0.280445 -0.646498 0.153299 0.584746 66 66 66 255
163.047104 -25.563156 -85.309235 0.709500 -0.280445 -0.646498 0.153299 0.584746 66 66 66 255
162.059967 -25.409435 -86.459251 0.205842 -0.919667 -0.334427 0.153299 0.584746 66 66 66 255
162.337204 -25.167339 -86.954369 0.205842 -0.919667 -0.334427 0.162066 0.595440 66 66 66 255
163.573059 -25.411516 -85.522209 0.205842 -0.919667 -0.334427 0.162066 0.595440 66 66 66 255
161.858704 -26.935574 -86.018105 0.188150 0.979917 0.066055 0.125000 0.593782 178 136 64 255
162.614166 -27.143131 -85.090858 0.188150 0.979917 0.066055 0.125000 0.593782 178 136 64 255
164.282974 -27.414593 -85.817162 0.188150 0.979917 0.066055 0.125000 0.600740 178 136 64 255
162.585587 -25.537943 -87.378426 -0.760907 -0.154894 0.630102 0.150160 0.605334 66 66 66 255
162.742920 -26.020741 -87.307114 -0.760907 -0.154894 0.630102 0.143151 0.606637 66 66 66 255
163.473282 -25.896843 -86.394676 -0.760907 -0.154894 0.630102 0.146611 0.605994 66 66 66 255
162.742920 -26.020741 -87.307114 -0.758287 -0.168291 0.629824 0.143151 0.606637 66 66 66 255
163.519318 -26.208261 -86.422462 -0.758287 -0.168291 0.629824 0.143325 0.606605 66 66 66 255
163.473282 -25.896843 -86.394676 -0.758287 -0.168291 0.629824 0.146611 0.605994 66 66 66 255
163.473282 -25.896843 -86.394676 -0.761170 -0.167921 0.626436 0.146611 0.605994 66 66 66 255
163.890701 -26.487579 -86.045830 -0.761170 -0.167921 0.626436 0.139029 0.607404 66 66 66 255
164.032074 -25.830013 -85.697784 -0.761170 -0.167921 0.626436 0.150160 0.605334 66 66 66 255
163.047104 -25.563156 -85.309235 0.219134 -0.964748 -0.145743 0.153299 0.584746 66 66 66 255
163.573059 -25.411516 -85.522209 0.219134 -0.964748 -0.145743 0.162066 0.595440 66 66 66 255
163.782028 -25.678925 -83.437889 0.219134 -0.964748 -0.145743 0.162066 0.595440 66 66 66 255
162.614166 -27.143131 -85.090858 0.260102 0.957950 0.121157 0.125000 0.593782 178 136 64 255
162.733063 -27.375349 -83.510040 0.260102 0.957950 0.121157 0.125000 0.593782 178 136 64 255
164.547119 -27.886503 -83.362961 0.260102 0.957950 0.121157 0.125000 0.600740 178 136 64 255
164.282974 -27.414593 -85.817162 -0.984640 -0.157319 0.075726 0.125000 0.610013 66 66 66 255
164.547119 -27.886503 -83.362961 -0.984640 -0.157319 0.075726 0.125000 0.610013 66 66 66 255
164.269577 -26.155729 -83.376099 -0.984640 -0.157319 0.075726 0.150160 0.605334 66 66 66 255
164.032074 -25.830013 -85.697784 -0.696992 -0.716484 -0.029217 0.150160 0.605334 66 66 66 255
164.269577 -26.155729 -83.376099 -0.696992 -0.716484 -0.029217 0.150160 0.605334 66 66 66 255
163.782028 -25.678925 -83.437889 -0.696992 -0.716484 -0.029217 0.162066 0.595440 66 66 66 255
162.614166 -27.143131 -85.090858 0.951987 -0.278445 -0.127238 0.125000 0.584083 66 66 66 255
163.047104 -25.563156 -85.309235 0.951987 -0.278445 -0.127238 0.153299 0.584746 66 66 66 255
163.217819 -25.807016 -83.498291 0.951987 -0.278445 -0.127238 0.153299 0.584746 66 66 66 255
164.547119 -27.886503 -83.362961 -0.942048 -0.159680 -0.295038 0.125000 0.610013 66 66 66 255
163.971054 -27.966154 -81.480492 -0.942048 -0.159680 -0.295038 0.125000 0.610013 66 66 66 255
163.714798 -26.255960 -81.587860 -0.942048 -0.159680 -0.295038 0.150160 0.605334 66 66 66 255
164.269577 -26.155729 -83.376099 -0.686916 -0.681895 -0.251328 0.150160 0.605334 66 66 66 255
163.714798 -26.255960 -81.587860 -0.686916 -0.681895 -0.251328 0.150160 0.605334 66 66 66 255
163.277863 -25.732885 -81.812843 -0.686916 -0.681895 -0.251328 0.162066 0.595440 66 66 66 255
162.733063 -27.375349 -83.510040 0.914940 -0.284940 0.285822 0.125000 0.584083 66 66 66 255
163.217819 -25.807016 -83.498291 0.914940 -0.284940 0.285822 0.153299 0.584746 66 66 66 255
162.768433 -25.810024 -82.062767 0.914940 -0.284940 0.285822 0.153299 0.584746 66 66 66 255
163.217819 -25.807016 -83.498291 0.217679 -0.975388 0.035146 0.153299 0.584746 66 66 66 255
163.782028 -25.678925 -83.437889 0.217679 -0.975388 0.035146 0.162066 0.595440 66 66 66 255
163.277863 -25.732885 -81.812843 0.217679 -0.975388 0.035146 0.162066 0.595440 66 66 66 255
162.733063 -27.375349 -83.510040 0.294299 0.950753 0.097248 0.125000 0.593782 178 136 64 255
162.317001 -27.376490 -82.239777 0.294299 0.950753 0.097248 0.125000 0.593782 178 136 64 255
163.971054 -27.966154 -81.480492 0.294299 0.950753 0.097248 0.125000 0.600740 178 136 64 255
162.768433 -25.810024 -82.062767 0.626388 -0.276058 0.728992 0.153299 0.584746 66 66 66 255
161.896210 -25.660534 -81.256699 0.626388 -0.276058 0.728992 0.153299 0.584746 66 66 66 255
161.599075 -27.346651 -81.639893 0.626388 -0.276058 0.728992 0.125000 0.584083 66 66 66 255
162.768433 -25.810024 -82.062767 0.001124 -0.956164 0.292830 0.153299 0.584746 66 66 66 255
163.277863 -25.732885 -81.812843 0.001124 -0.956164 0.292830 0.162066 0.595440 66 66 66 255
162.205826 -25.418194 -80.781181 0.001124 -0.956164 0.292830 0.162066 0.595440 66 66 66 255
162.317001 -27.376490 -82.239777 0.054568 0.998388 0.015645 0.125000 0.593782 178 136 64 255
161.599075 -27.346651 -81.639893 0.054568 0.998388 0.015645 0.125000 0.593782 178 136 64 255
162.631073 -27.426548 -80.140762 0.054568 0.998388 0.015645 0.125000 0.600740 178 136 64 255
163.714798 -26.255960 -81.587860 -0.728691 -0.151123 -0.667960 0.150160 0.605334 66 66 66 255
163.971054 -27.966154 -81.480492 -0.728691 -0.151123 -0.667960 0.125000 0.610013 66 66 66 255
162.631073 -27.426548 -80.140762 -0.728691 -0.151123 -0.667960 0.125000 0.610013 66 66 66 255
163.277863 -25.732885 -81.812843 -0.624408 -0.683893 -0.377366 0.162066 0.595440 66 66 66 255
163.714798 -26.255960 -81.587860 -0.624408 -0.683893 -0.377366 0.150160 0.605334 66 66 66 255
162.465942 -25.790932 -80.364204 -0.624408 -0.683893 -0.377366 0.150160 0.605334 66 66 66 255
164.282974 -27.414593 -85.817162 -0.761416 -0.167737 0.626187 0.125000 0.610013 66 66 66 255
164.032074 -25.830013 -85.697784 -0.761416 -0.167737 0.626187 0.150160 0.605334 66 66 66 255
163.890701 -26.487579 -86.045830 -0.761416 -0.167737 0.626187 0.139029 0.607404 66 66 66 255
163.575394 -27.013386 -86.564407 -0.755199 -0.161510 0.635286 0.129302 0.609213 66 66 66 255
163.557724 -26.562637 -86.470818 -0.755199 -0.161510 0.635286 0.136894 0.607801 66 66 66 255
162.804047 -26.373060 -87.318558 -0.755199 -0.161510 0.635286 0.137875 0.607619 66 66 66 255
164.282974 -27.414593 -85.817162 -0.758977 -0.165852 0.629640 0.125000 0.610013 66 66 66 255
163.890701 -26.487579 -86.045830 -0.758977 -0.165852 0.629640 0.139029 0.607404 66 66 66 255
163.575394 -27.013386 -86.564407 -0.758977 -0.165852 0.629640 0.129302 0.609213 66 66 66 255
162.742920 -26.020741 -87.307114 -0.754742 -0.151682 0.638246 0.143151 0.606637 66 66 66 255
162.585587 -25.537943 -87.378426 -0.754742 -0.151682 0.638246 0.150160 0.605334 66 66 66 255
162.706711 -27.192810 -87.628479 -0.754742 -0.151682 0.638246 0.125000 0.610013 66 66 66 255
162.804047 -26.373060 -87.318558 -0.754750 -0.151679 0.638236 0.137875 0.607619 66 66 66 255
162.742920 -26.020741 -87.307114 -0.754750 -0.151679 0.638236 0.143151 0.606637 66 66 66 255
162.706711 -27.192810 -87.628479 -0.754750 -0.151679 0.638236 0.125000 0.610013 66 66 66 255
162.706711 -27.192810 -87.628479 -0.755364 -0.139762 0.640228 0.125000 0.610013 66 66 66 255
164.282974 -27.414593 -85.817162 -0.755364 -0.139762 0.640228 0.125000 0.610013 66 66 66 255
163.575394 -27.013386 -86.564407 -0.755364 -0.139762 0.640228 0.129302 0.609213 66 66 66 255
162.742920 -26.020741 -87.307114 -0.758610 -0.152195 0.633519 0.143151 0.606637 255 101 91 255
162.804047 -26.373060 -87.318558 -0.758610 -0.152195 0.633519 0.137875 0.607619 255 101 91 255
163.519318 -26.208261 -86.422462 -0.758610 -0.152195 0.633519 0.143325 0.606605 255 101 91 255
162.804047 -26.373060 -87.318558 -0.755081 -0.168298 0.633663 0.137875 0.607619 255 101 91 255
163.557724 -26.562637 -86.470818 -0.755081 -0.168298 0.633663 0.136894 0.607801 255 101 91 255
163.519318 -26.208261 -86.422462 -0.755081 -0.168298 0.633663 0.143325 0.606605 255 101 91 255
163.557724 -26.562637 -86.470818 -0.763124 -0.159924 0.626151 0.136894 0.607801 255 101 91 255
163.575394 -27.013386 -86.564407 -0.763124 -0.159924 0.626151 0.129302 0.609213 255 101 91 255
163.890701 -26.487579 -86.045830 -0.763124 -0.159924 0.626151 0.139029 0.607404 255 101 91 255
163.890701 -26.487579 -86.045830 -0.761461 -0.168414 0.625950 0.139029 0.607404 255 101 91 255
163.473282 -25.896843 -86.394676 -0.761461 -0.168414 0.625950 0.146611 0.605994 255 101 91 255
163.519318 -26.208261 -86.422462 -0.761461 -0.168414 0.625950 0.143325 0.606605 255 101 91 255
3 0 1 2
3 3 4 5
3 6 7 8
3 9 10 11
3 12 13 14
3 15 16 17
3 18 19 20
3 21 22 23
3 24 25 26
3 27 28 29
3 30 31 32
3 33 34 35
3 36 37 38
3 39 40 41
3 42 43 44
3 45 46 47
3 48 49 50
3 51 52 53
3 54 55 56
3 57 58 59
3 60 61 62
3 63 64 65
3 66 67 68
3 69 70 71
3 72 73 74
3 75 76 77
3 78 79 80
3 81 82 83
3 84 85 86
3 87 88 89
3 90 91 92
3 93 94 95
3 96 97 98
3 99 100 101
3 102 103 104
3 105 106 107
3 108 109 110
3 111 112 113
3 114 115 116
3 117 118 119
3 120 121 122
3 123 124 125
3 126 127 128
3 129 130 131
3 132 133 134
3 135 136 137
3 138 139 140
3 141 142 143
3 144 145 146
3 147 148 149
3 150 151 152
3 153 154 155
3 156 157 158
3 159 160 161
3 162 163 164
3 165 166 167
3 168 169 170
3 171 172 173
3 174 175 176
3 177 178 179
3 180 181 182
3 183 184 185
3 186 187 188
3 189 190 191
3 192 193 194
3 195 196 197
3 198 199 200
3 201 202 203
3 204 205 206
3 207 208 209
3 210 211 212
3 213 214 215
3 216 217 218
3 219 220 221
3 222 223 224
3 225 226 227
3 228 229 230
3 231 232 233
3 234 235 236
3 237 238 239
3 240 241 242
3 243 244 245
3 246 247 248
3 249 250 251
3 252 253 254
3 255 256 257
3 258 259 260
3 261 262 263
3 264 265 266
3 267 268 269
3 270 271 272
3 273 274 275
3 276 277 278
3 279 280 281
3 282 283 284
