ply
format ascii 1.0
comment Created by Blender 2.93.1 - www.blender.org
element vertex 388
property float x
property float y
property float z
property float nx
property float ny
property float nz
property float s
property float t
property uchar red
property uchar green
property uchar blue
property uchar alpha
element face 142
property list uchar uint vertex_indices
end_header
139.949646 -32.523582 55.436577 0.027358 0.998508 -0.047251 0.125000 0.598639 147 133 102 255
142.797089 -32.523582 57.085194 0.027358 0.998508 -0.047251 0.125000 0.598639 147 133 102 255
145.061020 -32.682880 55.029709 0.027358 0.998508 -0.047251 0.125260 0.598833 147 133 102 255
135.431686 -38.429401 52.771103 0.038842 0.997085 -0.065672 0.125000 0.597964 80 72 55 255
140.735580 -38.221210 59.069111 0.038842 0.997085 -0.065672 0.125000 0.596821 80 72 55 255
142.861557 -38.429401 57.165607 0.038842 0.997085 -0.065672 0.125000 0.597964 80 72 55 255
134.531433 -35.658916 55.591751 -0.009941 0.987360 -0.158182 0.125000 0.595978 147 133 102 255
139.111847 -34.746086 61.001717 -0.009941 0.987360 -0.158182 0.125533 0.596085 147 133 102 255
140.917480 -34.988342 59.376087 -0.009941 0.987360 -0.158182 0.125000 0.595978 147 133 102 255
134.531433 -35.658916 55.591751 0.489164 0.000750 -0.872192 0.125000 0.595978 147 133 102 255
140.856110 -36.053680 59.138573 0.489164 0.000750 -0.872192 0.125000 0.596821 147 133 102 255
140.735580 -38.221210 59.069111 0.489164 0.000750 -0.872192 0.125000 0.596821 147 133 102 255
133.591873 -35.416660 57.832340 0.499351 0.156779 -0.852097 0.125533 0.596085 147 133 102 255
133.587387 -30.475836 58.738785 0.499351 0.156779 -0.852097 0.126526 0.596284 147 133 102 255
136.861816 -33.978065 60.013302 0.499351 0.156779 -0.852097 0.125822 0.596143 147 133 102 255
142.935043 -36.261875 57.209072 -0.499306 0.019826 0.866199 0.125000 0.597964 147 133 102 255
142.859680 -35.203396 57.141403 -0.499306 0.019826 0.866199 0.125000 0.598332 147 133 102 255
140.106644 -34.748726 55.544056 -0.499306 0.019826 0.866199 0.125000 0.598384 147 133 102 255
136.424728 -32.682880 49.893036 -0.499325 0.136614 0.855577 0.125260 0.598833 147 133 102 255
145.156433 -30.542135 54.647141 -0.499325 0.136614 0.855577 0.125477 0.598996 147 133 102 255
136.347809 -30.542135 49.506321 -0.499325 0.136614 0.855577 0.125477 0.598996 147 133 102 255
142.935043 -36.261875 57.209072 0.065599 0.996983 -0.041496 0.125000 0.597964 80 72 55 255
142.917984 -36.053680 62.184235 0.065599 0.996983 -0.041496 0.125000 0.596821 80 72 55 255
145.683380 -36.261875 61.553802 0.065599 0.996983 -0.041496 0.125000 0.597964 80 72 55 255
140.917480 -34.988342 59.376087 0.089317 0.994385 -0.056761 0.125000 0.595978 147 133 102 255
140.475525 -34.746086 62.924656 0.089317 0.994385 -0.056761 0.125533 0.596085 147 133 102 255
142.852264 -34.988342 62.420586 0.089317 0.994385 -0.056761 0.125000 0.595978 147 133 102 255
140.917480 -34.988342 59.376087 0.825623 0.077052 -0.558936 0.125000 0.595978 147 133 102 255
142.917984 -36.053680 62.184235 0.825623 0.077052 -0.558936 0.125000 0.596821 147 133 102 255
140.856110 -36.053680 59.138573 0.825623 0.077052 -0.558936 0.125000 0.596821 147 133 102 255
140.475525 -34.746086 62.924656 0.814173 0.207626 -0.542230 0.125533 0.596085 147 133 102 255
138.805939 -31.548824 61.641994 0.814173 0.207626 -0.542230 0.126310 0.596241 147 133 102 255
139.727966 -30.475836 63.437302 0.814173 0.207626 -0.542230 0.126526 0.596284 147 133 102 255
142.859680 -35.203396 57.141403 -0.840851 0.012594 0.541121 0.125000 0.598332 147 133 102 255
145.683380 -36.261875 61.553802 -0.840851 0.012594 0.541121 0.125000 0.597964 147 133 102 255
145.625931 -32.523582 61.377525 -0.840851 0.012594 0.541121 0.125000 0.598639 147 133 102 255
145.061020 -32.682880 55.029709 -0.833470 0.132993 0.536322 0.125260 0.598833 147 133 102 255
148.888580 -30.542135 60.447079 -0.833470 0.132993 0.536322 0.125477 0.598996 147 133 102 255
145.156433 -30.542135 54.647141 -0.833470 0.132993 0.536322 0.125477 0.598996 147 133 102 255
145.061020 -32.682880 55.029709 0.046893 0.998472 -0.029230 0.125260 0.598833 147 133 102 255
145.625931 -32.523582 61.377525 0.046893 0.998472 -0.029230 0.125000 0.598639 147 133 102 255
148.614548 -32.682880 60.730576 0.046893 0.998472 -0.029230 0.125260 0.598833 147 133 102 255
142.852264 -34.988342 62.420586 0.998107 0.061500 0.000326 0.125000 0.595978 147 133 102 255
142.916702 -36.053680 66.107391 0.998107 0.061500 0.000326 0.125000 0.596821 147 133 102 255
142.917984 -36.053680 62.184235 0.998107 0.061500 0.000326 0.125000 0.596821 147 133 102 255
139.727966 -30.475836 63.437302 0.985016 0.172465 -0.000222 0.126526 0.596284 147 133 102 255
140.476074 -34.746086 65.360992 0.985016 0.172465 -0.000222 0.125533 0.596085 147 133 102 255
140.475525 -34.746086 62.924656 0.985016 0.172465 -0.000222 0.125533 0.596085 147 133 102 255
145.683380 -36.261875 61.553802 -0.999868 -0.015586 -0.004676 0.125000 0.597964 147 133 102 255
145.614731 -33.475731 66.946716 -0.999868 -0.015586 -0.004676 0.125000 0.598639 147 133 102 255
145.625931 -32.523582 61.377525 -0.999868 -0.015586 -0.004676 0.125000 0.598639 147 133 102 255
148.614548 -32.682880 60.730576 -0.991989 0.126177 -0.006086 0.125260 0.598833 147 133 102 255
148.842285 -30.542135 67.992432 -0.991989 0.126177 -0.006086 0.125477 0.598996 147 133 102 255
148.888580 -30.542135 60.447079 -0.991989 0.126177 -0.006086 0.125477 0.598996 147 133 102 255
148.614548 -32.682880 60.730576 0.004501 0.991679 0.128658 0.125260 0.598833 147 133 102 255
145.614731 -33.475731 66.946716 0.004501 0.991679 0.128658 0.125000 0.598639 147 133 102 255
148.456757 -33.635025 68.075104 0.004501 0.991679 0.128658 0.125260 0.598833 147 133 102 255
145.683380 -36.261875 61.553802 0.077761 0.996971 0.001664 0.125000 0.597964 80 72 55 255
142.916702 -36.053680 66.107391 0.077761 0.996971 0.001664 0.125000 0.596821 80 72 55 255
145.564194 -36.261875 67.125099 0.077761 0.996971 0.001664 0.125000 0.597964 80 72 55 255
142.852264 -34.988342 62.420586 0.105517 0.994412 0.003342 0.125000 0.595978 147 133 102 255
140.476074 -34.746086 65.360992 0.105517 0.994412 0.003342 0.125533 0.596085 147 133 102 255
142.730438 -34.988342 66.267021 0.105517 0.994412 0.003342 0.125000 0.595978 147 133 102 255
139.569672 -30.475836 65.370026 0.923104 0.195237 0.331302 0.126526 0.596284 147 133 102 255
139.442291 -33.918728 67.753853 0.923104 0.195237 0.331302 0.125533 0.596085 147 133 102 255
140.476074 -34.746086 65.360992 0.923104 0.195237 0.331302 0.125533 0.596085 147 133 102 255
145.564194 -36.261875 67.125099 -0.875049 0.015068 -0.483800 0.125000 0.597964 147 133 102 255
142.893707 -38.429401 71.887695 -0.875049 0.015068 -0.483800 0.125000 0.597964 147 133 102 255
143.028946 -34.647842 71.760864 -0.875049 0.015068 -0.483800 0.125000 0.598639 147 133 102 255
148.456757 -33.635025 68.075104 -0.866075 0.094836 -0.490836 0.125260 0.598833 147 133 102 255
145.256073 -30.542135 74.320267 -0.866075 0.094836 -0.490836 0.125477 0.598996 147 133 102 255
148.842285 -30.542135 67.992432 -0.866075 0.094836 -0.490836 0.125477 0.598996 147 133 102 255
148.456757 -33.635025 68.075104 -0.092369 0.986522 0.135061 0.125260 0.598833 147 133 102 255
143.028946 -34.647842 71.760864 -0.092369 0.986522 0.135061 0.125000 0.598639 147 133 102 255
144.883072 -34.807137 74.192444 -0.092369 0.986522 0.135061 0.125260 0.598833 147 133 102 255
145.564194 -36.261875 67.125099 -0.342084 0.055292 0.938041 0.125000 0.597964 80 72 55 255
142.845932 -38.221210 66.249298 -0.342084 0.055292 0.938041 0.125000 0.596821 80 72 55 255
145.504715 -38.429401 67.231171 -0.342084 0.055292 0.938041 0.125000 0.597964 80 72 55 255
142.730438 -34.988342 66.267021 0.272665 0.958227 -0.086338 0.125000 0.595978 147 133 102 255
139.442291 -33.918728 67.753853 0.272665 0.958227 -0.086338 0.125533 0.596085 147 133 102 255
140.907364 -34.160984 69.692032 0.272665 0.958227 -0.086338 0.125000 0.595978 147 133 102 255
141.149261 -38.221210 69.651230 0.881865 0.047825 0.469070 0.125000 0.596821 147 133 102 255
142.916702 -36.053680 66.107391 0.881865 0.047825 0.469070 0.125000 0.596821 147 133 102 255
140.907364 -34.160984 69.692032 0.881865 0.047825 0.469070 0.125000 0.595978 147 133 102 255
142.893707 -38.429401 71.887695 -0.421900 -0.015316 -0.906513 0.125000 0.597964 147 133 102 255
137.885941 -34.565331 74.153076 -0.421900 -0.015316 -0.906513 0.125000 0.598639 147 133 102 255
143.028946 -34.647842 71.760864 -0.421900 -0.015316 -0.906513 0.125000 0.598639 147 133 102 255
144.883072 -34.807137 74.192444 -0.417417 0.063673 -0.906482 0.125260 0.598833 147 133 102 255
138.308762 -30.542135 77.519363 -0.417417 0.063673 -0.906482 0.125477 0.598996 147 133 102 255
145.256073 -30.542135 74.320267 -0.417417 0.063673 -0.906482 0.125477 0.598996 147 133 102 255
144.883072 -34.807137 74.192444 0.034213 0.998162 0.050026 0.125260 0.598833 147 133 102 255
137.885941 -34.565331 74.153076 0.034213 0.998162 0.050026 0.125000 0.598639 147 133 102 255
138.070297 -34.724625 77.205360 0.034213 0.998162 0.050026 0.125260 0.598833 147 133 102 255
142.893707 -38.429401 71.887695 0.031449 0.996972 0.071119 0.125000 0.597964 80 72 55 255
137.500961 -38.221210 71.353882 0.031449 0.996972 0.071119 0.125000 0.596821 80 72 55 255
137.702972 -38.429401 74.183029 0.031449 0.996972 0.071119 0.125000 0.597964 80 72 55 255
140.907364 -34.160984 69.692032 0.041696 0.994414 0.096966 0.125000 0.595978 147 133 102 255
137.141068 -33.918728 68.827164 0.041696 0.994414 0.096966 0.125533 0.596085 147 133 102 255
137.277374 -34.160984 71.252945 0.041696 0.994414 0.096966 0.125000 0.595978 147 133 102 255
140.907364 -34.160984 69.692032 0.422854 0.016087 0.906055 0.125000 0.595978 147 133 102 255
137.500961 -38.221210 71.353882 0.422854 0.016087 0.906055 0.125000 0.596821 147 133 102 255
141.149261 -38.221210 69.651230 0.422854 0.016087 0.906055 0.125000 0.596821 147 133 102 255
138.660843 -30.475836 67.294502 0.413092 0.211930 0.885687 0.126526 0.596284 147 133 102 255
137.141068 -33.918728 68.827164 0.413092 0.211930 0.885687 0.125533 0.596085 147 133 102 255
139.442291 -33.918728 67.753853 0.413092 0.211930 0.885687 0.125533 0.596085 147 133 102 255
139.949646 -32.523582 55.436577 -0.835491 0.052565 -0.546985 0.125000 0.598639 147 133 102 255
136.861816 -33.978065 60.013302 -0.835491 0.052565 -0.546985 0.125822 0.596143 147 133 102 255
136.747650 -31.739395 60.402821 -0.835491 0.052565 -0.546985 0.126272 0.596233 147 133 102 255
140.106644 -34.748726 55.544056 -0.084302 -0.990397 0.109575 0.125000 0.598384 147 133 102 255
139.001801 -34.025383 61.232025 -0.084302 -0.990397 0.109575 0.125812 0.596141 147 133 102 255
136.861816 -33.978065 60.013302 -0.084302 -0.990397 0.109575 0.125822 0.596143 147 133 102 255
142.797089 -32.523582 57.085194 0.731636 0.031372 0.680974 0.125000 0.598639 147 133 102 255
139.001801 -34.025383 61.232025 0.731636 0.031372 0.680974 0.125812 0.596141 147 133 102 255
142.859680 -35.203396 57.141403 0.731636 0.031372 0.680974 0.125000 0.598332 147 133 102 255
139.949646 -32.523582 55.436577 0.081095 0.986816 -0.140064 0.125000 0.598639 147 133 102 255
138.805939 -31.548824 61.641994 0.081095 0.986816 -0.140064 0.126310 0.596241 147 133 102 255
142.797089 -32.523582 57.085194 0.081095 0.986816 -0.140064 0.125000 0.598639 147 133 102 255
140.735580 -38.221210 59.069111 -0.664541 0.037496 -0.746311 0.125000 0.596821 80 72 55 255
142.935043 -36.261875 57.209072 -0.664541 0.037496 -0.746311 0.125000 0.597964 80 72 55 255
142.861557 -38.429401 57.165607 -0.664541 0.037496 -0.746311 0.125000 0.597964 80 72 55 255
145.504715 -38.429401 67.231171 0.069213 0.996847 0.038809 0.125000 0.597964 80 72 55 255
141.149261 -38.221210 69.651230 0.069213 0.996847 0.038809 0.125000 0.596821 80 72 55 255
142.893707 -38.429401 71.887695 0.069213 0.996847 0.038809 0.125000 0.597964 80 72 55 255
144.699585 -35.785423 62.776360 0.995545 -0.094283 0.000000 0.375000 0.000000 255 248 117 255
144.827515 -34.434601 64.772995 0.995545 -0.094283 0.000000 0.625000 0.250000 255 248 117 255
144.699585 -35.785423 64.776360 0.995545 -0.094283 0.000000 0.375000 0.250000 255 248 117 255
143.302277 -34.434601 64.772995 0.000000 0.866486 0.499201 0.625000 0.500000 156 255 255 255
144.477600 -34.920967 65.617203 0.000000 0.866486 0.499201 0.875000 0.500000 156 255 255 255
144.827515 -34.434601 64.772995 0.000000 0.866486 0.499201 0.875000 0.500000 156 255 255 255
143.302277 -34.434601 64.772995 -0.995544 -0.094294 -0.000000 0.625000 0.500000 255 248 117 255
143.430222 -35.785423 62.776360 -0.995544 -0.094294 -0.000000 0.375000 0.750000 255 248 117 255
143.430222 -35.785423 64.776360 -0.995544 -0.094294 -0.000000 0.375000 0.500000 255 248 117 255
143.302277 -34.434601 62.369858 0.000000 -0.288164 -0.957581 0.625000 0.750000 255 248 117 255
144.699585 -35.785423 62.776360 0.000000 -0.288164 -0.957581 0.375000 1.000000 255 248 117 255
143.430222 -35.785423 62.776360 0.000000 -0.288164 -0.957581 0.375000 0.750000 255 248 117 255
143.430222 -35.785423 64.776360 -0.000000 -1.000000 -0.000000 0.375000 0.500000 255 248 117 255
144.699585 -35.785423 62.776360 -0.000000 -1.000000 -0.000000 0.125000 0.750000 255 248 117 255
144.699585 -35.785423 64.776360 -0.000000 -1.000000 -0.000000 0.125000 0.500000 255 248 117 255
143.471756 -34.607052 64.692291 -0.783377 0.621547 0.000000 0.654559 0.518761 167 167 167 255
144.064896 -33.859478 63.652000 -0.783377 0.621547 0.000000 0.749999 0.624999 167 167 167 255
143.471756 -34.607052 62.611698 -0.783377 0.621547 0.000000 0.654559 0.731239 167 167 167 255
144.477600 -34.920967 65.617203 0.000000 -0.000000 1.000000 0.625000 0.250000 255 248 117 255
143.652191 -35.799347 65.617203 0.000000 -0.000000 1.000000 0.375000 0.500000 255 248 117 255
144.477600 -35.799347 65.617203 0.000000 -0.000000 1.000000 0.375000 0.250000 255 248 117 255
144.699585 -35.785423 64.776360 0.966873 -0.000000 0.255257 0.375000 0.250000 255 248 117 255
144.477600 -34.920967 65.617203 0.966873 -0.000000 0.255257 0.625000 0.250000 255 248 117 255
144.477600 -35.799347 65.617203 0.966873 -0.000000 0.255257 0.375000 0.250000 255 248 117 255
143.430222 -35.785423 64.776360 -0.937113 -0.087919 0.337771 0.375000 0.500000 255 248 117 255
143.652191 -34.920967 65.617203 -0.937113 -0.087919 0.337771 0.625000 0.500000 255 248 117 255
143.302277 -34.434601 64.772995 -0.937113 -0.087919 0.337771 0.625000 0.500000 255 248 117 255
143.430222 -35.785423 64.776360 0.000000 -0.999863 -0.016557 0.375000 0.500000 255 248 117 255
144.477600 -35.799347 65.617203 0.000000 -0.999863 -0.016557 0.125000 0.500000 255 248 117 255
143.652191 -35.799347 65.617203 0.000000 -0.999863 -0.016557 0.375000 0.500000 255 248 117 255
144.658051 -34.607052 62.611698 -0.713257 0.700903 0.000000 0.845441 0.731239 255 248 117 255
144.827515 -34.434601 64.772995 -0.713257 0.700903 0.000000 0.875000 0.500000 255 248 117 255
144.827515 -34.434601 62.369858 -0.713257 0.700903 0.000000 0.875000 0.750000 255 248 117 255
143.471756 -34.607052 64.692291 0.000000 0.423862 -0.905727 0.654559 0.518761 255 248 117 255
144.827515 -34.434601 64.772995 0.000000 0.423862 -0.905727 0.875000 0.500000 255 248 117 255
144.658051 -34.607052 64.692291 0.000000 0.423862 -0.905727 0.845441 0.518761 255 248 117 255
143.471756 -34.607052 62.611698 0.713225 0.700935 0.000000 0.654559 0.731239 255 248 117 255
143.302277 -34.434601 64.772995 0.713225 0.700935 0.000000 0.625000 0.500000 255 248 117 255
143.471756 -34.607052 64.692291 0.713225 0.700935 0.000000 0.654559 0.518761 255 248 117 255
143.471756 -34.607052 62.611698 -0.000000 0.814198 0.580587 0.654559 0.731239 255 248 117 255
144.827515 -34.434601 62.369858 -0.000000 0.814198 0.580587 0.875000 0.750000 255 248 117 255
143.302277 -34.434601 62.369858 -0.000000 0.814198 0.580587 0.625000 0.750000 255 248 117 255
144.658051 -34.607052 62.611698 0.783369 0.621556 0.000000 0.845441 0.731239 167 167 167 255
144.064896 -33.859478 63.652000 0.783369 0.621556 0.000000 0.749999 0.624999 167 167 167 255
144.658051 -34.607052 64.692291 0.783369 0.621556 0.000000 0.845441 0.518761 167 167 167 255
144.658051 -34.607052 64.692291 0.000000 0.812065 0.583566 0.845441 0.518761 167 167 167 255
144.064896 -33.859478 63.652000 0.000000 0.812065 0.583566 0.749999 0.624999 167 167 167 255
143.471756 -34.607052 64.692291 0.000000 0.812065 0.583566 0.654559 0.518761 167 167 167 255
143.471756 -34.607052 62.611698 0.000000 0.812068 -0.583562 0.654559 0.731239 167 167 167 255
144.064896 -33.859478 63.652000 0.000000 0.812068 -0.583562 0.749999 0.624999 167 167 167 255
144.658051 -34.607052 62.611698 0.000000 0.812068 -0.583562 0.845441 0.731239 167 167 167 255
144.854843 -36.095760 62.497501 0.997049 0.076765 0.000000 0.375000 0.000000 0 0 0 255
144.811981 -35.539055 63.015667 0.997049 0.076765 0.000000 0.625000 0.250000 0 0 0 255
144.854843 -36.095760 63.016544 0.997049 0.076765 0.000000 0.375000 0.250000 0 0 0 255
143.317810 -35.539055 63.015667 -0.997051 0.076737 0.000000 0.625000 0.500000 0 0 0 255
143.274963 -36.095764 62.497501 -0.997051 0.076737 0.000000 0.375000 0.750000 0 0 0 255
143.274963 -36.095764 63.016544 -0.997051 0.076737 0.000000 0.375000 0.500000 0 0 0 255
144.854843 -36.095760 64.654068 0.997049 0.076765 0.000000 0.375000 0.000000 0 0 0 255
144.811981 -35.539055 65.172234 0.997049 0.076765 0.000000 0.625000 0.250000 0 0 0 255
144.854843 -36.095760 65.173111 0.997049 0.076765 0.000000 0.375000 0.250000 0 0 0 255
143.317810 -35.539055 65.172234 -0.997051 0.076737 0.000000 0.625000 0.500000 0 0 0 255
143.274963 -36.095764 64.654068 -0.997051 0.076737 0.000000 0.375000 0.750000 0 0 0 255
143.274963 -36.095764 65.173111 -0.997051 0.076737 0.000000 0.375000 0.500000 0 0 0 255
144.834839 -36.095760 62.497501 -0.997051 -0.076738 0.000000 0.375000 0.000000 0 0 0 255
144.791992 -35.539055 63.015667 -0.997051 -0.076738 0.000000 0.625000 0.250000 0 0 0 255
144.791992 -35.539055 62.392002 -0.997051 -0.076738 0.000000 0.625000 0.000000 0 0 0 255
143.294952 -36.095764 62.497501 0.997049 -0.076764 0.000000 0.375000 0.750000 0 0 0 255
143.337814 -35.539055 63.015667 0.997049 -0.076764 0.000000 0.625000 0.500000 0 0 0 255
143.294952 -36.095764 63.016544 0.997049 -0.076764 0.000000 0.375000 0.500000 0 0 0 255
144.834839 -36.095760 64.654068 -0.997051 -0.076738 0.000000 0.375000 0.000000 0 0 0 255
144.791992 -35.539055 65.172234 -0.997051 -0.076738 0.000000 0.625000 0.250000 0 0 0 255
144.791992 -35.539055 64.548569 -0.997051 -0.076738 0.000000 0.625000 0.000000 0 0 0 255
143.294952 -36.095764 64.654068 0.997049 -0.076764 0.000000 0.375000 0.750000 0 0 0 255
143.337814 -35.539055 65.172234 0.997049 -0.076764 0.000000 0.625000 0.500000 0 0 0 255
143.294952 -36.095764 65.173111 0.997049 -0.076764 0.000000 0.375000 0.500000 0 0 0 255
145.061020 -32.682880 55.029709 0.027447 0.998558 -0.046147 0.125260 0.598833 147 133 102 255
136.424728 -32.682880 49.893036 0.027447 0.998558 -0.046147 0.125260 0.598833 147 133 102 255
139.949646 -32.523582 55.436577 0.027447 0.998558 -0.046147 0.125000 0.598639 147 133 102 255
136.424728 -32.682880 49.893036 0.026295 0.998622 -0.045416 0.125260 0.598833 147 133 102 255
135.254074 -32.523582 52.717915 0.026295 0.998622 -0.045416 0.125000 0.598639 147 133 102 255
139.949646 -32.523582 55.436577 0.026295 0.998622 -0.045416 0.125000 0.598639 147 133 102 255
135.431686 -38.429401 52.771103 0.036917 0.997263 -0.064056 0.125000 0.597964 80 72 55 255
134.374603 -38.221210 55.403114 0.036917 0.997263 -0.064056 0.125000 0.596821 80 72 55 255
140.735580 -38.221210 59.069111 0.036917 0.997263 -0.064056 0.125000 0.596821 80 72 55 255
134.531433 -35.658916 55.591751 -0.047433 0.990766 -0.127014 0.125000 0.595978 147 133 102 255
133.591873 -35.416660 57.832340 -0.047433 0.990766 -0.127014 0.125533 0.596085 147 133 102 255
139.111847 -34.746086 61.001717 -0.047433 0.990766 -0.127014 0.125533 0.596085 147 133 102 255
140.735580 -38.221210 59.069111 0.499059 0.033204 -0.865932 0.125000 0.596821 147 133 102 255
134.374603 -38.221210 55.403114 0.499059 0.033204 -0.865932 0.125000 0.596821 147 133 102 255
134.531433 -35.658916 55.591751 0.499059 0.033204 -0.865932 0.125000 0.595978 147 133 102 255
134.531433 -35.658916 55.591751 0.490319 0.162649 -0.856232 0.125000 0.595978 147 133 102 255
140.917480 -34.988342 59.376087 0.490319 0.162649 -0.856232 0.125000 0.595978 147 133 102 255
140.856110 -36.053680 59.138573 0.490319 0.162649 -0.856232 0.125000 0.596821 147 133 102 255
133.587387 -30.475836 58.738785 0.508285 0.155850 -0.846970 0.126526 0.596284 147 133 102 255
138.721069 -30.475836 61.819618 0.508285 0.155850 -0.846970 0.126526 0.596284 147 133 102 255
136.747650 -31.739395 60.402821 0.508285 0.155850 -0.846970 0.126272 0.596233 147 133 102 255
138.721069 -30.475836 61.819618 0.495092 0.179873 -0.850018 0.126526 0.596284 147 133 102 255
138.805939 -31.548824 61.641994 0.495092 0.179873 -0.850018 0.126310 0.596241 147 133 102 255
136.747650 -31.739395 60.402821 0.495092 0.179873 -0.850018 0.126272 0.596233 147 133 102 255
139.001801 -34.025383 61.232025 0.472192 0.332928 -0.816207 0.125812 0.596141 147 133 102 255
139.111847 -34.746086 61.001717 0.472192 0.332928 -0.816207 0.125533 0.596085 147 133 102 255
136.861816 -33.978065 60.013302 0.472192 0.332928 -0.816207 0.125822 0.596143 147 133 102 255
139.111847 -34.746086 61.001717 0.459426 0.248508 -0.852743 0.125533 0.596085 147 133 102 255
133.591873 -35.416660 57.832340 0.459426 0.248508 -0.852743 0.125533 0.596085 147 133 102 255
136.861816 -33.978065 60.013302 0.459426 0.248508 -0.852743 0.125822 0.596143 147 133 102 255
133.587387 -30.475836 58.738785 0.512046 0.172522 -0.841454 0.126526 0.596284 147 133 102 255
136.747650 -31.739395 60.402821 0.512046 0.172522 -0.841454 0.126272 0.596233 147 133 102 255
136.861816 -33.978065 60.013302 0.512046 0.172522 -0.841454 0.125822 0.596143 147 133 102 255
139.949646 -32.523582 55.436577 -0.501050 0.006448 0.865394 0.125000 0.598639 147 133 102 255
135.254074 -32.523582 52.717915 -0.501050 0.006448 0.865394 0.125000 0.598639 147 133 102 255
140.106644 -34.748726 55.544056 -0.501050 0.006448 0.865394 0.125000 0.598384 147 133 102 255
135.254074 -32.523582 52.717915 -0.505802 -0.007443 0.862617 0.125000 0.598639 147 133 102 255
135.431686 -38.429401 52.771103 -0.505802 -0.007443 0.862617 0.125000 0.597964 147 133 102 255
140.106644 -34.748726 55.544056 -0.505802 -0.007443 0.862617 0.125000 0.598384 147 133 102 255
135.431686 -38.429401 52.771103 -0.509083 -0.001843 0.860716 0.125000 0.597964 147 133 102 255
142.861557 -38.429401 57.165607 -0.509083 -0.001843 0.860716 0.125000 0.597964 147 133 102 255
140.106644 -34.748726 55.544056 -0.509083 -0.001843 0.860716 0.125000 0.598384 147 133 102 255
142.861557 -38.429401 57.165607 -0.507335 -0.000080 0.861749 0.125000 0.597964 147 133 102 255
142.935043 -36.261875 57.209072 -0.507335 -0.000080 0.861749 0.125000 0.597964 147 133 102 255
140.106644 -34.748726 55.544056 -0.507335 -0.000080 0.861749 0.125000 0.598384 147 133 102 255
136.424728 -32.682880 49.893036 -0.503421 0.173696 0.846402 0.125260 0.598833 147 133 102 255
145.061020 -32.682880 55.029709 -0.503421 0.173696 0.846402 0.125260 0.598833 147 133 102 255
145.156433 -30.542135 54.647141 -0.503421 0.173696 0.846402 0.125477 0.598996 147 133 102 255
142.935043 -36.261875 57.209072 0.061333 0.997253 -0.041522 0.125000 0.597964 80 72 55 255
140.856110 -36.053680 59.138573 0.061333 0.997253 -0.041522 0.125000 0.596821 80 72 55 255
142.917984 -36.053680 62.184235 0.061333 0.997253 -0.041522 0.125000 0.596821 80 72 55 255
140.917480 -34.988342 59.376087 0.081476 0.994999 -0.057780 0.125000 0.595978 147 133 102 255
139.111847 -34.746086 61.001717 0.081476 0.994999 -0.057780 0.125533 0.596085 147 133 102 255
140.475525 -34.746086 62.924656 0.081476 0.994999 -0.057780 0.125533 0.596085 147 133 102 255
140.917480 -34.988342 59.376087 0.831907 0.168610 -0.528678 0.125000 0.595978 147 133 102 255
142.852264 -34.988342 62.420586 0.831907 0.168610 -0.528678 0.125000 0.595978 147 133 102 255
142.917984 -36.053680 62.184235 0.831907 0.168610 -0.528678 0.125000 0.596821 147 133 102 255
140.475525 -34.746086 62.924656 0.779257 0.295583 -0.552620 0.125533 0.596085 147 133 102 255
139.111847 -34.746086 61.001717 0.779257 0.295583 -0.552620 0.125533 0.596085 147 133 102 255
139.001801 -34.025383 61.232025 0.779257 0.295583 -0.552620 0.125812 0.596141 147 133 102 255
139.001801 -34.025383 61.232025 0.777363 0.162095 -0.607809 0.125812 0.596141 147 133 102 255
138.805939 -31.548824 61.641994 0.777363 0.162095 -0.607809 0.126310 0.596241 147 133 102 255
140.475525 -34.746086 62.924656 0.777363 0.162095 -0.607809 0.125533 0.596085 147 133 102 255
138.805939 -31.548824 61.641994 0.839006 0.152812 -0.522224 0.126310 0.596241 147 133 102 255
138.721069 -30.475836 61.819618 0.839006 0.152812 -0.522224 0.126526 0.596284 147 133 102 255
139.727966 -30.475836 63.437302 0.839006 0.152812 -0.522224 0.126526 0.596284 147 133 102 255
145.625931 -32.523582 61.377525 -0.834949 -0.007960 0.550269 0.125000 0.598639 147 133 102 255
142.797089 -32.523582 57.085194 -0.834949 -0.007960 0.550269 0.125000 0.598639 147 133 102 255
142.859680 -35.203396 57.141403 -0.834949 -0.007960 0.550269 0.125000 0.598332 147 133 102 255
142.859680 -35.203396 57.141403 -0.844826 -0.025986 0.534410 0.125000 0.598332 147 133 102 255
142.935043 -36.261875 57.209072 -0.844826 -0.025986 0.534410 0.125000 0.597964 147 133 102 255
145.683380 -36.261875 61.553802 -0.844826 -0.025986 0.534410 0.125000 0.597964 147 133 102 255
145.061020 -32.682880 55.029709 -0.835403 0.175898 0.520732 0.125260 0.598833 147 133 102 255
148.614548 -32.682880 60.730576 -0.835403 0.175898 0.520732 0.125260 0.598833 147 133 102 255
148.888580 -30.542135 60.447079 -0.835403 0.175898 0.520732 0.125477 0.598996 147 133 102 255
145.061020 -32.682880 55.029709 0.043961 0.998613 -0.028972 0.125260 0.598833 147 133 102 255
142.797089 -32.523582 57.085194 0.043961 0.998613 -0.028972 0.125000 0.598639 147 133 102 255
145.625931 -32.523582 61.377525 0.043961 0.998613 -0.028972 0.125000 0.598639 147 133 102 255
142.852264 -34.988342 62.420586 0.985360 0.167604 0.031209 0.125000 0.595978 147 133 102 255
142.730438 -34.988342 66.267021 0.985360 0.167604 0.031209 0.125000 0.595978 147 133 102 255
142.916702 -36.053680 66.107391 0.985360 0.167604 0.031209 0.125000 0.596821 147 133 102 255
139.727966 -30.475836 63.437302 0.975116 0.206809 0.079864 0.126526 0.596284 147 133 102 255
139.569672 -30.475836 65.370026 0.975116 0.206809 0.079864 0.126526 0.596284 147 133 102 255
140.476074 -34.746086 65.360992 0.975116 0.206809 0.079864 0.125533 0.596085 147 133 102 255
145.683380 -36.261875 61.553802 -0.999631 0.016763 -0.021385 0.125000 0.597964 147 133 102 255
145.564194 -36.261875 67.125099 -0.999631 0.016763 -0.021385 0.125000 0.597964 147 133 102 255
145.614731 -33.475731 66.946716 -0.999631 0.016763 -0.021385 0.125000 0.598639 147 133 102 255
148.614548 -32.682880 60.730576 -0.992324 0.123551 -0.005302 0.125260 0.598833 147 133 102 255
148.456757 -33.635025 68.075104 -0.992324 0.123551 -0.005302 0.125260 0.598833 147 133 102 255
148.842285 -30.542135 67.992432 -0.992324 0.123551 -0.005302 0.125477 0.598996 147 133 102 255
148.614548 -32.682880 60.730576 0.088704 0.981783 0.168031 0.125260 0.598833 147 133 102 255
145.625931 -32.523582 61.377525 0.088704 0.981783 0.168031 0.125000 0.598639 147 133 102 255
145.614731 -33.475731 66.946716 0.088704 0.981783 0.168031 0.125000 0.598639 147 133 102 255
145.683380 -36.261875 61.553802 0.075079 0.997178 0.000025 0.125000 0.597964 80 72 55 255
142.917984 -36.053680 62.184235 0.075079 0.997178 0.000025 0.125000 0.596821 80 72 55 255
142.916702 -36.053680 66.107391 0.075079 0.997178 0.000025 0.125000 0.596821 80 72 55 255
142.852264 -34.988342 62.420586 0.101398 0.994846 -0.000023 0.125000 0.595978 147 133 102 255
140.475525 -34.746086 62.924656 0.101398 0.994846 -0.000023 0.125533 0.596085 147 133 102 255
140.476074 -34.746086 65.360992 0.101398 0.994846 -0.000023 0.125533 0.596085 147 133 102 255
139.569672 -30.475836 65.370026 0.874671 0.253638 0.413061 0.126526 0.596284 147 133 102 255
138.660843 -30.475836 67.294502 0.874671 0.253638 0.413061 0.126526 0.596284 147 133 102 255
139.442291 -33.918728 67.753853 0.874671 0.253638 0.413061 0.125533 0.596085 147 133 102 255
143.028946 -34.647842 71.760864 -0.879393 -0.014517 -0.475876 0.125000 0.598639 147 133 102 255
145.614731 -33.475731 66.946716 -0.879393 -0.014517 -0.475876 0.125000 0.598639 147 133 102 255
145.564194 -36.261875 67.125099 -0.879393 -0.014517 -0.475876 0.125000 0.597964 147 133 102 255
145.564194 -36.261875 67.125099 -0.872238 0.000001 -0.489082 0.125000 0.597964 147 133 102 255
145.504715 -38.429401 67.231171 -0.872238 0.000001 -0.489082 0.125000 0.597964 147 133 102 255
142.893707 -38.429401 71.887695 -0.872238 0.000001 -0.489082 0.125000 0.597964 147 133 102 255
148.456757 -33.635025 68.075104 -0.867369 0.090523 -0.489363 0.125260 0.598833 147 133 102 255
144.883072 -34.807137 74.192444 -0.867369 0.090523 -0.489363 0.125260 0.598833 147 133 102 255
145.256073 -30.542135 74.320267 -0.867369 0.090523 -0.489363 0.125477 0.598996 147 133 102 255
148.456757 -33.635025 68.075104 -0.032641 0.974987 0.219850 0.125260 0.598833 147 133 102 255
145.614731 -33.475731 66.946716 -0.032641 0.974987 0.219850 0.125000 0.598639 147 133 102 255
143.028946 -34.647842 71.760864 -0.032641 0.974987 0.219850 0.125000 0.598639 147 133 102 255
145.564194 -36.261875 67.125099 -0.352882 0.072595 0.932847 0.125000 0.597964 80 72 55 255
142.916702 -36.053680 66.107391 -0.352882 0.072595 0.932847 0.125000 0.596821 80 72 55 255
142.845932 -38.221210 66.249298 -0.352882 0.072595 0.932847 0.125000 0.596821 80 72 55 255
142.730438 -34.988342 66.267021 0.199368 0.949528 -0.242177 0.125000 0.595978 147 133 102 255
140.476074 -34.746086 65.360992 0.199368 0.949528 -0.242177 0.125533 0.596085 147 133 102 255
139.442291 -33.918728 67.753853 0.199368 0.949528 -0.242177 0.125533 0.596085 147 133 102 255
142.845932 -38.221210 66.249298 0.894879 0.000002 0.446309 0.125000 0.596821 147 133 102 255
142.916702 -36.053680 66.107391 0.894879 0.000002 0.446309 0.125000 0.596821 147 133 102 255
141.149261 -38.221210 69.651230 0.894879 0.000002 0.446309 0.125000 0.596821 147 133 102 255
142.916702 -36.053680 66.107391 0.887966 0.087602 0.451488 0.125000 0.596821 147 133 102 255
142.730438 -34.988342 66.267021 0.887966 0.087602 0.451488 0.125000 0.595978 147 133 102 255
140.907364 -34.160984 69.692032 0.887966 0.087602 0.451488 0.125000 0.595978 147 133 102 255
142.893707 -38.429401 71.887695 -0.404393 0.012060 -0.914506 0.125000 0.597964 147 133 102 255
137.702972 -38.429401 74.183029 -0.404393 0.012060 -0.914506 0.125000 0.597964 147 133 102 255
137.885941 -34.565331 74.153076 -0.404393 0.012060 -0.914506 0.125000 0.598639 147 133 102 255
144.883072 -34.807137 74.192444 -0.401843 0.091316 -0.911144 0.125260 0.598833 147 133 102 255
138.070297 -34.724625 77.205360 -0.401843 0.091316 -0.911144 0.125260 0.598833 147 133 102 255
138.308762 -30.542135 77.519363 -0.401843 0.091316 -0.911144 0.125477 0.598996 147 133 102 255
144.883072 -34.807137 74.192444 0.034290 0.998640 0.039275 0.125260 0.598833 147 133 102 255
143.028946 -34.647842 71.760864 0.034290 0.998640 0.039275 0.125000 0.598639 147 133 102 255
137.885941 -34.565331 74.153076 0.034290 0.998640 0.039275 0.125000 0.598639 147 133 102 255
142.893707 -38.429401 71.887695 0.031760 0.997176 0.068053 0.125000 0.597964 80 72 55 255
141.149261 -38.221210 69.651230 0.031760 0.997176 0.068053 0.125000 0.596821 80 72 55 255
137.500961 -38.221210 71.353882 0.031760 0.997176 0.068053 0.125000 0.596821 80 72 55 255
140.907364 -34.160984 69.692032 0.042879 0.994841 0.091935 0.125000 0.595978 147 133 102 255
139.442291 -33.918728 67.753853 0.042879 0.994841 0.091935 0.125533 0.596085 147 133 102 255
137.141068 -33.918728 68.827164 0.042879 0.994841 0.091935 0.125533 0.596085 147 133 102 255
140.907364 -34.160984 69.692032 0.394639 0.044547 0.917756 0.125000 0.595978 147 133 102 255
137.277374 -34.160984 71.252945 0.394639 0.044547 0.917756 0.125000 0.595978 147 133 102 255
137.500961 -38.221210 71.353882 0.394639 0.044547 0.917756 0.125000 0.596821 147 133 102 255
138.660843 -30.475836 67.294502 0.339027 0.253640 0.905940 0.126526 0.596284 147 133 102 255
136.748230 -30.475836 68.010254 0.339027 0.253640 0.905940 0.126526 0.596284 147 133 102 255
137.141068 -33.918728 68.827164 0.339027 0.253640 0.905940 0.125533 0.596085 147 133 102 255
139.949646 -32.523582 55.436577 -0.813197 -0.085185 -0.575720 0.125000 0.598639 147 133 102 255
140.106644 -34.748726 55.544056 -0.813197 -0.085185 -0.575720 0.125000 0.598384 147 133 102 255
136.861816 -33.978065 60.013302 -0.813197 -0.085185 -0.575720 0.125822 0.596143 147 133 102 255
140.106644 -34.748726 55.544056 -0.209222 -0.974317 0.083265 0.125000 0.598384 147 133 102 255
142.859680 -35.203396 57.141403 -0.209222 -0.974317 0.083265 0.125000 0.598332 147 133 102 255
139.001801 -34.025383 61.232025 -0.209222 -0.974317 0.083265 0.125812 0.596141 147 133 102 255
142.797089 -32.523582 57.085194 0.745848 -0.050959 0.664164 0.125000 0.598639 147 133 102 255
138.805939 -31.548824 61.641994 0.745848 -0.050959 0.664164 0.126310 0.596241 147 133 102 255
139.001801 -34.025383 61.232025 0.745848 -0.050959 0.664164 0.125812 0.596141 147 133 102 255
139.949646 -32.523582 55.436577 0.001763 0.987935 -0.154862 0.125000 0.598639 147 133 102 255
136.747650 -31.739395 60.402821 0.001763 0.987935 -0.154862 0.126272 0.596233 147 133 102 255
138.805939 -31.548824 61.641994 0.001763 0.987935 -0.154862 0.126310 0.596241 147 133 102 255
140.735580 -38.221210 59.069111 -0.675707 0.061116 -0.734633 0.125000 0.596821 80 72 55 255
140.856110 -36.053680 59.138573 -0.675707 0.061116 -0.734633 0.125000 0.596821 80 72 55 255
142.935043 -36.261875 57.209072 -0.675707 0.061116 -0.734633 0.125000 0.597964 80 72 55 255
145.504715 -38.429401 67.231171 0.065944 0.997281 0.032889 0.125000 0.597964 80 72 55 255
142.845932 -38.221210 66.249298 0.065944 0.997281 0.032889 0.125000 0.596821 80 72 55 255
141.149261 -38.221210 69.651230 0.065944 0.997281 0.032889 0.125000 0.596821 80 72 55 255
144.827515 -34.434601 62.369858 0.995545 -0.094283 0.000000 0.625000 0.000000 255 248 117 255
143.652191 -34.920967 65.617203 0.000000 0.866486 0.499201 0.625000 0.500000 156 255 255 255
143.302277 -34.434601 62.369858 -0.995544 -0.094294 0.000000 0.625000 0.750000 255 248 117 255
144.827515 -34.434601 62.369858 -0.000000 -0.288164 -0.957581 0.625000 1.000000 255 248 117 255
143.430222 -35.785423 62.776360 0.000000 -1.000000 0.000000 0.375000 0.750000 255 248 117 255
143.652191 -34.920967 65.617203 0.000000 0.000000 1.000000 0.625000 0.500000 255 248 117 255
144.699585 -35.785423 64.776360 0.937112 -0.087908 0.337777 0.375000 0.250000 255 248 117 255
144.827515 -34.434601 64.772995 0.937112 -0.087908 0.337777 0.625000 0.250000 255 248 117 255
144.477600 -34.920967 65.617203 0.937112 -0.087908 0.337777 0.625000 0.250000 255 248 117 255
143.430222 -35.785423 64.776360 -0.966878 0.000000 0.255241 0.375000 0.500000 255 248 117 255
143.652191 -35.799347 65.617203 -0.966878 0.000000 0.255241 0.375000 0.500000 255 248 117 255
143.652191 -34.920967 65.617203 -0.966878 0.000000 0.255241 0.625000 0.500000 255 248 117 255
144.699585 -35.785423 64.776360 -0.000000 -0.999863 -0.016557 0.125000 0.500000 255 248 117 255
144.658051 -34.607052 64.692291 -0.713257 0.700903 0.000000 0.845441 0.518761 255 248 117 255
143.302277 -34.434601 64.772995 0.000000 0.423862 -0.905727 0.625000 0.500000 255 248 117 255
143.302277 -34.434601 62.369858 0.713225 0.700935 0.000000 0.625000 0.750000 255 248 117 255
144.658051 -34.607052 62.611698 0.000000 0.814198 0.580587 0.845441 0.731239 255 248 117 255
144.811981 -35.539055 62.392002 0.997049 0.076765 0.000000 0.625000 0.000000 0 0 0 255
143.317810 -35.539055 62.392002 -0.997051 0.076737 0.000000 0.625000 0.750000 0 0 0 255
144.811981 -35.539055 64.548569 0.997049 0.076765 0.000000 0.625000 0.000000 0 0 0 255
143.317810 -35.539055 64.548569 -0.997051 0.076737 0.000000 0.625000 0.750000 0 0 0 255
144.834839 -36.095760 63.016544 -0.997051 -0.076738 -0.000000 0.375000 0.250000 0 0 0 255
143.337814 -35.539055 62.392002 0.997049 -0.076764 0.000000 0.625000 0.750000 0 0 0 255
144.834839 -36.095760 65.173111 -0.997051 -0.076738 -0.000000 0.375000 0.250000 0 0 0 255
143.337814 -35.539055 64.548569 0.997049 -0.076764 0.000000 0.625000 0.750000 0 0 0 255
3 0 1 2
3 3 4 5
3 6 7 8
3 9 10 11
3 12 13 14
3 15 16 17
3 18 19 20
3 21 22 23
3 24 25 26
3 27 28 29
3 30 31 32
3 33 34 35
3 36 37 38
3 39 40 41
3 42 43 44
3 45 46 47
3 48 49 50
3 51 52 53
3 54 55 56
3 57 58 59
3 60 61 62
3 63 64 65
3 66 67 68
3 69 70 71
3 72 73 74
3 75 76 77
3 78 79 80
3 81 82 83
3 84 85 86
3 87 88 89
3 90 91 92
3 93 94 95
3 96 97 98
3 99 100 101
3 102 103 104
3 105 106 107
3 108 109 110
3 111 112 113
3 114 115 116
3 117 118 119
3 120 121 122
3 123 124 125
3 126 127 128
3 129 130 131
3 132 133 134
3 135 136 137
3 138 139 140
3 141 142 143
3 144 145 146
3 147 148 149
3 150 151 152
3 153 154 155
3 156 157 158
3 159 160 161
3 162 163 164
3 165 166 167
3 168 169 170
3 171 172 173
3 174 175 176
3 177 178 179
3 180 181 182
3 183 184 185
3 186 187 188
3 189 190 191
3 192 193 194
3 195 196 197
3 198 199 200
3 201 202 203
3 204 205 206
3 207 208 209
3 210 211 212
3 213 214 215
3 216 217 218
3 219 220 221
3 222 223 224
3 225 226 227
3 228 229 230
3 231 232 233
3 234 235 236
3 237 238 239
3 240 241 242
3 243 244 245
3 246 247 248
3 249 250 251
3 252 253 254
3 255 256 257
3 258 259 260
3 261 262 263
3 264 265 266
3 267 268 269
3 270 271 272
3 273 274 275
3 276 277 278
3 279 280 281
3 282 283 284
3 285 286 287
3 288 289 290
3 291 292 293
3 294 295 296
3 297 298 299
3 300 301 302
3 303 304 305
3 306 307 308
3 309 310 311
3 312 313 314
3 315 316 317
3 318 319 320
3 321 322 323
3 324 325 326
3 327 328 329
3 330 331 332
3 333 334 335
3 336 337 338
3 339 340 341
3 342 343 344
3 345 346 347
3 348 349 350
3 351 352 353
3 354 355 356
3 357 358 359
3 360 361 362
3 123 363 124
3 126 364 127
3 129 365 130
3 132 366 133
3 135 367 136
3 141 368 142
3 369 370 371
3 372 373 374
3 150 375 151
3 153 376 154
3 156 377 157
3 159 378 160
3 162 379 163
3 174 380 175
3 177 381 178
3 180 382 181
3 183 383 184
3 186 384 187
3 189 385 190
3 192 386 193
3 195 387 196
