ply
format ascii 1.0
comment Created by Blender 2.92.0 - www.blender.org
element vertex 130
property float x
property float y
property float z
property float nx
property float ny
property float nz
property float s
property float t
property uchar red
property uchar green
property uchar blue
property uchar alpha
element face 44
property list uchar uint vertex_indices
end_header
75.639236 -12.368724 -46.576477 0.292962 0.217401 -0.931080 0.125000 0.562500 147 133 102 255
78.460068 -3.754642 -43.677582 0.292962 0.217401 -0.931080 0.507641 0.437500 147 133 102 255
80.639236 -12.368724 -45.003239 0.292962 0.217401 -0.931080 0.125000 0.562500 147 133 102 255
75.143906 -12.497237 -50.046654 0.557171 0.094300 0.825026 0.125000 0.625000 147 133 102 255
78.251442 -4.020842 -53.114140 0.557171 0.094300 0.825026 0.503044 0.625000 147 133 102 255
74.339836 -3.989710 -50.476044 0.557171 0.094300 0.825026 0.503044 0.625000 147 133 102 255
75.639236 -12.368724 -46.576477 0.006440 0.999770 -0.020467 0.125000 0.562500 115 196 116 255
80.639236 -12.368724 -45.003239 0.006440 0.999770 -0.020467 0.125000 0.562500 115 196 116 255
80.468742 -12.412958 -47.217590 0.006440 0.999770 -0.020467 0.125000 0.584013 115 196 116 255
80.639236 -12.368724 -45.003239 -0.223364 0.126474 -0.966495 0.125000 0.562500 147 133 102 255
88.501816 -3.754642 -45.693108 -0.223364 0.126474 -0.966495 0.507641 0.437500 147 133 102 255
88.309105 -12.368724 -46.775799 -0.223364 0.126474 -0.966495 0.125000 0.562500 147 133 102 255
80.143906 -12.497237 -51.436565 0.207570 0.234308 0.949744 0.125000 0.625000 147 133 102 255
86.405609 -4.020842 -54.896263 0.207570 0.234308 0.949744 0.503044 0.625000 147 133 102 255
78.251442 -4.020842 -53.114140 0.207570 0.234308 0.949744 0.503044 0.625000 147 133 102 255
80.143906 -12.497237 -51.436565 -0.004677 0.999801 -0.019374 0.125000 0.625000 115 196 116 255
87.019035 -12.462127 -51.284416 -0.004677 0.999801 -0.019374 0.125000 0.607925 115 196 116 255
86.534096 -12.497237 -52.979214 -0.004677 0.999801 -0.019374 0.125000 0.625000 115 196 116 255
88.309105 -12.368724 -46.775799 -0.510432 0.183067 -0.840206 0.125000 0.562500 147 133 102 255
93.617508 -3.747096 -48.122192 -0.510432 0.183067 -0.840206 0.507641 0.437500 147 133 102 255
94.323273 -12.368724 -50.429459 -0.510432 0.183067 -0.840206 0.125000 0.562500 147 133 102 255
86.534096 -12.497237 -52.979214 0.659855 0.175253 0.730669 0.125000 0.625000 147 133 102 255
88.127106 -4.028389 -56.449108 0.659855 0.175253 0.730669 0.503044 0.625000 147 133 102 255
86.405609 -4.020842 -54.896263 0.659855 0.175253 0.730669 0.503044 0.625000 147 133 102 255
86.534096 -12.497237 -52.979214 -0.011067 0.999801 -0.016584 0.125000 0.625000 115 196 116 255
91.585243 -12.460328 -54.124920 -0.011067 0.999801 -0.016584 0.125000 0.607050 115 196 116 255
90.482056 -12.497237 -55.613865 -0.011067 0.999801 -0.016584 0.125000 0.625000 115 196 116 255
94.323273 -12.368724 -50.429459 -0.801153 0.183735 -0.569557 0.125000 0.562500 147 133 102 255
98.996590 -3.747096 -54.221794 -0.801153 0.183735 -0.569557 0.507641 0.437500 147 133 102 255
97.762604 -12.368724 -55.267307 -0.801153 0.183735 -0.569557 0.125000 0.562500 147 133 102 255
90.482056 -12.497237 -55.613865 0.710220 0.261937 0.653435 0.125000 0.625000 147 133 102 255
89.957977 -4.028389 -58.439087 0.710220 0.261937 0.653435 0.503044 0.625000 147 133 102 255
88.127106 -4.028389 -56.449108 0.710220 0.261937 0.653435 0.503044 0.625000 147 133 102 255
91.585243 -12.460328 -54.124920 -0.018100 0.999771 -0.011372 0.125000 0.607050 115 196 116 255
91.774895 -12.497237 -57.671539 -0.018100 0.999771 -0.011372 0.125000 0.625000 115 196 116 255
90.482056 -12.497237 -55.613865 -0.018100 0.999771 -0.011372 0.125000 0.625000 115 196 116 255
97.762604 -12.368724 -55.267307 -0.968358 0.224955 -0.108064 0.125000 0.562500 147 133 102 255
100.105400 -3.785774 -58.394081 -0.968358 0.224955 -0.108064 0.507641 0.437500 147 133 102 255
98.238007 -12.368724 -59.527363 -0.968358 0.224955 -0.108064 0.125000 0.562500 147 133 102 255
89.957977 -4.028389 -58.439087 0.968480 0.225260 -0.106326 0.503044 0.625000 147 133 102 255
91.788231 -12.497237 -59.709988 0.968480 0.225260 -0.106326 0.125000 0.625000 147 133 102 255
89.888069 -3.989710 -58.993912 0.968480 0.225260 -0.106326 0.503044 0.625000 147 133 102 255
95.114006 -12.425570 -56.330791 -0.019875 0.999801 -0.001643 0.125000 0.590146 115 196 116 255
98.238007 -12.368724 -59.527363 -0.019875 0.999801 -0.001643 0.125000 0.562500 115 196 116 255
91.788231 -12.497237 -59.709988 -0.019875 0.999801 -0.001643 0.125000 0.625000 115 196 116 255
98.238007 -12.368724 -59.527363 -0.999845 -0.012262 -0.012656 0.125000 0.562500 147 133 102 255
98.196205 -3.785774 -64.540863 -0.999845 -0.012262 -0.012656 0.507641 0.437500 147 133 102 255
98.315811 -12.368724 -65.674141 -0.999845 -0.012262 -0.012656 0.125000 0.562500 147 133 102 255
91.788231 -12.497237 -59.709988 0.964257 0.200818 0.172862 0.125000 0.625000 147 133 102 255
90.989998 -3.989710 -65.140694 0.964257 0.200818 0.172862 0.503044 0.625000 147 133 102 255
89.888069 -3.989710 -58.993912 0.964257 0.200818 0.172862 0.503044 0.625000 147 133 102 255
91.788231 -12.497237 -59.709988 -0.019914 0.999802 -0.000252 0.125000 0.625000 115 196 116 255
98.315811 -12.368724 -65.674141 -0.019914 0.999802 -0.000252 0.125000 0.562500 115 196 116 255
91.866035 -12.497237 -65.856766 -0.019914 0.999802 -0.000252 0.125000 0.625000 115 196 116 255
95.114006 -12.425570 -56.330791 -0.016693 0.999790 -0.011868 0.125000 0.590146 115 196 116 255
94.323273 -12.368724 -50.429459 -0.016693 0.999790 -0.011868 0.125000 0.562500 115 196 116 255
97.762604 -12.368724 -55.267307 -0.016693 0.999790 -0.011868 0.125000 0.562500 115 196 116 255
87.019035 -12.462127 -51.284416 -0.010823 0.999801 -0.016765 0.125000 0.607925 115 196 116 255
94.323273 -12.368724 -50.429459 -0.010823 0.999801 -0.016765 0.125000 0.562500 115 196 116 255
91.585243 -12.460328 -54.124920 -0.010823 0.999801 -0.016765 0.125000 0.607050 115 196 116 255
80.468742 -12.412958 -47.217590 -0.004547 0.999801 -0.019411 0.125000 0.584013 115 196 116 255
88.309105 -12.368724 -46.775799 -0.004547 0.999801 -0.019411 0.125000 0.562500 115 196 116 255
87.019035 -12.462127 -51.284416 -0.004547 0.999801 -0.019411 0.125000 0.607925 115 196 116 255
75.639236 -12.368724 -46.576477 0.588443 0.078128 -0.804756 0.125000 0.562500 147 133 102 255
74.499664 -3.785774 -46.576477 0.588443 0.078128 -0.804756 0.507641 0.437500 147 133 102 255
78.460068 -3.754642 -43.677582 0.588443 0.078128 -0.804756 0.507641 0.437500 147 133 102 255
75.143906 -12.497237 -50.046654 0.259801 0.242971 0.934595 0.125000 0.625000 147 133 102 255
80.143906 -12.497237 -51.436565 0.259801 0.242971 0.934595 0.125000 0.625000 147 133 102 255
78.251442 -4.020842 -53.114140 0.259801 0.242971 0.934595 0.503044 0.625000 147 133 102 255
80.143906 -12.497237 -51.436565 -0.005436 0.999794 -0.019554 0.125000 0.625000 115 196 116 255
75.143906 -12.497237 -50.046654 -0.005436 0.999794 -0.019554 0.125000 0.625000 115 196 116 255
80.468742 -12.412958 -47.217590 -0.005436 0.999794 -0.019554 0.125000 0.584013 115 196 116 255
75.143906 -12.497237 -50.046654 0.004161 0.999284 -0.037601 0.125000 0.625000 115 196 116 255
75.639236 -12.368724 -46.576477 0.004161 0.999284 -0.037601 0.125000 0.562500 115 196 116 255
80.468742 -12.412958 -47.217590 0.004161 0.999284 -0.037601 0.125000 0.584013 115 196 116 255
80.639236 -12.368724 -45.003239 -0.195792 0.100589 -0.975473 0.125000 0.562500 147 133 102 255
78.460068 -3.754642 -43.677582 -0.195792 0.100589 -0.975473 0.507641 0.437500 147 133 102 255
88.501816 -3.754642 -45.693108 -0.195792 0.100589 -0.975473 0.507641 0.437500 147 133 102 255
80.143906 -12.497237 -51.436565 0.229022 0.218030 0.948690 0.125000 0.625000 147 133 102 255
86.534096 -12.497237 -52.979214 0.229022 0.218030 0.948690 0.125000 0.625000 147 133 102 255
86.405609 -4.020842 -54.896263 0.229022 0.218030 0.948690 0.503044 0.625000 147 133 102 255
80.143906 -12.497237 -51.436565 -0.004672 0.999797 -0.019612 0.125000 0.625000 115 196 116 255
80.468742 -12.412958 -47.217590 -0.004672 0.999797 -0.019612 0.125000 0.584013 115 196 116 255
87.019035 -12.462127 -51.284416 -0.004672 0.999797 -0.019612 0.125000 0.607925 115 196 116 255
88.309105 -12.368724 -46.775799 -0.425864 0.122207 -0.896496 0.125000 0.562500 147 133 102 255
88.501816 -3.754642 -45.693108 -0.425864 0.122207 -0.896496 0.507641 0.437500 147 133 102 255
93.617508 -3.747096 -48.122192 -0.425864 0.122207 -0.896496 0.507641 0.437500 147 133 102 255
86.534096 -12.497237 -52.979214 0.540202 0.230050 0.809480 0.125000 0.625000 147 133 102 255
90.482056 -12.497237 -55.613865 0.540202 0.230050 0.809480 0.125000 0.625000 147 133 102 255
88.127106 -4.028389 -56.449108 0.540202 0.230050 0.809480 0.503044 0.625000 147 133 102 255
86.534096 -12.497237 -52.979214 -0.011272 0.999784 -0.017487 0.125000 0.625000 115 196 116 255
87.019035 -12.462127 -51.284416 -0.011272 0.999784 -0.017487 0.125000 0.607925 115 196 116 255
91.585243 -12.460328 -54.124920 -0.011272 0.999784 -0.017487 0.125000 0.607050 115 196 116 255
94.323273 -12.368724 -50.429459 -0.745053 0.114844 -0.657044 0.125000 0.562500 147 133 102 255
93.617508 -3.747096 -48.122192 -0.745053 0.114844 -0.657044 0.507641 0.437500 147 133 102 255
98.996590 -3.747096 -54.221794 -0.745053 0.114844 -0.657044 0.507641 0.437500 147 133 102 255
90.482056 -12.497237 -55.613865 0.825217 0.224034 0.518485 0.125000 0.625000 147 133 102 255
91.774895 -12.497237 -57.671539 0.825217 0.224034 0.518485 0.125000 0.625000 147 133 102 255
89.957977 -4.028389 -58.439087 0.825217 0.224034 0.518485 0.503044 0.625000 147 133 102 255
91.585243 -12.460328 -54.124920 -0.016917 0.999793 -0.011309 0.125000 0.607050 115 196 116 255
95.114006 -12.425570 -56.330791 -0.016917 0.999793 -0.011309 0.125000 0.590146 115 196 116 255
91.774895 -12.497237 -57.671539 -0.016917 0.999793 -0.011309 0.125000 0.625000 115 196 116 255
97.762604 -12.368724 -55.267307 -0.952462 0.167206 -0.254673 0.125000 0.562500 147 133 102 255
98.996590 -3.747096 -54.221794 -0.952462 0.167206 -0.254673 0.507641 0.437500 147 133 102 255
100.105400 -3.785774 -58.394081 -0.952462 0.167206 -0.254673 0.507641 0.437500 147 133 102 255
89.957977 -4.028389 -58.439087 0.977612 0.210318 0.006396 0.503044 0.625000 147 133 102 255
91.774895 -12.497237 -57.671539 0.977612 0.210318 0.006396 0.125000 0.625000 147 133 102 255
91.788231 -12.497237 -59.709988 0.977612 0.210318 0.006396 0.125000 0.625000 147 133 102 255
91.788231 -12.497237 -59.709988 -0.021402 0.999771 -0.000140 0.125000 0.625000 115 196 116 255
91.774895 -12.497237 -57.671539 -0.021402 0.999771 -0.000140 0.125000 0.625000 115 196 116 255
95.114006 -12.425570 -56.330791 -0.021402 0.999771 -0.000140 0.125000 0.590146 115 196 116 255
95.114006 -12.425570 -56.330791 -0.020538 0.999786 -0.002292 0.125000 0.590146 115 196 116 255
97.762604 -12.368724 -55.267307 -0.020538 0.999786 -0.002292 0.125000 0.562500 115 196 116 255
98.238007 -12.368724 -59.527363 -0.020538 0.999786 -0.002292 0.125000 0.562500 115 196 116 255
98.238007 -12.368724 -59.527363 -0.941702 0.166266 0.292493 0.125000 0.562500 147 133 102 255
100.105400 -3.785774 -58.394081 -0.941702 0.166266 0.292493 0.507641 0.437500 147 133 102 255
98.196205 -3.785774 -64.540863 -0.941702 0.166266 0.292493 0.507641 0.437500 147 133 102 255
91.788231 -12.497237 -59.709988 0.994769 0.101374 0.012592 0.125000 0.625000 147 133 102 255
91.866035 -12.497237 -65.856766 0.994769 0.101374 0.012592 0.125000 0.625000 147 133 102 255
90.989998 -3.989710 -65.140694 0.994769 0.101374 0.012592 0.503044 0.625000 147 133 102 255
98.238007 -12.368724 -59.527363 -0.019914 0.999802 -0.000252 0.125000 0.562500 115 196 116 255
95.114006 -12.425570 -56.330791 -0.017318 0.999779 -0.011951 0.125000 0.590146 115 196 116 255
91.585243 -12.460328 -54.124920 -0.017318 0.999779 -0.011951 0.125000 0.607050 115 196 116 255
94.323273 -12.368724 -50.429459 -0.017318 0.999779 -0.011951 0.125000 0.562500 115 196 116 255
87.019035 -12.462127 -51.284416 -0.010719 0.999787 -0.017645 0.125000 0.607925 115 196 116 255
88.309105 -12.368724 -46.775799 -0.010719 0.999787 -0.017645 0.125000 0.562500 115 196 116 255
94.323273 -12.368724 -50.429459 -0.010719 0.999787 -0.017645 0.125000 0.562500 115 196 116 255
80.468742 -12.412958 -47.217590 -0.004535 0.999797 -0.019623 0.125000 0.584013 115 196 116 255
80.639236 -12.368724 -45.003239 -0.004535 0.999797 -0.019623 0.125000 0.562500 115 196 116 255
88.309105 -12.368724 -46.775799 -0.004535 0.999797 -0.019623 0.125000 0.562500 115 196 116 255
3 0 1 2
3 3 4 5
3 6 7 8
3 9 10 11
3 12 13 14
3 15 16 17
3 18 19 20
3 21 22 23
3 24 25 26
3 27 28 29
3 30 31 32
3 33 34 35
3 36 37 38
3 39 40 41
3 42 43 44
3 45 46 47
3 48 49 50
3 51 52 53
3 54 55 56
3 57 58 59
3 60 61 62
3 63 64 65
3 66 67 68
3 69 70 71
3 72 73 74
3 75 76 77
3 78 79 80
3 81 82 83
3 84 85 86
3 87 88 89
3 90 91 92
3 93 94 95
3 96 97 98
3 99 100 101
3 102 103 104
3 105 106 107
3 108 109 110
3 111 112 113
3 114 115 116
3 117 118 119
3 51 120 52
3 121 122 123
3 124 125 126
3 127 128 129
