ply
format ascii 1.0
comment Created by Blender 2.92.0 - www.blender.org
element vertex 310
property float x
property float y
property float z
property float nx
property float ny
property float nz
property float s
property float t
property uchar red
property uchar green
property uchar blue
property uchar alpha
element face 124
property list uchar uint vertex_indices
end_header
22.747589 -6.761170 -31.535931 0.175696 0.981089 -0.081217 0.125000 0.500000 148 148 148 255
24.803951 -7.561399 -36.754036 0.175696 0.981089 -0.081217 0.125000 0.750000 148 148 148 255
21.069199 -6.761170 -35.166767 0.175696 0.981089 -0.081217 0.125000 0.750000 148 148 148 255
21.069199 -3.208812 -35.166767 0.391140 0.000000 0.920331 0.489559 1.000000 147 133 102 255
24.803951 0.991102 -36.754036 0.391140 0.000000 0.920331 0.625000 1.000000 147 133 102 255
21.069199 0.991102 -35.166767 0.391140 0.000000 0.920331 0.625000 1.000000 147 133 102 255
22.747589 0.991102 -31.535931 -0.391140 0.000000 -0.920331 0.625000 0.250000 147 133 102 255
26.482342 -2.866488 -33.123199 -0.391140 0.000000 -0.920331 0.512238 0.250000 147 133 102 255
22.747589 -2.885034 -31.535931 -0.391140 0.000000 -0.920331 0.500000 0.250000 147 133 102 255
26.482342 -2.866488 -33.123199 -0.907710 0.000000 0.419598 0.512238 0.250000 147 133 102 255
24.803951 0.991102 -36.754036 -0.907710 0.000000 0.419598 0.625000 1.000000 147 133 102 255
24.803951 -3.495523 -36.754036 -0.907710 0.000000 0.419598 0.493850 1.000000 147 133 102 255
22.747589 -6.761170 -31.535931 -0.391140 -0.000000 -0.920331 0.375000 0.250000 147 133 102 255
24.803951 -3.495523 -36.754036 0.391140 0.000000 0.920331 0.493850 1.000000 147 133 102 255
21.069199 -6.761170 -35.166767 0.391140 0.000000 0.920331 0.375000 1.000000 147 133 102 255
24.803951 -7.561399 -36.754036 0.391140 0.000000 0.920331 0.375000 1.000000 147 133 102 255
26.482342 -7.561399 -33.123199 -0.457160 0.000000 -0.889384 0.375000 0.250000 147 133 102 255
30.497284 -3.886488 -35.186954 -0.457160 0.000000 -0.889384 0.512238 0.250000 147 133 102 255
30.497284 -8.581399 -35.186954 -0.457160 0.000000 -0.889384 0.375000 0.250000 147 133 102 255
24.803951 -7.561399 -36.754036 0.200219 0.975370 -0.092553 0.125000 0.750000 148 148 148 255
30.497284 -8.581399 -35.186954 0.200219 0.975370 -0.092553 0.125000 0.500000 148 148 148 255
28.818893 -8.581399 -38.817791 0.200219 0.975370 -0.092553 0.125000 0.750000 148 148 148 255
24.803951 -3.495523 -36.754036 -0.128709 -0.965411 0.226752 0.493850 1.000000 147 133 102 255
30.497284 -3.886488 -35.186954 -0.128709 -0.965411 0.226752 0.512238 0.250000 147 133 102 255
26.482342 -2.866488 -33.123199 -0.128709 -0.965411 0.226752 0.512238 0.250000 147 133 102 255
24.803951 -7.561399 -36.754036 0.457160 0.000000 0.889384 0.375000 1.000000 147 133 102 255
28.818893 -4.515523 -38.817791 0.457160 0.000000 0.889384 0.493850 1.000000 147 133 102 255
24.803951 -3.495523 -36.754036 0.457160 0.000000 0.889384 0.493850 1.000000 147 133 102 255
28.818893 -4.515523 -38.817791 -0.183309 -0.950874 0.249473 0.493850 1.000000 147 133 102 255
34.854496 -5.209213 -37.026955 -0.183309 -0.950874 0.249473 0.512238 0.250000 147 133 102 255
30.497284 -3.886488 -35.186954 -0.183309 -0.950874 0.249473 0.512238 0.250000 147 133 102 255
30.497284 -8.581399 -35.186954 -0.389024 0.000000 -0.921228 0.375000 0.250000 147 133 102 255
34.854496 -5.209213 -37.026955 -0.389024 0.000000 -0.921228 0.512238 0.250000 147 133 102 255
34.854496 -9.904124 -37.026955 -0.389024 0.000000 -0.921228 0.375000 0.250000 147 133 102 255
28.818893 -8.581399 -38.817791 0.389024 0.000000 0.921228 0.375000 1.000000 147 133 102 255
33.176105 -5.838248 -40.657791 0.389024 0.000000 0.921228 0.493850 1.000000 147 133 102 255
28.818893 -4.515523 -38.817791 0.389024 0.000000 0.921228 0.493850 1.000000 147 133 102 255
30.497284 -8.581399 -35.186954 0.244596 0.963010 -0.113067 0.125000 0.500000 148 148 148 255
33.176105 -9.904124 -40.657791 0.244596 0.963010 -0.113067 0.125000 0.750000 148 148 148 255
28.818893 -8.581399 -38.817791 0.244596 0.963010 -0.113067 0.125000 0.750000 148 148 148 255
33.176105 -9.904124 -40.657791 -0.525441 0.000000 0.850830 0.375000 1.000000 147 133 102 255
35.381931 -6.192290 -39.295555 -0.525441 0.000000 0.850830 0.493850 1.000000 147 133 102 255
33.176105 -5.838248 -40.657791 -0.525441 0.000000 0.850830 0.493850 1.000000 147 133 102 255
44.727863 -13.678017 -44.174995 -0.505091 0.136615 -0.852185 0.125000 0.509131 147 133 102 255
48.462601 -9.916981 -45.785637 -0.505091 0.136615 -0.852185 0.507641 0.437500 147 133 102 255
48.010109 -14.454632 -46.244884 -0.505091 0.136615 -0.852185 0.125000 0.562500 147 133 102 255
34.854496 -9.904124 -37.026955 -0.458041 0.000000 -0.888931 0.375000 0.250000 147 133 102 255
38.180599 -6.684898 -38.740803 -0.458041 0.000000 -0.888931 0.512238 0.250000 147 133 102 255
38.180599 -11.379809 -38.740803 -0.458041 0.000000 -0.888931 0.375000 0.250000 147 133 102 255
37.832073 -7.313933 -40.290806 -0.136807 -0.906792 0.398763 0.493850 1.000000 147 133 102 255
41.168713 -7.782675 -40.212002 -0.136807 -0.906792 0.398763 0.512238 0.250000 147 133 102 255
38.180599 -6.684898 -38.740803 -0.136807 -0.906792 0.398763 0.512238 0.250000 147 133 102 255
38.180599 -11.379809 -38.740803 -0.441715 0.000000 -0.897156 0.375000 0.250000 147 133 102 255
41.168713 -7.782675 -40.212002 -0.441715 0.000000 -0.897156 0.512238 0.250000 147 133 102 255
41.168713 -12.477586 -40.212002 -0.441715 0.000000 -0.897156 0.375000 0.250000 147 133 102 255
35.170315 -10.164278 -39.186508 0.380896 0.922952 -0.055482 0.125000 0.750000 148 148 148 255
34.854496 -9.904124 -37.026955 0.380896 0.922952 -0.055482 0.125000 0.500000 148 148 148 255
38.180599 -11.379809 -38.740803 0.380896 0.922952 -0.055482 0.125000 0.500000 148 148 148 255
39.967419 -12.477586 -43.980717 0.482917 0.000000 0.875666 0.125000 0.625000 147 133 102 255
42.922649 -9.164750 -45.610481 0.482917 0.000000 0.875666 0.503044 0.625000 147 133 102 255
39.967419 -8.097193 -43.980717 0.482917 0.000000 0.875666 0.503044 0.625000 147 133 102 255
39.967419 -12.477586 -43.980717 0.300611 0.947218 -0.111404 0.125000 0.625000 148 148 148 255
44.123943 -13.545143 -41.841766 0.300611 0.947218 -0.111404 0.125000 0.500000 148 148 148 255
42.922649 -13.545143 -45.083332 0.300611 0.947218 -0.111404 0.125000 0.625000 148 148 148 255
41.168713 -12.477586 -40.212002 -0.482917 0.000000 -0.875666 0.375000 0.250000 147 133 102 255
44.123943 -8.850233 -41.841766 -0.482917 0.000000 -0.875666 0.512238 0.250000 147 133 102 255
44.123943 -13.545143 -41.841766 -0.482917 0.000000 -0.875666 0.375000 0.250000 147 133 102 255
34.854496 -5.209213 -37.026955 -0.333503 -0.890844 0.308502 0.512238 0.250000 147 133 102 255
33.176105 -5.838248 -40.657791 -0.333503 -0.890844 0.308502 0.493850 1.000000 147 133 102 255
35.381931 -6.192290 -39.295555 -0.333503 -0.890844 0.308502 0.493850 1.000000 147 133 102 255
44.762981 -9.014322 -44.191643 -0.964955 -0.000000 -0.262415 0.511531 0.278842 147 133 102 255
44.123943 -13.545143 -41.841766 -0.964955 -0.000000 -0.262415 0.125000 0.500000 147 133 102 255
44.123943 -8.850233 -41.841766 -0.964955 -0.000000 -0.262415 0.512238 0.250000 147 133 102 255
42.922649 -13.545143 -45.083332 0.421454 0.108351 0.900354 0.125000 0.625000 147 133 102 255
46.240314 -10.074240 -47.054024 0.421454 0.108351 0.900354 0.503044 0.625000 147 133 102 255
42.922649 -9.164750 -45.610481 0.421454 0.108351 0.900354 0.503044 0.625000 147 133 102 255
46.240314 -10.074240 -47.054024 0.456043 0.106333 0.883582 0.503044 0.625000 147 133 102 255
49.713634 -14.454632 -48.319557 0.456043 0.106333 0.883582 0.125000 0.625000 147 133 102 255
49.713634 -10.074240 -48.846706 0.456043 0.106333 0.883582 0.503044 0.625000 147 133 102 255
48.462601 -9.916981 -45.785637 -0.012691 -0.998855 0.046128 0.507641 0.437500 147 133 102 255
49.713634 -10.074240 -48.846706 -0.012691 -0.998855 0.046128 0.503044 0.625000 147 133 102 255
51.304150 -9.916981 -45.003845 -0.012691 -0.998855 0.046128 0.507641 0.437500 147 133 102 255
48.010109 -14.454632 -46.244884 -0.000000 1.000000 -0.000000 0.125000 0.562500 148 148 148 255
49.713634 -14.454632 -48.319557 -0.000000 1.000000 -0.000000 0.125000 0.625000 148 148 148 255
46.240314 -14.454632 -46.526875 -0.000000 1.000000 -0.000000 0.125000 0.625000 148 148 148 255
48.462601 -9.916981 -45.785637 0.351938 0.059447 -0.934134 0.507641 0.437500 147 133 102 255
51.304150 -14.454632 -45.003845 0.351938 0.059447 -0.934134 0.125000 0.562500 147 133 102 255
48.010109 -14.454632 -46.244884 0.351938 0.059447 -0.934134 0.125000 0.562500 147 133 102 255
51.304150 -9.916981 -45.003845 0.009582 -0.999190 0.039095 0.507641 0.437500 147 133 102 255
54.275757 -10.074240 -49.751358 0.009582 -0.999190 0.039095 0.503044 0.625000 147 133 102 255
55.304119 -9.916981 -45.984196 0.009582 -0.999190 0.039095 0.507641 0.437500 147 133 102 255
51.304150 -14.454632 -45.003845 -0.000000 1.000000 -0.000000 0.125000 0.562500 148 148 148 255
54.067997 -14.454632 -49.266876 -0.000000 1.000000 -0.000000 0.125000 0.625000 148 148 148 255
51.304150 -9.916981 -45.003845 -0.238044 0.000000 -0.971254 0.507641 0.437500 147 133 102 255
55.304119 -14.454632 -45.984196 -0.238044 0.000000 -0.971254 0.125000 0.562500 147 133 102 255
51.304150 -14.454632 -45.003845 -0.238044 0.000000 -0.971254 0.125000 0.562500 147 133 102 255
49.713634 -10.074240 -48.846706 0.193558 0.098779 0.976104 0.503044 0.625000 147 133 102 255
54.067997 -14.454632 -49.266876 0.193558 0.098779 0.976104 0.125000 0.625000 147 133 102 255
54.275757 -10.074240 -49.751358 0.193558 0.098779 0.976104 0.503044 0.625000 147 133 102 255
55.304119 -9.916981 -45.984196 -0.129274 0.000000 -0.991609 0.507641 0.437500 147 133 102 255
59.847286 -14.454632 -46.576477 -0.129274 0.000000 -0.991609 0.125000 0.562500 147 133 102 255
55.304119 -14.454632 -45.984196 -0.129274 0.000000 -0.991609 0.125000 0.562500 147 133 102 255
54.067997 -14.454632 -49.266876 -0.752866 0.107526 0.649331 0.125000 0.625000 147 133 102 255
55.980949 -10.074240 -47.774273 -0.752866 0.107526 0.649331 0.503044 0.625000 147 133 102 255
54.275757 -10.074240 -49.751358 -0.752866 0.107526 0.649331 0.503044 0.625000 147 133 102 255
55.304119 -9.916981 -45.984196 0.011995 -0.995686 0.092007 0.507641 0.437500 147 133 102 255
55.980949 -10.074240 -47.774273 0.011995 -0.995686 0.092007 0.503044 0.625000 147 133 102 255
59.847286 -9.916981 -46.576477 0.011995 -0.995686 0.092007 0.507641 0.437500 147 133 102 255
59.847286 -14.454632 -46.576477 -0.000000 1.000000 0.000000 0.125000 0.562500 148 148 148 255
59.404636 -14.454632 -47.853210 -0.000000 1.000000 0.000000 0.125000 0.625000 148 148 148 255
56.389656 -14.454632 -47.432564 -0.000000 1.000000 0.000000 0.125000 0.625000 148 148 148 255
59.710430 -10.074240 -48.282600 0.180595 -0.980625 0.075901 0.503044 0.625000 147 133 102 255
64.670731 -9.028680 -46.576477 0.180595 -0.980625 0.075901 0.507641 0.437500 147 133 102 255
59.847286 -9.916981 -46.576477 0.180595 -0.980625 0.075901 0.507641 0.437500 147 133 102 255
59.847286 -14.454632 -46.576477 -0.135388 0.989680 0.046940 0.125000 0.562500 148 148 148 255
65.031944 -13.580786 -50.046654 -0.135388 0.989680 0.046940 0.125000 0.625000 148 148 148 255
59.404636 -14.454632 -47.853210 -0.135388 0.989680 0.046940 0.125000 0.625000 148 148 148 255
59.847286 -9.916981 -46.576477 0.000000 0.000000 -1.000000 0.507641 0.437500 147 133 102 255
65.534325 -13.483396 -46.576477 0.000000 0.000000 -1.000000 0.125000 0.562500 147 133 102 255
59.847286 -14.454632 -46.576477 0.000000 0.000000 -1.000000 0.125000 0.562500 147 133 102 255
59.710430 -10.074240 -48.282600 0.392180 0.137605 0.909538 0.503044 0.625000 147 133 102 255
65.031944 -13.580786 -50.046654 0.392180 0.137605 0.909538 0.125000 0.625000 147 133 102 255
64.498497 -9.222257 -50.476044 0.392180 0.137605 0.909538 0.503044 0.625000 147 133 102 255
69.764496 -7.541618 -50.476044 0.102558 -0.988402 0.111993 0.503044 0.625000 147 133 102 255
69.974869 -7.348041 -48.960266 0.102558 -0.988402 0.111993 0.507641 0.437500 147 133 102 255
66.214241 -7.701133 -48.632698 0.102558 -0.988402 0.111993 0.507641 0.437500 147 133 102 255
65.031944 -13.580786 -50.046654 -0.012798 0.999519 -0.028259 0.125000 0.625000 148 148 148 255
67.530785 -13.508814 -48.632698 -0.012798 0.999519 -0.028259 0.125000 0.562500 148 148 148 255
70.297943 -13.513358 -50.046654 -0.012798 0.999519 -0.028259 0.125000 0.625000 148 148 148 255
64.670731 -9.028680 -46.576477 -0.711451 -0.137922 -0.689068 0.507641 0.437500 147 133 102 255
67.530785 -13.508814 -48.632698 -0.711451 -0.137922 -0.689068 0.125000 0.562500 147 133 102 255
65.534325 -13.483396 -46.576477 -0.711451 -0.137922 -0.689068 0.125000 0.562500 147 133 102 255
64.498497 -9.222257 -50.476044 -0.022252 0.069723 0.997318 0.503044 0.625000 147 133 102 255
70.297943 -13.513358 -50.046654 -0.022252 0.069723 0.997318 0.125000 0.625000 147 133 102 255
69.764496 -7.541618 -50.476044 -0.022252 0.069723 0.997318 0.503044 0.625000 147 133 102 255
69.974869 -7.348041 -48.960266 0.433071 0.061635 -0.899250 0.507641 0.437500 147 133 102 255
75.639236 -12.368724 -46.576477 0.433071 0.061635 -0.899250 0.125000 0.562500 147 133 102 255
70.838463 -13.415968 -48.960266 0.433071 0.061635 -0.899250 0.125000 0.562500 147 133 102 255
69.764496 -7.541618 -50.476044 -0.036439 0.046939 0.998233 0.503044 0.625000 147 133 102 255
75.143906 -12.497237 -50.046654 -0.036439 0.046939 0.998233 0.125000 0.625000 147 133 102 255
74.339836 -3.989710 -50.476044 -0.036439 0.046939 0.998233 0.503044 0.625000 147 133 102 255
69.974869 -7.348041 -48.960266 0.613227 -0.789741 0.016167 0.507641 0.437500 147 133 102 255
74.339836 -3.989710 -50.476044 0.613227 -0.789741 0.016167 0.503044 0.625000 147 133 102 255
74.499664 -3.785774 -46.576477 0.613227 -0.789741 0.016167 0.507641 0.437500 147 133 102 255
70.838463 -13.415968 -48.960266 -0.205200 0.978615 0.014366 0.125000 0.562500 148 148 148 255
75.143906 -12.497237 -50.046654 -0.205200 0.978615 0.014366 0.125000 0.625000 148 148 148 255
70.297943 -13.513358 -50.046654 -0.205200 0.978615 0.014366 0.125000 0.625000 148 148 148 255
37.832073 -11.379809 -40.290806 0.865520 0.000000 0.500875 0.375000 1.000000 147 133 102 255
39.967419 -8.097193 -43.980717 0.865520 0.000000 0.500875 0.503044 0.625000 147 133 102 255
37.832073 -7.313933 -40.290806 0.865520 0.000000 0.500875 0.493850 1.000000 147 133 102 255
44.762981 -9.014322 -44.191643 0.022995 -0.996853 0.075862 0.511531 0.278842 147 133 102 255
44.123943 -8.850233 -41.841766 0.022995 -0.996853 0.075862 0.512238 0.250000 147 133 102 255
42.922649 -9.164750 -45.610481 0.022995 -0.996853 0.075862 0.503044 0.625000 147 133 102 255
44.123943 -8.850233 -41.841766 -0.255569 -0.953288 0.161020 0.512238 0.250000 147 133 102 255
39.967419 -8.097193 -43.980717 -0.255569 -0.953288 0.161020 0.503044 0.625000 147 133 102 255
42.922649 -9.164750 -45.610481 -0.255569 -0.953288 0.161020 0.503044 0.625000 147 133 102 255
35.170315 -10.164278 -39.186508 0.378396 0.005252 0.925629 0.375000 1.000000 147 133 102 255
37.832073 -7.313933 -40.290806 0.378396 0.005252 0.925629 0.493850 1.000000 147 133 102 255
35.381931 -6.192290 -39.295555 0.378396 0.005252 0.925629 0.493850 1.000000 147 133 102 255
55.980949 -10.074240 -47.774273 0.134535 0.087364 0.987050 0.503044 0.625000 147 133 102 255
59.404636 -14.454632 -47.853210 0.134535 0.087364 0.987050 0.125000 0.625000 147 133 102 255
59.710430 -10.074240 -48.282600 0.134535 0.087364 0.987050 0.503044 0.625000 147 133 102 255
67.530785 -13.508814 -48.632698 -0.098153 -0.013969 -0.995073 0.125000 0.562500 147 133 102 255
69.974869 -7.348041 -48.960266 -0.098153 -0.013969 -0.995073 0.507641 0.437500 147 133 102 255
70.838463 -13.415968 -48.960266 -0.098153 -0.013969 -0.995073 0.125000 0.562500 147 133 102 255
41.168713 -12.477586 -40.212002 0.313251 0.947055 -0.070436 0.125000 0.500000 148 148 148 255
37.832073 -11.379809 -40.290806 0.313251 0.947055 -0.070436 0.125000 0.750000 148 148 148 255
38.180599 -11.379809 -38.740803 0.313251 0.947055 -0.070436 0.125000 0.500000 148 148 148 255
42.922649 -13.545143 -45.083332 0.174428 0.962924 -0.205796 0.125000 0.625000 148 148 148 255
44.727863 -13.678017 -44.174995 0.174428 0.962924 -0.205796 0.125000 0.509131 148 148 148 255
46.240314 -14.454632 -46.526875 0.174428 0.962924 -0.205796 0.125000 0.625000 148 148 148 255
26.482342 -7.561399 -33.123199 0.175696 0.981089 -0.081217 0.125000 0.500000 148 148 148 255
26.482342 0.991102 -33.123199 -0.391140 0.000000 -0.920331 0.625000 0.250000 147 133 102 255
26.482342 0.991102 -33.123199 -0.907710 0.000000 0.419598 0.625000 0.250000 147 133 102 255
26.482342 -7.561399 -33.123199 -0.391140 0.000000 -0.920331 0.375000 0.250000 147 133 102 255
26.482342 -2.866488 -33.123199 -0.457160 -0.000000 -0.889384 0.512238 0.250000 147 133 102 255
26.482342 -7.561399 -33.123199 0.200219 0.975370 -0.092553 0.125000 0.500000 148 148 148 255
28.818893 -4.515523 -38.817791 -0.128709 -0.965411 0.226752 0.493850 1.000000 147 133 102 255
28.818893 -8.581399 -38.817791 0.457160 0.000000 0.889384 0.375000 1.000000 147 133 102 255
33.176105 -5.838248 -40.657791 -0.183309 -0.950874 0.249473 0.493850 1.000000 147 133 102 255
30.497284 -3.886488 -35.186954 -0.389024 -0.000000 -0.921228 0.512238 0.250000 147 133 102 255
33.176105 -9.904124 -40.657791 0.389024 0.000000 0.921228 0.375000 1.000000 147 133 102 255
34.854496 -9.904124 -37.026955 0.244596 0.963010 -0.113067 0.125000 0.500000 148 148 148 255
33.176105 -9.904124 -40.657791 -0.588308 0.053495 0.806865 0.375000 1.000000 147 133 102 255
35.170315 -10.164278 -39.186508 -0.588308 0.053495 0.806865 0.375000 1.000000 147 133 102 255
35.381931 -6.192290 -39.295555 -0.588308 0.053495 0.806865 0.493850 1.000000 147 133 102 255
44.727863 -13.678017 -44.174995 -0.395751 -0.000298 -0.918358 0.125000 0.509131 147 133 102 255
44.762981 -9.014322 -44.191643 -0.395751 -0.000298 -0.918358 0.511531 0.278842 147 133 102 255
48.462601 -9.916981 -45.785637 -0.395751 -0.000298 -0.918358 0.507641 0.437500 147 133 102 255
34.854496 -5.209213 -37.026955 -0.458041 -0.000000 -0.888931 0.512238 0.250000 147 133 102 255
37.832073 -7.313933 -40.290806 -0.140931 -0.981858 0.126863 0.493850 1.000000 147 133 102 255
39.967419 -8.097193 -43.980717 -0.140931 -0.981858 0.126863 0.503044 0.625000 147 133 102 255
41.168713 -7.782675 -40.212002 -0.140931 -0.981858 0.126863 0.512238 0.250000 147 133 102 255
38.180599 -11.379809 -38.740803 -0.441715 -0.000000 -0.897155 0.375000 0.250000 147 133 102 255
38.180599 -6.684898 -38.740803 -0.441715 -0.000000 -0.897155 0.512238 0.250000 147 133 102 255
41.168713 -7.782675 -40.212002 -0.441715 -0.000000 -0.897155 0.512238 0.250000 147 133 102 255
38.180599 -11.379809 -38.740803 0.383988 0.919293 -0.086342 0.125000 0.500000 148 148 148 255
37.832073 -11.379809 -40.290806 0.383988 0.919293 -0.086342 0.125000 0.750000 148 148 148 255
35.170315 -10.164278 -39.186508 0.383988 0.919293 -0.086342 0.125000 0.750000 148 148 148 255
35.170315 -10.164278 -39.186508 0.193425 0.977032 -0.089413 0.125000 0.750000 148 148 148 255
33.176105 -9.904124 -40.657791 0.193425 0.977032 -0.089413 0.125000 0.750000 148 148 148 255
34.854496 -9.904124 -37.026955 0.193425 0.977032 -0.089413 0.125000 0.500000 148 148 148 255
39.967419 -12.477586 -43.980717 0.382196 0.110410 0.917462 0.125000 0.625000 147 133 102 255
42.922649 -13.545143 -45.083332 0.382196 0.110410 0.917462 0.125000 0.625000 147 133 102 255
42.922649 -9.164750 -45.610481 0.382196 0.110410 0.917462 0.503044 0.625000 147 133 102 255
39.967419 -12.477586 -43.980717 0.292408 0.951741 -0.093206 0.125000 0.625000 148 148 148 255
41.168713 -12.477586 -40.212002 0.292408 0.951741 -0.093206 0.125000 0.500000 148 148 148 255
44.123943 -13.545143 -41.841766 0.292408 0.951741 -0.093206 0.125000 0.500000 148 148 148 255
41.168713 -7.782675 -40.212002 -0.482917 -0.000000 -0.875666 0.512238 0.250000 147 133 102 255
37.832073 -7.313933 -40.290806 -0.236390 -0.880663 0.410551 0.493850 1.000000 147 133 102 255
38.180599 -6.684898 -38.740803 -0.236390 -0.880663 0.410551 0.512238 0.250000 147 133 102 255
35.381931 -6.192290 -39.295555 -0.236390 -0.880663 0.410551 0.493850 1.000000 147 133 102 255
38.180599 -6.684898 -38.740803 -0.228235 -0.911577 0.341960 0.512238 0.250000 147 133 102 255
34.854496 -5.209213 -37.026955 -0.228235 -0.911577 0.341960 0.512238 0.250000 147 133 102 255
35.381931 -6.192290 -39.295555 -0.228235 -0.911577 0.341960 0.493850 1.000000 147 133 102 255
44.762981 -9.014322 -44.191643 -0.967989 0.006393 -0.250913 0.511531 0.278842 147 133 102 255
44.727863 -13.678017 -44.174995 -0.967989 0.006393 -0.250913 0.125000 0.509131 147 133 102 255
44.123943 -13.545143 -41.841766 -0.967989 0.006393 -0.250913 0.125000 0.500000 147 133 102 255
46.240314 -14.454632 -46.526875 0.421454 0.108351 0.900354 0.125000 0.625000 147 133 102 255
46.240314 -14.454632 -46.526875 0.456043 0.106333 0.883582 0.125000 0.625000 147 133 102 255
48.462601 -9.916981 -45.785637 0.033514 -0.997327 0.064933 0.507641 0.437500 147 133 102 255
46.240314 -10.074240 -47.054024 0.033514 -0.997327 0.064933 0.503044 0.625000 147 133 102 255
49.713634 -10.074240 -48.846706 0.033514 -0.997327 0.064933 0.503044 0.625000 147 133 102 255
48.462601 -9.916981 -45.785637 0.265272 0.000000 -0.964174 0.507641 0.437500 147 133 102 255
51.304150 -9.916981 -45.003845 0.265272 0.000000 -0.964174 0.507641 0.437500 147 133 102 255
51.304150 -14.454632 -45.003845 0.265272 0.000000 -0.964174 0.125000 0.562500 147 133 102 255
51.304150 -9.916981 -45.003845 0.007494 -0.999258 0.037790 0.507641 0.437500 147 133 102 255
49.713634 -10.074240 -48.846706 0.007494 -0.999258 0.037790 0.503044 0.625000 147 133 102 255
54.275757 -10.074240 -49.751358 0.007494 -0.999258 0.037790 0.503044 0.625000 147 133 102 255
55.304119 -14.454632 -45.984196 0.000000 1.000000 -0.000000 0.125000 0.562500 148 148 148 255
55.304119 -9.916981 -45.984196 -0.238044 0.000000 -0.971254 0.507641 0.437500 147 133 102 255
49.713634 -10.074240 -48.846706 0.211129 0.116788 0.970456 0.503044 0.625000 147 133 102 255
49.713634 -14.454632 -48.319557 0.211129 0.116788 0.970456 0.125000 0.625000 147 133 102 255
54.067997 -14.454632 -49.266876 0.211129 0.116788 0.970456 0.125000 0.625000 147 133 102 255
59.847286 -9.916981 -46.576477 -0.129274 0.000000 -0.991609 0.507641 0.437500 147 133 102 255
54.067997 -14.454632 -49.266876 -0.619937 0.003367 0.784644 0.125000 0.625000 147 133 102 255
56.389656 -14.454632 -47.432564 -0.619937 0.003367 0.784644 0.125000 0.625000 147 133 102 255
55.980949 -10.074240 -47.774273 -0.619937 0.003367 0.784644 0.503044 0.625000 147 133 102 255
55.304119 -9.916981 -45.984196 -0.070506 -0.995656 0.060810 0.507641 0.437500 147 133 102 255
54.275757 -10.074240 -49.751358 -0.070506 -0.995656 0.060810 0.503044 0.625000 147 133 102 255
55.980949 -10.074240 -47.774273 -0.070506 -0.995656 0.060810 0.503044 0.625000 147 133 102 255
55.980949 -10.074240 -47.774273 0.012375 -0.995793 0.090793 0.503044 0.625000 147 133 102 255
59.710430 -10.074240 -48.282600 0.012375 -0.995793 0.090793 0.503044 0.625000 147 133 102 255
59.847286 -9.916981 -46.576477 0.012375 -0.995793 0.090793 0.507641 0.437500 147 133 102 255
59.710430 -10.074240 -48.282600 0.192846 -0.980407 0.040151 0.503044 0.625000 147 133 102 255
64.498497 -9.222257 -50.476044 0.192846 -0.980407 0.040151 0.503044 0.625000 147 133 102 255
64.670731 -9.028680 -46.576477 0.192846 -0.980407 0.040151 0.507641 0.437500 147 133 102 255
59.847286 -14.454632 -46.576477 -0.168342 0.985723 -0.003293 0.125000 0.562500 148 148 148 255
65.534325 -13.483396 -46.576477 -0.168342 0.985723 -0.003293 0.125000 0.562500 148 148 148 255
65.031944 -13.580786 -50.046654 -0.168342 0.985723 -0.003293 0.125000 0.625000 148 148 148 255
64.670731 -9.028680 -46.576477 -0.000000 0.000000 -1.000000 0.507641 0.437500 147 133 102 255
59.710430 -10.074240 -48.282600 0.353338 0.066802 0.933107 0.503044 0.625000 147 133 102 255
59.404636 -14.454632 -47.853210 0.353338 0.066802 0.933107 0.125000 0.625000 147 133 102 255
65.031944 -13.580786 -50.046654 0.353338 0.066802 0.933107 0.125000 0.625000 147 133 102 255
66.214241 -7.701133 -48.632698 0.658373 -0.752646 0.008283 0.507641 0.437500 147 133 102 255
64.670731 -9.028680 -46.576477 0.658373 -0.752646 0.008283 0.507641 0.437500 147 133 102 255
64.498497 -9.222257 -50.476044 0.658373 -0.752646 0.008283 0.503044 0.625000 147 133 102 255
64.498497 -9.222257 -50.476044 0.271600 -0.851013 0.449455 0.503044 0.625000 147 133 102 255
69.764496 -7.541618 -50.476044 0.271600 -0.851013 0.449455 0.503044 0.625000 147 133 102 255
66.214241 -7.701133 -48.632698 0.271600 -0.851013 0.449455 0.507641 0.437500 147 133 102 255
65.031944 -13.580786 -50.046654 -0.014069 0.999563 -0.026016 0.125000 0.625000 148 148 148 255
65.534325 -13.483396 -46.576477 -0.014069 0.999563 -0.026016 0.125000 0.562500 148 148 148 255
67.530785 -13.508814 -48.632698 -0.014069 0.999563 -0.026016 0.125000 0.562500 148 148 148 255
67.530785 -13.508814 -48.632698 -0.035100 0.996794 -0.071895 0.125000 0.562500 148 148 148 255
70.838463 -13.415968 -48.960266 -0.035100 0.996794 -0.071895 0.125000 0.562500 148 148 148 255
70.297943 -13.513358 -50.046654 -0.035100 0.996794 -0.071895 0.125000 0.625000 148 148 148 255
64.670731 -9.028680 -46.576477 -0.734022 -0.166396 -0.658426 0.507641 0.437500 147 133 102 255
66.214241 -7.701133 -48.632698 -0.734022 -0.166396 -0.658426 0.507641 0.437500 147 133 102 255
67.530785 -13.508814 -48.632698 -0.734022 -0.166396 -0.658426 0.125000 0.562500 147 133 102 255
64.498497 -9.222257 -50.476044 -0.001253 0.097891 0.995196 0.503044 0.625000 147 133 102 255
65.031944 -13.580786 -50.046654 -0.001253 0.097891 0.995196 0.125000 0.625000 147 133 102 255
70.297943 -13.513358 -50.046654 -0.001253 0.097891 0.995196 0.125000 0.625000 147 133 102 255
69.974869 -7.348041 -48.960266 0.429806 0.057066 -0.901116 0.507641 0.437500 147 133 102 255
74.499664 -3.785774 -46.576477 0.429806 0.057066 -0.901116 0.507641 0.437500 147 133 102 255
75.639236 -12.368724 -46.576477 0.429806 0.057066 -0.901116 0.125000 0.562500 147 133 102 255
69.764496 -7.541618 -50.476044 -0.014761 0.070399 0.997410 0.503044 0.625000 147 133 102 255
70.297943 -13.513358 -50.046654 -0.014761 0.070399 0.997410 0.125000 0.625000 147 133 102 255
75.143906 -12.497237 -50.046654 -0.014761 0.070399 0.997410 0.125000 0.625000 147 133 102 255
69.974869 -7.348041 -48.960266 0.613145 -0.789813 0.015768 0.507641 0.437500 147 133 102 255
69.764496 -7.541618 -50.476044 0.613145 -0.789813 0.015768 0.503044 0.625000 147 133 102 255
74.339836 -3.989710 -50.476044 0.613145 -0.789813 0.015768 0.503044 0.625000 147 133 102 255
70.838463 -13.415968 -48.960266 -0.210183 0.977642 -0.006204 0.125000 0.562500 148 148 148 255
75.639236 -12.368724 -46.576477 -0.210183 0.977642 -0.006204 0.125000 0.562500 148 148 148 255
75.143906 -12.497237 -50.046654 -0.210183 0.977642 -0.006204 0.125000 0.625000 148 148 148 255
39.967419 -12.477586 -43.980717 0.865520 0.000000 0.500875 0.125000 0.625000 147 133 102 255
42.922649 -9.164750 -45.610481 -0.138444 -0.949882 0.280280 0.503044 0.625000 147 133 102 255
46.240314 -10.074240 -47.054024 -0.138444 -0.949882 0.280280 0.503044 0.625000 147 133 102 255
44.762981 -9.014322 -44.191643 -0.138444 -0.949882 0.280280 0.511531 0.278842 147 133 102 255
46.240314 -10.074240 -47.054024 -0.103047 -0.948926 0.298195 0.503044 0.625000 147 133 102 255
48.462601 -9.916981 -45.785637 -0.103047 -0.948926 0.298195 0.507641 0.437500 147 133 102 255
44.762981 -9.014322 -44.191643 -0.103047 -0.948926 0.298195 0.511531 0.278842 147 133 102 255
41.168713 -7.782675 -40.212002 -0.255569 -0.953288 0.161020 0.512238 0.250000 147 133 102 255
35.170315 -10.164278 -39.186508 0.383205 0.000000 0.923663 0.375000 1.000000 147 133 102 255
37.832073 -11.379809 -40.290806 0.383205 0.000000 0.923663 0.375000 1.000000 147 133 102 255
37.832073 -7.313933 -40.290806 0.383205 0.000000 0.923663 0.493850 1.000000 147 133 102 255
55.980949 -10.074240 -47.774273 0.137622 0.089789 0.986407 0.503044 0.625000 147 133 102 255
56.389656 -14.454632 -47.432564 0.137622 0.089789 0.986407 0.125000 0.625000 147 133 102 255
59.404636 -14.454632 -47.853210 0.137622 0.089789 0.986407 0.125000 0.625000 147 133 102 255
67.530785 -13.508814 -48.632698 -0.084965 -0.019261 -0.996198 0.125000 0.562500 147 133 102 255
66.214241 -7.701133 -48.632698 -0.084965 -0.019261 -0.996198 0.507641 0.437500 147 133 102 255
69.974869 -7.348041 -48.960266 -0.084965 -0.019261 -0.996198 0.507641 0.437500 147 133 102 255
41.168713 -12.477586 -40.212002 0.313092 0.944465 -0.099799 0.125000 0.500000 148 148 148 255
39.967419 -12.477586 -43.980717 0.313092 0.944465 -0.099799 0.125000 0.625000 148 148 148 255
37.832073 -11.379809 -40.290806 0.313092 0.944465 -0.099799 0.125000 0.750000 148 148 148 255
42.922649 -13.545143 -45.083332 0.090059 0.995377 -0.033375 0.125000 0.625000 148 148 148 255
44.123943 -13.545143 -41.841766 0.090059 0.995377 -0.033375 0.125000 0.500000 148 148 148 255
44.727863 -13.678017 -44.174995 0.090059 0.995377 -0.033375 0.125000 0.509131 148 148 148 255
44.727863 -13.678017 -44.174995 0.045670 0.956953 -0.286627 0.125000 0.509131 148 148 148 255
48.010109 -14.454632 -46.244884 0.045670 0.956953 -0.286627 0.125000 0.562500 148 148 148 255
46.240314 -14.454632 -46.526875 0.045670 0.956953 -0.286627 0.125000 0.625000 148 148 148 255
3 0 1 2
3 3 4 5
3 6 7 8
3 9 10 11
3 7 12 8
3 13 14 15
3 16 17 18
3 19 20 21
3 22 23 24
3 25 26 27
3 28 29 30
3 31 32 33
3 34 35 36
3 37 38 39
3 40 41 42
3 43 44 45
3 46 47 48
3 49 50 51
3 52 53 54
3 55 56 57
3 58 59 60
3 61 62 63
3 64 65 66
3 67 68 69
3 70 71 72
3 73 74 75
3 76 77 78
3 79 80 81
3 82 83 84
3 85 86 87
3 88 89 90
3 91 92 83
3 93 94 95
3 96 97 98
3 99 100 101
3 102 103 104
3 105 106 107
3 108 109 110
3 111 112 113
3 114 115 116
3 117 118 119
3 120 121 122
3 123 124 125
3 126 127 128
3 129 130 131
3 132 133 134
3 135 136 137
3 138 139 140
3 141 142 143
3 144 145 146
3 147 148 149
3 150 151 152
3 153 154 155
3 156 157 158
3 159 160 161
3 162 163 164
3 165 166 167
3 168 169 170
3 0 171 1
3 3 13 4
3 6 172 7
3 9 173 10
3 7 174 12
3 13 3 14
3 16 175 17
3 19 176 20
3 22 177 23
3 25 178 26
3 28 179 29
3 31 180 32
3 34 181 35
3 37 182 38
3 183 184 185
3 186 187 188
3 46 189 47
3 190 191 192
3 193 194 195
3 196 197 198
3 199 200 201
3 202 203 204
3 205 206 207
3 64 208 65
3 209 210 211
3 212 213 214
3 215 216 217
3 73 218 74
3 76 219 77
3 220 221 222
3 82 91 83
3 223 224 225
3 226 227 228
3 91 229 92
3 93 230 94
3 231 232 233
3 99 234 100
3 235 236 237
3 238 239 240
3 241 242 243
3 110 92 229
3 229 108 110
3 244 245 246
3 247 248 249
3 117 250 118
3 251 252 253
3 254 255 256
3 257 258 259
3 260 261 262
3 263 264 265
3 266 267 268
3 269 270 271
3 272 273 274
3 275 276 277
3 278 279 280
3 281 282 283
3 147 284 148
3 285 286 287
3 288 289 290
3 153 291 154
3 292 293 294
3 295 296 297
3 298 299 300
3 301 302 303
3 304 305 306
3 307 308 309
