ply
format ascii 1.0
comment Created by Blender 2.92.0 - www.blender.org
element vertex 24
property float x
property float y
property float z
property float nx
property float ny
property float nz
property float s
property float t
element face 6
property list uchar uint vertex_indices
end_header
154.661896 -50.428535 25.081049 -1.000000 0.000000 0.000000 0.375000 0.000000
154.661896 -27.176544 25.081049 -1.000000 0.000000 0.000000 0.625000 0.000000
154.661896 -27.176544 3.252209 -1.000000 0.000000 0.000000 0.625000 0.250000
154.661896 -50.428535 3.252209 -1.000000 0.000000 0.000000 0.375000 0.250000
154.661896 -50.428535 3.252209 -0.000000 0.000000 1.000000 0.375000 0.250000
154.661896 -27.176544 3.252209 -0.000000 0.000000 1.000000 0.625000 0.250000
132.377411 -27.176544 3.252209 -0.000000 0.000000 1.000000 0.625000 0.500000
132.377411 -50.428535 3.252209 -0.000000 0.000000 1.000000 0.375000 0.500000
132.377411 -50.428535 3.252209 1.000000 0.000000 0.000000 0.375000 0.500000
132.377411 -27.176544 3.252209 1.000000 0.000000 0.000000 0.625000 0.500000
132.377411 -27.176544 25.081049 1.000000 0.000000 0.000000 0.625000 0.750000
132.377411 -50.428535 25.081049 1.000000 0.000000 0.000000 0.375000 0.750000
132.377411 -50.428535 25.081049 -0.000000 0.000000 -1.000000 0.375000 0.750000
132.377411 -27.176544 25.081049 -0.000000 0.000000 -1.000000 0.625000 0.750000
154.661896 -27.176544 25.081049 -0.000000 0.000000 -1.000000 0.625000 1.000000
154.661896 -50.428535 25.081049 -0.000000 0.000000 -1.000000 0.375000 1.000000
154.661896 -50.428535 3.252209 0.000000 1.000000 0.000000 0.125000 0.500000
132.377411 -50.428535 3.252209 0.000000 1.000000 0.000000 0.375000 0.500000
132.377411 -50.428535 25.081049 0.000000 1.000000 0.000000 0.375000 0.750000
154.661896 -50.428535 25.081049 0.000000 1.000000 0.000000 0.125000 0.750000
132.377411 -27.176544 3.252209 0.000000 -1.000000 -0.000000 0.625000 0.500000
154.661896 -27.176544 3.252209 0.000000 -1.000000 -0.000000 0.875000 0.500000
154.661896 -27.176544 25.081049 0.000000 -1.000000 -0.000000 0.875000 0.750000
132.377411 -27.176544 25.081049 0.000000 -1.000000 -0.000000 0.625000 0.750000
4 0 1 2 3
4 4 5 6 7
4 8 9 10 11
4 12 13 14 15
4 16 17 18 19
4 20 21 22 23
