ply
format ascii 1.0
comment Created by Blender 2.93.1 - www.blender.org
element vertex 264
property float x
property float y
property float z
property float nx
property float ny
property float nz
property float s
property float t
property uchar red
property uchar green
property uchar blue
property uchar alpha
element face 88
property list uchar uint vertex_indices
end_header
138.070297 -34.724625 77.205360 -0.325122 0.089217 -0.941454 0.125260 0.598833 147 133 102 255
134.438675 -30.542135 78.855858 -0.325122 0.089217 -0.941454 0.125477 0.598996 147 133 102 255
138.308762 -30.542135 77.519363 -0.325122 0.089217 -0.941454 0.125477 0.598996 147 133 102 255
138.070297 -34.724625 77.205360 0.060452 0.984752 0.163126 0.125260 0.598833 147 133 102 255
132.548965 -34.192322 76.038116 0.060452 0.984752 0.163126 0.125000 0.598639 147 133 102 255
134.084579 -34.724625 78.682419 0.060452 0.984752 0.163126 0.125260 0.598833 147 133 102 255
137.702972 -38.429401 74.183029 -0.089101 0.986509 0.137334 0.125000 0.597964 80 72 55 255
130.947769 -38.973686 73.710052 -0.089101 0.986509 0.137334 0.125000 0.596821 80 72 55 255
132.398941 -39.181877 76.147049 -0.089101 0.986509 0.137334 0.125000 0.597964 80 72 55 255
137.277374 -34.160984 71.252945 0.027407 0.996605 -0.077634 0.125000 0.595978 147 133 102 255
129.491379 -33.918728 71.614166 0.027407 0.996605 -0.077634 0.125533 0.596085 147 133 102 255
130.702667 -33.787975 73.720291 0.027407 0.996605 -0.077634 0.125000 0.595978 147 133 102 255
137.277374 -34.160984 71.252945 0.333792 0.041792 0.941720 0.125000 0.595978 147 133 102 255
130.947769 -38.973686 73.710052 0.333792 0.041792 0.941720 0.125000 0.596821 147 133 102 255
137.500961 -38.221210 71.353882 0.333792 0.041792 0.941720 0.125000 0.596821 147 133 102 255
136.748230 -30.475836 68.010254 0.331141 0.253444 0.908907 0.126526 0.596284 147 133 102 255
129.491379 -33.918728 71.614166 0.331141 0.253444 0.908907 0.125533 0.596085 147 133 102 255
137.141068 -33.918728 68.827164 0.331141 0.253444 0.908907 0.125533 0.596085 147 133 102 255
137.702972 -38.429401 74.183029 -0.332504 0.008434 -0.943064 0.125000 0.597964 147 133 102 255
132.548965 -34.192322 76.038116 -0.332504 0.008434 -0.943064 0.125000 0.598639 147 133 102 255
137.885941 -34.565331 74.153076 -0.332504 0.008434 -0.943064 0.125000 0.598639 147 133 102 255
130.702667 -33.787975 73.720291 0.808929 -0.000905 -0.587905 0.125000 0.595978 147 133 102 255
128.773483 -30.475836 71.060730 0.808929 -0.000905 -0.587905 0.126526 0.596284 147 133 102 255
134.438675 -30.542135 78.855858 0.808929 -0.000905 -0.587905 0.125477 0.598996 147 133 102 255
130.947769 -38.973686 73.710052 0.045740 0.997271 0.057959 0.125000 0.596821 80 72 55 255
129.457428 -39.181877 78.468460 0.045740 0.997271 0.057959 0.125000 0.597964 80 72 55 255
132.398941 -39.181877 76.147049 0.045740 0.997271 0.057959 0.125000 0.597964 80 72 55 255
130.702667 -33.787975 73.720291 -0.090168 -0.989901 -0.109389 0.125000 0.595978 147 133 102 255
129.564789 -34.192322 78.317307 -0.090168 -0.989901 -0.109389 0.125000 0.598639 147 133 102 255
127.074867 -33.787975 76.710632 -0.090168 -0.989901 -0.109389 0.125000 0.595978 147 133 102 255
130.702667 -33.787975 73.720291 0.624118 0.027957 0.780830 0.125000 0.595978 147 133 102 255
127.303856 -38.973686 76.622635 0.624118 0.027957 0.780830 0.125000 0.596821 147 133 102 255
130.947769 -38.973686 73.710052 0.624118 0.027957 0.780830 0.125000 0.596821 147 133 102 255
132.398941 -39.181877 76.147049 -0.606975 0.000900 -0.794721 0.125000 0.597964 147 133 102 255
129.564789 -34.192322 78.317307 -0.606975 0.000900 -0.794721 0.125000 0.598639 147 133 102 255
132.548965 -34.192322 76.038116 -0.606975 0.000900 -0.794721 0.125000 0.598639 147 133 102 255
127.074867 -33.787975 76.710632 0.792209 0.024635 0.609753 0.125000 0.595978 147 133 102 255
125.110367 -39.015461 79.474167 0.792209 0.024635 0.609753 0.125000 0.596821 147 133 102 255
127.303856 -38.973686 76.622635 0.792209 0.024635 0.609753 0.125000 0.596821 147 133 102 255
127.074867 -33.787975 76.710632 -0.213051 -0.957391 -0.194965 0.125000 0.595978 147 133 102 255
127.371307 -34.761822 81.168846 -0.213051 -0.957391 -0.194965 0.125000 0.598639 147 133 102 255
124.881378 -33.880543 79.562164 -0.213051 -0.957391 -0.194965 0.125000 0.595978 147 133 102 255
129.457428 -39.181877 78.468460 -0.792487 -0.001424 -0.609887 0.125000 0.597964 147 133 102 255
127.371307 -34.761822 81.168846 -0.792487 -0.001424 -0.609887 0.125000 0.598639 147 133 102 255
129.564789 -34.192322 78.317307 -0.792487 -0.001424 -0.609887 0.125000 0.598639 147 133 102 255
129.457428 -39.181877 78.468460 0.098923 0.958030 0.269058 0.125000 0.597964 80 72 55 255
125.110367 -39.015461 79.474167 0.098923 0.958030 0.269058 0.125000 0.596821 80 72 55 255
127.263931 -39.756222 81.319992 0.098923 0.958030 0.269058 0.125000 0.597964 80 72 55 255
127.371307 -34.761822 81.168846 -0.152411 -0.946880 -0.283175 0.125000 0.598639 147 133 102 255
122.937744 -34.867386 83.908073 -0.152411 -0.946880 -0.283175 0.125000 0.595978 147 133 102 255
124.881378 -33.880543 79.562164 -0.152411 -0.946880 -0.283175 0.125000 0.595978 147 133 102 255
127.263931 -39.756222 81.319992 -0.913995 0.007374 -0.405658 0.125000 0.597964 147 133 102 255
125.787018 -35.654888 84.722206 -0.913995 0.007374 -0.405658 0.125000 0.598639 147 133 102 255
127.371307 -34.761822 81.168846 -0.913995 0.007374 -0.405658 0.125000 0.598639 147 133 102 255
127.263931 -39.756222 81.319992 0.115402 0.950955 0.286997 0.125000 0.597964 80 72 55 255
123.131302 -39.990307 83.757355 0.115402 0.950955 0.286997 0.125000 0.596821 80 72 55 255
125.728180 -40.649700 84.898026 0.115402 0.950955 0.286997 0.125000 0.597964 80 72 55 255
125.110367 -39.015461 79.474167 0.905671 0.021761 0.423422 0.125000 0.596821 147 133 102 255
122.937744 -34.867386 83.908073 0.905671 0.021761 0.423422 0.125000 0.595978 147 133 102 255
123.131302 -39.990307 83.757355 0.905671 0.021761 0.423422 0.125000 0.596821 147 133 102 255
125.728180 -40.649700 84.898026 0.161268 0.952267 0.259192 0.125000 0.597964 80 72 55 255
122.374596 -40.987537 88.225815 0.161268 0.952267 0.259192 0.125000 0.596821 80 72 55 255
125.165123 -41.598328 88.733597 0.161268 0.952267 0.259192 0.125000 0.597964 80 72 55 255
123.131302 -39.990307 83.757355 0.984839 0.023083 0.171928 0.125000 0.596821 147 133 102 255
122.221237 -35.870621 88.417290 0.984839 0.023083 0.171928 0.125000 0.595978 147 133 102 255
122.374596 -40.987537 88.225815 0.984839 0.023083 0.171928 0.125000 0.596821 147 133 102 255
125.787018 -35.654888 84.722206 -0.193538 -0.950709 -0.242272 0.125000 0.598639 147 133 102 255
122.221237 -35.870621 88.417290 -0.193538 -0.950709 -0.242272 0.125000 0.595978 147 133 102 255
122.937744 -34.867386 83.908073 -0.193538 -0.950709 -0.242272 0.125000 0.595978 147 133 102 255
125.728180 -40.649700 84.898026 -0.987933 0.006190 -0.154760 0.125000 0.597964 147 133 102 255
125.181610 -36.604507 88.548927 -0.987933 0.006190 -0.154760 0.125000 0.598639 147 133 102 255
125.787018 -35.654888 84.722206 -0.987933 0.006190 -0.154760 0.125000 0.598639 147 133 102 255
122.221237 -35.870621 88.417290 -0.271030 -0.943749 -0.189422 0.125000 0.595978 147 133 102 255
125.338234 -37.528103 92.215408 -0.271030 -0.943749 -0.189422 0.125000 0.598639 147 133 102 255
122.505600 -36.889286 93.085663 -0.271030 -0.943749 -0.189422 0.125000 0.595978 147 133 102 255
125.165123 -41.598328 88.733597 -0.999023 0.004922 0.043916 0.125000 0.597964 147 133 102 255
125.338234 -37.528103 92.215408 -0.999023 0.004922 0.043916 0.125000 0.598639 147 133 102 255
125.181610 -36.604507 88.548927 -0.999023 0.004922 0.043916 0.125000 0.598639 147 133 102 255
125.165123 -41.598328 88.733597 0.213934 0.950159 0.226783 0.125000 0.597964 80 72 55 255
122.585739 -42.000973 92.853806 0.213934 0.950159 0.226783 0.125000 0.596821 80 72 55 255
125.384727 -42.521648 92.394890 0.213934 0.950159 0.226783 0.125000 0.597964 80 72 55 255
122.374596 -40.987537 88.225815 0.998975 0.017554 -0.041732 0.125000 0.596821 147 133 102 255
122.505600 -36.889286 93.085663 0.998975 0.017554 -0.041732 0.125000 0.595978 147 133 102 255
122.585739 -42.000973 92.853806 0.998975 0.017554 -0.041732 0.125000 0.596821 147 133 102 255
125.384727 -42.521648 92.394890 -0.958006 0.001387 0.286744 0.125000 0.597964 147 133 102 255
126.177963 -38.288094 95.024605 -0.958006 0.001387 0.286744 0.125000 0.598639 147 133 102 255
125.338234 -37.528103 92.215408 -0.958006 0.001387 0.286744 0.125000 0.598639 147 133 102 255
125.384727 -42.521648 92.394890 0.245378 0.952525 0.180238 0.125000 0.597964 80 72 55 255
123.852028 -42.927979 96.628899 0.245378 0.952525 0.180238 0.125000 0.596821 80 72 55 255
126.287102 -43.280067 95.174484 0.245378 0.952525 0.180238 0.125000 0.597964 80 72 55 255
122.585739 -42.000973 92.853806 0.948959 0.012949 -0.315132 0.125000 0.596821 147 133 102 255
123.862595 -37.737808 96.873993 0.948959 0.012949 -0.315132 0.125000 0.595978 147 133 102 255
123.852028 -42.927979 96.628899 0.948959 0.012949 -0.315132 0.125000 0.596821 147 133 102 255
122.505600 -36.889286 93.085663 -0.306527 -0.946363 -0.102170 0.125000 0.595978 147 133 102 255
126.177963 -38.288094 95.024605 -0.306527 -0.946363 -0.102170 0.125000 0.598639 147 133 102 255
123.862595 -37.737808 96.873993 -0.306527 -0.946363 -0.102170 0.125000 0.595978 147 133 102 255
130.532822 -33.963379 75.250549 0.856066 -0.000312 -0.516866 0.125000 0.598639 236 181 85 255
131.137054 -39.114006 76.254425 0.856066 -0.000312 -0.516866 0.125000 0.597964 236 181 85 255
130.185944 -33.858994 74.675964 0.856066 -0.000312 -0.516866 0.125000 0.598639 236 181 85 255
129.022644 -39.044136 76.583969 0.701812 0.076439 -0.708249 0.125000 0.597964 236 181 85 255
129.421646 -34.134609 77.509216 0.701812 0.076439 -0.708249 0.125000 0.598639 236 181 85 255
129.874329 -34.198074 77.950935 0.701812 0.076439 -0.708249 0.125000 0.598639 236 181 85 255
126.850822 -39.026417 78.306839 0.709519 0.074531 -0.700734 0.125000 0.597964 236 181 85 255
127.211594 -34.324841 79.172203 0.709519 0.074531 -0.700734 0.125000 0.598639 236 181 85 255
127.685791 -34.447807 79.639267 0.709519 0.074531 -0.700734 0.125000 0.598639 236 181 85 255
127.592079 -37.505829 80.877281 0.687607 0.108614 -0.717913 0.125000 0.597964 236 181 85 255
125.360352 -35.575893 79.031746 0.687607 0.108614 -0.717913 0.125000 0.598639 236 181 85 255
125.302856 -34.892647 79.080048 0.687607 0.108614 -0.717913 0.125000 0.598639 236 181 85 255
123.905548 -38.810417 82.040764 -0.201065 -0.067684 -0.977237 0.125000 0.598639 236 181 85 255
127.245407 -38.863735 81.357285 -0.201065 -0.067684 -0.977237 0.125000 0.597964 236 181 85 255
123.909889 -39.607620 82.095085 -0.201065 -0.067684 -0.977237 0.125000 0.598639 236 181 85 255
125.614174 -39.064598 85.580093 -0.200051 0.108773 -0.973729 0.125000 0.597964 236 181 85 255
122.661530 -38.570568 86.241898 -0.200051 0.108773 -0.973729 0.125000 0.598639 236 181 85 255
122.651863 -37.510609 86.362289 -0.200051 0.108773 -0.973729 0.125000 0.598639 236 181 85 255
122.573425 -37.286716 86.702049 -0.181467 -0.111555 -0.977049 0.125000 0.598639 236 181 85 255
125.565308 -36.595074 86.067398 -0.181467 -0.111555 -0.977049 0.125000 0.597964 236 181 85 255
122.574280 -38.410442 86.830193 -0.181467 -0.111555 -0.977049 0.125000 0.598639 236 181 85 255
125.174812 -37.236347 88.787506 -0.217657 0.074717 -0.973161 0.125000 0.597964 236 181 85 255
122.343094 -37.155304 89.427071 -0.217657 0.074717 -0.973161 0.125000 0.598639 236 181 85 255
122.295776 -36.130913 89.516304 -0.217657 0.074717 -0.973161 0.125000 0.598639 236 181 85 255
122.408134 -39.602470 89.552429 -0.185661 -0.102808 -0.977221 0.125000 0.598639 236 181 85 255
125.167274 -39.149212 88.980537 -0.185661 -0.102808 -0.977221 0.125000 0.597964 236 181 85 255
122.438194 -40.728886 89.665222 -0.185661 -0.102808 -0.977221 0.125000 0.598639 236 181 85 255
123.489906 -41.712543 90.777466 0.711129 0.074776 -0.699074 0.125000 0.597964 236 181 85 255
123.889969 -37.014061 91.686996 0.711129 0.074776 -0.699074 0.125000 0.598639 236 181 85 255
124.334305 -37.225071 92.116425 0.711129 0.074776 -0.699074 0.125000 0.598639 236 181 85 255
124.610771 -37.490059 93.066315 -0.213003 -0.032372 -0.976515 0.125000 0.598639 236 181 85 255
124.769531 -42.529301 93.198738 -0.213003 -0.032372 -0.976515 0.125000 0.597964 236 181 85 255
123.965561 -37.338242 93.202019 -0.213003 -0.032372 -0.976515 0.125000 0.598639 236 181 85 255
138.070297 -34.724625 77.205360 -0.346686 0.068144 -0.935503 0.125260 0.598833 147 133 102 255
134.084579 -34.724625 78.682419 -0.346686 0.068144 -0.935503 0.125260 0.598833 147 133 102 255
134.438675 -30.542135 78.855858 -0.346686 0.068144 -0.935503 0.125477 0.598996 147 133 102 255
138.070297 -34.724625 77.205360 0.086064 0.995193 0.046739 0.125260 0.598833 147 133 102 255
137.885941 -34.565331 74.153076 0.086064 0.995193 0.046739 0.125000 0.598639 147 133 102 255
132.548965 -34.192322 76.038116 0.086064 0.995193 0.046739 0.125000 0.598639 147 133 102 255
137.702972 -38.429401 74.183029 -0.085568 0.993180 0.079196 0.125000 0.597964 80 72 55 255
137.500961 -38.221210 71.353882 -0.085568 0.993180 0.079196 0.125000 0.596821 80 72 55 255
130.947769 -38.973686 73.710052 -0.085568 0.993180 0.079196 0.125000 0.596821 80 72 55 255
137.277374 -34.160984 71.252945 0.035463 0.994620 0.097337 0.125000 0.595978 147 133 102 255
137.141068 -33.918728 68.827164 0.035463 0.994620 0.097337 0.125533 0.596085 147 133 102 255
129.491379 -33.918728 71.614166 0.035463 0.994620 0.097337 0.125533 0.596085 147 133 102 255
137.277374 -34.160984 71.252945 0.352049 0.014792 0.935865 0.125000 0.595978 147 133 102 255
130.702667 -33.787975 73.720291 0.352049 0.014792 0.935865 0.125000 0.595978 147 133 102 255
130.947769 -38.973686 73.710052 0.352049 0.014792 0.935865 0.125000 0.596821 147 133 102 255
136.748230 -30.475836 68.010254 0.348584 0.219173 0.911291 0.126526 0.596284 147 133 102 255
128.773483 -30.475836 71.060730 0.348584 0.219173 0.911291 0.126526 0.596284 147 133 102 255
129.491379 -33.918728 71.614166 0.348584 0.219173 0.911291 0.125533 0.596085 147 133 102 255
137.702972 -38.429401 74.183029 -0.345971 -0.010080 -0.938191 0.125000 0.597964 147 133 102 255
132.398941 -39.181877 76.147049 -0.345971 -0.010080 -0.938191 0.125000 0.597964 147 133 102 255
132.548965 -34.192322 76.038116 -0.345971 -0.010080 -0.938191 0.125000 0.598639 147 133 102 255
134.438675 -30.542135 78.855858 0.859060 -0.051611 -0.509267 0.125477 0.598996 147 133 102 255
134.084579 -34.724625 78.682419 0.859060 -0.051611 -0.509267 0.125260 0.598833 147 133 102 255
132.548965 -34.192322 76.038116 0.859060 -0.051611 -0.509267 0.125000 0.598639 147 133 102 255
130.702667 -33.787975 73.720291 0.859952 0.098824 -0.500716 0.125000 0.595978 147 133 102 255
129.491379 -33.918728 71.614166 0.859952 0.098824 -0.500716 0.125533 0.596085 147 133 102 255
128.773483 -30.475836 71.060730 0.859952 0.098824 -0.500716 0.126526 0.596284 147 133 102 255
134.438675 -30.542135 78.855858 0.786094 0.067341 -0.614427 0.125477 0.598996 147 133 102 255
132.548965 -34.192322 76.038116 0.786094 0.067341 -0.614427 0.125000 0.598639 147 133 102 255
130.702667 -33.787975 73.720291 0.786094 0.067341 -0.614427 0.125000 0.595978 147 133 102 255
130.947769 -38.973686 73.710052 0.046520 0.997220 0.058201 0.125000 0.596821 80 72 55 255
127.303856 -38.973686 76.622635 0.046520 0.997220 0.058201 0.125000 0.596821 80 72 55 255
129.457428 -39.181877 78.468460 0.046520 0.997220 0.058201 0.125000 0.597964 80 72 55 255
130.702667 -33.787975 73.720291 -0.082079 -0.990815 -0.107467 0.125000 0.595978 147 133 102 255
132.548965 -34.192322 76.038116 -0.082079 -0.990815 -0.107467 0.125000 0.598639 147 133 102 255
129.564789 -34.192322 78.317307 -0.082079 -0.990815 -0.107467 0.125000 0.598639 147 133 102 255
130.702667 -33.787975 73.720291 0.635983 0.014991 0.771557 0.125000 0.595978 147 133 102 255
127.074867 -33.787975 76.710632 0.635983 0.014991 0.771557 0.125000 0.595978 147 133 102 255
127.303856 -38.973686 76.622635 0.635983 0.014991 0.771557 0.125000 0.596821 147 133 102 255
132.398941 -39.181877 76.147049 -0.619473 -0.010450 -0.784948 0.125000 0.597964 147 133 102 255
129.457428 -39.181877 78.468460 -0.619473 -0.010450 -0.784948 0.125000 0.597964 147 133 102 255
129.564789 -34.192322 78.317307 -0.619473 -0.010450 -0.784948 0.125000 0.598639 147 133 102 255
127.074867 -33.787975 76.710632 0.791988 0.024864 0.610030 0.125000 0.595978 147 133 102 255
124.881378 -33.880543 79.562164 0.791988 0.024864 0.610030 0.125000 0.595978 147 133 102 255
125.110367 -39.015461 79.474167 0.791988 0.024864 0.610030 0.125000 0.596821 147 133 102 255
127.074867 -33.787975 76.710632 -0.021888 -0.977032 -0.211966 0.125000 0.595978 147 133 102 255
129.564789 -34.192322 78.317307 -0.021888 -0.977032 -0.211966 0.125000 0.598639 147 133 102 255
127.371307 -34.761822 81.168846 -0.021888 -0.977032 -0.211966 0.125000 0.598639 147 133 102 255
129.457428 -39.181877 78.468460 -0.792484 -0.001419 -0.609892 0.125000 0.597964 147 133 102 255
127.263931 -39.756222 81.319992 -0.792484 -0.001419 -0.609892 0.125000 0.597964 147 133 102 255
127.371307 -34.761822 81.168846 -0.792484 -0.001419 -0.609892 0.125000 0.598639 147 133 102 255
129.457428 -39.181877 78.468460 0.050556 0.997287 0.053499 0.125000 0.597964 80 72 55 255
127.303856 -38.973686 76.622635 0.050556 0.997287 0.053499 0.125000 0.596821 80 72 55 255
125.110367 -39.015461 79.474167 0.050556 0.997287 0.053499 0.125000 0.596821 80 72 55 255
127.371307 -34.761822 81.168846 -0.169704 -0.935231 -0.310715 0.125000 0.598639 147 133 102 255
125.787018 -35.654888 84.722206 -0.169704 -0.935231 -0.310715 0.125000 0.598639 147 133 102 255
122.937744 -34.867386 83.908073 -0.169704 -0.935231 -0.310715 0.125000 0.595978 147 133 102 255
127.263931 -39.756222 81.319992 -0.918646 -0.003085 -0.395069 0.125000 0.597964 147 133 102 255
125.728180 -40.649700 84.898026 -0.918646 -0.003085 -0.395069 0.125000 0.597964 147 133 102 255
125.787018 -35.654888 84.722206 -0.918646 -0.003085 -0.395069 0.125000 0.598639 147 133 102 255
127.263931 -39.756222 81.319992 0.102250 0.958690 0.265441 0.125000 0.597964 80 72 55 255
125.110367 -39.015461 79.474167 0.102250 0.958690 0.265441 0.125000 0.596821 80 72 55 255
123.131302 -39.990307 83.757355 0.102250 0.958690 0.265441 0.125000 0.596821 80 72 55 255
125.110367 -39.015461 79.474167 0.909500 0.033458 0.414356 0.125000 0.596821 147 133 102 255
124.881378 -33.880543 79.562164 0.909500 0.033458 0.414356 0.125000 0.595978 147 133 102 255
122.937744 -34.867386 83.908073 0.909500 0.033458 0.414356 0.125000 0.595978 147 133 102 255
125.728180 -40.649700 84.898026 0.139463 0.961170 0.238122 0.125000 0.597964 80 72 55 255
123.131302 -39.990307 83.757355 0.139463 0.961170 0.238122 0.125000 0.596821 80 72 55 255
122.374596 -40.987537 88.225815 0.139463 0.961170 0.238122 0.125000 0.596821 80 72 55 255
123.131302 -39.990307 83.757355 0.985947 0.032430 0.163881 0.125000 0.596821 147 133 102 255
122.937744 -34.867386 83.908073 0.985947 0.032430 0.163881 0.125000 0.595978 147 133 102 255
122.221237 -35.870621 88.417290 0.985947 0.032430 0.163881 0.125000 0.595978 147 133 102 255
125.787018 -35.654888 84.722206 -0.220612 -0.937920 -0.267651 0.125000 0.598639 147 133 102 255
125.181610 -36.604507 88.548927 -0.220612 -0.937920 -0.267651 0.125000 0.598639 147 133 102 255
122.221237 -35.870621 88.417290 -0.220612 -0.937920 -0.267651 0.125000 0.595978 147 133 102 255
125.728180 -40.649700 84.898026 -0.989318 -0.002124 -0.145756 0.125000 0.597964 147 133 102 255
125.165123 -41.598328 88.733597 -0.989318 -0.002124 -0.145756 0.125000 0.597964 147 133 102 255
125.181610 -36.604507 88.548927 -0.989318 -0.002124 -0.145756 0.125000 0.598639 147 133 102 255
122.221237 -35.870621 88.417290 -0.224621 -0.947157 -0.228996 0.125000 0.595978 147 133 102 255
125.181610 -36.604507 88.548927 -0.224621 -0.947157 -0.228996 0.125000 0.598639 147 133 102 255
125.338234 -37.528103 92.215408 -0.224621 -0.947157 -0.228996 0.125000 0.598639 147 133 102 255
125.165123 -41.598328 88.733597 -0.998287 -0.007208 0.058060 0.125000 0.597964 147 133 102 255
125.384727 -42.521648 92.394890 -0.998287 -0.007208 0.058060 0.125000 0.597964 147 133 102 255
125.338234 -37.528103 92.215408 -0.998287 -0.007208 0.058060 0.125000 0.598639 147 133 102 255
125.165123 -41.598328 88.733597 0.173958 0.963588 0.203069 0.125000 0.597964 80 72 55 255
122.374596 -40.987537 88.225815 0.173958 0.963588 0.203069 0.125000 0.596821 80 72 55 255
122.585739 -42.000973 92.853806 0.173958 0.963588 0.203069 0.125000 0.596821 80 72 55 255
122.374596 -40.987537 88.225815 0.998040 0.031926 -0.053827 0.125000 0.596821 147 133 102 255
122.221237 -35.870621 88.417290 0.998040 0.031926 -0.053827 0.125000 0.595978 147 133 102 255
122.505600 -36.889286 93.085663 0.998040 0.031926 -0.053827 0.125000 0.595978 147 133 102 255
125.384727 -42.521648 92.394890 -0.951997 -0.011629 0.305886 0.125000 0.597964 147 133 102 255
126.287102 -43.280067 95.174484 -0.951997 -0.011629 0.305886 0.125000 0.597964 147 133 102 255
126.177963 -38.288094 95.024605 -0.951997 -0.011629 0.305886 0.125000 0.598639 147 133 102 255
125.384727 -42.521648 92.394890 0.206760 0.963972 0.167357 0.125000 0.597964 80 72 55 255
122.585739 -42.000973 92.853806 0.206760 0.963972 0.167357 0.125000 0.596821 80 72 55 255
123.852028 -42.927979 96.628899 0.206760 0.963972 0.167357 0.125000 0.596821 80 72 55 255
122.585739 -42.000973 92.853806 0.943108 0.029806 -0.331149 0.125000 0.596821 147 133 102 255
122.505600 -36.889286 93.085663 0.943108 0.029806 -0.331149 0.125000 0.595978 147 133 102 255
123.862595 -37.737808 96.873993 0.943108 0.029806 -0.331149 0.125000 0.595978 147 133 102 255
122.505600 -36.889286 93.085663 -0.267760 -0.947233 -0.176222 0.125000 0.595978 147 133 102 255
125.338234 -37.528103 92.215408 -0.267760 -0.947233 -0.176222 0.125000 0.598639 147 133 102 255
126.177963 -38.288094 95.024605 -0.267760 -0.947233 -0.176222 0.125000 0.598639 147 133 102 255
130.532822 -33.963379 75.250549 0.823782 -0.013819 -0.566738 0.125000 0.598639 236 181 85 255
131.516602 -39.099220 76.805756 0.823782 -0.013819 -0.566738 0.125000 0.597964 236 181 85 255
131.137054 -39.114006 76.254425 0.823782 -0.013819 -0.566738 0.125000 0.597964 236 181 85 255
129.022644 -39.044136 76.583969 0.632201 0.093571 -0.769134 0.125000 0.597964 236 181 85 255
128.531158 -38.986130 76.187042 0.632201 0.093571 -0.769134 0.125000 0.597964 236 181 85 255
129.421646 -34.134609 77.509216 0.632201 0.093571 -0.769134 0.125000 0.598639 236 181 85 255
126.850822 -39.026417 78.306839 0.649581 0.089128 -0.755050 0.125000 0.597964 236 181 85 255
126.352844 -38.983658 77.883469 0.649581 0.089128 -0.755050 0.125000 0.597964 236 181 85 255
127.211594 -34.324841 79.172203 0.649581 0.089128 -0.755050 0.125000 0.598639 236 181 85 255
127.592079 -37.505829 80.877281 0.668673 0.064912 -0.740718 0.125000 0.597964 236 181 85 255
127.625275 -38.380852 80.830566 0.668673 0.064912 -0.740718 0.125000 0.597964 236 181 85 255
125.360352 -35.575893 79.031746 0.668673 0.064912 -0.740718 0.125000 0.598639 236 181 85 255
123.905548 -38.810417 82.040764 -0.200867 -0.121209 -0.972091 0.125000 0.598639 236 181 85 255
127.337494 -37.892757 81.217186 -0.200867 -0.121209 -0.972091 0.125000 0.597964 236 181 85 255
127.245407 -38.863735 81.357285 -0.200867 -0.121209 -0.972091 0.125000 0.597964 236 181 85 255
125.614174 -39.064598 85.580093 -0.209037 0.058335 -0.976166 0.125000 0.597964 236 181 85 255
125.624252 -40.152859 85.512901 -0.209037 0.058335 -0.976166 0.125000 0.597964 236 181 85 255
122.661530 -38.570568 86.241898 -0.209037 0.058335 -0.976166 0.125000 0.598639 236 181 85 255
122.573425 -37.286716 86.702049 -0.166440 -0.171096 -0.971094 0.125000 0.598639 236 181 85 255
125.574425 -35.963501 85.954559 -0.166440 -0.171096 -0.971094 0.125000 0.597964 236 181 85 255
125.565308 -36.595074 86.067398 -0.166440 -0.171096 -0.971094 0.125000 0.597964 236 181 85 255
125.174812 -37.236347 88.787506 -0.219917 0.013625 -0.975423 0.125000 0.597964 236 181 85 255
125.171791 -38.221840 88.774422 -0.219917 0.013625 -0.975423 0.125000 0.597964 236 181 85 255
122.343094 -37.155304 89.427071 -0.219917 0.013625 -0.975423 0.125000 0.598639 236 181 85 255
122.408134 -39.602470 89.552429 -0.175262 -0.159016 -0.971595 0.125000 0.598639 236 181 85 255
125.103188 -38.170498 88.831917 -0.175262 -0.159016 -0.971595 0.125000 0.597964 236 181 85 255
125.167274 -39.149212 88.980537 -0.175262 -0.159016 -0.971595 0.125000 0.597964 236 181 85 255
123.489906 -41.712543 90.777466 0.636329 0.094036 -0.765665 0.125000 0.597964 236 181 85 255
122.975266 -41.543480 90.370522 0.636329 0.094036 -0.765665 0.125000 0.597964 236 181 85 255
123.889969 -37.014061 91.686996 0.636329 0.094036 -0.765665 0.125000 0.598639 236 181 85 255
124.610771 -37.490059 93.066315 -0.301399 -0.034536 -0.952872 0.125000 0.598639 236 181 85 255
125.420151 -42.644436 92.997116 -0.301399 -0.034536 -0.952872 0.125000 0.597964 236 181 85 255
124.769531 -42.529301 93.198738 -0.301399 -0.034536 -0.952872 0.125000 0.597964 236 181 85 255
3 0 1 2
3 3 4 5
3 6 7 8
3 9 10 11
3 12 13 14
3 15 16 17
3 18 19 20
3 21 22 23
3 24 25 26
3 27 28 29
3 30 31 32
3 33 34 35
3 36 37 38
3 39 40 41
3 42 43 44
3 45 46 47
3 48 49 50
3 51 52 53
3 54 55 56
3 57 58 59
3 60 61 62
3 63 64 65
3 66 67 68
3 69 70 71
3 72 73 74
3 75 76 77
3 78 79 80
3 81 82 83
3 84 85 86
3 87 88 89
3 90 91 92
3 93 94 95
3 96 97 98
3 99 100 101
3 102 103 104
3 105 106 107
3 108 109 110
3 111 112 113
3 114 115 116
3 117 118 119
3 120 121 122
3 123 124 125
3 126 127 128
3 129 130 131
3 132 133 134
3 135 136 137
3 138 139 140
3 141 142 143
3 144 145 146
3 147 148 149
3 150 151 152
3 153 154 155
3 156 157 158
3 159 160 161
3 162 163 164
3 165 166 167
3 168 169 170
3 171 172 173
3 174 175 176
3 177 178 179
3 180 181 182
3 183 184 185
3 186 187 188
3 189 190 191
3 192 193 194
3 195 196 197
3 198 199 200
3 201 202 203
3 204 205 206
3 207 208 209
3 210 211 212
3 213 214 215
3 216 217 218
3 219 220 221
3 222 223 224
3 225 226 227
3 228 229 230
3 231 232 233
3 234 235 236
3 237 238 239
3 240 241 242
3 243 244 245
3 246 247 248
3 249 250 251
3 252 253 254
3 255 256 257
3 258 259 260
3 261 262 263
