ply
format ascii 1.0
comment Created by Blender 2.93.1 - www.blender.org
element vertex 256
property float x
property float y
property float z
property float nx
property float ny
property float nz
property float s
property float t
property uchar red
property uchar green
property uchar blue
property uchar alpha
element face 86
property list uchar uint vertex_indices
end_header
141.341095 -36.602901 17.987568 -0.797273 -0.349501 0.492143 0.126526 0.596284 147 133 102 255
142.304260 -30.542135 23.852028 -0.797273 -0.349501 0.492143 0.125477 0.598996 147 133 102 255
137.221588 -30.475836 15.665165 -0.797273 -0.349501 0.492143 0.126526 0.596284 147 133 102 255
142.081085 -38.366058 19.139225 0.035076 0.997314 0.064306 0.125000 0.598639 80 72 55 255
139.395966 -38.253784 18.862583 0.035076 0.997314 0.064306 0.125000 0.595978 80 72 55 255
140.080795 -38.366058 20.230295 0.035076 0.997314 0.064306 0.125000 0.598639 80 72 55 255
141.341095 -36.602901 17.987568 0.476529 -0.098412 0.873633 0.126526 0.596284 147 133 102 255
139.395966 -38.253784 18.862583 0.476529 -0.098412 0.873633 0.125000 0.595978 147 133 102 255
141.396255 -38.253784 17.771513 0.476529 -0.098412 0.873633 0.125000 0.595978 147 133 102 255
142.185379 -36.613914 19.347494 -0.642459 0.464661 -0.609374 0.125477 0.598996 147 133 102 255
140.080795 -38.366058 20.230295 -0.642459 0.464661 -0.609374 0.125000 0.598639 147 133 102 255
142.304260 -30.542135 23.852028 -0.642459 0.464661 -0.609374 0.125477 0.598996 147 133 102 255
137.221588 -30.475836 15.665165 0.202355 0.420208 0.884578 0.126526 0.596284 147 133 102 255
133.149139 -38.067524 20.203117 0.202355 0.420208 0.884578 0.125000 0.595978 147 133 102 255
139.395966 -38.253784 18.862583 0.202355 0.420208 0.884578 0.125000 0.595978 147 133 102 255
142.304260 -30.542135 23.852028 -0.567914 0.205668 -0.796978 0.125477 0.598996 147 133 102 255
137.156952 -38.552319 25.452808 -0.567914 0.205668 -0.796978 0.125000 0.598639 147 133 102 255
138.477768 -30.542135 26.578724 -0.567914 0.205668 -0.796978 0.125477 0.598996 147 133 102 255
140.080795 -38.366058 20.230295 0.042719 0.997315 0.059486 0.125000 0.598639 80 72 55 255
133.149139 -38.067524 20.203117 0.042719 0.997315 0.059486 0.125000 0.595978 80 72 55 255
137.156952 -38.552319 25.452808 0.042719 0.997315 0.059486 0.125000 0.598639 80 72 55 255
131.955826 -30.475836 19.484890 0.729135 0.177150 0.661044 0.126526 0.596284 147 133 102 255
127.966988 -38.067524 25.919056 0.729135 0.177150 0.661044 0.125000 0.595978 147 133 102 255
133.149139 -38.067524 20.203117 0.729135 0.177150 0.661044 0.125000 0.595978 147 133 102 255
135.706940 -38.552319 27.091345 -0.733428 0.202048 -0.649045 0.125000 0.598639 147 133 102 255
133.316711 -38.552319 29.792332 -0.733428 0.202048 -0.649045 0.125000 0.598639 147 133 102 255
134.905792 -30.542135 30.490227 -0.733428 0.202048 -0.649045 0.125477 0.598996 147 133 102 255
127.966988 -38.067524 25.919056 0.054975 0.997290 0.048894 0.125000 0.595978 80 72 55 255
130.639786 -38.309734 27.854198 0.054975 0.997290 0.048894 0.125000 0.597307 80 72 55 255
133.092407 -38.311069 25.123741 0.054975 0.997290 0.048894 0.125000 0.597308 80 72 55 255
126.617401 -30.475836 25.574867 0.897799 0.178088 0.402791 0.126526 0.596284 147 133 102 255
122.309944 -30.475836 35.175945 0.897799 0.178088 0.402791 0.126526 0.596284 147 133 102 255
123.376190 -35.639874 35.082539 0.897799 0.178088 0.402791 0.125353 0.596049 147 133 102 255
133.316711 -38.552319 29.792332 -0.881710 0.211653 -0.421652 0.125000 0.598639 147 133 102 255
131.757599 -30.542135 37.073357 -0.881710 0.211653 -0.421652 0.125477 0.598996 147 133 102 255
134.905792 -30.542135 30.490227 -0.881710 0.211653 -0.421652 0.125477 0.598996 147 133 102 255
125.399452 -38.197884 35.561516 0.067100 0.997260 0.031150 0.125000 0.596693 80 72 55 255
130.027115 -38.552319 36.940315 0.067100 0.997260 0.031150 0.125000 0.598639 80 72 55 255
130.639786 -38.309734 27.854198 0.067100 0.997260 0.031150 0.125000 0.597307 80 72 55 255
123.376190 -35.639874 35.082539 0.008244 0.999966 0.000118 0.125353 0.596049 147 133 102 255
125.555939 -35.658916 44.155861 0.008244 0.999966 0.000118 0.125000 0.595978 147 133 102 255
125.686302 -35.658916 35.054398 0.008244 0.999966 0.000118 0.125000 0.595978 147 133 102 255
131.757599 -30.542135 37.073357 -0.990034 0.140780 0.003701 0.125477 0.598996 147 133 102 255
131.470734 -32.661175 40.941109 -0.990034 0.140780 0.003701 0.125261 0.598834 147 133 102 255
131.779343 -30.542135 42.890587 -0.990034 0.140780 0.003701 0.125477 0.598996 147 133 102 255
125.648430 -38.221210 43.928650 0.073700 0.997280 0.000587 0.125000 0.596821 80 72 55 255
128.468033 -38.429401 43.620857 0.073700 0.997280 0.000587 0.125000 0.597964 80 72 55 255
128.301910 -38.415466 40.802856 0.073700 0.997280 0.000587 0.125000 0.597903 80 72 55 255
128.389297 -32.523582 40.857224 0.031016 0.087586 -0.995674 0.125000 0.598639 147 133 102 255
131.470734 -32.661175 40.941109 0.031016 0.087586 -0.995674 0.125261 0.598834 147 133 102 255
130.083008 -38.552319 40.379658 0.031016 0.087586 -0.995674 0.125000 0.598639 147 133 102 255
128.301910 -38.415466 40.802856 -0.999760 0.014678 0.016248 0.125000 0.597903 147 133 102 255
128.431259 -32.523582 43.439133 -0.999760 0.014678 0.016248 0.125000 0.598639 147 133 102 255
128.389297 -32.523582 40.857224 -0.999760 0.014678 0.016248 0.125000 0.598639 147 133 102 255
130.083008 -38.552319 40.379658 -0.230250 0.012394 -0.973052 0.125000 0.598639 147 133 102 255
128.301910 -38.415466 40.802856 -0.230250 0.012394 -0.973052 0.125000 0.597903 147 133 102 255
128.389297 -32.523582 40.857224 -0.230250 0.012394 -0.973052 0.125000 0.598639 147 133 102 255
135.706940 -38.552319 27.091345 0.587730 0.619726 0.520109 0.125000 0.598639 153 153 153 255
133.205032 -36.495525 27.467798 0.587730 0.619726 0.520109 0.125000 0.597976 153 153 153 255
133.316711 -38.552319 29.792332 0.587730 0.619726 0.520109 0.125000 0.598639 153 153 153 255
133.316711 -38.552319 29.792332 -0.388003 0.680918 0.621131 0.125000 0.598639 153 153 153 255
133.205032 -36.495525 27.467798 -0.388003 0.680918 0.621131 0.125000 0.597976 153 153 153 255
130.639786 -38.309734 27.854198 -0.388003 0.680918 0.621131 0.125000 0.597307 153 153 153 255
130.639786 -38.309734 27.854198 -0.550273 0.672727 -0.494609 0.125000 0.597307 153 153 153 255
133.205032 -36.495525 27.467798 -0.550273 0.672727 -0.494609 0.125000 0.597976 153 153 153 255
133.092407 -38.311069 25.123741 -0.550273 0.672727 -0.494609 0.125000 0.597308 153 153 153 255
133.205032 -36.495525 27.467798 0.478412 0.682973 -0.551970 0.125000 0.597976 153 153 153 255
135.706940 -38.552319 27.091345 0.478412 0.682973 -0.551970 0.125000 0.598639 153 153 153 255
133.092407 -38.311069 25.123741 0.478412 0.682973 -0.551970 0.125000 0.597308 153 153 153 255
125.399452 -38.197884 35.561516 0.998813 0.038680 -0.029613 0.125000 0.596693 147 133 102 255
125.555939 -35.658916 44.155861 0.998813 0.038680 -0.029613 0.125000 0.595978 147 133 102 255
125.648430 -38.221210 43.928650 0.998813 0.038680 -0.029613 0.125000 0.596821 147 133 102 255
123.136963 -35.416660 44.382885 0.987054 0.160368 -0.002602 0.125533 0.596085 147 133 102 255
122.309944 -30.475836 35.175945 0.987054 0.160368 -0.002602 0.126526 0.596284 147 133 102 255
122.335335 -30.475836 44.806030 0.987054 0.160368 -0.002602 0.126526 0.596284 147 133 102 255
125.399452 -38.197884 35.561516 0.398991 -0.222739 -0.889491 0.125000 0.596693 147 133 102 255
123.809074 -38.067524 34.815491 0.398991 -0.222739 -0.889491 0.125000 0.595978 147 133 102 255
125.686302 -35.658916 35.054398 0.398991 -0.222739 -0.889491 0.125000 0.595978 147 133 102 255
123.809074 -38.067524 34.815491 -0.011226 0.107358 -0.994157 0.125000 0.595978 147 133 102 255
123.376190 -35.639874 35.082539 -0.011226 0.107358 -0.994157 0.125353 0.596049 147 133 102 255
125.686302 -35.658916 35.054398 -0.011226 0.107358 -0.994157 0.125000 0.595978 147 133 102 255
131.474487 -32.682880 43.140644 0.052190 0.998637 -0.000848 0.125260 0.598833 147 133 102 255
128.389297 -32.523582 40.857224 0.052190 0.998637 -0.000848 0.125000 0.598639 147 133 102 255
128.431259 -32.523582 43.439133 0.052190 0.998637 -0.000848 0.125000 0.598639 147 133 102 255
131.474487 -32.682880 43.140644 0.048003 0.998645 -0.020084 0.125260 0.598833 147 133 102 255
130.720657 -32.523582 49.259792 0.048003 0.998645 -0.020084 0.125000 0.598639 147 133 102 255
133.564453 -32.682880 48.135872 0.048003 0.998645 -0.020084 0.125260 0.598833 147 133 102 255
128.468033 -38.429401 43.620857 0.067902 0.997317 -0.027354 0.125000 0.597964 80 72 55 255
128.179764 -38.221210 50.495758 0.067902 0.997317 -0.027354 0.125000 0.596821 80 72 55 255
130.806000 -38.429401 49.424397 0.067902 0.997317 -0.027354 0.125000 0.597964 80 72 55 255
125.555939 -35.658916 44.155861 0.931083 0.065434 -0.358892 0.125000 0.595978 147 133 102 255
128.179764 -38.221210 50.495758 0.931083 0.065434 -0.358892 0.125000 0.596821 147 133 102 255
125.648430 -38.221210 43.928650 0.931083 0.065434 -0.358892 0.125000 0.596821 147 133 102 255
122.335335 -30.475836 44.806030 0.919586 0.179146 -0.349670 0.126526 0.596284 147 133 102 255
125.890060 -35.416660 51.623173 0.919586 0.179146 -0.349670 0.125533 0.596085 147 133 102 255
123.136963 -35.416660 44.382885 0.919586 0.179146 -0.349670 0.125533 0.596085 147 133 102 255
131.474487 -32.682880 43.140644 -0.911778 0.173332 0.372314 0.125260 0.598833 147 133 102 255
133.788788 -30.542135 47.811619 -0.911778 0.173332 0.372314 0.125477 0.598996 147 133 102 255
131.779343 -30.542135 42.890587 -0.911778 0.173332 0.372314 0.125477 0.598996 147 133 102 255
128.468033 -38.429401 43.620857 -0.930590 0.005468 0.366022 0.125000 0.597964 147 133 102 255
130.720657 -32.523582 49.259792 -0.930590 0.005468 0.366022 0.125000 0.598639 147 133 102 255
128.431259 -32.523582 43.439133 -0.930590 0.005468 0.366022 0.125000 0.598639 147 133 102 255
125.555939 -35.658916 44.155861 0.092296 0.995066 -0.036412 0.125000 0.595978 147 133 102 255
125.890060 -35.416660 51.623173 0.092296 0.995066 -0.036412 0.125533 0.596085 147 133 102 255
128.153320 -35.658916 50.739643 0.092296 0.995066 -0.036412 0.125000 0.595978 147 133 102 255
133.564453 -32.682880 48.135872 0.027575 0.998611 -0.044886 0.125260 0.598833 147 133 102 255
135.254074 -32.523582 52.717915 0.027575 0.998611 -0.044886 0.125000 0.598639 147 133 102 255
136.424728 -32.682880 49.893036 0.027575 0.998611 -0.044886 0.125260 0.598833 147 133 102 255
130.806000 -38.429401 49.424397 0.044217 0.997151 -0.061115 0.125000 0.597964 80 72 55 255
134.374603 -38.221210 55.403114 0.044217 0.997151 -0.061115 0.125000 0.596821 80 72 55 255
135.431686 -38.429401 52.771103 0.044217 0.997151 -0.061115 0.125000 0.597964 80 72 55 255
128.153320 -35.658916 50.739643 0.062032 0.994738 -0.081541 0.125000 0.595978 147 133 102 255
133.591873 -35.416660 57.832340 0.062032 0.994738 -0.081541 0.125533 0.596085 147 133 102 255
134.531433 -35.658916 55.591751 0.062032 0.994738 -0.081541 0.125000 0.595978 147 133 102 255
128.153320 -35.658916 50.739643 0.618917 0.080753 -0.781294 0.125000 0.595978 147 133 102 255
134.374603 -38.221210 55.403114 0.618917 0.080753 -0.781294 0.125000 0.596821 147 133 102 255
128.179764 -38.221210 50.495758 0.618917 0.080753 -0.781294 0.125000 0.596821 147 133 102 255
125.235718 -30.475836 52.250465 0.617492 0.179022 -0.765934 0.126526 0.596284 147 133 102 255
133.591873 -35.416660 57.832340 0.617492 0.179022 -0.765934 0.125533 0.596085 147 133 102 255
125.890060 -35.416660 51.623173 0.617492 0.179022 -0.765934 0.125533 0.596085 147 133 102 255
130.806000 -38.429401 49.424397 -0.606443 0.013395 0.795014 0.125000 0.597964 147 133 102 255
135.254074 -32.523582 52.717915 -0.606443 0.013395 0.795014 0.125000 0.598639 147 133 102 255
130.720657 -32.523582 49.259792 -0.606443 0.013395 0.795014 0.125000 0.598639 147 133 102 255
133.564453 -32.682880 48.135872 -0.543016 0.181102 0.819961 0.125260 0.598833 147 133 102 255
136.347809 -30.542135 49.506321 -0.543016 0.181102 0.819961 0.125477 0.598996 147 133 102 255
133.788788 -30.542135 47.811619 -0.543016 0.181102 0.819961 0.125477 0.598996 147 133 102 255
141.341095 -36.602901 17.987568 -0.797274 -0.349500 0.492142 0.126526 0.596284 147 133 102 255
142.185379 -36.613914 19.347494 -0.797274 -0.349500 0.492142 0.125477 0.598996 147 133 102 255
142.304260 -30.542135 23.852028 -0.797274 -0.349500 0.492142 0.125477 0.598996 147 133 102 255
141.396255 -38.253784 17.771513 0.035076 0.997314 0.064306 0.125000 0.595978 80 72 55 255
141.341095 -36.602901 17.987568 0.074639 0.396932 0.914808 0.126526 0.596284 147 133 102 255
137.221588 -30.475836 15.665165 0.074639 0.396932 0.914808 0.126526 0.596284 147 133 102 255
139.395966 -38.253784 18.862583 0.074639 0.396932 0.914808 0.125000 0.595978 147 133 102 255
142.185379 -36.613914 19.347494 -0.474682 0.131697 -0.870249 0.125477 0.598996 147 133 102 255
142.081085 -38.366058 19.139225 -0.474682 0.131697 -0.870249 0.125000 0.598639 147 133 102 255
140.080795 -38.366058 20.230295 -0.474682 0.131697 -0.870249 0.125000 0.598639 147 133 102 255
137.221588 -30.475836 15.665165 0.578976 0.166519 0.798159 0.126526 0.596284 147 133 102 255
131.955826 -30.475836 19.484890 0.578976 0.166519 0.798159 0.126526 0.596284 147 133 102 255
133.149139 -38.067524 20.203117 0.578976 0.166519 0.798159 0.125000 0.595978 147 133 102 255
142.304260 -30.542135 23.852028 -0.796019 0.425490 -0.430479 0.125477 0.598996 147 133 102 255
140.080795 -38.366058 20.230295 -0.796019 0.425490 -0.430479 0.125000 0.598639 147 133 102 255
137.156952 -38.552319 25.452808 -0.796019 0.425490 -0.430479 0.125000 0.598639 147 133 102 255
140.080795 -38.366058 20.230295 0.042713 0.997255 0.060477 0.125000 0.598639 80 72 55 255
139.395966 -38.253784 18.862583 0.042713 0.997255 0.060477 0.125000 0.595978 80 72 55 255
133.149139 -38.067524 20.203117 0.042713 0.997255 0.060477 0.125000 0.595978 80 72 55 255
131.955826 -30.475836 19.484890 0.742121 0.161422 0.650537 0.126526 0.596284 147 133 102 255
126.617401 -30.475836 25.574867 0.742121 0.161422 0.650537 0.126526 0.596284 147 133 102 255
127.966988 -38.067524 25.919056 0.742121 0.161422 0.650537 0.125000 0.595978 147 133 102 255
134.905792 -30.542135 30.490227 -0.722333 0.207651 -0.659633 0.125477 0.598996 147 133 102 255
138.477768 -30.542135 26.578724 -0.722333 0.207651 -0.659633 0.125477 0.598996 147 133 102 255
135.706940 -38.552319 27.091345 -0.722333 0.207651 -0.659633 0.125000 0.598639 147 133 102 255
138.477768 -30.542135 26.578724 -0.731897 0.211723 -0.647688 0.125477 0.598996 147 133 102 255
137.156952 -38.552319 25.452808 -0.731897 0.211723 -0.647688 0.125000 0.598639 147 133 102 255
135.706940 -38.552319 27.091345 -0.731897 0.211723 -0.647688 0.125000 0.598639 147 133 102 255
135.706940 -38.552319 27.091345 0.055235 0.997276 0.048880 0.125000 0.598639 80 72 55 255
137.156952 -38.552319 25.452808 0.055235 0.997276 0.048880 0.125000 0.598639 80 72 55 255
133.092407 -38.311069 25.123741 0.055235 0.997276 0.048880 0.125000 0.597308 80 72 55 255
137.156952 -38.552319 25.452808 0.055142 0.997226 0.049993 0.125000 0.598639 80 72 55 255
133.149139 -38.067524 20.203117 0.055142 0.997226 0.049993 0.125000 0.595978 80 72 55 255
133.092407 -38.311069 25.123741 0.055142 0.997226 0.049993 0.125000 0.597308 80 72 55 255
133.149139 -38.067524 20.203117 0.055143 0.997226 0.049993 0.125000 0.595978 80 72 55 255
127.966988 -38.067524 25.919056 0.055143 0.997226 0.049993 0.125000 0.595978 80 72 55 255
133.092407 -38.311069 25.123741 0.055143 0.997226 0.049993 0.125000 0.597308 80 72 55 255
123.809074 -38.067524 34.815491 0.900011 0.114213 0.420637 0.125000 0.595978 147 133 102 255
127.966988 -38.067524 25.919056 0.900011 0.114213 0.420637 0.125000 0.595978 147 133 102 255
123.376190 -35.639874 35.082539 0.900011 0.114213 0.420637 0.125353 0.596049 147 133 102 255
127.966988 -38.067524 25.919056 0.897881 0.177875 0.402704 0.125000 0.595978 147 133 102 255
126.617401 -30.475836 25.574867 0.897881 0.177875 0.402704 0.126526 0.596284 147 133 102 255
123.376190 -35.639874 35.082539 0.897881 0.177875 0.402704 0.125353 0.596049 147 133 102 255
133.316711 -38.552319 29.792332 -0.890225 0.199125 -0.409693 0.125000 0.598639 147 133 102 255
130.027115 -38.552319 36.940315 -0.890225 0.199125 -0.409693 0.125000 0.598639 147 133 102 255
131.757599 -30.542135 37.073357 -0.890225 0.199125 -0.409693 0.125477 0.598996 147 133 102 255
130.027115 -38.552319 36.940315 0.067783 0.997212 0.031194 0.125000 0.598639 80 72 55 255
133.316711 -38.552319 29.792332 0.067783 0.997212 0.031194 0.125000 0.598639 80 72 55 255
130.639786 -38.309734 27.854198 0.067783 0.997212 0.031194 0.125000 0.597307 80 72 55 255
130.639786 -38.309734 27.854198 0.067521 0.997219 0.031557 0.125000 0.597307 80 72 55 255
127.966988 -38.067524 25.919056 0.067521 0.997219 0.031557 0.125000 0.595978 80 72 55 255
123.809074 -38.067524 34.815491 0.067521 0.997219 0.031557 0.125000 0.595978 80 72 55 255
123.809074 -38.067524 34.815491 0.067123 0.997258 0.031166 0.125000 0.595978 80 72 55 255
125.399452 -38.197884 35.561516 0.067123 0.997258 0.031166 0.125000 0.596693 80 72 55 255
130.639786 -38.309734 27.854198 0.067123 0.997258 0.031166 0.125000 0.597307 80 72 55 255
123.376190 -35.639874 35.082539 0.097641 0.994992 -0.021369 0.125353 0.596049 147 133 102 255
123.136963 -35.416660 44.382885 0.097641 0.994992 -0.021369 0.125533 0.596085 147 133 102 255
125.555939 -35.658916 44.155861 0.097641 0.994992 -0.021369 0.125000 0.595978 147 133 102 255
131.757599 -30.542135 37.073357 -0.976703 0.210292 0.042773 0.125477 0.598996 147 133 102 255
130.027115 -38.552319 36.940315 -0.976703 0.210292 0.042773 0.125000 0.598639 147 133 102 255
131.470734 -32.661175 40.941109 -0.976703 0.210292 0.042773 0.125261 0.598834 147 133 102 255
130.027115 -38.552319 36.940315 -0.973573 0.227828 0.015822 0.125000 0.598639 147 133 102 255
130.083008 -38.552319 40.379658 -0.973573 0.227828 0.015822 0.125000 0.598639 147 133 102 255
131.470734 -32.661175 40.941109 -0.973573 0.227828 0.015822 0.125261 0.598834 147 133 102 255
131.470734 -32.661175 40.941109 -0.989957 0.141336 0.003084 0.125261 0.598834 147 133 102 255
131.474487 -32.682880 43.140644 -0.989957 0.141336 0.003084 0.125260 0.598833 147 133 102 255
131.779343 -30.542135 42.890587 -0.989957 0.141336 0.003084 0.125477 0.598996 147 133 102 255
130.083008 -38.552319 40.379658 0.076317 0.997083 -0.001240 0.125000 0.598639 80 72 55 255
130.027115 -38.552319 36.940315 0.076317 0.997083 -0.001240 0.125000 0.598639 80 72 55 255
128.301910 -38.415466 40.802856 0.076317 0.997083 -0.001240 0.125000 0.597903 80 72 55 255
130.027115 -38.552319 36.940315 0.076685 0.997055 -0.001075 0.125000 0.598639 80 72 55 255
125.399452 -38.197884 35.561516 0.076685 0.997055 -0.001075 0.125000 0.596693 80 72 55 255
128.301910 -38.415466 40.802856 0.076685 0.997055 -0.001075 0.125000 0.597903 80 72 55 255
125.399452 -38.197884 35.561516 0.073701 0.997280 0.000587 0.125000 0.596693 80 72 55 255
125.648430 -38.221210 43.928650 0.073701 0.997280 0.000587 0.125000 0.596821 80 72 55 255
128.301910 -38.415466 40.802856 0.073701 0.997280 0.000587 0.125000 0.597903 80 72 55 255
128.301910 -38.415466 40.802856 -0.998259 -0.004406 0.058826 0.125000 0.597903 147 133 102 255
128.468033 -38.429401 43.620857 -0.998259 -0.004406 0.058826 0.125000 0.597964 147 133 102 255
128.431259 -32.523582 43.439133 -0.998259 -0.004406 0.058826 0.125000 0.598639 147 133 102 255
125.399452 -38.197884 35.561516 0.993891 -0.109445 0.014236 0.125000 0.596693 147 133 102 255
125.686302 -35.658916 35.054398 0.993891 -0.109445 0.014236 0.125000 0.595978 147 133 102 255
125.555939 -35.658916 44.155861 0.993891 -0.109445 0.014236 0.125000 0.595978 147 133 102 255
123.136963 -35.416660 44.382885 0.979212 0.201815 0.020344 0.125533 0.596085 147 133 102 255
123.376190 -35.639874 35.082539 0.979212 0.201815 0.020344 0.125353 0.596049 147 133 102 255
122.309944 -30.475836 35.175945 0.979212 0.201815 0.020344 0.126526 0.596284 147 133 102 255
131.474487 -32.682880 43.140644 0.044340 0.998969 0.009782 0.125260 0.598833 147 133 102 255
131.470734 -32.661175 40.941109 0.044340 0.998969 0.009782 0.125261 0.598834 147 133 102 255
128.389297 -32.523582 40.857224 0.044340 0.998969 0.009782 0.125000 0.598639 147 133 102 255
131.474487 -32.682880 43.140644 0.050327 0.998537 -0.019795 0.125260 0.598833 147 133 102 255
128.431259 -32.523582 43.439133 0.050327 0.998537 -0.019795 0.125000 0.598639 147 133 102 255
130.720657 -32.523582 49.259792 0.050327 0.998537 -0.019795 0.125000 0.598639 147 133 102 255
128.468033 -38.429401 43.620857 0.070652 0.997129 -0.027233 0.125000 0.597964 80 72 55 255
125.648430 -38.221210 43.928650 0.070652 0.997129 -0.027233 0.125000 0.596821 80 72 55 255
128.179764 -38.221210 50.495758 0.070652 0.997129 -0.027233 0.125000 0.596821 80 72 55 255
125.555939 -35.658916 44.155861 0.929306 0.044487 -0.366622 0.125000 0.595978 147 133 102 255
128.153320 -35.658916 50.739643 0.929306 0.044487 -0.366622 0.125000 0.595978 147 133 102 255
128.179764 -38.221210 50.495758 0.929306 0.044487 -0.366622 0.125000 0.596821 147 133 102 255
122.335335 -30.475836 44.806030 0.918677 0.167108 -0.357920 0.126526 0.596284 147 133 102 255
125.235718 -30.475836 52.250465 0.918677 0.167108 -0.357920 0.126526 0.596284 147 133 102 255
125.890060 -35.416660 51.623173 0.918677 0.167108 -0.357920 0.125533 0.596085 147 133 102 255
131.474487 -32.682880 43.140644 -0.911606 0.153301 0.381409 0.125260 0.598833 147 133 102 255
133.564453 -32.682880 48.135872 -0.911606 0.153301 0.381409 0.125260 0.598833 147 133 102 255
133.788788 -30.542135 47.811619 -0.911606 0.153301 0.381409 0.125477 0.598996 147 133 102 255
128.468033 -38.429401 43.620857 -0.927557 -0.002989 0.373668 0.125000 0.597964 147 133 102 255
130.806000 -38.429401 49.424397 -0.927557 -0.002989 0.373668 0.125000 0.597964 147 133 102 255
130.720657 -32.523582 49.259792 -0.927557 -0.002989 0.373668 0.125000 0.598639 147 133 102 255
125.555939 -35.658916 44.155861 0.096184 0.994691 -0.036574 0.125000 0.595978 147 133 102 255
123.136963 -35.416660 44.382885 0.096184 0.994691 -0.036574 0.125533 0.596085 147 133 102 255
125.890060 -35.416660 51.623173 0.096184 0.994691 -0.036574 0.125533 0.596085 147 133 102 255
133.564453 -32.682880 48.135872 0.036830 0.998154 -0.048283 0.125260 0.598833 147 133 102 255
130.720657 -32.523582 49.259792 0.036830 0.998154 -0.048283 0.125000 0.598639 147 133 102 255
135.254074 -32.523582 52.717915 0.036830 0.998154 -0.048283 0.125000 0.598639 147 133 102 255
130.806000 -38.429401 49.424397 0.052142 0.996468 -0.065822 0.125000 0.597964 80 72 55 255
128.179764 -38.221210 50.495758 0.052142 0.996468 -0.065822 0.125000 0.596821 80 72 55 255
134.374603 -38.221210 55.403114 0.052142 0.996468 -0.065822 0.125000 0.596821 80 72 55 255
128.153320 -35.658916 50.739643 0.071646 0.993463 -0.088869 0.125000 0.595978 147 133 102 255
125.890060 -35.416660 51.623173 0.071646 0.993463 -0.088869 0.125533 0.596085 147 133 102 255
133.591873 -35.416660 57.832340 0.071646 0.993463 -0.088869 0.125533 0.596085 147 133 102 255
128.153320 -35.658916 50.739643 0.605318 0.021530 -0.795693 0.125000 0.595978 147 133 102 255
134.531433 -35.658916 55.591751 0.605318 0.021530 -0.795693 0.125000 0.595978 147 133 102 255
134.374603 -38.221210 55.403114 0.605318 0.021530 -0.795693 0.125000 0.596821 147 133 102 255
125.235718 -30.475836 52.250465 0.607116 0.143920 -0.781471 0.126526 0.596284 147 133 102 255
133.587387 -30.475836 58.738785 0.607116 0.143920 -0.781471 0.126526 0.596284 147 133 102 255
133.591873 -35.416660 57.832340 0.607116 0.143920 -0.781471 0.125533 0.596085 147 133 102 255
130.806000 -38.429401 49.424397 -0.586142 -0.010331 0.810143 0.125000 0.597964 147 133 102 255
135.431686 -38.429401 52.771103 -0.586142 -0.010331 0.810143 0.125000 0.597964 147 133 102 255
135.254074 -32.523582 52.717915 -0.586142 -0.010331 0.810143 0.125000 0.598639 147 133 102 255
133.564453 -32.682880 48.135872 -0.518735 0.133895 0.844385 0.125260 0.598833 147 133 102 255
136.424728 -32.682880 49.893036 -0.518735 0.133895 0.844385 0.125260 0.598833 147 133 102 255
136.347809 -30.542135 49.506321 -0.518735 0.133895 0.844385 0.125477 0.598996 147 133 102 255
3 0 1 2
3 3 4 5
3 6 7 8
3 9 10 11
3 12 13 14
3 15 16 17
3 18 19 20
3 21 22 23
3 24 25 26
3 27 28 29
3 30 31 32
3 33 34 35
3 36 37 38
3 39 40 41
3 42 43 44
3 45 46 47
3 48 49 50
3 51 52 53
3 54 55 56
3 57 58 59
3 60 61 62
3 63 64 65
3 66 67 68
3 69 70 71
3 72 73 74
3 75 76 77
3 78 79 80
3 81 82 83
3 84 85 86
3 87 88 89
3 90 91 92
3 93 94 95
3 96 97 98
3 99 100 101
3 102 103 104
3 105 106 107
3 108 109 110
3 111 112 113
3 114 115 116
3 117 118 119
3 120 121 122
3 123 124 125
3 126 127 128
3 3 129 4
3 130 131 132
3 133 134 135
3 136 137 138
3 139 140 141
3 142 143 144
3 145 146 147
3 148 149 150
3 151 152 153
3 154 155 156
3 157 158 159
3 160 161 162
3 163 164 165
3 166 167 168
3 169 170 171
3 172 173 174
3 175 176 177
3 178 179 180
3 181 182 183
3 184 185 186
3 187 188 189
3 190 191 192
3 193 194 195
3 196 197 198
3 199 200 201
3 202 203 204
3 205 206 207
3 208 209 210
3 211 212 213
3 214 215 216
3 217 218 219
3 220 221 222
3 223 224 225
3 226 227 228
3 229 230 231
3 232 233 234
3 235 236 237
3 238 239 240
3 241 242 243
3 244 245 246
3 247 248 249
3 250 251 252
3 253 254 255
