ply
format ascii 1.0
comment Created by Blender 2.93.1 - www.blender.org
element vertex 170
property float x
property float y
property float z
property float nx
property float ny
property float nz
property float s
property float t
property uchar red
property uchar green
property uchar blue
property uchar alpha
element face 80
property list uchar uint vertex_indices
end_header
-2.000000 -5.377600 2.000000 0.000000 0.230189 -0.973146 0.375000 0.500000 147 133 102 255
-2.541946 0.991102 3.506458 0.000000 0.230189 -0.973146 0.625000 0.250000 147 133 102 255
2.000000 -5.377600 2.000000 0.000000 0.230189 -0.973146 0.375000 0.250000 147 133 102 255
-2.000000 -5.377600 -2.000000 0.924130 0.382078 0.000000 0.375000 0.750000 147 133 102 255
-4.633115 0.991102 3.506458 0.924130 0.382078 0.000000 0.625000 0.500000 147 133 102 255
-2.000000 -5.377600 2.000000 0.924130 0.382078 0.000000 0.375000 0.500000 147 133 102 255
-2.000000 -5.377600 -2.000000 -0.000000 0.293766 0.955877 0.375000 0.750000 147 133 102 255
-2.541946 0.991102 -3.957271 -0.000000 0.293766 0.955877 0.625000 1.000000 147 133 102 255
-4.633115 0.991102 -3.957271 -0.000000 0.293766 0.955877 0.625000 0.750000 147 133 102 255
2.000000 -5.377600 -2.000000 0.000000 1.000000 0.000000 0.125000 0.750000 115 196 116 255
-2.000000 -5.377600 2.000000 0.000000 1.000000 0.000000 0.375000 0.500000 115 196 116 255
2.000000 -5.377600 2.000000 0.000000 1.000000 0.000000 0.125000 0.500000 115 196 116 255
2.604269 0.991102 3.877356 0.069093 0.276037 -0.958660 0.625000 0.250000 147 133 102 255
2.000000 -5.377600 2.000000 0.069093 0.276037 -0.958660 0.375000 0.250000 147 133 102 255
-2.541946 0.991102 3.506458 0.069093 0.276037 -0.958660 0.625000 0.250000 147 133 102 255
2.000000 -5.377600 -2.000000 -0.069652 0.247334 0.966424 0.375000 1.000000 147 133 102 255
2.604269 0.991102 -3.586373 -0.069652 0.247334 0.966424 0.625000 1.000000 147 133 102 255
-2.541946 0.991102 -3.957271 -0.069652 0.247334 0.966424 0.625000 1.000000 147 133 102 255
6.165030 -5.377600 -1.699818 0.000000 1.000000 -0.000000 0.125000 0.750000 115 196 116 255
7.472310 0.991102 3.738269 -0.027823 0.225605 -0.973821 0.625000 0.250000 147 133 102 255
6.165030 -5.377600 2.300182 -0.027823 0.225605 -0.973821 0.375000 0.250000 147 133 102 255
2.604269 0.991102 3.877356 -0.027823 0.225605 -0.973821 0.625000 0.250000 147 133 102 255
6.165030 -5.377600 -1.699818 0.027263 0.297901 0.954207 0.375000 1.000000 147 133 102 255
7.472310 0.991102 -3.725460 0.027263 0.297901 0.954207 0.625000 1.000000 147 133 102 255
2.604269 0.991102 -3.586373 0.027263 0.297901 0.954207 0.625000 1.000000 147 133 102 255
10.104924 -5.377600 2.187614 -0.000000 1.000000 0.000000 0.125000 0.500000 115 196 116 255
6.165030 -5.377600 2.300182 -0.000000 1.000000 0.000000 0.125000 0.500000 115 196 116 255
12.293987 0.991102 3.877356 0.027938 0.247364 -0.968520 0.625000 0.250000 147 133 102 255
10.104924 -5.377600 2.187614 0.027938 0.247364 -0.968520 0.375000 0.250000 147 133 102 255
7.472310 0.991102 3.738269 0.027938 0.247364 -0.968520 0.625000 0.250000 147 133 102 255
10.104924 -5.377600 -1.812386 -0.050615 0.268070 0.962069 0.375000 1.000000 147 133 102 255
12.293987 0.991102 -3.471787 -0.050615 0.268070 0.962069 0.625000 1.000000 147 133 102 255
7.472310 0.991102 -3.725460 -0.050615 0.268070 0.962069 0.625000 1.000000 147 133 102 255
14.007296 -5.377600 -1.699818 0.000000 1.000000 -0.000000 0.125000 0.750000 115 196 116 255
10.104924 -5.377600 -1.812386 0.000000 1.000000 -0.000000 0.125000 0.750000 115 196 116 255
18.579466 0.991102 2.068491 -0.272932 0.161439 -0.948391 0.625000 0.250000 147 133 102 255
14.007296 -5.377600 2.300182 -0.272932 0.161439 -0.948391 0.375000 0.250000 147 133 102 255
12.293987 0.991102 3.877356 -0.272932 0.161439 -0.948391 0.625000 0.250000 147 133 102 255
14.007296 -5.377600 -1.699818 0.288356 0.327880 0.899636 0.375000 1.000000 147 133 102 255
16.486387 0.991102 -4.815558 0.288356 0.327880 0.899636 0.625000 1.000000 147 133 102 255
12.293987 0.991102 -3.471787 0.288356 0.327880 0.899636 0.625000 1.000000 147 133 102 255
19.094376 -5.377600 0.836197 -0.000000 1.000000 0.000000 0.125000 0.500000 115 196 116 255
14.007296 -5.377600 2.300182 -0.000000 1.000000 0.000000 0.125000 0.500000 115 196 116 255
24.064058 0.991102 -1.968391 -0.589359 0.107282 -0.800716 0.625000 0.250000 147 133 102 255
19.094376 -5.377600 0.836197 -0.589359 0.107282 -0.800716 0.375000 0.250000 147 133 102 255
18.579466 0.991102 2.068491 -0.589359 0.107282 -0.800716 0.625000 0.250000 147 133 102 255
17.400368 -5.377600 -2.787384 0.217423 0.324377 0.920601 0.375000 1.000000 147 133 102 255
17.863235 0.991102 -5.140736 0.217423 0.324377 0.920601 0.625000 1.000000 147 133 102 255
16.486387 0.991102 -4.815558 0.217423 0.324377 0.920601 0.625000 1.000000 147 133 102 255
20.466034 -5.377600 -4.998508 -0.000000 1.000000 -0.000000 0.125000 0.750000 115 196 116 255
17.400368 -5.377600 -2.787384 -0.000000 1.000000 -0.000000 0.125000 0.750000 115 196 116 255
24.064058 0.991102 -1.968391 -0.890777 0.106334 -0.441825 0.625000 0.250000 147 133 102 255
25.658463 -5.377600 -6.715672 -0.890777 0.106334 -0.441825 0.375000 0.250000 147 133 102 255
23.533270 -5.377600 -2.431007 -0.890777 0.106334 -0.441825 0.375000 0.250000 147 133 102 255
20.466034 -5.377600 -4.998508 0.864470 0.361106 0.349707 0.375000 1.000000 147 133 102 255
19.360111 0.991102 -8.840991 0.864470 0.361106 0.349707 0.625000 1.000000 147 133 102 255
17.863235 0.991102 -5.140736 0.864470 0.361106 0.349707 0.625000 1.000000 147 133 102 255
25.658463 -5.377600 -6.715672 0.000000 1.000000 0.000000 0.125000 0.500000 115 196 116 255
23.533270 -5.377600 -2.431007 0.000000 1.000000 0.000000 0.125000 0.500000 115 196 116 255
26.689898 0.991102 -7.262424 -0.986161 0.154565 -0.059960 0.625000 0.250000 147 133 102 255
25.946831 -5.377600 -11.458422 -0.986161 0.154565 -0.059960 0.375000 0.250000 147 133 102 255
25.658463 -5.377600 -6.715672 -0.986161 0.154565 -0.059960 0.375000 0.250000 147 133 102 255
21.867983 -5.377600 -7.993268 0.632986 0.341722 0.694662 0.375000 1.000000 147 133 102 255
21.954845 0.991102 -11.205351 0.632986 0.341722 0.694662 0.625000 1.000000 147 133 102 255
19.360111 0.991102 -8.840991 0.632986 0.341722 0.694662 0.625000 1.000000 147 133 102 255
25.946831 -5.377600 -11.458422 0.000000 1.000000 0.000000 0.125000 0.500000 115 196 116 255
21.867983 -5.377600 -7.993268 0.000000 1.000000 0.000000 0.125000 0.750000 115 196 116 255
18.127110 -4.459430 1.081048 -0.857074 0.143409 0.494831 0.250000 0.490000 83 141 84 255
18.127110 -2.383984 0.479556 -0.857074 0.143409 0.494831 0.250000 0.250000 83 141 84 255
17.606203 -4.459430 0.178811 -0.857074 0.143409 0.494831 0.457846 0.130000 83 141 84 255
17.606203 -4.459430 0.178811 0.000000 0.143409 -0.989664 0.457846 0.130000 83 141 84 255
18.127110 -2.383984 0.479556 0.000000 0.143409 -0.989664 0.250000 0.250000 83 141 84 255
18.648018 -4.459430 0.178811 0.000000 0.143409 -0.989664 0.042154 0.130000 83 141 84 255
18.648018 -4.459430 0.178811 0.857073 0.143409 0.494833 0.042154 0.130000 83 141 84 255
18.127110 -2.383984 0.479556 0.857073 0.143409 0.494833 0.250000 0.250000 83 141 84 255
18.127110 -4.459430 1.081048 0.857073 0.143409 0.494833 0.250000 0.490000 83 141 84 255
18.127890 -4.457077 0.585196 -0.866024 0.000000 0.500002 1.000000 1.000000 107 97 74 255
18.026070 -5.319273 0.408839 -0.866024 0.000000 0.500002 0.666667 0.500000 107 97 74 255
18.127890 -5.319273 0.585196 -0.866024 0.000000 0.500002 1.000000 0.500000 107 97 74 255
18.026070 -4.457077 0.408839 0.000000 0.000000 -1.000000 0.666667 1.000000 107 97 74 255
18.229710 -5.319273 0.408839 0.000000 0.000000 -1.000000 0.333333 0.500000 107 97 74 255
18.026070 -5.319273 0.408839 0.000000 0.000000 -1.000000 0.666667 0.500000 107 97 74 255
18.229710 -4.457077 0.408839 0.866024 0.000000 0.500002 0.333333 1.000000 107 97 74 255
18.127890 -5.319273 0.585196 0.866024 0.000000 0.500002 -0.000000 0.500000 107 97 74 255
18.229710 -5.319273 0.408839 0.866024 0.000000 0.500002 0.333333 0.500000 107 97 74 255
18.100254 -4.776737 -0.186850 -0.570343 0.143409 0.808791 0.042154 0.130000 83 141 84 255
17.917582 -3.274568 -0.582021 -0.570343 0.143409 0.808791 0.250000 0.250000 83 141 84 255
17.484018 -4.776737 -0.621407 -0.570343 0.143409 0.808791 0.250000 0.490000 83 141 84 255
17.841385 -4.772364 -0.588376 -0.419604 0.000000 -0.907707 1.000000 1.000000 107 97 74 255
17.975172 -5.399075 -0.650221 -0.419604 0.000000 -0.907707 0.666667 0.500000 107 97 74 255
17.841385 -5.399075 -0.588376 -0.419604 0.000000 -0.907707 1.000000 0.500000 107 97 74 255
17.975172 -4.772364 -0.650221 0.995899 0.000000 0.090469 0.666667 1.000000 107 97 74 255
17.961838 -5.399075 -0.503435 0.995899 0.000000 0.090469 0.333333 0.500000 107 97 74 255
17.975172 -5.399075 -0.650221 0.995899 0.000000 0.090469 0.666667 0.500000 107 97 74 255
17.961838 -4.772364 -0.503435 -0.576300 0.000000 0.817238 0.333333 1.000000 107 97 74 255
17.841385 -5.399075 -0.588376 -0.576300 0.000000 0.817238 -0.000000 0.500000 107 97 74 255
17.961838 -5.399075 -0.503435 -0.576300 0.000000 0.817238 0.333333 0.500000 107 97 74 255
17.484018 -4.776737 -0.621407 -0.000000 -1.000000 -0.000000 0.250000 0.490000 83 141 84 255
18.168472 -4.776737 -0.937804 -0.000000 -1.000000 -0.000000 0.457846 0.130000 83 141 84 255
18.100254 -4.776737 -0.186850 -0.000000 -1.000000 -0.000000 0.042154 0.130000 83 141 84 255
18.587135 -4.459430 0.020073 -0.000000 -1.000000 0.000000 0.250000 0.490000 83 141 84 255
19.047688 -4.459430 -0.914415 -0.000000 -1.000000 0.000000 0.457846 0.130000 83 141 84 255
19.626703 -4.459430 -0.048320 -0.000000 -1.000000 0.000000 0.042154 0.130000 83 141 84 255
19.202988 -4.476047 -0.268229 0.065646 0.000000 0.997843 0.333333 1.000000 107 97 74 255
18.999788 -5.319273 -0.254861 0.065646 0.000000 0.997843 -0.000000 0.500000 107 97 74 255
19.202988 -5.319273 -0.268229 0.065646 0.000000 0.997843 0.333333 0.500000 107 97 74 255
19.089809 -4.476047 -0.437522 0.831332 0.000000 -0.555776 0.666667 1.000000 107 97 74 255
19.202988 -5.319273 -0.268229 0.831332 0.000000 -0.555776 0.333333 0.500000 107 97 74 255
19.089809 -5.319273 -0.437522 0.831332 0.000000 -0.555776 0.666667 0.500000 107 97 74 255
18.999788 -4.476047 -0.254861 -0.896984 0.000000 -0.442063 1.000000 1.000000 107 97 74 255
19.089809 -5.319273 -0.437522 -0.896984 0.000000 -0.442063 0.666667 0.500000 107 97 74 255
18.999788 -5.319273 -0.254861 -0.896984 0.000000 -0.442063 1.000000 0.500000 107 97 74 255
19.626703 -4.459430 -0.048320 0.064969 0.143409 0.987529 0.042154 0.130000 83 141 84 255
19.087175 -2.383984 -0.314221 0.064969 0.143409 0.987529 0.250000 0.250000 83 141 84 255
18.587135 -4.459430 0.020073 0.064969 0.143409 0.987529 0.250000 0.490000 83 141 84 255
19.047688 -4.459430 -0.914415 0.822739 0.143409 -0.550031 0.457846 0.130000 83 141 84 255
19.087175 -2.383984 -0.314221 0.822739 0.143409 -0.550031 0.250000 0.250000 83 141 84 255
19.626703 -4.459430 -0.048320 0.822739 0.143409 -0.550031 0.042154 0.130000 83 141 84 255
18.587135 -4.459430 0.020073 -0.887710 0.143409 -0.437498 0.250000 0.490000 83 141 84 255
19.087175 -2.383984 -0.314221 -0.887710 0.143409 -0.437498 0.250000 0.250000 83 141 84 255
19.047688 -4.459430 -0.914415 -0.887710 0.143409 -0.437498 0.457846 0.130000 83 141 84 255
18.127110 -4.459430 1.081048 0.000000 -1.000000 0.000000 0.250000 0.490000 83 141 84 255
17.606203 -4.459430 0.178811 0.000000 -1.000000 0.000000 0.457846 0.130000 83 141 84 255
18.648018 -4.459430 0.178811 0.000000 -1.000000 0.000000 0.042154 0.130000 83 141 84 255
18.168472 -4.776737 -0.937804 0.985605 0.143409 0.089534 0.457846 0.130000 83 141 84 255
17.917582 -3.274568 -0.582021 0.985605 0.143409 0.089534 0.250000 0.250000 83 141 84 255
18.100254 -4.776737 -0.186850 0.985605 0.143409 0.089534 0.042154 0.130000 83 141 84 255
17.484018 -4.776737 -0.621407 -0.415262 0.143409 -0.898327 0.250000 0.490000 83 141 84 255
17.917582 -3.274568 -0.582021 -0.415262 0.143409 -0.898327 0.250000 0.250000 83 141 84 255
18.168472 -4.776737 -0.937804 -0.415262 0.143409 -0.898327 0.457846 0.130000 83 141 84 255
-4.633115 0.991102 3.506458 0.000000 0.230189 -0.973146 0.625000 0.500000 147 133 102 255
-4.633115 0.991102 -3.957271 0.924130 0.382078 0.000000 0.625000 0.750000 147 133 102 255
2.000000 -5.377600 -2.000000 0.000000 0.293766 0.955877 0.375000 1.000000 147 133 102 255
-2.000000 -5.377600 -2.000000 -0.000000 1.000000 0.000000 0.375000 0.750000 115 196 116 255
6.165030 -5.377600 2.300182 0.069093 0.276037 -0.958660 0.375000 0.250000 147 133 102 255
6.165030 -5.377600 -1.699818 -0.069652 0.247334 0.966424 0.375000 1.000000 147 133 102 255
10.104924 -5.377600 2.187614 -0.027823 0.225605 -0.973821 0.375000 0.250000 147 133 102 255
10.104924 -5.377600 -1.812386 0.027263 0.297901 0.954207 0.375000 1.000000 147 133 102 255
14.007296 -5.377600 2.300182 0.027938 0.247364 -0.968520 0.375000 0.250000 147 133 102 255
10.104924 -5.377600 -1.812386 -0.027835 0.260988 0.964941 0.375000 1.000000 147 133 102 255
14.007296 -5.377600 -1.699818 -0.027835 0.260988 0.964941 0.375000 1.000000 147 133 102 255
12.293987 0.991102 -3.471787 -0.027835 0.260988 0.964941 0.625000 1.000000 147 133 102 255
18.579466 0.991102 2.068491 -0.272933 0.161439 -0.948391 0.625000 0.250000 147 133 102 255
19.094376 -5.377600 0.836197 -0.272933 0.161439 -0.948391 0.375000 0.250000 147 133 102 255
14.007296 -5.377600 2.300182 -0.272933 0.161439 -0.948391 0.375000 0.250000 147 133 102 255
17.400368 -5.377600 -2.787384 0.288356 0.327880 0.899636 0.375000 1.000000 147 133 102 255
23.533270 -5.377600 -2.431007 -0.589359 0.107282 -0.800716 0.375000 0.250000 147 133 102 255
17.400368 -5.377600 -2.787384 0.566538 0.249078 0.785490 0.375000 1.000000 147 133 102 255
20.466034 -5.377600 -4.998508 0.566538 0.249078 0.785490 0.375000 1.000000 147 133 102 255
17.863235 0.991102 -5.140736 0.566538 0.249078 0.785490 0.625000 1.000000 147 133 102 255
26.689898 0.991102 -7.262424 -0.890777 0.106334 -0.441825 0.625000 0.250000 147 133 102 255
20.466034 -5.377600 -4.998508 0.837071 0.381782 0.391861 0.375000 1.000000 147 133 102 255
21.867983 -5.377600 -7.993268 0.837071 0.381782 0.391861 0.375000 1.000000 147 133 102 255
19.360111 0.991102 -8.840991 0.837071 0.381782 0.391861 0.625000 1.000000 147 133 102 255
26.689898 0.991102 -7.262424 -0.984679 0.000000 0.174376 0.625000 0.250000 147 133 102 255
25.946831 0.991102 -11.458422 -0.984679 0.000000 0.174376 0.625000 0.250000 147 133 102 255
25.946831 -5.377600 -11.458422 -0.984679 0.000000 0.174376 0.375000 0.250000 147 133 102 255
21.867983 -5.377600 -7.993268 0.999635 0.000000 0.027033 0.375000 1.000000 147 133 102 255
21.954845 -5.377600 -11.205351 0.999635 0.000000 0.027033 0.375000 1.000000 147 133 102 255
21.954845 0.991102 -11.205351 0.999635 0.000000 0.027033 0.625000 1.000000 147 133 102 255
21.954845 -5.377600 -11.205351 0.000000 1.000000 0.000000 0.125000 0.750000 115 196 116 255
18.026070 -4.457077 0.408839 -0.866024 0.000000 0.500002 0.666667 1.000000 107 97 74 255
18.229710 -4.457077 0.408839 0.000000 0.000000 -1.000000 0.333333 1.000000 107 97 74 255
18.127890 -4.457077 0.585196 0.866024 -0.000000 0.500002 -0.000000 1.000000 107 97 74 255
17.975172 -4.772364 -0.650221 -0.419604 0.000000 -0.907707 0.666667 1.000000 107 97 74 255
17.961838 -4.772364 -0.503435 0.995899 -0.000000 0.090469 0.333333 1.000000 107 97 74 255
17.841385 -4.772364 -0.588376 -0.576300 0.000000 0.817238 -0.000000 1.000000 107 97 74 255
18.999788 -4.476047 -0.254861 0.065646 -0.000000 0.997843 -0.000000 1.000000 107 97 74 255
19.202988 -4.476047 -0.268229 0.831332 0.000000 -0.555776 0.333333 1.000000 107 97 74 255
19.089809 -4.476047 -0.437522 -0.896984 0.000000 -0.442063 0.666667 1.000000 107 97 74 255
3 0 1 2
3 3 4 5
3 6 7 8
3 9 10 11
3 12 13 14
3 15 16 17
3 11 18 9
3 19 20 21
3 22 23 24
3 25 18 26
3 27 28 29
3 30 31 32
3 25 33 34
3 35 36 37
3 38 39 40
3 41 33 42
3 43 44 45
3 46 47 48
3 41 49 50
3 51 52 53
3 54 55 56
3 57 49 58
3 59 60 61
3 62 63 64
3 65 66 57
3 67 68 69
3 70 71 72
3 73 74 75
3 76 77 78
3 79 80 81
3 82 83 84
3 85 86 87
3 88 89 90
3 91 92 93
3 94 95 96
3 97 98 99
3 100 101 102
3 103 104 105
3 106 107 108
3 109 110 111
3 112 113 114
3 115 116 117
3 118 119 120
3 121 122 123
3 124 125 126
3 127 128 129
3 0 130 1
3 3 131 4
3 6 132 7
3 9 133 10
3 12 134 13
3 15 135 16
3 11 26 18
3 19 136 20
3 22 137 23
3 25 34 18
3 27 138 28
3 139 140 141
3 25 42 33
3 142 143 144
3 38 145 39
3 41 50 33
3 43 146 44
3 147 148 149
3 41 58 49
3 51 150 52
3 151 152 153
3 57 66 49
3 154 155 156
3 157 158 159
3 65 160 66
3 76 161 77
3 79 162 80
3 82 163 83
3 88 164 89
3 91 165 92
3 94 166 95
3 103 167 104
3 106 168 107
3 109 169 110
