ply
format ascii 1.0
comment Created by Blender 2.92.0 - www.blender.org
element vertex 160
property float x
property float y
property float z
property float nx
property float ny
property float nz
property float s
property float t
property uchar red
property uchar green
property uchar blue
property uchar alpha
element face 60
property list uchar uint vertex_indices
end_header
143.346313 -35.206444 2.262991 0.384198 -0.117097 0.915795 0.126526 0.596284 147 133 102 255
141.568954 -36.659607 2.822828 0.384198 -0.117097 0.915795 0.125000 0.595978 147 133 102 255
143.411636 -36.659607 2.049780 0.384198 -0.117097 0.915795 0.125000 0.595978 147 133 102 255
144.031067 -36.771881 3.448327 -0.377851 0.131733 -0.916447 0.125000 0.598639 147 133 102 255
141.687012 -35.612896 4.581377 -0.377851 0.131733 -0.916447 0.125477 0.598996 147 133 102 255
144.125397 -35.019737 3.661293 -0.377851 0.131733 -0.916447 0.125477 0.598996 147 133 102 255
144.125397 -35.019737 3.661293 0.042116 -0.993134 0.109141 0.125477 0.598996 147 133 102 255
141.434509 -35.206444 3.000728 0.042116 -0.993134 0.109141 0.126526 0.596284 147 133 102 255
143.346313 -35.206444 2.262991 0.042116 -0.993134 0.109141 0.126526 0.596284 147 133 102 255
144.031067 -36.771881 3.448327 -0.026623 0.960446 0.277191 0.125000 0.598639 80 72 55 255
141.568954 -36.659607 2.822828 -0.026623 0.960446 0.277191 0.125000 0.595978 80 72 55 255
141.671402 -37.097225 4.348981 -0.026623 0.960446 0.277191 0.125000 0.598639 80 72 55 255
141.869522 -36.817310 3.905107 0.999213 0.000000 -0.039668 1.000000 0.000000 236 181 85 255
141.876343 -35.442207 4.076916 0.999213 0.000000 -0.039668 0.000000 1.000000 236 181 85 255
141.876343 -36.917072 4.076916 0.999213 0.000000 -0.039668 0.000000 0.000000 236 181 85 255
141.797424 -36.775349 2.839794 0.999213 0.000000 -0.039668 1.000000 0.000000 236 181 85 255
141.804245 -35.219475 3.011601 0.999213 0.000000 -0.039668 0.000000 1.000000 236 181 85 255
141.804245 -36.775349 3.011601 0.999213 0.000000 -0.039668 0.000000 0.000000 236 181 85 255
141.687012 -35.612896 4.581377 -0.397998 0.145012 -0.905853 0.125477 0.598996 147 133 102 255
139.875900 -37.066936 5.144344 -0.397998 0.145012 -0.905853 0.125000 0.598639 147 133 102 255
140.031921 -35.558399 5.317286 -0.397998 0.145012 -0.905853 0.125477 0.598996 147 133 102 255
141.434509 -35.206444 3.000728 -0.099246 -0.973095 -0.207932 0.126526 0.596284 147 133 102 255
140.031921 -35.558399 5.317286 -0.099246 -0.973095 -0.207932 0.125477 0.598996 147 133 102 255
138.855713 -35.206444 4.231586 -0.099246 -0.973095 -0.207932 0.126526 0.596284 147 133 102 255
141.671402 -37.097225 4.348981 0.121051 0.964048 0.236555 0.125000 0.598639 80 72 55 255
138.851303 -36.659607 4.008638 0.121051 0.964048 0.236555 0.125000 0.595978 80 72 55 255
139.875900 -37.066936 5.144344 0.121051 0.964048 0.236555 0.125000 0.598639 80 72 55 255
141.434509 -35.206444 3.000728 0.398797 -0.074994 0.913968 0.126526 0.596284 147 133 102 255
138.851303 -36.659607 4.008638 0.398797 -0.074994 0.913968 0.125000 0.595978 147 133 102 255
141.568954 -36.659607 2.822828 0.398797 -0.074994 0.913968 0.125000 0.595978 147 133 102 255
138.851303 -36.659607 4.008638 0.876305 -0.168844 0.451200 0.125000 0.595978 147 133 102 255
137.578659 -35.893417 6.767040 0.876305 -0.168844 0.451200 0.126526 0.596284 147 133 102 255
137.435181 -37.094250 6.596335 0.876305 -0.168844 0.451200 0.125000 0.595978 147 133 102 255
139.875900 -37.066936 5.144344 -0.876066 0.143386 -0.460380 0.125000 0.598639 147 133 102 255
139.175827 -35.793846 6.873034 -0.876066 0.143386 -0.460380 0.125477 0.598996 147 133 102 255
140.031921 -35.558399 5.317286 -0.876066 0.143386 -0.460380 0.125477 0.598996 147 133 102 255
138.855713 -35.206444 4.231586 0.075502 -0.971391 -0.225167 0.126526 0.596284 147 133 102 255
139.175827 -35.793846 6.873034 0.075502 -0.971391 -0.225167 0.125477 0.598996 147 133 102 255
137.578659 -35.893417 6.767040 0.075502 -0.971391 -0.225167 0.126526 0.596284 147 133 102 255
139.875900 -37.066936 5.144344 0.067971 0.988802 0.132855 0.125000 0.598639 80 72 55 255
137.435181 -37.094250 6.596335 0.067971 0.988802 0.132855 0.125000 0.595978 80 72 55 255
138.945801 -37.230354 6.836467 0.067971 0.988802 0.132855 0.125000 0.598639 80 72 55 255
137.578659 -35.893417 6.767040 0.040179 -0.998055 -0.047657 0.126526 0.596284 147 133 102 255
139.180603 -35.920708 8.689166 0.040179 -0.998055 -0.047657 0.125477 0.598996 147 133 102 255
137.776810 -36.013947 9.458289 0.040179 -0.998055 -0.047657 0.126526 0.596284 147 133 102 255
137.435181 -37.094250 6.596335 0.072013 0.991439 0.108919 0.125000 0.595978 80 72 55 255
138.966980 -37.445625 8.781974 0.072013 0.991439 0.108919 0.125000 0.598639 80 72 55 255
138.945801 -37.230354 6.836467 0.072013 0.991439 0.108919 0.125000 0.598639 80 72 55 255
137.578659 -35.893417 6.767040 0.992302 -0.110657 -0.055610 0.126526 0.596284 147 133 102 255
137.564072 -37.343109 9.391460 0.992302 -0.110657 -0.055610 0.125000 0.595978 147 133 102 255
137.435181 -37.094250 6.596335 0.992302 -0.110657 -0.055610 0.125000 0.595978 147 133 102 255
138.945801 -37.230354 6.836467 -0.987383 0.157762 0.013617 0.125000 0.598639 147 133 102 255
139.180603 -35.920708 8.689166 -0.987383 0.157762 0.013617 0.125477 0.598996 147 133 102 255
139.175827 -35.793846 6.873034 -0.987383 0.157762 0.013617 0.125477 0.598996 147 133 102 255
137.776810 -36.013947 9.458289 -0.220827 -0.967973 0.119427 0.126526 0.596284 147 133 102 255
140.220764 -36.497509 10.057947 -0.220827 -0.967973 0.119427 0.125477 0.598996 147 133 102 255
139.194672 -36.111847 11.286493 -0.220827 -0.967973 0.119427 0.126526 0.596284 147 133 102 255
138.966980 -37.445625 8.781974 0.532462 0.846169 0.021944 0.125000 0.598639 80 72 55 255
138.972214 -37.514271 11.301947 0.532462 0.846169 0.021944 0.125000 0.595978 80 72 55 255
140.055771 -38.168114 10.222343 0.532462 0.846169 0.021944 0.125000 0.598639 80 72 55 255
137.776810 -36.013947 9.458289 0.796935 -0.097580 -0.596131 0.126526 0.596284 147 133 102 255
138.972214 -37.514271 11.301947 0.796935 -0.097580 -0.596131 0.125000 0.595978 147 133 102 255
137.564072 -37.343109 9.391460 0.796935 -0.097580 -0.596131 0.125000 0.595978 147 133 102 255
138.966980 -37.445625 8.781974 -0.757440 0.144855 0.636633 0.125000 0.598639 147 133 102 255
140.220764 -36.497509 10.057947 -0.757440 0.144855 0.636633 0.125477 0.598996 147 133 102 255
139.180603 -35.920708 8.689166 -0.757440 0.144855 0.636633 0.125477 0.598996 147 133 102 255
139.731766 -37.122948 5.044024 0.622453 0.000000 -0.782657 1.000000 0.000000 236 181 85 255
139.866333 -35.619301 5.151047 0.622453 0.000000 -0.782657 0.000000 1.000000 236 181 85 255
139.866333 -37.241379 5.151047 0.622453 0.000000 -0.782657 0.000000 0.000000 236 181 85 255
139.015457 -36.913902 4.156797 0.622406 0.000000 -0.782694 1.000000 0.000000 236 181 85 255
139.150040 -35.331039 4.263819 0.622406 0.000000 -0.782694 0.000000 1.000000 236 181 85 255
139.150040 -36.913902 4.263819 0.622406 0.000000 -0.782694 0.000000 0.000000 236 181 85 255
138.728790 -37.462910 6.924701 0.335378 0.000000 -0.942084 1.000000 0.000000 236 181 85 255
138.890778 -35.822392 6.982368 0.335378 0.000000 -0.942084 0.000000 1.000000 236 181 85 255
138.890778 -37.533985 6.982368 0.335378 0.000000 -0.942084 0.000000 0.000000 236 181 85 255
137.788925 -37.333725 6.733493 0.335378 0.000000 -0.942084 0.000000 0.000000 236 181 85 255
137.626938 -35.951176 6.675826 0.335378 0.000000 -0.942084 1.000000 1.000000 236 181 85 255
137.788925 -35.922161 6.733493 0.335378 0.000000 -0.942084 0.000000 1.000000 236 181 85 255
138.781219 -37.732178 8.896461 -0.353388 0.000000 -0.935477 1.000000 0.000000 236 181 85 255
138.942062 -35.955658 8.835701 -0.353388 0.000000 -0.935477 0.000000 1.000000 236 181 85 255
138.942062 -37.830338 8.835701 -0.353388 0.000000 -0.935477 0.000000 0.000000 236 181 85 255
137.951645 -37.540592 9.241720 -0.353359 0.000000 -0.935488 0.000000 0.000000 236 181 85 255
137.790787 -36.040512 9.302481 -0.353359 0.000000 -0.935488 1.000000 1.000000 236 181 85 255
137.951645 -36.021931 9.241720 -0.353359 0.000000 -0.935488 0.000000 1.000000 236 181 85 255
139.896927 -38.055744 10.348355 -0.739141 0.000000 -0.673550 1.000000 0.000000 236 181 85 255
140.012741 -36.547276 10.221263 -0.739141 0.000000 -0.673550 0.000000 1.000000 236 181 85 255
140.012741 -38.106998 10.221263 -0.739141 0.000000 -0.673550 0.000000 0.000000 236 181 85 255
139.125076 -37.749191 11.210257 -0.739141 0.000000 -0.673550 1.000000 0.000000 236 181 85 255
139.240891 -36.213345 11.083164 -0.739141 0.000000 -0.673550 0.000000 1.000000 236 181 85 255
139.240891 -37.794754 11.083164 -0.739141 0.000000 -0.673550 0.000000 0.000000 236 181 85 255
143.346313 -35.206444 2.262991 0.358838 -0.080642 0.929910 0.126526 0.596284 147 133 102 255
141.434509 -35.206444 3.000728 0.358838 -0.080642 0.929910 0.126526 0.596284 147 133 102 255
141.568954 -36.659607 2.822828 0.358838 -0.080642 0.929910 0.125000 0.595978 147 133 102 255
144.031067 -36.771881 3.448327 -0.370379 0.147482 -0.917098 0.125000 0.598639 147 133 102 255
141.671402 -37.097225 4.348981 -0.370379 0.147482 -0.917098 0.125000 0.598639 147 133 102 255
141.687012 -35.612896 4.581377 -0.370379 0.147482 -0.917098 0.125477 0.598996 147 133 102 255
144.125397 -35.019737 3.661293 0.131681 -0.954783 -0.266551 0.125477 0.598996 147 133 102 255
141.687012 -35.612896 4.581377 0.131681 -0.954783 -0.266551 0.125477 0.598996 147 133 102 255
141.434509 -35.206444 3.000728 0.131681 -0.954783 -0.266551 0.126526 0.596284 147 133 102 255
144.031067 -36.771881 3.448327 0.028325 0.997316 0.067518 0.125000 0.598639 80 72 55 255
143.411636 -36.659607 2.049780 0.028325 0.997316 0.067518 0.125000 0.595978 80 72 55 255
141.568954 -36.659607 2.822828 0.028325 0.997316 0.067518 0.125000 0.595978 80 72 55 255
141.869522 -35.391319 3.905107 0.999213 0.000000 -0.039668 1.000000 1.000000 236 181 85 255
141.797424 -35.219475 2.839794 0.999213 0.000000 -0.039668 1.000000 1.000000 236 181 85 255
141.687012 -35.612896 4.581377 -0.398620 0.145952 -0.905428 0.125477 0.598996 147 133 102 255
141.671402 -37.097225 4.348981 -0.398620 0.145952 -0.905428 0.125000 0.598639 147 133 102 255
139.875900 -37.066936 5.144344 -0.398620 0.145952 -0.905428 0.125000 0.598639 147 133 102 255
141.434509 -35.206444 3.000728 -0.132660 -0.964839 -0.226909 0.126526 0.596284 147 133 102 255
141.687012 -35.612896 4.581377 -0.132660 -0.964839 -0.226909 0.125477 0.598996 147 133 102 255
140.031921 -35.558399 5.317286 -0.132660 -0.964839 -0.226909 0.125477 0.598996 147 133 102 255
141.671402 -37.097225 4.348981 0.116303 0.956779 0.266546 0.125000 0.598639 80 72 55 255
141.568954 -36.659607 2.822828 0.116303 0.956779 0.266546 0.125000 0.595978 80 72 55 255
138.851303 -36.659607 4.008638 0.116303 0.956779 0.266546 0.125000 0.595978 80 72 55 255
141.434509 -35.206444 3.000728 0.426603 -0.138421 0.893784 0.126526 0.596284 147 133 102 255
138.855713 -35.206444 4.231586 0.426603 -0.138421 0.893784 0.126526 0.596284 147 133 102 255
138.851303 -36.659607 4.008638 0.426603 -0.138421 0.893784 0.125000 0.595978 147 133 102 255
138.851303 -36.659607 4.008638 0.898378 -0.069269 0.433726 0.125000 0.595978 147 133 102 255
138.855713 -35.206444 4.231586 0.898378 -0.069269 0.433726 0.126526 0.596284 147 133 102 255
137.578659 -35.893417 6.767040 0.898378 -0.069269 0.433726 0.126526 0.596284 147 133 102 255
139.875900 -37.066936 5.144344 -0.872326 0.151518 -0.464854 0.125000 0.598639 147 133 102 255
138.945801 -37.230354 6.836467 -0.872326 0.151518 -0.464854 0.125000 0.598639 147 133 102 255
139.175827 -35.793846 6.873034 -0.872326 0.151518 -0.464854 0.125477 0.598996 147 133 102 255
138.855713 -35.206444 4.231586 -0.102997 -0.973535 -0.204012 0.126526 0.596284 147 133 102 255
140.031921 -35.558399 5.317286 -0.102997 -0.973535 -0.204012 0.125477 0.598996 147 133 102 255
139.175827 -35.793846 6.873034 -0.102997 -0.973535 -0.204012 0.125477 0.598996 147 133 102 255
139.875900 -37.066936 5.144344 0.126899 0.964534 0.231454 0.125000 0.598639 80 72 55 255
138.851303 -36.659607 4.008638 0.126899 0.964534 0.231454 0.125000 0.595978 80 72 55 255
137.435181 -37.094250 6.596335 0.126899 0.964534 0.231454 0.125000 0.595978 80 72 55 255
137.578659 -35.893417 6.767040 0.066677 -0.995337 -0.069702 0.126526 0.596284 147 133 102 255
139.175827 -35.793846 6.873034 0.066677 -0.995337 -0.069702 0.125477 0.598996 147 133 102 255
139.180603 -35.920708 8.689166 0.066677 -0.995337 -0.069702 0.125477 0.598996 147 133 102 255
137.435181 -37.094250 6.596335 0.108530 0.990606 0.083192 0.125000 0.595978 80 72 55 255
137.564072 -37.343109 9.391460 0.108530 0.990606 0.083192 0.125000 0.595978 80 72 55 255
138.966980 -37.445625 8.781974 0.108530 0.990606 0.083192 0.125000 0.598639 80 72 55 255
137.578659 -35.893417 6.767040 0.984930 -0.153650 -0.079400 0.126526 0.596284 147 133 102 255
137.776810 -36.013947 9.458289 0.984930 -0.153650 -0.079400 0.126526 0.596284 147 133 102 255
137.564072 -37.343109 9.391460 0.984930 -0.153650 -0.079400 0.125000 0.595978 147 133 102 255
138.945801 -37.230354 6.836467 -0.989766 0.140255 0.026294 0.125000 0.598639 147 133 102 255
138.966980 -37.445625 8.781974 -0.989766 0.140255 0.026294 0.125000 0.598639 147 133 102 255
139.180603 -35.920708 8.689166 -0.989766 0.140255 0.026294 0.125477 0.598996 147 133 102 255
137.776810 -36.013947 9.458289 -0.109500 -0.943028 -0.314179 0.126526 0.596284 147 133 102 255
139.180603 -35.920708 8.689166 -0.109500 -0.943028 -0.314179 0.125477 0.598996 147 133 102 255
140.220764 -36.497509 10.057947 -0.109500 -0.943028 -0.314179 0.125477 0.598996 147 133 102 255
138.966980 -37.445625 8.781974 0.084498 0.996059 0.026958 0.125000 0.598639 80 72 55 255
137.564072 -37.343109 9.391460 0.084498 0.996059 0.026958 0.125000 0.595978 80 72 55 255
138.972214 -37.514271 11.301947 0.084498 0.996059 0.026958 0.125000 0.595978 80 72 55 255
137.776810 -36.013947 9.458289 0.780054 -0.130478 -0.611957 0.126526 0.596284 147 133 102 255
139.194672 -36.111847 11.286493 0.780054 -0.130478 -0.611957 0.126526 0.596284 147 133 102 255
138.972214 -37.514271 11.301947 0.780054 -0.130478 -0.611957 0.125000 0.595978 147 133 102 255
138.966980 -37.445625 8.781974 -0.755704 0.137643 0.640286 0.125000 0.598639 147 133 102 255
140.055771 -38.168114 10.222343 -0.755704 0.137643 0.640286 0.125000 0.598639 147 133 102 255
140.220764 -36.497509 10.057947 -0.755704 0.137643 0.640286 0.125477 0.598996 147 133 102 255
139.731766 -35.500870 5.044024 0.622453 0.000000 -0.782657 1.000000 1.000000 236 181 85 255
139.015457 -35.216366 4.156797 0.622406 0.000000 -0.782694 1.000000 1.000000 236 181 85 255
138.728790 -35.823093 6.924701 0.335378 0.000000 -0.942084 1.000000 1.000000 236 181 85 255
137.626938 -37.379238 6.675826 0.335378 0.000000 -0.942084 1.000000 0.000000 236 181 85 255
138.781219 -35.967930 8.896461 -0.353388 -0.000000 -0.935477 1.000000 1.000000 236 181 85 255
137.790787 -37.547672 9.302481 -0.353359 -0.000000 -0.935488 1.000000 0.000000 236 181 85 255
139.896927 -36.532818 10.348355 -0.739141 -0.000000 -0.673550 1.000000 1.000000 236 181 85 255
139.125076 -36.150059 11.210257 -0.739141 -0.000000 -0.673550 1.000000 1.000000 236 181 85 255
3 0 1 2
3 3 4 5
3 6 7 8
3 9 10 11
3 12 13 14
3 15 16 17
3 18 19 20
3 21 22 23
3 24 25 26
3 27 28 29
3 30 31 32
3 33 34 35
3 36 37 38
3 39 40 41
3 42 43 44
3 45 46 47
3 48 49 50
3 51 52 53
3 54 55 56
3 57 58 59
3 60 61 62
3 63 64 65
3 66 67 68
3 69 70 71
3 72 73 74
3 75 76 77
3 78 79 80
3 81 82 83
3 84 85 86
3 87 88 89
3 90 91 92
3 93 94 95
3 96 97 98
3 99 100 101
3 12 102 13
3 15 103 16
3 104 105 106
3 107 108 109
3 110 111 112
3 113 114 115
3 116 117 118
3 119 120 121
3 122 123 124
3 125 126 127
3 128 129 130
3 131 132 133
3 134 135 136
3 137 138 139
3 140 141 142
3 143 144 145
3 146 147 148
3 149 150 151
3 66 152 67
3 69 153 70
3 72 154 73
3 75 155 76
3 78 156 79
3 81 157 82
3 84 158 85
3 87 159 88
