ply
format ascii 1.0
comment Created by Blender 2.92.0 - www.blender.org
element vertex 397
property float x
property float y
property float z
property float nx
property float ny
property float nz
property float s
property float t
property uchar red
property uchar green
property uchar blue
property uchar alpha
element face 135
property list uchar uint vertex_indices
end_header
156.326645 -21.035734 -133.246613 -0.947731 0.282659 0.148020 0.125000 0.625000 147 133 102 255
158.084366 -16.920765 -129.850342 -0.947731 0.282659 0.148020 0.314022 0.625000 147 133 102 255
158.003174 -15.322051 -133.423096 -0.947731 0.282659 0.148020 0.314022 0.625000 147 133 102 255
153.281464 -20.907221 -133.184814 0.989566 0.138559 0.039513 0.125000 0.562500 147 133 102 255
152.631165 -17.127615 -130.152527 0.989566 0.138559 0.039513 0.316321 0.500000 147 133 102 255
153.362656 -22.505934 -129.612061 0.989566 0.138559 0.039513 0.125000 0.562500 147 133 102 255
156.326645 -21.035734 -133.246613 0.046758 0.912180 0.407114 0.125000 0.625000 115 196 116 255
153.362656 -22.505934 -129.612061 0.046758 0.912180 0.407114 0.125000 0.562500 115 196 116 255
156.407837 -22.634447 -129.673859 0.046758 0.912180 0.407114 0.125000 0.625000 115 196 116 255
157.819611 -18.804926 -127.748642 -0.992881 0.117455 -0.019783 0.291174 0.625000 147 133 102 255
157.797180 -18.884708 -127.096581 -0.992881 0.117455 -0.019783 0.292880 0.625000 147 133 102 255
158.024185 -16.920765 -126.829353 -0.992881 0.117455 -0.019783 0.314022 0.625000 147 133 102 255
153.275772 -21.693607 -126.737396 0.960455 0.274186 -0.048451 0.181495 0.544044 147 133 102 255
153.585083 -22.505934 -125.202835 0.960455 0.274186 -0.048451 0.125000 0.562500 147 133 102 255
153.362656 -22.505934 -129.612061 0.960455 0.274186 -0.048451 0.125000 0.562500 147 133 102 255
153.362656 -22.505934 -129.612061 0.042148 0.999111 -0.000809 0.125000 0.562500 115 196 116 255
156.475220 -22.634447 -126.164078 0.042148 0.999111 -0.000809 0.125000 0.625000 115 196 116 255
156.407837 -22.634447 -129.673859 0.042148 0.999111 -0.000809 0.125000 0.625000 115 196 116 255
157.748535 -22.634447 -122.185333 -0.952637 0.251544 0.170906 0.125000 0.625000 147 133 102 255
159.069290 -16.920765 -123.232948 -0.952637 0.251544 0.170906 0.314022 0.625000 147 133 102 255
157.681015 -19.804514 -126.726868 -0.952637 0.251544 0.170906 0.284904 0.625000 147 133 102 255
153.344406 -21.864454 -125.286766 0.616564 0.125098 -0.777302 0.178620 0.544984 147 133 102 255
153.612946 -19.869177 -124.752640 0.616564 0.125098 -0.777302 0.226546 0.529327 147 133 102 255
153.920486 -22.505934 -124.933052 0.616564 0.125098 -0.777302 0.125000 0.562500 147 133 102 255
156.475220 -22.634447 -126.164078 0.097454 0.994751 -0.031188 0.125000 0.625000 115 196 116 255
155.879288 -22.505934 -123.927254 0.097454 0.994751 -0.031188 0.125000 0.562500 115 196 116 255
157.748535 -22.634447 -122.185333 0.097454 0.994751 -0.031188 0.125000 0.625000 115 196 116 255
159.069290 -16.920765 -123.232948 -0.755708 0.345946 0.556082 0.314022 0.625000 147 133 102 255
159.268677 -17.899521 -122.353088 -0.755708 0.345946 0.556082 0.269191 0.625000 147 133 102 255
161.752960 -16.920765 -119.585876 -0.755708 0.345946 0.556082 0.314022 0.625000 147 133 102 255
156.649078 -22.505934 -121.700966 0.983283 0.132915 0.124455 0.125000 0.562500 147 133 102 255
155.950500 -19.936226 -118.926102 0.983283 0.132915 0.124455 0.216503 0.532608 147 133 102 255
156.153717 -21.960508 -118.369766 0.983283 0.132915 0.124455 0.125000 0.562500 147 133 102 255
157.675400 -22.281992 -118.999359 0.182503 0.981372 -0.060012 0.125000 0.625000 115 196 116 255
156.153717 -21.960508 -118.369766 0.182503 0.981372 -0.060012 0.125000 0.562500 115 196 116 255
159.107071 -22.409872 -116.736679 0.182503 0.981372 -0.060012 0.125000 0.625000 115 196 116 255
164.340363 -22.634447 -115.488205 -0.599490 0.269114 0.753784 0.125000 0.625000 147 133 102 255
164.910492 -16.920765 -117.074661 -0.599490 0.269114 0.753784 0.314022 0.625000 147 133 102 255
163.581390 -18.026222 -117.737038 -0.599490 0.269114 0.753784 0.277516 0.625000 147 133 102 255
158.228287 -21.886917 -115.679558 0.502941 -0.142044 -0.852569 0.125000 0.562500 147 133 102 255
163.536667 -16.803068 -113.395081 0.502941 -0.142044 -0.852569 0.316321 0.500000 147 133 102 255
163.071808 -22.505934 -112.719170 0.502941 -0.142044 -0.852569 0.125000 0.562500 147 133 102 255
163.071808 -22.505934 -112.719170 0.188064 0.981317 0.040613 0.125000 0.562500 115 196 116 255
164.340363 -22.634447 -115.488205 0.188064 0.981317 0.040613 0.125000 0.625000 115 196 116 255
162.211304 -22.213875 -115.791428 0.188064 0.981317 0.040613 0.125000 0.625000 115 196 116 255
152.994293 -19.709311 -126.863335 0.991897 0.116361 -0.050992 0.240107 0.524897 0 0 0 255
152.943192 -18.818810 -125.825294 0.991897 0.116361 -0.050992 0.266197 0.516374 0 0 0 255
153.074707 -19.745113 -125.380821 0.991897 0.116361 -0.050992 0.238704 0.525356 0 0 0 255
157.732544 -19.720938 -128.189835 -0.926078 0.316140 0.205997 0.275811 0.625000 147 133 102 255
156.407837 -22.634447 -129.673859 -0.926078 0.316140 0.205997 0.125000 0.625000 147 133 102 255
157.097595 -21.782597 -127.880310 -0.926078 0.316140 0.205997 0.201580 0.625000 147 133 102 255
152.994293 -19.709311 -126.863335 -0.023079 -0.999472 -0.022886 0.240107 0.524897 146 69 62 255
154.099716 -19.760696 -125.733932 -0.023079 -0.999472 -0.022886 0.250824 0.551495 146 69 62 255
153.074707 -19.745113 -125.380821 -0.023079 -0.999472 -0.022886 0.238704 0.525356 146 69 62 255
152.994293 -19.709311 -126.863335 0.989272 0.137136 -0.050348 0.240107 0.524897 147 133 102 255
153.074707 -19.745113 -125.380821 0.989272 0.137136 -0.050348 0.238704 0.525356 147 133 102 255
153.275772 -21.693607 -126.737396 0.989272 0.137136 -0.050348 0.181495 0.544044 147 133 102 255
153.275772 -21.693607 -126.737396 0.727321 -0.676744 -0.114115 0.181495 0.544044 146 69 62 255
154.388229 -20.689821 -125.599884 0.727321 -0.676744 -0.114115 0.184391 0.566962 146 69 62 255
153.344406 -21.864454 -125.286766 0.727321 -0.676744 -0.114115 0.178620 0.544984 146 69 62 255
157.097595 -21.782597 -127.880310 -0.744769 0.664636 0.059808 0.201580 0.625000 147 133 102 255
156.475220 -22.634447 -126.164078 -0.744769 0.664636 0.059808 0.125000 0.625000 147 133 102 255
157.037994 -21.980185 -126.426743 -0.744769 0.664636 0.059808 0.199631 0.625000 147 133 102 255
155.437119 -19.772739 -126.006844 0.994081 -0.002590 -0.108610 0.260191 0.571699 146 69 62 255
155.299362 -20.006201 -127.262123 0.994081 -0.002590 -0.108610 0.190716 0.581212 146 69 62 255
155.280594 -19.714373 -127.440865 0.994081 -0.002590 -0.108610 0.255652 0.568480 146 69 62 255
155.299362 -20.006201 -127.262123 -0.375958 -0.923790 -0.072577 0.190716 0.581212 146 69 62 255
156.329575 -20.514799 -126.125092 -0.375958 -0.923790 -0.072577 0.194071 0.603827 146 69 62 255
155.494324 -20.195127 -125.867302 -0.375958 -0.923790 -0.072577 0.189320 0.585732 146 69 62 255
154.054611 -20.504639 -126.961548 0.356103 -0.910302 -0.211047 0.185434 0.559922 146 69 62 255
155.494324 -20.195127 -125.867302 0.356103 -0.910302 -0.211047 0.189320 0.585732 146 69 62 255
154.388229 -20.689821 -125.599884 0.356103 -0.910302 -0.211047 0.184391 0.566962 146 69 62 255
156.456894 -20.550055 -127.608276 -0.903634 -0.422951 -0.067516 0.196800 0.605731 146 69 62 255
157.037994 -21.980185 -126.426743 -0.903634 -0.422951 -0.067516 0.199631 0.625000 146 69 62 255
156.329575 -20.514799 -126.125092 -0.903634 -0.422951 -0.067516 0.194071 0.603827 146 69 62 255
155.280594 -19.714373 -127.440865 -0.022919 -0.999009 -0.038160 0.255652 0.568480 146 69 62 255
156.489471 -19.785681 -126.300087 -0.022919 -0.999009 -0.038160 0.270255 0.593406 146 69 62 255
155.437119 -19.772739 -126.006844 -0.022919 -0.999009 -0.038160 0.260191 0.571699 146 69 62 255
153.843658 -19.711159 -127.074142 -0.015915 -0.999299 -0.033896 0.245781 0.540806 146 69 62 255
155.437119 -19.772739 -126.006844 -0.015915 -0.999299 -0.033896 0.260191 0.571699 146 69 62 255
154.099716 -19.760696 -125.733932 -0.015915 -0.999299 -0.033896 0.250824 0.551495 146 69 62 255
156.698975 -19.717741 -127.825188 -0.033346 -0.998239 -0.049050 0.265996 0.597482 146 69 62 255
157.681015 -19.804514 -126.726868 -0.033346 -0.998239 -0.049050 0.284904 0.625000 146 69 62 255
156.489471 -19.785681 -126.300087 -0.033346 -0.998239 -0.049050 0.270255 0.593406 146 69 62 255
154.099716 -19.760696 -125.733932 0.957477 0.229800 -0.174440 0.250824 0.551495 146 69 62 255
154.054611 -20.504639 -126.961548 0.957477 0.229800 -0.174440 0.185434 0.559922 146 69 62 255
153.843658 -19.711159 -127.074142 0.957477 0.229800 -0.174440 0.245781 0.540806 146 69 62 255
156.489471 -19.785681 -126.300087 -0.977189 0.193065 -0.088473 0.270255 0.593406 146 69 62 255
156.456894 -20.550055 -127.608276 -0.977189 0.193065 -0.088473 0.196800 0.605731 146 69 62 255
156.329575 -20.514799 -126.125092 -0.977189 0.193065 -0.088473 0.194071 0.603827 146 69 62 255
153.074707 -19.745113 -125.380821 0.599210 0.800483 -0.013170 0.238704 0.525356 146 69 62 255
154.054611 -20.504639 -126.961548 0.599210 0.800483 -0.013170 0.185434 0.559922 146 69 62 255
152.994293 -19.709311 -126.863335 0.599210 0.800483 -0.013170 0.240107 0.524897 146 69 62 255
157.681015 -19.804514 -126.726868 0.535280 -0.844164 -0.029372 0.284904 0.625000 146 69 62 255
156.456894 -20.550055 -127.608276 0.535280 -0.844164 -0.029372 0.196800 0.605731 146 69 62 255
157.732544 -19.720938 -128.189835 0.535280 -0.844164 -0.029372 0.275811 0.625000 146 69 62 255
157.797180 -18.884708 -127.096581 -0.993075 0.113976 -0.028467 0.292880 0.625000 0 0 0 255
157.732544 -19.720938 -128.189835 -0.993075 0.113976 -0.028467 0.275811 0.625000 0 0 0 255
157.681015 -19.804514 -126.726868 -0.993075 0.113976 -0.028467 0.284904 0.625000 0 0 0 255
152.938782 -18.915970 -126.668938 0.991176 0.130992 -0.020278 0.263378 0.517295 147 133 102 255
152.631165 -17.127615 -130.152527 0.991176 0.130992 -0.020278 0.316321 0.500000 147 133 102 255
152.726303 -17.127615 -125.502312 0.991176 0.130992 -0.020278 0.316321 0.500000 147 133 102 255
155.950500 -19.936226 -118.926102 0.745618 -0.092484 -0.659925 0.216503 0.532608 147 133 102 255
154.431595 -17.127615 -121.035851 0.745618 -0.092484 -0.659925 0.316321 0.500000 147 133 102 255
158.358292 -17.014389 -116.615128 0.745618 -0.092484 -0.659925 0.316321 0.500000 147 133 102 255
155.466873 -19.684990 -123.851051 -0.036350 0.991142 -0.127737 0.223979 0.530166 115 196 116 255
153.612946 -19.869177 -124.752640 -0.036350 0.991142 -0.127737 0.226546 0.529327 115 196 116 255
153.886734 -19.688379 -123.427696 -0.036350 0.991142 -0.127737 0.228803 0.528590 115 196 116 255
155.950500 -19.936226 -118.926102 0.790007 -0.087466 -0.606826 0.216503 0.532608 147 133 102 255
158.228287 -21.886917 -115.679558 0.790007 -0.087466 -0.606826 0.125000 0.562500 147 133 102 255
156.153717 -21.960508 -118.369766 0.790007 -0.087466 -0.606826 0.125000 0.562500 147 133 102 255
155.879288 -22.505934 -123.927254 0.935006 0.145744 -0.323300 0.125000 0.562500 147 133 102 255
156.224731 -19.850174 -121.730988 0.935006 0.145744 -0.323300 0.214488 0.533266 147 133 102 255
156.649078 -22.505934 -121.700966 0.935006 0.145744 -0.323300 0.125000 0.562500 147 133 102 255
153.920486 -22.505934 -124.933052 0.454907 0.090438 -0.885935 0.125000 0.562500 147 133 102 255
155.466873 -19.684990 -123.851051 0.454907 0.090438 -0.885935 0.223979 0.530166 147 133 102 255
155.879288 -22.505934 -123.927254 0.454907 0.090438 -0.885935 0.125000 0.562500 147 133 102 255
154.757660 -19.819176 -120.533020 0.050093 0.998113 0.035519 0.220575 0.531278 115 196 116 255
155.950500 -19.936226 -118.926102 0.050093 0.998113 0.035519 0.216503 0.532608 115 196 116 255
156.224731 -19.850174 -121.730988 0.050093 0.998113 0.035519 0.214488 0.533266 115 196 116 255
154.757660 -19.819176 -120.533020 0.956493 0.062639 -0.284951 0.220575 0.531278 147 133 102 255
153.886734 -19.688379 -123.427696 0.956493 0.062639 -0.284951 0.228803 0.528590 147 133 102 255
154.431595 -17.127615 -121.035851 0.956493 0.062639 -0.284951 0.316321 0.500000 147 133 102 255
152.726303 -17.127615 -125.502312 0.944574 0.111394 -0.308822 0.316321 0.500000 147 133 102 255
153.687057 -19.743155 -123.507156 0.944574 0.111394 -0.308822 0.241707 0.524375 147 133 102 255
153.074707 -19.745113 -125.380821 0.944574 0.111394 -0.308822 0.238704 0.525356 147 133 102 255
153.687057 -19.743155 -123.507156 0.348479 0.930252 -0.114862 0.241707 0.524375 115 196 116 255
153.612946 -19.869177 -124.752640 0.348479 0.930252 -0.114862 0.226546 0.529327 115 196 116 255
153.074707 -19.745113 -125.380821 0.348479 0.930252 -0.114862 0.238704 0.525356 115 196 116 255
153.886734 -19.688379 -123.427696 0.187066 0.648992 -0.737439 0.228803 0.528590 115 196 116 255
154.195190 -17.141735 -121.108246 0.187066 0.648992 -0.737439 0.315836 0.500158 115 196 116 255
154.431595 -17.127615 -121.035851 0.187066 0.648992 -0.737439 0.316321 0.500000 115 196 116 255
162.596054 -18.102728 -116.813927 0.104753 0.992297 -0.066136 0.270464 0.625000 115 196 116 255
161.522552 -18.155350 -119.303757 0.104753 0.992297 -0.066136 0.273179 0.625000 115 196 116 255
159.729599 -17.871183 -117.880020 0.104753 0.992297 -0.066136 0.265338 0.625000 115 196 116 255
161.522552 -18.155350 -119.303757 0.233816 0.966974 0.101451 0.273179 0.625000 115 196 116 255
158.578629 -17.406771 -119.653885 0.233816 0.966974 0.101451 0.262535 0.625000 115 196 116 255
159.729599 -17.871183 -117.880020 0.233816 0.966974 0.101451 0.265338 0.625000 115 196 116 255
157.675400 -22.281992 -118.999359 -0.790057 0.223036 0.571021 0.125000 0.625000 147 133 102 255
159.729599 -17.871183 -117.880020 -0.790057 0.223036 0.571021 0.265338 0.625000 147 133 102 255
158.578629 -17.406771 -119.653885 -0.790057 0.223036 0.571021 0.262535 0.625000 147 133 102 255
162.211304 -22.213875 -115.791428 -0.296008 0.271311 0.915844 0.125000 0.625000 147 133 102 255
159.729599 -17.871183 -117.880020 -0.296008 0.271311 0.915844 0.265338 0.625000 147 133 102 255
159.107071 -22.409872 -116.736679 -0.296008 0.271311 0.915844 0.125000 0.625000 147 133 102 255
159.268677 -17.899521 -122.353088 -0.952796 0.140381 -0.269208 0.269191 0.625000 147 133 102 255
157.675400 -22.281992 -118.999359 -0.952796 0.140381 -0.269208 0.125000 0.625000 147 133 102 255
158.578629 -17.406771 -119.653885 -0.952796 0.140381 -0.269208 0.262535 0.625000 147 133 102 255
155.936081 -20.132256 -118.914528 0.690939 0.000100 -0.722913 0.125000 0.575177 216 151 20 255
156.966110 -20.169403 -117.930061 0.690939 0.000100 -0.722913 0.125000 0.572347 216 151 20 255
156.195358 -20.348755 -118.666748 0.690939 0.000100 -0.722913 0.125000 0.574479 216 151 20 255
156.978745 -20.390541 -117.917953 0.690924 0.000113 -0.722927 0.125000 0.572327 35 53 102 255
157.330597 -20.458954 -117.581688 0.690924 0.000113 -0.722927 0.125000 0.571364 35 53 102 255
156.984253 -20.587723 -117.912720 0.690924 0.000113 -0.722927 0.125000 0.572325 35 53 102 255
157.027695 -20.895355 -117.871185 0.690944 0.000074 -0.722908 0.125000 0.572226 216 151 20 255
157.452637 -20.990269 -117.465042 0.690944 0.000074 -0.722908 0.125000 0.571064 216 151 20 255
155.958694 -21.071182 -118.892937 0.690944 0.000074 -0.722908 0.125000 0.575177 216 151 20 255
156.559296 -21.000309 -118.318893 0.690943 0.000000 -0.722909 0.125000 0.575177 216 151 20 255
157.053619 -22.106369 -117.846428 0.690943 0.000000 -0.722909 0.125000 0.571064 216 151 20 255
156.559296 -22.121750 -118.318893 0.690943 0.000000 -0.722909 0.125000 0.575177 216 151 20 255
156.407837 -22.634447 -129.673859 -0.947731 0.282659 0.148020 0.125000 0.625000 147 133 102 255
152.549973 -15.528902 -133.725281 0.989566 0.138559 0.039513 0.316321 0.500000 147 133 102 255
153.281464 -20.907221 -133.184814 0.046758 0.912180 0.407114 0.125000 0.562500 115 196 116 255
158.084366 -16.920765 -129.850342 -0.993740 0.108080 -0.028290 0.314022 0.625000 147 133 102 255
157.732544 -19.720938 -128.189835 -0.993740 0.108080 -0.028290 0.275811 0.625000 147 133 102 255
157.819611 -18.804926 -127.748642 -0.993740 0.108080 -0.028290 0.291174 0.625000 147 133 102 255
157.797180 -18.884708 -127.096581 -0.992882 0.117452 -0.019759 0.292880 0.625000 147 133 102 255
157.681015 -19.804514 -126.726868 -0.992882 0.117452 -0.019759 0.284904 0.625000 147 133 102 255
158.024185 -16.920765 -126.829353 -0.992882 0.117452 -0.019759 0.314022 0.625000 147 133 102 255
158.084366 -16.920765 -129.850342 -0.992881 0.117453 -0.019779 0.314022 0.625000 147 133 102 255
157.819611 -18.804926 -127.748642 -0.992881 0.117453 -0.019779 0.291174 0.625000 147 133 102 255
158.024185 -16.920765 -126.829353 -0.992881 0.117453 -0.019779 0.314022 0.625000 147 133 102 255
153.275772 -21.693607 -126.737396 0.936394 0.350937 -0.002972 0.181495 0.544044 147 133 102 255
153.344406 -21.864454 -125.286766 0.936394 0.350937 -0.002972 0.178620 0.544984 147 133 102 255
153.585083 -22.505934 -125.202835 0.936394 0.350937 -0.002972 0.125000 0.562500 147 133 102 255
153.362656 -22.505934 -129.612061 0.043691 0.999043 -0.002204 0.125000 0.562500 115 196 116 255
153.585083 -22.505934 -125.202835 0.043691 0.999043 -0.002204 0.125000 0.562500 115 196 116 255
156.475220 -22.634447 -126.164078 0.043691 0.999043 -0.002204 0.125000 0.625000 115 196 116 255
159.069290 -16.920765 -123.232948 -0.952955 0.123245 0.276926 0.314022 0.625000 147 133 102 255
158.024185 -16.920765 -126.829353 -0.952955 0.123245 0.276926 0.314022 0.625000 147 133 102 255
157.681015 -19.804514 -126.726868 -0.952955 0.123245 0.276926 0.284904 0.625000 147 133 102 255
157.681015 -19.804514 -126.726868 -0.931120 0.303162 0.202750 0.284904 0.625000 147 133 102 255
157.037994 -21.980185 -126.426743 -0.931120 0.303162 0.202750 0.199631 0.625000 147 133 102 255
157.748535 -22.634447 -122.185333 -0.931120 0.303162 0.202750 0.125000 0.625000 147 133 102 255
157.037994 -21.980185 -126.426743 -0.693401 0.685530 0.221909 0.199631 0.625000 147 133 102 255
156.475220 -22.634447 -126.164078 -0.693401 0.685530 0.221909 0.125000 0.625000 147 133 102 255
157.748535 -22.634447 -122.185333 -0.693401 0.685530 0.221909 0.125000 0.625000 147 133 102 255
153.920486 -22.505934 -124.933052 0.621274 0.132037 -0.772389 0.125000 0.562500 147 133 102 255
153.585083 -22.505934 -125.202835 0.621274 0.132037 -0.772389 0.125000 0.562500 147 133 102 255
153.344406 -21.864454 -125.286766 0.621274 0.132037 -0.772389 0.178620 0.544984 147 133 102 255
153.344406 -21.864454 -125.286766 0.764251 0.068798 -0.641239 0.178620 0.544984 147 133 102 255
153.074707 -19.745113 -125.380821 0.764251 0.068798 -0.641239 0.238704 0.525356 147 133 102 255
153.612946 -19.869177 -124.752640 0.764251 0.068798 -0.641239 0.226546 0.529327 147 133 102 255
156.475220 -22.634447 -126.164078 0.031419 0.998743 -0.039061 0.125000 0.625000 115 196 116 255
153.585083 -22.505934 -125.202835 0.031419 0.998743 -0.039061 0.125000 0.562500 115 196 116 255
153.920486 -22.505934 -124.933052 0.031419 0.998743 -0.039061 0.125000 0.562500 115 196 116 255
155.879288 -22.505934 -123.927254 0.100857 0.994290 -0.034874 0.125000 0.562500 115 196 116 255
156.649078 -22.505934 -121.700966 0.100857 0.994290 -0.034874 0.125000 0.562500 115 196 116 255
157.748535 -22.634447 -122.185333 0.100857 0.994290 -0.034874 0.125000 0.625000 115 196 116 255
156.475220 -22.634447 -126.164078 0.025909 0.998390 -0.050458 0.125000 0.625000 115 196 116 255
153.920486 -22.505934 -124.933052 0.025909 0.998390 -0.050458 0.125000 0.562500 115 196 116 255
155.879288 -22.505934 -123.927254 0.025909 0.998390 -0.050458 0.125000 0.562500 115 196 116 255
159.069290 -16.920765 -123.232948 -0.820153 0.280967 0.498404 0.314022 0.625000 147 133 102 255
157.748535 -22.634447 -122.185333 -0.820153 0.280967 0.498404 0.125000 0.625000 147 133 102 255
159.268677 -17.899521 -122.353088 -0.820153 0.280967 0.498404 0.269191 0.625000 147 133 102 255
159.268677 -17.899521 -122.353088 -0.761697 0.276100 0.586163 0.269191 0.625000 147 133 102 255
161.522552 -18.155350 -119.303757 -0.761697 0.276100 0.586163 0.273179 0.625000 147 133 102 255
161.752960 -16.920765 -119.585876 -0.761697 0.276100 0.586163 0.314022 0.625000 147 133 102 255
156.649078 -22.505934 -121.700966 0.982258 0.158089 0.100884 0.125000 0.562500 147 133 102 255
156.224731 -19.850174 -121.730988 0.982258 0.158089 0.100884 0.214488 0.533266 147 133 102 255
155.950500 -19.936226 -118.926102 0.982258 0.158089 0.100884 0.216503 0.532608 147 133 102 255
157.675400 -22.281992 -118.999359 0.068282 0.991787 -0.108151 0.125000 0.625000 115 196 116 255
157.748535 -22.634447 -122.185333 0.068282 0.991787 -0.108151 0.125000 0.625000 115 196 116 255
156.649078 -22.505934 -121.700966 0.068282 0.991787 -0.108151 0.125000 0.562500 115 196 116 255
156.649078 -22.505934 -121.700966 0.149729 0.979044 -0.138036 0.125000 0.562500 115 196 116 255
156.153717 -21.960508 -118.369766 0.149729 0.979044 -0.138036 0.125000 0.562500 115 196 116 255
157.675400 -22.281992 -118.999359 0.149729 0.979044 -0.138036 0.125000 0.625000 115 196 116 255
156.153717 -21.960508 -118.369766 0.272112 0.933037 -0.235364 0.125000 0.562500 115 196 116 255
158.228287 -21.886917 -115.679558 0.272112 0.933037 -0.235364 0.125000 0.562500 115 196 116 255
159.107071 -22.409872 -116.736679 0.272112 0.933037 -0.235364 0.125000 0.625000 115 196 116 255
164.910492 -16.920765 -117.074661 -0.599490 0.269116 0.753782 0.314022 0.625000 147 133 102 255
161.752960 -16.920765 -119.585876 -0.599490 0.269116 0.753782 0.314022 0.625000 147 133 102 255
163.581390 -18.026222 -117.737038 -0.599490 0.269116 0.753782 0.277516 0.625000 147 133 102 255
161.752960 -16.920765 -119.585876 -0.592005 0.282930 0.754640 0.314022 0.625000 147 133 102 255
161.522552 -18.155350 -119.303757 -0.592005 0.282930 0.754640 0.273179 0.625000 147 133 102 255
163.581390 -18.026222 -117.737038 -0.592005 0.282930 0.754640 0.277516 0.625000 147 133 102 255
163.581390 -18.026222 -117.737038 0.599783 0.428543 0.675730 0.277516 0.625000 147 133 102 255
162.596054 -18.102728 -116.813927 0.599783 0.428543 0.675730 0.270464 0.625000 147 133 102 255
164.340363 -22.634447 -115.488205 0.599783 0.428543 0.675730 0.125000 0.625000 147 133 102 255
162.596054 -18.102728 -116.813927 -0.088361 0.248197 0.964671 0.270464 0.625000 147 133 102 255
162.211304 -22.213875 -115.791428 -0.088361 0.248197 0.964671 0.125000 0.625000 147 133 102 255
164.340363 -22.634447 -115.488205 -0.088361 0.248197 0.964671 0.125000 0.625000 147 133 102 255
158.228287 -21.886917 -115.679558 0.525117 -0.173966 -0.833059 0.125000 0.562500 147 133 102 255
158.358292 -17.014389 -116.615128 0.525117 -0.173966 -0.833059 0.316321 0.500000 147 133 102 255
163.536667 -16.803068 -113.395081 0.525117 -0.173966 -0.833059 0.316321 0.500000 147 133 102 255
162.211304 -22.213875 -115.791428 0.063859 0.914572 -0.399350 0.125000 0.625000 115 196 116 255
159.107071 -22.409872 -116.736679 0.063859 0.914572 -0.399350 0.125000 0.625000 115 196 116 255
158.228287 -21.886917 -115.679558 0.063859 0.914572 -0.399350 0.125000 0.562500 115 196 116 255
158.228287 -21.886917 -115.679558 0.083589 0.993962 0.071077 0.125000 0.562500 115 196 116 255
163.071808 -22.505934 -112.719170 0.083589 0.993962 0.071077 0.125000 0.562500 115 196 116 255
162.211304 -22.213875 -115.791428 0.083589 0.993962 0.071077 0.125000 0.625000 115 196 116 255
152.994293 -19.709311 -126.863335 0.997230 0.073119 -0.013634 0.240107 0.524897 0 0 0 255
152.938782 -18.915970 -126.668938 0.997230 0.073119 -0.013634 0.263378 0.517295 0 0 0 255
152.943192 -18.818810 -125.825294 0.997230 0.073119 -0.013634 0.266197 0.516374 0 0 0 255
157.037994 -21.980185 -126.426743 -0.959023 0.283328 -0.000809 0.199631 0.625000 147 133 102 255
157.681015 -19.804514 -126.726868 -0.959023 0.283328 -0.000809 0.284904 0.625000 147 133 102 255
157.097595 -21.782597 -127.880310 -0.959023 0.283328 -0.000809 0.201580 0.625000 147 133 102 255
157.681015 -19.804514 -126.726868 -0.956279 0.291962 -0.017003 0.284904 0.625000 147 133 102 255
157.732544 -19.720938 -128.189835 -0.956279 0.291962 -0.017003 0.275811 0.625000 147 133 102 255
157.097595 -21.782597 -127.880310 -0.956279 0.291962 -0.017003 0.201580 0.625000 147 133 102 255
157.732544 -19.720938 -128.189835 -0.920308 0.278525 0.274695 0.275811 0.625000 147 133 102 255
158.084366 -16.920765 -129.850342 -0.920308 0.278525 0.274695 0.314022 0.625000 147 133 102 255
156.407837 -22.634447 -129.673859 -0.920308 0.278525 0.274695 0.125000 0.625000 147 133 102 255
152.994293 -19.709311 -126.863335 -0.010829 -0.999333 -0.034869 0.240107 0.524897 146 69 62 255
153.843658 -19.711159 -127.074142 -0.010829 -0.999333 -0.034869 0.245781 0.540806 146 69 62 255
154.099716 -19.760696 -125.733932 -0.010829 -0.999333 -0.034869 0.250824 0.551495 146 69 62 255
153.074707 -19.745113 -125.380821 0.991663 0.124765 -0.032225 0.238704 0.525356 147 133 102 255
153.344406 -21.864454 -125.286766 0.991663 0.124765 -0.032225 0.178620 0.544984 147 133 102 255
153.275772 -21.693607 -126.737396 0.991663 0.124765 -0.032225 0.181495 0.544044 147 133 102 255
153.275772 -21.693607 -126.737396 0.990127 0.139844 -0.009592 0.181495 0.544044 147 133 102 255
153.362656 -22.505934 -129.612061 0.990127 0.139844 -0.009592 0.125000 0.562500 147 133 102 255
152.994293 -19.709311 -126.863335 0.990127 0.139844 -0.009592 0.240107 0.524897 147 133 102 255
153.362656 -22.505934 -129.612061 0.990922 0.134378 -0.003924 0.125000 0.562500 147 133 102 255
152.631165 -17.127615 -130.152527 0.990922 0.134378 -0.003924 0.316321 0.500000 147 133 102 255
152.994293 -19.709311 -126.863335 0.990922 0.134378 -0.003924 0.240107 0.524897 147 133 102 255
153.275772 -21.693607 -126.737396 0.781934 -0.562756 -0.268113 0.181495 0.544044 146 69 62 255
154.054611 -20.504639 -126.961548 0.781934 -0.562756 -0.268113 0.185434 0.559922 146 69 62 255
154.388229 -20.689821 -125.599884 0.781934 -0.562756 -0.268113 0.184391 0.566962 146 69 62 255
157.097595 -21.782597 -127.880310 -0.792507 0.609672 0.015215 0.201580 0.625000 147 133 102 255
156.407837 -22.634447 -129.673859 -0.792507 0.609672 0.015215 0.125000 0.625000 147 133 102 255
156.475220 -22.634447 -126.164078 -0.792507 0.609672 0.015215 0.125000 0.625000 147 133 102 255
155.437119 -19.772739 -126.006844 0.987783 0.092296 -0.125566 0.260191 0.571699 146 69 62 255
155.494324 -20.195127 -125.867302 0.987783 0.092296 -0.125566 0.189320 0.585732 146 69 62 255
155.299362 -20.006201 -127.262123 0.987783 0.092296 -0.125566 0.190716 0.581212 146 69 62 255
155.299362 -20.006201 -127.262123 -0.428949 -0.903198 -0.015353 0.190716 0.581212 146 69 62 255
156.456894 -20.550055 -127.608276 -0.428949 -0.903198 -0.015353 0.196800 0.605731 146 69 62 255
156.329575 -20.514799 -126.125092 -0.428949 -0.903198 -0.015353 0.194071 0.603827 146 69 62 255
154.054611 -20.504639 -126.961548 0.330159 -0.928147 -0.171864 0.185434 0.559922 146 69 62 255
155.299362 -20.006201 -127.262123 0.330159 -0.928147 -0.171864 0.190716 0.581212 146 69 62 255
155.494324 -20.195127 -125.867302 0.330159 -0.928147 -0.171864 0.189320 0.585732 146 69 62 255
156.456894 -20.550055 -127.608276 -0.891698 -0.442187 -0.096670 0.196800 0.605731 146 69 62 255
157.097595 -21.782597 -127.880310 -0.891698 -0.442187 -0.096670 0.201580 0.625000 146 69 62 255
157.037994 -21.980185 -126.426743 -0.891698 -0.442187 -0.096670 0.199631 0.625000 146 69 62 255
155.280594 -19.714373 -127.440865 -0.014986 -0.998803 -0.046553 0.255652 0.568480 146 69 62 255
156.698975 -19.717741 -127.825188 -0.014986 -0.998803 -0.046553 0.265996 0.597482 146 69 62 255
156.489471 -19.785681 -126.300087 -0.014986 -0.998803 -0.046553 0.270255 0.593406 146 69 62 255
153.843658 -19.711159 -127.074142 -0.012272 -0.999151 -0.039327 0.245781 0.540806 146 69 62 255
155.280594 -19.714373 -127.440865 -0.012272 -0.999151 -0.039327 0.255652 0.568480 146 69 62 255
155.437119 -19.772739 -126.006844 -0.012272 -0.999151 -0.039327 0.260191 0.571699 146 69 62 255
156.698975 -19.717741 -127.825188 -0.023494 -0.998049 -0.057844 0.265996 0.597482 146 69 62 255
157.732544 -19.720938 -128.189835 -0.023494 -0.998049 -0.057844 0.275811 0.625000 146 69 62 255
157.681015 -19.804514 -126.726868 -0.023494 -0.998049 -0.057844 0.284904 0.625000 146 69 62 255
154.099716 -19.760696 -125.733932 0.944253 0.265033 -0.195305 0.250824 0.551495 146 69 62 255
154.388229 -20.689821 -125.599884 0.944253 0.265033 -0.195305 0.184391 0.566962 146 69 62 255
154.054611 -20.504639 -126.961548 0.944253 0.265033 -0.195305 0.185434 0.559922 146 69 62 255
156.489471 -19.785681 -126.300087 -0.961168 0.248028 -0.120987 0.270255 0.593406 146 69 62 255
156.698975 -19.717741 -127.825188 -0.961168 0.248028 -0.120987 0.265996 0.597482 146 69 62 255
156.456894 -20.550055 -127.608276 -0.961168 0.248028 -0.120987 0.196800 0.605731 146 69 62 255
153.074707 -19.745113 -125.380821 0.580135 0.813913 -0.031448 0.238704 0.525356 146 69 62 255
154.388229 -20.689821 -125.599884 0.580135 0.813913 -0.031448 0.184391 0.566962 146 69 62 255
154.054611 -20.504639 -126.961548 0.580135 0.813913 -0.031448 0.185434 0.559922 146 69 62 255
157.681015 -19.804514 -126.726868 0.485970 -0.871742 0.062438 0.284904 0.625000 146 69 62 255
156.329575 -20.514799 -126.125092 0.485970 -0.871742 0.062438 0.194071 0.603827 146 69 62 255
156.456894 -20.550055 -127.608276 0.485970 -0.871742 0.062438 0.196800 0.605731 146 69 62 255
157.797180 -18.884708 -127.096581 -0.994263 0.104802 -0.021379 0.292880 0.625000 0 0 0 255
157.819611 -18.804926 -127.748642 -0.994263 0.104802 -0.021379 0.291174 0.625000 0 0 0 255
157.732544 -19.720938 -128.189835 -0.994263 0.104802 -0.021379 0.275811 0.625000 0 0 0 255
152.938782 -18.915970 -126.668938 0.995635 0.081018 -0.046327 0.263378 0.517295 147 133 102 255
152.994293 -19.709311 -126.863335 0.995635 0.081018 -0.046327 0.240107 0.524897 147 133 102 255
152.631165 -17.127615 -130.152527 0.995635 0.081018 -0.046327 0.316321 0.500000 147 133 102 255
152.726303 -17.127615 -125.502312 0.991176 0.130989 -0.020292 0.316321 0.500000 147 133 102 255
153.074707 -19.745113 -125.380821 0.991176 0.130989 -0.020292 0.238704 0.525356 147 133 102 255
152.943192 -18.818810 -125.825294 0.991176 0.130989 -0.020292 0.266197 0.516374 147 133 102 255
152.943192 -18.818810 -125.825294 0.991177 0.130985 -0.020266 0.266197 0.516374 147 133 102 255
152.938782 -18.915970 -126.668938 0.991177 0.130985 -0.020266 0.263378 0.517295 147 133 102 255
152.726303 -17.127615 -125.502312 0.991177 0.130985 -0.020266 0.316321 0.500000 147 133 102 255
155.950500 -19.936226 -118.926102 0.802373 -0.014263 -0.596653 0.216503 0.532608 147 133 102 255
154.757660 -19.819176 -120.533020 0.802373 -0.014263 -0.596653 0.220575 0.531278 147 133 102 255
154.431595 -17.127615 -121.035851 0.802373 -0.014263 -0.596653 0.316321 0.500000 147 133 102 255
154.757660 -19.819176 -120.533020 0.046509 0.998433 0.031121 0.220575 0.531278 115 196 116 255
156.224731 -19.850174 -121.730988 0.046509 0.998433 0.031121 0.214488 0.533266 115 196 116 255
153.886734 -19.688379 -123.427696 0.046509 0.998433 0.031121 0.228803 0.528590 115 196 116 255
156.224731 -19.850174 -121.730988 0.017047 0.997287 0.071610 0.214488 0.533266 115 196 116 255
155.466873 -19.684990 -123.851051 0.017047 0.997287 0.071610 0.223979 0.530166 115 196 116 255
153.886734 -19.688379 -123.427696 0.017047 0.997287 0.071610 0.228803 0.528590 115 196 116 255
155.950500 -19.936226 -118.926102 0.768919 -0.140284 -0.623766 0.216503 0.532608 147 133 102 255
158.358292 -17.014389 -116.615128 0.768919 -0.140284 -0.623766 0.316321 0.500000 147 133 102 255
158.228287 -21.886917 -115.679558 0.768919 -0.140284 -0.623766 0.125000 0.562500 147 133 102 255
155.879288 -22.505934 -123.927254 0.935169 0.145443 -0.322962 0.125000 0.562500 147 133 102 255
155.466873 -19.684990 -123.851051 0.935169 0.145443 -0.322962 0.223979 0.530166 147 133 102 255
156.224731 -19.850174 -121.730988 0.935169 0.145443 -0.322962 0.214488 0.533266 147 133 102 255
153.920486 -22.505934 -124.933052 0.425684 0.111095 -0.898026 0.125000 0.562500 147 133 102 255
153.612946 -19.869177 -124.752640 0.425684 0.111095 -0.898026 0.226546 0.529327 147 133 102 255
155.466873 -19.684990 -123.851051 0.425684 0.111095 -0.898026 0.223979 0.530166 147 133 102 255
152.726303 -17.127615 -125.502312 0.943150 0.106202 -0.314943 0.316321 0.500000 147 133 102 255
154.195190 -17.141735 -121.108246 0.943150 0.106202 -0.314943 0.315836 0.500158 147 133 102 255
153.687057 -19.743155 -123.507156 0.943150 0.106202 -0.314943 0.241707 0.524375 147 133 102 255
153.687057 -19.743155 -123.507156 -0.232297 0.968991 -0.084223 0.241707 0.524375 115 196 116 255
153.886734 -19.688379 -123.427696 -0.232297 0.968991 -0.084223 0.228803 0.528590 115 196 116 255
153.612946 -19.869177 -124.752640 -0.232297 0.968991 -0.084223 0.226546 0.529327 115 196 116 255
153.886734 -19.688379 -123.427696 0.113564 0.661449 -0.741342 0.228803 0.528590 115 196 116 255
153.687057 -19.743155 -123.507156 0.113564 0.661449 -0.741342 0.241707 0.524375 115 196 116 255
154.195190 -17.141735 -121.108246 0.113564 0.661449 -0.741342 0.315836 0.500158 115 196 116 255
162.596054 -18.102728 -116.813927 -0.069239 0.997562 0.008770 0.270464 0.625000 115 196 116 255
163.581390 -18.026222 -117.737038 -0.069239 0.997562 0.008770 0.277516 0.625000 115 196 116 255
161.522552 -18.155350 -119.303757 -0.069239 0.997562 0.008770 0.273179 0.625000 115 196 116 255
161.522552 -18.155350 -119.303757 0.257170 0.960139 -0.109532 0.273179 0.625000 115 196 116 255
159.268677 -17.899521 -122.353088 0.257170 0.960139 -0.109532 0.269191 0.625000 115 196 116 255
158.578629 -17.406771 -119.653885 0.257170 0.960139 -0.109532 0.262535 0.625000 115 196 116 255
157.675400 -22.281992 -118.999359 -0.813073 0.244601 0.528282 0.125000 0.625000 147 133 102 255
159.107071 -22.409872 -116.736679 -0.813073 0.244601 0.528282 0.125000 0.625000 147 133 102 255
159.729599 -17.871183 -117.880020 -0.813073 0.244601 0.528282 0.265338 0.625000 147 133 102 255
162.211304 -22.213875 -115.791428 -0.318618 0.256757 0.912447 0.125000 0.625000 147 133 102 255
162.596054 -18.102728 -116.813927 -0.318618 0.256757 0.912447 0.270464 0.625000 147 133 102 255
159.729599 -17.871183 -117.880020 -0.318618 0.256757 0.912447 0.265338 0.625000 147 133 102 255
159.268677 -17.899521 -122.353088 -0.951241 0.303432 -0.055404 0.269191 0.625000 147 133 102 255
157.748535 -22.634447 -122.185333 -0.951241 0.303432 -0.055404 0.125000 0.625000 147 133 102 255
157.675400 -22.281992 -118.999359 -0.951241 0.303432 -0.055404 0.125000 0.625000 147 133 102 255
156.171509 -20.739841 -118.689499 0.690987 0.000019 -0.722867 0.125000 0.574570 216 151 20 255
155.958694 -21.071182 -118.892937 0.690987 0.000019 -0.722867 0.125000 0.575177 216 151 20 255
155.936081 -20.132256 -118.914528 0.690987 0.000019 -0.722867 0.125000 0.575177 216 151 20 255
157.430069 -20.051350 -117.486626 0.690939 -0.000018 -0.722913 0.125000 0.571064 216 151 20 255
157.330597 -20.458954 -117.581688 0.690939 -0.000018 -0.722913 0.125000 0.571364 216 151 20 255
156.966110 -20.169403 -117.930061 0.690939 -0.000018 -0.722913 0.125000 0.572347 216 151 20 255
156.966110 -20.169403 -117.930061 0.690964 -0.000103 -0.722890 0.125000 0.572347 216 151 20 255
156.978745 -20.390541 -117.917953 0.690964 -0.000103 -0.722890 0.125000 0.572327 216 151 20 255
156.195358 -20.348755 -118.666748 0.690964 -0.000103 -0.722890 0.125000 0.574479 216 151 20 255
156.195358 -20.348755 -118.666748 0.690864 -0.000072 -0.722985 0.125000 0.574479 216 151 20 255
156.171509 -20.739841 -118.689499 0.690864 -0.000072 -0.722985 0.125000 0.574570 216 151 20 255
155.936081 -20.132256 -118.914528 0.690864 -0.000072 -0.722985 0.125000 0.575177 216 151 20 255
155.936081 -20.132256 -118.914528 0.690937 -0.000001 -0.722915 0.125000 0.575177 216 151 20 255
157.430069 -20.051350 -117.486626 0.690937 -0.000001 -0.722915 0.125000 0.571064 216 151 20 255
156.966110 -20.169403 -117.930061 0.690937 -0.000001 -0.722915 0.125000 0.572347 216 151 20 255
156.984253 -20.587723 -117.912720 0.690939 -0.000081 -0.722913 0.125000 0.572325 35 53 102 255
156.171509 -20.739841 -118.689499 0.690939 -0.000081 -0.722913 0.125000 0.574570 35 53 102 255
156.195358 -20.348755 -118.666748 0.690939 -0.000081 -0.722913 0.125000 0.574479 35 53 102 255
156.978745 -20.390541 -117.917953 0.690901 -0.000110 -0.722949 0.125000 0.572327 35 53 102 255
156.966110 -20.169403 -117.930061 0.690901 -0.000110 -0.722949 0.125000 0.572347 35 53 102 255
157.330597 -20.458954 -117.581688 0.690901 -0.000110 -0.722949 0.125000 0.571364 35 53 102 255
156.984253 -20.587723 -117.912720 0.690970 0.000115 -0.722884 0.125000 0.572325 35 53 102 255
156.195358 -20.348755 -118.666748 0.690970 0.000115 -0.722884 0.125000 0.574479 35 53 102 255
156.978745 -20.390541 -117.917953 0.690970 0.000115 -0.722884 0.125000 0.572327 35 53 102 255
157.330597 -20.458954 -117.581688 0.690952 -0.000030 -0.722901 0.125000 0.571364 35 53 102 255
157.027695 -20.895355 -117.871185 0.690952 -0.000030 -0.722901 0.125000 0.572226 35 53 102 255
156.984253 -20.587723 -117.912720 0.690952 -0.000030 -0.722901 0.125000 0.572325 35 53 102 255
156.171509 -20.739841 -118.689499 0.690934 -0.000034 -0.722918 0.125000 0.574570 216 151 20 255
156.984253 -20.587723 -117.912720 0.690934 -0.000034 -0.722918 0.125000 0.572325 216 151 20 255
157.027695 -20.895355 -117.871185 0.690934 -0.000034 -0.722918 0.125000 0.572226 216 151 20 255
157.330597 -20.458954 -117.581688 0.690925 -0.000011 -0.722927 0.125000 0.571364 216 151 20 255
157.430069 -20.051350 -117.486626 0.690925 -0.000011 -0.722927 0.125000 0.571064 216 151 20 255
157.452637 -20.990269 -117.465042 0.690925 -0.000011 -0.722927 0.125000 0.571064 216 151 20 255
155.958694 -21.071182 -118.892937 0.690944 0.000072 -0.722908 0.125000 0.575177 216 151 20 255
156.171509 -20.739841 -118.689499 0.690944 0.000072 -0.722908 0.125000 0.574570 216 151 20 255
157.027695 -20.895355 -117.871185 0.690944 0.000072 -0.722908 0.125000 0.572226 216 151 20 255
157.027695 -20.895355 -117.871185 0.690935 -0.000007 -0.722917 0.125000 0.572226 216 151 20 255
157.330597 -20.458954 -117.581688 0.690935 -0.000007 -0.722917 0.125000 0.571364 216 151 20 255
157.452637 -20.990269 -117.465042 0.690935 -0.000007 -0.722917 0.125000 0.571064 216 151 20 255
157.053619 -20.984928 -117.846428 0.690943 0.000000 -0.722909 0.125000 0.571064 216 151 20 255
3 0 1 2
3 3 4 5
3 6 7 8
3 9 10 11
3 12 13 14
3 15 16 17
3 18 19 20
3 21 22 23
3 24 25 26
3 27 28 29
3 30 31 32
3 33 34 35
3 36 37 38
3 39 40 41
3 42 43 44
3 45 46 47
3 48 49 50
3 51 52 53
3 54 55 56
3 57 58 59
3 60 61 62
3 63 64 65
3 66 67 68
3 69 70 71
3 72 73 74
3 75 76 77
3 78 79 80
3 81 82 83
3 84 85 86
3 87 88 89
3 90 91 92
3 93 94 95
3 96 97 98
3 99 100 101
3 102 103 104
3 105 106 107
3 108 109 110
3 111 112 113
3 114 115 116
3 117 118 119
3 120 121 122
3 123 124 125
3 126 127 128
3 129 130 131
3 132 133 134
3 135 136 137
3 138 139 140
3 141 142 143
3 144 145 146
3 147 148 149
3 150 151 152
3 153 154 155
3 156 157 158
3 0 159 1
3 3 160 4
3 6 161 7
3 162 163 164
3 165 166 167
3 168 169 170
3 171 172 173
3 174 175 176
3 177 178 179
3 180 181 182
3 183 184 185
3 186 187 188
3 189 190 191
3 192 193 194
3 195 196 197
3 198 199 200
3 201 202 203
3 204 205 206
3 207 208 209
3 210 211 212
3 213 214 215
3 216 217 218
3 219 220 221
3 222 223 224
3 225 226 227
3 228 229 230
3 231 232 233
3 234 235 236
3 237 238 239
3 240 241 242
3 243 244 245
3 246 247 248
3 249 250 251
3 252 253 254
3 255 256 257
3 258 259 260
3 261 262 263
3 264 265 266
3 267 268 269
3 270 271 272
3 273 274 275
3 276 277 278
3 279 280 281
3 282 283 284
3 285 286 287
3 288 289 290
3 291 292 293
3 294 295 296
3 297 298 299
3 300 301 302
3 303 304 305
3 306 307 308
3 309 310 311
3 312 313 314
3 315 316 317
3 318 319 320
3 321 322 323
3 324 325 326
3 327 328 329
3 330 331 332
3 333 334 335
3 336 337 338
3 339 340 341
3 342 343 344
3 345 346 347
3 348 349 350
3 351 352 353
3 354 355 356
3 357 358 359
3 360 361 362
3 363 364 365
3 366 367 368
3 369 370 371
3 372 373 374
3 375 376 377
3 378 379 380
3 381 382 383
3 384 385 386
3 387 388 389
3 390 391 392
3 393 394 395
3 156 396 157
