ply
format ascii 1.0
comment Created by Blender 2.93.1 - www.blender.org
element vertex 368
property float x
property float y
property float z
property float nx
property float ny
property float nz
property float s
property float t
property uchar red
property uchar green
property uchar blue
property uchar alpha
element face 132
property list uchar uint vertex_indices
end_header
159.906342 -22.543875 -99.629410 -0.620653 0.000083 -0.784085 0.411277 0.036275 66 31 28 255
160.077805 -22.214869 -99.765099 -0.620653 0.000083 -0.784085 0.587753 0.213725 66 31 28 255
160.077606 -22.543619 -99.764977 -0.620653 0.000083 -0.784085 0.411277 0.213725 66 31 28 255
160.286224 -21.799818 -99.930099 0.784072 0.000000 -0.620670 0.623866 0.250000 146 69 62 255
160.751724 -20.831465 -99.342049 0.784072 0.000000 -0.620670 0.625000 0.500000 146 69 62 255
160.751724 -22.546415 -99.342049 0.784072 0.000000 -0.620670 0.375000 0.500000 146 69 62 255
160.751724 -20.831465 -99.342049 0.620675 -0.000000 0.784068 0.625000 0.500000 146 69 62 255
160.163681 -20.831465 -98.876549 0.620675 -0.000000 0.784068 0.625000 0.750000 146 69 62 255
160.163681 -22.546415 -98.876549 0.620675 -0.000000 0.784068 0.375000 0.750000 146 69 62 255
160.163681 -20.831465 -98.876549 -0.784076 0.000000 0.620665 0.625000 0.750000 146 69 62 255
159.698181 -22.546415 -99.464607 -0.784076 0.000000 0.620665 0.375000 1.000000 146 69 62 255
160.163681 -22.546415 -98.876549 -0.784076 0.000000 0.620665 0.375000 0.750000 146 69 62 255
160.751724 -22.546415 -99.342049 0.000000 -1.000000 0.000000 0.375000 0.500000 255 255 255 255
159.698181 -22.546415 -99.464607 0.000000 -1.000000 0.000000 0.125000 0.750000 255 255 255 255
160.286224 -22.546415 -99.930099 0.000000 -1.000000 0.000000 0.125000 0.500000 255 255 255 255
160.751724 -20.831465 -99.342049 0.584133 0.688940 -0.429128 0.625000 0.500000 178 136 64 255
160.005219 -20.426245 -99.707642 0.584133 0.688940 -0.429128 0.875000 0.619465 178 136 64 255
160.449539 -20.426245 -99.102829 0.584133 0.688940 -0.429128 0.625000 0.628473 178 136 64 255
160.449539 -20.426245 -99.102829 -0.582884 0.668844 0.461404 0.625000 0.628473 178 136 64 255
159.698181 -20.831465 -99.464607 -0.582884 0.668844 0.461404 0.875000 0.750000 178 136 64 255
160.163681 -20.831465 -98.876549 -0.582884 0.668844 0.461404 0.625000 0.750000 178 136 64 255
159.698181 -20.831465 -99.464607 -0.620669 0.000000 -0.784073 0.625000 0.000000 146 69 62 255
160.286224 -20.831465 -99.930099 -0.620669 0.000000 -0.784073 0.625000 0.250000 146 69 62 255
160.286224 -21.799818 -99.930099 -0.620669 0.000000 -0.784073 0.623866 0.250000 146 69 62 255
159.906342 -22.543875 -99.629410 -0.620652 -0.007328 -0.784052 0.411277 0.036275 146 69 62 255
160.286224 -22.546415 -99.930099 -0.620652 -0.007328 -0.784052 0.375000 0.250000 146 69 62 255
159.698181 -22.546415 -99.464607 -0.620652 -0.007328 -0.784052 0.375000 0.000000 146 69 62 255
159.906555 -22.213625 -99.629555 -0.620668 -0.000000 -0.784074 0.588558 0.036275 146 69 62 255
159.698181 -22.546415 -99.464607 -0.620668 -0.000000 -0.784074 0.375000 0.000000 146 69 62 255
159.698181 -20.831465 -99.464607 -0.620668 -0.000000 -0.784074 0.625000 0.000000 146 69 62 255
160.077805 -22.214869 -99.765099 -0.620626 0.000083 -0.784107 0.587753 0.213725 146 69 62 255
160.286224 -22.546415 -99.930099 -0.620626 0.000083 -0.784107 0.375000 0.250000 146 69 62 255
160.077606 -22.543619 -99.764977 -0.620626 0.000083 -0.784107 0.411277 0.213725 146 69 62 255
159.906555 -22.213625 -99.629555 -0.620623 -0.000069 -0.784109 0.588558 0.036275 146 69 62 255
160.286224 -21.799818 -99.930099 -0.620623 -0.000069 -0.784109 0.623866 0.250000 146 69 62 255
160.077805 -22.214869 -99.765099 -0.620623 -0.000069 -0.784109 0.587753 0.213725 146 69 62 255
161.029114 -16.920765 -97.586372 -0.701565 0.281193 -0.654780 0.314022 0.625000 147 133 102 255
157.388275 -22.634447 -96.139114 -0.701565 0.281193 -0.654780 0.125000 0.625000 147 133 102 255
158.477646 -16.920765 -94.852600 -0.701565 0.281193 -0.654780 0.314022 0.625000 147 133 102 255
160.478683 -16.803068 -103.336517 0.516034 0.240395 0.822143 0.316321 0.500000 147 133 102 255
155.623489 -22.505934 -98.621536 0.516034 0.240395 0.822143 0.125000 0.562500 147 133 102 255
161.473114 -22.505934 -102.293167 0.516034 0.240395 0.822143 0.125000 0.562500 147 133 102 255
160.067627 -22.567177 -100.083534 0.020996 0.999289 0.031305 0.125000 0.591079 115 196 116 255
156.425674 -22.571602 -97.499603 0.020996 0.999289 0.031305 0.125000 0.594436 115 196 116 255
157.388275 -22.634447 -96.139114 0.020996 0.999289 0.031305 0.125000 0.625000 115 196 116 255
157.388275 -22.634447 -96.139114 -0.951332 0.228051 -0.207270 0.125000 0.625000 147 133 102 255
158.143173 -16.920765 -93.317429 -0.951332 0.228051 -0.207270 0.314022 0.625000 147 133 102 255
158.477646 -16.920765 -94.852600 -0.951332 0.228051 -0.207270 0.314022 0.625000 147 133 102 255
155.623489 -22.505934 -98.621536 0.895296 0.170764 0.411442 0.125000 0.562500 147 133 102 255
152.136047 -16.803068 -93.399773 0.895296 0.170764 0.411442 0.316321 0.500000 147 133 102 255
153.415543 -23.654192 -93.340477 0.895296 0.170764 0.411442 0.125000 0.562500 147 133 102 255
156.367828 -22.988216 -95.024292 0.024433 0.914239 0.404438 0.125000 0.610491 115 196 116 255
155.948654 -23.761139 -93.251762 0.024433 0.914239 0.404438 0.125000 0.614512 115 196 116 255
156.459473 -23.782705 -93.233871 0.024433 0.914239 0.404438 0.125000 0.625000 115 196 116 255
156.459473 -23.782705 -93.233871 -0.763153 0.194756 0.616172 0.125000 0.625000 147 133 102 255
158.461075 -19.920765 -91.975471 -0.763153 0.194756 0.616172 0.314022 0.625000 147 133 102 255
158.143173 -16.920765 -93.317429 -0.763153 0.194756 0.616172 0.314022 0.625000 147 133 102 255
153.415543 -23.654192 -93.340477 0.959932 0.203345 -0.192827 0.125000 0.562500 147 133 102 255
153.576538 -19.803068 -88.477821 0.959932 0.203345 -0.192827 0.316321 0.500000 147 133 102 255
154.641693 -25.505934 -89.189194 0.959932 0.203345 -0.192827 0.125000 0.562500 147 133 102 255
156.459473 -23.782705 -93.233871 0.383479 0.774889 0.502484 0.125000 0.625000 115 196 116 255
156.610870 -25.606613 -90.536736 0.383479 0.774889 0.502484 0.125000 0.611463 115 196 116 255
157.155289 -25.634447 -90.909294 0.383479 0.774889 0.502484 0.125000 0.625000 115 196 116 255
159.813812 -22.542128 -100.467148 0.028916 0.998520 0.046068 0.125000 0.579233 115 196 116 255
161.384674 -22.536058 -101.584702 0.028916 0.998520 0.046068 0.125000 0.577151 115 196 116 255
161.473114 -22.505934 -102.293167 0.028916 0.998520 0.046068 0.125000 0.562500 115 196 116 255
161.309097 -22.561802 -100.979271 0.028916 0.998520 0.046069 0.125000 0.589671 178 136 64 255
159.813812 -22.542128 -100.467148 0.028916 0.998520 0.046069 0.125000 0.579233 178 136 64 255
160.067627 -22.567177 -100.083534 0.028916 0.998520 0.046069 0.125000 0.591079 178 136 64 255
156.425674 -22.571602 -97.499603 0.033502 0.998368 0.046255 0.125000 0.594436 178 136 64 255
158.541367 -22.546144 -99.581436 0.033502 0.998368 0.046255 0.125000 0.581264 178 136 64 255
156.134186 -22.543123 -97.903168 0.033502 0.998368 0.046255 0.125000 0.580586 178 136 64 255
159.813812 -22.542128 -100.467148 0.028916 0.998520 0.046070 0.125000 0.579233 178 136 64 255
158.541367 -22.546144 -99.581436 0.028916 0.998520 0.046070 0.125000 0.581264 178 136 64 255
160.067627 -22.567177 -100.083534 0.028916 0.998520 0.046070 0.125000 0.591079 178 136 64 255
156.134186 -22.543123 -97.903168 0.024949 0.999111 0.033987 0.125000 0.580586 115 196 116 255
158.541367 -22.546144 -99.581436 0.024949 0.999111 0.033987 0.125000 0.581264 115 196 116 255
155.623489 -22.505934 -98.621536 0.024949 0.999111 0.033987 0.125000 0.562500 115 196 116 255
158.293671 -22.543875 -98.368210 -0.625355 0.000069 -0.780340 0.411277 0.036275 66 31 28 255
158.464310 -22.214869 -98.504929 -0.625355 0.000069 -0.780340 0.587753 0.213725 66 31 28 255
158.464111 -22.543619 -98.504799 -0.625355 0.000069 -0.780340 0.411277 0.213725 66 31 28 255
159.052811 -21.799818 -98.947556 0.733955 0.000000 -0.679198 0.623866 0.250000 146 69 62 255
159.565247 -21.613554 -98.393806 0.733955 0.000000 -0.679198 0.625000 0.500000 146 69 62 255
159.565247 -22.546415 -98.393806 0.733955 0.000000 -0.679198 0.375000 0.500000 146 69 62 255
158.840027 -21.208334 -97.844910 0.601910 -0.000000 0.798564 0.625000 0.628473 146 69 62 255
158.079193 -21.613554 -97.271439 0.601910 -0.000000 0.798564 0.625000 0.750000 146 69 62 255
158.079193 -22.546415 -97.271439 0.601910 -0.000000 0.798564 0.375000 0.750000 146 69 62 255
158.079193 -21.613554 -97.271439 -0.733955 0.000000 0.679198 0.625000 0.750000 146 69 62 255
157.566757 -22.546415 -97.825188 -0.733955 0.000000 0.679198 0.375000 1.000000 146 69 62 255
158.079193 -22.546415 -97.271439 -0.733955 0.000000 0.679198 0.375000 0.750000 146 69 62 255
159.052811 -22.546415 -98.947556 0.000000 -1.000000 0.000000 0.125000 0.500000 255 255 255 255
158.079193 -22.546415 -97.271439 0.000000 -1.000000 0.000000 0.375000 0.750000 255 255 255 255
157.566757 -22.546415 -97.825188 0.000000 -1.000000 0.000000 0.125000 0.750000 255 255 255 255
159.052811 -21.613554 -98.947556 0.299915 0.912701 -0.277539 0.875000 0.500000 178 136 64 255
158.840027 -21.208334 -97.844910 0.299915 0.912701 -0.277539 0.625000 0.628473 178 136 64 255
159.565247 -21.613554 -98.393806 0.299915 0.912701 -0.277539 0.625000 0.500000 178 136 64 255
158.392075 -21.208334 -98.447037 -0.314024 0.920224 0.233618 0.875000 0.619465 178 136 64 255
158.079193 -21.613554 -97.271439 -0.314024 0.920224 0.233618 0.625000 0.750000 178 136 64 255
158.840027 -21.208334 -97.844910 -0.314024 0.920224 0.233618 0.625000 0.628473 178 136 64 255
159.052811 -21.799818 -98.947556 -0.603828 0.000000 -0.797115 0.623866 0.250000 146 69 62 255
158.392075 -21.208334 -98.447037 -0.603828 0.000000 -0.797115 0.625000 0.130535 146 69 62 255
159.052811 -21.613554 -98.947556 -0.603828 0.000000 -0.797115 0.625000 0.250000 146 69 62 255
158.293671 -22.543875 -98.368210 -0.282793 0.883081 -0.374427 0.411277 0.036275 146 69 62 255
159.052811 -22.546415 -98.947556 -0.282793 0.883081 -0.374427 0.375000 0.250000 146 69 62 255
157.566757 -22.546415 -97.825188 -0.282793 0.883081 -0.374427 0.375000 0.000000 146 69 62 255
158.293884 -22.213625 -98.368355 -0.598463 -0.000000 -0.801151 0.588558 0.036275 146 69 62 255
157.566757 -22.546415 -97.825188 -0.598463 -0.000000 -0.801151 0.375000 0.000000 146 69 62 255
157.566757 -21.613554 -97.825188 -0.598463 -0.000000 -0.801151 0.625000 0.000000 146 69 62 255
158.464310 -22.214869 -98.504929 -0.601070 0.000047 -0.799196 0.587753 0.213725 146 69 62 255
159.052811 -22.546415 -98.947556 -0.601070 0.000047 -0.799196 0.375000 0.250000 146 69 62 255
158.464111 -22.543619 -98.504799 -0.601070 0.000047 -0.799196 0.411277 0.213725 146 69 62 255
158.293884 -22.213625 -98.368355 -0.624199 0.053863 -0.779406 0.588558 0.036275 146 69 62 255
159.052811 -21.799818 -98.947556 -0.624199 0.053863 -0.779406 0.623866 0.250000 146 69 62 255
158.464310 -22.214869 -98.504929 -0.624199 0.053863 -0.779406 0.587753 0.213725 146 69 62 255
156.700317 -20.931665 -97.681923 0.000000 -1.000000 -0.000000 0.250000 0.490000 83 141 84 255
157.931595 -20.931665 -96.061623 0.000000 -1.000000 -0.000000 0.457846 0.130000 83 141 84 255
155.912735 -20.931665 -95.805435 0.000000 -1.000000 -0.000000 0.042154 0.130000 83 141 84 255
156.666779 -20.964125 -96.354065 -0.922061 0.000000 -0.387045 0.333333 1.000000 107 97 74 255
156.820740 -22.611246 -96.720848 -0.922061 0.000000 -0.387045 -0.000000 0.500000 107 97 74 255
156.666779 -22.611246 -96.354065 -0.922061 0.000000 -0.387045 0.333333 0.500000 107 97 74 255
157.061401 -20.964125 -96.404114 0.125819 0.000000 0.992053 0.666667 1.000000 107 97 74 255
156.666779 -22.611246 -96.354065 0.125819 0.000000 0.992053 0.333333 0.500000 107 97 74 255
157.061401 -22.611246 -96.404114 0.125819 0.000000 0.992053 0.666667 0.500000 107 97 74 255
156.820740 -20.964125 -96.720848 0.796231 0.000000 -0.604993 1.000000 1.000000 107 97 74 255
157.061401 -22.611246 -96.404114 0.796231 0.000000 -0.604993 0.666667 0.500000 107 97 74 255
156.820740 -22.611246 -96.720848 0.796231 0.000000 -0.604993 1.000000 0.500000 107 97 74 255
155.912735 -20.931665 -95.805435 -0.912546 0.143414 -0.383005 0.042154 0.130000 83 141 84 255
156.848236 -16.877577 -96.516327 -0.912546 0.143414 -0.383005 0.250000 0.250000 83 141 84 255
156.700317 -20.931665 -97.681923 -0.912546 0.143414 -0.383005 0.250000 0.490000 83 141 84 255
157.931595 -20.931665 -96.061623 0.124586 0.143410 0.981790 0.457846 0.130000 83 141 84 255
156.848236 -16.877577 -96.516327 0.124586 0.143410 0.981790 0.250000 0.250000 83 141 84 255
155.912735 -20.931665 -95.805435 0.124586 0.143410 0.981790 0.042154 0.130000 83 141 84 255
156.700317 -20.931665 -97.681923 0.787968 0.143407 -0.598783 0.250000 0.490000 83 141 84 255
156.848236 -16.877577 -96.516327 0.787968 0.143407 -0.598783 0.250000 0.250000 83 141 84 255
157.931595 -20.931665 -96.061623 0.787968 0.143407 -0.598783 0.457846 0.130000 83 141 84 255
155.468811 -22.941584 -95.503967 0.041591 0.998996 0.016643 0.125000 0.587231 178 136 64 255
154.952179 -22.922380 -95.365570 0.041591 0.998996 0.016643 0.125000 0.577238 178 136 64 255
155.945877 -22.972254 -94.855194 0.041591 0.998996 0.016643 0.125000 0.602641 178 136 64 255
154.952179 -22.922380 -95.365570 -0.388897 0.920515 0.037554 0.125000 0.577238 115 196 116 255
155.623489 -22.505934 -98.621536 -0.388897 0.920515 0.037554 0.125000 0.562500 115 196 116 255
153.415543 -23.654192 -93.340477 -0.388897 0.920515 0.037554 0.125000 0.562500 115 196 116 255
155.948654 -23.761139 -93.251762 0.024433 0.914239 0.404438 0.125000 0.614512 178 136 64 255
156.367828 -22.988216 -95.024292 0.024433 0.914239 0.404438 0.125000 0.610491 178 136 64 255
155.578094 -23.745495 -93.264740 0.024433 0.914239 0.404438 0.125000 0.606903 178 136 64 255
155.181641 -23.392233 -94.179276 0.981263 -0.071862 0.178772 0.411277 0.036275 66 31 28 255
155.139496 -23.167068 -93.857437 0.981263 -0.071862 0.178772 0.587753 0.213725 66 31 28 255
155.139557 -23.471981 -93.980339 0.981263 -0.071862 0.178772 0.411277 0.213725 66 31 28 255
154.975479 -23.049911 -93.036530 -0.122503 -0.370382 0.920766 0.623866 0.250000 146 69 62 255
154.226685 -22.842611 -93.052765 -0.122503 -0.370382 0.920766 0.625000 0.500000 146 69 62 255
154.226685 -23.708076 -93.400902 -0.122503 -0.370382 0.920766 0.375000 0.500000 146 69 62 255
154.426590 -22.135536 -93.724716 -0.975107 0.082752 -0.205716 0.625000 0.628473 146 69 62 255
154.637848 -22.164770 -94.737854 -0.975107 0.082752 -0.205716 0.625000 0.750000 146 69 62 255
154.637848 -23.030235 -95.085999 -0.975107 0.082752 -0.205716 0.375000 0.750000 146 69 62 255
154.637848 -22.164770 -94.737854 0.122501 0.370389 -0.920763 0.625000 0.750000 146 69 62 255
155.386642 -23.064728 -95.000252 0.122501 0.370389 -0.920763 0.375000 1.000000 146 69 62 255
154.637848 -23.030235 -95.085999 0.122501 0.370389 -0.920763 0.375000 0.750000 146 69 62 255
154.975479 -23.742571 -93.315155 -0.000000 -0.927753 -0.373196 0.125000 0.500000 255 255 255 255
154.637848 -23.030235 -95.085999 -0.000000 -0.927753 -0.373196 0.375000 0.750000 255 255 255 255
155.386642 -23.064728 -95.000252 -0.000000 -0.927753 -0.373196 0.125000 0.750000 255 255 255 255
154.975479 -22.877106 -92.967010 -0.050063 0.695410 0.716867 0.875000 0.500000 178 136 64 255
154.426590 -22.135536 -93.724716 -0.050063 0.695410 0.716867 0.625000 0.628473 178 136 64 255
154.226685 -22.842611 -93.052765 -0.050063 0.695410 0.716867 0.625000 0.500000 178 136 64 255
155.157333 -22.199352 -93.566078 0.089180 0.995964 -0.010143 0.875000 0.619465 178 136 64 255
154.637848 -22.164770 -94.737854 0.089180 0.995964 -0.010143 0.625000 0.750000 178 136 64 255
154.426590 -22.135536 -93.724716 0.089180 0.995964 -0.010143 0.625000 0.628473 178 136 64 255
154.975479 -23.049911 -93.036530 0.975638 -0.081880 0.203532 0.623866 0.250000 146 69 62 255
155.157333 -22.199352 -93.566078 0.975638 -0.081880 0.203532 0.625000 0.130535 146 69 62 255
154.975479 -22.877106 -92.967010 0.975638 -0.081880 0.203532 0.625000 0.250000 146 69 62 255
155.181641 -23.392233 -94.179276 0.456772 0.781131 0.425669 0.411277 0.036275 146 69 62 255
154.975479 -23.742571 -93.315155 0.456772 0.781131 0.425669 0.375000 0.250000 146 69 62 255
155.386642 -23.064728 -95.000252 0.456772 0.781131 0.425669 0.375000 0.000000 146 69 62 255
155.181580 -23.085938 -94.055794 0.974142 -0.084320 0.209614 0.588558 0.036275 146 69 62 255
155.386642 -23.064728 -95.000252 0.974142 -0.084320 0.209614 0.375000 0.000000 146 69 62 255
155.386642 -22.199263 -94.652107 0.974142 -0.084320 0.209614 0.625000 0.000000 146 69 62 255
155.139496 -23.167068 -93.857437 0.974877 -0.083105 0.206662 0.587753 0.213725 146 69 62 255
154.975479 -23.742571 -93.315155 0.974877 -0.083105 0.206662 0.375000 0.250000 146 69 62 255
155.139557 -23.471981 -93.980339 0.974877 -0.083105 0.206662 0.411277 0.213725 146 69 62 255
155.181580 -23.085938 -94.055794 0.979776 -0.021954 0.198892 0.588558 0.036275 146 69 62 255
154.975479 -23.049911 -93.036530 0.979776 -0.021954 0.198892 0.623866 0.250000 146 69 62 255
155.139496 -23.167068 -93.857437 0.979776 -0.021954 0.198892 0.587753 0.213725 146 69 62 255
156.610870 -25.606613 -90.536736 0.342068 0.831480 0.437757 0.125000 0.611463 178 136 64 255
155.578094 -23.745495 -93.264740 0.342068 0.831480 0.437757 0.125000 0.606903 178 136 64 255
156.318237 -25.591652 -90.336487 0.342068 0.831480 0.437757 0.125000 0.604187 178 136 64 255
155.578094 -23.745495 -93.264740 0.342076 0.831478 0.437754 0.125000 0.606903 115 196 116 255
154.641693 -25.505934 -89.189194 0.342076 0.831478 0.437754 0.125000 0.562500 115 196 116 255
156.318237 -25.591652 -90.336487 0.342076 0.831478 0.437754 0.125000 0.604187 115 196 116 255
159.906342 -22.543875 -99.629410 -0.620622 0.000057 -0.784110 0.411277 0.036275 66 31 28 255
159.906555 -22.213625 -99.629555 -0.620622 0.000057 -0.784110 0.588558 0.036275 66 31 28 255
160.077805 -22.214869 -99.765099 -0.620622 0.000057 -0.784110 0.587753 0.213725 66 31 28 255
160.286224 -22.546415 -99.930099 0.784072 0.000000 -0.620670 0.375000 0.250000 146 69 62 255
160.286224 -20.831465 -99.930099 0.784072 0.000000 -0.620670 0.625000 0.250000 146 69 62 255
160.751724 -22.546415 -99.342049 0.620675 0.000000 0.784068 0.375000 0.500000 146 69 62 255
160.751724 -20.831465 -99.342049 0.620675 -0.000014 0.784068 0.625000 0.500000 146 69 62 255
160.449539 -20.426245 -99.102829 0.620675 -0.000014 0.784068 0.625000 0.628473 146 69 62 255
160.163681 -20.831465 -98.876549 0.620675 -0.000014 0.784068 0.625000 0.750000 146 69 62 255
159.698181 -20.831465 -99.464607 -0.784076 0.000000 0.620665 0.625000 1.000000 146 69 62 255
160.163681 -22.546415 -98.876549 0.000000 -1.000000 0.000000 0.375000 0.750000 255 255 255 255
160.751724 -20.831465 -99.342049 0.587312 0.662509 -0.464915 0.625000 0.500000 178 136 64 255
160.286224 -20.831465 -99.930099 0.587312 0.662509 -0.464915 0.875000 0.500000 178 136 64 255
160.005219 -20.426245 -99.707642 0.587312 0.662509 -0.464915 0.875000 0.619465 178 136 64 255
160.449539 -20.426245 -99.102829 -0.579707 0.694671 0.425877 0.625000 0.628473 178 136 64 255
160.005219 -20.426245 -99.707642 -0.579707 0.694671 0.425877 0.875000 0.619465 178 136 64 255
159.698181 -20.831465 -99.464607 -0.579707 0.694671 0.425877 0.875000 0.750000 178 136 64 255
159.698181 -20.831465 -99.464607 -0.620669 0.000029 -0.784073 0.625000 0.000000 146 69 62 255
160.005219 -20.426245 -99.707642 -0.620669 0.000029 -0.784073 0.625000 0.130535 146 69 62 255
160.286224 -20.831465 -99.930099 -0.620669 0.000029 -0.784073 0.625000 0.250000 146 69 62 255
159.906342 -22.543875 -99.629410 -0.620648 -0.002870 -0.784084 0.411277 0.036275 146 69 62 255
160.077606 -22.543619 -99.764977 -0.620648 -0.002870 -0.784084 0.411277 0.213725 146 69 62 255
160.286224 -22.546415 -99.930099 -0.620648 -0.002870 -0.784084 0.375000 0.250000 146 69 62 255
159.906555 -22.213625 -99.629555 -0.620724 0.000057 -0.784029 0.588558 0.036275 146 69 62 255
159.906342 -22.543875 -99.629410 -0.620724 0.000057 -0.784029 0.411277 0.036275 146 69 62 255
159.698181 -22.546415 -99.464607 -0.620724 0.000057 -0.784029 0.375000 0.000000 146 69 62 255
160.077805 -22.214869 -99.765099 -0.620707 0.000000 -0.784042 0.587753 0.213725 146 69 62 255
160.286224 -21.799818 -99.930099 -0.620707 0.000000 -0.784042 0.623866 0.250000 146 69 62 255
160.286224 -22.546415 -99.930099 -0.620707 0.000000 -0.784042 0.375000 0.250000 146 69 62 255
159.906555 -22.213625 -99.629555 -0.620669 -0.000000 -0.784073 0.588558 0.036275 146 69 62 255
161.029114 -16.920765 -97.586372 -0.630521 0.212701 -0.746459 0.314022 0.625000 147 133 102 255
161.095840 -22.634447 -99.270828 -0.630521 0.212701 -0.746459 0.125000 0.625000 147 133 102 255
157.388275 -22.634447 -96.139114 -0.630521 0.212701 -0.746459 0.125000 0.625000 147 133 102 255
160.478683 -16.803068 -103.336517 0.535045 0.219070 0.815926 0.316321 0.500000 147 133 102 255
154.893173 -16.803068 -99.673805 0.535045 0.219070 0.815926 0.316321 0.500000 147 133 102 255
155.623489 -22.505934 -98.621536 0.535045 0.219070 0.815926 0.125000 0.562500 147 133 102 255
157.388275 -22.634447 -96.139114 0.033752 0.998631 0.039958 0.125000 0.625000 115 196 116 255
161.095840 -22.634447 -99.270828 0.033752 0.998631 0.039958 0.125000 0.625000 115 196 116 255
160.067627 -22.567177 -100.083534 0.033752 0.998631 0.039958 0.125000 0.591079 115 196 116 255
161.095840 -22.634447 -99.270828 0.028915 0.998520 0.046068 0.125000 0.625000 115 196 116 255
161.309097 -22.561802 -100.979271 0.028915 0.998520 0.046068 0.125000 0.589671 115 196 116 255
160.067627 -22.567177 -100.083534 0.028915 0.998520 0.046068 0.125000 0.591079 115 196 116 255
157.388275 -22.634447 -96.139114 -0.949603 0.230414 -0.212519 0.125000 0.625000 147 133 102 255
156.459473 -23.782705 -93.233871 -0.949603 0.230414 -0.212519 0.125000 0.625000 147 133 102 255
158.143173 -16.920765 -93.317429 -0.949603 0.230414 -0.212519 0.314022 0.625000 147 133 102 255
155.623489 -22.505934 -98.621536 0.899166 0.188058 0.395139 0.125000 0.562500 147 133 102 255
154.893173 -16.803068 -99.673805 0.899166 0.188058 0.395139 0.316321 0.500000 147 133 102 255
152.136047 -16.803068 -93.399773 0.899166 0.188058 0.395139 0.316321 0.500000 147 133 102 255
156.459473 -23.782705 -93.233871 0.118992 0.909799 0.397627 0.125000 0.625000 115 196 116 255
157.388275 -22.634447 -96.139114 0.118992 0.909799 0.397627 0.125000 0.625000 115 196 116 255
156.367828 -22.988216 -95.024292 0.118992 0.909799 0.397627 0.125000 0.610491 115 196 116 255
157.388275 -22.634447 -96.139114 -0.115526 0.985121 0.127245 0.125000 0.625000 115 196 116 255
156.425674 -22.571602 -97.499603 -0.115526 0.985121 0.127245 0.125000 0.594436 115 196 116 255
155.468811 -22.941584 -95.503967 -0.115526 0.985121 0.127245 0.125000 0.587231 115 196 116 255
156.367828 -22.988216 -95.024292 -0.076414 0.968411 0.237363 0.125000 0.610491 115 196 116 255
157.388275 -22.634447 -96.139114 -0.076414 0.968411 0.237363 0.125000 0.625000 115 196 116 255
155.468811 -22.941584 -95.503967 -0.076414 0.968411 0.237363 0.125000 0.587231 115 196 116 255
156.459473 -23.782705 -93.233871 -0.835863 0.279217 0.472621 0.125000 0.625000 147 133 102 255
157.155289 -25.634447 -90.909294 -0.835863 0.279217 0.472621 0.125000 0.625000 147 133 102 255
158.461075 -19.920765 -91.975471 -0.835863 0.279217 0.472621 0.314022 0.625000 147 133 102 255
153.415543 -23.654192 -93.340477 0.968266 0.179324 -0.174079 0.125000 0.562500 147 133 102 255
152.136047 -16.803068 -93.399773 0.968266 0.179324 -0.174079 0.316321 0.500000 147 133 102 255
153.576538 -19.803068 -88.477821 0.968266 0.179324 -0.174079 0.316321 0.500000 147 133 102 255
156.459473 -23.782705 -93.233871 0.015389 0.828675 0.559518 0.125000 0.625000 115 196 116 255
155.948654 -23.761139 -93.251762 0.015389 0.828675 0.559518 0.125000 0.614512 115 196 116 255
156.610870 -25.606613 -90.536736 0.015389 0.828675 0.559518 0.125000 0.611463 115 196 116 255
161.473114 -22.505934 -102.293167 0.028914 0.998520 0.046066 0.125000 0.562500 115 196 116 255
155.623489 -22.505934 -98.621536 0.028914 0.998520 0.046066 0.125000 0.562500 115 196 116 255
159.813812 -22.542128 -100.467148 0.028914 0.998520 0.046066 0.125000 0.579233 115 196 116 255
155.623489 -22.505934 -98.621536 0.028916 0.998520 0.046071 0.125000 0.562500 115 196 116 255
158.541367 -22.546144 -99.581436 0.028916 0.998520 0.046071 0.125000 0.581264 115 196 116 255
159.813812 -22.542128 -100.467148 0.028916 0.998520 0.046071 0.125000 0.579233 115 196 116 255
161.309097 -22.561802 -100.979271 0.028916 0.998520 0.046068 0.125000 0.589671 178 136 64 255
161.384674 -22.536058 -101.584702 0.028916 0.998520 0.046068 0.125000 0.577151 178 136 64 255
159.813812 -22.542128 -100.467148 0.028916 0.998520 0.046068 0.125000 0.579233 178 136 64 255
156.425674 -22.571602 -97.499603 0.026714 0.998868 0.039363 0.125000 0.594436 178 136 64 255
160.067627 -22.567177 -100.083534 0.026714 0.998868 0.039363 0.125000 0.591079 178 136 64 255
158.541367 -22.546144 -99.581436 0.026714 0.998868 0.039363 0.125000 0.581264 178 136 64 255
158.293671 -22.543875 -98.368210 -0.625346 0.000062 -0.780347 0.411277 0.036275 66 31 28 255
158.293884 -22.213625 -98.368355 -0.625346 0.000062 -0.780347 0.588558 0.036275 66 31 28 255
158.464310 -22.214869 -98.504929 -0.625346 0.000062 -0.780347 0.587753 0.213725 66 31 28 255
159.052811 -22.546415 -98.947556 0.733955 0.000000 -0.679198 0.375000 0.250000 146 69 62 255
159.052811 -21.613554 -98.947556 0.733955 0.000000 -0.679198 0.625000 0.250000 146 69 62 255
158.079193 -22.546415 -97.271439 0.602687 -0.000693 0.797978 0.375000 0.750000 146 69 62 255
159.565247 -22.546415 -98.393806 0.602687 -0.000693 0.797978 0.375000 0.500000 146 69 62 255
158.840027 -21.208334 -97.844910 0.602687 -0.000693 0.797978 0.625000 0.628473 146 69 62 255
159.565247 -22.546415 -98.393806 0.603500 0.000000 0.797363 0.375000 0.500000 146 69 62 255
159.565247 -21.613554 -98.393806 0.603500 0.000000 0.797363 0.625000 0.500000 146 69 62 255
158.840027 -21.208334 -97.844910 0.603500 0.000000 0.797363 0.625000 0.628473 146 69 62 255
157.566757 -21.613554 -97.825188 -0.733955 0.000000 0.679198 0.625000 1.000000 146 69 62 255
159.565247 -22.546415 -98.393806 0.000000 -1.000000 -0.000000 0.375000 0.500000 255 255 255 255
159.052811 -21.613554 -98.947556 0.352382 0.898388 -0.262155 0.875000 0.500000 178 136 64 255
158.392075 -21.208334 -98.447037 0.352382 0.898388 -0.262155 0.875000 0.619465 178 136 64 255
158.840027 -21.208334 -97.844910 0.352382 0.898388 -0.262155 0.625000 0.628473 178 136 64 255
158.392075 -21.208334 -98.447037 -0.269133 0.930344 0.249054 0.875000 0.619465 178 136 64 255
157.566757 -21.613554 -97.825188 -0.269133 0.930344 0.249054 0.875000 0.750000 178 136 64 255
158.079193 -21.613554 -97.271439 -0.269133 0.930344 0.249054 0.625000 0.750000 178 136 64 255
159.052811 -21.799818 -98.947556 -0.602499 0.002332 -0.798116 0.623866 0.250000 146 69 62 255
157.566757 -21.613554 -97.825188 -0.602499 0.002332 -0.798116 0.625000 0.000000 146 69 62 255
158.392075 -21.208334 -98.447037 -0.602499 0.002332 -0.798116 0.625000 0.130535 146 69 62 255
158.293671 -22.543875 -98.368210 -0.098815 -0.987204 -0.125152 0.411277 0.036275 146 69 62 255
158.464111 -22.543619 -98.504799 -0.098815 -0.987204 -0.125152 0.411277 0.213725 146 69 62 255
159.052811 -22.546415 -98.947556 -0.098815 -0.987204 -0.125152 0.375000 0.250000 146 69 62 255
158.293884 -22.213625 -98.368355 -0.598473 0.000035 -0.801143 0.588558 0.036275 146 69 62 255
158.293671 -22.543875 -98.368210 -0.598473 0.000035 -0.801143 0.411277 0.036275 146 69 62 255
157.566757 -22.546415 -97.825188 -0.598473 0.000035 -0.801143 0.375000 0.000000 146 69 62 255
158.464310 -22.214869 -98.504929 -0.601087 0.000000 -0.799184 0.587753 0.213725 146 69 62 255
159.052811 -21.799818 -98.947556 -0.601087 0.000000 -0.799184 0.623866 0.250000 146 69 62 255
159.052811 -22.546415 -98.947556 -0.601087 0.000000 -0.799184 0.375000 0.250000 146 69 62 255
158.293884 -22.213625 -98.368355 -0.603411 -0.009414 -0.797375 0.588558 0.036275 146 69 62 255
157.566757 -21.613554 -97.825188 -0.603411 -0.009414 -0.797375 0.625000 0.000000 146 69 62 255
159.052811 -21.799818 -98.947556 -0.603411 -0.009414 -0.797375 0.623866 0.250000 146 69 62 255
156.820740 -20.964125 -96.720848 -0.922061 0.000000 -0.387045 -0.000000 1.000000 107 97 74 255
156.666779 -20.964125 -96.354065 0.125819 -0.000000 0.992053 0.333333 1.000000 107 97 74 255
157.061401 -20.964125 -96.404114 0.796231 0.000000 -0.604993 0.666667 1.000000 107 97 74 255
155.945877 -22.972254 -94.855194 0.219621 0.856455 0.467174 0.125000 0.602641 178 136 64 255
155.578094 -23.745495 -93.264740 0.219621 0.856455 0.467174 0.125000 0.606903 178 136 64 255
156.367828 -22.988216 -95.024292 0.219621 0.856455 0.467174 0.125000 0.610491 178 136 64 255
155.468811 -22.941584 -95.503967 -0.094211 0.985994 0.137627 0.125000 0.587231 178 136 64 255
156.425674 -22.571602 -97.499603 -0.094211 0.985994 0.137627 0.125000 0.594436 178 136 64 255
156.134186 -22.543123 -97.903168 -0.094211 0.985994 0.137627 0.125000 0.580586 178 136 64 255
155.945877 -22.972254 -94.855194 0.043806 0.998927 0.015011 0.125000 0.602641 178 136 64 255
156.367828 -22.988216 -95.024292 0.043806 0.998927 0.015011 0.125000 0.610491 178 136 64 255
155.468811 -22.941584 -95.503967 0.043806 0.998927 0.015011 0.125000 0.587231 178 136 64 255
155.468811 -22.941584 -95.503967 0.086331 0.978659 0.186479 0.125000 0.587231 178 136 64 255
156.134186 -22.543123 -97.903168 0.086331 0.978659 0.186479 0.125000 0.580586 178 136 64 255
154.952179 -22.922380 -95.365570 0.086331 0.978659 0.186479 0.125000 0.577238 178 136 64 255
155.578094 -23.745495 -93.264740 -0.160815 0.901753 0.401223 0.125000 0.606903 115 196 116 255
155.945877 -22.972254 -94.855194 -0.160815 0.901753 0.401223 0.125000 0.602641 115 196 116 255
154.952179 -22.922380 -95.365570 -0.160815 0.901753 0.401223 0.125000 0.577238 115 196 116 255
154.952179 -22.922380 -95.365570 -0.082232 0.990553 0.109740 0.125000 0.577238 115 196 116 255
156.134186 -22.543123 -97.903168 -0.082232 0.990553 0.109740 0.125000 0.580586 115 196 116 255
155.623489 -22.505934 -98.621536 -0.082232 0.990553 0.109740 0.125000 0.562500 115 196 116 255
153.415543 -23.654192 -93.340477 0.026882 0.933443 0.357718 0.125000 0.562500 115 196 116 255
155.578094 -23.745495 -93.264740 0.026882 0.933443 0.357718 0.125000 0.606903 115 196 116 255
154.952179 -22.922380 -95.365570 0.026882 0.933443 0.357718 0.125000 0.577238 115 196 116 255
155.181641 -23.392233 -94.179276 0.981259 -0.071881 0.178785 0.411277 0.036275 66 31 28 255
155.181580 -23.085938 -94.055794 0.981259 -0.071881 0.178785 0.588558 0.036275 66 31 28 255
155.139496 -23.167068 -93.857437 0.981259 -0.071881 0.178785 0.587753 0.213725 66 31 28 255
154.226685 -23.708076 -93.400902 -0.122502 -0.370382 0.920766 0.375000 0.500000 146 69 62 255
154.975479 -23.742571 -93.315155 -0.122502 -0.370382 0.920766 0.375000 0.250000 146 69 62 255
154.975479 -23.049911 -93.036530 -0.122502 -0.370382 0.920766 0.623866 0.250000 146 69 62 255
154.975479 -23.049911 -93.036530 -0.122511 -0.370415 0.920752 0.623866 0.250000 146 69 62 255
154.975479 -22.877106 -92.967010 -0.122511 -0.370415 0.920752 0.625000 0.250000 146 69 62 255
154.226685 -22.842611 -93.052765 -0.122511 -0.370415 0.920752 0.625000 0.500000 146 69 62 255
154.637848 -23.030235 -95.085999 -0.975322 0.081753 -0.205093 0.375000 0.750000 146 69 62 255
154.226685 -23.708076 -93.400902 -0.975322 0.081753 -0.205093 0.375000 0.500000 146 69 62 255
154.426590 -22.135536 -93.724716 -0.975322 0.081753 -0.205093 0.625000 0.628473 146 69 62 255
154.226685 -23.708076 -93.400902 -0.975547 0.082025 -0.203913 0.375000 0.500000 146 69 62 255
154.226685 -22.842611 -93.052765 -0.975547 0.082025 -0.203913 0.625000 0.500000 146 69 62 255
154.426590 -22.135536 -93.724716 -0.975547 0.082025 -0.203913 0.625000 0.628473 146 69 62 255
155.386642 -22.199263 -94.652107 0.122501 0.370389 -0.920763 0.625000 1.000000 146 69 62 255
154.975479 -23.742571 -93.315155 -0.000003 -0.927753 -0.373195 0.125000 0.500000 255 255 255 255
154.226685 -23.708076 -93.400902 -0.000003 -0.927753 -0.373195 0.375000 0.500000 255 255 255 255
154.637848 -23.030235 -95.085999 -0.000003 -0.927753 -0.373195 0.375000 0.750000 255 255 255 255
154.975479 -22.877106 -92.967010 -0.100065 0.673888 0.732026 0.875000 0.500000 178 136 64 255
155.157333 -22.199352 -93.566078 -0.100065 0.673888 0.732026 0.875000 0.619465 178 136 64 255
154.426590 -22.135536 -93.724716 -0.100065 0.673888 0.732026 0.625000 0.628473 178 136 64 255
155.157333 -22.199352 -93.566078 0.044920 0.998945 0.009567 0.875000 0.619465 178 136 64 255
155.386642 -22.199263 -94.652107 0.044920 0.998945 0.009567 0.875000 0.750000 178 136 64 255
154.637848 -22.164770 -94.737854 0.044920 0.998945 0.009567 0.625000 0.750000 178 136 64 255
154.975479 -23.049911 -93.036530 0.975268 -0.080317 0.205916 0.623866 0.250000 146 69 62 255
155.386642 -22.199263 -94.652107 0.975268 -0.080317 0.205916 0.625000 0.000000 146 69 62 255
155.157333 -22.199352 -93.566078 0.975268 -0.080317 0.205916 0.625000 0.130535 146 69 62 255
155.181641 -23.392233 -94.179276 0.156301 -0.927766 -0.338851 0.411277 0.036275 146 69 62 255
155.139557 -23.471981 -93.980339 0.156301 -0.927766 -0.338851 0.411277 0.213725 146 69 62 255
154.975479 -23.742571 -93.315155 0.156301 -0.927766 -0.338851 0.375000 0.250000 146 69 62 255
155.181580 -23.085938 -94.055794 0.974142 -0.084311 0.209615 0.588558 0.036275 146 69 62 255
155.181641 -23.392233 -94.179276 0.974142 -0.084311 0.209615 0.411277 0.036275 146 69 62 255
155.386642 -23.064728 -95.000252 0.974142 -0.084311 0.209615 0.375000 0.000000 146 69 62 255
155.139496 -23.167068 -93.857437 0.974879 -0.083123 0.206643 0.587753 0.213725 146 69 62 255
154.975479 -23.049911 -93.036530 0.974879 -0.083123 0.206643 0.623866 0.250000 146 69 62 255
154.975479 -23.742571 -93.315155 0.974879 -0.083123 0.206643 0.375000 0.250000 146 69 62 255
155.181580 -23.085938 -94.055794 0.975487 -0.090789 0.200457 0.588558 0.036275 146 69 62 255
155.386642 -22.199263 -94.652107 0.975487 -0.090789 0.200457 0.625000 0.000000 146 69 62 255
154.975479 -23.049911 -93.036530 0.975487 -0.090789 0.200457 0.623866 0.250000 146 69 62 255
156.610870 -25.606613 -90.536736 0.015389 0.828675 0.559518 0.125000 0.611463 178 136 64 255
155.948654 -23.761139 -93.251762 0.015389 0.828675 0.559518 0.125000 0.614512 178 136 64 255
155.578094 -23.745495 -93.264740 0.015389 0.828675 0.559518 0.125000 0.606903 178 136 64 255
155.578094 -23.745495 -93.264740 0.024609 0.915669 0.401179 0.125000 0.606903 115 196 116 255
153.415543 -23.654192 -93.340477 0.024609 0.915669 0.401179 0.125000 0.562500 115 196 116 255
154.641693 -25.505934 -89.189194 0.024609 0.915669 0.401179 0.125000 0.562500 115 196 116 255
3 0 1 2
3 3 4 5
3 6 7 8
3 9 10 11
3 12 13 14
3 15 16 17
3 18 19 20
3 21 22 23
3 24 25 26
3 27 28 29
3 30 31 32
3 33 34 35
3 36 37 38
3 39 40 41
3 42 43 44
3 45 46 47
3 48 49 50
3 51 52 53
3 54 55 56
3 57 58 59
3 60 61 62
3 63 64 65
3 66 67 68
3 69 70 71
3 72 73 74
3 75 76 77
3 78 79 80
3 81 82 83
3 84 85 86
3 87 88 89
3 90 91 92
3 93 94 95
3 96 97 98
3 99 100 101
3 102 103 104
3 105 106 107
3 108 109 110
3 111 112 113
3 114 115 116
3 117 118 119
3 120 121 122
3 123 124 125
3 126 127 128
3 129 130 131
3 132 133 134
3 135 136 137
3 138 139 140
3 141 142 143
3 144 145 146
3 147 148 149
3 150 151 152
3 153 154 155
3 156 157 158
3 159 160 161
3 162 163 164
3 165 166 167
3 168 169 170
3 171 172 173
3 174 175 176
3 177 178 179
3 180 181 182
3 183 184 185
3 186 187 188
3 5 189 3
3 3 190 4
3 8 191 6
3 192 193 194
3 9 195 10
3 12 196 13
3 197 198 199
3 200 201 202
3 203 204 205
3 206 207 208
3 209 210 211
3 212 213 214
3 215 21 23
3 216 217 218
3 219 220 221
3 222 223 224
3 225 226 227
3 228 229 230
3 231 232 233
3 234 235 236
3 237 238 239
3 240 241 242
3 243 244 245
3 246 247 248
3 249 250 251
3 252 253 254
3 255 256 257
3 258 259 260
3 261 262 263
3 264 265 266
3 83 267 81
3 81 268 82
3 269 270 271
3 272 273 274
3 87 275 88
3 90 276 91
3 277 278 279
3 280 281 282
3 283 284 285
3 286 287 288
3 289 290 291
3 292 293 294
3 295 296 297
3 117 298 118
3 120 299 121
3 123 300 124
3 301 302 303
3 304 305 306
3 307 308 309
3 310 311 312
3 313 314 315
3 316 317 318
3 319 320 321
3 322 323 324
3 325 326 327
3 328 329 330
3 331 332 333
3 334 335 336
3 153 337 154
3 338 339 340
3 341 342 343
3 344 345 346
3 347 348 349
3 350 351 352
3 353 354 355
3 356 357 358
3 359 360 361
3 362 363 364
3 365 366 367
