ply
format ascii 1.0
comment Created by Blender 2.92.0 - www.blender.org
element vertex 237
property float x
property float y
property float z
property float nx
property float ny
property float nz
property float s
property float t
property uchar red
property uchar green
property uchar blue
property uchar alpha
element face 89
property list uchar uint vertex_indices
end_header
166.570160 -25.790932 -70.593704 -0.819794 -0.164777 -0.548441 0.150160 0.605334 148 148 148 255
165.921387 -27.426548 -69.132523 -0.819794 -0.164777 -0.548441 0.125000 0.610013 148 148 148 255
165.722260 -25.790932 -69.326286 -0.819794 -0.164777 -0.548441 0.150160 0.605334 148 148 148 255
166.570160 -25.790932 -70.593704 -0.510567 -0.790500 -0.338277 0.150160 0.605334 148 148 148 255
165.398041 -25.418194 -69.695633 -0.510567 -0.790500 -0.338277 0.162066 0.595440 148 148 148 255
166.113647 -25.418194 -70.775711 -0.510567 -0.790500 -0.338277 0.162066 0.595440 148 148 148 255
165.116272 -27.392735 -71.108475 0.794324 -0.266888 0.545729 0.125000 0.584083 148 148 148 255
165.015533 -25.660534 -70.114716 0.794324 -0.266888 0.545729 0.153299 0.584746 148 148 148 255
164.660263 -27.392735 -70.444740 0.794324 -0.266888 0.545729 0.125000 0.584083 148 148 148 255
166.113647 -25.418194 -70.775711 0.334976 -0.916025 0.220655 0.162066 0.595440 148 148 148 255
165.015533 -25.660534 -70.114716 0.334976 -0.916025 0.220655 0.153299 0.584746 148 148 148 255
165.582611 -25.660534 -70.975594 0.334976 -0.916025 0.220655 0.153299 0.584746 148 148 148 255
166.835526 -27.426548 -70.511391 0.015863 0.999819 0.010517 0.125000 0.600740 178 136 64 255
165.222290 -27.407804 -69.859940 0.015863 0.999819 0.010517 0.125000 0.596883 178 136 64 255
165.921387 -27.426548 -69.132523 0.015863 0.999819 0.010517 0.125000 0.600740 178 136 64 255
165.015533 -25.660534 -70.114716 0.397240 -0.249721 0.883085 0.153299 0.584746 147 133 102 255
161.339783 -28.785208 -69.344849 0.397240 -0.249721 0.883085 0.125000 0.584083 147 133 102 255
164.660263 -27.392735 -70.444740 0.397240 -0.249721 0.883085 0.125000 0.584083 147 133 102 255
165.398041 -25.418194 -69.695633 0.021591 0.062922 0.997785 0.162066 0.595440 147 133 102 255
166.704498 -23.127184 -69.868378 0.021591 0.062922 0.997785 0.150160 0.605334 147 133 102 255
165.587219 -22.754446 -69.867706 0.021591 0.062922 0.997785 0.162066 0.595440 147 133 102 255
165.921387 -27.426548 -69.132523 -0.284127 0.911770 0.296558 0.125000 0.600740 115 196 116 255
162.634216 -28.819914 -67.997986 -0.284127 0.911770 0.296558 0.125000 0.596860 115 196 116 255
164.265533 -28.863653 -66.300575 -0.284127 0.911770 0.296558 0.125000 0.600740 115 196 116 255
165.722260 -25.790932 -69.326286 -0.928876 0.085487 -0.360391 0.150160 0.605334 147 133 102 255
164.265533 -28.863653 -66.300575 -0.928876 0.085487 -0.360391 0.125000 0.610013 147 133 102 255
164.888367 -23.013924 -66.518280 -0.928876 0.085487 -0.360391 0.150160 0.605334 147 133 102 255
165.398041 -25.418194 -69.695633 -0.781392 0.387654 0.489030 0.162066 0.595440 147 133 102 255
165.997772 -22.996786 -70.656807 -0.781392 0.387654 0.489030 0.153299 0.584746 147 133 102 255
165.015533 -25.660534 -70.114716 -0.781392 0.387654 0.489030 0.153299 0.584746 147 133 102 255
165.015533 -25.660534 -70.114716 0.091666 0.166013 0.981854 0.153299 0.584746 147 133 102 255
165.997772 -22.996786 -70.656807 0.091666 0.166013 0.981854 0.153299 0.584746 147 133 102 255
161.491791 -22.711407 -70.284378 0.091666 0.166013 0.981854 0.153299 0.584746 147 133 102 255
165.722260 -25.790932 -69.326286 -0.854595 0.219335 -0.470702 0.150160 0.605334 147 133 102 255
164.888367 -23.013924 -66.518280 -0.854595 0.219335 -0.470702 0.150160 0.605334 147 133 102 255
166.704498 -23.127184 -69.868378 -0.854595 0.219335 -0.470702 0.150160 0.605334 147 133 102 255
161.339783 -28.785208 -69.344849 0.665761 0.097764 0.739732 0.125000 0.584083 147 133 102 255
158.877045 -22.711407 -67.931099 0.665761 0.097764 0.739732 0.153299 0.584746 147 133 102 255
158.725037 -28.785208 -66.991570 0.665761 0.097764 0.739732 0.125000 0.584083 147 133 102 255
164.265533 -28.863653 -66.300575 -0.668330 0.043522 -0.742591 0.125000 0.610013 147 133 102 255
162.273605 -23.013924 -64.165001 -0.668330 0.043522 -0.742591 0.150160 0.605334 147 133 102 255
164.888367 -23.013924 -66.518280 -0.668330 0.043522 -0.742591 0.150160 0.605334 147 133 102 255
162.634216 -28.819914 -67.997986 0.012433 0.999827 0.013815 0.125000 0.596860 115 196 116 255
161.650772 -28.863653 -63.947296 0.012433 0.999827 0.013815 0.125000 0.600740 115 196 116 255
164.265533 -28.863653 -66.300575 0.012433 0.999827 0.013815 0.125000 0.600740 115 196 116 255
158.725037 -28.785208 -66.991570 0.684107 0.094748 0.723201 0.125000 0.584083 147 133 102 255
156.458389 -22.711407 -65.643188 0.684107 0.094748 0.723201 0.153299 0.584746 147 133 102 255
156.306381 -28.785208 -64.703659 0.684107 0.094748 0.723201 0.125000 0.584083 147 133 102 255
161.650772 -28.863653 -63.947296 -0.686471 0.046082 -0.725695 0.125000 0.610013 147 133 102 255
159.854965 -23.013924 -61.877090 -0.686471 0.046082 -0.725695 0.150160 0.605334 147 133 102 255
162.273605 -23.013924 -64.165001 -0.686471 0.046082 -0.725695 0.150160 0.605334 147 133 102 255
161.650772 -28.863653 -63.947296 0.012766 0.999827 0.013495 0.125000 0.600740 115 196 116 255
158.002609 -28.830687 -62.938713 0.012766 0.999827 0.013495 0.125000 0.597816 115 196 116 255
159.232132 -28.863653 -61.659386 0.012766 0.999827 0.013495 0.125000 0.600740 115 196 116 255
156.306381 -28.785208 -64.703659 0.756738 0.081397 0.648631 0.125000 0.584083 147 133 102 255
154.497314 -22.711407 -63.355278 0.756738 0.081397 0.648631 0.153299 0.584746 147 133 102 255
154.345322 -28.785208 -62.415749 0.756738 0.081397 0.648631 0.125000 0.584083 147 133 102 255
159.232132 -28.863653 -61.659386 -0.758041 0.056529 -0.649752 0.125000 0.610013 147 133 102 255
157.893890 -23.013924 -59.589180 -0.758041 0.056529 -0.649752 0.150160 0.605334 147 133 102 255
159.854965 -23.013924 -61.877090 -0.758041 0.056529 -0.649752 0.150160 0.605334 147 133 102 255
159.232132 -28.863653 -61.659386 0.014170 0.999826 0.012146 0.125000 0.600740 115 196 116 255
156.280411 -28.837091 -60.402252 0.014170 0.999826 0.012146 0.125000 0.598384 115 196 116 255
157.271057 -28.863653 -59.371475 0.014170 0.999826 0.012146 0.125000 0.600740 115 196 116 255
154.345322 -28.785208 -62.415749 0.704152 0.091300 0.704155 0.125000 0.584083 147 133 102 255
152.470886 -22.711407 -61.328842 0.704152 0.091300 0.704155 0.153299 0.584746 147 133 102 255
152.318878 -28.785208 -60.389313 0.704152 0.091300 0.704155 0.125000 0.584083 147 133 102 255
157.271057 -28.863653 -59.371475 -0.706262 0.048913 -0.706259 0.125000 0.610013 147 133 102 255
155.867462 -23.013924 -57.562744 -0.706262 0.048913 -0.706259 0.150160 0.605334 147 133 102 255
157.893890 -23.013924 -59.589180 -0.706262 0.048913 -0.706259 0.150160 0.605334 147 133 102 255
156.280411 -28.837091 -60.402252 0.013138 0.999827 0.013138 0.125000 0.598384 115 196 116 255
155.244629 -28.863653 -57.345039 0.013138 0.999827 0.013138 0.125000 0.600740 115 196 116 255
157.271057 -28.863653 -59.371475 0.013138 0.999827 0.013138 0.125000 0.600740 115 196 116 255
165.448563 -27.399269 -70.993073 0.015708 0.999820 0.010667 0.125000 0.595127 178 136 64 255
164.660263 -27.392735 -70.444740 0.015708 0.999820 0.010667 0.125000 0.593782 178 136 64 255
164.997681 -27.401781 -70.093651 0.015708 0.999820 0.010667 0.125000 0.595643 178 136 64 255
165.222290 -27.407804 -69.859940 0.015712 0.999820 0.010669 0.125000 0.596883 178 136 64 255
165.448563 -27.399269 -70.993073 0.015712 0.999820 0.010669 0.125000 0.595127 178 136 64 255
164.997681 -27.401781 -70.093651 0.015712 0.999820 0.010669 0.125000 0.595643 178 136 64 255
162.350739 -28.812313 -68.292938 -0.284126 0.911771 0.296558 0.125000 0.596186 115 196 116 255
164.660263 -27.392735 -70.444740 -0.284126 0.911771 0.296558 0.125000 0.593782 115 196 116 255
161.339783 -28.785208 -69.344849 -0.284126 0.911771 0.296558 0.125000 0.593782 115 196 116 255
162.634216 -28.819914 -67.997986 -0.284122 0.911770 0.296564 0.125000 0.596860 178 136 64 255
164.997681 -27.401781 -70.093651 -0.284122 0.911770 0.296564 0.125000 0.595643 178 136 64 255
162.350739 -28.812313 -68.292938 -0.284122 0.911770 0.296564 0.125000 0.596186 178 136 64 255
154.133270 -28.833855 -58.501415 0.013135 0.999827 0.013134 0.125000 0.598097 178 136 64 255
156.048889 -28.830885 -60.643158 0.013135 0.999827 0.013134 0.125000 0.597833 178 136 64 255
153.893768 -28.827435 -58.750626 0.013135 0.999827 0.013134 0.125000 0.597527 178 136 64 255
158.002609 -28.830687 -62.938713 0.014167 0.999826 0.012144 0.125000 0.597816 178 136 64 255
156.048889 -28.830885 -60.643158 0.014167 0.999826 0.012144 0.125000 0.597833 178 136 64 255
156.280411 -28.837091 -60.402252 0.014167 0.999826 0.012144 0.125000 0.598384 178 136 64 255
160.032761 -28.820271 -65.630859 0.012763 0.999828 0.013493 0.125000 0.596892 178 136 64 255
157.771088 -28.824480 -63.179619 0.012763 0.999828 0.013493 0.125000 0.597265 178 136 64 255
158.002609 -28.830687 -62.938713 0.012763 0.999828 0.013493 0.125000 0.597816 178 136 64 255
160.032761 -28.820271 -65.630859 0.012432 0.999827 0.013814 0.125000 0.596892 178 136 64 255
162.350739 -28.812313 -68.292938 0.012432 0.999827 0.013814 0.125000 0.596186 178 136 64 255
159.794357 -28.813879 -65.878922 0.012432 0.999827 0.013814 0.125000 0.596325 178 136 64 255
159.794357 -28.813879 -65.878922 0.012766 0.999827 0.013495 0.125000 0.596325 115 196 116 255
156.306381 -28.785208 -64.703659 0.012766 0.999827 0.013495 0.125000 0.593782 115 196 116 255
157.771088 -28.824480 -63.179619 0.012766 0.999827 0.013495 0.125000 0.597265 115 196 116 255
159.794357 -28.813879 -65.878922 0.012433 0.999827 0.013815 0.125000 0.596325 115 196 116 255
161.339783 -28.785208 -69.344849 0.012433 0.999827 0.013815 0.125000 0.593782 115 196 116 255
158.725037 -28.785208 -66.991570 0.012433 0.999827 0.013815 0.125000 0.593782 115 196 116 255
157.771088 -28.824480 -63.179619 0.014170 0.999826 0.012146 0.125000 0.597265 115 196 116 255
154.345322 -28.785208 -62.415749 0.014170 0.999826 0.012146 0.125000 0.593782 115 196 116 255
156.048889 -28.830885 -60.643158 0.014170 0.999826 0.012146 0.125000 0.597833 115 196 116 255
153.893768 -28.827435 -58.750626 0.013138 0.999827 0.013138 0.125000 0.597527 115 196 116 255
154.345322 -28.785208 -62.415749 0.013138 0.999827 0.013138 0.125000 0.593782 115 196 116 255
152.318878 -28.785208 -60.389313 0.013138 0.999827 0.013138 0.125000 0.593782 115 196 116 255
153.893768 -28.827435 -58.750626 0.020944 0.999769 0.004771 0.125000 0.597527 115 196 116 255
150.831360 -28.781387 -54.956451 0.020944 0.999769 0.004771 0.125000 0.593782 115 196 116 255
153.076782 -28.826750 -55.307602 0.020944 0.999769 0.004771 0.125000 0.597527 115 196 116 255
154.133270 -28.833855 -58.501415 0.020933 0.999770 0.004700 0.125000 0.598097 178 136 64 255
153.076782 -28.826750 -55.307602 0.020933 0.999770 0.004700 0.125000 0.597527 178 136 64 255
153.418274 -28.833649 -55.361004 0.020933 0.999770 0.004700 0.125000 0.598097 178 136 64 255
155.244629 -28.863653 -57.345039 -0.882782 0.076743 -0.463472 0.125000 0.610013 147 133 102 255
155.186142 -23.018486 -56.265778 -0.882782 0.076743 -0.463472 0.150160 0.605334 147 133 102 255
155.867462 -23.013924 -57.562744 -0.882782 0.076743 -0.463472 0.150160 0.605334 147 133 102 255
152.318878 -28.785208 -60.389313 0.955536 0.136209 0.261530 0.125000 0.584083 147 133 102 255
150.153519 -22.709551 -55.642166 0.955536 0.136209 0.261530 0.153299 0.584746 147 133 102 255
150.831360 -28.781387 -54.956451 0.955536 0.136209 0.261530 0.125000 0.584083 147 133 102 255
155.244629 -28.863653 -57.345039 0.020831 0.999775 0.004056 0.125000 0.600740 115 196 116 255
153.418274 -28.833649 -55.361004 0.020831 0.999775 0.004056 0.125000 0.598097 115 196 116 255
155.002808 -28.865658 -55.608795 0.020831 0.999775 0.004056 0.125000 0.600740 115 196 116 255
150.831360 -28.781387 -54.956451 0.018100 0.999746 -0.013410 0.125000 0.593782 115 196 116 255
154.468231 -28.821732 -53.055336 0.018100 0.999746 -0.013410 0.125000 0.597527 115 196 116 255
153.076782 -28.826750 -55.307602 0.018100 0.999746 -0.013410 0.125000 0.597527 115 196 116 255
150.831360 -28.781387 -54.956451 0.829399 0.147761 -0.538762 0.125000 0.584083 147 133 102 255
152.289459 -22.714327 -51.047821 0.829399 0.147761 -0.538762 0.153299 0.584746 147 133 102 255
153.349121 -28.770161 -51.077393 0.829399 0.147761 -0.538762 0.125000 0.584083 147 133 102 255
153.418274 -28.833649 -55.361004 0.018794 0.999783 -0.008969 0.125000 0.598097 115 196 116 255
155.428162 -28.865967 -54.751923 0.018794 0.999783 -0.008969 0.125000 0.600740 115 196 116 255
155.002808 -28.865658 -55.608795 0.018794 0.999783 -0.008969 0.125000 0.600740 115 196 116 255
153.076782 -28.826750 -55.307602 0.018152 0.999750 -0.013079 0.125000 0.597527 178 136 64 255
154.638428 -28.829575 -53.356140 0.018152 0.999750 -0.013079 0.125000 0.598097 178 136 64 255
153.418274 -28.833649 -55.361004 0.018152 0.999750 -0.013079 0.125000 0.598097 178 136 64 255
155.002808 -28.865658 -55.608795 -0.960679 -0.001076 -0.277661 0.125000 0.610013 147 133 102 255
154.929260 -23.033720 -55.376934 -0.960679 -0.001076 -0.277661 0.150160 0.605334 147 133 102 255
155.186142 -23.018486 -56.265778 -0.960679 -0.001076 -0.277661 0.150160 0.605334 147 133 102 255
166.570160 -25.790932 -70.593704 -0.822612 -0.160908 -0.545361 0.150160 0.605334 148 148 148 255
166.835526 -27.426548 -70.511391 -0.822612 -0.160908 -0.545361 0.125000 0.610013 148 148 148 255
165.921387 -27.426548 -69.132523 -0.822612 -0.160908 -0.545361 0.125000 0.610013 148 148 148 255
166.570160 -25.790932 -70.593704 -0.513201 -0.786605 -0.343331 0.150160 0.605334 148 148 148 255
165.722260 -25.790932 -69.326286 -0.513201 -0.786605 -0.343331 0.150160 0.605334 148 148 148 255
165.398041 -25.418194 -69.695633 -0.513201 -0.786605 -0.343331 0.162066 0.595440 148 148 148 255
165.116272 -27.392735 -71.108475 0.806832 -0.257984 0.531476 0.125000 0.584083 148 148 148 255
165.582611 -25.660534 -70.975594 0.806832 -0.257984 0.531476 0.153299 0.584746 148 148 148 255
165.015533 -25.660534 -70.114716 0.806832 -0.257984 0.531476 0.153299 0.584746 148 148 148 255
166.113647 -25.418194 -70.775711 0.335957 -0.915198 0.222589 0.162066 0.595440 148 148 148 255
165.398041 -25.418194 -69.695633 0.335957 -0.915198 0.222589 0.162066 0.595440 148 148 148 255
165.015533 -25.660534 -70.114716 0.335957 -0.915198 0.222589 0.153299 0.584746 148 148 148 255
165.015533 -25.660534 -70.114716 0.078489 0.150477 0.985493 0.153299 0.584746 147 133 102 255
161.491791 -22.711407 -70.284378 0.078489 0.150477 0.985493 0.153299 0.584746 147 133 102 255
161.339783 -28.785208 -69.344849 0.078489 0.150477 0.985493 0.125000 0.584083 147 133 102 255
165.398041 -25.418194 -69.695633 -0.503227 0.346653 0.791577 0.162066 0.595440 147 133 102 255
165.722260 -25.790932 -69.326286 -0.503227 0.346653 0.791577 0.150160 0.605334 147 133 102 255
166.704498 -23.127184 -69.868378 -0.503227 0.346653 0.791577 0.150160 0.605334 147 133 102 255
165.921387 -27.426548 -69.132523 -0.284127 0.911770 0.296559 0.125000 0.600740 115 196 116 255
165.222290 -27.407804 -69.859940 -0.284127 0.911770 0.296559 0.125000 0.596883 115 196 116 255
162.634216 -28.819914 -67.997986 -0.284127 0.911770 0.296559 0.125000 0.596860 115 196 116 255
165.722260 -25.790932 -69.326286 -0.812600 -0.165144 -0.558935 0.150160 0.605334 147 133 102 255
165.921387 -27.426548 -69.132523 -0.812600 -0.165144 -0.558935 0.125000 0.610013 147 133 102 255
164.265533 -28.863653 -66.300575 -0.812600 -0.165144 -0.558935 0.125000 0.610013 147 133 102 255
165.398041 -25.418194 -69.695633 -0.882545 0.032374 -0.469112 0.162066 0.595440 147 133 102 255
165.587219 -22.754446 -69.867706 -0.882545 0.032374 -0.469112 0.162066 0.595440 147 133 102 255
165.997772 -22.996786 -70.656807 -0.882545 0.032374 -0.469112 0.153299 0.584746 147 133 102 255
161.491791 -22.711407 -70.284378 0.665761 0.097764 0.739732 0.153299 0.584746 147 133 102 255
161.650772 -28.863653 -63.947296 -0.668330 0.043522 -0.742591 0.125000 0.610013 147 133 102 255
160.032761 -28.820271 -65.630859 0.012433 0.999827 0.013815 0.125000 0.596892 115 196 116 255
158.877045 -22.711407 -67.931099 0.684107 0.094748 0.723201 0.153299 0.584746 147 133 102 255
159.232132 -28.863653 -61.659386 -0.686471 0.046082 -0.725695 0.125000 0.610013 147 133 102 255
160.032761 -28.820271 -65.630859 0.012766 0.999827 0.013495 0.125000 0.596892 115 196 116 255
156.306381 -28.785208 -64.703659 0.756736 0.081396 0.648634 0.125000 0.584083 147 133 102 255
156.458389 -22.711407 -65.643188 0.756736 0.081396 0.648634 0.153299 0.584746 147 133 102 255
154.497314 -22.711407 -63.355278 0.756736 0.081396 0.648634 0.153299 0.584746 147 133 102 255
157.271057 -28.863653 -59.371475 -0.758041 0.056529 -0.649752 0.125000 0.610013 147 133 102 255
158.002609 -28.830687 -62.938713 0.014170 0.999826 0.012146 0.125000 0.597816 115 196 116 255
154.345322 -28.785208 -62.415749 0.704155 0.091301 0.704152 0.125000 0.584083 147 133 102 255
154.497314 -22.711407 -63.355278 0.704155 0.091301 0.704152 0.153299 0.584746 147 133 102 255
152.470886 -22.711407 -61.328842 0.704155 0.091301 0.704152 0.153299 0.584746 147 133 102 255
155.244629 -28.863653 -57.345039 -0.706262 0.048913 -0.706259 0.125000 0.610013 147 133 102 255
154.133270 -28.833855 -58.501415 0.013138 0.999827 0.013138 0.125000 0.598097 115 196 116 255
165.448563 -27.399269 -70.993073 0.015874 0.999815 0.010906 0.125000 0.595127 178 136 64 255
165.116272 -27.392735 -71.108475 0.015874 0.999815 0.010906 0.125000 0.593782 178 136 64 255
164.660263 -27.392735 -70.444740 0.015874 0.999815 0.010906 0.125000 0.593782 178 136 64 255
165.222290 -27.407804 -69.859940 0.015943 0.999816 0.010715 0.125000 0.596883 178 136 64 255
166.835526 -27.426548 -70.511391 0.015943 0.999816 0.010715 0.125000 0.600740 178 136 64 255
165.448563 -27.399269 -70.993073 0.015943 0.999816 0.010715 0.125000 0.595127 178 136 64 255
162.350739 -28.812313 -68.292938 -0.284127 0.911771 0.296557 0.125000 0.596186 115 196 116 255
164.997681 -27.401781 -70.093651 -0.284127 0.911771 0.296557 0.125000 0.595643 115 196 116 255
164.660263 -27.392735 -70.444740 -0.284127 0.911771 0.296557 0.125000 0.593782 115 196 116 255
162.634216 -28.819914 -67.997986 -0.284126 0.911770 0.296560 0.125000 0.596860 178 136 64 255
165.222290 -27.407804 -69.859940 -0.284126 0.911770 0.296560 0.125000 0.596883 178 136 64 255
164.997681 -27.401781 -70.093651 -0.284126 0.911770 0.296560 0.125000 0.595643 178 136 64 255
154.133270 -28.833855 -58.501415 0.013135 0.999827 0.013135 0.125000 0.598097 178 136 64 255
156.280411 -28.837091 -60.402252 0.013135 0.999827 0.013135 0.125000 0.598384 178 136 64 255
156.048889 -28.830885 -60.643158 0.013135 0.999827 0.013135 0.125000 0.597833 178 136 64 255
157.771088 -28.824480 -63.179619 0.014167 0.999826 0.012144 0.125000 0.597265 178 136 64 255
160.032761 -28.820271 -65.630859 0.012764 0.999828 0.013494 0.125000 0.596892 178 136 64 255
159.794357 -28.813879 -65.878922 0.012764 0.999828 0.013494 0.125000 0.596325 178 136 64 255
157.771088 -28.824480 -63.179619 0.012764 0.999828 0.013494 0.125000 0.597265 178 136 64 255
160.032761 -28.820271 -65.630859 0.012434 0.999827 0.013815 0.125000 0.596892 178 136 64 255
162.634216 -28.819914 -67.997986 0.012434 0.999827 0.013815 0.125000 0.596860 178 136 64 255
162.350739 -28.812313 -68.292938 0.012434 0.999827 0.013815 0.125000 0.596186 178 136 64 255
158.725037 -28.785208 -66.991570 0.012766 0.999827 0.013495 0.125000 0.593782 115 196 116 255
162.350739 -28.812313 -68.292938 0.012433 0.999827 0.013815 0.125000 0.596186 115 196 116 255
156.306381 -28.785208 -64.703659 0.014170 0.999826 0.012146 0.125000 0.593782 115 196 116 255
156.048889 -28.830885 -60.643158 0.013138 0.999827 0.013138 0.125000 0.597833 115 196 116 255
153.893768 -28.827435 -58.750626 0.021432 0.999757 0.005165 0.125000 0.597527 115 196 116 255
152.318878 -28.785208 -60.389313 0.021432 0.999757 0.005165 0.125000 0.593782 115 196 116 255
150.831360 -28.781387 -54.956451 0.021432 0.999757 0.005165 0.125000 0.593782 115 196 116 255
154.133270 -28.833855 -58.501415 0.021659 0.999753 0.004941 0.125000 0.598097 178 136 64 255
153.893768 -28.827435 -58.750626 0.021659 0.999753 0.004941 0.125000 0.597527 178 136 64 255
153.076782 -28.826750 -55.307602 0.021659 0.999753 0.004941 0.125000 0.597527 178 136 64 255
155.244629 -28.863653 -57.345039 -0.990322 0.015555 -0.137913 0.125000 0.610013 147 133 102 255
155.002808 -28.865658 -55.608795 -0.990322 0.015555 -0.137913 0.125000 0.610013 147 133 102 255
155.186142 -23.018486 -56.265778 -0.990322 0.015555 -0.137913 0.150160 0.605334 147 133 102 255
152.318878 -28.785208 -60.389313 0.925491 0.035175 0.377134 0.125000 0.584083 147 133 102 255
152.470886 -22.711407 -61.328842 0.925491 0.035175 0.377134 0.153299 0.584746 147 133 102 255
150.153519 -22.709551 -55.642166 0.925491 0.035175 0.377134 0.153299 0.584746 147 133 102 255
155.244629 -28.863653 -57.345039 0.021727 0.999752 0.004881 0.125000 0.600740 115 196 116 255
154.133270 -28.833855 -58.501415 0.021727 0.999752 0.004881 0.125000 0.598097 115 196 116 255
153.418274 -28.833649 -55.361004 0.021727 0.999752 0.004881 0.125000 0.598097 115 196 116 255
150.831360 -28.781387 -54.956451 0.019074 0.999701 -0.015273 0.125000 0.593782 115 196 116 255
153.349121 -28.770161 -51.077393 0.019074 0.999701 -0.015273 0.125000 0.593782 115 196 116 255
154.468231 -28.821732 -53.055336 0.019074 0.999701 -0.015273 0.125000 0.597527 115 196 116 255
150.831360 -28.781387 -54.956451 0.905514 0.053552 -0.420924 0.125000 0.584083 147 133 102 255
150.153519 -22.709551 -55.642166 0.905514 0.053552 -0.420924 0.153299 0.584746 147 133 102 255
152.289459 -22.714327 -51.047821 0.905514 0.053552 -0.420924 0.153299 0.584746 147 133 102 255
153.418274 -28.833649 -55.361004 0.020464 0.999686 -0.014486 0.125000 0.598097 115 196 116 255
154.638428 -28.829575 -53.356140 0.020464 0.999686 -0.014486 0.125000 0.598097 115 196 116 255
155.428162 -28.865967 -54.751923 0.020464 0.999686 -0.014486 0.125000 0.600740 115 196 116 255
153.076782 -28.826750 -55.307602 0.020140 0.999690 -0.014670 0.125000 0.597527 178 136 64 255
154.468231 -28.821732 -53.055336 0.020140 0.999690 -0.014670 0.125000 0.597527 178 136 64 255
154.638428 -28.829575 -53.356140 0.020140 0.999690 -0.014670 0.125000 0.598097 178 136 64 255
155.002808 -28.865658 -55.608795 -0.895341 -0.028961 0.444439 0.125000 0.610013 147 133 102 255
155.428162 -28.865967 -54.751923 -0.895341 -0.028961 0.444439 0.125000 0.610013 147 133 102 255
154.929260 -23.033720 -55.376934 -0.895341 -0.028961 0.444439 0.150160 0.605334 147 133 102 255
3 0 1 2
3 3 4 5
3 6 7 8
3 9 10 11
3 12 13 14
3 15 16 17
3 18 19 20
3 21 22 23
3 24 25 26
3 27 28 29
3 30 31 32
3 33 34 35
3 36 37 38
3 39 40 41
3 42 43 44
3 45 46 47
3 48 49 50
3 51 52 53
3 54 55 56
3 57 58 59
3 60 61 62
3 63 64 65
3 66 67 68
3 69 70 71
3 72 73 74
3 75 76 77
3 78 79 80
3 81 82 83
3 84 85 86
3 87 88 89
3 90 91 92
3 93 94 95
3 96 97 98
3 99 100 101
3 102 103 104
3 105 106 107
3 108 109 110
3 111 112 113
3 114 115 116
3 117 118 119
3 120 121 122
3 123 124 125
3 126 127 128
3 129 130 131
3 132 133 134
3 135 136 137
3 138 139 140
3 141 142 143
3 144 145 146
3 147 148 149
3 150 151 152
3 153 154 155
3 156 157 158
3 159 160 161
3 162 163 164
3 36 165 37
3 39 166 40
3 42 167 43
3 45 168 46
3 48 169 49
3 51 170 52
3 171 172 173
3 57 174 58
3 60 175 61
3 176 177 178
3 66 179 67
3 69 180 70
3 181 182 183
3 184 185 186
3 187 188 189
3 190 191 192
3 193 194 195
3 87 196 88
3 197 198 199
3 200 201 202
3 96 203 97
3 99 204 100
3 102 205 103
3 105 206 106
3 207 208 209
3 210 211 212
3 213 214 215
3 216 217 218
3 219 220 221
3 222 223 224
3 225 226 227
3 228 229 230
3 231 232 233
3 234 235 236
