ply
format ascii 1.0
comment Created by Blender 2.92.0 - www.blender.org
element vertex 226
property float x
property float y
property float z
property float nx
property float ny
property float nz
property float s
property float t
property uchar red
property uchar green
property uchar blue
property uchar alpha
element face 84
property list uchar uint vertex_indices
end_header
128.817596 -21.282526 -142.930771 -0.983996 0.158569 0.081285 0.125000 0.625000 147 133 102 255
130.107758 -14.095119 -141.333725 -0.983996 0.158569 0.081285 0.314022 0.625000 147 133 102 255
129.943832 -14.095119 -143.318130 -0.983996 0.158569 0.081285 0.314022 0.625000 147 133 102 255
125.761925 -20.813232 -142.197876 0.982708 0.122295 -0.139029 0.125000 0.562500 146 132 102 254
125.309021 -14.771730 -140.084839 0.982708 0.122295 -0.139029 0.316321 0.500000 147 133 102 255
125.964989 -21.141464 -141.051270 0.982708 0.122295 -0.139029 0.125000 0.562500 147 133 102 255
128.817596 -21.282526 -142.930771 0.040102 0.999096 -0.014120 0.125000 0.625000 115 196 116 255
125.964989 -21.141464 -141.051270 0.040102 0.999096 -0.014120 0.125000 0.562500 115 196 116 255
129.170044 -21.269978 -141.041916 0.040102 0.999096 -0.014120 0.125000 0.625000 115 196 116 255
130.107758 -14.095119 -141.333725 -0.862500 0.098195 0.496438 0.314022 0.625000 147 133 102 255
130.287201 -21.177116 -139.621155 -0.862500 0.098195 0.496438 0.125000 0.625000 147 133 102 255
130.824844 -14.095119 -140.087875 -0.862500 0.098195 0.496438 0.314022 0.625000 147 133 102 255
125.309021 -14.771730 -140.084839 0.943987 0.142379 -0.297685 0.316321 0.500000 147 133 102 255
126.753693 -21.048603 -138.505798 0.943987 0.142379 -0.297685 0.125000 0.562500 147 133 102 255
125.964989 -21.141464 -141.051270 0.943987 0.142379 -0.297685 0.125000 0.562500 147 133 102 255
129.170044 -21.269978 -141.041916 0.012573 0.997100 -0.075057 0.125000 0.625000 115 196 116 255
126.753693 -21.048603 -138.505798 0.012573 0.997100 -0.075057 0.125000 0.562500 115 196 116 255
130.287201 -21.177116 -139.621155 0.012573 0.997100 -0.075057 0.125000 0.625000 115 196 116 255
130.824844 -14.095119 -140.087875 -0.717966 0.061367 0.693368 0.314022 0.625000 147 133 102 255
131.335983 -21.080872 -138.940323 -0.717966 0.061367 0.693368 0.125000 0.625000 147 133 102 255
131.585297 -14.095119 -139.300446 -0.717966 0.061367 0.693368 0.314022 0.625000 147 133 102 255
126.753693 -21.048603 -138.505798 0.552197 0.017563 -0.833529 0.125000 0.562500 147 133 102 255
128.756149 -14.771730 -137.046951 0.552197 0.017563 -0.833529 0.316321 0.500000 147 133 102 255
129.279633 -20.607658 -136.823120 0.552197 0.017563 -0.833529 0.125000 0.562500 147 133 102 255
130.287201 -21.177116 -139.621155 0.032103 0.981603 -0.188216 0.125000 0.625000 115 196 116 255
129.279633 -20.607658 -136.823120 0.032103 0.981603 -0.188216 0.125000 0.562500 115 196 116 255
131.335983 -21.080872 -138.940323 0.032103 0.981603 -0.188216 0.125000 0.625000 115 196 116 255
131.585297 -14.095119 -139.300446 -0.417465 0.042632 0.907692 0.314022 0.625000 147 133 102 255
132.115265 -20.886377 -138.737732 -0.417465 0.042632 0.907692 0.125000 0.625000 147 133 102 255
132.005020 -14.095119 -139.107407 -0.417465 0.042632 0.907692 0.314022 0.625000 147 133 102 255
129.279633 -20.607658 -136.823120 0.331181 -0.007153 -0.943540 0.125000 0.562500 147 133 102 255
131.488037 -14.301970 -136.095779 0.331181 -0.007153 -0.943540 0.316321 0.500000 147 133 102 255
132.056931 -20.757864 -135.847153 0.331181 -0.007153 -0.943540 0.125000 0.562500 147 133 102 255
131.335983 -21.080872 -138.940323 -0.230146 0.971979 -0.047858 0.125000 0.625000 115 196 116 255
132.056931 -20.757864 -135.847153 -0.230146 0.971979 -0.047858 0.125000 0.562500 115 196 116 255
132.115265 -20.886377 -138.737732 -0.230146 0.971979 -0.047858 0.125000 0.625000 115 196 116 255
132.115265 -20.886377 -138.737732 0.474330 0.055525 0.878595 0.125000 0.625000 147 133 102 255
134.423248 -15.322051 -140.335403 0.474330 0.055525 0.878595 0.314022 0.625000 147 133 102 255
132.005020 -14.095119 -139.107407 0.474330 0.055525 0.878595 0.314022 0.625000 147 133 102 255
132.056931 -20.757864 -135.847153 0.106075 0.141085 -0.984298 0.125000 0.562500 147 133 102 255
133.906265 -15.528902 -134.898361 0.106075 0.141085 -0.984298 0.316321 0.500000 147 133 102 255
134.475159 -20.907221 -135.607956 0.106075 0.141085 -0.984298 0.125000 0.562500 147 133 102 255
132.056931 -20.757864 -135.847153 0.063087 0.997079 -0.043056 0.125000 0.562500 115 196 116 255
134.533493 -21.035734 -138.653214 0.063087 0.997079 -0.043056 0.125000 0.625000 115 196 116 255
132.115265 -20.886377 -138.737732 0.063087 0.997079 -0.043056 0.125000 0.625000 115 196 116 255
134.533493 -21.035734 -138.653214 0.019179 0.282717 0.959012 0.125000 0.625000 147 133 102 255
138.483200 -15.322051 -140.416595 0.019179 0.282717 0.959012 0.314022 0.625000 147 133 102 255
134.423248 -15.322051 -140.335403 0.019179 0.282717 0.959012 0.314022 0.625000 147 133 102 255
134.475159 -20.907221 -135.607956 -0.019828 0.128715 -0.991483 0.125000 0.562500 147 133 102 255
137.966217 -15.528902 -134.979553 -0.019828 0.128715 -0.991483 0.316321 0.500000 147 133 102 255
138.535110 -20.907221 -135.689148 -0.019828 0.128715 -0.991483 0.125000 0.562500 147 133 102 255
134.533493 -21.035734 -138.653214 -0.000844 0.999110 -0.042180 0.125000 0.625000 115 196 116 255
138.535110 -20.907221 -135.689148 -0.000844 0.999110 -0.042180 0.125000 0.562500 115 196 116 255
138.593445 -21.035734 -138.734406 -0.000844 0.999110 -0.042180 0.125000 0.625000 115 196 116 255
138.593445 -21.035734 -138.734406 -0.000000 0.282428 0.959288 0.125000 0.625000 147 133 102 255
142.543152 -15.322051 -140.416595 -0.000000 0.282428 0.959288 0.314022 0.625000 147 133 102 255
138.483200 -15.322051 -140.416595 -0.000000 0.282428 0.959288 0.314022 0.625000 147 133 102 255
138.535110 -20.907221 -135.689148 0.000000 0.130803 -0.991408 0.125000 0.562500 147 133 102 255
142.026169 -15.528902 -134.979553 0.000000 0.130803 -0.991408 0.316321 0.500000 147 133 102 255
142.595062 -20.907221 -135.689148 0.000000 0.130803 -0.991408 0.125000 0.562500 147 133 102 255
138.593445 -21.035734 -138.734406 0.000000 0.999111 -0.042164 0.125000 0.625000 115 196 116 255
142.595062 -20.907221 -135.689148 0.000000 0.999111 -0.042164 0.125000 0.562500 115 196 116 255
142.653397 -21.035734 -138.734406 0.000000 0.999111 -0.042164 0.125000 0.625000 115 196 116 255
142.653397 -21.035734 -138.734406 0.017125 0.282691 0.959058 0.125000 0.625000 147 133 102 255
147.090302 -15.322051 -140.497787 0.017125 0.282691 0.959058 0.314022 0.625000 147 133 102 255
142.543152 -15.322051 -140.416595 0.017125 0.282691 0.959058 0.314022 0.625000 147 133 102 255
142.595062 -20.907221 -135.689148 -0.017704 0.128941 -0.991494 0.125000 0.562500 147 133 102 255
146.573318 -15.528902 -135.060745 -0.017704 0.128941 -0.991494 0.316321 0.500000 147 133 102 255
147.142212 -20.907221 -135.770340 -0.017704 0.128941 -0.991494 0.125000 0.562500 147 133 102 255
142.653397 -21.035734 -138.734406 -0.000753 0.999110 -0.042178 0.125000 0.625000 115 196 116 255
147.142212 -20.907221 -135.770340 -0.000753 0.999110 -0.042178 0.125000 0.562500 115 196 116 255
147.200546 -21.035734 -138.815598 -0.000753 0.999110 -0.042178 0.125000 0.625000 115 196 116 255
147.200546 -21.035734 -138.815598 0.018803 0.282712 0.959020 0.125000 0.625000 147 133 102 255
151.231461 -15.322051 -140.578979 0.018803 0.282712 0.959020 0.314022 0.625000 147 133 102 255
147.090302 -15.322051 -140.497787 0.018803 0.282712 0.959020 0.314022 0.625000 147 133 102 255
147.142212 -20.907221 -135.770340 -0.019439 0.128757 -0.991486 0.125000 0.562500 147 133 102 255
150.714478 -15.528902 -135.141937 -0.019439 0.128757 -0.991486 0.316321 0.500000 147 133 102 255
151.283371 -20.907221 -135.851532 -0.019439 0.128757 -0.991486 0.125000 0.562500 147 133 102 255
147.200546 -21.035734 -138.815598 -0.000827 0.999110 -0.042179 0.125000 0.625000 115 196 116 255
151.283371 -20.907221 -135.851532 -0.000827 0.999110 -0.042179 0.125000 0.562500 115 196 116 255
151.341705 -21.035734 -138.896790 -0.000827 0.999110 -0.042179 0.125000 0.625000 115 196 116 255
127.516991 -18.317673 -138.033508 0.167195 0.000119 -0.985924 0.125000 0.575177 216 151 20 255
128.921768 -18.354820 -137.795288 0.167195 0.000119 -0.985924 0.125000 0.572347 216 151 20 255
127.870583 -18.534172 -137.973572 0.167195 0.000119 -0.985924 0.125000 0.574479 216 151 20 255
128.939026 -18.575958 -137.792343 0.167183 0.000096 -0.985926 0.125000 0.572327 35 53 102 255
129.418869 -18.644373 -137.710983 0.167183 0.000096 -0.985926 0.125000 0.571364 35 53 102 255
128.946518 -18.773140 -137.791092 0.167183 0.000096 -0.985926 0.125000 0.572325 35 53 102 255
129.005768 -19.080774 -137.781036 0.167201 0.000019 -0.985923 0.125000 0.572226 216 151 20 255
129.585312 -19.175688 -137.682755 0.167201 0.000019 -0.985923 0.125000 0.571064 216 151 20 255
127.547821 -19.256601 -138.028290 0.167201 0.000019 -0.985923 0.125000 0.575177 216 151 20 255
128.366943 -19.185726 -137.889389 0.167206 0.000000 -0.985922 0.125000 0.575177 216 151 20 255
129.041107 -20.291788 -137.775055 0.167206 0.000000 -0.985922 0.125000 0.571064 216 151 20 255
128.366943 -20.307169 -137.889389 0.167206 0.000000 -0.985922 0.125000 0.575177 216 151 20 255
151.341705 -21.035734 -138.896790 -0.439384 0.245893 0.863990 0.125000 0.625000 147 133 102 255
156.602188 -15.322051 -137.847687 -0.439384 0.245893 0.863990 0.314022 0.625000 147 133 102 255
151.231461 -15.322051 -140.578979 -0.439384 0.245893 0.863990 0.314022 0.625000 147 133 102 255
151.283371 -20.907221 -135.851532 0.510949 0.085781 -0.855320 0.125000 0.562500 147 133 102 255
152.023911 -15.528902 -134.869751 0.510949 0.085781 -0.855320 0.316321 0.500000 147 133 102 255
152.933395 -20.907221 -134.865845 0.510949 0.085781 -0.855320 0.125000 0.562500 147 133 102 255
151.283371 -20.907221 -135.851532 0.022689 0.998872 -0.041719 0.125000 0.562500 115 196 116 255
155.353806 -21.035734 -136.714798 0.022689 0.998872 -0.041719 0.125000 0.625000 115 196 116 255
151.341705 -21.035734 -138.896790 0.022689 0.998872 -0.041719 0.125000 0.625000 115 196 116 255
155.353806 -21.035734 -136.714798 -0.920820 0.259000 0.291565 0.125000 0.625000 147 133 102 255
158.003174 -15.322051 -133.423096 -0.920820 0.259000 0.291565 0.314022 0.625000 147 133 102 255
156.602188 -15.322051 -137.847687 -0.920820 0.259000 0.291565 0.314022 0.625000 147 133 102 255
152.933395 -20.907221 -134.865845 0.973058 0.112097 -0.201478 0.125000 0.562500 147 133 102 255
152.549973 -15.528902 -133.725281 0.973058 0.112097 -0.201478 0.316321 0.500000 147 133 102 255
153.281464 -20.907221 -133.184814 0.973058 0.112097 -0.201478 0.125000 0.562500 147 133 102 255
152.933395 -20.907221 -134.865845 0.043681 0.998970 -0.012253 0.125000 0.562500 115 196 116 255
156.326645 -21.035734 -133.246613 0.043681 0.998970 -0.012253 0.125000 0.625000 115 196 116 255
155.353806 -21.035734 -136.714798 0.043681 0.998970 -0.012253 0.125000 0.625000 115 196 116 255
128.817596 -21.282526 -142.930771 -0.974237 0.134684 0.180891 0.125000 0.625000 147 133 102 255
129.170044 -21.269978 -141.041916 -0.974237 0.134684 0.180891 0.125000 0.625000 147 133 102 255
130.107758 -14.095119 -141.333725 -0.974237 0.134684 0.180891 0.314022 0.625000 147 133 102 255
125.761925 -20.813232 -142.197876 0.989374 0.108154 -0.097170 0.125000 0.562500 146 132 102 254
125.155357 -14.510042 -141.358154 0.989374 0.108154 -0.097170 0.316321 0.500000 146 132 102 254
125.309021 -14.771730 -140.084839 0.989374 0.108154 -0.097170 0.316321 0.500000 147 133 102 255
128.817596 -21.282526 -142.930771 0.202602 0.950355 0.236171 0.125000 0.625000 115 196 116 255
125.761925 -20.813232 -142.197876 0.202602 0.950355 0.236171 0.125000 0.562500 114 196 116 254
125.964989 -21.141464 -141.051270 0.202602 0.950355 0.236171 0.125000 0.562500 115 196 116 255
130.107758 -14.095119 -141.333725 -0.783732 0.127155 0.607944 0.314022 0.625000 147 133 102 255
129.170044 -21.269978 -141.041916 -0.783732 0.127155 0.607944 0.125000 0.625000 147 133 102 255
130.287201 -21.177116 -139.621155 -0.783732 0.127155 0.607944 0.125000 0.625000 147 133 102 255
125.309021 -14.771730 -140.084839 0.891194 0.093447 -0.443893 0.316321 0.500000 147 133 102 255
126.139847 -14.771730 -138.416809 0.891194 0.093447 -0.443893 0.316321 0.500000 147 133 102 255
126.753693 -21.048603 -138.505798 0.891194 0.093447 -0.443893 0.125000 0.562500 147 133 102 255
129.170044 -21.269978 -141.041916 0.040159 0.997998 -0.048851 0.125000 0.625000 115 196 116 255
125.964989 -21.141464 -141.051270 0.040159 0.997998 -0.048851 0.125000 0.562500 115 196 116 255
126.753693 -21.048603 -138.505798 0.040159 0.997998 -0.048851 0.125000 0.562500 115 196 116 255
130.824844 -14.095119 -140.087875 -0.548168 0.096367 0.830798 0.314022 0.625000 147 133 102 255
130.287201 -21.177116 -139.621155 -0.548168 0.096367 0.830798 0.125000 0.625000 147 133 102 255
131.335983 -21.080872 -138.940323 -0.548168 0.096367 0.830798 0.125000 0.625000 147 133 102 255
126.753693 -21.048603 -138.505798 0.463075 0.057825 -0.884431 0.125000 0.562500 147 133 102 255
126.139847 -14.771730 -138.416809 0.463075 0.057825 -0.884431 0.316321 0.500000 147 133 102 255
128.756149 -14.771730 -137.046951 0.463075 0.057825 -0.884431 0.316321 0.500000 147 133 102 255
130.287201 -21.177116 -139.621155 -0.030730 0.977229 -0.209952 0.125000 0.625000 115 196 116 255
126.753693 -21.048603 -138.505798 -0.030730 0.977229 -0.209952 0.125000 0.562500 115 196 116 255
129.279633 -20.607658 -136.823120 -0.030730 0.977229 -0.209952 0.125000 0.562500 115 196 116 255
131.585297 -14.095119 -139.300446 -0.264953 0.059071 0.962450 0.314022 0.625000 147 133 102 255
131.335983 -21.080872 -138.940323 -0.264953 0.059071 0.962450 0.125000 0.625000 147 133 102 255
132.115265 -20.886377 -138.737732 -0.264953 0.059071 0.962450 0.125000 0.625000 147 133 102 255
129.279633 -20.607658 -136.823120 0.329822 -0.006622 -0.944020 0.125000 0.562500 147 133 102 255
128.756149 -14.771730 -137.046951 0.329822 -0.006622 -0.944020 0.316321 0.500000 147 133 102 255
131.488037 -14.301970 -136.095779 0.329822 -0.006622 -0.944020 0.316321 0.500000 147 133 102 255
131.335983 -21.080872 -138.940323 0.097616 0.987236 -0.125845 0.125000 0.625000 115 196 116 255
129.279633 -20.607658 -136.823120 0.097616 0.987236 -0.125845 0.125000 0.562500 115 196 116 255
132.056931 -20.757864 -135.847153 0.097616 0.987236 -0.125845 0.125000 0.562500 115 196 116 255
132.115265 -20.886377 -138.737732 -0.016103 0.282106 0.959248 0.125000 0.625000 147 133 102 255
134.533493 -21.035734 -138.653214 -0.016103 0.282106 0.959248 0.125000 0.625000 147 133 102 255
134.423248 -15.322051 -140.335403 -0.016103 0.282106 0.959248 0.314022 0.625000 147 133 102 255
132.056931 -20.757864 -135.847153 0.445692 0.004800 -0.895173 0.125000 0.562500 147 133 102 255
131.488037 -14.301970 -136.095779 0.445692 0.004800 -0.895173 0.316321 0.500000 147 133 102 255
133.906265 -15.528902 -134.898361 0.445692 0.004800 -0.895173 0.316321 0.500000 147 133 102 255
132.056931 -20.757864 -135.847153 0.065616 0.997010 -0.040818 0.125000 0.562500 115 196 116 255
134.475159 -20.907221 -135.607956 0.065616 0.997010 -0.040818 0.125000 0.562500 115 196 116 255
134.533493 -21.035734 -138.653214 0.065616 0.997010 -0.040818 0.125000 0.625000 115 196 116 255
138.593445 -21.035734 -138.734406 0.019179 0.282717 0.959012 0.125000 0.625000 147 133 102 255
133.906265 -15.528902 -134.898361 -0.019828 0.128715 -0.991483 0.316321 0.500000 147 133 102 255
134.475159 -20.907221 -135.607956 -0.000844 0.999110 -0.042180 0.125000 0.562500 115 196 116 255
142.653397 -21.035734 -138.734406 0.000000 0.282428 0.959288 0.125000 0.625000 147 133 102 255
137.966217 -15.528902 -134.979553 0.000000 0.130803 -0.991408 0.316321 0.500000 147 133 102 255
138.535110 -20.907221 -135.689148 0.000000 0.999111 -0.042164 0.125000 0.562500 115 196 116 255
147.200546 -21.035734 -138.815598 0.017125 0.282691 0.959058 0.125000 0.625000 147 133 102 255
142.026169 -15.528902 -134.979553 -0.017704 0.128941 -0.991494 0.316321 0.500000 147 133 102 255
142.595062 -20.907221 -135.689148 -0.000753 0.999110 -0.042178 0.125000 0.562500 115 196 116 255
151.341705 -21.035734 -138.896790 0.018803 0.282712 0.959020 0.125000 0.625000 147 133 102 255
146.573318 -15.528902 -135.060745 -0.019439 0.128757 -0.991486 0.316321 0.500000 147 133 102 255
147.142212 -20.907221 -135.770340 -0.000827 0.999110 -0.042179 0.125000 0.562500 115 196 116 255
127.838081 -18.925259 -137.979050 0.167239 0.000012 -0.985916 0.125000 0.574570 216 151 20 255
127.547821 -19.256601 -138.028290 0.167239 0.000012 -0.985916 0.125000 0.575177 216 151 20 255
127.516991 -18.317673 -138.033508 0.167239 0.000012 -0.985916 0.125000 0.575177 216 151 20 255
129.554520 -18.236767 -137.687988 0.167194 -0.000021 -0.985924 0.125000 0.571064 216 151 20 255
129.418869 -18.644373 -137.710983 0.167194 -0.000021 -0.985924 0.125000 0.571364 216 151 20 255
128.921768 -18.354820 -137.795288 0.167194 -0.000021 -0.985924 0.125000 0.572347 216 151 20 255
128.921768 -18.354820 -137.795288 0.167228 -0.000079 -0.985918 0.125000 0.572347 216 151 20 255
128.939026 -18.575958 -137.792343 0.167228 -0.000079 -0.985918 0.125000 0.572327 216 151 20 255
127.870583 -18.534172 -137.973572 0.167228 -0.000079 -0.985918 0.125000 0.574479 216 151 20 255
127.870583 -18.534172 -137.973572 0.167079 -0.000075 -0.985944 0.125000 0.574479 216 151 20 255
127.838081 -18.925259 -137.979050 0.167079 -0.000075 -0.985944 0.125000 0.574570 216 151 20 255
127.516991 -18.317673 -138.033508 0.167079 -0.000075 -0.985944 0.125000 0.575177 216 151 20 255
127.516991 -18.317673 -138.033508 0.167191 -0.000010 -0.985925 0.125000 0.575177 216 151 20 255
129.554520 -18.236767 -137.687988 0.167191 -0.000010 -0.985925 0.125000 0.571064 216 151 20 255
128.921768 -18.354820 -137.795288 0.167191 -0.000010 -0.985925 0.125000 0.572347 216 151 20 255
128.946518 -18.773140 -137.791092 0.167195 -0.000085 -0.985924 0.125000 0.572325 35 53 102 255
127.838081 -18.925259 -137.979050 0.167195 -0.000085 -0.985924 0.125000 0.574570 35 53 102 255
127.870583 -18.534172 -137.973572 0.167195 -0.000085 -0.985924 0.125000 0.574479 35 53 102 255
128.939026 -18.575958 -137.792343 0.167157 -0.000085 -0.985930 0.125000 0.572327 35 53 102 255
128.921768 -18.354820 -137.795288 0.167157 -0.000085 -0.985930 0.125000 0.572347 35 53 102 255
129.418869 -18.644373 -137.710983 0.167157 -0.000085 -0.985930 0.125000 0.571364 35 53 102 255
128.946518 -18.773140 -137.791092 0.167234 0.000098 -0.985917 0.125000 0.572325 35 53 102 255
127.870583 -18.534172 -137.973572 0.167234 0.000098 -0.985917 0.125000 0.574479 35 53 102 255
128.939026 -18.575958 -137.792343 0.167234 0.000098 -0.985917 0.125000 0.572327 35 53 102 255
129.418869 -18.644373 -137.710983 0.167214 -0.000021 -0.985921 0.125000 0.571364 35 53 102 255
129.005768 -19.080774 -137.781036 0.167214 -0.000021 -0.985921 0.125000 0.572226 35 53 102 255
128.946518 -18.773140 -137.791092 0.167214 -0.000021 -0.985921 0.125000 0.572325 35 53 102 255
127.838081 -18.925259 -137.979050 0.167187 -0.000027 -0.985925 0.125000 0.574570 216 151 20 255
128.946518 -18.773140 -137.791092 0.167187 -0.000027 -0.985925 0.125000 0.572325 216 151 20 255
129.005768 -19.080774 -137.781036 0.167187 -0.000027 -0.985925 0.125000 0.572226 216 151 20 255
129.418869 -18.644373 -137.710983 0.167171 -0.000013 -0.985928 0.125000 0.571364 216 151 20 255
129.554520 -18.236767 -137.687988 0.167171 -0.000013 -0.985928 0.125000 0.571064 216 151 20 255
129.585312 -19.175688 -137.682755 0.167171 -0.000013 -0.985928 0.125000 0.571064 216 151 20 255
127.547821 -19.256601 -138.028290 0.167197 0.000049 -0.985923 0.125000 0.575177 216 151 20 255
127.838081 -18.925259 -137.979050 0.167197 0.000049 -0.985923 0.125000 0.574570 216 151 20 255
129.005768 -19.080774 -137.781036 0.167197 0.000049 -0.985923 0.125000 0.572226 216 151 20 255
129.005768 -19.080774 -137.781036 0.167197 -0.000005 -0.985923 0.125000 0.572226 216 151 20 255
129.418869 -18.644373 -137.710983 0.167197 -0.000005 -0.985923 0.125000 0.571364 216 151 20 255
129.585312 -19.175688 -137.682755 0.167197 -0.000005 -0.985923 0.125000 0.571064 216 151 20 255
129.041107 -19.170345 -137.775055 0.167206 0.000000 -0.985922 0.125000 0.571064 216 151 20 255
151.341705 -21.035734 -138.896790 -0.460243 0.268353 0.846264 0.125000 0.625000 147 133 102 255
155.353806 -21.035734 -136.714798 -0.460243 0.268353 0.846264 0.125000 0.625000 147 133 102 255
156.602188 -15.322051 -137.847687 -0.460243 0.268353 0.846264 0.314022 0.625000 147 133 102 255
151.283371 -20.907221 -135.851532 0.201243 0.149019 -0.968140 0.125000 0.562500 147 133 102 255
150.714478 -15.528902 -135.141937 0.201243 0.149019 -0.968140 0.316321 0.500000 147 133 102 255
152.023911 -15.528902 -134.869751 0.201243 0.149019 -0.968140 0.316321 0.500000 147 133 102 255
151.283371 -20.907221 -135.851532 0.023276 0.998969 -0.038964 0.125000 0.562500 115 196 116 255
152.933395 -20.907221 -134.865845 0.023276 0.998969 -0.038964 0.125000 0.562500 115 196 116 255
155.353806 -21.035734 -136.714798 0.023276 0.998969 -0.038964 0.125000 0.625000 115 196 116 255
155.353806 -21.035734 -136.714798 -0.924524 0.279287 0.259333 0.125000 0.625000 147 133 102 255
156.326645 -21.035734 -133.246613 -0.924524 0.279287 0.259333 0.125000 0.625000 147 133 102 255
158.003174 -15.322051 -133.423096 -0.924524 0.279287 0.259333 0.314022 0.625000 147 133 102 255
152.933395 -20.907221 -134.865845 0.898111 0.151573 -0.412822 0.125000 0.562500 147 133 102 255
152.023911 -15.528902 -134.869751 0.898111 0.151573 -0.412822 0.316321 0.500000 147 133 102 255
152.549973 -15.528902 -133.725281 0.898111 0.151573 -0.412822 0.316321 0.500000 147 133 102 255
152.933395 -20.907221 -134.865845 0.041987 0.999080 -0.008694 0.125000 0.562500 115 196 116 255
153.281464 -20.907221 -133.184814 0.041987 0.999080 -0.008694 0.125000 0.562500 115 196 116 255
156.326645 -21.035734 -133.246613 0.041987 0.999080 -0.008694 0.125000 0.625000 115 196 116 255
3 0 1 2
3 3 4 5
3 6 7 8
3 9 10 11
3 12 13 14
3 15 16 17
3 18 19 20
3 21 22 23
3 24 25 26
3 27 28 29
3 30 31 32
3 33 34 35
3 36 37 38
3 39 40 41
3 42 43 44
3 45 46 47
3 48 49 50
3 51 52 53
3 54 55 56
3 57 58 59
3 60 61 62
3 63 64 65
3 66 67 68
3 69 70 71
3 72 73 74
3 75 76 77
3 78 79 80
3 81 82 83
3 84 85 86
3 87 88 89
3 90 91 92
3 93 94 95
3 96 97 98
3 99 100 101
3 102 103 104
3 105 106 107
3 108 109 110
3 111 112 113
3 114 115 116
3 117 118 119
3 120 121 122
3 123 124 125
3 126 127 128
3 129 130 131
3 132 133 134
3 135 136 137
3 138 139 140
3 141 142 143
3 144 145 146
3 147 148 149
3 150 151 152
3 153 154 155
3 45 156 46
3 48 157 49
3 51 158 52
3 54 159 55
3 57 160 58
3 60 161 61
3 63 162 64
3 66 163 67
3 69 164 70
3 72 165 73
3 75 166 76
3 78 167 79
3 168 169 170
3 171 172 173
3 174 175 176
3 177 178 179
3 180 181 182
3 183 184 185
3 186 187 188
3 189 190 191
3 192 193 194
3 195 196 197
3 198 199 200
3 201 202 203
3 204 205 206
3 90 207 91
3 208 209 210
3 211 212 213
3 214 215 216
3 217 218 219
3 220 221 222
3 223 224 225
