ply
format ascii 1.0
comment Created by Blender 2.92.0 - www.blender.org
element vertex 402
property float x
property float y
property float z
property float nx
property float ny
property float nz
property float s
property float t
property uchar red
property uchar green
property uchar blue
property uchar alpha
element face 136
property list uchar uint vertex_indices
end_header
109.788368 -5.327508 -108.783745 0.164364 0.020612 -0.986184 0.507641 0.437500 147 133 102 255
114.469788 -5.327508 -108.003510 0.164364 0.020612 -0.986184 0.507641 0.437500 147 133 102 255
115.039490 -10.345055 -108.013428 0.164364 0.020612 -0.986184 0.316321 0.500000 147 133 102 255
110.927773 -15.362602 -108.803581 0.008612 0.998627 -0.051674 0.125000 0.562500 148 148 148 255
115.484734 -15.491116 -110.527687 0.008612 0.998627 -0.051674 0.125000 0.625000 148 148 148 255
110.803314 -15.491116 -111.307922 0.008612 0.998627 -0.051674 0.125000 0.625000 148 148 148 255
110.803314 -15.491116 -111.307922 -0.164064 0.063811 0.984384 0.125000 0.625000 147 133 102 255
115.484734 -15.491116 -110.527687 -0.164064 0.063811 0.984384 0.125000 0.625000 147 133 102 255
115.075836 -10.511280 -110.918648 -0.164064 0.063811 0.984384 0.314022 0.625000 147 133 102 255
115.039490 -10.345055 -108.013428 -0.996566 -0.082436 -0.007751 0.316321 0.500000 147 133 102 255
114.666946 -5.531444 -111.309608 -0.996566 -0.082436 -0.007751 0.503044 0.625000 147 133 102 255
115.075836 -10.511280 -110.918648 -0.996566 -0.082436 -0.007751 0.314022 0.625000 147 133 102 255
115.609192 -15.362602 -108.023346 -0.432538 0.015436 -0.901484 0.125000 0.562500 147 133 102 255
118.189766 -10.345055 -109.175606 -0.432538 0.015436 -0.901484 0.316321 0.500000 147 133 102 255
118.665199 -15.362602 -109.489639 -0.432538 0.015436 -0.901484 0.125000 0.562500 147 133 102 255
115.075836 -10.511280 -110.918648 0.021166 -0.998128 0.057374 0.314022 0.625000 147 133 102 255
118.189766 -10.345055 -109.175606 0.021166 -0.998128 0.057374 0.316321 0.500000 147 133 102 255
115.039490 -10.345055 -108.013428 0.021166 -0.998128 0.057374 0.316321 0.500000 147 133 102 255
115.484734 -15.491116 -110.527687 0.414944 0.105025 0.903765 0.125000 0.625000 147 133 102 255
116.661659 -10.511280 -111.646744 0.414944 0.105025 0.903765 0.314022 0.625000 147 133 102 255
115.075836 -10.511280 -110.918648 0.414944 0.105025 0.903765 0.314022 0.625000 147 133 102 255
115.484734 -15.491116 -110.527687 0.019338 0.983296 -0.180985 0.125000 0.625000 148 148 148 255
118.665199 -15.362602 -109.489639 0.019338 0.983296 -0.180985 0.125000 0.562500 148 148 148 255
117.216484 -15.710801 -111.536209 0.019338 0.983296 -0.180985 0.125000 0.625000 148 148 148 255
117.216484 -15.710801 -111.536209 0.856872 0.102176 0.505302 0.125000 0.625000 147 133 102 255
118.290108 -11.770923 -114.153496 0.856872 0.102176 0.505302 0.314022 0.625000 147 133 102 255
116.661659 -10.511280 -111.646744 0.856872 0.102176 0.505302 0.314022 0.625000 147 133 102 255
118.665199 -15.362602 -109.489639 0.261309 0.903860 -0.338755 0.125000 0.562500 148 148 148 255
118.826065 -17.224930 -114.334579 0.261309 0.903860 -0.338755 0.125000 0.625000 148 148 148 255
117.216484 -15.710801 -111.536209 0.261309 0.903860 -0.338755 0.125000 0.625000 148 148 148 255
118.189766 -10.345055 -109.175606 0.171819 -0.946121 0.274470 0.316321 0.500000 147 133 102 255
118.290108 -11.770923 -114.153496 0.171819 -0.946121 0.274470 0.314022 0.625000 147 133 102 255
122.255104 -10.650848 -112.774612 0.171819 -0.946121 0.274470 0.316321 0.500000 147 133 102 255
118.665199 -15.362602 -109.489639 -0.697732 0.032689 -0.715613 0.125000 0.562500 147 133 102 255
122.255104 -10.650848 -112.774612 -0.697732 0.032689 -0.715613 0.316321 0.500000 147 133 102 255
122.510391 -16.353304 -113.284004 -0.697732 0.032689 -0.715613 0.125000 0.562500 147 133 102 255
118.290108 -11.770923 -114.153496 0.078798 -0.872526 0.482172 0.314022 0.625000 147 133 102 255
122.855942 -12.836476 -116.827858 0.078798 -0.872526 0.482172 0.316321 0.500000 147 133 102 255
122.255104 -10.650848 -112.774612 0.078798 -0.872526 0.482172 0.316321 0.500000 147 133 102 255
122.510391 -16.353304 -113.284004 -0.996059 0.008957 -0.088234 0.125000 0.562500 147 133 102 255
122.855942 -12.836476 -116.827858 -0.996059 0.008957 -0.088234 0.316321 0.500000 147 133 102 255
122.853683 -18.700705 -117.397636 -0.996059 0.008957 -0.088234 0.125000 0.562500 147 133 102 255
118.826065 -17.224930 -114.334579 0.994901 0.096831 0.028206 0.125000 0.625000 147 133 102 255
118.513466 -13.264855 -116.903290 0.994901 0.096831 0.028206 0.314022 0.625000 147 133 102 255
118.290108 -11.770923 -114.153496 0.994901 0.096831 0.028206 0.314022 0.625000 147 133 102 255
118.826065 -17.224930 -114.334579 -0.071572 0.858528 -0.507747 0.125000 0.625000 148 148 148 255
122.853683 -18.700705 -117.397636 -0.071572 0.858528 -0.507747 0.125000 0.562500 148 148 148 255
118.909889 -18.975805 -117.306877 -0.071572 0.858528 -0.507747 0.125000 0.625000 148 148 148 255
122.853683 -18.700705 -117.397636 -0.852310 -0.006688 0.522994 0.125000 0.562500 147 133 102 255
120.449730 -15.348412 -121.272423 -0.852310 -0.006688 0.522994 0.316321 0.500000 147 133 102 255
120.184914 -21.051678 -121.776924 -0.852310 -0.006688 0.522994 0.125000 0.562500 147 133 102 255
118.909889 -18.975805 -117.306877 0.725790 0.098494 -0.680829 0.125000 0.625000 147 133 102 255
117.007446 -15.037845 -118.765259 0.725790 0.098494 -0.680829 0.314022 0.625000 147 133 102 255
118.513466 -13.264855 -116.903290 0.725790 0.098494 -0.680829 0.314022 0.625000 147 133 102 255
118.909889 -18.975805 -117.306877 -0.249037 0.849314 -0.465453 0.125000 0.625000 148 148 148 255
120.184914 -21.051678 -121.776924 -0.249037 0.849314 -0.465453 0.125000 0.562500 148 148 148 255
117.173027 -20.580791 -119.306206 -0.249037 0.849314 -0.465453 0.125000 0.625000 148 148 148 255
118.513466 -13.264855 -116.903290 0.079419 -0.885636 0.457539 0.314022 0.625000 147 133 102 255
120.449730 -15.348412 -121.272423 0.079419 -0.885636 0.457539 0.316321 0.500000 147 133 102 255
122.855942 -12.836476 -116.827858 0.079419 -0.885636 0.457539 0.316321 0.500000 147 133 102 255
117.173027 -20.580791 -119.306206 0.072450 0.099019 -0.992445 0.125000 0.625000 147 133 102 255
114.805275 -15.595657 -118.981674 0.072450 0.099019 -0.992445 0.314022 0.625000 147 133 102 255
117.007446 -15.037845 -118.765259 0.072450 0.099019 -0.992445 0.314022 0.625000 147 133 102 255
120.184914 -21.051678 -121.776924 -0.165815 0.916916 -0.363001 0.125000 0.562500 148 148 148 255
117.009377 -22.421101 -123.785446 -0.165815 0.916916 -0.363001 0.125000 0.562500 148 148 148 255
116.207253 -21.932314 -122.184402 -0.165815 0.916916 -0.363001 0.125000 0.587770 148 148 148 255
117.007446 -15.037845 -118.765259 0.156413 -0.930909 0.330065 0.314022 0.625000 147 133 102 255
117.527687 -16.646496 -123.548798 0.156413 -0.930909 0.330065 0.316321 0.500000 147 133 102 255
120.449730 -15.348412 -121.272423 0.156413 -0.930909 0.330065 0.316321 0.500000 147 133 102 255
120.184914 -21.051678 -121.776924 -0.538752 0.013836 0.842351 0.125000 0.562500 147 133 102 255
117.527687 -16.646496 -123.548798 -0.538752 0.013836 0.842351 0.316321 0.500000 147 133 102 255
117.009377 -22.421101 -123.785446 -0.538752 0.013836 0.842351 0.125000 0.562500 147 133 102 255
114.805275 -15.595657 -118.981674 0.302104 -0.873772 0.381125 0.314022 0.625000 147 133 102 255
114.878105 -18.008610 -124.571365 0.302104 -0.873772 0.381125 0.316321 0.500000 147 133 102 255
117.527687 -16.646496 -123.548798 0.302104 -0.873772 0.381125 0.316321 0.500000 147 133 102 255
114.878105 -18.008610 -124.571365 -0.728182 0.043201 0.684021 0.316321 0.500000 147 133 102 255
114.359795 -22.998096 -124.808014 -0.728182 0.043201 0.684021 0.125000 0.562500 147 133 102 255
116.083923 -22.483278 -123.005089 -0.728182 0.043201 0.684021 0.125000 0.562500 147 133 102 255
114.604889 -21.212196 -119.510712 0.389079 0.072619 -0.918337 0.125000 0.625000 147 133 102 255
112.225891 -16.830595 -120.172157 0.389079 0.072619 -0.918337 0.314022 0.625000 147 133 102 255
114.805275 -15.595657 -118.981674 0.389079 0.072619 -0.918337 0.314022 0.625000 147 133 102 255
116.083923 -22.483278 -123.005089 0.026427 0.954275 -0.297761 0.125000 0.562500 148 148 148 255
114.359795 -22.998096 -124.808014 0.026427 0.954275 -0.297761 0.125000 0.562500 148 148 148 255
112.025505 -21.652008 -120.701195 0.026427 0.954275 -0.297761 0.125000 0.625000 148 148 148 255
112.225891 -16.830595 -120.172157 0.535847 -0.843561 -0.035669 0.314022 0.625000 147 133 102 255
109.885666 -18.197138 -123.010460 0.535847 -0.843561 -0.035669 0.243512 0.625000 147 133 102 255
111.402145 -17.218904 -123.363693 0.535847 -0.843561 -0.035669 0.314022 0.625000 147 133 102 255
114.359795 -22.998096 -124.808014 0.065042 0.958600 -0.277230 0.125000 0.562500 148 148 148 255
110.622223 -22.761324 -124.866196 0.065042 0.958600 -0.277230 0.125000 0.625000 148 148 148 255
112.025505 -21.652008 -120.701195 0.065042 0.958600 -0.277230 0.125000 0.625000 148 148 148 255
111.402145 -17.218904 -123.363693 -0.136193 -0.935993 0.324604 0.314022 0.625000 147 133 102 255
110.466835 -17.415236 -124.322235 -0.136193 -0.935993 0.324604 0.314022 0.625000 147 133 102 255
113.759758 -18.419147 -125.835411 -0.136193 -0.935993 0.324604 0.316321 0.500000 147 133 102 255
114.359795 -22.998096 -124.808014 -0.867431 -0.002032 0.497554 0.125000 0.562500 147 133 102 255
113.759758 -18.419147 -125.835411 -0.867431 -0.002032 0.497554 0.316321 0.500000 147 133 102 255
113.485512 -23.638721 -126.334846 -0.867431 -0.002032 0.497554 0.125000 0.562500 147 133 102 255
110.622223 -22.761324 -124.866196 0.903020 0.069384 -0.423959 0.125000 0.625000 147 133 102 255
108.805031 -18.819117 -128.091583 0.903020 0.069384 -0.423959 0.314022 0.625000 147 133 102 255
110.466835 -17.415236 -124.322235 0.903020 0.069384 -0.423959 0.314022 0.625000 147 133 102 255
110.622223 -22.761324 -124.866196 0.173105 0.946964 -0.270730 0.125000 0.625000 148 148 148 255
113.106712 -24.023918 -127.693932 0.173105 0.946964 -0.270730 0.125000 0.562500 148 148 148 255
109.304146 -23.518635 -128.357910 0.173105 0.946964 -0.270730 0.125000 0.625000 148 148 148 255
110.466835 -17.415236 -124.322235 0.014610 -0.818259 0.574665 0.314022 0.625000 147 133 102 255
112.938210 -19.356804 -127.149643 0.014610 -0.818259 0.574665 0.316321 0.500000 147 133 102 255
113.759758 -18.419147 -125.835411 0.014610 -0.818259 0.574665 0.316321 0.500000 147 133 102 255
113.485512 -23.638721 -126.334846 -0.955929 -0.067827 0.285657 0.125000 0.562500 147 133 102 255
112.938210 -19.356804 -127.149643 -0.955929 -0.067827 0.285657 0.316321 0.500000 147 133 102 255
113.106712 -24.023918 -127.693932 -0.955929 -0.067827 0.285657 0.125000 0.562500 147 133 102 255
108.805031 -18.819117 -128.091583 -0.175502 -0.958963 0.222686 0.314022 0.625000 147 133 102 255
113.921043 -19.938290 -128.879135 -0.175502 -0.958963 0.222686 0.316321 0.500000 147 133 102 255
112.938210 -19.356804 -127.149643 -0.175502 -0.958963 0.222686 0.316321 0.500000 147 133 102 255
113.106712 -24.023918 -127.693932 -0.801586 -0.013625 -0.597724 0.125000 0.562500 147 133 102 255
113.921043 -19.938290 -128.879135 -0.801586 -0.013625 -0.597724 0.316321 0.500000 147 133 102 255
114.306877 -24.245253 -129.298386 -0.801586 -0.013625 -0.597724 0.125000 0.562500 147 133 102 255
109.304146 -23.518635 -128.357910 0.863764 0.063407 0.499892 0.125000 0.625000 147 133 102 255
111.842995 -19.756868 -133.221939 0.863764 0.063407 0.499892 0.314022 0.625000 147 133 102 255
108.805031 -18.819117 -128.091583 0.863764 0.063407 0.499892 0.314022 0.625000 147 133 102 255
109.304146 -23.518635 -128.357910 0.141709 0.989848 -0.010962 0.125000 0.625000 148 148 148 255
114.306877 -24.245253 -129.298386 0.141709 0.989848 -0.010962 0.125000 0.562500 148 148 148 255
112.408104 -24.017162 -133.248215 0.141709 0.989848 -0.010962 0.125000 0.625000 148 148 148 255
112.408104 -24.017162 -133.248215 0.361900 0.042261 0.931259 0.125000 0.625000 147 133 102 255
114.453941 -19.691662 -134.239548 0.361900 0.042261 0.931259 0.314022 0.625000 147 133 102 255
111.842995 -19.756868 -133.221939 0.361900 0.042261 0.931259 0.314022 0.625000 147 133 102 255
112.408104 -24.017162 -133.248215 0.047967 0.997920 -0.043060 0.125000 0.625000 148 148 148 255
115.775040 -24.042616 -130.087494 0.047967 0.997920 -0.043060 0.125000 0.562500 148 148 148 255
114.955780 -24.171129 -133.978409 0.047967 0.997920 -0.043060 0.125000 0.625000 148 148 148 255
111.842995 -19.756868 -133.221939 0.209760 -0.967563 -0.140791 0.314022 0.625000 147 133 102 255
115.230827 -19.503059 -129.918777 0.209760 -0.967563 -0.140791 0.316321 0.500000 147 133 102 255
113.921043 -19.938290 -128.879135 0.209760 -0.967563 -0.140791 0.316321 0.500000 147 133 102 255
113.921043 -19.938290 -128.879135 -0.477559 0.042643 -0.877564 0.316321 0.500000 147 133 102 255
115.775040 -24.042616 -130.087494 -0.477559 0.042643 -0.877564 0.125000 0.562500 147 133 102 255
114.306877 -24.245253 -129.298386 -0.477559 0.042643 -0.877564 0.125000 0.562500 147 133 102 255
115.775040 -24.042616 -130.087494 -0.152315 0.988332 -0.000573 0.125000 0.562500 148 148 148 255
118.083580 -23.689129 -134.040375 -0.152315 0.988332 -0.000573 0.125000 0.625000 148 148 148 255
114.955780 -24.171129 -133.978409 -0.152315 0.988332 -0.000573 0.125000 0.625000 148 148 148 255
115.230827 -19.503059 -129.918777 0.541754 -0.840361 0.017210 0.316321 0.500000 147 133 102 255
117.648865 -18.036047 -134.402390 0.541754 -0.840361 0.017210 0.314022 0.625000 147 133 102 255
117.811745 -17.847445 -130.320160 0.541754 -0.840361 0.017210 0.316321 0.500000 147 133 102 255
115.230827 -19.503059 -129.918777 -0.111784 0.023522 -0.993454 0.316321 0.500000 147 133 102 255
118.379402 -23.560616 -130.369125 -0.111784 0.023522 -0.993454 0.125000 0.562500 147 133 102 255
115.775040 -24.042616 -130.087494 -0.111784 0.023522 -0.993454 0.125000 0.562500 147 133 102 255
114.453941 -19.691662 -134.239548 0.017064 0.065205 0.997726 0.314022 0.625000 147 133 102 255
118.083580 -23.689129 -134.040375 0.017064 0.065205 0.997726 0.125000 0.625000 147 133 102 255
117.648865 -18.036047 -134.402390 0.017064 0.065205 0.997726 0.314022 0.625000 147 133 102 255
116.207253 -21.932314 -122.184402 -0.949323 -0.175692 0.260610 0.125000 0.587770 217 186 242 255
115.813049 -20.605953 -122.726189 -0.949323 -0.175692 0.260610 0.125000 0.562500 217 186 242 255
116.083923 -22.483278 -123.005089 -0.949323 -0.175692 0.260610 0.125000 0.562500 217 186 242 255
115.813049 -20.605953 -122.726189 -0.941780 0.230253 0.245019 0.125000 0.562500 217 186 242 255
116.053619 -20.282801 -122.105186 -0.941780 0.230253 0.245019 0.125000 0.587770 217 186 242 255
116.023743 -19.739136 -122.730927 -0.941780 0.230253 0.245019 0.125000 0.562500 217 186 242 255
116.310577 -21.480648 -122.585976 0.930310 0.053954 0.362783 0.125000 0.575547 217 186 242 255
116.381813 -20.318222 -122.941528 0.930310 0.053954 0.362783 0.125000 0.562500 217 186 242 255
116.053619 -20.282801 -122.105186 0.930310 0.053954 0.362783 0.125000 0.587770 217 186 242 255
116.083923 -22.483278 -123.005089 -0.644999 0.110942 -0.756087 0.125000 0.562500 217 186 242 255
116.381813 -20.318222 -122.941528 -0.644999 0.110942 -0.756087 0.125000 0.562500 217 186 242 255
117.009377 -22.421101 -123.785446 -0.644999 0.110942 -0.756087 0.125000 0.562500 217 186 242 255
116.894562 -20.609110 -122.192062 0.286936 0.644706 -0.708535 0.125000 0.562500 217 186 242 255
116.548859 -20.644300 -122.364082 0.286936 0.644706 -0.708535 0.125000 0.575399 217 186 242 255
116.655907 -20.369089 -122.070312 0.286936 0.644706 -0.708535 0.125000 0.577033 217 186 242 255
116.053619 -20.282801 -122.105186 0.853827 0.412453 0.317587 0.125000 0.587770 217 186 242 255
116.381813 -20.318222 -122.941528 0.853827 0.412453 0.317587 0.125000 0.562500 217 186 242 255
116.023743 -19.739136 -122.730927 0.853827 0.412453 0.317587 0.125000 0.587770 217 186 242 255
116.381813 -20.318222 -122.941528 -0.392284 0.090347 -0.915396 0.125000 0.562500 217 186 242 255
115.813049 -20.605953 -122.726189 -0.392284 0.090347 -0.915396 0.125000 0.562500 217 186 242 255
116.023743 -19.739136 -122.730927 -0.392284 0.090347 -0.915396 0.125000 0.562500 217 186 242 255
116.310577 -21.480648 -122.585976 0.433293 0.113753 -0.894046 0.125000 0.575547 217 186 242 255
116.548859 -20.644300 -122.364082 0.433293 0.113753 -0.894046 0.125000 0.575399 217 186 242 255
116.894562 -20.609110 -122.192062 0.433293 0.113753 -0.894046 0.125000 0.562500 217 186 242 255
116.310577 -21.480648 -122.585976 -0.952724 0.290484 -0.089085 0.125000 0.575547 217 186 242 255
116.520844 -20.547852 -121.793060 -0.952724 0.290484 -0.089085 0.125000 0.587770 217 186 242 255
116.544891 -20.644705 -122.366058 -0.952724 0.290484 -0.089085 0.125000 0.575547 217 186 242 255
116.207253 -21.932314 -122.184402 0.660109 -0.338999 0.670325 0.125000 0.587770 217 186 242 255
116.894562 -20.609110 -122.192062 0.660109 -0.338999 0.670325 0.125000 0.562500 217 186 242 255
116.520844 -20.547852 -121.793060 0.660109 -0.338999 0.670325 0.125000 0.587770 217 186 242 255
116.655907 -20.369089 -122.070312 -0.871270 0.476623 -0.117129 0.125000 0.577033 217 186 242 255
116.544891 -20.644705 -122.366058 -0.871270 0.476623 -0.117129 0.125000 0.575547 217 186 242 255
116.520844 -20.547852 -121.793060 -0.871270 0.476623 -0.117129 0.125000 0.587770 217 186 242 255
116.520844 -20.547852 -121.793060 0.700166 0.394232 0.595272 0.125000 0.587770 217 186 242 255
116.894562 -20.609110 -122.192062 0.700166 0.394232 0.595272 0.125000 0.562500 217 186 242 255
116.655907 -20.369089 -122.070312 0.700166 0.394232 0.595272 0.125000 0.577033 217 186 242 255
112.857513 -19.188955 -124.571564 0.789052 0.473588 -0.391295 0.314022 0.625000 217 186 242 255
112.921516 -19.491680 -124.808891 0.789052 0.473588 -0.391295 0.296071 0.625000 217 186 242 255
112.397812 -18.881393 -125.126312 0.789052 0.473588 -0.391295 0.314022 0.625000 217 186 242 255
110.466835 -17.415236 -124.322235 -0.672132 -0.465894 -0.575484 0.314022 0.625000 147 133 102 255
112.470848 -20.018221 -124.555511 -0.672132 -0.465894 -0.575484 0.243512 0.625000 217 186 242 255
109.885666 -18.197138 -123.010460 -0.672132 -0.465894 -0.575484 0.243512 0.625000 217 186 242 255
109.885666 -18.197138 -123.010460 0.879270 0.294203 -0.374605 0.243512 0.625000 147 133 102 255
112.025505 -21.652008 -120.701195 0.879270 0.294203 -0.374605 0.125000 0.625000 147 133 102 255
110.622223 -22.761324 -124.866196 0.879270 0.294203 -0.374605 0.125000 0.625000 147 133 102 255
109.885666 -18.197138 -123.010460 0.412241 -0.173604 0.894382 0.243512 0.625000 217 186 242 255
112.470848 -20.018221 -124.555511 0.412241 -0.173604 0.894382 0.243512 0.625000 217 186 242 255
112.850578 -19.198269 -124.571381 0.412241 -0.173604 0.894382 0.313230 0.625000 217 186 242 255
111.402145 -17.218904 -123.363693 0.369548 0.771080 -0.518527 0.314022 0.625000 217 186 242 255
112.397812 -18.881393 -125.126312 0.369548 0.771080 -0.518527 0.314022 0.625000 217 186 242 255
110.466835 -17.415236 -124.322235 0.369548 0.771080 -0.518527 0.314022 0.625000 147 133 102 255
112.397812 -18.881393 -125.126312 0.020291 -0.447580 -0.894013 0.314022 0.625000 217 186 242 255
112.921516 -19.491680 -124.808891 0.020291 -0.447580 -0.894013 0.296071 0.625000 217 186 242 255
112.470848 -20.018221 -124.555511 0.020291 -0.447580 -0.894013 0.243512 0.625000 217 186 242 255
112.470848 -20.018221 -124.555511 0.721169 -0.322112 0.613319 0.243512 0.625000 217 186 242 255
112.921516 -19.491680 -124.808891 0.721169 -0.322112 0.613319 0.296071 0.625000 217 186 242 255
112.850578 -19.198269 -124.571381 0.721169 -0.322112 0.613319 0.313230 0.625000 217 186 242 255
115.609192 -15.362602 -108.023346 0.164364 0.020612 -0.986184 0.125000 0.562500 147 133 102 255
110.927773 -15.362602 -108.803581 0.164364 0.020612 -0.986184 0.125000 0.562500 147 133 102 255
115.609192 -15.362602 -108.023346 0.008612 0.998627 -0.051674 0.125000 0.562500 148 148 148 255
114.666946 -5.531444 -111.309608 -0.185241 0.061787 0.980749 0.503044 0.625000 147 133 102 255
109.632385 -5.531444 -112.260521 -0.185241 0.061787 0.980749 0.503044 0.625000 147 133 102 255
115.075836 -10.511280 -110.918648 -0.185241 0.061787 0.980749 0.314022 0.625000 147 133 102 255
109.632385 -5.531444 -112.260521 -0.174940 0.073342 0.981844 0.503044 0.625000 147 133 102 255
110.803314 -15.491116 -111.307922 -0.174940 0.073342 0.981844 0.125000 0.625000 147 133 102 255
115.075836 -10.511280 -110.918648 -0.174940 0.073342 0.981844 0.314022 0.625000 147 133 102 255
115.039490 -10.345055 -108.013428 -0.992271 -0.112561 -0.052231 0.316321 0.500000 147 133 102 255
114.469788 -5.327508 -108.003510 -0.992271 -0.112561 -0.052231 0.507641 0.437500 147 133 102 255
114.666946 -5.531444 -111.309608 -0.992271 -0.112561 -0.052231 0.503044 0.625000 147 133 102 255
115.609192 -15.362602 -108.023346 -0.345869 -0.037417 -0.937536 0.125000 0.562500 147 133 102 255
115.039490 -10.345055 -108.013428 -0.345869 -0.037417 -0.937536 0.316321 0.500000 147 133 102 255
118.189766 -10.345055 -109.175606 -0.345869 -0.037417 -0.937536 0.316321 0.500000 147 133 102 255
115.075836 -10.511280 -110.918648 0.024015 -0.998342 0.052305 0.314022 0.625000 147 133 102 255
116.661659 -10.511280 -111.646744 0.024015 -0.998342 0.052305 0.314022 0.625000 147 133 102 255
118.189766 -10.345055 -109.175606 0.024015 -0.998342 0.052305 0.316321 0.500000 147 133 102 255
115.484734 -15.491116 -110.527687 0.508780 0.072527 0.857836 0.125000 0.625000 147 133 102 255
117.216484 -15.710801 -111.536209 0.508780 0.072527 0.857836 0.125000 0.625000 147 133 102 255
116.661659 -10.511280 -111.646744 0.508780 0.072527 0.857836 0.314022 0.625000 147 133 102 255
115.484734 -15.491116 -110.527687 -0.024011 0.998458 -0.050044 0.125000 0.625000 148 148 148 255
115.609192 -15.362602 -108.023346 -0.024011 0.998458 -0.050044 0.125000 0.562500 148 148 148 255
118.665199 -15.362602 -109.489639 -0.024011 0.998458 -0.050044 0.125000 0.562500 148 148 148 255
117.216484 -15.710801 -111.536209 0.880772 0.071007 0.468187 0.125000 0.625000 147 133 102 255
118.826065 -17.224930 -114.334579 0.880772 0.071007 0.468187 0.125000 0.625000 147 133 102 255
118.290108 -11.770923 -114.153496 0.880772 0.071007 0.468187 0.314022 0.625000 147 133 102 255
118.665199 -15.362602 -109.489639 -0.116442 0.925767 -0.359718 0.125000 0.562500 148 148 148 255
122.510391 -16.353304 -113.284004 -0.116442 0.925767 -0.359718 0.125000 0.562500 148 148 148 255
118.826065 -17.224930 -114.334579 -0.116442 0.925767 -0.359718 0.125000 0.625000 148 148 148 255
118.189766 -10.345055 -109.175606 -0.313866 -0.914416 0.255599 0.316321 0.500000 147 133 102 255
116.661659 -10.511280 -111.646744 -0.313866 -0.914416 0.255599 0.314022 0.625000 147 133 102 255
118.290108 -11.770923 -114.153496 -0.313866 -0.914416 0.255599 0.314022 0.625000 147 133 102 255
118.665199 -15.362602 -109.489639 -0.663449 -0.016046 -0.748050 0.125000 0.562500 147 133 102 255
118.189766 -10.345055 -109.175606 -0.663449 -0.016046 -0.748050 0.316321 0.500000 147 133 102 255
122.255104 -10.650848 -112.774612 -0.663449 -0.016046 -0.748050 0.316321 0.500000 147 133 102 255
118.290108 -11.770923 -114.153496 0.077804 -0.873366 0.480810 0.314022 0.625000 147 133 102 255
118.513466 -13.264855 -116.903290 0.077804 -0.873366 0.480810 0.314022 0.625000 147 133 102 255
122.855942 -12.836476 -116.827858 0.077804 -0.873366 0.480810 0.316321 0.500000 147 133 102 255
122.510391 -16.353304 -113.284004 -0.991073 -0.032826 -0.129212 0.125000 0.562500 147 133 102 255
122.255104 -10.650848 -112.774612 -0.991073 -0.032826 -0.129212 0.316321 0.500000 147 133 102 255
122.855942 -12.836476 -116.827858 -0.991073 -0.032826 -0.129212 0.316321 0.500000 147 133 102 255
118.826065 -17.224930 -114.334579 0.997448 0.070171 -0.013205 0.125000 0.625000 147 133 102 255
118.909889 -18.975805 -117.306877 0.997448 0.070171 -0.013205 0.125000 0.625000 147 133 102 255
118.513466 -13.264855 -116.903290 0.997448 0.070171 -0.013205 0.314022 0.625000 147 133 102 255
118.826065 -17.224930 -114.334579 -0.062375 0.864597 -0.498579 0.125000 0.625000 148 148 148 255
122.510391 -16.353304 -113.284004 -0.062375 0.864597 -0.498579 0.125000 0.562500 148 148 148 255
122.853683 -18.700705 -117.397636 -0.062375 0.864597 -0.498579 0.125000 0.562500 148 148 148 255
122.853683 -18.700705 -117.397636 -0.866806 -0.047892 0.496341 0.125000 0.562500 147 133 102 255
122.855942 -12.836476 -116.827858 -0.866806 -0.047892 0.496341 0.316321 0.500000 147 133 102 255
120.449730 -15.348412 -121.272423 -0.866806 -0.047892 0.496341 0.316321 0.500000 147 133 102 255
118.909889 -18.975805 -117.306877 0.715449 0.089001 -0.692973 0.125000 0.625000 147 133 102 255
117.173027 -20.580791 -119.306206 0.715449 0.089001 -0.692973 0.125000 0.625000 147 133 102 255
117.007446 -15.037845 -118.765259 0.715449 0.089001 -0.692973 0.314022 0.625000 147 133 102 255
118.909889 -18.975805 -117.306877 -0.072594 0.896507 -0.437041 0.125000 0.625000 148 148 148 255
122.853683 -18.700705 -117.397636 -0.072594 0.896507 -0.437041 0.125000 0.562500 148 148 148 255
120.184914 -21.051678 -121.776924 -0.072594 0.896507 -0.437041 0.125000 0.562500 148 148 148 255
118.513466 -13.264855 -116.903290 0.303936 -0.800554 0.516464 0.314022 0.625000 147 133 102 255
117.007446 -15.037845 -118.765259 0.303936 -0.800554 0.516464 0.314022 0.625000 147 133 102 255
120.449730 -15.348412 -121.272423 0.303936 -0.800554 0.516464 0.316321 0.500000 147 133 102 255
117.173027 -20.580791 -119.306206 0.056642 0.091624 -0.994181 0.125000 0.625000 147 133 102 255
114.604889 -21.212196 -119.510712 0.056642 0.091624 -0.994181 0.125000 0.625000 147 133 102 255
114.805275 -15.595657 -118.981674 0.056642 0.091624 -0.994181 0.314022 0.625000 147 133 102 255
114.604889 -21.212196 -119.510712 -0.195200 0.911337 -0.362440 0.125000 0.625000 148 148 148 255
117.173027 -20.580791 -119.306206 -0.195200 0.911337 -0.362440 0.125000 0.625000 148 148 148 255
116.207253 -21.932314 -122.184402 -0.195200 0.911337 -0.362440 0.125000 0.587770 148 148 148 255
117.173027 -20.580791 -119.306206 -0.163839 0.912956 -0.373723 0.125000 0.625000 148 148 148 255
120.184914 -21.051678 -121.776924 -0.163839 0.912956 -0.373723 0.125000 0.562500 148 148 148 255
116.207253 -21.932314 -122.184402 -0.163839 0.912956 -0.373723 0.125000 0.587770 148 148 148 255
117.007446 -15.037845 -118.765259 0.200863 -0.921715 0.331808 0.314022 0.625000 147 133 102 255
114.805275 -15.595657 -118.981674 0.200863 -0.921715 0.331808 0.314022 0.625000 147 133 102 255
117.527687 -16.646496 -123.548798 0.200863 -0.921715 0.331808 0.316321 0.500000 147 133 102 255
120.184914 -21.051678 -121.776924 -0.602167 -0.042562 0.797235 0.125000 0.562500 147 133 102 255
120.449730 -15.348412 -121.272423 -0.602167 -0.042562 0.797235 0.316321 0.500000 147 133 102 255
117.527687 -16.646496 -123.548798 -0.602167 -0.042562 0.797235 0.316321 0.500000 147 133 102 255
114.805275 -15.595657 -118.981674 0.246887 -0.888514 0.386769 0.314022 0.625000 147 133 102 255
112.225891 -16.830595 -120.172157 0.246887 -0.888514 0.386769 0.314022 0.625000 147 133 102 255
114.878105 -18.008610 -124.571365 0.246887 -0.888514 0.386769 0.316321 0.500000 147 133 102 255
116.083923 -22.483278 -123.005089 0.573669 0.403996 0.712524 0.125000 0.562500 147 133 102 255
117.009377 -22.421101 -123.785446 0.573669 0.403996 0.712524 0.125000 0.562500 147 133 102 255
114.878105 -18.008610 -124.571365 0.573669 0.403996 0.712524 0.316321 0.500000 147 133 102 255
117.009377 -22.421101 -123.785446 -0.357265 -0.006208 0.933982 0.125000 0.562500 147 133 102 255
117.527687 -16.646496 -123.548798 -0.357265 -0.006208 0.933982 0.316321 0.500000 147 133 102 255
114.878105 -18.008610 -124.571365 -0.357265 -0.006208 0.933982 0.316321 0.500000 147 133 102 255
114.604889 -21.212196 -119.510712 0.405911 0.082996 -0.910136 0.125000 0.625000 147 133 102 255
112.025505 -21.652008 -120.701195 0.405911 0.082996 -0.910136 0.125000 0.625000 147 133 102 255
112.225891 -16.830595 -120.172157 0.405911 0.082996 -0.910136 0.314022 0.625000 147 133 102 255
112.025505 -21.652008 -120.701195 -0.034729 0.959586 -0.279263 0.125000 0.625000 148 148 148 255
114.604889 -21.212196 -119.510712 -0.034729 0.959586 -0.279263 0.125000 0.625000 148 148 148 255
116.207253 -21.932314 -122.184402 -0.034729 0.959586 -0.279263 0.125000 0.587770 148 148 148 255
116.207253 -21.932314 -122.184402 -0.135127 0.831916 -0.538197 0.125000 0.587770 148 148 148 255
116.083923 -22.483278 -123.005089 -0.135127 0.831916 -0.538197 0.125000 0.562500 148 148 148 255
112.025505 -21.652008 -120.701195 -0.135127 0.831916 -0.538197 0.125000 0.625000 148 148 148 255
114.359795 -22.998096 -124.808014 0.063927 0.906649 -0.417015 0.125000 0.562500 148 148 148 255
113.485512 -23.638721 -126.334846 0.063927 0.906649 -0.417015 0.125000 0.562500 148 148 148 255
110.622223 -22.761324 -124.866196 0.063927 0.906649 -0.417015 0.125000 0.625000 148 148 148 255
113.759758 -18.419147 -125.835411 -0.080882 -0.924743 0.371898 0.316321 0.500000 147 133 102 255
114.878105 -18.008610 -124.571365 -0.080882 -0.924743 0.371898 0.316321 0.500000 147 133 102 255
111.402145 -17.218904 -123.363693 -0.080882 -0.924743 0.371898 0.314022 0.625000 147 133 102 255
114.878105 -18.008610 -124.571365 -0.165126 -0.973042 0.161008 0.316321 0.500000 147 133 102 255
112.225891 -16.830595 -120.172157 -0.165126 -0.973042 0.161008 0.314022 0.625000 147 133 102 255
111.402145 -17.218904 -123.363693 -0.165126 -0.973042 0.161008 0.314022 0.625000 147 133 102 255
114.359795 -22.998096 -124.808014 -0.755715 0.047524 0.653174 0.125000 0.562500 147 133 102 255
114.878105 -18.008610 -124.571365 -0.755715 0.047524 0.653174 0.316321 0.500000 147 133 102 255
113.759758 -18.419147 -125.835411 -0.755715 0.047524 0.653174 0.316321 0.500000 147 133 102 255
110.622223 -22.761324 -124.866196 0.920136 0.118869 -0.373121 0.125000 0.625000 147 133 102 255
109.304146 -23.518635 -128.357910 0.920136 0.118869 -0.373121 0.125000 0.625000 147 133 102 255
108.805031 -18.819117 -128.091583 0.920136 0.118869 -0.373121 0.314022 0.625000 147 133 102 255
110.622223 -22.761324 -124.866196 0.132911 0.943233 -0.304379 0.125000 0.625000 148 148 148 255
113.485512 -23.638721 -126.334846 0.132911 0.943233 -0.304379 0.125000 0.562500 148 148 148 255
113.106712 -24.023918 -127.693932 0.132911 0.943233 -0.304379 0.125000 0.562500 148 148 148 255
110.466835 -17.415236 -124.322235 -0.210787 -0.882021 0.421436 0.314022 0.625000 147 133 102 255
108.805031 -18.819117 -128.091583 -0.210787 -0.882021 0.421436 0.314022 0.625000 147 133 102 255
112.938210 -19.356804 -127.149643 -0.210787 -0.882021 0.421436 0.316321 0.500000 147 133 102 255
113.485512 -23.638721 -126.334846 -0.845811 -0.006602 0.533441 0.125000 0.562500 147 133 102 255
113.759758 -18.419147 -125.835411 -0.845811 -0.006602 0.533441 0.316321 0.500000 147 133 102 255
112.938210 -19.356804 -127.149643 -0.845811 -0.006602 0.533441 0.316321 0.500000 147 133 102 255
108.805031 -18.819117 -128.091583 -0.204937 -0.977100 0.057245 0.314022 0.625000 147 133 102 255
111.842995 -19.756868 -133.221939 -0.204937 -0.977100 0.057245 0.314022 0.625000 147 133 102 255
113.921043 -19.938290 -128.879135 -0.204937 -0.977100 0.057245 0.316321 0.500000 147 133 102 255
113.106712 -24.023918 -127.693932 -0.865148 0.027166 -0.500779 0.125000 0.562500 147 133 102 255
112.938210 -19.356804 -127.149643 -0.865148 0.027166 -0.500779 0.316321 0.500000 147 133 102 255
113.921043 -19.938290 -128.879135 -0.865148 0.027166 -0.500779 0.316321 0.500000 147 133 102 255
109.304146 -23.518635 -128.357910 0.844262 0.108751 0.524781 0.125000 0.625000 147 133 102 255
112.408104 -24.017162 -133.248215 0.844262 0.108751 0.524781 0.125000 0.625000 147 133 102 255
111.842995 -19.756868 -133.221939 0.844262 0.108751 0.524781 0.314022 0.625000 147 133 102 255
109.304146 -23.518635 -128.357910 0.137436 0.989935 -0.033756 0.125000 0.625000 148 148 148 255
113.106712 -24.023918 -127.693932 0.137436 0.989935 -0.033756 0.125000 0.562500 148 148 148 255
114.306877 -24.245253 -129.298386 0.137436 0.989935 -0.033756 0.125000 0.562500 148 148 148 255
112.408104 -24.017162 -133.248215 0.279330 0.087040 0.956242 0.125000 0.625000 147 133 102 255
114.955780 -24.171129 -133.978409 0.279330 0.087040 0.956242 0.125000 0.625000 147 133 102 255
114.453941 -19.691662 -134.239548 0.279330 0.087040 0.956242 0.314022 0.625000 147 133 102 255
112.408104 -24.017162 -133.248215 -0.084305 0.991630 0.097791 0.125000 0.625000 148 148 148 255
114.306877 -24.245253 -129.298386 -0.084305 0.991630 0.097791 0.125000 0.562500 148 148 148 255
115.775040 -24.042616 -130.087494 -0.084305 0.991630 0.097791 0.125000 0.562500 148 148 148 255
111.842995 -19.756868 -133.221939 0.039181 -0.998564 0.036543 0.314022 0.625000 147 133 102 255
114.453941 -19.691662 -134.239548 0.039181 -0.998564 0.036543 0.314022 0.625000 147 133 102 255
115.230827 -19.503059 -129.918777 0.039181 -0.998564 0.036543 0.316321 0.500000 147 133 102 255
113.921043 -19.938290 -128.879135 -0.612086 -0.044033 -0.789565 0.316321 0.500000 147 133 102 255
115.230827 -19.503059 -129.918777 -0.612086 -0.044033 -0.789565 0.316321 0.500000 147 133 102 255
115.775040 -24.042616 -130.087494 -0.612086 -0.044033 -0.789565 0.125000 0.562500 147 133 102 255
115.775040 -24.042616 -130.087494 -0.183995 0.982732 -0.019575 0.125000 0.562500 148 148 148 255
118.379402 -23.560616 -130.369125 -0.183995 0.982732 -0.019575 0.125000 0.562500 148 148 148 255
118.083580 -23.689129 -134.040375 -0.183995 0.982732 -0.019575 0.125000 0.625000 148 148 148 255
115.230827 -19.503059 -129.918777 0.457907 -0.887932 -0.043574 0.316321 0.500000 147 133 102 255
114.453941 -19.691662 -134.239548 0.457907 -0.887932 -0.043574 0.314022 0.625000 147 133 102 255
117.648865 -18.036047 -134.402390 0.457907 -0.887932 -0.043574 0.314022 0.625000 147 133 102 255
115.230827 -19.503059 -129.918777 -0.149661 -0.006396 -0.988717 0.316321 0.500000 147 133 102 255
117.811745 -17.847445 -130.320160 -0.149661 -0.006396 -0.988717 0.316321 0.500000 147 133 102 255
118.379402 -23.560616 -130.369125 -0.149661 -0.006396 -0.988717 0.125000 0.562500 147 133 102 255
114.453941 -19.691662 -134.239548 0.010625 0.059381 0.998179 0.314022 0.625000 147 133 102 255
114.955780 -24.171129 -133.978409 0.010625 0.059381 0.998179 0.125000 0.625000 147 133 102 255
118.083580 -23.689129 -134.040375 0.010625 0.059381 0.998179 0.125000 0.625000 147 133 102 255
116.207253 -21.932314 -122.184402 -0.907978 -0.104060 0.405892 0.125000 0.587770 217 186 242 255
116.053619 -20.282801 -122.105186 -0.907978 -0.104060 0.405892 0.125000 0.587770 217 186 242 255
115.813049 -20.605953 -122.726189 -0.907978 -0.104060 0.405892 0.125000 0.562500 217 186 242 255
116.053619 -20.282801 -122.105186 0.943284 0.072295 0.324021 0.125000 0.587770 217 186 242 255
116.207253 -21.932314 -122.184402 0.943284 0.072295 0.324021 0.125000 0.587770 217 186 242 255
116.310577 -21.480648 -122.585976 0.943284 0.072295 0.324021 0.125000 0.575547 217 186 242 255
116.310577 -21.480648 -122.585976 0.888189 0.083757 0.451780 0.125000 0.575547 217 186 242 255
117.009377 -22.421101 -123.785446 0.888189 0.083757 0.451780 0.125000 0.562500 217 186 242 255
116.381813 -20.318222 -122.941528 0.888189 0.083757 0.451780 0.125000 0.562500 217 186 242 255
116.083923 -22.483278 -123.005089 -0.388240 0.080369 -0.918047 0.125000 0.562500 217 186 242 255
115.813049 -20.605953 -122.726189 -0.388240 0.080369 -0.918047 0.125000 0.562500 217 186 242 255
116.381813 -20.318222 -122.941528 -0.388240 0.080369 -0.918047 0.125000 0.562500 217 186 242 255
116.894562 -20.609110 -122.192062 -0.407062 0.588487 -0.698558 0.125000 0.562500 217 186 242 255
117.009377 -22.421101 -123.785446 -0.407062 0.588487 -0.698558 0.125000 0.562500 217 186 242 255
116.310577 -21.480648 -122.585976 -0.407062 0.588487 -0.698558 0.125000 0.575547 217 186 242 255
116.310577 -21.480648 -122.585976 0.433647 0.113611 -0.893892 0.125000 0.575547 217 186 242 255
116.544891 -20.644705 -122.366058 0.433647 0.113611 -0.893892 0.125000 0.575547 217 186 242 255
116.548859 -20.644300 -122.364082 0.433647 0.113611 -0.893892 0.125000 0.575399 217 186 242 255
116.310577 -21.480648 -122.585976 -0.975178 0.221416 -0.001878 0.125000 0.575547 217 186 242 255
116.207253 -21.932314 -122.184402 -0.975178 0.221416 -0.001878 0.125000 0.587770 217 186 242 255
116.520844 -20.547852 -121.793060 -0.975178 0.221416 -0.001878 0.125000 0.587770 217 186 242 255
116.207253 -21.932314 -122.184402 0.767107 -0.395533 0.505075 0.125000 0.587770 217 186 242 255
117.009377 -22.421101 -123.785446 0.767107 -0.395533 0.505075 0.125000 0.562500 217 186 242 255
116.894562 -20.609110 -122.192062 0.767107 -0.395533 0.505075 0.125000 0.562500 217 186 242 255
116.655907 -20.369089 -122.070312 0.287203 0.644595 -0.708528 0.125000 0.577033 217 186 242 255
116.548859 -20.644300 -122.364082 0.287203 0.644595 -0.708528 0.125000 0.575399 217 186 242 255
116.544891 -20.644705 -122.366058 0.287203 0.644595 -0.708528 0.125000 0.575547 217 186 242 255
112.857513 -19.188955 -124.571564 0.583662 -0.420958 0.694358 0.314022 0.625000 217 186 242 255
112.850578 -19.198269 -124.571381 0.583662 -0.420958 0.694358 0.313230 0.625000 217 186 242 255
112.921516 -19.491680 -124.808891 0.583662 -0.420958 0.694358 0.296071 0.625000 217 186 242 255
110.466835 -17.415236 -124.322235 -0.591134 -0.391932 -0.704947 0.314022 0.625000 147 133 102 255
112.397812 -18.881393 -125.126312 -0.591134 -0.391932 -0.704947 0.314022 0.625000 217 186 242 255
112.470848 -20.018221 -124.555511 -0.591134 -0.391932 -0.704947 0.243512 0.625000 217 186 242 255
110.622223 -22.761324 -124.866196 0.917231 -0.013848 0.398116 0.125000 0.625000 147 133 102 255
110.466835 -17.415236 -124.322235 0.917231 -0.013848 0.398116 0.314022 0.625000 147 133 102 255
109.885666 -18.197138 -123.010460 0.917231 -0.013848 0.398116 0.243512 0.625000 147 133 102 255
109.885666 -18.197138 -123.010460 0.761584 0.039326 -0.646872 0.243512 0.625000 147 133 102 255
112.225891 -16.830595 -120.172157 0.761584 0.039326 -0.646872 0.314022 0.625000 147 133 102 255
112.025505 -21.652008 -120.701195 0.761584 0.039326 -0.646872 0.125000 0.625000 147 133 102 255
112.857513 -19.188955 -124.571564 0.378414 -0.264339 0.887090 0.314022 0.625000 217 186 242 255
111.402145 -17.218904 -123.363693 0.378414 -0.264339 0.887090 0.314022 0.625000 217 186 242 255
112.850578 -19.198269 -124.571381 0.378414 -0.264339 0.887090 0.313230 0.625000 217 186 242 255
111.402145 -17.218904 -123.363693 0.377612 -0.265010 0.887231 0.314022 0.625000 217 186 242 255
109.885666 -18.197138 -123.010460 0.377612 -0.265010 0.887231 0.243512 0.625000 217 186 242 255
112.850578 -19.198269 -124.571381 0.377612 -0.265010 0.887231 0.313230 0.625000 217 186 242 255
111.402145 -17.218904 -123.363693 0.713615 0.664029 -0.223201 0.314022 0.625000 217 186 242 255
112.857513 -19.188955 -124.571564 0.713615 0.664029 -0.223201 0.314022 0.625000 217 186 242 255
112.397812 -18.881393 -125.126312 0.713615 0.664029 -0.223201 0.314022 0.625000 217 186 242 255
3 0 1 2
3 3 4 5
3 6 7 8
3 9 10 11
3 12 13 14
3 15 16 17
3 18 19 20
3 21 22 23
3 24 25 26
3 27 28 29
3 30 31 32
3 33 34 35
3 36 37 38
3 39 40 41
3 42 43 44
3 45 46 47
3 48 49 50
3 51 52 53
3 54 55 56
3 57 58 59
3 60 61 62
3 63 64 65
3 66 67 68
3 69 70 71
3 72 73 74
3 75 76 77
3 78 79 80
3 81 82 83
3 84 85 86
3 87 88 89
3 90 91 92
3 93 94 95
3 96 97 98
3 99 100 101
3 102 103 104
3 105 106 107
3 108 109 110
3 111 112 113
3 114 115 116
3 117 118 119
3 120 121 122
3 123 124 125
3 126 127 128
3 129 130 131
3 132 133 134
3 135 136 137
3 138 139 140
3 141 142 143
3 144 145 146
3 147 148 149
3 150 151 152
3 153 154 155
3 156 157 158
3 159 160 161
3 162 163 164
3 165 166 167
3 168 169 170
3 171 172 173
3 174 175 176
3 177 178 179
3 180 181 182
3 183 184 185
3 186 187 188
3 189 190 191
3 192 193 194
3 195 196 197
3 198 199 200
3 201 202 2
3 202 0 2
3 3 203 4
3 204 205 206
3 207 208 209
3 210 211 212
3 213 214 215
3 216 217 218
3 219 220 221
3 222 223 224
3 225 226 227
3 228 229 230
3 231 232 233
3 234 235 236
3 237 238 239
3 240 241 242
3 243 244 245
3 246 247 248
3 249 250 251
3 252 253 254
3 255 256 257
3 258 259 260
3 261 262 263
3 264 265 266
3 267 268 269
3 270 271 272
3 273 274 275
3 276 277 278
3 279 280 281
3 282 283 284
3 285 286 287
3 288 289 290
3 291 292 293
3 294 295 296
3 297 298 299
3 300 301 302
3 303 304 305
3 306 307 308
3 309 310 311
3 312 313 314
3 315 316 317
3 318 319 320
3 321 322 323
3 324 325 326
3 327 328 329
3 330 331 332
3 333 334 335
3 336 337 338
3 339 340 341
3 342 343 344
3 345 346 347
3 348 349 350
3 351 352 353
3 354 355 356
3 357 358 359
3 360 361 362
3 363 364 365
3 366 367 368
3 369 370 371
3 372 373 374
3 375 376 377
3 378 379 380
3 381 382 383
3 384 385 386
3 387 388 389
3 390 391 392
3 393 394 395
3 396 397 398
3 399 400 401
