ply
format ascii 1.0
comment Created by Blender 2.92.0 - www.blender.org
element vertex 322
property float x
property float y
property float z
property float nx
property float ny
property float nz
property float s
property float t
property uchar red
property uchar green
property uchar blue
property uchar alpha
element face 120
property list uchar uint vertex_indices
end_header
138.107849 -36.647232 -7.840187 0.041416 0.997312 -0.060439 0.125000 0.595685 80 72 55 255
141.662903 -36.813370 -8.145541 0.041416 0.997312 -0.060439 0.125000 0.599622 80 72 55 255
139.463516 -36.813370 -9.652687 0.041416 0.997312 -0.060439 0.125000 0.599622 80 72 55 255
138.843750 -29.018536 -7.133572 0.510120 0.030409 -0.859565 0.133548 0.595872 147 133 102 255
141.376556 -36.647232 -5.900330 0.510120 0.030409 -0.859565 0.125000 0.595685 147 133 102 255
138.107849 -36.647232 -7.840187 0.510120 0.030409 -0.859565 0.125000 0.595685 147 133 102 255
139.463516 -36.813370 -9.652687 0.042589 0.997316 -0.059560 0.125000 0.599622 178 136 64 255
141.719467 -36.846184 -8.589001 0.042589 0.997316 -0.059560 0.125000 0.600399 178 136 64 255
139.731277 -36.846184 -10.010681 0.042589 0.997316 -0.059560 0.125000 0.600399 178 136 64 255
139.731277 -36.846184 -10.010681 0.055979 0.997202 -0.049536 0.125000 0.600399 115 196 116 255
142.024048 -37.022907 -10.977270 0.055979 0.997202 -0.049536 0.125000 0.604587 115 196 116 255
141.173309 -37.022907 -11.938667 0.055979 0.997202 -0.049536 0.125000 0.604587 115 196 116 255
142.591660 -29.136137 -12.595760 -0.699043 0.191685 0.688909 0.133571 0.602856 147 133 102 255
142.024048 -37.022907 -10.977270 -0.699043 0.191685 0.688909 0.125000 0.604587 147 133 102 255
142.934357 -29.136137 -12.248022 -0.699043 0.191685 0.688909 0.133571 0.602856 147 133 102 255
142.024048 -37.022907 -10.977270 -0.460638 0.000001 0.887588 0.125000 0.604587 147 133 102 255
145.746597 -37.022907 -9.045352 -0.460638 0.000001 0.887588 0.125000 0.604587 147 133 102 255
145.932983 -34.559166 -8.948626 -0.460638 0.000001 0.887588 0.125000 0.604587 147 133 102 255
141.719467 -36.846184 -8.589001 0.039238 0.996861 -0.068758 0.125000 0.600399 80 72 55 255
141.662903 -36.813370 -8.145541 0.039238 0.996861 -0.068758 0.125000 0.599622 80 72 55 255
144.377686 -36.832947 -6.880148 0.039238 0.996861 -0.068758 0.125000 0.600086 80 72 55 255
142.365128 -29.018536 -5.648155 0.575031 -0.047517 -0.816751 0.133548 0.595872 147 133 102 255
142.857162 -36.647232 -4.857914 0.575031 -0.047517 -0.816751 0.125000 0.595685 147 133 102 255
141.376556 -36.647232 -5.900330 0.575031 -0.047517 -0.816751 0.125000 0.595685 147 133 102 255
145.932983 -34.559166 -8.948626 0.063983 0.996521 -0.053412 0.125000 0.604587 147 133 102 255
146.497345 -34.358803 -4.534342 0.063983 0.996521 -0.053412 0.125000 0.599839 147 133 102 255
149.174927 -34.559166 -5.065046 0.063983 0.996521 -0.053412 0.125000 0.604587 147 133 102 255
143.591263 -29.018536 -4.149439 0.518869 0.029413 -0.854347 0.133548 0.595872 147 133 102 255
144.154526 -36.647232 -4.069988 0.518869 0.029413 -0.854347 0.125000 0.595685 147 133 102 255
142.857162 -36.647232 -4.857914 0.518869 0.029413 -0.854347 0.125000 0.595685 147 133 102 255
147.352982 -29.136137 -9.602130 -0.819736 0.179603 0.543853 0.133571 0.602856 147 133 102 255
149.174927 -34.559166 -5.065046 -0.819736 0.179603 0.543853 0.125000 0.604587 147 133 102 255
150.668686 -29.136137 -4.604454 -0.819736 0.179603 0.543853 0.133571 0.602856 147 133 102 255
144.487106 -34.382568 -7.025671 -0.775710 0.086826 0.625088 0.125000 0.600402 147 133 102 255
146.261261 -36.804878 -4.487549 -0.775710 0.086826 0.625088 0.125000 0.599420 147 133 102 255
146.497345 -34.358803 -4.534342 -0.775710 0.086826 0.625088 0.125000 0.599839 147 133 102 255
144.319931 -36.659607 -4.102770 0.062479 0.996188 -0.060874 0.125000 0.595978 80 72 55 255
145.820328 -36.771881 -4.400154 0.062479 0.996188 -0.060874 0.125000 0.598639 80 72 55 255
144.377686 -36.832947 -6.880148 0.062479 0.996188 -0.060874 0.125000 0.600086 80 72 55 255
145.746597 -37.022907 -9.045352 -0.792759 0.083677 -0.603764 0.125000 0.604587 147 133 102 255
144.487106 -34.382568 -7.025671 -0.792759 0.083677 -0.603764 0.125000 0.600402 147 133 102 255
145.932983 -34.559166 -8.948626 -0.792759 0.083677 -0.603764 0.125000 0.604587 147 133 102 255
144.513611 -35.206444 -3.992252 -0.312166 0.128585 -0.941285 0.126526 0.596284 147 133 102 255
144.228699 -29.018536 -3.052464 -0.312166 0.128585 -0.941285 0.133548 0.595872 147 133 102 255
146.497345 -34.358803 -4.534342 -0.312166 0.128585 -0.941285 0.125000 0.599839 147 133 102 255
146.048798 -35.019737 -4.445438 -0.975878 0.123984 0.179695 0.125477 0.598996 147 133 102 255
146.438446 -36.771881 -1.120443 -0.975878 0.123984 0.179695 0.125000 0.598639 147 133 102 255
146.668152 -35.019737 -1.081892 -0.975878 0.123984 0.179695 0.125477 0.598996 147 133 102 255
144.513611 -35.206444 -3.992252 0.969693 -0.112758 -0.216749 0.126526 0.596284 147 133 102 255
144.929962 -36.659607 -1.373608 0.969693 -0.112758 -0.216749 0.125000 0.595978 147 133 102 255
144.319931 -36.659607 -4.102770 0.969693 -0.112758 -0.216749 0.125000 0.595978 147 133 102 255
146.048798 -35.019737 -4.445438 0.114056 -0.993212 -0.022821 0.125477 0.598996 147 133 102 255
145.071960 -35.206444 -1.201670 0.114056 -0.993212 -0.022821 0.126526 0.596284 147 133 102 255
144.513611 -35.206444 -3.992252 0.114056 -0.993212 -0.022821 0.126526 0.596284 147 133 102 255
145.820328 -36.771881 -4.400154 0.076626 0.996955 -0.014441 0.125000 0.598639 80 72 55 255
144.929962 -36.659607 -1.373608 0.076626 0.996955 -0.014441 0.125000 0.595978 80 72 55 255
146.438446 -36.771881 -1.120443 0.076626 0.996955 -0.014441 0.125000 0.598639 80 72 55 255
145.071960 -35.206444 -1.201670 0.965060 -0.121755 0.232022 0.126526 0.596284 147 133 102 255
144.401917 -36.659607 0.822718 0.965060 -0.121755 0.232022 0.125000 0.595978 147 133 102 255
144.929962 -36.659607 -1.373608 0.965060 -0.121755 0.232022 0.125000 0.595978 147 133 102 255
146.668152 -35.019737 -1.081892 -0.961756 0.129739 -0.241234 0.125477 0.598996 147 133 102 255
145.796432 -36.771881 1.451166 -0.961756 0.129739 -0.241234 0.125000 0.598639 147 133 102 255
146.008789 -35.019737 1.546865 -0.961756 0.129739 -0.241234 0.125477 0.598996 147 133 102 255
145.071960 -35.206444 -1.201670 0.112502 -0.993225 0.029123 0.126526 0.596284 147 133 102 255
146.008789 -35.019737 1.546865 0.112502 -0.993225 0.029123 0.125477 0.598996 147 133 102 255
144.495514 -35.206444 1.025112 0.112502 -0.993225 0.029123 0.126526 0.596284 147 133 102 255
146.438446 -36.771881 -1.120443 0.072169 0.997230 0.018017 0.125000 0.598639 80 72 55 255
144.401917 -36.659607 0.822718 0.072169 0.997230 0.018017 0.125000 0.595978 80 72 55 255
145.796432 -36.771881 1.451166 0.072169 0.997230 0.018017 0.125000 0.598639 80 72 55 255
145.570587 -37.112282 -4.357687 -0.216263 0.000000 -0.976335 1.000000 0.000000 236 181 85 255
145.738464 -35.027134 -4.394872 -0.216263 0.000000 -0.976335 0.000000 1.000000 236 181 85 255
145.738464 -37.112282 -4.394872 -0.216263 0.000000 -0.976335 0.000000 0.000000 236 181 85 255
144.642258 -37.216110 -4.136263 -0.216282 0.000000 -0.976331 1.000000 0.000000 236 181 85 255
144.810120 -35.130962 -4.173449 -0.216282 0.000000 -0.976331 0.000000 1.000000 236 181 85 255
144.810120 -37.216110 -4.173449 -0.216282 0.000000 -0.976331 0.000000 0.000000 236 181 85 255
145.109863 -37.198055 -1.465270 0.166076 0.000000 -0.986113 1.000000 0.000000 236 181 85 255
145.279419 -35.217052 -1.436714 0.166076 0.000000 -0.986113 0.000000 1.000000 236 181 85 255
145.279419 -37.198055 -1.436714 0.166076 0.000000 -0.986113 0.000000 0.000000 236 181 85 255
146.009766 -37.120342 -1.377599 0.028211 0.000000 -0.999602 1.000000 0.000000 236 181 85 255
146.181641 -35.139343 -1.372748 0.028211 0.000000 -0.999602 0.000000 1.000000 236 181 85 255
146.181641 -37.120342 -1.372748 0.028211 0.000000 -0.999602 0.000000 0.000000 236 181 85 255
145.551376 -37.104145 1.050332 0.398770 0.000000 -0.917051 1.000000 0.000000 236 181 85 255
145.709061 -35.099663 1.118899 0.398770 0.000000 -0.917051 0.000000 1.000000 236 181 85 255
145.709061 -37.104145 1.118899 0.398770 0.000000 -0.917051 0.000000 0.000000 236 181 85 255
144.652252 -37.104145 0.691868 0.398770 0.000000 -0.917051 1.000000 0.000000 236 181 85 255
144.809937 -35.226608 0.760435 0.398770 0.000000 -0.917051 0.000000 1.000000 236 181 85 255
144.809937 -37.104145 0.760435 0.398770 0.000000 -0.917051 0.000000 0.000000 236 181 85 255
143.964355 -36.644592 -8.287580 0.332101 0.000000 0.943244 0.625000 0.000000 78 78 78 255
143.203705 -36.915833 -8.019768 0.332101 0.000000 0.943244 0.375000 0.250000 78 78 78 255
143.964355 -36.915833 -8.287580 0.332101 0.000000 0.943244 0.375000 0.000000 78 78 78 255
143.203705 -36.644592 -8.019768 -0.943242 0.000000 0.332105 0.625000 0.250000 78 78 78 255
142.613220 -36.915833 -9.696859 -0.943242 0.000000 0.332105 0.375000 0.500000 78 78 78 255
143.203705 -36.915833 -8.019768 -0.943242 0.000000 0.332105 0.375000 0.250000 78 78 78 255
142.613220 -36.644592 -9.696859 -0.332095 0.000000 -0.943246 0.625000 0.500000 78 78 78 255
143.373886 -36.915833 -9.964672 -0.332095 0.000000 -0.943246 0.375000 0.750000 78 78 78 255
142.613220 -36.915833 -9.696859 -0.332095 0.000000 -0.943246 0.375000 0.500000 78 78 78 255
143.373886 -36.644592 -9.964672 0.943245 0.000000 -0.332097 0.625000 0.750000 78 78 78 255
143.964355 -36.915833 -8.287580 0.943245 0.000000 -0.332097 0.375000 1.000000 78 78 78 255
143.373886 -36.915833 -9.964672 0.943245 0.000000 -0.332097 0.375000 0.750000 78 78 78 255
142.613220 -36.644592 -9.696859 0.000000 1.000000 -0.000000 0.625000 0.500000 78 78 78 255
143.964355 -36.644592 -8.287580 0.000000 1.000000 -0.000000 0.875000 0.750000 78 78 78 255
143.373886 -36.644592 -9.964672 0.000000 1.000000 -0.000000 0.625000 0.750000 78 78 78 255
143.723984 -35.703659 -8.737984 0.332103 0.000000 0.943243 0.625000 0.000000 255 248 117 255
143.108871 -36.678253 -8.521411 0.332103 0.000000 0.943243 0.375000 0.250000 255 248 117 255
143.723984 -36.678253 -8.737984 0.332103 0.000000 0.943243 0.375000 0.000000 255 248 117 255
143.108871 -35.703659 -8.521411 -0.943243 0.000000 0.332105 0.625000 0.250000 255 248 117 255
142.853592 -36.678253 -9.246455 -0.943243 0.000000 0.332105 0.375000 0.500000 255 248 117 255
143.108871 -36.678253 -8.521411 -0.943243 0.000000 0.332105 0.375000 0.250000 255 248 117 255
142.853592 -35.703659 -9.246455 -0.332096 0.000000 -0.943246 0.625000 0.500000 255 248 117 255
143.468719 -36.678253 -9.463028 -0.332096 0.000000 -0.943246 0.375000 0.750000 255 248 117 255
142.853592 -36.678253 -9.246455 -0.332096 0.000000 -0.943246 0.375000 0.500000 255 248 117 255
143.468719 -35.703659 -9.463028 0.943249 0.000000 -0.332087 0.625000 0.750000 255 248 117 255
143.723984 -36.678253 -8.737984 0.943249 0.000000 -0.332087 0.375000 1.000000 255 248 117 255
143.468719 -36.678253 -9.463028 0.943249 0.000000 -0.332087 0.375000 0.750000 255 248 117 255
142.853592 -35.703659 -9.246455 0.000000 1.000000 -0.000000 0.625000 0.500000 255 248 117 255
143.723984 -35.703659 -8.737984 0.000000 1.000000 -0.000000 0.875000 0.750000 255 248 117 255
143.468719 -35.703659 -9.463028 0.000000 1.000000 -0.000000 0.625000 0.750000 255 248 117 255
143.723984 -35.703659 -8.737984 -0.226226 0.732081 -0.642557 0.625000 0.000000 255 248 117 255
143.329742 -35.619041 -8.502775 -0.226226 0.732081 -0.642557 0.625000 0.250000 255 248 117 255
143.563507 -35.619041 -8.585077 -0.226226 0.732081 -0.642557 0.625000 0.000000 255 248 117 255
143.563507 -35.619041 -8.585077 -0.303176 0.408141 -0.861107 0.625000 0.000000 255 248 117 255
143.433289 -34.921604 -8.208665 -0.303176 0.408141 -0.861107 0.625000 0.250000 255 248 117 255
143.667053 -34.921604 -8.290968 -0.303176 0.408141 -0.861107 0.625000 0.000000 255 248 117 255
143.667053 -34.921604 -8.290968 -0.188662 -0.822962 -0.535855 0.625000 0.000000 255 248 117 255
143.737335 -35.502441 -7.423668 -0.188662 -0.822962 -0.535855 0.625000 0.250000 255 248 117 255
143.433289 -34.921604 -8.208665 -0.188662 -0.822962 -0.535855 0.625000 0.250000 255 248 117 255
143.853531 -36.376251 -7.682763 -0.323254 0.229248 -0.918124 0.625000 0.000000 255 248 117 255
143.653137 -36.578976 -7.662827 -0.323254 0.229248 -0.918124 0.625000 0.250000 255 248 117 255
143.668991 -36.376251 -7.617790 -0.323254 0.229248 -0.918124 0.625000 0.250000 255 248 117 255
143.745483 -36.733025 -7.989655 -0.161135 0.874398 -0.457671 0.625000 0.000000 255 248 117 255
143.653137 -36.578976 -7.662827 -0.161135 0.874398 -0.457671 0.625000 0.250000 255 248 117 255
143.837677 -36.578976 -7.727798 -0.161135 0.874398 -0.457671 0.625000 0.000000 255 248 117 255
143.745483 -36.733025 -7.989655 0.228516 0.725610 0.649053 0.625000 0.000000 255 248 117 255
143.516647 -36.606537 -8.050495 0.228516 0.725610 0.649053 0.625000 0.250000 255 248 117 255
143.560944 -36.733025 -7.924684 0.228516 0.725610 0.649053 0.625000 0.250000 255 248 117 255
143.853531 -36.376251 -7.682763 -0.323249 0.229250 -0.918125 0.625000 0.000000 255 248 117 255
143.737335 -35.502441 -7.423668 -0.323249 0.229250 -0.918125 0.625000 0.250000 255 248 117 255
143.921875 -35.502441 -7.488640 -0.323249 0.229250 -0.918125 0.625000 0.000000 255 248 117 255
143.837677 -36.578976 -7.727798 -0.943245 -0.000005 0.332097 0.625000 0.000000 255 248 117 255
143.701187 -36.606537 -8.115467 -0.943245 -0.000005 0.332097 0.625000 0.000000 255 248 117 255
143.745483 -36.733025 -7.989655 -0.943245 -0.000005 0.332097 0.625000 0.000000 255 248 117 255
143.653137 -36.578976 -7.662827 0.943245 0.000012 -0.332097 0.625000 0.250000 255 248 117 255
143.516647 -36.606537 -8.050495 0.943245 0.000012 -0.332097 0.625000 0.250000 255 248 117 255
143.668991 -36.376251 -7.617790 0.943245 0.000012 -0.332097 0.625000 0.250000 255 248 117 255
145.746597 -37.022907 -9.045352 -0.844988 0.005975 -0.534752 0.125000 0.604587 147 133 102 255
144.377686 -36.832947 -6.880148 -0.844988 0.005975 -0.534752 0.125000 0.600086 147 133 102 255
144.487106 -34.382568 -7.025671 -0.844988 0.005975 -0.534752 0.125000 0.600402 147 133 102 255
144.495514 -35.206444 1.025112 0.089215 -0.992563 0.082824 0.126526 0.596284 147 133 102 255
144.125397 -35.019737 3.661293 0.089215 -0.992563 0.082824 0.125477 0.598996 147 133 102 255
143.346313 -35.206444 2.262991 0.089215 -0.992563 0.082824 0.126526 0.596284 147 133 102 255
145.796432 -36.771881 1.451166 0.060307 0.996755 0.053308 0.125000 0.598639 80 72 55 255
143.411636 -36.659607 2.049780 0.060307 0.996755 0.053308 0.125000 0.595978 80 72 55 255
144.031067 -36.771881 3.448327 0.060307 0.996755 0.053308 0.125000 0.598639 80 72 55 255
144.495514 -35.206444 1.025112 0.770928 -0.136309 0.622165 0.126526 0.596284 147 133 102 255
143.411636 -36.659607 2.049780 0.770928 -0.136309 0.622165 0.125000 0.595978 147 133 102 255
144.401917 -36.659607 0.822718 0.770928 -0.136309 0.622165 0.125000 0.595978 147 133 102 255
146.008789 -35.019737 1.546865 -0.741314 0.120169 -0.660313 0.125477 0.598996 147 133 102 255
144.031067 -36.771881 3.448327 -0.741314 0.120169 -0.660313 0.125000 0.598639 147 133 102 255
144.125397 -35.019737 3.661293 -0.741314 0.120169 -0.660313 0.125477 0.598996 147 133 102 255
143.834320 -37.082500 3.155888 0.936847 0.000000 -0.349740 1.000000 0.000000 236 181 85 255
143.894455 -35.106144 3.316971 0.936847 0.000000 -0.349740 0.000000 1.000000 236 181 85 255
143.894455 -37.082500 3.316971 0.936847 0.000000 -0.349740 0.000000 0.000000 236 181 85 255
143.467987 -37.082500 2.259939 0.936847 0.000000 -0.349740 1.000000 0.000000 236 181 85 255
143.528122 -35.200741 2.421022 0.936847 0.000000 -0.349740 0.000000 1.000000 236 181 85 255
143.528122 -37.082500 2.421022 0.936847 0.000000 -0.349740 0.000000 0.000000 236 181 85 255
138.107849 -36.647232 -7.840187 0.040694 0.996816 -0.068571 0.125000 0.595685 80 72 55 255
141.376556 -36.647232 -5.900330 0.040694 0.996816 -0.068571 0.125000 0.595685 80 72 55 255
141.662903 -36.813370 -8.145541 0.040694 0.996816 -0.068571 0.125000 0.599622 80 72 55 255
138.843750 -29.018536 -7.133572 0.388587 -0.019904 -0.921197 0.133548 0.595872 147 133 102 255
142.365128 -29.018536 -5.648155 0.388587 -0.019904 -0.921197 0.133548 0.595872 147 133 102 255
141.376556 -36.647232 -5.900330 0.388587 -0.019904 -0.921197 0.125000 0.595685 147 133 102 255
139.463516 -36.813370 -9.652687 0.046472 0.996615 -0.067817 0.125000 0.599622 178 136 64 255
141.662903 -36.813370 -8.145541 0.046472 0.996615 -0.067817 0.125000 0.599622 178 136 64 255
141.719467 -36.846184 -8.589001 0.046472 0.996615 -0.067817 0.125000 0.600399 178 136 64 255
139.731277 -36.846184 -10.010681 0.048323 0.996543 -0.067578 0.125000 0.600399 115 196 116 255
141.719467 -36.846184 -8.589001 0.048323 0.996543 -0.067578 0.125000 0.600399 115 196 116 255
142.024048 -37.022907 -10.977270 0.048323 0.996543 -0.067578 0.125000 0.604587 115 196 116 255
142.591660 -29.136137 -12.595760 -0.735744 0.186559 0.651058 0.133571 0.602856 147 133 102 255
141.173309 -37.022907 -11.938667 -0.735744 0.186559 0.651058 0.125000 0.604587 147 133 102 255
142.024048 -37.022907 -10.977270 -0.735744 0.186559 0.651058 0.125000 0.604587 147 133 102 255
147.352982 -29.136137 -9.602130 -0.499792 0.231448 0.834650 0.133571 0.602856 147 133 102 255
142.934357 -29.136137 -12.248022 -0.499792 0.231448 0.834650 0.133571 0.602856 147 133 102 255
145.932983 -34.559166 -8.948626 -0.499792 0.231448 0.834650 0.125000 0.604587 147 133 102 255
142.934357 -29.136137 -12.248022 -0.545564 0.194324 0.815229 0.133571 0.602856 147 133 102 255
142.024048 -37.022907 -10.977270 -0.545564 0.194324 0.815229 0.125000 0.604587 147 133 102 255
145.932983 -34.559166 -8.948626 -0.545564 0.194324 0.815229 0.125000 0.604587 147 133 102 255
145.746597 -37.022907 -9.045352 0.035909 0.996957 -0.069192 0.125000 0.604587 80 72 55 255
142.024048 -37.022907 -10.977270 0.035909 0.996957 -0.069192 0.125000 0.604587 80 72 55 255
141.719467 -36.846184 -8.589001 0.035909 0.996957 -0.069192 0.125000 0.600399 80 72 55 255
141.662903 -36.813370 -8.145541 0.039238 0.996861 -0.068760 0.125000 0.599622 80 72 55 255
141.376556 -36.647232 -5.900330 0.039238 0.996861 -0.068760 0.125000 0.595685 80 72 55 255
144.377686 -36.832947 -6.880148 0.039238 0.996861 -0.068760 0.125000 0.600086 80 72 55 255
141.376556 -36.647232 -5.900330 0.042163 0.997314 -0.059887 0.125000 0.595685 80 72 55 255
142.857162 -36.647232 -4.857914 0.042163 0.997314 -0.059887 0.125000 0.595685 80 72 55 255
144.377686 -36.832947 -6.880148 0.042163 0.997314 -0.059887 0.125000 0.600086 80 72 55 255
145.746597 -37.022907 -9.045352 0.036460 0.997255 -0.064441 0.125000 0.604587 80 72 55 255
141.719467 -36.846184 -8.589001 0.036460 0.997255 -0.064441 0.125000 0.600399 80 72 55 255
144.377686 -36.832947 -6.880148 0.036460 0.997255 -0.064441 0.125000 0.600086 80 72 55 255
142.365128 -29.018536 -5.648155 0.773884 -0.015671 -0.633133 0.133548 0.595872 147 133 102 255
143.591263 -29.018536 -4.149439 0.773884 -0.015671 -0.633133 0.133548 0.595872 147 133 102 255
142.857162 -36.647232 -4.857914 0.773884 -0.015671 -0.633133 0.125000 0.595685 147 133 102 255
145.932983 -34.559166 -8.948626 0.052651 0.997258 -0.051997 0.125000 0.604587 147 133 102 255
144.487106 -34.382568 -7.025671 0.052651 0.997258 -0.051997 0.125000 0.600402 147 133 102 255
146.497345 -34.358803 -4.534342 0.052651 0.997258 -0.051997 0.125000 0.599839 147 133 102 255
143.591263 -29.018536 -4.149439 0.863143 0.058506 -0.501559 0.133548 0.595872 147 133 102 255
144.228699 -29.018536 -3.052464 0.863143 0.058506 -0.501559 0.133548 0.595872 147 133 102 255
144.154526 -36.647232 -4.069988 0.863143 0.058506 -0.501559 0.125000 0.595685 147 133 102 255
147.352982 -29.136137 -9.602130 -0.739580 0.268055 0.617388 0.133571 0.602856 147 133 102 255
145.932983 -34.559166 -8.948626 -0.739580 0.268055 0.617388 0.125000 0.604587 147 133 102 255
149.174927 -34.559166 -5.065046 -0.739580 0.268055 0.617388 0.125000 0.604587 147 133 102 255
144.487106 -34.382568 -7.025671 -0.784122 0.071625 0.616460 0.125000 0.600402 147 133 102 255
144.377686 -36.832947 -6.880148 -0.784122 0.071625 0.616460 0.125000 0.600086 147 133 102 255
146.261261 -36.804878 -4.487549 -0.784122 0.071625 0.616460 0.125000 0.599420 147 133 102 255
145.820328 -36.771881 -4.400154 0.062483 0.996188 -0.060877 0.125000 0.598639 80 72 55 255
146.261261 -36.804878 -4.487549 0.062483 0.996188 -0.060877 0.125000 0.599420 80 72 55 255
144.377686 -36.832947 -6.880148 0.062483 0.996188 -0.060877 0.125000 0.600086 80 72 55 255
144.377686 -36.832947 -6.880148 0.040139 0.997305 -0.061408 0.125000 0.600086 80 72 55 255
142.857162 -36.647232 -4.857914 0.040139 0.997305 -0.061408 0.125000 0.595685 80 72 55 255
144.319931 -36.659607 -4.102770 0.040139 0.997305 -0.061408 0.125000 0.595978 80 72 55 255
142.857162 -36.647232 -4.857914 0.056078 0.994148 -0.092335 0.125000 0.595685 80 72 55 255
144.154526 -36.647232 -4.069988 0.056078 0.994148 -0.092335 0.125000 0.595685 80 72 55 255
144.319931 -36.659607 -4.102770 0.056078 0.994148 -0.092335 0.125000 0.595978 80 72 55 255
144.228699 -29.018536 -3.052464 -0.227985 0.169219 -0.958847 0.133548 0.595872 147 133 102 255
150.668686 -29.136137 -4.604454 -0.227985 0.169219 -0.958847 0.133571 0.602856 147 133 102 255
146.497345 -34.358803 -4.534342 -0.227985 0.169219 -0.958847 0.125000 0.599839 147 133 102 255
150.668686 -29.136137 -4.604454 -0.183092 0.133160 -0.974036 0.133571 0.602856 147 133 102 255
149.174927 -34.559166 -5.065046 -0.183092 0.133160 -0.974036 0.125000 0.604587 147 133 102 255
146.497345 -34.358803 -4.534342 -0.183092 0.133160 -0.974036 0.125000 0.599839 147 133 102 255
146.497345 -34.358803 -4.534342 -0.194421 -0.000000 -0.980918 0.125000 0.599839 147 133 102 255
146.261261 -36.804878 -4.487549 -0.194421 -0.000000 -0.980918 0.125000 0.599420 147 133 102 255
146.048798 -35.019737 -4.445438 -0.194421 -0.000000 -0.980918 0.125477 0.598996 147 133 102 255
146.261261 -36.804878 -4.487549 -0.194422 -0.000000 -0.980918 0.125000 0.599420 147 133 102 255
145.820328 -36.771881 -4.400154 -0.194422 -0.000000 -0.980918 0.125000 0.598639 147 133 102 255
146.048798 -35.019737 -4.445438 -0.194422 -0.000000 -0.980918 0.125477 0.598996 147 133 102 255
144.319931 -36.659607 -4.102770 -0.186306 0.099171 -0.977474 0.125000 0.595978 147 133 102 255
144.154526 -36.647232 -4.069988 -0.186306 0.099171 -0.977474 0.125000 0.595685 147 133 102 255
144.513611 -35.206444 -3.992252 -0.186306 0.099171 -0.977474 0.126526 0.596284 147 133 102 255
144.154526 -36.647232 -4.069988 -0.312160 0.128585 -0.941287 0.125000 0.595685 147 133 102 255
144.228699 -29.018536 -3.052464 -0.312160 0.128585 -0.941287 0.133548 0.595872 147 133 102 255
144.513611 -35.206444 -3.992252 -0.312160 0.128585 -0.941287 0.126526 0.596284 147 133 102 255
146.048798 -35.019737 -4.445438 -0.290109 0.068487 -0.954540 0.125477 0.598996 147 133 102 255
144.513611 -35.206444 -3.992252 -0.290109 0.068487 -0.954540 0.126526 0.596284 147 133 102 255
146.497345 -34.358803 -4.534342 -0.290109 0.068487 -0.954540 0.125000 0.599839 147 133 102 255
146.048798 -35.019737 -4.445438 -0.974131 0.131766 0.183592 0.125477 0.598996 147 133 102 255
145.820328 -36.771881 -4.400154 -0.974131 0.131766 0.183592 0.125000 0.598639 147 133 102 255
146.438446 -36.771881 -1.120443 -0.974131 0.131766 0.183592 0.125000 0.598639 147 133 102 255
144.513611 -35.206444 -3.992252 0.977991 -0.072413 -0.195680 0.126526 0.596284 147 133 102 255
145.071960 -35.206444 -1.201670 0.977991 -0.072413 -0.195680 0.126526 0.596284 147 133 102 255
144.929962 -36.659607 -1.373608 0.977991 -0.072413 -0.195680 0.125000 0.595978 147 133 102 255
146.048798 -35.019737 -4.445438 0.117756 -0.992806 -0.021683 0.125477 0.598996 147 133 102 255
146.668152 -35.019737 -1.081892 0.117756 -0.992806 -0.021683 0.125477 0.598996 147 133 102 255
145.071960 -35.206444 -1.201670 0.117756 -0.992806 -0.021683 0.126526 0.596284 147 133 102 255
145.820328 -36.771881 -4.400154 0.071463 0.997315 -0.015974 0.125000 0.598639 80 72 55 255
144.319931 -36.659607 -4.102770 0.071463 0.997315 -0.015974 0.125000 0.595978 80 72 55 255
144.929962 -36.659607 -1.373608 0.071463 0.997315 -0.015974 0.125000 0.595978 80 72 55 255
145.071960 -35.206444 -1.201670 0.963542 -0.096802 0.249432 0.126526 0.596284 147 133 102 255
144.495514 -35.206444 1.025112 0.963542 -0.096802 0.249432 0.126526 0.596284 147 133 102 255
144.401917 -36.659607 0.822718 0.963542 -0.096802 0.249432 0.125000 0.595978 147 133 102 255
146.668152 -35.019737 -1.081892 -0.961812 0.131377 -0.240121 0.125477 0.598996 147 133 102 255
146.438446 -36.771881 -1.120443 -0.961812 0.131377 -0.240121 0.125000 0.598639 147 133 102 255
145.796432 -36.771881 1.451166 -0.961812 0.131377 -0.240121 0.125000 0.598639 147 133 102 255
145.071960 -35.206444 -1.201670 0.114013 -0.993068 0.028598 0.126526 0.596284 147 133 102 255
146.668152 -35.019737 -1.081892 0.114013 -0.993068 0.028598 0.125477 0.598996 147 133 102 255
146.008789 -35.019737 1.546865 0.114013 -0.993068 0.028598 0.125477 0.598996 147 133 102 255
146.438446 -36.771881 -1.120443 0.071349 0.997304 0.017154 0.125000 0.598639 80 72 55 255
144.929962 -36.659607 -1.373608 0.071349 0.997304 0.017154 0.125000 0.595978 80 72 55 255
144.401917 -36.659607 0.822718 0.071349 0.997304 0.017154 0.125000 0.595978 80 72 55 255
145.570587 -35.027134 -4.357687 -0.216263 -0.000000 -0.976335 1.000000 1.000000 236 181 85 255
144.642258 -35.130962 -4.136263 -0.216282 -0.000000 -0.976331 1.000000 1.000000 236 181 85 255
145.109863 -35.217052 -1.465270 0.166076 0.000000 -0.986113 1.000000 1.000000 236 181 85 255
146.009766 -35.139343 -1.377599 0.028211 0.000000 -0.999602 1.000000 1.000000 236 181 85 255
145.551376 -35.099663 1.050332 0.398770 0.000000 -0.917051 1.000000 1.000000 236 181 85 255
144.652252 -35.226608 0.691868 0.398770 0.000000 -0.917051 1.000000 1.000000 236 181 85 255
143.203705 -36.644592 -8.019768 0.332101 -0.000000 0.943244 0.625000 0.250000 78 78 78 255
142.613220 -36.644592 -9.696859 -0.943242 0.000000 0.332105 0.625000 0.500000 78 78 78 255
143.373886 -36.644592 -9.964672 -0.332095 0.000000 -0.943246 0.625000 0.750000 78 78 78 255
143.964355 -36.644592 -8.287580 0.943245 0.000000 -0.332097 0.625000 1.000000 78 78 78 255
143.203705 -36.644592 -8.019768 0.000000 1.000000 0.000000 0.875000 0.500000 78 78 78 255
143.108871 -35.703659 -8.521411 0.332103 -0.000000 0.943243 0.625000 0.250000 255 248 117 255
142.853592 -35.703659 -9.246455 -0.943243 0.000000 0.332105 0.625000 0.500000 255 248 117 255
143.468719 -35.703659 -9.463028 -0.332096 0.000000 -0.943246 0.625000 0.750000 255 248 117 255
143.723984 -35.703659 -8.737984 0.943249 0.000000 -0.332087 0.625000 1.000000 255 248 117 255
143.108871 -35.703659 -8.521411 0.000000 1.000000 0.000000 0.875000 0.500000 255 248 117 255
143.723984 -35.703659 -8.737984 -0.226242 0.732060 -0.642575 0.625000 0.000000 255 248 117 255
143.108871 -35.703659 -8.521411 -0.226242 0.732060 -0.642575 0.625000 0.250000 255 248 117 255
143.329742 -35.619041 -8.502775 -0.226242 0.732060 -0.642575 0.625000 0.250000 255 248 117 255
143.563507 -35.619041 -8.585077 -0.303172 0.408141 -0.861108 0.625000 0.000000 255 248 117 255
143.329742 -35.619041 -8.502775 -0.303172 0.408141 -0.861108 0.625000 0.250000 255 248 117 255
143.433289 -34.921604 -8.208665 -0.303172 0.408141 -0.861108 0.625000 0.250000 255 248 117 255
143.667053 -34.921604 -8.290968 -0.188661 -0.822962 -0.535855 0.625000 0.000000 255 248 117 255
143.921875 -35.502441 -7.488640 -0.188661 -0.822962 -0.535855 0.625000 0.000000 255 248 117 255
143.737335 -35.502441 -7.423668 -0.188661 -0.822962 -0.535855 0.625000 0.250000 255 248 117 255
143.853531 -36.376251 -7.682763 -0.323250 0.229244 -0.918127 0.625000 0.000000 255 248 117 255
143.837677 -36.578976 -7.727798 -0.323250 0.229244 -0.918127 0.625000 0.000000 255 248 117 255
143.653137 -36.578976 -7.662827 -0.323250 0.229244 -0.918127 0.625000 0.250000 255 248 117 255
143.745483 -36.733025 -7.989655 -0.161135 0.874398 -0.457672 0.625000 0.000000 255 248 117 255
143.560944 -36.733025 -7.924684 -0.161135 0.874398 -0.457672 0.625000 0.250000 255 248 117 255
143.653137 -36.578976 -7.662827 -0.161135 0.874398 -0.457672 0.625000 0.250000 255 248 117 255
143.701187 -36.606537 -8.115467 0.228516 0.725610 0.649053 0.625000 0.000000 255 248 117 255
143.853531 -36.376251 -7.682763 -0.323254 0.229249 -0.918124 0.625000 0.000000 255 248 117 255
143.668991 -36.376251 -7.617790 -0.323254 0.229249 -0.918124 0.625000 0.250000 255 248 117 255
143.737335 -35.502441 -7.423668 -0.323254 0.229249 -0.918124 0.625000 0.250000 255 248 117 255
143.837677 -36.578976 -7.727798 -0.943245 -0.000011 0.332097 0.625000 0.000000 255 248 117 255
143.853531 -36.376251 -7.682763 -0.943245 -0.000011 0.332097 0.625000 0.000000 255 248 117 255
143.701187 -36.606537 -8.115467 -0.943245 -0.000011 0.332097 0.625000 0.000000 255 248 117 255
143.653137 -36.578976 -7.662827 0.943245 0.000005 -0.332097 0.625000 0.250000 255 248 117 255
143.560944 -36.733025 -7.924684 0.943245 0.000005 -0.332097 0.625000 0.250000 255 248 117 255
143.516647 -36.606537 -8.050495 0.943245 0.000005 -0.332097 0.625000 0.250000 255 248 117 255
144.495514 -35.206444 1.025112 0.093645 -0.992105 0.083413 0.126526 0.596284 147 133 102 255
146.008789 -35.019737 1.546865 0.093645 -0.992105 0.083413 0.125477 0.598996 147 133 102 255
144.125397 -35.019737 3.661293 0.093645 -0.992105 0.083413 0.125477 0.598996 147 133 102 255
145.796432 -36.771881 1.451166 0.058870 0.997134 0.047510 0.125000 0.598639 80 72 55 255
144.401917 -36.659607 0.822718 0.058870 0.997134 0.047510 0.125000 0.595978 80 72 55 255
143.411636 -36.659607 2.049780 0.058870 0.997134 0.047510 0.125000 0.595978 80 72 55 255
144.495514 -35.206444 1.025112 0.731236 -0.066732 0.678852 0.126526 0.596284 147 133 102 255
143.346313 -35.206444 2.262991 0.731236 -0.066732 0.678852 0.126526 0.596284 147 133 102 255
143.411636 -36.659607 2.049780 0.731236 -0.066732 0.678852 0.125000 0.595978 147 133 102 255
146.008789 -35.019737 1.546865 -0.743280 0.125969 -0.657013 0.125477 0.598996 147 133 102 255
145.796432 -36.771881 1.451166 -0.743280 0.125969 -0.657013 0.125000 0.598639 147 133 102 255
144.031067 -36.771881 3.448327 -0.743280 0.125969 -0.657013 0.125000 0.598639 147 133 102 255
143.834320 -35.106144 3.155888 0.936847 0.000000 -0.349740 1.000000 1.000000 236 181 85 255
143.467987 -35.200741 2.259939 0.936847 0.000000 -0.349740 1.000000 1.000000 236 181 85 255
3 0 1 2
3 3 4 5
3 6 7 8
3 9 10 11
3 12 13 14
3 15 16 17
3 18 19 20
3 21 22 23
3 24 25 26
3 27 28 29
3 30 31 32
3 33 34 35
3 36 37 38
3 39 40 41
3 42 43 44
3 45 46 47
3 48 49 50
3 51 52 53
3 54 55 56
3 57 58 59
3 60 61 62
3 63 64 65
3 66 67 68
3 69 70 71
3 72 73 74
3 75 76 77
3 78 79 80
3 81 82 83
3 84 85 86
3 87 88 89
3 90 91 92
3 93 94 95
3 96 97 98
3 99 100 101
3 102 103 104
3 105 106 107
3 108 109 110
3 111 112 113
3 114 115 116
3 117 118 119
3 120 121 122
3 123 124 125
3 126 127 128
3 129 130 131
3 132 133 134
3 135 136 137
3 138 139 140
3 141 142 143
3 144 145 146
3 147 148 149
3 150 151 152
3 153 154 155
3 156 157 158
3 159 160 161
3 162 163 164
3 165 166 167
3 168 169 170
3 171 172 173
3 174 175 176
3 177 178 179
3 180 181 182
3 183 184 185
3 186 187 188
3 189 190 191
3 192 193 194
3 195 196 197
3 198 199 200
3 201 202 203
3 204 205 206
3 207 208 209
3 210 211 212
3 213 214 215
3 216 217 218
3 219 220 221
3 222 223 224
3 225 226 227
3 228 229 230
3 231 232 233
3 234 235 236
3 237 238 239
3 240 241 242
3 243 244 245
3 246 247 248
3 249 250 251
3 252 253 254
3 255 256 257
3 258 259 260
3 261 262 263
3 264 265 266
3 69 267 70
3 72 268 73
3 75 269 76
3 78 270 79
3 81 271 82
3 84 272 85
3 87 273 88
3 90 274 91
3 93 275 94
3 96 276 97
3 99 277 100
3 102 278 103
3 105 279 106
3 108 280 109
3 111 281 112
3 114 282 115
3 283 284 285
3 286 287 288
3 289 290 291
3 292 293 294
3 295 296 297
3 132 298 133
3 299 300 301
3 302 303 304
3 305 306 307
3 308 309 310
3 311 312 313
3 314 315 316
3 317 318 319
3 159 320 160
3 162 321 163
