ply
format ascii 1.0
comment Created by Blender 2.93.1 - www.blender.org
element vertex 238
property float x
property float y
property float z
property float nx
property float ny
property float nz
property float s
property float t
property uchar red
property uchar green
property uchar blue
property uchar alpha
element face 82
property list uchar uint vertex_indices
end_header
123.852028 -42.927979 96.628899 0.234734 0.958645 0.160936 0.125000 0.596821 80 72 55 255
127.867073 -44.181877 98.241798 0.234734 0.958645 0.160936 0.125000 0.597964 80 72 55 255
126.287102 -43.280067 95.174484 0.234734 0.958645 0.160936 0.125000 0.597964 80 72 55 255
123.852028 -42.927979 96.628899 0.879976 0.011937 -0.474868 0.125000 0.596821 147 133 102 255
125.821281 -38.787975 100.382187 0.879976 0.011937 -0.474868 0.125000 0.595978 147 133 102 255
125.763031 -43.973686 100.143883 0.879976 0.011937 -0.474868 0.125000 0.596821 147 133 102 255
123.862595 -37.737808 96.873993 -0.321083 -0.941481 -0.102563 0.125000 0.595978 147 133 102 255
127.730759 -39.192322 98.116119 -0.321083 -0.941481 -0.102563 0.125000 0.598639 147 133 102 255
125.821281 -38.787975 100.382187 -0.321083 -0.941481 -0.102563 0.125000 0.595978 147 133 102 255
126.287102 -43.280067 95.174484 -0.894312 -0.006119 0.447402 0.125000 0.597964 147 133 102 255
127.730759 -39.192322 98.116119 -0.894312 -0.006119 0.447402 0.125000 0.598639 147 133 102 255
126.177963 -38.288094 95.024605 -0.894312 -0.006119 0.447402 0.125000 0.598639 147 133 102 255
125.821281 -38.787975 100.382187 -0.109302 -0.990400 0.084621 0.125000 0.595978 147 133 102 255
129.867355 -39.192322 100.875893 -0.109302 -0.990400 0.084621 0.125000 0.598639 147 133 102 255
127.957878 -38.787975 103.141960 -0.109302 -0.990400 0.084621 0.125000 0.595978 147 133 102 255
127.867073 -44.181877 98.241798 -0.790709 -0.006183 0.612161 0.125000 0.597964 147 133 102 255
129.867355 -39.192322 100.875893 -0.790709 -0.006183 0.612161 0.125000 0.598639 147 133 102 255
127.730759 -39.192322 98.116119 -0.790709 -0.006183 0.612161 0.125000 0.598639 147 133 102 255
125.763031 -43.973686 100.143883 0.058052 0.997301 -0.044943 0.125000 0.596821 80 72 55 255
130.003662 -44.181877 101.001572 0.058052 0.997301 -0.044943 0.125000 0.597964 80 72 55 255
127.867073 -44.181877 98.241798 0.058052 0.997301 -0.044943 0.125000 0.597964 80 72 55 255
125.821281 -38.787975 100.382187 0.790576 0.019246 -0.612061 0.125000 0.595978 147 133 102 255
127.899635 -43.973686 102.903656 0.790576 0.019246 -0.612061 0.125000 0.596821 147 133 102 255
125.763031 -43.973686 100.143883 0.790576 0.019246 -0.612061 0.125000 0.596821 147 133 102 255
130.003662 -44.181877 101.001572 -0.673753 0.000207 0.738957 0.125000 0.597964 147 133 102 255
132.894211 -39.192322 103.635666 -0.673753 0.000207 0.738957 0.125000 0.598639 147 133 102 255
129.867355 -39.192322 100.875893 -0.673753 0.000207 0.738957 0.125000 0.598639 147 133 102 255
130.003662 -44.181877 101.001572 0.049551 0.997292 -0.054346 0.125000 0.597964 80 72 55 255
130.926483 -43.973686 105.663429 0.049551 0.997292 -0.054346 0.125000 0.596821 80 72 55 255
133.030518 -44.181877 103.761345 0.049551 0.997292 -0.054346 0.125000 0.597964 80 72 55 255
127.957878 -38.787975 103.141960 0.673519 0.026382 -0.738699 0.125000 0.595978 147 133 102 255
130.926483 -43.973686 105.663429 0.673519 0.026382 -0.738699 0.125000 0.596821 147 133 102 255
127.899635 -43.973686 102.903656 0.673519 0.026382 -0.738699 0.125000 0.596821 147 133 102 255
127.957878 -38.787975 103.141960 -0.091159 -0.990805 0.099980 0.125000 0.595978 147 133 102 255
132.894211 -39.192322 103.635666 -0.091159 -0.990805 0.099980 0.125000 0.598639 147 133 102 255
130.984726 -38.787975 105.901733 -0.091159 -0.990805 0.099980 0.125000 0.595978 147 133 102 255
133.030518 -44.181877 103.761345 0.040921 0.997313 -0.060761 0.125000 0.597964 80 72 55 255
134.598541 -43.973686 108.234550 0.040921 0.997313 -0.060761 0.125000 0.596821 80 72 55 255
136.093140 -44.181877 105.823936 0.040921 0.997313 -0.060761 0.125000 0.597964 80 72 55 255
130.984726 -38.787975 105.901733 0.573285 0.031187 -0.818762 0.125000 0.595978 147 133 102 255
134.598541 -43.973686 108.234550 0.573285 0.031187 -0.818762 0.125000 0.596821 147 133 102 255
130.926483 -43.973686 105.663429 0.573285 0.031187 -0.818762 0.125000 0.596821 147 133 102 255
130.984726 -38.787975 105.901733 -0.077341 -0.990523 0.113500 0.125000 0.595978 147 133 102 255
135.927338 -39.192322 105.740944 -0.077341 -0.990523 0.113500 0.125000 0.598639 147 133 102 255
134.720535 -38.787975 108.447380 -0.077341 -0.990523 0.113500 0.125000 0.595978 147 133 102 255
133.030518 -44.181877 103.761345 -0.570195 0.005115 0.821494 0.125000 0.597964 147 133 102 255
135.927338 -39.192322 105.740944 -0.570195 0.005115 0.821494 0.125000 0.598639 147 133 102 255
132.894211 -39.192322 103.635666 -0.570195 0.005115 0.821494 0.125000 0.598639 147 133 102 255
134.720535 -38.787975 108.447380 -0.057371 -0.990466 0.125239 0.125000 0.595978 147 133 102 255
139.497086 -39.192322 107.437683 -0.057371 -0.990466 0.125239 0.125000 0.598639 147 133 102 255
138.807678 -38.787975 110.319679 -0.057371 -0.990466 0.125239 0.125000 0.595978 147 133 102 255
136.093140 -44.181877 105.823936 -0.429286 0.000758 0.903168 0.125000 0.597964 147 133 102 255
139.497086 -39.192322 107.437683 -0.429286 0.000758 0.903168 0.125000 0.598639 147 133 102 255
135.927338 -39.192322 105.740944 -0.429286 0.000758 0.903168 0.125000 0.598639 147 133 102 255
136.093140 -44.181877 105.823936 0.030918 0.997306 -0.066523 0.125000 0.597964 80 72 55 255
138.648682 -43.973686 110.132858 0.030918 0.997306 -0.066523 0.125000 0.596821 80 72 55 255
139.675308 -44.181877 107.488823 0.030918 0.997306 -0.066523 0.125000 0.597964 80 72 55 255
134.720535 -38.787975 108.447380 0.424241 0.027168 -0.905142 0.125000 0.595978 147 133 102 255
138.648682 -43.973686 110.132858 0.424241 0.027168 -0.905142 0.125000 0.596821 147 133 102 255
134.598541 -43.973686 108.234550 0.424241 0.027168 -0.905142 0.125000 0.596821 147 133 102 255
139.675308 -44.181877 107.488823 0.015134 0.997300 -0.071863 0.125000 0.597964 80 72 55 255
143.149719 -43.973686 111.109772 0.015134 0.997300 -0.071863 0.125000 0.596821 80 72 55 255
143.509964 -44.181877 108.296394 0.015134 0.997300 -0.071863 0.125000 0.597964 80 72 55 255
138.807678 -38.787975 110.319679 0.212016 0.028691 -0.976845 0.125000 0.595978 147 133 102 255
143.149719 -43.973686 111.109772 0.212016 0.028691 -0.976845 0.125000 0.596821 147 133 102 255
138.648682 -43.973686 110.132858 0.212016 0.028691 -0.976845 0.125000 0.596821 147 133 102 255
138.807678 -38.787975 110.319679 -0.027817 -0.990404 0.135375 0.125000 0.595978 147 133 102 255
143.324677 -39.192322 108.289642 -0.027817 -0.990404 0.135375 0.125000 0.598639 147 133 102 255
143.348999 -38.787975 111.252846 -0.027817 -0.990404 0.135375 0.125000 0.595978 147 133 102 255
139.675308 -44.181877 107.488823 -0.217266 0.002244 0.976110 0.125000 0.597964 147 133 102 255
143.324677 -39.192322 108.289642 -0.217266 0.002244 0.976110 0.125000 0.598639 147 133 102 255
139.497086 -39.192322 107.437683 -0.217266 0.002244 0.976110 0.125000 0.598639 147 133 102 255
126.552574 -44.028744 99.377724 -0.627529 0.035982 -0.777762 0.125000 0.596821 236 181 85 255
127.053658 -39.026577 99.204849 -0.627529 0.035982 -0.777762 0.125000 0.595978 236 181 85 255
127.044739 -44.098267 98.977409 -0.627529 0.035982 -0.777762 0.125000 0.596821 236 181 85 255
129.548584 -44.126225 101.503693 -0.627588 0.036012 -0.777713 0.125000 0.596821 236 181 85 255
130.033127 -39.168396 101.342255 -0.627588 0.036012 -0.777713 0.125000 0.595978 236 181 85 255
130.031738 -44.168644 101.111839 -0.627588 0.036012 -0.777713 0.125000 0.596821 236 181 85 255
128.330063 -44.043980 101.614342 -0.512953 0.058927 -0.856392 0.125000 0.596821 236 181 85 255
127.937820 -38.879528 102.204643 -0.512953 0.058927 -0.856392 0.125000 0.595978 236 181 85 255
128.940491 -44.103794 101.244598 -0.512953 0.058927 -0.856392 0.125000 0.596821 236 181 85 255
127.975327 -44.012718 101.889404 -0.674687 0.039556 -0.737043 0.125000 0.596821 236 181 85 255
128.371292 -38.946342 101.798843 -0.674687 0.039556 -0.737043 0.125000 0.595978 236 181 85 255
128.822601 -39.041111 101.380630 -0.674687 0.039556 -0.737043 0.125000 0.595978 236 181 85 255
130.027390 -44.037140 103.581421 -0.674272 0.042830 -0.737240 0.125000 0.596821 236 181 85 255
130.613327 -39.023647 103.336784 -0.674272 0.042830 -0.737240 0.125000 0.595978 236 181 85 255
131.091293 -39.121197 102.893974 -0.674272 0.042830 -0.737240 0.125000 0.595978 236 181 85 255
129.963669 -42.513809 103.683067 -0.626762 0.039811 -0.778193 0.125000 0.596821 236 181 85 255
129.866226 -38.883068 103.947289 -0.626762 0.039811 -0.778193 0.125000 0.595978 236 181 85 255
130.453125 -42.394646 103.294952 -0.626762 0.039811 -0.778193 0.125000 0.596821 236 181 85 255
130.373001 -42.076561 103.346512 -0.510576 0.277640 -0.813774 0.125000 0.596821 236 181 85 255
131.693146 -39.101677 103.533188 -0.510576 0.277640 -0.813774 0.125000 0.595978 236 181 85 255
132.256989 -39.199406 103.146080 -0.510576 0.277640 -0.813774 0.125000 0.595978 236 181 85 255
132.478119 -44.166580 103.278915 -0.509363 0.257210 -0.821214 0.125000 0.596821 236 181 85 255
130.635193 -40.710354 105.504517 -0.509363 0.257210 -0.821214 0.125000 0.595978 236 181 85 255
130.814728 -39.708767 105.706863 -0.509363 0.257210 -0.821214 0.125000 0.595978 236 181 85 255
131.621460 -43.200901 106.178085 -0.755128 -0.118575 -0.644765 0.125000 0.596821 236 181 85 255
133.207642 -40.937504 103.904152 -0.755128 -0.118575 -0.644765 0.125000 0.595978 236 181 85 255
131.727905 -43.934914 106.188408 -0.755128 -0.118575 -0.644765 0.125000 0.596821 236 181 85 255
133.893097 -41.749096 107.796097 -0.756822 -0.113276 -0.643730 0.125000 0.596821 236 181 85 255
135.505707 -39.195454 105.450821 -0.756822 -0.113276 -0.643730 0.125000 0.595978 236 181 85 255
134.034546 -43.127106 107.872284 -0.756822 -0.113276 -0.643730 0.125000 0.596821 236 181 85 255
134.231445 -40.468754 108.064262 -0.822851 -0.292383 -0.487266 0.125000 0.596821 236 181 85 255
134.957031 -39.091213 106.012367 -0.822851 -0.292383 -0.487266 0.125000 0.595978 236 181 85 255
134.560349 -41.699776 108.247513 -0.822851 -0.292383 -0.487266 0.125000 0.596821 236 181 85 255
134.199020 -39.168434 108.073975 -0.759951 -0.125642 -0.637721 0.125000 0.596821 236 181 85 255
134.962494 -38.960262 107.123154 -0.759951 -0.125642 -0.637721 0.125000 0.595978 236 181 85 255
134.325699 -40.209789 108.128181 -0.759951 -0.125642 -0.637721 0.125000 0.596821 236 181 85 255
136.652664 -44.044392 108.060562 -0.757008 -0.132242 -0.639883 0.125000 0.596821 236 181 85 255
137.699860 -42.970158 106.599678 -0.757008 -0.132242 -0.639883 0.125000 0.595978 236 181 85 255
137.143570 -44.080482 107.487259 -0.757008 -0.132242 -0.639883 0.125000 0.596821 236 181 85 255
135.348190 -43.973728 108.432930 -0.588046 0.124808 -0.799140 0.125000 0.596821 236 181 85 255
138.115112 -41.483814 106.785767 -0.588046 0.124808 -0.799140 0.125000 0.595978 236 181 85 255
136.019714 -44.020679 107.931458 -0.588046 0.124808 -0.799140 0.125000 0.596821 236 181 85 255
135.884155 -42.695114 108.862015 -0.753000 -0.122528 -0.646512 0.125000 0.596821 236 181 85 255
137.547226 -40.534821 106.515594 -0.753000 -0.122528 -0.646512 0.125000 0.595978 236 181 85 255
136.005096 -43.593590 108.891434 -0.753000 -0.122528 -0.646512 0.125000 0.596821 236 181 85 255
139.520111 -44.171440 107.426590 -0.619518 -0.349697 -0.702787 0.125000 0.596821 236 181 85 255
135.705765 -40.272903 108.849136 -0.619518 -0.349697 -0.702787 0.125000 0.595978 236 181 85 255
135.379730 -39.410576 108.707458 -0.619518 -0.349697 -0.702787 0.125000 0.595978 236 181 85 255
140.475891 -43.566227 107.655716 -0.795037 0.604738 -0.046992 0.125000 0.596821 236 181 85 255
141.243408 -42.318245 110.730644 -0.795037 0.604738 -0.046992 0.125000 0.595978 236 181 85 255
141.940536 -41.388565 110.900238 -0.795037 0.604738 -0.046992 0.125000 0.595978 236 181 85 255
123.852028 -42.927979 96.628899 0.236526 0.958909 0.156683 0.125000 0.596821 80 72 55 255
125.763031 -43.973686 100.143883 0.236526 0.958909 0.156683 0.125000 0.596821 80 72 55 255
127.867073 -44.181877 98.241798 0.236526 0.958909 0.156683 0.125000 0.597964 80 72 55 255
123.852028 -42.927979 96.628899 0.875602 0.021006 -0.482576 0.125000 0.596821 147 133 102 255
123.862595 -37.737808 96.873993 0.875602 0.021006 -0.482576 0.125000 0.595978 147 133 102 255
125.821281 -38.787975 100.382187 0.875602 0.021006 -0.482576 0.125000 0.595978 147 133 102 255
123.862595 -37.737808 96.873993 -0.316635 -0.941390 -0.116306 0.125000 0.595978 147 133 102 255
126.177963 -38.288094 95.024605 -0.316635 -0.941390 -0.116306 0.125000 0.598639 147 133 102 255
127.730759 -39.192322 98.116119 -0.316635 -0.941390 -0.116306 0.125000 0.598639 147 133 102 255
126.287102 -43.280067 95.174484 -0.890455 -0.012869 0.454889 0.125000 0.597964 147 133 102 255
127.867073 -44.181877 98.241798 -0.890455 -0.012869 0.454889 0.125000 0.597964 147 133 102 255
127.730759 -39.192322 98.116119 -0.890455 -0.012869 0.454889 0.125000 0.598639 147 133 102 255
127.730759 -39.192322 98.116119 -0.109302 -0.990400 0.084621 0.125000 0.598639 147 133 102 255
127.867073 -44.181877 98.241798 -0.790710 -0.006182 0.612160 0.125000 0.597964 147 133 102 255
130.003662 -44.181877 101.001572 -0.790710 -0.006182 0.612160 0.125000 0.597964 147 133 102 255
129.867355 -39.192322 100.875893 -0.790710 -0.006182 0.612160 0.125000 0.598639 147 133 102 255
125.763031 -43.973686 100.143883 0.058052 0.997301 -0.044944 0.125000 0.596821 80 72 55 255
127.899635 -43.973686 102.903656 0.058052 0.997301 -0.044944 0.125000 0.596821 80 72 55 255
130.003662 -44.181877 101.001572 0.058052 0.997301 -0.044944 0.125000 0.597964 80 72 55 255
125.821281 -38.787975 100.382187 0.790578 0.019247 -0.612059 0.125000 0.595978 147 133 102 255
127.957878 -38.787975 103.141960 0.790578 0.019247 -0.612059 0.125000 0.595978 147 133 102 255
127.899635 -43.973686 102.903656 0.790578 0.019247 -0.612059 0.125000 0.596821 147 133 102 255
133.030518 -44.181877 103.761345 -0.673753 0.000207 0.738957 0.125000 0.597964 147 133 102 255
127.899635 -43.973686 102.903656 0.049551 0.997292 -0.054346 0.125000 0.596821 80 72 55 255
130.984726 -38.787975 105.901733 0.673519 0.026382 -0.738699 0.125000 0.595978 147 133 102 255
127.957878 -38.787975 103.141960 -0.091159 -0.990805 0.099981 0.125000 0.595978 147 133 102 255
129.867355 -39.192322 100.875893 -0.091159 -0.990805 0.099981 0.125000 0.598639 147 133 102 255
132.894211 -39.192322 103.635666 -0.091159 -0.990805 0.099981 0.125000 0.598639 147 133 102 255
133.030518 -44.181877 103.761345 0.043066 0.997177 -0.061507 0.125000 0.597964 80 72 55 255
130.926483 -43.973686 105.663429 0.043066 0.997177 -0.061507 0.125000 0.596821 80 72 55 255
134.598541 -43.973686 108.234550 0.043066 0.997177 -0.061507 0.125000 0.596821 80 72 55 255
130.984726 -38.787975 105.901733 0.562991 0.020664 -0.826205 0.125000 0.595978 147 133 102 255
134.720535 -38.787975 108.447380 0.562991 0.020664 -0.826205 0.125000 0.595978 147 133 102 255
134.598541 -43.973686 108.234550 0.562991 0.020664 -0.826205 0.125000 0.596821 147 133 102 255
130.984726 -38.787975 105.901733 -0.077422 -0.990739 0.111544 0.125000 0.595978 147 133 102 255
132.894211 -39.192322 103.635666 -0.077422 -0.990739 0.111544 0.125000 0.598639 147 133 102 255
135.927338 -39.192322 105.740944 -0.077422 -0.990739 0.111544 0.125000 0.598639 147 133 102 255
133.030518 -44.181877 103.761345 -0.558596 -0.004766 0.829426 0.125000 0.597964 147 133 102 255
136.093140 -44.181877 105.823936 -0.558596 -0.004766 0.829426 0.125000 0.597964 147 133 102 255
135.927338 -39.192322 105.740944 -0.558596 -0.004766 0.829426 0.125000 0.598639 147 133 102 255
134.720535 -38.787975 108.447380 -0.058056 -0.990813 0.122142 0.125000 0.595978 147 133 102 255
135.927338 -39.192322 105.740944 -0.058056 -0.990813 0.122142 0.125000 0.598639 147 133 102 255
139.497086 -39.192322 107.437683 -0.058056 -0.990813 0.122142 0.125000 0.598639 147 133 102 255
136.093140 -44.181877 105.823936 -0.421466 -0.005760 0.906826 0.125000 0.597964 147 133 102 255
139.675308 -44.181877 107.488823 -0.421466 -0.005760 0.906826 0.125000 0.597964 147 133 102 255
139.497086 -39.192322 107.437683 -0.421466 -0.005760 0.906826 0.125000 0.598639 147 133 102 255
136.093140 -44.181877 105.823936 0.031279 0.997280 -0.066736 0.125000 0.597964 80 72 55 255
134.598541 -43.973686 108.234550 0.031279 0.997280 -0.066736 0.125000 0.596821 80 72 55 255
138.648682 -43.973686 110.132858 0.031279 0.997280 -0.066736 0.125000 0.596821 80 72 55 255
134.720535 -38.787975 108.447380 0.416392 0.019980 -0.908965 0.125000 0.595978 147 133 102 255
138.807678 -38.787975 110.319679 0.416392 0.019980 -0.908965 0.125000 0.595978 147 133 102 255
138.648682 -43.973686 110.132858 0.416392 0.019980 -0.908965 0.125000 0.596821 147 133 102 255
139.675308 -44.181877 107.488823 0.015718 0.997250 -0.072420 0.125000 0.597964 80 72 55 255
138.648682 -43.973686 110.132858 0.015718 0.997250 -0.072420 0.125000 0.596821 80 72 55 255
143.149719 -43.973686 111.109772 0.015718 0.997250 -0.072420 0.125000 0.596821 80 72 55 255
138.807678 -38.787975 110.319679 0.201241 0.019287 -0.979352 0.125000 0.595978 147 133 102 255
143.348999 -38.787975 111.252846 0.201241 0.019287 -0.979352 0.125000 0.595978 147 133 102 255
143.149719 -43.973686 111.109772 0.201241 0.019287 -0.979352 0.125000 0.596821 147 133 102 255
138.807678 -38.787975 110.319679 -0.029378 -0.990816 0.131985 0.125000 0.595978 147 133 102 255
139.497086 -39.192322 107.437683 -0.029378 -0.990816 0.131985 0.125000 0.598639 147 133 102 255
143.324677 -39.192322 108.289642 -0.029378 -0.990816 0.131985 0.125000 0.598639 147 133 102 255
139.675308 -44.181877 107.488823 -0.206074 -0.006328 0.978516 0.125000 0.597964 147 133 102 255
143.509964 -44.181877 108.296394 -0.206074 -0.006328 0.978516 0.125000 0.597964 147 133 102 255
143.324677 -39.192322 108.289642 -0.206074 -0.006328 0.978516 0.125000 0.598639 147 133 102 255
126.552574 -44.028744 99.377724 -0.680641 0.042906 -0.731360 0.125000 0.596821 236 181 85 255
126.590279 -38.939453 99.641205 -0.680641 0.042906 -0.731360 0.125000 0.595978 236 181 85 255
127.053658 -39.026577 99.204849 -0.680641 0.042906 -0.731360 0.125000 0.595978 236 181 85 255
129.548584 -44.126225 101.503693 -0.680516 0.042690 -0.731489 0.125000 0.596821 236 181 85 255
129.568771 -39.091232 101.778755 -0.680516 0.042690 -0.731489 0.125000 0.595978 236 181 85 255
130.033127 -39.168396 101.342255 -0.680516 0.042690 -0.731489 0.125000 0.595978 236 181 85 255
128.330063 -44.043980 101.614342 -0.068349 0.108170 -0.991780 0.125000 0.596821 236 181 85 255
127.429085 -38.806873 102.247627 -0.068349 0.108170 -0.991780 0.125000 0.595978 236 181 85 255
127.937820 -38.879528 102.204643 -0.068349 0.108170 -0.991780 0.125000 0.595978 236 181 85 255
127.975327 -44.012718 101.889404 -0.631172 0.035480 -0.774831 0.125000 0.596821 236 181 85 255
127.473816 -43.967319 102.300011 -0.631172 0.035480 -0.774831 0.125000 0.596821 236 181 85 255
128.371292 -38.946342 101.798843 -0.631172 0.035480 -0.774831 0.125000 0.595978 236 181 85 255
130.027390 -44.037140 103.581421 -0.630991 0.035931 -0.774958 0.125000 0.596821 236 181 85 255
129.529526 -43.974468 103.989700 -0.630991 0.035931 -0.774958 0.125000 0.596821 236 181 85 255
130.613327 -39.023647 103.336784 -0.630991 0.035931 -0.774958 0.125000 0.595978 236 181 85 255
129.963669 -42.513809 103.683067 -0.675764 0.035444 -0.736265 0.125000 0.596821 236 181 85 255
129.371429 -38.800625 104.405396 -0.675764 0.035444 -0.736265 0.125000 0.595978 236 181 85 255
129.866226 -38.883068 103.947289 -0.675764 0.035444 -0.736265 0.125000 0.595978 236 181 85 255
130.373001 -42.076561 103.346512 -0.460652 0.257717 -0.849342 0.125000 0.596821 236 181 85 255
130.028137 -41.646778 103.663963 -0.460652 0.257717 -0.849342 0.125000 0.596821 236 181 85 255
131.693146 -39.101677 103.533188 -0.460652 0.257717 -0.849342 0.125000 0.595978 236 181 85 255
132.478119 -44.166580 103.278915 -0.462780 0.292176 -0.836940 0.125000 0.596821 236 181 85 255
132.039764 -44.123131 103.536469 -0.462780 0.292176 -0.836940 0.125000 0.596821 236 181 85 255
130.635193 -40.710354 105.504517 -0.462780 0.292176 -0.836940 0.125000 0.595978 236 181 85 255
131.621460 -43.200901 106.178085 -0.777606 -0.081417 -0.623458 0.125000 0.596821 236 181 85 255
133.164490 -40.119442 103.851143 -0.777606 -0.081417 -0.623458 0.125000 0.595978 236 181 85 255
133.207642 -40.937504 103.904152 -0.777606 -0.081417 -0.623458 0.125000 0.595978 236 181 85 255
133.893097 -41.749096 107.796097 -0.780873 -0.076305 -0.620012 0.125000 0.596821 236 181 85 255
135.081863 -39.100647 105.972961 -0.780873 -0.076305 -0.620012 0.125000 0.595978 236 181 85 255
135.505707 -39.195454 105.450821 -0.780873 -0.076305 -0.620012 0.125000 0.595978 236 181 85 255
134.231445 -40.468754 108.064262 -0.853130 -0.240346 -0.463038 0.125000 0.596821 236 181 85 255
134.601212 -38.992958 106.616951 -0.853130 -0.240346 -0.463038 0.125000 0.595978 236 181 85 255
134.957031 -39.091213 106.012367 -0.853130 -0.240346 -0.463038 0.125000 0.595978 236 181 85 255
134.199020 -39.168434 108.073975 -0.778741 -0.009043 -0.627280 0.125000 0.596821 236 181 85 255
134.346436 -38.830502 107.886093 -0.778741 -0.009043 -0.627280 0.125000 0.595978 236 181 85 255
134.962494 -38.960262 107.123154 -0.778741 -0.009043 -0.627280 0.125000 0.595978 236 181 85 255
136.652664 -44.044392 108.060562 -0.786246 -0.068661 -0.614087 0.125000 0.596821 236 181 85 255
137.649689 -42.131569 106.570152 -0.786246 -0.068661 -0.614087 0.125000 0.595978 236 181 85 255
137.699860 -42.970158 106.599678 -0.786246 -0.068661 -0.614087 0.125000 0.595978 236 181 85 255
135.348190 -43.973728 108.432930 -0.611713 0.168442 -0.772939 0.125000 0.596821 236 181 85 255
138.257736 -40.508850 106.885361 -0.611713 0.168442 -0.772939 0.125000 0.595978 236 181 85 255
138.115112 -41.483814 106.785767 -0.611713 0.168442 -0.772939 0.125000 0.595978 236 181 85 255
135.884155 -42.695114 108.862015 -0.773715 -0.086099 -0.627655 0.125000 0.596821 236 181 85 255
137.475937 -39.694195 106.488159 -0.773715 -0.086099 -0.627655 0.125000 0.595978 236 181 85 255
137.547226 -40.534821 106.515594 -0.773715 -0.086099 -0.627655 0.125000 0.595978 236 181 85 255
139.520111 -44.171440 107.426590 -0.595682 -0.312879 -0.739777 0.125000 0.596821 236 181 85 255
138.857178 -44.116203 107.937035 -0.595682 -0.312879 -0.739777 0.125000 0.596821 236 181 85 255
135.705765 -40.272903 108.849136 -0.595682 -0.312879 -0.739777 0.125000 0.595978 236 181 85 255
140.475891 -43.566227 107.655716 -0.767496 0.637524 -0.067173 0.125000 0.596821 236 181 85 255
139.990952 -44.160339 107.557884 -0.767496 0.637524 -0.067173 0.125000 0.596821 236 181 85 255
141.243408 -42.318245 110.730644 -0.767496 0.637524 -0.067173 0.125000 0.595978 236 181 85 255
3 0 1 2
3 3 4 5
3 6 7 8
3 9 10 11
3 12 13 14
3 15 16 17
3 18 19 20
3 21 22 23
3 24 25 26
3 27 28 29
3 30 31 32
3 33 34 35
3 36 37 38
3 39 40 41
3 42 43 44
3 45 46 47
3 48 49 50
3 51 52 53
3 54 55 56
3 57 58 59
3 60 61 62
3 63 64 65
3 66 67 68
3 69 70 71
3 72 73 74
3 75 76 77
3 78 79 80
3 81 82 83
3 84 85 86
3 87 88 89
3 90 91 92
3 93 94 95
3 96 97 98
3 99 100 101
3 102 103 104
3 105 106 107
3 108 109 110
3 111 112 113
3 114 115 116
3 117 118 119
3 120 121 122
3 123 124 125
3 126 127 128
3 129 130 131
3 132 133 134
3 12 135 13
3 136 137 138
3 139 140 141
3 142 143 144
3 24 145 25
3 27 146 28
3 30 147 31
3 148 149 150
3 151 152 153
3 154 155 156
3 157 158 159
3 160 161 162
3 163 164 165
3 166 167 168
3 169 170 171
3 172 173 174
3 175 176 177
3 178 179 180
3 181 182 183
3 184 185 186
3 187 188 189
3 190 191 192
3 193 194 195
3 196 197 198
3 199 200 201
3 202 203 204
3 205 206 207
3 208 209 210
3 211 212 213
3 214 215 216
3 217 218 219
3 220 221 222
3 223 224 225
3 226 227 228
3 229 230 231
3 232 233 234
3 235 236 237
