ply
format ascii 1.0
comment Created by Blender 2.93.1 - www.blender.org
element vertex 68
property float x
property float y
property float z
property float nx
property float ny
property float nz
property float s
property float t
property uchar red
property uchar green
property uchar blue
property uchar alpha
element face 26
property list uchar uint vertex_indices
end_header
155.669495 -19.851511 -121.825920 0.851226 0.000025 -0.524799 0.411277 0.036275 66 31 28 255
155.784241 -19.522503 -121.639786 0.851226 0.000025 -0.524799 0.587753 0.213725 66 31 28 255
155.784119 -19.851255 -121.639999 0.851226 0.000025 -0.524799 0.411277 0.213725 66 31 28 255
155.923752 -19.107452 -121.413513 0.524819 -0.000000 0.851214 0.623866 0.250000 146 69 62 255
155.285339 -19.104052 -121.019897 0.524819 -0.000000 0.851214 0.625000 0.500000 146 69 62 255
155.285339 -19.854052 -121.019897 0.524819 -0.000000 0.851214 0.375000 0.500000 146 69 62 255
155.285339 -19.104052 -121.019897 -0.851214 0.000000 0.524819 0.625000 0.500000 146 69 62 255
154.891724 -19.104052 -121.658310 -0.851214 0.000000 0.524819 0.625000 0.750000 146 69 62 255
154.891724 -19.854052 -121.658310 -0.851214 0.000000 0.524819 0.375000 0.750000 146 69 62 255
154.891724 -19.104052 -121.658310 -0.524819 0.000000 -0.851214 0.625000 0.750000 146 69 62 255
155.530136 -19.854052 -122.051926 -0.524819 0.000000 -0.851214 0.375000 1.000000 146 69 62 255
154.891724 -19.854052 -121.658310 -0.524819 0.000000 -0.851214 0.375000 0.750000 146 69 62 255
155.285339 -19.854052 -121.019897 -0.000000 -1.000000 0.000000 0.375000 0.500000 255 255 255 255
155.530136 -19.854052 -122.051926 -0.000000 -1.000000 0.000000 0.125000 0.750000 255 255 255 255
155.923752 -19.854052 -121.413513 -0.000000 -1.000000 0.000000 0.125000 0.500000 255 255 255 255
155.285339 -19.104052 -121.019897 0.357928 0.688951 0.630265 0.625000 0.500000 178 136 64 255
155.735657 -18.698833 -121.718582 0.357928 0.688951 0.630265 0.875000 0.619465 178 136 64 255
155.083069 -18.698833 -121.347977 0.357928 0.688951 0.630265 0.625000 0.628473 178 136 64 255
155.083069 -18.698833 -121.347977 -0.390150 0.668848 -0.632791 0.625000 0.628473 178 136 64 255
155.530136 -19.104052 -122.051926 -0.390150 0.668848 -0.632791 0.875000 0.750000 178 136 64 255
154.891724 -19.104052 -121.658310 -0.390150 0.668848 -0.632791 0.625000 0.750000 178 136 64 255
155.530136 -19.104052 -122.051926 0.851214 0.000000 -0.524819 0.625000 0.000000 146 69 62 255
155.923752 -19.104052 -121.413513 0.851214 0.000000 -0.524819 0.625000 0.250000 146 69 62 255
155.923752 -19.107452 -121.413513 0.851214 0.000000 -0.524819 0.623866 0.250000 146 69 62 255
155.669495 -19.851511 -121.825920 0.851205 -0.004661 -0.524814 0.411277 0.036275 146 69 62 255
155.923752 -19.854052 -121.413513 0.851205 -0.004661 -0.524814 0.375000 0.250000 146 69 62 255
155.530136 -19.854052 -122.051926 0.851205 -0.004661 -0.524814 0.375000 0.000000 146 69 62 255
155.669617 -19.521259 -121.825699 0.851214 0.000000 -0.524818 0.588558 0.036275 146 69 62 255
155.530136 -19.854052 -122.051926 0.851214 0.000000 -0.524818 0.375000 0.000000 146 69 62 255
155.530136 -19.104052 -122.051926 0.851214 0.000000 -0.524818 0.625000 0.000000 146 69 62 255
155.784241 -19.522503 -121.639786 0.851227 0.000025 -0.524798 0.587753 0.213725 146 69 62 255
155.923752 -19.854052 -121.413513 0.851227 0.000025 -0.524798 0.375000 0.250000 146 69 62 255
155.784119 -19.851255 -121.639999 0.851227 0.000025 -0.524798 0.411277 0.213725 146 69 62 255
155.669617 -19.521259 -121.825699 0.851217 -0.000007 -0.524814 0.588558 0.036275 146 69 62 255
155.923752 -19.107452 -121.413513 0.851217 -0.000007 -0.524814 0.623866 0.250000 146 69 62 255
155.784241 -19.522503 -121.639786 0.851217 -0.000007 -0.524814 0.587753 0.213725 146 69 62 255
155.669495 -19.851511 -121.825920 0.851217 0.000037 -0.524814 0.411277 0.036275 66 31 28 255
155.669617 -19.521259 -121.825699 0.851217 0.000037 -0.524814 0.588558 0.036275 66 31 28 255
155.784241 -19.522503 -121.639786 0.851217 0.000037 -0.524814 0.587753 0.213725 66 31 28 255
155.923752 -19.854052 -121.413513 0.524819 0.000000 0.851214 0.375000 0.250000 146 69 62 255
155.923752 -19.104052 -121.413513 0.524819 0.000000 0.851214 0.625000 0.250000 146 69 62 255
155.285339 -19.854052 -121.019897 -0.851214 0.000000 0.524819 0.375000 0.500000 146 69 62 255
155.285339 -19.104052 -121.019897 -0.851214 0.000017 0.524819 0.625000 0.500000 146 69 62 255
155.083069 -18.698833 -121.347977 -0.851214 0.000017 0.524819 0.625000 0.628473 146 69 62 255
154.891724 -19.104052 -121.658310 -0.851214 0.000017 0.524819 0.625000 0.750000 146 69 62 255
155.530136 -19.104052 -122.051926 -0.524819 0.000000 -0.851214 0.625000 1.000000 146 69 62 255
154.891724 -19.854052 -121.658310 0.000000 -1.000000 0.000000 0.375000 0.750000 255 255 255 255
155.285339 -19.104052 -121.019897 0.393120 0.662504 0.637609 0.625000 0.500000 178 136 64 255
155.923752 -19.104052 -121.413513 0.393120 0.662504 0.637609 0.875000 0.500000 178 136 64 255
155.735657 -18.698833 -121.718582 0.393120 0.662504 0.637609 0.875000 0.619465 178 136 64 255
155.083069 -18.698833 -121.347977 -0.355211 0.694694 -0.625480 0.625000 0.628473 178 136 64 255
155.735657 -18.698833 -121.718582 -0.355211 0.694694 -0.625480 0.875000 0.619465 178 136 64 255
155.530136 -19.104052 -122.051926 -0.355211 0.694694 -0.625480 0.875000 0.750000 178 136 64 255
155.530136 -19.104052 -122.051926 0.851214 0.000008 -0.524819 0.625000 0.000000 146 69 62 255
155.735657 -18.698833 -121.718582 0.851214 0.000008 -0.524819 0.625000 0.130535 146 69 62 255
155.923752 -19.104052 -121.413513 0.851214 0.000008 -0.524819 0.625000 0.250000 146 69 62 255
155.669495 -19.851511 -121.825920 0.851226 -0.000088 -0.524799 0.411277 0.036275 146 69 62 255
155.784119 -19.851255 -121.639999 0.851226 -0.000088 -0.524799 0.411277 0.213725 146 69 62 255
155.923752 -19.854052 -121.413513 0.851226 -0.000088 -0.524799 0.375000 0.250000 146 69 62 255
155.669617 -19.521259 -121.825699 0.851190 0.000037 -0.524857 0.588558 0.036275 146 69 62 255
155.669495 -19.851511 -121.825920 0.851190 0.000037 -0.524857 0.411277 0.036275 146 69 62 255
155.530136 -19.854052 -122.051926 0.851190 0.000037 -0.524857 0.375000 0.000000 146 69 62 255
155.784241 -19.522503 -121.639786 0.851211 0.000000 -0.524824 0.587753 0.213725 146 69 62 255
155.923752 -19.107452 -121.413513 0.851211 0.000000 -0.524824 0.623866 0.250000 146 69 62 255
155.923752 -19.854052 -121.413513 0.851211 0.000000 -0.524824 0.375000 0.250000 146 69 62 255
155.669617 -19.521259 -121.825699 0.851214 -0.000001 -0.524819 0.588558 0.036275 146 69 62 255
155.530136 -19.104052 -122.051926 0.851214 -0.000001 -0.524819 0.625000 0.000000 146 69 62 255
155.923752 -19.107452 -121.413513 0.851214 -0.000001 -0.524819 0.623866 0.250000 146 69 62 255
3 0 1 2
3 3 4 5
3 6 7 8
3 9 10 11
3 12 13 14
3 15 16 17
3 18 19 20
3 21 22 23
3 24 25 26
3 27 28 29
3 30 31 32
3 33 34 35
3 36 37 38
3 5 39 3
3 3 40 4
3 8 41 6
3 42 43 44
3 9 45 10
3 12 46 13
3 47 48 49
3 50 51 52
3 53 54 55
3 56 57 58
3 59 60 61
3 62 63 64
3 65 66 67
