ply
format ascii 1.0
comment Created by Blender 2.92.0 - www.blender.org
element vertex 279
property float x
property float y
property float z
property float nx
property float ny
property float nz
property float s
property float t
property uchar red
property uchar green
property uchar blue
property uchar alpha
element face 98
property list uchar uint vertex_indices
end_header
174.391495 -32.386387 136.242676 -0.932401 0.159456 0.324350 0.125000 0.598639 147 133 102 255
176.708893 -43.633266 148.433594 -0.932401 0.159456 0.324350 0.125000 0.598414 147 133 102 255
179.696213 -26.423208 148.560425 -0.932401 0.159456 0.324350 0.125000 0.598639 147 133 102 255
161.102890 -49.883133 133.229797 0.958383 0.135631 0.251209 0.125000 0.596821 147 133 102 255
157.316086 -36.630840 140.521667 0.958383 0.135631 0.251209 0.125000 0.596540 147 133 102 255
159.265945 -54.216797 142.577682 0.958383 0.135631 0.251209 0.125000 0.596821 147 133 102 255
168.096924 -50.579750 136.122894 -0.979607 0.174734 0.099185 0.125000 0.597964 147 133 102 255
170.184265 -45.874458 148.449402 -0.979607 0.174734 0.099185 0.125000 0.598189 147 133 102 255
169.601318 -42.181961 136.186768 -0.979607 0.174734 0.099185 0.125000 0.598189 147 133 102 255
172.887085 -41.053307 136.178802 -0.310519 0.906022 0.287581 0.125000 0.598414 147 133 102 255
170.184265 -45.874458 148.449402 -0.310519 0.906022 0.287581 0.125000 0.598189 147 133 102 255
176.708893 -43.633266 148.433594 -0.310519 0.906022 0.287581 0.125000 0.598414 147 133 102 255
156.648834 -35.322498 130.637543 0.087918 0.988269 0.124880 0.125000 0.596259 147 133 102 255
157.316086 -36.630840 140.521667 0.087918 0.988269 0.124880 0.125000 0.596540 147 133 102 255
160.120941 -35.828110 132.194397 0.087918 0.988269 0.124880 0.125000 0.596540 147 133 102 255
159.265945 -54.216797 142.577682 -0.108252 0.922111 0.371475 0.125000 0.596821 80 72 55 255
161.909607 -54.677891 144.492645 -0.108252 0.922111 0.371475 0.125000 0.597202 80 72 55 255
168.096924 -50.579750 136.122894 -0.108252 0.922111 0.371475 0.125000 0.597964 80 72 55 255
155.361084 -29.792179 130.029297 0.704099 0.237551 0.669190 0.125000 0.595978 147 133 102 255
150.421448 -35.999680 137.430176 0.704099 0.237551 0.669190 0.125000 0.596259 147 133 102 255
156.648834 -35.322498 130.637543 0.704099 0.237551 0.669190 0.125000 0.596259 147 133 102 255
159.265945 -54.216797 142.577682 0.942909 0.143518 0.300542 0.125000 0.596821 147 133 102 255
153.091125 -37.306503 153.875122 0.942909 0.143518 0.300542 0.125000 0.596540 147 133 102 255
155.040985 -54.422516 155.931152 0.942909 0.143518 0.300542 0.125000 0.596821 147 133 102 255
167.196960 -55.600082 148.322601 -0.915180 0.284823 -0.285170 0.125000 0.597964 147 133 102 255
165.959305 -46.080177 161.802856 -0.915180 0.284823 -0.285170 0.125000 0.598189 147 133 102 255
170.184265 -45.874458 148.449402 -0.915180 0.284823 -0.285170 0.125000 0.598189 147 133 102 255
176.708893 -43.633266 148.433594 -0.071429 0.989744 0.123715 0.125000 0.598414 147 133 102 255
165.959305 -46.080177 161.802856 -0.071429 0.989744 0.123715 0.125000 0.598189 147 133 102 255
172.719193 -47.126480 174.076355 -0.071429 0.989744 0.123715 0.125000 0.598414 147 133 102 255
150.421448 -35.999680 137.430176 0.060047 0.995781 0.069383 0.125000 0.596259 147 133 102 255
153.091125 -37.306503 153.875122 0.060047 0.995781 0.069383 0.125000 0.596540 147 133 102 255
157.316086 -36.630840 140.521667 0.060047 0.995781 0.069383 0.125000 0.596540 147 133 102 255
150.421448 -35.999680 137.430176 0.941344 0.266526 0.206967 0.125000 0.596259 147 133 102 255
143.639359 -21.477560 149.575867 0.941344 0.266526 0.206967 0.125000 0.595978 147 133 102 255
146.196487 -36.205395 156.911438 0.941344 0.266526 0.206967 0.125000 0.596259 147 133 102 255
176.708893 -43.633266 148.433594 -0.968947 0.169516 -0.180013 0.125000 0.598414 147 133 102 255
175.471252 -26.628925 171.108154 -0.968947 0.169516 -0.180013 0.125000 0.598639 147 133 102 255
179.696213 -26.423208 148.560425 -0.968947 0.169516 -0.180013 0.125000 0.598639 147 133 102 255
157.496353 -44.479351 156.814819 0.500623 -0.046803 -0.864399 0.125000 0.597117 147 133 102 255
155.040985 -54.422516 155.931152 0.500623 -0.046803 -0.864399 0.125000 0.596821 147 133 102 255
153.091125 -37.306503 153.875122 0.500623 -0.046803 -0.864399 0.125000 0.596540 147 133 102 255
146.196487 -36.205395 156.911438 0.320450 0.849220 0.419687 0.125000 0.596259 147 133 102 255
165.959305 -46.080177 161.802856 0.320450 0.849220 0.419687 0.125000 0.598189 147 133 102 255
153.091125 -37.306503 153.875122 0.320450 0.849220 0.419687 0.125000 0.596540 147 133 102 255
146.196487 -36.205395 156.911438 0.477743 -0.188397 -0.858061 0.125000 0.596259 147 133 102 255
175.471252 -26.628925 171.108154 0.477743 -0.188397 -0.858061 0.125000 0.598639 147 133 102 255
172.719193 -47.126480 174.076355 0.477743 -0.188397 -0.858061 0.125000 0.598414 147 133 102 255
160.982971 -51.827507 159.513336 0.560298 -0.161508 -0.812392 0.125000 0.597618 147 133 102 255
165.959305 -46.080177 161.802856 0.560298 -0.161508 -0.812392 0.125000 0.598189 147 133 102 255
162.972000 -55.805801 161.676056 0.560298 -0.161508 -0.812392 0.125000 0.597964 147 133 102 255
157.266937 -51.545486 157.064545 0.544198 -0.080477 -0.835088 0.000000 0.000000 147 133 102 255
161.304214 -44.612526 159.027374 0.544198 -0.080477 -0.835088 0.000000 0.000000 147 133 102 255
160.982971 -51.827507 159.513336 0.544198 -0.080477 -0.835088 0.000000 0.000000 147 133 102 255
161.460785 -51.883347 158.744629 0.547133 -0.047309 -0.835708 0.125000 0.597618 216 151 21 255
157.744766 -51.601330 156.295807 0.547133 -0.047309 -0.835708 0.125000 0.597110 216 151 21 255
159.721436 -50.624752 157.534637 0.547133 -0.047309 -0.835708 0.125000 0.597375 216 151 21 255
159.899811 -49.032963 157.561340 0.547128 -0.047292 -0.835712 0.125000 0.597391 36 53 102 255
159.721436 -50.624752 157.534637 0.547128 -0.047292 -0.835712 0.125000 0.597375 36 53 102 255
159.170761 -49.030857 157.083923 0.547128 -0.047292 -0.835712 0.125000 0.597293 36 53 102 255
157.974182 -44.535194 156.046082 0.498671 -0.080333 -0.863061 0.125000 0.597117 216 151 21 255
159.243469 -44.579586 156.783600 0.498671 -0.080333 -0.863061 0.125000 0.597278 216 151 21 255
159.075607 -45.324223 156.755920 0.498671 -0.080333 -0.863061 0.125000 0.597261 216 151 21 255
160.512756 -44.623974 157.521118 0.369640 0.715255 -0.593108 0.125000 0.597439 216 151 21 255
158.813202 -43.699242 157.577087 0.369640 0.715255 -0.593108 0.125000 0.597278 216 151 21 255
160.082489 -43.743633 158.314606 0.369640 0.715255 -0.593108 0.125000 0.597439 216 151 21 255
162.972000 -55.805801 161.676056 0.594331 0.087326 -0.799465 0.125000 0.597964 147 133 102 255
156.208588 -63.436646 155.814545 0.594331 0.087326 -0.799465 0.125000 0.596821 147 133 102 255
155.040985 -54.422516 155.931152 0.594331 0.087326 -0.799465 0.125000 0.596821 147 133 102 255
164.553284 -55.138985 146.407623 -0.490698 0.400469 0.773848 0.125000 0.597583 80 72 55 255
161.909607 -54.677891 144.492645 -0.490698 0.400469 0.773848 0.125000 0.597202 80 72 55 255
158.968689 -63.302254 147.090942 -0.490698 0.400469 0.773848 0.125000 0.596821 80 72 55 255
155.040985 -54.422516 155.931152 0.946154 0.118660 0.301186 0.125000 0.596821 147 133 102 255
158.968689 -63.302254 147.090942 0.946154 0.118660 0.301186 0.125000 0.596821 147 133 102 255
159.265945 -54.216797 142.577682 0.946154 0.118660 0.301186 0.125000 0.596821 147 133 102 255
162.972000 -55.805801 161.676056 -0.946265 0.126945 -0.297436 0.125000 0.597964 147 133 102 255
165.263321 -64.347878 150.740692 -0.946265 0.126945 -0.297436 0.125000 0.597964 147 133 102 255
162.034851 -64.505074 160.944672 -0.946265 0.126945 -0.297436 0.125000 0.597964 147 133 102 255
161.569092 -54.514595 149.937866 0.184390 0.982689 -0.017938 0.125000 0.597456 167 167 167 255
162.831573 -54.734791 150.852356 0.184390 0.982689 -0.017938 0.125000 0.597583 167 167 167 255
164.553284 -55.138985 146.407623 0.184390 0.982689 -0.017938 0.125000 0.597583 167 167 167 255
161.569092 -54.514595 149.937866 0.586573 -0.000761 -0.809896 0.125000 0.597456 80 72 55 255
161.424957 -63.853649 149.842255 0.586573 -0.000761 -0.809896 0.125000 0.597329 80 72 55 255
161.450378 -54.493889 149.851868 0.586573 -0.000761 -0.809896 0.125000 0.597329 80 72 55 255
161.543671 -63.874355 149.928253 0.468164 0.751147 -0.465403 0.125000 0.597456 0 0 0 255
162.037872 -64.523216 149.378143 0.468164 0.751147 -0.465403 0.125000 0.597329 0 0 0 255
161.424957 -63.853649 149.842255 0.468164 0.751147 -0.465403 0.125000 0.597329 0 0 0 255
161.424957 -63.853649 149.842255 -0.428687 0.542558 0.722398 0.125000 0.597329 0 0 0 255
160.977524 -64.985748 150.427002 -0.428687 0.542558 0.722398 0.125000 0.597456 0 0 0 255
161.543671 -63.874355 149.928253 -0.428687 0.542558 0.722398 0.125000 0.597456 0 0 0 255
161.801590 -66.209579 148.303375 0.075977 -0.940453 -0.331325 0.125000 0.597329 167 167 167 255
161.576782 -66.931122 150.299896 0.075977 -0.940453 -0.331325 0.125000 0.597456 167 167 167 255
160.619965 -66.667557 149.332367 0.075977 -0.940453 -0.331325 0.125000 0.597329 167 167 167 255
161.430603 -65.121880 150.937286 0.685759 -0.191935 0.702065 0.125000 0.597456 167 167 167 255
162.758408 -66.473145 149.270905 0.685759 -0.191935 0.702065 0.125000 0.597456 167 167 167 255
162.612244 -64.663902 149.908295 0.685759 -0.191935 0.702065 0.125000 0.597456 167 167 167 255
162.612244 -64.663902 149.908295 0.719495 0.281756 -0.634776 0.125000 0.597456 167 167 167 255
161.801590 -66.209579 148.303375 0.719495 0.281756 -0.634776 0.125000 0.597329 167 167 167 255
161.655426 -64.400337 148.940765 0.719495 0.281756 -0.634776 0.125000 0.597329 167 167 167 255
161.655426 -64.400337 148.940765 -0.685764 0.191933 -0.702061 0.125000 0.597329 167 167 167 255
160.619965 -66.667557 149.332367 -0.685764 0.191933 -0.702061 0.125000 0.597329 167 167 167 255
160.473801 -64.858315 149.969757 -0.685764 0.191933 -0.702061 0.125000 0.597329 167 167 167 255
161.430603 -65.121880 150.937286 -0.719495 -0.281761 0.634774 0.125000 0.597456 167 167 167 255
160.619965 -66.667557 149.332367 -0.719495 -0.281761 0.634774 0.125000 0.597329 167 167 167 255
161.576782 -66.931122 150.299896 -0.719495 -0.281761 0.634774 0.125000 0.597456 167 167 167 255
161.671509 -64.599487 148.870605 -0.548122 0.788707 -0.278394 0.125000 0.597329 217 186 242 255
160.489883 -65.057465 149.899597 -0.548122 0.788707 -0.278394 0.125000 0.597329 217 186 242 255
161.564407 -64.309731 149.902374 -0.548122 0.788707 -0.278394 0.125000 0.597384 217 186 242 255
161.424957 -63.853649 149.842255 -0.586573 0.000761 0.809896 0.125000 0.597329 0 0 0 255
161.569092 -54.514595 149.937866 -0.586573 0.000761 0.809896 0.125000 0.597456 0 0 0 255
161.450378 -54.493889 149.851868 -0.586573 0.000761 0.809896 0.125000 0.597329 0 0 0 255
161.446701 -65.321030 150.867157 0.364487 0.620227 0.694599 0.125000 0.597456 217 186 242 255
162.628326 -64.863052 149.838165 0.364487 0.620227 0.694599 0.125000 0.597456 217 186 242 255
161.564407 -64.309731 149.902374 0.364487 0.620227 0.694599 0.125000 0.597384 217 186 242 255
161.564407 -64.309731 149.902374 0.442619 0.874220 -0.199566 0.125000 0.597384 217 186 242 255
162.628326 -64.863052 149.838165 0.442619 0.874220 -0.199566 0.125000 0.597456 217 186 242 255
161.671509 -64.599487 148.870605 0.442619 0.874220 -0.199566 0.125000 0.597329 217 186 242 255
160.489883 -65.057465 149.899597 -0.449380 0.643476 0.619675 0.125000 0.597329 217 186 242 255
161.446701 -65.321030 150.867157 -0.449380 0.643476 0.619675 0.125000 0.597456 217 186 242 255
161.564407 -64.309731 149.902374 -0.449380 0.643476 0.619675 0.125000 0.597384 217 186 242 255
174.391495 -32.386387 136.242676 -0.932400 0.159456 0.324350 0.125000 0.598639 147 133 102 255
172.887085 -41.053307 136.178802 -0.932400 0.159456 0.324350 0.125000 0.598414 147 133 102 255
176.708893 -43.633266 148.433594 -0.932400 0.159456 0.324350 0.125000 0.598414 147 133 102 255
161.102890 -49.883133 133.229797 0.941211 0.089749 0.325678 0.125000 0.596821 147 133 102 255
160.120941 -35.828110 132.194397 0.941211 0.089749 0.325678 0.125000 0.596540 147 133 102 255
157.316086 -36.630840 140.521667 0.941211 0.089749 0.325678 0.125000 0.596540 147 133 102 255
168.096924 -50.579750 136.122894 -0.954910 0.292657 0.049989 0.125000 0.597964 147 133 102 255
167.196960 -55.600082 148.322601 -0.954910 0.292657 0.049989 0.125000 0.597964 147 133 102 255
170.184265 -45.874458 148.449402 -0.954910 0.292657 0.049989 0.125000 0.598189 147 133 102 255
172.887085 -41.053307 136.178802 -0.310520 0.906022 0.287581 0.125000 0.598414 147 133 102 255
169.601318 -42.181961 136.186768 -0.310520 0.906022 0.287581 0.125000 0.598189 147 133 102 255
170.184265 -45.874458 148.449402 -0.310520 0.906022 0.287581 0.125000 0.598189 147 133 102 255
156.648834 -35.322498 130.637543 0.032901 0.991103 0.128969 0.125000 0.596259 147 133 102 255
150.421448 -35.999680 137.430176 0.032901 0.991103 0.128969 0.125000 0.596259 147 133 102 255
157.316086 -36.630840 140.521667 0.032901 0.991103 0.128969 0.125000 0.596540 147 133 102 255
167.196960 -55.600082 148.322601 -0.108252 0.922111 0.371475 0.125000 0.597964 80 72 55 255
164.553284 -55.138985 146.407623 -0.108252 0.922111 0.371475 0.125000 0.597583 80 72 55 255
168.096924 -50.579750 136.122894 -0.077587 0.910243 0.406741 0.125000 0.597964 80 72 55 255
161.102890 -49.883133 133.229797 -0.077587 0.910243 0.406741 0.125000 0.596821 80 72 55 255
159.265945 -54.216797 142.577682 -0.077587 0.910243 0.406741 0.125000 0.596821 80 72 55 255
164.553284 -55.138985 146.407623 -0.108253 0.922111 0.371474 0.125000 0.597583 80 72 55 255
168.096924 -50.579750 136.122894 -0.108253 0.922111 0.371474 0.125000 0.597964 80 72 55 255
161.909607 -54.677891 144.492645 -0.108253 0.922111 0.371474 0.125000 0.597202 80 72 55 255
155.361084 -29.792179 130.029297 0.740745 0.181650 0.646761 0.125000 0.595978 147 133 102 255
147.864319 -21.271843 136.222412 0.740745 0.181650 0.646761 0.125000 0.595978 147 133 102 255
150.421448 -35.999680 137.430176 0.740745 0.181650 0.646761 0.125000 0.596259 147 133 102 255
159.265945 -54.216797 142.577682 0.941951 0.140112 0.305118 0.125000 0.596821 147 133 102 255
157.316086 -36.630840 140.521667 0.941951 0.140112 0.305118 0.125000 0.596540 147 133 102 255
153.091125 -37.306503 153.875122 0.941951 0.140112 0.305118 0.125000 0.596540 147 133 102 255
162.972000 -55.805801 161.676056 -0.915180 0.284823 -0.285170 0.125000 0.597964 147 133 102 255
176.708893 -43.633266 148.433594 -0.323798 0.942031 -0.087935 0.125000 0.598414 147 133 102 255
170.184265 -45.874458 148.449402 -0.323798 0.942031 -0.087935 0.125000 0.598189 147 133 102 255
165.959305 -46.080177 161.802856 -0.323798 0.942031 -0.087935 0.125000 0.598189 147 133 102 255
150.421448 -35.999680 137.430176 0.178567 0.982702 0.049103 0.125000 0.596259 147 133 102 255
146.196487 -36.205395 156.911438 0.178567 0.982702 0.049103 0.125000 0.596259 147 133 102 255
153.091125 -37.306503 153.875122 0.178567 0.982702 0.049103 0.125000 0.596540 147 133 102 255
150.421448 -35.999680 137.430176 0.935768 0.186989 0.298953 0.125000 0.596259 147 133 102 255
147.864319 -21.271843 136.222412 0.935768 0.186989 0.298953 0.125000 0.595978 147 133 102 255
143.639359 -21.477560 149.575867 0.935768 0.186989 0.298953 0.125000 0.595978 147 133 102 255
176.708893 -43.633266 148.433594 -0.984084 0.112167 -0.137831 0.125000 0.598414 147 133 102 255
172.719193 -47.126480 174.076355 -0.984084 0.112167 -0.137831 0.125000 0.598414 147 133 102 255
175.471252 -26.628925 171.108154 -0.984084 0.112167 -0.137831 0.125000 0.598639 147 133 102 255
153.091125 -37.306503 153.875122 0.500620 -0.046807 -0.864401 0.125000 0.596540 147 133 102 255
165.959305 -46.080177 161.802856 0.500620 -0.046807 -0.864401 0.125000 0.598189 147 133 102 255
161.304214 -44.612526 159.027374 0.500620 -0.046807 -0.864401 0.125000 0.597600 147 133 102 255
157.496353 -44.479351 156.814819 0.500621 -0.046803 -0.864401 0.125000 0.597117 147 133 102 255
157.266937 -51.545486 157.064545 0.500621 -0.046803 -0.864401 0.125000 0.597110 147 133 102 255
155.040985 -54.422516 155.931152 0.500621 -0.046803 -0.864401 0.125000 0.596821 147 133 102 255
153.091125 -37.306503 153.875122 0.500622 -0.046804 -0.864400 0.125000 0.596540 147 133 102 255
161.304214 -44.612526 159.027374 0.500622 -0.046804 -0.864400 0.125000 0.597600 147 133 102 255
157.496353 -44.479351 156.814819 0.500622 -0.046804 -0.864400 0.125000 0.597117 147 133 102 255
146.196487 -36.205395 156.911438 0.475943 0.858948 -0.188911 0.125000 0.596259 147 133 102 255
172.719193 -47.126480 174.076355 0.475943 0.858948 -0.188911 0.125000 0.598414 147 133 102 255
165.959305 -46.080177 161.802856 0.475943 0.858948 -0.188911 0.125000 0.598189 147 133 102 255
146.196487 -36.205395 156.911438 0.495756 -0.316697 -0.808659 0.125000 0.596259 147 133 102 255
143.639359 -21.477560 149.575867 0.495756 -0.316697 -0.808659 0.125000 0.595978 147 133 102 255
175.471252 -26.628925 171.108154 0.495756 -0.316697 -0.808659 0.125000 0.598639 147 133 102 255
162.972000 -55.805801 161.676056 0.560295 -0.161511 -0.812394 0.125000 0.597964 147 133 102 255
155.040985 -54.422516 155.931152 0.560295 -0.161511 -0.812394 0.125000 0.596821 147 133 102 255
160.982971 -51.827507 159.513336 0.560295 -0.161511 -0.812394 0.125000 0.597618 147 133 102 255
155.040985 -54.422516 155.931152 0.543102 -0.091379 -0.834680 0.125000 0.596821 147 133 102 255
157.266937 -51.545486 157.064545 0.543102 -0.091379 -0.834680 0.125000 0.597110 147 133 102 255
160.982971 -51.827507 159.513336 0.543102 -0.091379 -0.834680 0.125000 0.597618 147 133 102 255
160.982971 -51.827507 159.513336 0.491659 -0.080293 -0.867078 0.125000 0.597618 147 133 102 255
161.304214 -44.612526 159.027374 0.491659 -0.080293 -0.867078 0.125000 0.597600 147 133 102 255
165.959305 -46.080177 161.802856 0.491659 -0.080293 -0.867078 0.125000 0.598189 147 133 102 255
157.266937 -51.545486 157.064545 0.500622 -0.046803 -0.864400 0.000000 0.000000 147 133 102 255
157.496353 -44.479351 156.814819 0.500622 -0.046803 -0.864400 0.000000 0.000000 147 133 102 255
161.304214 -44.612526 159.027374 0.500622 -0.046803 -0.864400 0.000000 0.000000 147 133 102 255
157.744766 -51.601330 156.295807 0.547126 -0.047289 -0.835713 0.125000 0.597110 216 151 21 255
158.537918 -49.031342 156.669647 0.547126 -0.047289 -0.835713 0.125000 0.597208 216 151 21 255
159.721436 -50.624752 157.534637 0.547126 -0.047289 -0.835713 0.125000 0.597375 216 151 21 255
159.721436 -50.624752 157.534637 0.538493 -0.063595 -0.840227 0.125000 0.597375 216 151 21 255
160.664230 -48.995285 158.015533 0.538493 -0.063595 -0.840227 0.125000 0.597491 216 151 21 255
161.460785 -51.883347 158.744629 0.538493 -0.063595 -0.840227 0.125000 0.597618 216 151 21 255
159.899811 -49.032963 157.561340 0.511897 -0.042970 -0.857972 0.125000 0.597391 36 53 102 255
160.664230 -48.995285 158.015533 0.511897 -0.042970 -0.857972 0.125000 0.597491 36 53 102 255
159.721436 -50.624752 157.534637 0.511897 -0.042970 -0.857972 0.125000 0.597375 36 53 102 255
159.721436 -50.624752 157.534637 0.547119 -0.047296 -0.835717 0.125000 0.597375 36 53 102 255
158.537918 -49.031342 156.669647 0.547119 -0.047296 -0.835717 0.125000 0.597208 36 53 102 255
159.170761 -49.030857 157.083923 0.547119 -0.047296 -0.835717 0.125000 0.597293 36 53 102 255
159.170761 -49.030857 157.083923 0.546733 -0.059869 -0.835164 0.125000 0.597293 36 53 102 255
159.075607 -45.324223 156.755920 0.546733 -0.059869 -0.835164 0.125000 0.597261 36 53 102 255
159.899811 -49.032963 157.561340 0.546733 -0.059869 -0.835164 0.125000 0.597391 36 53 102 255
159.075607 -45.324223 156.755920 0.498740 -0.076657 -0.863355 0.125000 0.597261 36 53 102 255
160.434875 -45.290199 157.538116 0.498740 -0.076657 -0.863355 0.125000 0.597434 36 53 102 255
159.899811 -49.032963 157.561340 0.498740 -0.076657 -0.863355 0.125000 0.597391 36 53 102 255
160.664230 -48.995285 158.015533 0.512084 -0.078515 -0.855339 0.125000 0.597491 216 151 21 255
159.899811 -49.032963 157.561340 0.512084 -0.078515 -0.855339 0.125000 0.597391 216 151 21 255
160.434875 -45.290199 157.538116 0.512084 -0.078515 -0.855339 0.125000 0.597434 216 151 21 255
159.075607 -45.324223 156.755920 0.546757 -0.059867 -0.835149 0.125000 0.597261 216 151 21 255
159.170761 -49.030857 157.083923 0.546757 -0.059867 -0.835149 0.125000 0.597293 216 151 21 255
158.537918 -49.031342 156.669647 0.546757 -0.059867 -0.835149 0.125000 0.597208 216 151 21 255
161.460785 -51.883347 158.744629 0.498680 -0.080339 -0.863055 0.125000 0.597618 216 151 21 255
160.664230 -48.995285 158.015533 0.498680 -0.080339 -0.863055 0.125000 0.597491 216 151 21 255
161.782043 -44.668365 158.258636 0.498680 -0.080339 -0.863055 0.125000 0.597600 216 151 21 255
160.434875 -45.290199 157.538116 0.498680 -0.080339 -0.863055 0.125000 0.597434 216 151 21 255
159.075607 -45.324223 156.755920 0.513048 -0.054478 -0.856629 0.125000 0.597261 216 151 21 255
158.537918 -49.031342 156.669647 0.513048 -0.054478 -0.856629 0.125000 0.597208 216 151 21 255
157.974182 -44.535194 156.046082 0.513048 -0.054478 -0.856629 0.125000 0.597117 216 151 21 255
158.537918 -49.031342 156.669647 0.547152 -0.047299 -0.835696 0.125000 0.597208 216 151 21 255
157.744766 -51.601330 156.295807 0.547152 -0.047299 -0.835696 0.125000 0.597110 216 151 21 255
157.974182 -44.535194 156.046082 0.547152 -0.047299 -0.835696 0.125000 0.597117 216 151 21 255
161.782043 -44.668365 158.258636 0.498672 -0.080315 -0.863062 0.125000 0.597600 216 151 21 255
160.434875 -45.290199 157.538116 0.498672 -0.080315 -0.863062 0.125000 0.597434 216 151 21 255
160.512756 -44.623974 157.521118 0.498672 -0.080315 -0.863062 0.125000 0.597439 216 151 21 255
160.434875 -45.290199 157.538116 0.498665 -0.080331 -0.863065 0.125000 0.597434 216 151 21 255
159.075607 -45.324223 156.755920 0.498665 -0.080331 -0.863065 0.125000 0.597261 216 151 21 255
159.243469 -44.579586 156.783600 0.498665 -0.080331 -0.863065 0.125000 0.597278 216 151 21 255
160.512756 -44.623974 157.521118 0.498673 -0.080315 -0.863062 0.125000 0.597439 216 151 21 255
160.434875 -45.290199 157.538116 0.498673 -0.080315 -0.863062 0.125000 0.597434 216 151 21 255
159.243469 -44.579586 156.783600 0.498673 -0.080315 -0.863062 0.125000 0.597278 216 151 21 255
160.512756 -44.623974 157.521118 0.369639 0.715253 -0.593110 0.125000 0.597439 216 151 21 255
159.243469 -44.579586 156.783600 0.369639 0.715253 -0.593110 0.125000 0.597278 216 151 21 255
158.813202 -43.699242 157.577087 0.369639 0.715253 -0.593110 0.125000 0.597278 216 151 21 255
162.972000 -55.805801 161.676056 0.660005 -0.007942 -0.751219 0.125000 0.597964 147 133 102 255
162.034851 -64.505074 160.944672 0.660005 -0.007942 -0.751219 0.125000 0.597964 147 133 102 255
156.208588 -63.436646 155.814545 0.660005 -0.007942 -0.751219 0.125000 0.596821 147 133 102 255
165.263321 -64.347878 150.740692 -0.514612 0.332246 0.790435 0.125000 0.597964 80 72 55 255
167.196960 -55.600082 148.322601 -0.514612 0.332246 0.790435 0.125000 0.597964 80 72 55 255
164.553284 -55.138985 146.407623 -0.514612 0.332246 0.790435 0.125000 0.597583 80 72 55 255
161.909607 -54.677891 144.492645 -0.490697 0.400469 0.773848 0.125000 0.597202 80 72 55 255
159.265945 -54.216797 142.577682 -0.490697 0.400469 0.773848 0.125000 0.596821 80 72 55 255
158.968689 -63.302254 147.090942 -0.490697 0.400469 0.773848 0.125000 0.596821 80 72 55 255
165.263321 -64.347878 150.740692 -0.422842 0.358923 0.832093 0.125000 0.597964 80 72 55 255
164.553284 -55.138985 146.407623 -0.422842 0.358923 0.832093 0.125000 0.597583 80 72 55 255
158.968689 -63.302254 147.090942 -0.422842 0.358923 0.832093 0.125000 0.596821 80 72 55 255
155.040985 -54.422516 155.931152 0.946154 0.118659 0.301186 0.125000 0.596821 147 133 102 255
156.208588 -63.436646 155.814545 0.946154 0.118659 0.301186 0.125000 0.596821 147 133 102 255
158.968689 -63.302254 147.090942 0.946154 0.118659 0.301186 0.125000 0.596821 147 133 102 255
162.972000 -55.805801 161.676056 -0.946264 0.126947 -0.297437 0.125000 0.597964 147 133 102 255
167.196960 -55.600082 148.322601 -0.946264 0.126947 -0.297437 0.125000 0.597964 147 133 102 255
165.263321 -64.347878 150.740692 -0.946264 0.126947 -0.297437 0.125000 0.597964 147 133 102 255
164.553284 -55.138985 146.407623 0.184389 0.982690 -0.017939 0.125000 0.597583 167 167 167 255
161.909607 -54.677891 144.492645 0.184389 0.982690 -0.017939 0.125000 0.597202 167 167 167 255
160.187897 -54.273697 148.937378 0.184389 0.982690 -0.017939 0.125000 0.597202 167 167 167 255
160.187897 -54.273697 148.937378 0.184388 0.982690 -0.017940 0.125000 0.597202 167 167 167 255
161.450378 -54.493889 149.851868 0.184388 0.982690 -0.017940 0.125000 0.597329 167 167 167 255
164.553284 -55.138985 146.407623 0.184388 0.982690 -0.017940 0.125000 0.597583 167 167 167 255
161.450378 -54.493889 149.851868 0.184394 0.982689 -0.017934 0.125000 0.597329 167 167 167 255
161.569092 -54.514595 149.937866 0.184394 0.982689 -0.017934 0.125000 0.597456 167 167 167 255
164.553284 -55.138985 146.407623 0.184394 0.982689 -0.017934 0.125000 0.597583 167 167 167 255
161.543671 -63.874355 149.928253 0.586573 -0.000761 -0.809896 0.125000 0.597456 80 72 55 255
161.543671 -63.874355 149.928253 0.468129 0.751149 -0.465436 0.125000 0.597456 0 0 0 255
162.156601 -64.543922 149.464142 0.468129 0.751149 -0.465436 0.125000 0.597456 0 0 0 255
162.037872 -64.523216 149.378143 0.468129 0.751149 -0.465436 0.125000 0.597329 0 0 0 255
161.424957 -63.853649 149.842255 -0.428650 0.542555 0.722422 0.125000 0.597329 0 0 0 255
160.858795 -64.965042 150.341003 -0.428650 0.542555 0.722422 0.125000 0.597329 0 0 0 255
160.977524 -64.985748 150.427002 -0.428650 0.542555 0.722422 0.125000 0.597456 0 0 0 255
162.758408 -66.473145 149.270905 0.075977 -0.940453 -0.331325 0.125000 0.597456 167 167 167 255
161.430603 -65.121880 150.937286 0.685763 -0.191928 0.702063 0.125000 0.597456 167 167 167 255
161.576782 -66.931122 150.299896 0.685763 -0.191928 0.702063 0.125000 0.597456 167 167 167 255
162.758408 -66.473145 149.270905 0.685763 -0.191928 0.702063 0.125000 0.597456 167 167 167 255
162.758408 -66.473145 149.270905 0.719495 0.281756 -0.634776 0.125000 0.597456 167 167 167 255
161.801590 -66.209579 148.303375 -0.685764 0.191933 -0.702061 0.125000 0.597329 167 167 167 255
161.430603 -65.121880 150.937286 -0.719500 -0.281754 0.634771 0.125000 0.597456 167 167 167 255
160.473801 -64.858315 149.969757 -0.719500 -0.281754 0.634771 0.125000 0.597329 167 167 167 255
160.619965 -66.667557 149.332367 -0.719500 -0.281754 0.634771 0.125000 0.597329 167 167 167 255
161.543671 -63.874355 149.928253 -0.586573 0.000761 0.809896 0.125000 0.597456 0 0 0 255
3 0 1 2
3 3 4 5
3 6 7 8
3 9 10 11
3 12 13 14
3 15 16 17
3 18 19 20
3 21 22 23
3 24 25 26
3 27 28 29
3 30 31 32
3 33 34 35
3 36 37 38
3 39 40 41
3 42 43 44
3 45 46 47
3 48 49 50
3 51 52 53
3 54 55 56
3 57 58 59
3 60 61 62
3 63 64 65
3 66 67 68
3 69 70 71
3 72 73 74
3 75 76 77
3 78 79 80
3 81 82 83
3 84 85 86
3 87 88 89
3 90 91 92
3 93 94 95
3 96 97 98
3 99 100 101
3 102 103 104
3 105 106 107
3 108 109 110
3 111 112 113
3 114 115 116
3 117 118 119
3 120 121 122
3 123 124 125
3 126 127 128
3 129 130 131
3 132 133 134
3 135 17 136
3 137 138 139
3 140 141 142
3 143 144 145
3 146 147 148
3 24 149 25
3 150 151 152
3 153 154 155
3 156 157 158
3 159 160 161
3 162 163 164
3 165 166 167
3 168 169 170
3 171 172 173
3 174 175 176
3 177 178 179
3 180 181 182
3 183 184 185
3 186 187 188
3 189 190 191
3 192 193 194
3 195 196 197
3 198 199 200
3 201 202 203
3 204 205 206
3 207 208 209
3 210 211 212
3 213 214 215
3 214 216 215
3 217 218 219
3 220 221 222
3 223 224 225
3 226 227 228
3 229 230 231
3 232 233 234
3 235 236 237
3 238 239 240
3 241 242 243
3 244 245 246
3 247 248 249
3 250 251 252
3 253 254 255
3 256 257 258
3 259 260 261
3 81 262 82
3 263 264 265
3 266 267 268
3 90 269 91
3 270 271 272
3 96 273 97
3 99 274 100
3 275 276 277
3 108 278 109
