ply
format ascii 1.0
comment Created by Blender 2.92.0 - www.blender.org
element vertex 347
property float x
property float y
property float z
property float nx
property float ny
property float nz
property float s
property float t
property uchar red
property uchar green
property uchar blue
property uchar alpha
element face 117
property list uchar uint vertex_indices
end_header
118.083580 -23.689129 -134.040375 0.095826 0.070951 0.992866 0.125000 0.625000 147 133 102 255
120.631264 -18.191093 -134.679153 0.095826 0.070951 0.992866 0.314022 0.625000 147 133 102 255
117.648865 -18.036047 -134.402390 0.095826 0.070951 0.992866 0.314022 0.625000 147 133 102 255
117.811745 -17.847445 -130.320160 -0.083007 0.000294 -0.996549 0.316321 0.500000 147 133 102 255
121.361801 -23.959410 -130.617661 -0.083007 0.000294 -0.996549 0.125000 0.562500 147 133 102 255
118.379402 -23.560616 -130.369125 -0.083007 0.000294 -0.996549 0.125000 0.562500 147 133 102 255
118.083580 -23.689129 -134.040375 0.085008 0.996377 -0.002739 0.125000 0.625000 115 196 116 255
121.361801 -23.959410 -130.617661 0.085008 0.996377 -0.002739 0.125000 0.562500 115 196 116 255
121.065979 -23.944340 -134.317139 0.085008 0.996377 -0.002739 0.125000 0.625000 115 196 116 255
121.065979 -23.944340 -134.317139 0.357572 0.085535 0.929960 0.125000 0.625000 147 133 102 255
121.815559 -18.159542 -135.137421 0.357572 0.085535 0.929960 0.314022 0.625000 146 132 102 254
120.631264 -18.191093 -134.679153 0.357572 0.085535 0.929960 0.314022 0.625000 147 133 102 255
121.361801 -23.959410 -130.617661 -0.171506 0.048518 -0.983988 0.125000 0.562500 147 133 102 255
125.660843 -18.291094 -131.087479 -0.171506 0.048518 -0.983988 0.316321 0.500000 147 133 102 255
125.859787 -23.516178 -131.379791 -0.171506 0.048518 -0.983988 0.125000 0.562500 147 133 102 255
121.361801 -23.959410 -130.617661 -0.101313 0.994664 -0.019469 0.125000 0.562500 115 196 116 255
125.859787 -23.516178 -131.379791 -0.101313 0.994664 -0.019469 0.125000 0.562500 115 196 116 255
125.143578 -23.602793 -132.077896 -0.101313 0.994664 -0.019469 0.125000 0.575177 115 196 116 255
117.811745 -17.847445 -130.320160 0.263924 0.180555 -0.947494 0.316321 0.500000 147 133 102 255
123.939789 -12.474588 -127.589340 0.263924 0.180555 -0.947494 0.316321 0.500000 147 133 102 255
121.968590 -17.226423 -129.043930 0.263924 0.180555 -0.947494 0.316321 0.500000 147 133 102 255
126.111122 -16.993519 -133.950317 -0.872362 -0.149777 -0.465350 0.316321 0.500000 147 133 102 255
128.034576 -23.599939 -135.429764 -0.872362 -0.149777 -0.465350 0.125000 0.562500 147 133 102 255
126.320412 -23.533918 -132.237579 -0.872362 -0.149777 -0.465350 0.125000 0.562500 147 133 102 255
125.706245 -23.587412 -132.466461 -0.065905 0.996253 -0.055995 0.125000 0.571064 115 196 116 255
126.320412 -23.533918 -132.237579 -0.065905 0.996253 -0.055995 0.125000 0.562500 115 196 116 255
128.034576 -23.599939 -135.429764 -0.065905 0.996253 -0.055995 0.125000 0.562500 115 196 116 255
117.648865 -18.036047 -134.402390 0.728292 0.682582 -0.060595 0.000000 0.000000 255 255 255 255
114.126686 -13.940640 -130.602127 0.728292 0.682582 -0.060595 0.000000 0.000000 255 255 255 255
117.811745 -17.847445 -130.320160 0.728292 0.682582 -0.060595 0.000000 0.000000 255 255 255 255
128.034576 -23.599939 -135.429764 -0.828386 -0.179205 0.530718 0.125000 0.562500 147 133 102 255
126.364594 -17.144522 -135.856628 -0.828386 -0.179205 0.530718 0.316321 0.500000 147 133 102 255
126.727982 -22.913227 -137.237320 -0.828386 -0.179205 0.530718 0.125000 0.562500 147 133 102 255
122.328804 -23.943193 -136.399597 -0.127030 0.893274 0.431189 0.125000 0.625000 114 196 116 254
128.034576 -23.599939 -135.429764 -0.127030 0.893274 0.431189 0.125000 0.562500 115 196 116 255
126.727982 -22.913227 -137.237320 -0.127030 0.893274 0.431189 0.125000 0.562500 115 196 116 255
121.815559 -18.159542 -135.137421 0.996637 0.081382 0.009522 0.314022 0.625000 146 132 102 254
122.208008 -22.437897 -139.647705 0.996637 0.081382 0.009522 0.125000 0.625000 147 133 102 255
121.789246 -17.538710 -137.689255 0.996637 0.081382 0.009522 0.314022 0.625000 147 133 102 255
126.364594 -17.144522 -135.856628 -0.901051 -0.153818 0.405520 0.316321 0.500000 147 133 102 255
125.847366 -22.002266 -138.848480 -0.901051 -0.153818 0.405520 0.125000 0.562500 147 133 102 255
126.727982 -22.913227 -137.237320 -0.901051 -0.153818 0.405520 0.125000 0.562500 147 133 102 255
122.328804 -23.943193 -136.399597 -0.197957 0.886518 0.418208 0.125000 0.625000 114 196 116 254
125.847366 -22.002266 -138.848480 -0.197957 0.886518 0.418208 0.125000 0.562500 115 196 116 255
122.208008 -22.437897 -139.647705 -0.197957 0.886518 0.418208 0.125000 0.625000 115 196 116 255
121.789246 -17.538710 -137.689255 0.931549 0.168102 -0.322427 0.314022 0.625000 147 133 102 255
121.507751 -21.570627 -140.604645 0.931549 0.168102 -0.322427 0.125000 0.625000 147 133 102 255
120.841621 -17.149685 -140.224289 0.931549 0.168102 -0.322427 0.314022 0.625000 147 133 102 255
125.847366 -22.002266 -138.848480 -0.841615 -0.101990 0.530361 0.125000 0.562500 147 133 102 255
124.257187 -14.719714 -139.971436 -0.841615 -0.101990 0.530361 0.316321 0.500000 147 133 102 255
124.726440 -21.614395 -140.552658 -0.841615 -0.101990 0.530361 0.125000 0.562500 147 133 102 255
122.208008 -22.437897 -139.647705 -0.000780 0.740686 0.671851 0.125000 0.625000 115 196 116 255
124.726440 -21.614395 -140.552658 -0.000780 0.740686 0.671851 0.125000 0.562500 115 196 116 255
121.507751 -21.570627 -140.604645 -0.000780 0.740686 0.671851 0.125000 0.625000 115 196 116 255
120.841621 -17.149685 -140.224289 0.915208 -0.076303 0.395691 0.314022 0.625000 147 133 102 255
121.730156 -20.861010 -142.995087 0.915208 -0.076303 0.395691 0.125000 0.625000 147 133 102 255
122.150322 -14.341065 -142.709625 0.915208 -0.076303 0.395691 0.314022 0.625000 147 133 102 255
124.726440 -21.614395 -140.552658 -0.991236 -0.040272 -0.125817 0.125000 0.562500 147 133 102 255
124.476799 -14.926321 -140.726639 -0.991236 -0.040272 -0.125817 0.316321 0.500000 147 133 102 255
124.851723 -21.303080 -141.639328 -0.991236 -0.040272 -0.125817 0.125000 0.562500 147 133 102 255
121.507751 -21.570627 -140.604645 0.011686 0.958289 0.285561 0.125000 0.625000 115 196 116 255
124.851723 -21.303080 -141.639328 0.011686 0.958289 0.285561 0.125000 0.562500 115 196 116 255
121.730156 -20.861010 -142.995087 0.011686 0.958289 0.285561 0.125000 0.625000 115 196 116 255
122.150322 -14.341065 -142.709625 0.991228 0.060830 0.117331 0.314022 0.625000 147 133 102 255
122.766960 -20.483610 -144.734512 0.991228 0.060830 0.117331 0.125000 0.625000 147 133 102 255
122.349823 -14.117961 -144.510712 0.991228 0.060830 0.117331 0.314022 0.625000 147 133 102 255
124.851723 -21.303080 -141.639328 -0.789185 0.064896 -0.610717 0.125000 0.562500 147 133 102 255
125.155357 -14.964602 -141.358154 -0.789185 0.064896 -0.610717 0.316321 0.500000 146 132 102 254
125.262054 -21.122448 -142.150375 -0.789185 0.064896 -0.610717 0.125000 0.562500 146 132 102 254
121.730156 -20.861010 -142.995087 0.018879 0.974697 0.222731 0.125000 0.625000 115 196 116 255
125.262054 -21.122448 -142.150375 0.018879 0.974697 0.222731 0.125000 0.562500 114 196 116 254
122.766960 -20.483610 -144.734512 0.018879 0.974697 0.222731 0.125000 0.625000 115 196 116 255
122.766960 -20.483610 -144.734512 0.905268 0.044467 0.422507 0.125000 0.625000 147 133 102 255
123.589981 -13.993405 -147.181000 0.905268 0.044467 0.422507 0.314022 0.625000 147 133 102 255
122.349823 -14.117961 -144.510712 0.905268 0.044467 0.422507 0.314022 0.625000 147 133 102 255
122.766960 -20.483610 -144.734512 0.199880 0.978598 0.048931 0.125000 0.625000 115 196 116 255
125.262054 -21.122448 -142.150375 0.199880 0.978598 0.048931 0.125000 0.562500 114 196 116 254
124.054298 -20.697216 -145.721191 0.199880 0.978598 0.048931 0.125000 0.625000 115 196 116 255
124.054298 -20.697216 -145.721191 0.274592 0.222712 0.935413 0.125000 0.625000 147 133 102 255
124.906219 -14.095119 -147.543167 0.274592 0.222712 0.935413 0.314022 0.625000 147 133 102 255
123.589981 -13.993405 -147.181000 0.274592 0.222712 0.935413 0.314022 0.625000 147 133 102 255
124.054298 -20.697216 -145.721191 0.068278 0.993116 0.095172 0.125000 0.625000 115 196 116 255
125.262054 -21.122448 -142.150375 0.068278 0.993116 0.095172 0.125000 0.562500 114 196 116 254
125.303528 -20.771095 -145.846481 0.068278 0.993116 0.095172 0.125000 0.625000 115 196 116 255
125.303528 -20.771095 -145.846481 -0.365491 0.208785 0.907097 0.125000 0.625000 147 133 102 255
126.532135 -14.095119 -146.888046 -0.365491 0.208785 0.907097 0.314022 0.625000 147 133 102 255
124.906219 -14.095119 -147.543167 -0.365491 0.208785 0.907097 0.314022 0.625000 147 133 102 255
125.303528 -20.771095 -145.846481 -0.209839 0.973567 0.090193 0.125000 0.625000 115 196 116 255
125.262054 -21.122448 -142.150375 -0.209839 0.973567 0.090193 0.125000 0.562500 114 196 116 254
126.752731 -20.500765 -145.392853 -0.209839 0.973567 0.090193 0.125000 0.625000 115 196 116 255
126.752731 -20.500765 -145.392853 -0.436354 0.190248 0.879432 0.125000 0.625000 147 133 102 255
128.917252 -14.095119 -145.704605 -0.436354 0.190248 0.879432 0.314022 0.625000 147 133 102 255
126.532135 -14.095119 -146.888046 -0.436354 0.190248 0.879432 0.314022 0.625000 147 133 102 255
125.262054 -21.122448 -142.150375 -0.168945 0.122886 -0.977935 0.125000 0.562500 146 132 102 254
125.155357 -14.964602 -141.358154 -0.168945 0.122886 -0.977935 0.316321 0.500000 146 132 102 254
125.761925 -20.813232 -142.197876 -0.168945 0.122886 -0.977935 0.125000 0.562500 146 132 102 254
126.752731 -20.500765 -145.392853 0.159818 0.976431 0.145056 0.125000 0.625000 115 196 116 255
125.761925 -20.813232 -142.197876 0.159818 0.976431 0.145056 0.125000 0.562500 114 196 116 254
128.405624 -20.939444 -144.261032 0.159818 0.976431 0.145056 0.125000 0.625000 115 196 116 255
128.405624 -20.939444 -144.261032 -0.908181 0.150286 0.390669 0.125000 0.625000 147 133 102 255
129.943832 -14.095119 -143.318130 -0.908181 0.150286 0.390669 0.314022 0.625000 147 133 102 255
128.917252 -14.095119 -145.704605 -0.908181 0.150286 0.390669 0.314022 0.625000 147 133 102 255
128.405624 -20.939444 -144.261032 0.193102 0.962895 0.188534 0.125000 0.625000 115 196 116 255
125.761925 -20.813232 -142.197876 0.193102 0.962895 0.188534 0.125000 0.562500 114 196 116 254
128.817596 -21.282526 -142.930771 0.193102 0.962895 0.188534 0.125000 0.625000 115 196 116 255
117.648865 -18.036047 -134.402390 0.116241 0.706950 0.697645 0.314022 0.625000 147 133 102 255
118.758171 -14.631643 -138.037033 0.116241 0.706950 0.697645 0.314022 0.625000 147 133 102 255
113.742180 -14.385875 -137.450317 0.116241 0.706950 0.697645 0.314022 0.625000 147 133 102 255
120.631264 -18.191093 -134.679153 0.230000 0.729116 0.644585 0.314022 0.625000 147 133 102 255
121.815559 -18.159542 -135.137421 0.230000 0.729116 0.644585 0.314022 0.625000 146 132 102 254
118.758171 -14.631643 -138.037033 0.230000 0.729116 0.644585 0.314022 0.625000 147 133 102 255
121.815559 -18.159542 -135.137421 0.672158 0.720985 0.168477 0.314022 0.625000 146 132 102 254
121.789246 -17.538710 -137.689255 0.672158 0.720985 0.168477 0.314022 0.625000 147 133 102 255
118.758171 -14.631643 -138.037033 0.672158 0.720985 0.168477 0.314022 0.625000 147 133 102 255
126.111122 -16.993519 -133.950317 -0.762294 0.638268 0.107341 0.316321 0.500000 147 133 102 255
129.380173 -13.796409 -129.745346 -0.762294 0.638268 0.107341 0.316321 0.500000 147 133 102 255
128.561890 -13.864420 -135.152084 -0.762294 0.638268 0.107341 0.316321 0.500000 147 133 102 255
123.939789 -12.474588 -127.589340 -0.350964 0.404156 -0.844679 0.316321 0.500000 147 133 102 255
125.660843 -18.291094 -131.087479 -0.350964 0.404156 -0.844679 0.316321 0.500000 147 133 102 255
121.968590 -17.226423 -129.043930 -0.350964 0.404156 -0.844679 0.316321 0.500000 147 133 102 255
126.111122 -16.993519 -133.950317 -0.805646 0.572440 -0.152466 0.316321 0.500000 147 133 102 255
128.561890 -13.864420 -135.152084 -0.805646 0.572440 -0.152466 0.316321 0.500000 147 133 102 255
126.364594 -17.144522 -135.856628 -0.805646 0.572440 -0.152466 0.316321 0.500000 147 133 102 255
125.559151 -14.395142 -137.448654 -0.615612 0.252011 0.746668 0.316321 0.500000 147 133 102 255
126.364594 -17.144522 -135.856628 -0.615612 0.252011 0.746668 0.316321 0.500000 147 133 102 255
128.561890 -13.864420 -135.152084 -0.615612 0.252011 0.746668 0.316321 0.500000 147 133 102 255
121.789246 -17.538710 -137.689255 0.693223 0.704731 -0.150987 0.314022 0.625000 147 133 102 255
120.841621 -17.149685 -140.224289 0.693223 0.704731 -0.150987 0.314022 0.625000 147 133 102 255
118.758171 -14.631643 -138.037033 0.693223 0.704731 -0.150987 0.314022 0.625000 147 133 102 255
120.841621 -17.149685 -140.224289 0.795837 0.148601 0.586993 0.314022 0.625000 147 133 102 255
122.150322 -14.341065 -142.709625 0.795837 0.148601 0.586993 0.314022 0.625000 147 133 102 255
118.758171 -14.631643 -138.037033 0.795837 0.148601 0.586993 0.314022 0.625000 147 133 102 255
125.706245 -23.587412 -132.466461 -0.065906 0.996253 -0.055995 0.125000 0.571064 115 196 116 255
125.859787 -23.516178 -131.379791 -0.065906 0.996253 -0.055995 0.125000 0.562500 115 196 116 255
126.320412 -23.533918 -132.237579 -0.065906 0.996253 -0.055995 0.125000 0.562500 115 196 116 255
124.080513 -18.666132 -144.266815 -0.141919 0.000017 0.989878 0.125000 0.572347 216 151 20 255
124.715805 -18.548079 -144.175735 -0.141919 0.000017 0.989878 0.125000 0.571064 216 151 20 255
122.670113 -18.628984 -144.469025 -0.141919 0.000017 0.989878 0.125000 0.575177 216 151 20 255
124.394623 -22.204456 -131.560654 -0.568267 0.000042 -0.822844 0.125000 0.575177 216 151 20 255
125.491302 -21.699266 -132.318008 -0.568267 0.000042 -0.822844 0.125000 0.572347 216 151 20 255
124.735184 -22.269030 -131.795853 -0.568267 0.000042 -0.822844 0.125000 0.574479 216 151 20 255
125.573547 -21.897305 -132.374802 -0.568272 0.000035 -0.822841 0.125000 0.572327 35 53 102 255
125.965508 -21.776323 -132.645493 -0.568272 0.000035 -0.822841 0.125000 0.571364 35 53 102 255
125.640747 -22.076939 -132.421219 -0.568272 0.000035 -0.822841 0.125000 0.572325 35 53 102 255
125.782402 -22.338890 -132.519043 -0.568247 -0.000012 -0.822858 0.125000 0.572226 216 151 20 255
126.259644 -22.204134 -132.848618 -0.568247 -0.000012 -0.822858 0.125000 0.571064 216 151 20 255
124.710999 -23.061621 -131.779144 -0.568247 -0.000012 -0.822858 0.125000 0.575177 216 151 20 255
125.143578 -22.481350 -132.077896 -0.568246 0.000000 -0.822858 0.125000 0.575177 216 151 20 255
125.706245 -23.587412 -132.466461 -0.568246 0.000000 -0.822858 0.125000 0.571064 216 151 20 255
125.143578 -23.602793 -132.077896 -0.568246 0.000000 -0.822858 0.125000 0.575177 216 151 20 255
124.105339 -19.084452 -144.263260 -0.141939 -0.000031 0.989875 0.125000 0.572325 35 53 102 255
124.579597 -18.955685 -144.195251 -0.141939 -0.000031 0.989875 0.125000 0.571364 35 53 102 255
124.097847 -18.887270 -144.264328 -0.141939 -0.000031 0.989875 0.125000 0.572327 35 53 102 255
124.746719 -19.487000 -144.171295 -0.141943 -0.000015 0.989875 0.125000 0.571064 216 151 20 255
124.579597 -18.955685 -144.195251 -0.141943 -0.000015 0.989875 0.125000 0.571364 216 151 20 255
124.164856 -19.392086 -144.254730 -0.141943 -0.000015 0.989875 0.125000 0.572226 216 151 20 255
124.200325 -20.603100 -144.249649 -0.141921 0.000000 0.989878 0.125000 0.571064 216 151 20 255
123.523445 -19.497038 -144.346695 -0.141921 0.000000 0.989878 0.125000 0.575177 216 151 20 255
123.523445 -20.618481 -144.346695 -0.141921 0.000000 0.989878 0.125000 0.575177 216 151 20 255
118.083580 -23.689129 -134.040375 0.098103 0.069878 0.992720 0.125000 0.625000 147 133 102 255
121.065979 -23.944340 -134.317139 0.098103 0.069878 0.992720 0.125000 0.625000 147 133 102 255
120.631264 -18.191093 -134.679153 0.098103 0.069878 0.992720 0.314022 0.625000 147 133 102 255
117.811745 -17.847445 -130.320160 0.260653 0.197397 -0.945037 0.316321 0.500000 147 133 102 255
121.968590 -17.226423 -129.043930 0.260653 0.197397 -0.945037 0.316321 0.500000 147 133 102 255
121.361801 -23.959410 -130.617661 0.260653 0.197397 -0.945037 0.125000 0.562500 147 133 102 255
118.083580 -23.689129 -134.040375 0.128713 0.990658 -0.045050 0.125000 0.625000 115 196 116 255
118.379402 -23.560616 -130.369125 0.128713 0.990658 -0.045050 0.125000 0.562500 115 196 116 255
121.361801 -23.959410 -130.617661 0.128713 0.990658 -0.045050 0.125000 0.562500 115 196 116 255
121.065979 -23.944340 -134.317139 0.854481 -0.037249 0.518146 0.125000 0.625000 147 133 102 255
122.328804 -23.943193 -136.399597 0.854481 -0.037249 0.518146 0.125000 0.625000 146 132 102 254
121.815559 -18.159542 -135.137421 0.854481 -0.037249 0.518146 0.314022 0.625000 146 132 102 254
121.361801 -23.959410 -130.617661 -0.415377 0.242365 -0.876767 0.125000 0.562500 147 133 102 255
121.968590 -17.226423 -129.043930 -0.415377 0.242365 -0.876767 0.316321 0.500000 147 133 102 255
125.660843 -18.291094 -131.087479 -0.415377 0.242365 -0.876767 0.316321 0.500000 147 133 102 255
122.328804 -23.943193 -136.399597 -0.062894 0.997312 -0.037590 0.125000 0.625000 114 196 116 254
121.065979 -23.944340 -134.317139 -0.062894 0.997312 -0.037590 0.125000 0.625000 115 196 116 255
125.143578 -23.602793 -132.077896 -0.062894 0.997312 -0.037590 0.125000 0.575177 115 196 116 255
121.065979 -23.944340 -134.317139 -0.089581 0.995916 0.011220 0.125000 0.625000 115 196 116 255
121.361801 -23.959410 -130.617661 -0.089581 0.995916 0.011220 0.125000 0.562500 115 196 116 255
125.143578 -23.602793 -132.077896 -0.089581 0.995916 0.011220 0.125000 0.575177 115 196 116 255
117.811745 -17.847445 -130.320160 0.263922 0.180558 -0.947494 0.316321 0.500000 147 133 102 255
114.126686 -13.940640 -130.602127 0.263922 0.180558 -0.947494 0.316321 0.500000 147 133 102 255
123.939789 -12.474588 -127.589340 0.263922 0.180558 -0.947494 0.316321 0.500000 147 133 102 255
126.320412 -23.533918 -132.237579 -0.881050 -0.007086 -0.472970 0.125000 0.562500 147 133 102 255
125.859787 -23.516178 -131.379791 -0.881050 -0.007086 -0.472970 0.125000 0.562500 147 133 102 255
125.660843 -18.291094 -131.087479 -0.881050 -0.007086 -0.472970 0.316321 0.500000 147 133 102 255
125.660843 -18.291094 -131.087479 -0.978283 -0.081241 -0.190691 0.316321 0.500000 147 133 102 255
126.111122 -16.993519 -133.950317 -0.978283 -0.081241 -0.190691 0.316321 0.500000 147 133 102 255
126.320412 -23.533918 -132.237579 -0.978283 -0.081241 -0.190691 0.125000 0.562500 147 133 102 255
128.034576 -23.599939 -135.429764 -0.052312 0.997602 -0.045320 0.125000 0.562500 115 196 116 255
122.328804 -23.943193 -136.399597 -0.052312 0.997602 -0.045320 0.125000 0.625000 114 196 116 254
125.706245 -23.587412 -132.466461 -0.052312 0.997602 -0.045320 0.125000 0.571064 115 196 116 255
122.328804 -23.943193 -136.399597 -0.056235 0.997536 -0.041945 0.125000 0.625000 114 196 116 254
125.143578 -23.602793 -132.077896 -0.056235 0.997536 -0.041945 0.125000 0.575177 115 196 116 255
125.706245 -23.587412 -132.466461 -0.056235 0.997536 -0.041945 0.125000 0.571064 115 196 116 255
117.648865 -18.036047 -134.402390 0.714930 0.693978 -0.085260 0.000000 0.000000 255 255 255 255
113.742180 -14.385875 -137.450317 0.714930 0.693978 -0.085260 0.000000 0.000000 255 255 255 255
114.126686 -13.940640 -130.602127 0.714930 0.693978 -0.085260 0.000000 0.000000 255 255 255 255
128.034576 -23.599939 -135.429764 -0.960773 -0.255655 -0.107498 0.125000 0.562500 147 133 102 255
126.111122 -16.993519 -133.950317 -0.960773 -0.255655 -0.107498 0.316321 0.500000 147 133 102 255
126.364594 -17.144522 -135.856628 -0.960773 -0.255655 -0.107498 0.316321 0.500000 147 133 102 255
121.815559 -18.159542 -135.137421 0.996147 0.087622 0.003561 0.314022 0.625000 146 132 102 254
122.328804 -23.943193 -136.399597 0.996147 0.087622 0.003561 0.125000 0.625000 146 132 102 254
122.208008 -22.437897 -139.647705 0.996147 0.087622 0.003561 0.125000 0.625000 147 133 102 255
126.364594 -17.144522 -135.856628 -0.944231 -0.093854 0.315625 0.316321 0.500000 147 133 102 255
125.559151 -14.395142 -137.448654 -0.944231 -0.093854 0.315625 0.316321 0.500000 147 133 102 255
125.847366 -22.002266 -138.848480 -0.944231 -0.093854 0.315625 0.125000 0.562500 147 133 102 255
122.328804 -23.943193 -136.399597 -0.096543 0.842895 0.529346 0.125000 0.625000 114 196 116 254
126.727982 -22.913227 -137.237320 -0.096543 0.842895 0.529346 0.125000 0.562500 115 196 116 255
125.847366 -22.002266 -138.848480 -0.096543 0.842895 0.529346 0.125000 0.562500 115 196 116 255
121.789246 -17.538710 -137.689255 0.874481 0.242645 -0.420008 0.314022 0.625000 147 133 102 255
122.208008 -22.437897 -139.647705 0.874481 0.242645 -0.420008 0.125000 0.625000 147 133 102 255
121.507751 -21.570627 -140.604645 0.874481 0.242645 -0.420008 0.125000 0.625000 147 133 102 255
125.847366 -22.002266 -138.848480 -0.875969 -0.119199 0.467408 0.125000 0.562500 147 133 102 255
125.559151 -14.395142 -137.448654 -0.875969 -0.119199 0.467408 0.316321 0.500000 147 133 102 255
124.257187 -14.719714 -139.971436 -0.875969 -0.119199 0.467408 0.316321 0.500000 147 133 102 255
122.208008 -22.437897 -139.647705 -0.183550 0.925475 0.331368 0.125000 0.625000 115 196 116 255
125.847366 -22.002266 -138.848480 -0.183550 0.925475 0.331368 0.125000 0.562500 115 196 116 255
124.726440 -21.614395 -140.552658 -0.183550 0.925475 0.331368 0.125000 0.562500 115 196 116 255
120.841621 -17.149685 -140.224289 0.981809 0.136588 0.131893 0.314022 0.625000 147 133 102 255
121.507751 -21.570627 -140.604645 0.981809 0.136588 0.131893 0.125000 0.625000 147 133 102 255
121.730156 -20.861010 -142.995087 0.981809 0.136588 0.131893 0.125000 0.625000 147 133 102 255
124.726440 -21.614395 -140.552658 -0.962426 -0.042899 -0.268136 0.125000 0.562500 147 133 102 255
124.257187 -14.719714 -139.971436 -0.962426 -0.042899 -0.268136 0.316321 0.500000 147 133 102 255
124.476799 -14.926321 -140.726639 -0.962426 -0.042899 -0.268136 0.316321 0.500000 147 133 102 255
121.507751 -21.570627 -140.604645 0.008605 0.961029 0.276313 0.125000 0.625000 115 196 116 255
124.726440 -21.614395 -140.552658 0.008605 0.961029 0.276313 0.125000 0.562500 115 196 116 255
124.851723 -21.303080 -141.639328 0.008605 0.961029 0.276313 0.125000 0.562500 115 196 116 255
122.150322 -14.341065 -142.709625 0.863703 -0.077464 0.498013 0.314022 0.625000 147 133 102 255
121.730156 -20.861010 -142.995087 0.863703 -0.077464 0.498013 0.125000 0.625000 147 133 102 255
122.766960 -20.483610 -144.734512 0.863703 -0.077464 0.498013 0.125000 0.625000 147 133 102 255
124.851723 -21.303080 -141.639328 -0.677871 0.064957 -0.732305 0.125000 0.562500 147 133 102 255
124.476799 -14.926321 -140.726639 -0.677871 0.064957 -0.732305 0.316321 0.500000 147 133 102 255
125.155357 -14.964602 -141.358154 -0.677871 0.064957 -0.732305 0.316321 0.500000 146 132 102 254
121.730156 -20.861010 -142.995087 -0.008333 0.944889 0.327284 0.125000 0.625000 115 196 116 255
124.851723 -21.303080 -141.639328 -0.008333 0.944889 0.327284 0.125000 0.562500 115 196 116 255
125.262054 -21.122448 -142.150375 -0.008333 0.944889 0.327284 0.125000 0.562500 114 196 116 254
122.766960 -20.483610 -144.734512 0.616524 0.208056 0.759349 0.125000 0.625000 147 133 102 255
124.054298 -20.697216 -145.721191 0.616524 0.208056 0.759349 0.125000 0.625000 147 133 102 255
123.589981 -13.993405 -147.181000 0.616524 0.208056 0.759349 0.314022 0.625000 147 133 102 255
124.054298 -20.697216 -145.721191 0.111284 0.251003 0.961568 0.125000 0.625000 147 133 102 255
125.303528 -20.771095 -145.846481 0.111284 0.251003 0.961568 0.125000 0.625000 147 133 102 255
124.906219 -14.095119 -147.543167 0.111284 0.251003 0.961568 0.314022 0.625000 147 133 102 255
125.303528 -20.771095 -145.846481 -0.326914 0.204127 0.922745 0.125000 0.625000 147 133 102 255
126.752731 -20.500765 -145.392853 -0.326914 0.204127 0.922745 0.125000 0.625000 147 133 102 255
126.532135 -14.095119 -146.888046 -0.326914 0.204127 0.922745 0.314022 0.625000 147 133 102 255
126.752731 -20.500765 -145.392853 -0.512687 0.213712 0.831552 0.125000 0.625000 147 133 102 255
128.405624 -20.939444 -144.261032 -0.512687 0.213712 0.831552 0.125000 0.625000 147 133 102 255
128.917252 -14.095119 -145.704605 -0.512687 0.213712 0.831552 0.314022 0.625000 147 133 102 255
126.752731 -20.500765 -145.392853 -0.529921 0.844094 -0.081784 0.125000 0.625000 115 196 116 255
125.262054 -21.122448 -142.150375 -0.529921 0.844094 -0.081784 0.125000 0.562500 114 196 116 254
125.761925 -20.813232 -142.197876 -0.529921 0.844094 -0.081784 0.125000 0.562500 114 196 116 254
128.405624 -20.939444 -144.261032 -0.929692 0.163468 0.330078 0.125000 0.625000 147 133 102 255
128.817596 -21.282526 -142.930771 -0.929692 0.163468 0.330078 0.125000 0.625000 147 133 102 255
129.943832 -14.095119 -143.318130 -0.929692 0.163468 0.330078 0.314022 0.625000 147 133 102 255
117.648865 -18.036047 -134.402390 0.101559 0.710419 0.696413 0.314022 0.625000 147 133 102 255
120.631264 -18.191093 -134.679153 0.101559 0.710419 0.696413 0.314022 0.625000 147 133 102 255
118.758171 -14.631643 -138.037033 0.101559 0.710419 0.696413 0.314022 0.625000 147 133 102 255
126.111122 -16.993519 -133.950317 -0.783253 0.603276 0.150240 0.316321 0.500000 147 133 102 255
125.660843 -18.291094 -131.087479 -0.783253 0.603276 0.150240 0.316321 0.500000 147 133 102 255
129.380173 -13.796409 -129.745346 -0.783253 0.603276 0.150240 0.316321 0.500000 147 133 102 255
123.939789 -12.474588 -127.589340 -0.232443 0.449841 -0.862330 0.316321 0.500000 147 133 102 255
129.380173 -13.796409 -129.745346 -0.232443 0.449841 -0.862330 0.316321 0.500000 147 133 102 255
125.660843 -18.291094 -131.087479 -0.232443 0.449841 -0.862330 0.316321 0.500000 147 133 102 255
125.706245 -23.587412 -132.466461 -0.065902 0.996254 -0.055995 0.125000 0.571064 115 196 116 255
125.143578 -23.602793 -132.077896 -0.065902 0.996254 -0.055995 0.125000 0.575177 115 196 116 255
125.859787 -23.516178 -131.379791 -0.065902 0.996254 -0.055995 0.125000 0.562500 115 196 116 255
122.670113 -18.628984 -144.469025 -0.141955 0.000004 0.989873 0.125000 0.575177 216 151 20 255
122.701050 -19.567913 -144.464584 -0.141955 0.000004 0.989873 0.125000 0.575177 216 151 20 255
122.992493 -19.236570 -144.422791 -0.141955 0.000004 0.989873 0.125000 0.574570 216 151 20 255
123.025093 -18.845484 -144.418137 -0.141926 0.000008 0.989877 0.125000 0.574479 216 151 20 255
124.097847 -18.887270 -144.264328 -0.141926 0.000008 0.989877 0.125000 0.572327 216 151 20 255
124.080513 -18.666132 -144.266815 -0.141926 0.000008 0.989877 0.125000 0.572347 216 151 20 255
122.670113 -18.628984 -144.469025 -0.141876 0.000047 0.989884 0.125000 0.575177 216 151 20 255
122.992493 -19.236570 -144.422791 -0.141876 0.000047 0.989884 0.125000 0.574570 216 151 20 255
123.025093 -18.845484 -144.418137 -0.141876 0.000047 0.989884 0.125000 0.574479 216 151 20 255
124.080513 -18.666132 -144.266815 -0.141921 0.000030 0.989878 0.125000 0.572347 216 151 20 255
124.579597 -18.955685 -144.195251 -0.141921 0.000030 0.989878 0.125000 0.571364 216 151 20 255
124.715805 -18.548079 -144.175735 -0.141921 0.000030 0.989878 0.125000 0.571064 216 151 20 255
122.670113 -18.628984 -144.469025 -0.141920 -0.000027 0.989878 0.125000 0.575177 216 151 20 255
123.025093 -18.845484 -144.418137 -0.141920 -0.000027 0.989878 0.125000 0.574479 216 151 20 255
124.080513 -18.666132 -144.266815 -0.141920 -0.000027 0.989878 0.125000 0.572347 216 151 20 255
124.831985 -22.643457 -131.862686 -0.568237 0.000014 -0.822865 0.125000 0.574570 216 151 20 255
124.710999 -23.061621 -131.779144 -0.568237 0.000014 -0.822865 0.125000 0.575177 216 151 20 255
124.394623 -22.204456 -131.560654 -0.568237 0.000014 -0.822865 0.125000 0.575177 216 151 20 255
125.943268 -21.346972 -132.630127 -0.568256 0.000013 -0.822852 0.125000 0.571064 216 151 20 255
125.965508 -21.776323 -132.645493 -0.568256 0.000013 -0.822852 0.125000 0.571364 216 151 20 255
125.491302 -21.699266 -132.318008 -0.568256 0.000013 -0.822852 0.125000 0.572347 216 151 20 255
125.491302 -21.699266 -132.318008 -0.568240 -0.000009 -0.822863 0.125000 0.572347 216 151 20 255
125.573547 -21.897305 -132.374802 -0.568240 -0.000009 -0.822863 0.125000 0.572327 216 151 20 255
124.735184 -22.269030 -131.795853 -0.568240 -0.000009 -0.822863 0.125000 0.574479 216 151 20 255
124.735184 -22.269030 -131.795853 -0.568278 -0.000046 -0.822837 0.125000 0.574479 216 151 20 255
124.831985 -22.643457 -131.862686 -0.568278 -0.000046 -0.822837 0.125000 0.574570 216 151 20 255
124.394623 -22.204456 -131.560654 -0.568278 -0.000046 -0.822837 0.125000 0.575177 216 151 20 255
124.394623 -22.204456 -131.560654 -0.568260 0.000021 -0.822849 0.125000 0.575177 216 151 20 255
125.943268 -21.346972 -132.630127 -0.568260 0.000021 -0.822849 0.125000 0.571064 216 151 20 255
125.491302 -21.699266 -132.318008 -0.568260 0.000021 -0.822849 0.125000 0.572347 216 151 20 255
125.640747 -22.076939 -132.421219 -0.568245 -0.000034 -0.822859 0.125000 0.572325 35 53 102 255
124.831985 -22.643457 -131.862686 -0.568245 -0.000034 -0.822859 0.125000 0.574570 35 53 102 255
124.735184 -22.269030 -131.795853 -0.568245 -0.000034 -0.822859 0.125000 0.574479 35 53 102 255
125.573547 -21.897305 -132.374802 -0.568260 -0.000021 -0.822849 0.125000 0.572327 35 53 102 255
125.491302 -21.699266 -132.318008 -0.568260 -0.000021 -0.822849 0.125000 0.572347 35 53 102 255
125.965508 -21.776323 -132.645493 -0.568260 -0.000021 -0.822849 0.125000 0.571364 35 53 102 255
125.640747 -22.076939 -132.421219 -0.568256 0.000044 -0.822852 0.125000 0.572325 35 53 102 255
124.735184 -22.269030 -131.795853 -0.568256 0.000044 -0.822852 0.125000 0.574479 35 53 102 255
125.573547 -21.897305 -132.374802 -0.568256 0.000044 -0.822852 0.125000 0.572327 35 53 102 255
125.965508 -21.776323 -132.645493 -0.568249 -0.000001 -0.822856 0.125000 0.571364 35 53 102 255
125.782402 -22.338890 -132.519043 -0.568249 -0.000001 -0.822856 0.125000 0.572226 35 53 102 255
125.640747 -22.076939 -132.421219 -0.568249 -0.000001 -0.822856 0.125000 0.572325 35 53 102 255
124.831985 -22.643457 -131.862686 -0.568258 -0.000007 -0.822851 0.125000 0.574570 216 151 20 255
125.640747 -22.076939 -132.421219 -0.568258 -0.000007 -0.822851 0.125000 0.572325 216 151 20 255
125.782402 -22.338890 -132.519043 -0.568258 -0.000007 -0.822851 0.125000 0.572226 216 151 20 255
125.965508 -21.776323 -132.645493 -0.568235 0.000015 -0.822867 0.125000 0.571364 216 151 20 255
125.943268 -21.346972 -132.630127 -0.568235 0.000015 -0.822867 0.125000 0.571064 216 151 20 255
126.259644 -22.204134 -132.848618 -0.568235 0.000015 -0.822867 0.125000 0.571064 216 151 20 255
124.710999 -23.061621 -131.779144 -0.568265 0.000025 -0.822846 0.125000 0.575177 216 151 20 255
124.831985 -22.643457 -131.862686 -0.568265 0.000025 -0.822846 0.125000 0.574570 216 151 20 255
125.782402 -22.338890 -132.519043 -0.568265 0.000025 -0.822846 0.125000 0.572226 216 151 20 255
125.782402 -22.338890 -132.519043 -0.568250 -0.000000 -0.822856 0.125000 0.572226 216 151 20 255
125.965508 -21.776323 -132.645493 -0.568250 -0.000000 -0.822856 0.125000 0.571364 216 151 20 255
126.259644 -22.204134 -132.848618 -0.568250 -0.000000 -0.822856 0.125000 0.571064 216 151 20 255
125.706245 -22.465969 -132.466461 -0.568246 0.000000 -0.822858 0.125000 0.571064 216 151 20 255
123.025093 -18.845484 -144.418137 -0.141910 0.000050 0.989880 0.125000 0.574479 35 53 102 255
122.992493 -19.236570 -144.422791 -0.141910 0.000050 0.989880 0.125000 0.574570 35 53 102 255
124.105339 -19.084452 -144.263260 -0.141910 0.000050 0.989880 0.125000 0.572325 35 53 102 255
124.105339 -19.084452 -144.263260 -0.141943 -0.000015 0.989875 0.125000 0.572325 35 53 102 255
124.164856 -19.392086 -144.254730 -0.141943 -0.000015 0.989875 0.125000 0.572226 35 53 102 255
124.579597 -18.955685 -144.195251 -0.141943 -0.000015 0.989875 0.125000 0.571364 35 53 102 255
124.579597 -18.955685 -144.195251 -0.141934 0.000008 0.989876 0.125000 0.571364 35 53 102 255
124.080513 -18.666132 -144.266815 -0.141934 0.000008 0.989876 0.125000 0.572347 35 53 102 255
124.097847 -18.887270 -144.264328 -0.141934 0.000008 0.989876 0.125000 0.572327 35 53 102 255
124.097847 -18.887270 -144.264328 -0.141927 -0.000031 0.989877 0.125000 0.572327 35 53 102 255
123.025093 -18.845484 -144.418137 -0.141927 -0.000031 0.989877 0.125000 0.574479 35 53 102 255
124.105339 -19.084452 -144.263260 -0.141927 -0.000031 0.989877 0.125000 0.572325 35 53 102 255
124.164856 -19.392086 -144.254730 -0.141902 -0.000007 0.989881 0.125000 0.572226 216 151 20 255
124.105339 -19.084452 -144.263260 -0.141902 -0.000007 0.989881 0.125000 0.572325 216 151 20 255
122.992493 -19.236570 -144.422791 -0.141902 -0.000007 0.989881 0.125000 0.574570 216 151 20 255
122.992493 -19.236570 -144.422791 -0.141906 -0.000040 0.989880 0.125000 0.574570 216 151 20 255
122.701050 -19.567913 -144.464584 -0.141906 -0.000040 0.989880 0.125000 0.575177 216 151 20 255
124.164856 -19.392086 -144.254730 -0.141906 -0.000040 0.989880 0.125000 0.572226 216 151 20 255
122.701050 -19.567913 -144.464584 -0.141924 0.000108 0.989878 0.125000 0.575177 216 151 20 255
124.746719 -19.487000 -144.171295 -0.141924 0.000108 0.989878 0.125000 0.571064 216 151 20 255
124.164856 -19.392086 -144.254730 -0.141924 0.000108 0.989878 0.125000 0.572226 216 151 20 255
124.746719 -19.487000 -144.171295 -0.141863 0.000010 0.989886 0.125000 0.571064 216 151 20 255
124.715805 -18.548079 -144.175735 -0.141863 0.000010 0.989886 0.125000 0.571064 216 151 20 255
124.579597 -18.955685 -144.195251 -0.141863 0.000010 0.989886 0.125000 0.571364 216 151 20 255
124.200325 -19.481657 -144.249649 -0.141921 0.000000 0.989878 0.125000 0.571064 216 151 20 255
3 0 1 2
3 3 4 5
3 6 7 8
3 9 10 11
3 12 13 14
3 15 16 17
3 18 19 20
3 21 22 23
3 24 25 26
3 27 28 29
3 30 31 32
3 33 34 35
3 36 37 38
3 39 40 41
3 42 43 44
3 45 46 47
3 48 49 50
3 51 52 53
3 54 55 56
3 57 58 59
3 60 61 62
3 63 64 65
3 66 67 68
3 69 70 71
3 72 73 74
3 75 76 77
3 78 79 80
3 81 82 83
3 84 85 86
3 87 88 89
3 90 91 92
3 93 94 95
3 96 97 98
3 99 100 101
3 102 103 104
3 105 106 107
3 108 109 110
3 111 112 113
3 114 115 116
3 117 118 119
3 120 121 122
3 123 124 125
3 126 127 128
3 129 130 131
3 132 133 134
3 135 136 137
3 138 139 140
3 141 142 143
3 144 145 146
3 147 148 149
3 150 151 152
3 153 154 155
3 156 157 158
3 159 160 161
3 162 163 164
3 165 166 167
3 168 169 170
3 171 172 173
3 174 175 176
3 177 178 179
3 180 181 182
3 183 184 185
3 186 187 188
3 189 190 191
3 192 193 194
3 195 196 197
3 198 199 200
3 201 202 203
3 204 205 206
3 207 208 209
3 210 211 212
3 213 214 215
3 216 217 218
3 219 220 221
3 222 223 224
3 225 226 227
3 228 229 230
3 231 232 233
3 234 235 236
3 237 238 239
3 240 241 242
3 243 244 245
3 246 247 248
3 249 250 251
3 252 253 254
3 255 256 257
3 258 259 260
3 261 262 263
3 264 265 266
3 267 268 269
3 270 271 272
3 273 274 275
3 276 277 278
3 279 280 281
3 282 283 284
3 285 286 287
3 288 289 290
3 291 292 293
3 294 295 296
3 297 298 299
3 300 301 302
3 303 304 305
3 306 307 308
3 309 310 311
3 312 313 314
3 315 316 317
3 318 319 320
3 147 321 148
3 322 323 324
3 325 326 327
3 328 329 330
3 331 332 333
3 334 335 336
3 337 338 339
3 340 341 342
3 343 344 345
3 156 346 157
