ply
format ascii 1.0
comment Created by Blender 2.93.1 - www.blender.org
element vertex 30
property float x
property float y
property float z
property float nx
property float ny
property float nz
property float s
property float t
property uchar red
property uchar green
property uchar blue
property uchar alpha
element face 10
property list uchar uint vertex_indices
end_header
138.107864 -36.647232 -7.840187 0.041416 0.997312 -0.060439 0.125000 0.595685 115 196 116 255
141.662903 -36.813370 -8.145541 0.041416 0.997312 -0.060439 0.125000 0.599622 115 196 116 255
139.463516 -36.813370 -9.652687 0.041416 0.997312 -0.060439 0.125000 0.599622 115 196 116 255
138.843750 -29.018538 -7.133572 0.510122 0.030410 -0.859564 0.133548 0.595872 147 133 102 255
141.376556 -36.647232 -5.900330 0.510122 0.030410 -0.859564 0.125000 0.595685 147 133 102 255
138.107864 -36.647232 -7.840187 0.510122 0.030410 -0.859564 0.125000 0.595685 147 133 102 255
139.463516 -36.813370 -9.652687 0.042589 0.997316 -0.059560 0.125000 0.599622 178 136 64 255
141.719467 -36.846184 -8.589001 0.042589 0.997316 -0.059560 0.125000 0.600399 178 136 64 255
139.731277 -36.846184 -10.010681 0.042589 0.997316 -0.059560 0.125000 0.600399 178 136 64 255
139.731277 -36.846184 -10.010681 0.055979 0.997202 -0.049536 0.125000 0.600399 115 196 116 255
142.024063 -37.022907 -10.977270 0.055979 0.997202 -0.049536 0.125000 0.604587 115 196 116 255
141.173325 -37.022907 -11.938667 0.055979 0.997202 -0.049536 0.125000 0.604587 115 196 116 255
142.591660 -29.136139 -12.595760 -0.699043 0.191684 0.688909 0.133571 0.602856 147 133 102 255
142.024063 -37.022907 -10.977270 -0.699043 0.191684 0.688909 0.125000 0.604587 147 133 102 255
142.934357 -29.136139 -12.248022 -0.699043 0.191684 0.688909 0.133571 0.602856 147 133 102 255
138.107864 -36.647232 -7.840187 0.040694 0.996816 -0.068571 0.125000 0.595685 115 196 116 255
141.376556 -36.647232 -5.900330 0.040694 0.996816 -0.068571 0.125000 0.595685 115 196 116 255
141.662903 -36.813370 -8.145541 0.040694 0.996816 -0.068571 0.125000 0.599622 115 196 116 255
138.843750 -29.018538 -7.133572 0.388587 -0.019904 -0.921197 0.133548 0.595872 147 133 102 255
142.365128 -29.018538 -5.648155 0.388587 -0.019904 -0.921197 0.133548 0.595872 147 133 102 255
141.376556 -36.647232 -5.900330 0.388587 -0.019904 -0.921197 0.125000 0.595685 147 133 102 255
139.463516 -36.813370 -9.652687 0.046472 0.996615 -0.067817 0.125000 0.599622 178 136 64 255
141.662903 -36.813370 -8.145541 0.046472 0.996615 -0.067817 0.125000 0.599622 178 136 64 255
141.719467 -36.846184 -8.589001 0.046472 0.996615 -0.067817 0.125000 0.600399 178 136 64 255
139.731277 -36.846184 -10.010681 0.048322 0.996543 -0.067578 0.125000 0.600399 115 196 116 255
141.719467 -36.846184 -8.589001 0.048322 0.996543 -0.067578 0.125000 0.600399 115 196 116 255
142.024063 -37.022907 -10.977270 0.048322 0.996543 -0.067578 0.125000 0.604587 115 196 116 255
142.591660 -29.136139 -12.595760 -0.735744 0.186558 0.651058 0.133571 0.602856 147 133 102 255
141.173325 -37.022907 -11.938667 -0.735744 0.186558 0.651058 0.125000 0.604587 147 133 102 255
142.024063 -37.022907 -10.977270 -0.735744 0.186558 0.651058 0.125000 0.604587 147 133 102 255
3 0 1 2
3 3 4 5
3 6 7 8
3 9 10 11
3 12 13 14
3 15 16 17
3 18 19 20
3 21 22 23
3 24 25 26
3 27 28 29
