ply
format ascii 1.0
comment Created by Blender 2.93.1 - www.blender.org
element vertex 453
property float x
property float y
property float z
property float nx
property float ny
property float nz
property float s
property float t
property uchar red
property uchar green
property uchar blue
property uchar alpha
element face 167
property list uchar uint vertex_indices
end_header
166.537842 -20.280025 -113.726822 -0.542498 0.254082 0.800711 0.153631 0.625000 147 133 102 255
168.606995 -20.691772 -112.194275 -0.542498 0.254082 0.800711 0.189268 0.625000 147 133 102 255
169.581955 -16.920765 -112.730339 -0.542498 0.254082 0.800711 0.314022 0.625000 147 133 102 255
163.071808 -22.505934 -112.719170 0.666258 0.123091 -0.735492 0.125000 0.562500 147 133 102 255
164.602997 -16.803068 -110.377693 0.666258 0.123091 -0.735492 0.316321 0.500000 147 133 102 255
165.321335 -22.505934 -110.681396 0.666258 0.123091 -0.735492 0.125000 0.562500 147 133 102 255
163.071808 -22.505934 -112.719170 0.073109 0.994053 -0.080706 0.125000 0.562500 115 196 116 255
165.321335 -22.505934 -110.681396 0.073109 0.994053 -0.080706 0.125000 0.562500 115 196 116 255
165.316284 -22.634447 -112.268860 0.073109 0.994053 -0.080706 0.125000 0.625000 115 196 116 255
168.606995 -20.691772 -112.194275 -0.958928 0.264993 0.101175 0.189268 0.625000 147 133 102 255
168.472961 -22.634447 -108.376480 -0.958928 0.264993 0.101175 0.125000 0.625000 147 133 102 255
169.132645 -20.450405 -107.844406 -0.958928 0.264993 0.101175 0.197258 0.625000 147 133 102 255
165.321335 -22.505934 -110.681396 0.964433 0.228935 -0.132125 0.125000 0.562500 147 133 102 255
164.501511 -16.803068 -106.784203 0.964433 0.228935 -0.132125 0.316321 0.500000 147 133 102 255
165.894012 -22.505934 -106.501198 0.964433 0.228935 -0.132125 0.125000 0.562500 147 133 102 255
165.894012 -22.505934 -106.501198 0.078099 0.996177 0.039136 0.125000 0.562500 115 196 116 255
166.911072 -22.634447 -105.259605 0.078099 0.996177 0.039136 0.125000 0.625000 115 196 116 255
168.472961 -22.634447 -108.376480 0.078099 0.996177 0.039136 0.125000 0.625000 115 196 116 255
167.554581 -20.877710 -102.318428 -0.823609 0.279033 -0.493770 0.183087 0.625000 147 133 102 255
166.311142 -22.634447 -101.237114 -0.823609 0.279033 -0.493770 0.125000 0.625000 147 133 102 255
167.584808 -16.920765 -100.132751 -0.823609 0.279033 -0.493770 0.314022 0.625000 147 133 102 255
165.096939 -22.505934 -105.062569 0.851016 0.231197 0.471508 0.125000 0.562500 147 133 102 255
165.297684 -22.505934 -105.424889 0.851016 0.231197 0.471508 0.125000 0.562500 147 133 102 255
164.501511 -16.803068 -106.784203 0.851016 0.231197 0.471508 0.316321 0.500000 147 133 102 255
166.886368 -22.634447 -102.158592 0.124167 0.992261 0.000989 0.125000 0.625000 115 196 116 255
166.911072 -22.634447 -105.259605 0.124167 0.992261 0.000989 0.125000 0.625000 115 196 116 255
166.447479 -22.577528 -104.163254 0.124167 0.992261 0.000989 0.125000 0.610957 115 196 116 255
165.726120 -20.215242 -113.098404 -0.740575 0.000031 0.671974 0.411277 0.036275 66 31 28 255
165.579193 -19.886236 -113.260345 -0.740575 0.000031 0.671974 0.587753 0.213725 66 31 28 255
165.579346 -20.214987 -113.260162 -0.740575 0.000031 0.671974 0.411277 0.213725 66 31 28 255
165.400558 -19.471186 -113.457207 -0.671973 0.000000 -0.740576 0.623866 0.250000 146 69 62 255
165.955994 -18.502832 -113.961189 -0.671973 0.000000 -0.740576 0.625000 0.500000 146 69 62 255
165.955994 -20.217783 -113.961189 -0.671973 0.000000 -0.740576 0.375000 0.500000 146 69 62 255
165.955994 -18.502832 -113.961189 0.740571 0.000000 -0.671978 0.625000 0.500000 146 69 62 255
166.459976 -18.502832 -113.405762 0.740571 0.000000 -0.671978 0.625000 0.750000 146 69 62 255
166.459976 -20.217783 -113.405762 0.740571 0.000000 -0.671978 0.375000 0.750000 146 69 62 255
166.459976 -18.502832 -113.405762 0.671973 0.000000 0.740576 0.625000 0.750000 146 69 62 255
165.904541 -20.217783 -112.901779 0.671973 0.000000 0.740576 0.375000 1.000000 146 69 62 255
166.459976 -20.217783 -113.405762 0.671973 0.000000 0.740576 0.375000 0.750000 146 69 62 255
165.955994 -20.217783 -113.961189 0.000000 -1.000000 0.000000 0.375000 0.500000 255 255 255 255
165.904541 -20.217783 -112.901779 0.000000 -1.000000 0.000000 0.125000 0.750000 255 255 255 255
165.400558 -20.217783 -113.457207 0.000000 -1.000000 0.000000 0.125000 0.500000 255 255 255 255
165.955994 -18.502832 -113.961189 -0.467412 0.688949 -0.553962 0.625000 0.500000 178 136 64 255
165.641403 -18.097612 -113.191788 -0.467412 0.688949 -0.553962 0.875000 0.619465 178 136 64 255
166.214981 -18.097612 -113.675751 -0.467412 0.688949 -0.553962 0.625000 0.628473 178 136 64 255
166.214981 -18.097612 -113.675751 0.499547 0.668842 0.550547 0.625000 0.628473 178 136 64 255
165.904541 -18.502832 -112.901779 0.499547 0.668842 0.550547 0.875000 0.750000 178 136 64 255
166.459976 -18.502832 -113.405762 0.499547 0.668842 0.550547 0.625000 0.750000 178 136 64 255
165.904541 -18.502832 -112.901779 -0.740571 0.000000 0.671978 0.625000 0.000000 146 69 62 255
165.400558 -18.502832 -113.457207 -0.740571 0.000000 0.671978 0.625000 0.250000 146 69 62 255
165.400558 -19.471186 -113.457207 -0.740571 0.000000 0.671978 0.623866 0.250000 146 69 62 255
165.726120 -20.215242 -113.098404 -0.740569 -0.002362 0.671976 0.411277 0.036275 146 69 62 255
165.400558 -20.217783 -113.457207 -0.740569 -0.002362 0.671976 0.375000 0.250000 146 69 62 255
165.904541 -20.217783 -112.901779 -0.740569 -0.002362 0.671976 0.375000 0.000000 146 69 62 255
165.725952 -19.884993 -113.098602 -0.740579 0.000000 0.671969 0.588558 0.036275 146 69 62 255
165.904541 -20.217783 -112.901779 -0.740579 0.000000 0.671969 0.375000 0.000000 146 69 62 255
165.904541 -18.502832 -112.901779 -0.740579 0.000000 0.671969 0.625000 0.000000 146 69 62 255
165.579193 -19.886236 -113.260345 -0.740584 0.000031 0.671964 0.587753 0.213725 146 69 62 255
165.400558 -20.217783 -113.457207 -0.740584 0.000031 0.671964 0.375000 0.250000 146 69 62 255
165.579346 -20.214987 -113.260162 -0.740584 0.000031 0.671964 0.411277 0.213725 146 69 62 255
165.725952 -19.884993 -113.098602 -0.740578 -0.000019 0.671970 0.588558 0.036275 146 69 62 255
165.400558 -19.471186 -113.457207 -0.740578 -0.000019 0.671970 0.623866 0.250000 146 69 62 255
165.579193 -19.886236 -113.260345 -0.740578 -0.000019 0.671970 0.587753 0.213725 146 69 62 255
166.537842 -20.280025 -113.726822 0.057353 0.980857 0.186091 0.153631 0.625000 147 133 102 255
165.423828 -20.462515 -112.421608 0.057353 0.980857 0.186091 0.147603 0.625000 147 133 102 255
168.606995 -20.691772 -112.194275 0.057353 0.980857 0.186091 0.189268 0.625000 147 133 102 255
165.423828 -20.462515 -112.421608 -0.954803 0.067633 0.289442 0.147603 0.625000 147 133 102 255
164.340363 -22.634447 -115.488205 -0.954803 0.067633 0.289442 0.125000 0.625000 147 133 102 255
165.316284 -22.634447 -112.268860 -0.954803 0.067633 0.289442 0.125000 0.625000 147 133 102 255
168.104736 -22.634447 -111.918121 -0.124441 0.075740 0.989332 0.125000 0.625000 147 133 102 255
165.423828 -20.462515 -112.421608 -0.124441 0.075740 0.989332 0.147603 0.625000 147 133 102 255
165.316284 -22.634447 -112.268860 -0.124441 0.075740 0.989332 0.125000 0.625000 147 133 102 255
165.866074 -22.543875 -111.062988 0.703166 0.000053 -0.711026 0.411277 0.036275 66 31 28 255
166.021530 -22.214869 -110.909225 0.703166 0.000053 -0.711026 0.587753 0.213725 66 31 28 255
166.021378 -22.543619 -110.909401 0.703166 0.000053 -0.711026 0.411277 0.213725 66 31 28 255
166.210556 -21.799818 -110.722321 0.711063 -0.000000 0.703128 0.623866 0.250000 146 69 62 255
165.683212 -20.831465 -110.189026 0.711063 -0.000000 0.703128 0.625000 0.500000 146 69 62 255
165.683212 -22.546415 -110.189026 0.711063 -0.000000 0.703128 0.375000 0.500000 146 69 62 255
165.683212 -20.831465 -110.189026 -0.703128 0.000000 0.711063 0.625000 0.500000 146 69 62 255
165.149918 -20.831465 -110.716370 -0.703128 0.000000 0.711063 0.625000 0.750000 146 69 62 255
165.149918 -22.546415 -110.716370 -0.703128 0.000000 0.711063 0.375000 0.750000 146 69 62 255
165.149918 -20.831465 -110.716370 -0.711063 0.000000 -0.703128 0.625000 0.750000 146 69 62 255
165.677261 -22.546415 -111.249664 -0.711063 0.000000 -0.703128 0.375000 1.000000 146 69 62 255
165.149918 -22.546415 -110.716370 -0.711063 0.000000 -0.703128 0.375000 0.750000 146 69 62 255
165.683212 -22.546415 -110.189026 -0.000000 -1.000000 0.000000 0.375000 0.500000 255 255 255 255
165.677261 -22.546415 -111.249664 -0.000000 -1.000000 0.000000 0.125000 0.750000 255 255 255 255
166.210556 -22.546415 -110.722321 -0.000000 -1.000000 0.000000 0.125000 0.500000 255 255 255 255
165.683212 -20.831465 -110.189026 0.496701 0.688949 0.527862 0.625000 0.500000 178 136 64 255
165.955704 -20.426245 -110.974312 0.496701 0.688949 0.527862 0.875000 0.619465 178 136 64 255
165.409149 -20.426245 -110.460022 0.496701 0.688949 0.527862 0.625000 0.628473 178 136 64 255
165.409149 -20.426245 -110.460022 -0.528609 0.668840 -0.522710 0.625000 0.628473 178 136 64 255
165.677261 -20.831465 -111.249664 -0.528609 0.668840 -0.522710 0.875000 0.750000 178 136 64 255
165.149918 -20.831465 -110.716370 -0.528609 0.668840 -0.522710 0.625000 0.750000 178 136 64 255
165.677261 -20.831465 -111.249664 0.703128 0.000000 -0.711063 0.625000 0.000000 146 69 62 255
166.210556 -20.831465 -110.722321 0.703128 0.000000 -0.711063 0.625000 0.250000 146 69 62 255
166.210556 -21.799818 -110.722321 0.703128 0.000000 -0.711063 0.623866 0.250000 146 69 62 255
165.866074 -22.543875 -111.062988 0.703105 -0.008203 -0.711039 0.411277 0.036275 146 69 62 255
166.210556 -22.546415 -110.722321 0.703105 -0.008203 -0.711039 0.375000 0.250000 146 69 62 255
165.677261 -22.546415 -111.249664 0.703105 -0.008203 -0.711039 0.375000 0.000000 146 69 62 255
165.866241 -22.213625 -111.062790 0.703134 0.000000 -0.711057 0.588558 0.036275 146 69 62 255
165.677261 -22.546415 -111.249664 0.703134 0.000000 -0.711057 0.375000 0.000000 146 69 62 255
165.677261 -20.831465 -111.249664 0.703134 0.000000 -0.711057 0.625000 0.000000 146 69 62 255
166.021530 -22.214869 -110.909225 0.703153 0.000053 -0.711038 0.587753 0.213725 146 69 62 255
166.210556 -22.546415 -110.722321 0.703153 0.000053 -0.711038 0.375000 0.250000 146 69 62 255
166.021378 -22.543619 -110.909401 0.703153 0.000053 -0.711038 0.411277 0.213725 146 69 62 255
165.866241 -22.213625 -111.062790 0.703148 -0.000038 -0.711043 0.588558 0.036275 146 69 62 255
166.210556 -21.799818 -110.722321 0.703148 -0.000038 -0.711043 0.623866 0.250000 146 69 62 255
166.021530 -22.214869 -110.909225 0.703148 -0.000038 -0.711043 0.587753 0.213725 146 69 62 255
165.843506 -20.937162 -108.371605 -0.000000 -1.000000 0.000000 0.250000 0.490000 83 141 84 255
166.743134 -20.937162 -110.196991 -0.000000 -1.000000 0.000000 0.457846 0.130000 83 141 84 255
167.874176 -20.937162 -108.505203 -0.000000 -1.000000 0.000000 0.042154 0.130000 83 141 84 255
167.046494 -20.969622 -108.934761 0.065633 0.000000 0.997844 0.333333 1.000000 107 97 74 255
166.649567 -22.616743 -108.908653 0.065633 0.000000 0.997844 -0.000000 0.500000 107 97 74 255
167.046494 -22.616743 -108.934761 0.065633 0.000000 0.997844 0.333333 0.500000 107 97 74 255
166.825439 -20.969622 -109.265457 0.831365 0.000000 -0.555727 0.666667 1.000000 107 97 74 255
167.046494 -22.616743 -108.934761 0.831365 0.000000 -0.555727 0.333333 0.500000 107 97 74 255
166.825439 -22.616743 -109.265457 0.831365 0.000000 -0.555727 0.666667 0.500000 107 97 74 255
166.649567 -20.969622 -108.908653 -0.896956 0.000000 -0.442120 1.000000 1.000000 107 97 74 255
166.825439 -22.616743 -109.265457 -0.896956 0.000000 -0.442120 0.666667 0.500000 107 97 74 255
166.649567 -22.616743 -108.908653 -0.896956 0.000000 -0.442120 1.000000 0.500000 107 97 74 255
167.874176 -20.937162 -108.505203 0.064970 0.143412 0.987528 0.042154 0.130000 83 141 84 255
166.820267 -16.883074 -109.024612 0.064970 0.143412 0.987528 0.250000 0.250000 83 141 84 255
165.843506 -20.937162 -108.371605 0.064970 0.143412 0.987528 0.250000 0.490000 83 141 84 255
166.743134 -20.937162 -110.196991 0.822734 0.143409 -0.550038 0.457846 0.130000 83 141 84 255
166.820267 -16.883074 -109.024612 0.822734 0.143409 -0.550038 0.250000 0.250000 83 141 84 255
167.874176 -20.937162 -108.505203 0.822734 0.143409 -0.550038 0.042154 0.130000 83 141 84 255
165.843506 -20.937162 -108.371605 -0.887709 0.143408 -0.437501 0.250000 0.490000 83 141 84 255
166.820267 -16.883074 -109.024612 -0.887709 0.143408 -0.437501 0.250000 0.250000 83 141 84 255
166.743134 -20.937162 -110.196991 -0.887709 0.143408 -0.437501 0.457846 0.130000 83 141 84 255
165.701401 -20.937162 -107.115479 0.000000 -1.000000 -0.000000 0.250000 0.490000 83 141 84 255
167.709702 -20.937162 -106.786652 0.000000 -1.000000 -0.000000 0.457846 0.130000 83 141 84 255
166.420792 -20.937162 -105.211807 0.000000 -1.000000 -0.000000 0.042154 0.130000 83 141 84 255
166.590591 -20.969622 -106.128731 -0.935443 0.000000 0.353479 0.333333 1.000000 107 97 74 255
166.449982 -22.616743 -106.500839 -0.935443 0.000000 0.353479 -0.000000 0.500000 107 97 74 255
166.590591 -22.616743 -106.128731 -0.935443 0.000000 0.353479 0.333333 0.500000 107 97 74 255
166.842545 -20.969622 -106.436539 0.773821 0.000000 0.633404 0.666667 1.000000 107 97 74 255
166.590591 -22.616743 -106.128731 0.773821 0.000000 0.633404 0.333333 0.500000 107 97 74 255
166.842545 -22.616743 -106.436539 0.773821 0.000000 0.633404 0.666667 0.500000 107 97 74 255
166.449982 -20.969622 -106.500839 0.161643 0.000000 -0.986849 1.000000 1.000000 107 97 74 255
166.842545 -22.616743 -106.436539 0.161643 0.000000 -0.986849 0.666667 0.500000 107 97 74 255
166.449982 -22.616743 -106.500839 0.161643 0.000000 -0.986849 1.000000 0.500000 107 97 74 255
166.420792 -20.937162 -105.211807 -0.925766 0.143412 0.349844 0.042154 0.130000 83 141 84 255
166.610641 -16.883074 -106.371323 -0.925766 0.143412 0.349844 0.250000 0.250000 83 141 84 255
165.701401 -20.937162 -107.115479 -0.925766 0.143412 0.349844 0.250000 0.490000 83 141 84 255
167.709702 -20.937162 -106.786652 0.765862 0.143410 0.626809 0.457846 0.130000 83 141 84 255
166.610641 -16.883074 -106.371323 0.765862 0.143410 0.626809 0.250000 0.250000 83 141 84 255
166.420792 -20.937162 -105.211807 0.765862 0.143410 0.626809 0.042154 0.130000 83 141 84 255
165.701401 -20.937162 -107.115479 0.159912 0.143408 -0.976659 0.250000 0.490000 83 141 84 255
166.610641 -16.883074 -106.371323 0.159912 0.143408 -0.976659 0.250000 0.250000 83 141 84 255
167.709702 -20.937162 -106.786652 0.159912 0.143408 -0.976659 0.457846 0.130000 83 141 84 255
165.941299 -20.937162 -103.188576 0.000000 -1.000000 -0.000000 0.250000 0.490000 83 141 84 255
167.172577 -20.937162 -101.568275 0.000000 -1.000000 -0.000000 0.457846 0.130000 83 141 84 255
165.153717 -20.937162 -101.312088 0.000000 -1.000000 -0.000000 0.042154 0.130000 83 141 84 255
165.907761 -20.969622 -101.860718 -0.922061 0.000000 -0.387045 0.333333 1.000000 107 97 74 255
166.061722 -22.616743 -102.227501 -0.922061 0.000000 -0.387045 -0.000000 0.500000 107 97 74 255
165.907761 -22.616743 -101.860718 -0.922061 0.000000 -0.387045 0.333333 0.500000 107 97 74 255
166.302383 -20.969622 -101.910767 0.125819 0.000000 0.992053 0.666667 1.000000 107 97 74 255
165.907761 -22.616743 -101.860718 0.125819 0.000000 0.992053 0.333333 0.500000 107 97 74 255
166.302383 -22.616743 -101.910767 0.125819 0.000000 0.992053 0.666667 0.500000 107 97 74 255
166.061722 -20.969622 -102.227501 0.796231 0.000000 -0.604993 1.000000 1.000000 107 97 74 255
166.302383 -22.616743 -101.910767 0.796231 0.000000 -0.604993 0.666667 0.500000 107 97 74 255
166.061722 -22.616743 -102.227501 0.796231 0.000000 -0.604993 1.000000 0.500000 107 97 74 255
165.153717 -20.937162 -101.312088 -0.912546 0.143414 -0.383005 0.042154 0.130000 83 141 84 255
166.089218 -16.883074 -102.022980 -0.912546 0.143414 -0.383005 0.250000 0.250000 83 141 84 255
165.941299 -20.937162 -103.188576 -0.912546 0.143414 -0.383005 0.250000 0.490000 83 141 84 255
167.172577 -20.937162 -101.568275 0.124586 0.143410 0.981790 0.457846 0.130000 83 141 84 255
166.089218 -16.883074 -102.022980 0.124586 0.143410 0.981790 0.250000 0.250000 83 141 84 255
165.153717 -20.937162 -101.312088 0.124586 0.143410 0.981790 0.042154 0.130000 83 141 84 255
165.941299 -20.937162 -103.188576 0.787968 0.143407 -0.598783 0.250000 0.490000 83 141 84 255
166.089218 -16.883074 -102.022980 0.787968 0.143407 -0.598783 0.250000 0.250000 83 141 84 255
167.172577 -20.937162 -101.568275 0.787968 0.143407 -0.598783 0.457846 0.130000 83 141 84 255
165.360992 -22.543875 -104.485100 0.703166 0.000053 -0.711026 0.411277 0.036275 66 31 28 255
165.516449 -22.214869 -104.331337 0.703166 0.000053 -0.711026 0.587753 0.213725 66 31 28 255
165.516296 -22.543619 -104.331512 0.703166 0.000053 -0.711026 0.411277 0.213725 66 31 28 255
165.705475 -21.799818 -104.144432 0.711063 -0.000000 0.703128 0.623866 0.250000 146 69 62 255
165.178131 -20.831465 -103.611137 0.711063 -0.000000 0.703128 0.625000 0.500000 146 69 62 255
165.178131 -22.546415 -103.611137 0.711063 -0.000000 0.703128 0.375000 0.500000 146 69 62 255
165.178131 -20.831465 -103.611137 -0.703128 0.000000 0.711063 0.625000 0.500000 146 69 62 255
164.644836 -20.831465 -104.138481 -0.703128 0.000000 0.711063 0.625000 0.750000 146 69 62 255
164.644836 -22.546415 -104.138481 -0.703128 0.000000 0.711063 0.375000 0.750000 146 69 62 255
164.644836 -20.831465 -104.138481 -0.711063 0.000000 -0.703128 0.625000 0.750000 146 69 62 255
165.172180 -22.546415 -104.671776 -0.711063 0.000000 -0.703128 0.375000 1.000000 146 69 62 255
164.644836 -22.546415 -104.138481 -0.711063 0.000000 -0.703128 0.375000 0.750000 146 69 62 255
165.178131 -22.546415 -103.611137 -0.000000 -1.000000 0.000000 0.375000 0.500000 255 255 255 255
165.172180 -22.546415 -104.671776 -0.000000 -1.000000 0.000000 0.125000 0.750000 255 255 255 255
165.705475 -22.546415 -104.144432 -0.000000 -1.000000 0.000000 0.125000 0.500000 255 255 255 255
165.178131 -20.831465 -103.611137 0.496701 0.688949 0.527862 0.625000 0.500000 178 136 64 255
165.450623 -20.426245 -104.396423 0.496701 0.688949 0.527862 0.875000 0.619465 178 136 64 255
164.904068 -20.426245 -103.882133 0.496701 0.688949 0.527862 0.625000 0.628473 178 136 64 255
164.904068 -20.426245 -103.882133 -0.528609 0.668840 -0.522710 0.625000 0.628473 178 136 64 255
165.172180 -20.831465 -104.671776 -0.528609 0.668840 -0.522710 0.875000 0.750000 178 136 64 255
164.644836 -20.831465 -104.138481 -0.528609 0.668840 -0.522710 0.625000 0.750000 178 136 64 255
165.172180 -20.831465 -104.671776 0.703128 0.000000 -0.711063 0.625000 0.000000 146 69 62 255
165.705475 -20.831465 -104.144432 0.703128 0.000000 -0.711063 0.625000 0.250000 146 69 62 255
165.705475 -21.799818 -104.144432 0.703128 0.000000 -0.711063 0.623866 0.250000 146 69 62 255
165.360992 -22.543875 -104.485100 0.703105 -0.008203 -0.711039 0.411277 0.036275 146 69 62 255
165.705475 -22.546415 -104.144432 0.703105 -0.008203 -0.711039 0.375000 0.250000 146 69 62 255
165.172180 -22.546415 -104.671776 0.703105 -0.008203 -0.711039 0.375000 0.000000 146 69 62 255
165.361160 -22.213625 -104.484901 0.703134 0.000000 -0.711057 0.588558 0.036275 146 69 62 255
165.172180 -22.546415 -104.671776 0.703134 0.000000 -0.711057 0.375000 0.000000 146 69 62 255
165.172180 -20.831465 -104.671776 0.703134 0.000000 -0.711057 0.625000 0.000000 146 69 62 255
165.516449 -22.214869 -104.331337 0.703153 0.000053 -0.711038 0.587753 0.213725 146 69 62 255
165.705475 -22.546415 -104.144432 0.703153 0.000053 -0.711038 0.375000 0.250000 146 69 62 255
165.516296 -22.543619 -104.331512 0.703153 0.000053 -0.711038 0.411277 0.213725 146 69 62 255
165.361160 -22.213625 -104.484901 0.703148 -0.000038 -0.711043 0.588558 0.036275 146 69 62 255
165.705475 -21.799818 -104.144432 0.703148 -0.000038 -0.711043 0.623866 0.250000 146 69 62 255
165.516449 -22.214869 -104.331337 0.703148 -0.000038 -0.711043 0.587753 0.213725 146 69 62 255
167.554581 -20.877710 -102.318428 -0.934867 0.354919 -0.007448 0.183087 0.625000 147 133 102 255
166.911072 -22.634447 -105.259605 -0.934867 0.354919 -0.007448 0.125000 0.625000 147 133 102 255
166.886368 -22.634447 -102.158592 -0.934867 0.354919 -0.007448 0.125000 0.625000 147 133 102 255
167.512543 -20.530863 -105.106522 -0.040281 0.991471 0.123949 0.194592 0.625000 115 196 116 255
167.554581 -20.877710 -102.318428 -0.040281 0.991471 0.123949 0.183087 0.625000 115 196 116 255
169.403549 -20.424541 -105.342445 -0.040281 0.991471 0.123949 0.198109 0.625000 115 196 116 255
169.403549 -20.424541 -105.342445 -0.056656 0.998385 -0.004186 0.198109 0.625000 115 196 116 255
169.132645 -20.450405 -107.844406 -0.056656 0.998385 -0.004186 0.197258 0.625000 115 196 116 255
167.512543 -20.530863 -105.106522 -0.056656 0.998385 -0.004186 0.194592 0.625000 115 196 116 255
167.512543 -20.530863 -105.106522 -0.859059 0.276955 -0.430481 0.194592 0.625000 147 133 102 255
168.472961 -22.634447 -108.376480 -0.859059 0.276955 -0.430481 0.125000 0.625000 147 133 102 255
166.911072 -22.634447 -105.259605 -0.859059 0.276955 -0.430481 0.125000 0.625000 147 133 102 255
166.311142 -22.634447 -101.237114 -0.350343 0.252432 -0.901963 0.125000 0.625000 147 133 102 255
161.029114 -16.920765 -97.586372 -0.350343 0.252432 -0.901963 0.314022 0.625000 147 133 102 255
167.584808 -16.920765 -100.132751 -0.350343 0.252432 -0.901963 0.314022 0.625000 147 133 102 255
163.213654 -16.803068 -104.593933 0.371479 0.247625 0.894810 0.316321 0.500000 147 133 102 255
161.473114 -22.505934 -102.293167 0.371479 0.247625 0.894810 0.125000 0.562500 147 133 102 255
164.186737 -22.505934 -103.419724 0.371479 0.247625 0.894810 0.125000 0.562500 147 133 102 255
166.311142 -22.634447 -101.237114 0.016804 0.998865 0.044570 0.125000 0.625000 115 196 116 255
161.309113 -22.561802 -100.979286 0.016804 0.998865 0.044570 0.125000 0.589670 115 196 116 255
161.095840 -22.634447 -99.270828 0.016804 0.998865 0.044570 0.125000 0.625000 115 196 116 255
165.137405 -22.563442 -102.443008 0.017502 0.998849 0.044657 0.125000 0.590469 178 136 64 255
161.385254 -22.535864 -101.589287 0.017502 0.998849 0.044657 0.125000 0.577056 178 136 64 255
161.309113 -22.561802 -100.979286 0.017502 0.998849 0.044657 0.125000 0.589670 178 136 64 255
164.834274 -22.545105 -102.754440 0.017774 0.998843 0.044691 0.125000 0.581551 115 196 116 255
161.473114 -22.505934 -102.293167 0.017774 0.998843 0.044691 0.125000 0.562500 115 196 116 255
161.385254 -22.535864 -101.589287 0.017774 0.998843 0.044691 0.125000 0.577056 115 196 116 255
165.967209 -22.559248 -104.137222 0.038513 0.999030 0.021336 0.125000 0.597515 115 196 116 255
164.186737 -22.505934 -103.419724 0.038513 0.999030 0.021336 0.125000 0.562500 115 196 116 255
164.834274 -22.545105 -102.754440 0.038513 0.999030 0.021336 0.125000 0.581551 115 196 116 255
165.297684 -22.505934 -105.424889 0.038513 0.999030 0.021338 0.125000 0.562500 178 136 64 255
165.096939 -22.505934 -105.062569 0.038513 0.999030 0.021338 0.125000 0.562500 178 136 64 255
165.967209 -22.559248 -104.137222 0.038513 0.999030 0.021338 0.125000 0.597515 178 136 64 255
169.581955 -16.920765 -112.730339 -0.632317 0.371303 0.679933 0.314022 0.625000 147 133 102 255
164.910492 -16.920765 -117.074661 -0.632317 0.371303 0.679933 0.314022 0.625000 147 133 102 255
166.537842 -20.280025 -113.726822 -0.632317 0.371303 0.679933 0.153631 0.625000 147 133 102 255
164.910492 -16.920765 -117.074661 -0.752447 0.244856 0.611448 0.314022 0.625000 147 133 102 255
164.609650 -19.935709 -116.237534 -0.752447 0.244856 0.611448 0.214281 0.625000 147 133 102 255
166.537842 -20.280025 -113.726822 -0.752447 0.244856 0.611448 0.153631 0.625000 147 133 102 255
163.071808 -22.505934 -112.719170 0.936538 -0.115567 -0.330968 0.125000 0.562500 147 133 102 255
163.536667 -16.803068 -113.395081 0.936538 -0.115567 -0.330968 0.316321 0.500000 147 133 102 255
164.602997 -16.803068 -110.377693 0.936538 -0.115567 -0.330968 0.316321 0.500000 147 133 102 255
165.316284 -22.634447 -112.268860 0.060842 0.997977 -0.018444 0.125000 0.625000 115 196 116 255
164.340363 -22.634447 -115.488205 0.060842 0.997977 -0.018444 0.125000 0.625000 115 196 116 255
163.071808 -22.505934 -112.719170 0.060842 0.997977 -0.018444 0.125000 0.562500 115 196 116 255
165.321335 -22.505934 -110.681396 0.010153 0.996685 -0.080719 0.125000 0.562500 115 196 116 255
168.104736 -22.634447 -111.918121 0.010153 0.996685 -0.080719 0.125000 0.625000 115 196 116 255
165.316284 -22.634447 -112.268860 0.010153 0.996685 -0.080719 0.125000 0.625000 115 196 116 255
170.405380 -16.920765 -105.087471 -0.958696 0.265015 0.103288 0.314022 0.625000 147 133 102 255
169.581955 -16.920765 -112.730339 -0.958696 0.265015 0.103288 0.314022 0.625000 147 133 102 255
169.132645 -20.450405 -107.844406 -0.958696 0.265015 0.103288 0.197258 0.625000 147 133 102 255
169.581955 -16.920765 -112.730339 -0.959588 0.262506 0.101393 0.314022 0.625000 147 133 102 255
168.606995 -20.691772 -112.194275 -0.959588 0.262506 0.101393 0.189268 0.625000 147 133 102 255
169.132645 -20.450405 -107.844406 -0.959588 0.262506 0.101393 0.197258 0.625000 147 133 102 255
168.606995 -20.691772 -112.194275 -0.959804 0.262333 0.099791 0.189268 0.625000 147 133 102 255
168.104736 -22.634447 -111.918121 -0.959804 0.262333 0.099791 0.125000 0.625000 147 133 102 255
168.472961 -22.634447 -108.376480 -0.959804 0.262333 0.099791 0.125000 0.625000 147 133 102 255
169.132645 -20.450405 -107.844406 -0.958470 0.266703 0.101023 0.197258 0.625000 147 133 102 255
169.403549 -20.424541 -105.342445 -0.958470 0.266703 0.101023 0.198109 0.625000 147 133 102 255
170.405380 -16.920765 -105.087471 -0.958470 0.266703 0.101023 0.314022 0.625000 147 133 102 255
165.321335 -22.505934 -110.681396 0.991955 0.123456 0.028014 0.125000 0.562500 147 133 102 255
164.602997 -16.803068 -110.377693 0.991955 0.123456 0.028014 0.316321 0.500000 147 133 102 255
164.501511 -16.803068 -106.784203 0.991955 0.123456 0.028014 0.316321 0.500000 147 133 102 255
168.472961 -22.634447 -108.376480 0.044089 0.999017 -0.004584 0.125000 0.625000 115 196 116 255
168.104736 -22.634447 -111.918121 0.044089 0.999017 -0.004584 0.125000 0.625000 115 196 116 255
165.321335 -22.505934 -110.681396 0.044089 0.999017 -0.004584 0.125000 0.562500 115 196 116 255
165.321335 -22.505934 -110.681396 0.045270 0.998956 -0.006202 0.125000 0.562500 115 196 116 255
165.894012 -22.505934 -106.501198 0.045270 0.998956 -0.006202 0.125000 0.562500 115 196 116 255
168.472961 -22.634447 -108.376480 0.045270 0.998956 -0.006202 0.125000 0.625000 115 196 116 255
167.584808 -16.920765 -100.132751 -0.836884 0.269547 -0.476413 0.314022 0.625000 147 133 102 255
170.405380 -16.920765 -105.087471 -0.836884 0.269547 -0.476413 0.314022 0.625000 147 133 102 255
167.554581 -20.877710 -102.318428 -0.836884 0.269547 -0.476413 0.183087 0.625000 147 133 102 255
170.405380 -16.920765 -105.087471 -0.838243 0.273987 -0.471466 0.314022 0.625000 147 133 102 255
169.403549 -20.424541 -105.342445 -0.838243 0.273987 -0.471466 0.198109 0.625000 147 133 102 255
167.554581 -20.877710 -102.318428 -0.838243 0.273987 -0.471466 0.183087 0.625000 147 133 102 255
167.554581 -20.877710 -102.318428 -0.818031 0.264694 -0.510649 0.183087 0.625000 147 133 102 255
166.886368 -22.634447 -102.158592 -0.818031 0.264694 -0.510649 0.125000 0.625000 147 133 102 255
166.311142 -22.634447 -101.237114 -0.818031 0.264694 -0.510649 0.125000 0.625000 147 133 102 255
165.297684 -22.505934 -105.424889 0.851017 0.231196 0.471506 0.125000 0.562500 147 133 102 255
165.894012 -22.505934 -106.501198 0.851017 0.231196 0.471506 0.125000 0.562500 147 133 102 255
164.501511 -16.803068 -106.784203 0.851017 0.231196 0.471506 0.316321 0.500000 147 133 102 255
164.501511 -16.803068 -106.784203 0.837646 0.236146 0.492528 0.316321 0.500000 147 133 102 255
163.213654 -16.803068 -104.593933 0.837646 0.236146 0.492528 0.316321 0.500000 147 133 102 255
165.096939 -22.505934 -105.062569 0.837646 0.236146 0.492528 0.125000 0.562500 147 133 102 255
163.213654 -16.803068 -104.593933 0.848794 0.241657 0.470266 0.316321 0.500000 147 133 102 255
164.186737 -22.505934 -103.419724 0.848794 0.241657 0.470266 0.125000 0.562500 147 133 102 255
165.096939 -22.505934 -105.062569 0.848794 0.241657 0.470266 0.125000 0.562500 147 133 102 255
166.911072 -22.634447 -105.259605 0.075098 0.996308 0.041608 0.125000 0.625000 115 196 116 255
165.894012 -22.505934 -106.501198 0.075098 0.996308 0.041608 0.125000 0.562500 115 196 116 255
165.297684 -22.505934 -105.424889 0.075098 0.996308 0.041608 0.125000 0.562500 115 196 116 255
166.447479 -22.577528 -104.163254 0.037276 0.999101 0.020207 0.125000 0.610957 115 196 116 255
165.137405 -22.563442 -102.443008 0.037276 0.999101 0.020207 0.125000 0.590469 115 196 116 255
166.886368 -22.634447 -102.158592 0.037276 0.999101 0.020207 0.125000 0.625000 115 196 116 255
165.137405 -22.563442 -102.443008 0.036822 0.999057 0.022986 0.125000 0.590469 115 196 116 255
166.311142 -22.634447 -101.237114 0.036822 0.999057 0.022986 0.125000 0.625000 115 196 116 255
166.886368 -22.634447 -102.158592 0.036822 0.999057 0.022986 0.125000 0.625000 115 196 116 255
166.911072 -22.634447 -105.259605 0.081164 0.996549 -0.017418 0.125000 0.625000 115 196 116 255
165.297684 -22.505934 -105.424889 0.081164 0.996549 -0.017418 0.125000 0.562500 115 196 116 255
166.447479 -22.577528 -104.163254 0.081164 0.996549 -0.017418 0.125000 0.610957 115 196 116 255
165.726120 -20.215242 -113.098404 -0.740578 0.000027 0.671970 0.411277 0.036275 66 31 28 255
165.725952 -19.884993 -113.098602 -0.740578 0.000027 0.671970 0.588558 0.036275 66 31 28 255
165.579193 -19.886236 -113.260345 -0.740578 0.000027 0.671970 0.587753 0.213725 66 31 28 255
165.400558 -20.217783 -113.457207 -0.671973 -0.000000 -0.740576 0.375000 0.250000 146 69 62 255
165.400558 -18.502832 -113.457207 -0.671973 -0.000000 -0.740576 0.625000 0.250000 146 69 62 255
165.955994 -20.217783 -113.961189 0.740571 0.000000 -0.671978 0.375000 0.500000 146 69 62 255
165.955994 -18.502832 -113.961189 0.740571 0.000024 -0.671978 0.625000 0.500000 146 69 62 255
166.214981 -18.097612 -113.675751 0.740571 0.000024 -0.671978 0.625000 0.628473 146 69 62 255
166.459976 -18.502832 -113.405762 0.740571 0.000024 -0.671978 0.625000 0.750000 146 69 62 255
165.904541 -18.502832 -112.901779 0.671973 -0.000000 0.740576 0.625000 1.000000 146 69 62 255
166.459976 -20.217783 -113.405762 0.000000 -1.000000 -0.000000 0.375000 0.750000 255 255 255 255
165.955994 -18.502832 -113.961189 -0.503342 0.662512 -0.554729 0.625000 0.500000 178 136 64 255
165.400558 -18.502832 -113.457207 -0.503342 0.662512 -0.554729 0.875000 0.500000 178 136 64 255
165.641403 -18.097612 -113.191788 -0.503342 0.662512 -0.554729 0.875000 0.619465 178 136 64 255
166.214981 -18.097612 -113.675751 0.463871 0.694681 0.549765 0.625000 0.628473 178 136 64 255
165.641403 -18.097612 -113.191788 0.463871 0.694681 0.549765 0.875000 0.619465 178 136 64 255
165.904541 -18.502832 -112.901779 0.463871 0.694681 0.549765 0.875000 0.750000 178 136 64 255
165.904541 -18.502832 -112.901779 -0.740571 0.000017 0.671978 0.625000 0.000000 146 69 62 255
165.641403 -18.097612 -113.191788 -0.740571 0.000017 0.671978 0.625000 0.130535 146 69 62 255
165.400558 -18.502832 -113.457207 -0.740571 0.000017 0.671978 0.625000 0.250000 146 69 62 255
165.726120 -20.215242 -113.098404 -0.740576 -0.001043 0.671972 0.411277 0.036275 146 69 62 255
165.579346 -20.214987 -113.260162 -0.740576 -0.001043 0.671972 0.411277 0.213725 146 69 62 255
165.400558 -20.217783 -113.457207 -0.740576 -0.001043 0.671972 0.375000 0.250000 146 69 62 255
165.725952 -19.884993 -113.098602 -0.740556 0.000027 0.671995 0.588558 0.036275 146 69 62 255
165.726120 -20.215242 -113.098404 -0.740556 0.000027 0.671995 0.411277 0.036275 146 69 62 255
165.904541 -20.217783 -112.901779 -0.740556 0.000027 0.671995 0.375000 0.000000 146 69 62 255
165.579193 -19.886236 -113.260345 -0.740558 0.000000 0.671993 0.587753 0.213725 146 69 62 255
165.400558 -19.471186 -113.457207 -0.740558 0.000000 0.671993 0.623866 0.250000 146 69 62 255
165.400558 -20.217783 -113.457207 -0.740558 0.000000 0.671993 0.375000 0.250000 146 69 62 255
165.725952 -19.884993 -113.098602 -0.740569 -0.000003 0.671981 0.588558 0.036275 146 69 62 255
165.904541 -18.502832 -112.901779 -0.740569 -0.000003 0.671981 0.625000 0.000000 146 69 62 255
165.400558 -19.471186 -113.457207 -0.740569 -0.000003 0.671981 0.623866 0.250000 146 69 62 255
166.537842 -20.280025 -113.726822 -0.001635 0.990556 0.137100 0.153631 0.625000 147 133 102 255
164.609650 -19.935709 -116.237534 -0.001635 0.990556 0.137100 0.214281 0.625000 147 133 102 255
165.423828 -20.462515 -112.421608 -0.001635 0.990556 0.137100 0.147603 0.625000 147 133 102 255
165.423828 -20.462515 -112.421608 -0.960858 0.158891 0.226948 0.147603 0.625000 147 133 102 255
164.609650 -19.935709 -116.237534 -0.960858 0.158891 0.226948 0.214281 0.625000 147 133 102 255
164.340363 -22.634447 -115.488205 -0.960858 0.158891 0.226948 0.125000 0.625000 147 133 102 255
168.104736 -22.634447 -111.918121 -0.059224 0.155482 0.986062 0.125000 0.625000 147 133 102 255
168.606995 -20.691772 -112.194275 -0.059224 0.155482 0.986062 0.189268 0.625000 147 133 102 255
165.423828 -20.462515 -112.421608 -0.059224 0.155482 0.986062 0.147603 0.625000 147 133 102 255
165.866074 -22.543875 -111.062988 0.703149 0.000070 -0.711043 0.411277 0.036275 66 31 28 255
165.866241 -22.213625 -111.062790 0.703149 0.000070 -0.711043 0.588558 0.036275 66 31 28 255
166.021530 -22.214869 -110.909225 0.703149 0.000070 -0.711043 0.587753 0.213725 66 31 28 255
166.210556 -22.546415 -110.722321 0.711063 0.000000 0.703128 0.375000 0.250000 146 69 62 255
166.210556 -20.831465 -110.722321 0.711063 0.000000 0.703128 0.625000 0.250000 146 69 62 255
165.683212 -22.546415 -110.189026 -0.703128 0.000000 0.711063 0.375000 0.500000 146 69 62 255
165.683212 -20.831465 -110.189026 -0.703128 -0.000015 0.711063 0.625000 0.500000 146 69 62 255
165.409149 -20.426245 -110.460022 -0.703128 -0.000015 0.711063 0.625000 0.628473 146 69 62 255
165.149918 -20.831465 -110.716370 -0.703128 -0.000015 0.711063 0.625000 0.750000 146 69 62 255
165.677261 -20.831465 -111.249664 -0.711063 0.000000 -0.703128 0.625000 1.000000 146 69 62 255
165.149918 -22.546415 -110.716370 0.000000 -1.000000 0.000000 0.375000 0.750000 255 255 255 255
165.683212 -20.831465 -110.189026 0.532627 0.662506 0.526683 0.625000 0.500000 178 136 64 255
166.210556 -20.831465 -110.722321 0.532627 0.662506 0.526683 0.875000 0.500000 178 136 64 255
165.955704 -20.426245 -110.974312 0.532627 0.662506 0.526683 0.875000 0.619465 178 136 64 255
165.409149 -20.426245 -110.460022 -0.492935 0.694684 -0.523860 0.625000 0.628473 178 136 64 255
165.955704 -20.426245 -110.974312 -0.492935 0.694684 -0.523860 0.875000 0.619465 178 136 64 255
165.677261 -20.831465 -111.249664 -0.492935 0.694684 -0.523860 0.875000 0.750000 178 136 64 255
165.677261 -20.831465 -111.249664 0.703128 0.000030 -0.711063 0.625000 0.000000 146 69 62 255
165.955704 -20.426245 -110.974312 0.703128 0.000030 -0.711063 0.625000 0.130535 146 69 62 255
166.210556 -20.831465 -110.722321 0.703128 0.000030 -0.711063 0.625000 0.250000 146 69 62 255
165.866074 -22.543875 -111.062988 0.703164 0.001614 -0.711026 0.411277 0.036275 146 69 62 255
166.021378 -22.543619 -110.909401 0.703164 0.001614 -0.711026 0.411277 0.213725 146 69 62 255
166.210556 -22.546415 -110.722321 0.703164 0.001614 -0.711026 0.375000 0.250000 146 69 62 255
165.866241 -22.213625 -111.062790 0.703072 0.000070 -0.711119 0.588558 0.036275 146 69 62 255
165.866074 -22.543875 -111.062988 0.703072 0.000070 -0.711119 0.411277 0.036275 146 69 62 255
165.677261 -22.546415 -111.249664 0.703072 0.000070 -0.711119 0.375000 0.000000 146 69 62 255
166.021530 -22.214869 -110.909225 0.703106 0.000000 -0.711085 0.587753 0.213725 146 69 62 255
166.210556 -21.799818 -110.722321 0.703106 0.000000 -0.711085 0.623866 0.250000 146 69 62 255
166.210556 -22.546415 -110.722321 0.703106 0.000000 -0.711085 0.375000 0.250000 146 69 62 255
165.866241 -22.213625 -111.062790 0.703126 -0.000002 -0.711065 0.588558 0.036275 146 69 62 255
165.677261 -20.831465 -111.249664 0.703126 -0.000002 -0.711065 0.625000 0.000000 146 69 62 255
166.210556 -21.799818 -110.722321 0.703126 -0.000002 -0.711065 0.623866 0.250000 146 69 62 255
166.649567 -20.969622 -108.908653 0.065633 -0.000000 0.997844 -0.000000 1.000000 107 97 74 255
167.046494 -20.969622 -108.934761 0.831365 0.000000 -0.555727 0.333333 1.000000 107 97 74 255
166.825439 -20.969622 -109.265457 -0.896956 0.000000 -0.442120 0.666667 1.000000 107 97 74 255
166.449982 -20.969622 -106.500839 -0.935443 0.000000 0.353479 -0.000000 1.000000 107 97 74 255
166.590591 -20.969622 -106.128731 0.773821 -0.000000 0.633404 0.333333 1.000000 107 97 74 255
166.842545 -20.969622 -106.436539 0.161643 0.000000 -0.986849 0.666667 1.000000 107 97 74 255
166.061722 -20.969622 -102.227501 -0.922061 0.000000 -0.387045 -0.000000 1.000000 107 97 74 255
165.907761 -20.969622 -101.860718 0.125819 -0.000000 0.992053 0.333333 1.000000 107 97 74 255
166.302383 -20.969622 -101.910767 0.796231 0.000000 -0.604993 0.666667 1.000000 107 97 74 255
165.360992 -22.543875 -104.485100 0.703149 0.000070 -0.711043 0.411277 0.036275 66 31 28 255
165.361160 -22.213625 -104.484901 0.703149 0.000070 -0.711043 0.588558 0.036275 66 31 28 255
165.516449 -22.214869 -104.331337 0.703149 0.000070 -0.711043 0.587753 0.213725 66 31 28 255
165.705475 -22.546415 -104.144432 0.711063 0.000000 0.703128 0.375000 0.250000 146 69 62 255
165.705475 -20.831465 -104.144432 0.711063 0.000000 0.703128 0.625000 0.250000 146 69 62 255
165.178131 -22.546415 -103.611137 -0.703128 0.000000 0.711063 0.375000 0.500000 146 69 62 255
165.178131 -20.831465 -103.611137 -0.703128 -0.000015 0.711063 0.625000 0.500000 146 69 62 255
164.904068 -20.426245 -103.882133 -0.703128 -0.000015 0.711063 0.625000 0.628473 146 69 62 255
164.644836 -20.831465 -104.138481 -0.703128 -0.000015 0.711063 0.625000 0.750000 146 69 62 255
165.172180 -20.831465 -104.671776 -0.711063 0.000000 -0.703128 0.625000 1.000000 146 69 62 255
164.644836 -22.546415 -104.138481 0.000000 -1.000000 0.000000 0.375000 0.750000 255 255 255 255
165.178131 -20.831465 -103.611137 0.532627 0.662506 0.526683 0.625000 0.500000 178 136 64 255
165.705475 -20.831465 -104.144432 0.532627 0.662506 0.526683 0.875000 0.500000 178 136 64 255
165.450623 -20.426245 -104.396423 0.532627 0.662506 0.526683 0.875000 0.619465 178 136 64 255
164.904068 -20.426245 -103.882133 -0.492935 0.694684 -0.523860 0.625000 0.628473 178 136 64 255
165.450623 -20.426245 -104.396423 -0.492935 0.694684 -0.523860 0.875000 0.619465 178 136 64 255
165.172180 -20.831465 -104.671776 -0.492935 0.694684 -0.523860 0.875000 0.750000 178 136 64 255
165.172180 -20.831465 -104.671776 0.703128 0.000030 -0.711063 0.625000 0.000000 146 69 62 255
165.450623 -20.426245 -104.396423 0.703128 0.000030 -0.711063 0.625000 0.130535 146 69 62 255
165.705475 -20.831465 -104.144432 0.703128 0.000030 -0.711063 0.625000 0.250000 146 69 62 255
165.360992 -22.543875 -104.485100 0.703164 0.001614 -0.711026 0.411277 0.036275 146 69 62 255
165.516296 -22.543619 -104.331512 0.703164 0.001614 -0.711026 0.411277 0.213725 146 69 62 255
165.705475 -22.546415 -104.144432 0.703164 0.001614 -0.711026 0.375000 0.250000 146 69 62 255
165.361160 -22.213625 -104.484901 0.703072 0.000070 -0.711119 0.588558 0.036275 146 69 62 255
165.360992 -22.543875 -104.485100 0.703072 0.000070 -0.711119 0.411277 0.036275 146 69 62 255
165.172180 -22.546415 -104.671776 0.703072 0.000070 -0.711119 0.375000 0.000000 146 69 62 255
165.516449 -22.214869 -104.331337 0.703106 0.000000 -0.711085 0.587753 0.213725 146 69 62 255
165.705475 -21.799818 -104.144432 0.703106 0.000000 -0.711085 0.623866 0.250000 146 69 62 255
165.705475 -22.546415 -104.144432 0.703106 0.000000 -0.711085 0.375000 0.250000 146 69 62 255
165.361160 -22.213625 -104.484901 0.703126 -0.000002 -0.711065 0.588558 0.036275 146 69 62 255
165.172180 -20.831465 -104.671776 0.703126 -0.000002 -0.711065 0.625000 0.000000 146 69 62 255
165.705475 -21.799818 -104.144432 0.703126 -0.000002 -0.711065 0.623866 0.250000 146 69 62 255
167.554581 -20.877710 -102.318428 -0.961273 0.271342 0.048250 0.183087 0.625000 147 133 102 255
167.512543 -20.530863 -105.106522 -0.961273 0.271342 0.048250 0.194592 0.625000 147 133 102 255
166.911072 -22.634447 -105.259605 -0.961273 0.271342 0.048250 0.125000 0.625000 147 133 102 255
167.512543 -20.530863 -105.106522 -0.808138 0.358032 -0.467682 0.194592 0.625000 147 133 102 255
169.132645 -20.450405 -107.844406 -0.808138 0.358032 -0.467682 0.197258 0.625000 147 133 102 255
168.472961 -22.634447 -108.376480 -0.808138 0.358032 -0.467682 0.125000 0.625000 147 133 102 255
166.311142 -22.634447 -101.237114 -0.340437 0.262227 -0.902962 0.125000 0.625000 147 133 102 255
161.095840 -22.634447 -99.270828 -0.340437 0.262227 -0.902962 0.125000 0.625000 147 133 102 255
161.029114 -16.920765 -97.586372 -0.340437 0.262227 -0.902962 0.314022 0.625000 147 133 102 255
163.213654 -16.803068 -104.593933 0.406273 0.232513 0.883674 0.316321 0.500000 147 133 102 255
160.478683 -16.803068 -103.336517 0.406273 0.232513 0.883674 0.316321 0.500000 147 133 102 255
161.473114 -22.505934 -102.293167 0.406273 0.232513 0.883674 0.125000 0.562500 147 133 102 255
166.311142 -22.634447 -101.237114 0.016702 0.998954 0.042563 0.125000 0.625000 115 196 116 255
165.137405 -22.563442 -102.443008 0.016702 0.998954 0.042563 0.125000 0.590469 115 196 116 255
161.309113 -22.561802 -100.979286 0.016702 0.998954 0.042563 0.125000 0.589670 115 196 116 255
165.137405 -22.563442 -102.443008 0.016968 0.998961 0.042304 0.125000 0.590469 178 136 64 255
164.834274 -22.545105 -102.754440 0.016968 0.998961 0.042304 0.125000 0.581551 178 136 64 255
161.385254 -22.535864 -101.589287 0.016968 0.998961 0.042304 0.125000 0.577056 178 136 64 255
164.834274 -22.545105 -102.754440 0.017391 0.998971 0.041891 0.125000 0.581551 115 196 116 255
164.186737 -22.505934 -103.419724 0.017391 0.998971 0.041891 0.125000 0.562500 115 196 116 255
161.473114 -22.505934 -102.293167 0.017391 0.998971 0.041891 0.125000 0.562500 115 196 116 255
165.967209 -22.559248 -104.137222 0.038514 0.999030 0.021338 0.125000 0.597515 115 196 116 255
165.096939 -22.505934 -105.062569 0.038514 0.999030 0.021338 0.125000 0.562500 115 196 116 255
164.186737 -22.505934 -103.419724 0.038514 0.999030 0.021338 0.125000 0.562500 115 196 116 255
164.834274 -22.545105 -102.754440 0.038513 0.999030 0.021337 0.125000 0.581551 178 136 64 255
165.137405 -22.563442 -102.443008 0.038513 0.999030 0.021337 0.125000 0.590469 178 136 64 255
165.967209 -22.559248 -104.137222 0.038513 0.999030 0.021337 0.125000 0.597515 178 136 64 255
165.137405 -22.563442 -102.443008 0.039198 0.998996 0.021672 0.125000 0.590469 178 136 64 255
166.447479 -22.577528 -104.163254 0.039198 0.998996 0.021672 0.125000 0.610957 178 136 64 255
165.967209 -22.559248 -104.137222 0.039198 0.998996 0.021672 0.125000 0.597515 178 136 64 255
166.447479 -22.577528 -104.163254 0.039163 0.999012 0.021000 0.125000 0.610957 178 136 64 255
165.297684 -22.505934 -105.424889 0.039163 0.999012 0.021000 0.125000 0.562500 178 136 64 255
165.967209 -22.559248 -104.137222 0.039163 0.999012 0.021000 0.125000 0.597515 178 136 64 255
3 0 1 2
3 3 4 5
3 6 7 8
3 9 10 11
3 12 13 14
3 15 16 17
3 18 19 20
3 21 22 23
3 24 25 26
3 27 28 29
3 30 31 32
3 33 34 35
3 36 37 38
3 39 40 41
3 42 43 44
3 45 46 47
3 48 49 50
3 51 52 53
3 54 55 56
3 57 58 59
3 60 61 62
3 63 64 65
3 66 67 68
3 69 70 71
3 72 73 74
3 75 76 77
3 78 79 80
3 81 82 83
3 84 85 86
3 87 88 89
3 90 91 92
3 93 94 95
3 96 97 98
3 99 100 101
3 102 103 104
3 105 106 107
3 108 109 110
3 111 112 113
3 114 115 116
3 117 118 119
3 120 121 122
3 123 124 125
3 126 127 128
3 129 130 131
3 132 133 134
3 135 136 137
3 138 139 140
3 141 142 143
3 144 145 146
3 147 148 149
3 150 151 152
3 153 154 155
3 156 157 158
3 159 160 161
3 162 163 164
3 165 166 167
3 168 169 170
3 171 172 173
3 174 175 176
3 177 178 179
3 180 181 182
3 183 184 185
3 186 187 188
3 189 190 191
3 192 193 194
3 195 196 197
3 198 199 200
3 201 202 203
3 204 205 206
3 207 208 209
3 210 211 212
3 213 214 215
3 216 217 218
3 219 220 221
3 222 223 224
3 225 226 227
3 228 229 230
3 231 232 233
3 234 235 236
3 237 238 239
3 240 241 242
3 243 244 245
3 246 247 248
3 249 250 251
3 252 253 254
3 255 256 257
3 258 259 260
3 261 262 263
3 264 265 266
3 267 268 269
3 270 271 272
3 273 274 275
3 276 277 278
3 279 280 281
3 282 283 284
3 285 286 287
3 288 289 290
3 291 292 293
3 294 295 296
3 297 298 299
3 300 301 302
3 303 304 305
3 306 307 308
3 32 309 30
3 30 310 31
3 35 311 33
3 312 313 314
3 36 315 37
3 39 316 40
3 317 318 319
3 320 321 322
3 323 324 325
3 326 327 328
3 329 330 331
3 332 333 334
3 335 336 337
3 338 339 340
3 341 342 343
3 344 345 346
3 347 348 349
3 77 350 75
3 75 351 76
3 80 352 78
3 353 354 355
3 81 356 82
3 84 357 85
3 358 359 360
3 361 362 363
3 364 365 366
3 367 368 369
3 370 371 372
3 373 374 375
3 376 377 378
3 111 379 112
3 114 380 115
3 117 381 118
3 132 382 133
3 135 383 136
3 138 384 139
3 153 385 154
3 156 386 157
3 159 387 160
3 388 389 390
3 176 391 174
3 174 392 175
3 179 393 177
3 394 395 396
3 180 397 181
3 183 398 184
3 399 400 401
3 402 403 404
3 405 406 407
3 408 409 410
3 411 412 413
3 414 415 416
3 417 418 419
3 420 421 422
3 423 424 425
3 426 427 428
3 429 430 431
3 432 433 434
3 435 436 437
3 438 439 440
3 441 442 443
3 444 445 446
3 447 448 449
3 450 451 452
