ply
format ascii 1.0
comment Created by Blender 2.92.0 - www.blender.org
element vertex 201
property float x
property float y
property float z
property float nx
property float ny
property float nz
property float s
property float t
property uchar red
property uchar green
property uchar blue
property uchar alpha
element face 67
property list uchar uint vertex_indices
end_header
157.843430 -29.124815 -38.025860 -0.128280 0.988265 0.082930 0.125000 0.597527 178 136 64 255
154.339951 -29.790634 -35.510761 -0.128280 0.988265 0.082930 0.125000 0.598097 178 136 64 255
157.975098 -29.134535 -37.706360 -0.128280 0.988265 0.082930 0.125000 0.598097 178 136 64 255
158.586090 -29.179628 -36.223839 -0.446580 0.371483 -0.813982 0.125000 0.610013 147 133 102 255
157.325684 -24.234312 -33.275406 -0.446580 0.371483 -0.813982 0.150160 0.605334 147 133 102 255
161.127243 -23.590494 -35.067257 -0.446580 0.371483 -0.813982 0.150160 0.605334 147 133 102 255
156.977600 -29.060913 -40.126720 -0.121311 0.989378 0.080090 0.125000 0.593782 115 196 116 255
153.688538 -29.719515 -36.972656 -0.121311 0.989378 0.080090 0.125000 0.597527 115 196 116 255
157.843430 -29.124815 -38.025860 -0.121311 0.989378 0.080090 0.125000 0.597527 115 196 116 255
156.977600 -29.060913 -40.126720 0.379608 0.242980 0.892669 0.125000 0.584083 147 133 102 255
153.271042 -23.819233 -39.977264 0.379608 0.242980 0.892669 0.153299 0.584746 147 133 102 255
153.176056 -29.704731 -38.334869 0.379608 0.242980 0.892669 0.125000 0.584083 147 133 102 255
158.586090 -29.179628 -36.223839 -0.101674 0.969060 0.224910 0.125000 0.600740 115 196 116 255
154.339951 -29.790634 -35.510761 -0.101674 0.969060 0.224910 0.125000 0.599536 115 196 116 255
154.784531 -29.994362 -34.431988 -0.101674 0.969060 0.224910 0.125000 0.600740 115 196 116 255
154.537781 -27.099861 -36.243916 0.817416 -0.265899 -0.511007 0.137250 0.598646 147 133 102 255
153.271042 -23.819233 -39.977264 0.817416 -0.265899 -0.511007 0.153299 0.584746 147 133 102 255
157.325684 -24.234312 -33.275406 0.817416 -0.265899 -0.511007 0.150160 0.605334 147 133 102 255
154.847946 -27.905834 -35.328384 -0.302817 -0.763890 -0.569889 0.133571 0.602856 66 66 66 255
152.395645 -27.192429 -34.981590 -0.302817 -0.763890 -0.569889 0.137250 0.598646 66 66 66 255
154.537781 -27.099861 -36.243916 -0.302817 -0.763890 -0.569889 0.137250 0.598646 66 66 66 255
153.688538 -29.719515 -36.972656 0.507419 0.032721 0.861078 0.125000 0.595685 66 66 66 255
151.759048 -27.896181 -35.904926 0.507419 0.032721 0.861078 0.133548 0.595872 66 66 66 255
151.546402 -29.719515 -35.710331 0.507419 0.032721 0.861078 0.125000 0.595685 66 66 66 255
153.901169 -27.896181 -37.167252 0.270340 -0.846439 0.458756 0.133548 0.595872 66 66 66 255
152.395645 -27.192429 -34.981590 0.270340 -0.846439 0.458756 0.137250 0.598646 66 66 66 255
151.759048 -27.896181 -35.904926 0.270340 -0.846439 0.458756 0.133548 0.595872 66 66 66 255
154.339951 -29.790634 -35.510761 -0.540063 0.224057 -0.811253 0.125000 0.604587 66 66 66 255
152.705811 -28.498642 -34.066059 -0.540063 0.224057 -0.811253 0.133571 0.602856 66 66 66 255
154.847946 -27.905834 -35.328384 -0.540063 0.224057 -0.811253 0.133571 0.602856 66 66 66 255
151.546402 -29.719515 -35.710331 0.815683 0.008438 0.578437 0.125000 0.595685 66 66 66 255
149.535706 -28.523497 -32.892391 0.815683 0.008438 0.578437 0.133548 0.595872 66 66 66 255
149.583466 -30.378416 -32.932682 0.815683 0.008438 0.578437 0.125000 0.595685 66 66 66 255
151.759048 -27.896181 -35.904926 0.306186 -0.951565 0.027825 0.133548 0.595872 66 66 66 255
150.584198 -28.173615 -32.464634 0.306186 -0.951565 0.027825 0.137250 0.598646 66 66 66 255
149.535706 -28.523497 -32.892391 0.306186 -0.951565 0.027825 0.133548 0.595872 66 66 66 255
152.197815 -30.173754 -34.248436 -0.857825 0.305168 -0.413531 0.125000 0.604587 66 66 66 255
151.452393 -29.381548 -32.117527 -0.857825 0.305168 -0.413531 0.133571 0.602856 66 66 66 255
152.705811 -28.498642 -34.066059 -0.857825 0.305168 -0.413531 0.133571 0.602856 66 66 66 255
152.705811 -28.498642 -34.066059 -0.551219 -0.562692 -0.616065 0.133571 0.602856 66 66 66 255
150.584198 -28.173615 -32.464634 -0.551219 -0.562692 -0.616065 0.137250 0.598646 66 66 66 255
152.395645 -27.192429 -34.981590 -0.551219 -0.562692 -0.616065 0.137250 0.598646 66 66 66 255
149.583466 -30.378416 -32.932682 0.983368 -0.010573 0.181317 0.125000 0.595685 66 66 66 255
149.132751 -29.324844 -30.426807 0.983368 -0.010573 0.181317 0.133548 0.595872 66 66 66 255
149.146362 -31.200815 -30.610020 0.983368 -0.010573 0.181317 0.125000 0.595685 66 66 66 255
149.535706 -28.523497 -32.892391 0.318225 -0.915652 -0.245591 0.133548 0.595872 66 66 66 255
150.262344 -28.913483 -30.496838 0.318225 -0.915652 -0.245591 0.137250 0.598646 66 66 66 255
149.132751 -29.324844 -30.426807 0.318225 -0.915652 -0.245591 0.133548 0.595872 66 66 66 255
151.033478 -31.114422 -32.263348 -0.967911 0.240201 -0.073830 0.125000 0.604587 66 66 66 255
151.186874 -30.004120 -30.662075 -0.967911 0.240201 -0.073830 0.133571 0.602856 66 66 66 255
151.452393 -29.381548 -32.117527 -0.967911 0.240201 -0.073830 0.133571 0.602856 66 66 66 255
151.452393 -29.381548 -32.117527 -0.711829 -0.611104 -0.346195 0.133571 0.602856 66 66 66 255
150.262344 -28.913483 -30.496838 -0.711829 -0.611104 -0.346195 0.137250 0.598646 66 66 66 255
150.584198 -28.173615 -32.464634 -0.711829 -0.611104 -0.346195 0.137250 0.598646 66 66 66 255
149.146362 -31.200815 -30.610020 0.959269 -0.012605 -0.282214 0.125000 0.595685 66 66 66 255
150.004013 -30.361330 -27.732292 0.959269 -0.012605 -0.282214 0.133548 0.595872 66 66 66 255
149.914124 -32.239746 -27.953938 0.959269 -0.012605 -0.282214 0.125000 0.595685 66 66 66 255
149.132751 -29.324844 -30.426807 0.262583 -0.869086 -0.419212 0.133548 0.595872 66 66 66 255
150.985901 -29.797373 -28.286427 0.262583 -0.869086 -0.419212 0.137250 0.598646 66 66 66 255
150.004013 -30.361330 -27.732292 0.262583 -0.869086 -0.419212 0.133548 0.595872 66 66 66 255
150.739532 -31.783278 -30.720493 -0.902372 0.214617 0.373717 0.125000 0.604587 66 66 66 255
151.725418 -30.846140 -28.878162 -0.902372 0.214617 0.373717 0.133571 0.602856 66 66 66 255
151.186874 -30.004120 -30.662075 -0.902372 0.214617 0.373717 0.133571 0.602856 66 66 66 255
151.186874 -30.004120 -30.662075 -0.763404 -0.645867 -0.008374 0.133571 0.602856 66 66 66 255
150.985901 -29.797373 -28.286427 -0.763404 -0.645867 -0.008374 0.137250 0.598646 66 66 66 255
150.262344 -28.913483 -30.496838 -0.763404 -0.645867 -0.008374 0.137250 0.598646 66 66 66 255
151.725418 -30.846140 -28.878162 -0.721874 -0.647222 0.244952 0.133571 0.602856 66 66 66 255
152.679337 -31.039780 -26.578609 -0.721874 -0.647222 0.244952 0.137250 0.598646 66 66 66 255
150.985901 -29.797373 -28.286427 -0.721874 -0.647222 0.244952 0.137250 0.598646 66 66 66 255
149.914124 -32.239746 -27.953938 0.739862 -0.018739 -0.672498 0.125000 0.595685 66 66 66 255
151.980942 -31.825565 -25.691628 0.739862 -0.018739 -0.672498 0.133548 0.595872 66 66 66 255
151.742737 -33.643860 -25.903027 0.739862 -0.018739 -0.672498 0.125000 0.595685 66 66 66 255
150.004013 -30.361330 -27.732292 0.074284 -0.774760 -0.627877 0.133548 0.595872 66 66 66 255
152.679337 -31.039780 -26.578609 0.074284 -0.774760 -0.627877 0.137250 0.598646 66 66 66 255
151.980942 -31.825565 -25.691628 0.074284 -0.774760 -0.627877 0.133548 0.595872 66 66 66 255
151.281128 -32.702232 -28.780979 -0.641645 0.192464 0.742462 0.125000 0.604587 66 66 66 255
153.083099 -31.862278 -27.441429 -0.641645 0.192464 0.742462 0.133571 0.602856 66 66 66 255
151.725418 -30.846140 -28.878162 -0.641645 0.192464 0.742462 0.133571 0.602856 66 66 66 255
154.339951 -29.790634 -35.510761 0.003218 0.955363 0.295416 0.125000 0.604587 178 136 64 255
151.546402 -29.719515 -35.710331 0.003218 0.955363 0.295416 0.125000 0.595685 178 136 64 255
152.197815 -30.173754 -34.248436 0.003218 0.955363 0.295416 0.125000 0.604587 178 136 64 255
149.583466 -30.378416 -32.932682 0.061275 0.960580 0.271167 0.125000 0.595685 178 136 64 255
152.197815 -30.173754 -34.248436 0.061275 0.960580 0.271167 0.125000 0.604587 178 136 64 255
151.546402 -29.719515 -35.710331 0.061275 0.960580 0.271167 0.125000 0.595685 178 136 64 255
149.146362 -31.200815 -30.610020 0.280817 0.886876 0.366869 0.125000 0.595685 178 136 64 255
151.033478 -31.114422 -32.263348 0.280817 0.886876 0.366869 0.125000 0.604587 178 136 64 255
149.583466 -30.378416 -32.932682 0.280817 0.886876 0.366869 0.125000 0.595685 178 136 64 255
149.914124 -32.239746 -27.953938 0.347636 0.902936 0.252698 0.125000 0.595685 178 136 64 255
150.739532 -31.783278 -30.720493 0.347636 0.902936 0.252698 0.125000 0.604587 178 136 64 255
149.146362 -31.200815 -30.610020 0.347636 0.902936 0.252698 0.125000 0.595685 178 136 64 255
151.742737 -33.643860 -25.903027 0.428595 0.876771 0.218123 0.125000 0.595685 178 136 64 255
151.281128 -32.702232 -28.780979 0.428595 0.876771 0.218123 0.125000 0.604587 178 136 64 255
149.914124 -32.239746 -27.953938 0.428595 0.876771 0.218123 0.125000 0.595685 178 136 64 255
157.843430 -29.124815 -38.025860 -0.116140 0.988204 0.099826 0.125000 0.597527 178 136 64 255
153.688538 -29.719515 -36.972656 -0.116140 0.988204 0.099826 0.125000 0.597527 178 136 64 255
154.339951 -29.790634 -35.510761 -0.116140 0.988204 0.099826 0.125000 0.598097 178 136 64 255
158.586090 -29.179628 -36.223839 -0.459800 0.365367 -0.809376 0.125000 0.610013 147 133 102 255
154.784531 -29.994362 -34.431988 -0.459800 0.365367 -0.809376 0.125000 0.610013 147 133 102 255
157.325684 -24.234312 -33.275406 -0.459800 0.365367 -0.809376 0.150160 0.605334 147 133 102 255
156.977600 -29.060913 -40.126720 -0.137895 0.988466 0.062605 0.125000 0.593782 115 196 116 255
153.176056 -29.704731 -38.334869 -0.137895 0.988466 0.062605 0.125000 0.593782 115 196 116 255
153.688538 -29.719515 -36.972656 -0.137895 0.988466 0.062605 0.125000 0.597527 115 196 116 255
156.977600 -29.060913 -40.126720 0.379607 0.242979 0.892670 0.125000 0.584083 147 133 102 255
157.072601 -23.175413 -41.769115 0.379607 0.242979 0.892670 0.153299 0.584746 147 133 102 255
153.271042 -23.819233 -39.977264 0.379607 0.242979 0.892670 0.153299 0.584746 147 133 102 255
158.586090 -29.179628 -36.223839 -0.128281 0.988264 0.082929 0.125000 0.600740 115 196 116 255
157.975098 -29.134535 -37.706360 -0.128281 0.988264 0.082929 0.125000 0.598097 115 196 116 255
154.339951 -29.790634 -35.510761 -0.128281 0.988264 0.082929 0.125000 0.599536 115 196 116 255
154.784531 -29.994362 -34.431988 0.891714 -0.201103 -0.405468 0.125000 0.610013 147 133 102 255
154.339951 -29.790634 -35.510761 0.891714 -0.201103 -0.405468 0.125000 0.604587 147 133 102 255
154.847946 -27.905834 -35.328384 0.891714 -0.201103 -0.405468 0.133571 0.602856 147 133 102 255
157.325684 -24.234312 -33.275406 0.810720 -0.251514 -0.528652 0.150160 0.605334 147 133 102 255
154.784531 -29.994362 -34.431988 0.810720 -0.251514 -0.528652 0.125000 0.610013 147 133 102 255
154.847946 -27.905834 -35.328384 0.810720 -0.251514 -0.528652 0.133571 0.602856 147 133 102 255
153.688538 -29.719515 -36.972656 0.925508 -0.145258 -0.349764 0.125000 0.595685 147 133 102 255
153.176056 -29.704731 -38.334869 0.925508 -0.145258 -0.349764 0.125000 0.593782 147 133 102 255
153.901169 -27.896181 -37.167252 0.925508 -0.145258 -0.349764 0.133548 0.595872 147 133 102 255
153.176056 -29.704731 -38.334869 0.916440 -0.121216 -0.381373 0.125000 0.593782 147 133 102 255
153.271042 -23.819233 -39.977264 0.916440 -0.121216 -0.381373 0.153299 0.584746 147 133 102 255
153.901169 -27.896181 -37.167252 0.916440 -0.121216 -0.381373 0.133548 0.595872 147 133 102 255
157.325684 -24.234312 -33.275406 0.817416 -0.265900 -0.511007 0.150160 0.605334 147 133 102 255
154.847946 -27.905834 -35.328384 0.817416 -0.265900 -0.511007 0.133571 0.602856 147 133 102 255
154.537781 -27.099861 -36.243916 0.817416 -0.265900 -0.511007 0.137250 0.598646 147 133 102 255
154.537781 -27.099861 -36.243916 0.874798 -0.175930 -0.451418 0.137250 0.598646 147 133 102 255
153.901169 -27.896181 -37.167252 0.874798 -0.175930 -0.451418 0.133548 0.595872 147 133 102 255
153.271042 -23.819233 -39.977264 0.874798 -0.175930 -0.451418 0.153299 0.584746 147 133 102 255
154.847946 -27.905834 -35.328384 -0.279600 -0.594704 -0.753757 0.133571 0.602856 66 66 66 255
152.705811 -28.498642 -34.066059 -0.279600 -0.594704 -0.753757 0.133571 0.602856 66 66 66 255
152.395645 -27.192429 -34.981590 -0.279600 -0.594704 -0.753757 0.137250 0.598646 66 66 66 255
153.688538 -29.719515 -36.972656 0.507422 0.032725 0.861076 0.125000 0.595685 66 66 66 255
153.901169 -27.896181 -37.167252 0.507422 0.032725 0.861076 0.133548 0.595872 66 66 66 255
151.759048 -27.896181 -35.904926 0.507422 0.032725 0.861076 0.133548 0.595872 66 66 66 255
153.901169 -27.896181 -37.167252 0.319703 -0.815323 0.482740 0.133548 0.595872 66 66 66 255
154.537781 -27.099861 -36.243916 0.319703 -0.815323 0.482740 0.137250 0.598646 66 66 66 255
152.395645 -27.192429 -34.981590 0.319703 -0.815323 0.482740 0.137250 0.598646 66 66 66 255
154.339951 -29.790634 -35.510761 -0.524370 0.247717 -0.814661 0.125000 0.604587 66 66 66 255
152.197815 -30.173754 -34.248436 -0.524370 0.247717 -0.814661 0.125000 0.604587 66 66 66 255
152.705811 -28.498642 -34.066059 -0.524370 0.247717 -0.814661 0.133571 0.602856 66 66 66 255
151.546402 -29.719515 -35.710331 0.807305 -0.031258 0.589306 0.125000 0.595685 66 66 66 255
151.759048 -27.896181 -35.904926 0.807305 -0.031258 0.589306 0.133548 0.595872 66 66 66 255
149.535706 -28.523497 -32.892391 0.807305 -0.031258 0.589306 0.133548 0.595872 66 66 66 255
151.759048 -27.896181 -35.904926 0.625586 -0.765220 0.151927 0.133548 0.595872 66 66 66 255
152.395645 -27.192429 -34.981590 0.625586 -0.765220 0.151927 0.137250 0.598646 66 66 66 255
150.584198 -28.173615 -32.464634 0.625586 -0.765220 0.151927 0.137250 0.598646 66 66 66 255
152.197815 -30.173754 -34.248436 -0.882375 0.247012 -0.400499 0.125000 0.604587 66 66 66 255
151.033478 -31.114422 -32.263348 -0.882375 0.247012 -0.400499 0.125000 0.604587 66 66 66 255
151.452393 -29.381548 -32.117527 -0.882375 0.247012 -0.400499 0.133571 0.602856 66 66 66 255
152.705811 -28.498642 -34.066059 -0.548807 -0.570130 -0.611361 0.133571 0.602856 66 66 66 255
151.452393 -29.381548 -32.117527 -0.548807 -0.570130 -0.611361 0.133571 0.602856 66 66 66 255
150.584198 -28.173615 -32.464634 -0.548807 -0.570130 -0.611361 0.137250 0.598646 66 66 66 255
149.583466 -30.378416 -32.932682 0.985526 0.021723 0.168126 0.125000 0.595685 66 66 66 255
149.535706 -28.523497 -32.892391 0.985526 0.021723 0.168126 0.133548 0.595872 66 66 66 255
149.132751 -29.324844 -30.426807 0.985526 0.021723 0.168126 0.133548 0.595872 66 66 66 255
149.535706 -28.523497 -32.892391 0.400595 -0.877298 -0.264332 0.133548 0.595872 66 66 66 255
150.584198 -28.173615 -32.464634 0.400595 -0.877298 -0.264332 0.137250 0.598646 66 66 66 255
150.262344 -28.913483 -30.496838 0.400595 -0.877298 -0.264332 0.137250 0.598646 66 66 66 255
151.033478 -31.114422 -32.263348 -0.966279 0.245506 -0.077664 0.125000 0.604587 66 66 66 255
150.739532 -31.783278 -30.720493 -0.966279 0.245506 -0.077664 0.125000 0.604587 66 66 66 255
151.186874 -30.004120 -30.662075 -0.966279 0.245506 -0.077664 0.133571 0.602856 66 66 66 255
151.452393 -29.381548 -32.117527 -0.734197 -0.565440 -0.375808 0.133571 0.602856 66 66 66 255
151.186874 -30.004120 -30.662075 -0.734197 -0.565440 -0.375808 0.133571 0.602856 66 66 66 255
150.262344 -28.913483 -30.496838 -0.734197 -0.565440 -0.375808 0.137250 0.598646 66 66 66 255
149.146362 -31.200815 -30.610020 0.954831 0.035738 -0.294994 0.125000 0.595685 66 66 66 255
149.132751 -29.324844 -30.426807 0.954831 0.035738 -0.294994 0.133548 0.595872 66 66 66 255
150.004013 -30.361330 -27.732292 0.954831 0.035738 -0.294994 0.133548 0.595872 66 66 66 255
149.132751 -29.324844 -30.426807 0.284237 -0.854521 -0.434745 0.133548 0.595872 66 66 66 255
150.262344 -28.913483 -30.496838 0.284237 -0.854521 -0.434745 0.137250 0.598646 66 66 66 255
150.985901 -29.797373 -28.286427 0.284237 -0.854521 -0.434745 0.137250 0.598646 66 66 66 255
150.739532 -31.783278 -30.720493 -0.901685 0.234844 0.363060 0.125000 0.604587 66 66 66 255
151.281128 -32.702232 -28.780979 -0.901685 0.234844 0.363060 0.125000 0.604587 66 66 66 255
151.725418 -30.846140 -28.878162 -0.901685 0.234844 0.363060 0.133571 0.602856 66 66 66 255
151.186874 -30.004120 -30.662075 -0.822396 -0.568560 -0.020092 0.133571 0.602856 66 66 66 255
151.725418 -30.846140 -28.878162 -0.822396 -0.568560 -0.020092 0.133571 0.602856 66 66 66 255
150.985901 -29.797373 -28.286427 -0.822396 -0.568560 -0.020092 0.137250 0.598646 66 66 66 255
151.725418 -30.846140 -28.878162 -0.736850 -0.626984 0.252869 0.133571 0.602856 66 66 66 255
153.083099 -31.862278 -27.441429 -0.736850 -0.626984 0.252869 0.133571 0.602856 66 66 66 255
152.679337 -31.039780 -26.578609 -0.736850 -0.626984 0.252869 0.137250 0.598646 66 66 66 255
149.914124 -32.239746 -27.953938 0.733429 0.044937 -0.678279 0.125000 0.595685 66 66 66 255
150.004013 -30.361330 -27.732292 0.733429 0.044937 -0.678279 0.133548 0.595872 66 66 66 255
151.980942 -31.825565 -25.691628 0.733429 0.044937 -0.678279 0.133548 0.595872 66 66 66 255
150.004013 -30.361330 -27.732292 0.080490 -0.766372 -0.637334 0.133548 0.595872 66 66 66 255
150.985901 -29.797373 -28.286427 0.080490 -0.766372 -0.637334 0.137250 0.598646 66 66 66 255
152.679337 -31.039780 -26.578609 0.080490 -0.766372 -0.637334 0.137250 0.598646 66 66 66 255
151.281128 -32.702232 -28.780979 -0.647807 0.233117 0.725260 0.125000 0.604587 66 66 66 255
152.648727 -33.761139 -27.219070 -0.647807 0.233117 0.725260 0.125000 0.604587 66 66 66 255
153.083099 -31.862278 -27.441429 -0.647807 0.233117 0.725260 0.133571 0.602856 66 66 66 255
154.339951 -29.790634 -35.510761 0.022683 0.999001 0.038493 0.125000 0.604587 178 136 64 255
153.688538 -29.719515 -36.972656 0.022683 0.999001 0.038493 0.125000 0.595685 178 136 64 255
151.546402 -29.719515 -35.710331 0.022683 0.999001 0.038493 0.125000 0.595685 178 136 64 255
149.583466 -30.378416 -32.932682 0.190725 0.839079 0.509480 0.125000 0.595685 178 136 64 255
151.033478 -31.114422 -32.263348 0.190725 0.839079 0.509480 0.125000 0.604587 178 136 64 255
152.197815 -30.173754 -34.248436 0.190725 0.839079 0.509480 0.125000 0.604587 178 136 64 255
149.146362 -31.200815 -30.610020 0.336385 0.838953 0.427790 0.125000 0.595685 178 136 64 255
150.739532 -31.783278 -30.720493 0.336385 0.838953 0.427790 0.125000 0.604587 178 136 64 255
151.033478 -31.114422 -32.263348 0.336385 0.838953 0.427790 0.125000 0.604587 178 136 64 255
149.914124 -32.239746 -27.953938 0.453296 0.847836 0.275131 0.125000 0.595685 178 136 64 255
151.281128 -32.702232 -28.780979 0.453296 0.847836 0.275131 0.125000 0.604587 178 136 64 255
150.739532 -31.783278 -30.720493 0.453296 0.847836 0.275131 0.125000 0.604587 178 136 64 255
151.742737 -33.643860 -25.903027 0.429773 0.876282 0.217774 0.125000 0.595685 178 136 64 255
152.648727 -33.761139 -27.219070 0.429773 0.876282 0.217774 0.125000 0.604587 178 136 64 255
151.281128 -32.702232 -28.780979 0.429773 0.876282 0.217774 0.125000 0.604587 178 136 64 255
3 0 1 2
3 3 4 5
3 6 7 8
3 9 10 11
3 12 13 14
3 15 16 17
3 18 19 20
3 21 22 23
3 24 25 26
3 27 28 29
3 30 31 32
3 33 34 35
3 36 37 38
3 39 40 41
3 42 43 44
3 45 46 47
3 48 49 50
3 51 52 53
3 54 55 56
3 57 58 59
3 60 61 62
3 63 64 65
3 66 67 68
3 69 70 71
3 72 73 74
3 75 76 77
3 78 79 80
3 81 82 83
3 84 85 86
3 87 88 89
3 90 91 92
3 93 94 95
3 96 97 98
3 99 100 101
3 102 103 104
3 105 106 107
3 108 109 110
3 111 112 113
3 114 115 116
3 117 118 119
3 120 121 122
3 123 124 125
3 126 127 128
3 129 130 131
3 132 133 134
3 135 136 137
3 138 139 140
3 141 142 143
3 144 145 146
3 147 148 149
3 150 151 152
3 153 154 155
3 156 157 158
3 159 160 161
3 162 163 164
3 165 166 167
3 168 169 170
3 171 172 173
3 174 175 176
3 177 178 179
3 180 181 182
3 183 184 185
3 186 187 188
3 189 190 191
3 192 193 194
3 195 196 197
3 198 199 200
