ply
format ascii 1.0
comment Created by Blender 2.92.0 - www.blender.org
element vertex 354
property float x
property float y
property float z
property float nx
property float ny
property float nz
property float s
property float t
property uchar red
property uchar green
property uchar blue
property uchar alpha
element face 118
property list uchar uint vertex_indices
end_header
162.465942 -25.790932 -80.364204 -0.381739 -0.146437 -0.912596 0.150160 0.605334 66 66 66 255
160.678558 -27.426548 -79.354088 -0.381739 -0.146437 -0.912596 0.125000 0.610013 66 66 66 255
160.459427 -25.790932 -79.524879 -0.381739 -0.146437 -0.912596 0.150160 0.605334 66 66 66 255
162.205826 -25.418194 -80.781181 -0.256339 -0.769685 -0.584701 0.162066 0.595440 66 66 66 255
160.459427 -25.790932 -79.524879 -0.256339 -0.769685 -0.584701 0.150160 0.605334 66 66 66 255
160.096741 -25.418194 -79.856537 -0.256339 -0.769685 -0.584701 0.162066 0.595440 66 66 66 255
161.599075 -27.392735 -81.639893 0.422142 -0.240757 0.873975 0.125000 0.584083 66 66 66 255
159.670654 -25.660534 -80.231262 0.422142 -0.240757 0.873975 0.153299 0.584746 66 66 66 255
159.281403 -27.392735 -80.520424 0.422142 -0.240757 0.873975 0.125000 0.584083 66 66 66 255
161.896210 -25.660534 -81.256699 0.177150 -0.905977 0.384477 0.153299 0.584746 66 66 66 255
160.096741 -25.418194 -79.856537 0.177150 -0.905977 0.384477 0.162066 0.595440 66 66 66 255
159.670654 -25.660534 -80.231262 0.177150 -0.905977 0.384477 0.153299 0.584746 66 66 66 255
161.599075 -27.392735 -81.639893 0.007113 0.999819 0.017655 0.125000 0.593782 178 136 64 255
160.678558 -27.426548 -79.354088 0.007113 0.999819 0.017655 0.125000 0.600740 178 136 64 255
162.631073 -27.426548 -80.140762 0.007113 0.999819 0.017655 0.125000 0.600740 178 136 64 255
159.281403 -27.392735 -80.520424 0.800649 -0.257085 0.541173 0.125000 0.584083 66 66 66 255
158.591141 -25.660534 -78.676315 0.800649 -0.257085 0.541173 0.153299 0.584746 66 66 66 255
158.124832 -27.392735 -78.809311 0.800649 -0.257085 0.541173 0.125000 0.584083 66 66 66 255
159.670654 -25.660534 -80.231262 0.331092 -0.915174 0.229859 0.153299 0.584746 66 66 66 255
159.122131 -25.418194 -78.476295 0.331092 -0.915174 0.229859 0.162066 0.595440 66 66 66 255
158.591141 -25.660534 -78.676315 0.331092 -0.915174 0.229859 0.153299 0.584746 66 66 66 255
159.281403 -27.392735 -80.520424 0.015030 0.999827 0.010982 0.125000 0.593782 178 136 64 255
159.843948 -27.426548 -78.211800 0.015030 0.999827 0.010982 0.125000 0.600740 178 136 64 255
160.678558 -27.426548 -79.354088 0.015030 0.999827 0.010982 0.125000 0.600740 178 136 64 255
160.459427 -25.790932 -79.524879 -0.802821 -0.159176 -0.574580 0.150160 0.605334 66 66 66 255
159.843948 -27.426548 -78.211800 -0.802821 -0.159176 -0.574580 0.125000 0.610013 66 66 66 255
159.578598 -25.790932 -78.294159 -0.802821 -0.159176 -0.574580 0.150160 0.605334 66 66 66 255
160.096741 -25.418194 -79.856537 -0.502362 -0.788544 -0.354726 0.162066 0.595440 66 66 66 255
159.578598 -25.790932 -78.294159 -0.502362 -0.788544 -0.354726 0.150160 0.605334 66 66 66 255
159.122131 -25.418194 -78.476295 -0.502362 -0.788544 -0.354726 0.162066 0.595440 66 66 66 255
159.843948 -27.426548 -78.211800 0.019469 0.999809 -0.001567 0.125000 0.600740 178 136 64 255
158.261337 -27.392735 -76.300148 0.019469 0.999809 -0.001567 0.125000 0.593782 178 136 64 255
159.941467 -27.426548 -76.999809 0.019469 0.999809 -0.001567 0.125000 0.600740 178 136 64 255
159.843948 -27.426548 -78.211800 -0.984775 -0.155890 0.076918 0.125000 0.610013 66 66 66 255
159.688705 -25.790932 -76.884460 -0.984775 -0.155890 0.076918 0.150160 0.605334 66 66 66 255
159.578598 -25.790932 -78.294159 -0.984775 -0.155890 0.076918 0.150160 0.605334 66 66 66 255
159.578598 -25.790932 -78.294159 -0.641125 -0.766486 0.038178 0.150160 0.605334 66 66 66 255
159.226944 -25.418194 -76.716194 -0.641125 -0.766486 0.038178 0.162066 0.595440 66 66 66 255
159.122131 -25.418194 -78.476295 -0.641125 -0.766486 0.038178 0.162066 0.595440 66 66 66 255
158.124832 -27.392735 -78.809311 0.966823 -0.249972 -0.052598 0.125000 0.584083 66 66 66 255
158.413467 -26.607651 -77.234901 0.966823 -0.249972 -0.052598 0.137819 0.584383 66 66 66 255
158.261337 -27.392735 -76.300148 0.966823 -0.249972 -0.052598 0.125000 0.584083 66 66 66 255
159.122131 -25.418194 -78.476295 0.421564 -0.906561 -0.020751 0.162066 0.595440 66 66 66 255
158.697693 -25.660534 -76.511620 0.421564 -0.906561 -0.020751 0.153299 0.584746 66 66 66 255
158.591141 -25.660534 -78.676315 0.421564 -0.906561 -0.020751 0.153299 0.584746 66 66 66 255
159.226944 -25.418194 -76.716194 -0.516934 -0.774140 0.365358 0.162066 0.595440 66 66 66 255
160.376450 -25.790932 -75.879570 -0.516934 -0.774140 0.365358 0.150160 0.605334 66 66 66 255
160.110245 -25.418194 -75.466438 -0.516934 -0.774140 0.365358 0.162066 0.595440 66 66 66 255
158.261337 -27.392735 -76.300148 0.771586 -0.244457 -0.587279 0.125000 0.584083 66 66 66 255
159.812210 -25.660534 -74.983597 0.771586 -0.244457 -0.587279 0.153299 0.584746 66 66 66 255
159.592361 -27.392735 -74.551407 0.771586 -0.244457 -0.587279 0.125000 0.584083 66 66 66 255
158.697693 -25.660534 -76.511620 0.338433 -0.908036 -0.246848 0.153299 0.584746 66 66 66 255
160.110245 -25.418194 -75.466438 0.338433 -0.908036 -0.246848 0.162066 0.595440 66 66 66 255
159.812210 -25.660534 -74.983597 0.338433 -0.908036 -0.246848 0.153299 0.584746 66 66 66 255
158.261337 -27.392735 -76.300148 0.015850 0.999822 -0.010258 0.125000 0.593782 178 136 64 255
160.508118 -27.426548 -76.124222 0.015850 0.999822 -0.010258 0.125000 0.600740 178 136 64 255
159.941467 -27.426548 -76.999809 0.015850 0.999822 -0.010258 0.125000 0.600740 178 136 64 255
159.688705 -25.790932 -76.884460 -0.815996 -0.149222 0.558465 0.150160 0.605334 66 66 66 255
160.508118 -27.426548 -76.124222 -0.815996 -0.149222 0.558465 0.125000 0.610013 66 66 66 255
160.376450 -25.790932 -75.879570 -0.815996 -0.149222 0.558465 0.150160 0.605334 66 66 66 255
159.812210 -25.660534 -74.983597 0.212424 -0.916185 -0.339825 0.153299 0.584746 66 66 66 255
161.608688 -25.418194 -74.513985 0.212424 -0.916185 -0.339825 0.162066 0.595440 66 66 66 255
161.418930 -25.660534 -73.979240 0.212424 -0.916185 -0.339825 0.153299 0.584746 66 66 66 255
159.592361 -27.392735 -74.551407 0.010180 0.999827 -0.015568 0.125000 0.593782 178 136 64 255
161.859222 -27.426548 -75.240768 0.010180 0.999827 -0.015568 0.125000 0.600740 178 136 64 255
160.508118 -27.426548 -76.124222 0.010180 0.999827 -0.015568 0.125000 0.600740 178 136 64 255
160.376450 -25.790932 -75.879570 -0.534625 -0.160627 0.829684 0.150160 0.605334 66 66 66 255
161.859222 -27.426548 -75.240768 -0.534625 -0.160627 0.829684 0.125000 0.610013 66 66 66 255
161.781982 -25.790932 -74.973885 -0.534625 -0.160627 0.829684 0.150160 0.605334 66 66 66 255
160.110245 -25.418194 -75.466438 -0.328545 -0.790500 0.516883 0.162066 0.595440 66 66 66 255
161.781982 -25.790932 -74.973885 -0.328545 -0.790500 0.516883 0.150160 0.605334 66 66 66 255
161.608688 -25.418194 -74.513985 -0.328545 -0.790500 0.516883 0.162066 0.595440 66 66 66 255
159.592361 -27.392735 -74.551407 0.503814 -0.259069 -0.824048 0.125000 0.584083 66 66 66 255
161.418930 -25.660534 -73.979240 0.503814 -0.259069 -0.824048 0.153299 0.584746 66 66 66 255
161.294952 -27.392735 -73.510460 0.503814 -0.259069 -0.824048 0.125000 0.584083 66 66 66 255
161.781982 -25.790932 -74.973885 -0.323916 -0.158137 0.932776 0.150160 0.605334 66 66 66 255
163.272736 -27.426548 -74.733498 -0.323916 -0.158137 0.932776 0.125000 0.610013 66 66 66 255
163.274292 -25.790932 -74.455666 -0.323916 -0.158137 0.932776 0.150160 0.605334 66 66 66 255
161.608688 -25.418194 -74.513985 -0.196652 -0.787327 0.584332 0.162066 0.595440 66 66 66 255
163.274292 -25.790932 -74.455666 -0.196652 -0.787327 0.584332 0.150160 0.605334 66 66 66 255
163.238434 -25.418194 -73.965508 -0.196652 -0.787327 0.584332 0.162066 0.595440 66 66 66 255
161.294952 -27.392735 -73.510460 0.285732 -0.256096 -0.923456 0.125000 0.584083 66 66 66 255
163.208008 -25.660534 -73.398911 0.285732 -0.256096 -0.923456 0.153299 0.584746 66 66 66 255
163.221954 -27.392735 -72.914215 0.285732 -0.256096 -0.923456 0.125000 0.584083 66 66 66 255
161.418930 -25.660534 -73.979240 0.124725 -0.914656 -0.384511 0.153299 0.584746 66 66 66 255
163.238434 -25.418194 -73.965508 0.124725 -0.914656 -0.384511 0.162066 0.595440 66 66 66 255
163.208008 -25.660534 -73.398911 0.124725 -0.914656 -0.384511 0.153299 0.584746 66 66 66 255
161.294952 -27.392735 -73.510460 0.006277 0.999827 -0.017491 0.125000 0.593782 178 136 64 255
163.272736 -27.426548 -74.733498 0.006277 0.999827 -0.017491 0.125000 0.600740 178 136 64 255
161.859222 -27.426548 -75.240768 0.006277 0.999827 -0.017491 0.125000 0.600740 178 136 64 255
163.221954 -27.392735 -72.914215 0.294229 -0.261304 -0.919320 0.125000 0.584083 66 66 66 255
164.636765 -25.660534 -72.953758 0.294229 -0.261304 -0.919320 0.153299 0.584746 66 66 66 255
164.376266 -27.392735 -72.544777 0.294229 -0.261304 -0.919320 0.125000 0.584083 66 66 66 255
163.238434 -25.418194 -73.965508 0.119941 -0.915106 -0.384961 0.162066 0.595440 66 66 66 255
164.636765 -25.660534 -72.953758 0.119941 -0.915106 -0.384961 0.153299 0.584746 66 66 66 255
163.208008 -25.660534 -73.398911 0.119941 -0.915106 -0.384961 0.153299 0.584746 66 66 66 255
163.272736 -27.426548 -74.733498 0.006079 0.999810 -0.018511 0.125000 0.600740 178 136 64 255
164.376266 -27.392735 -72.544777 0.006079 0.999810 -0.018511 0.125000 0.593782 178 136 64 255
165.439377 -27.426548 -74.021988 0.006079 0.999810 -0.018511 0.125000 0.600740 178 136 64 255
163.274292 -25.790932 -74.455666 -0.309705 -0.161515 0.937014 0.150160 0.605334 66 66 66 255
165.439377 -27.426548 -74.021988 -0.309705 -0.161515 0.937014 0.125000 0.610013 66 66 66 255
165.284729 -25.790932 -73.791168 -0.309705 -0.161515 0.937014 0.150160 0.605334 66 66 66 255
163.274292 -25.790932 -74.455666 -0.188305 -0.788341 0.585713 0.150160 0.605334 66 66 66 255
164.979950 -25.418194 -73.405617 -0.188305 -0.788341 0.585713 0.162066 0.595440 66 66 66 255
163.238434 -25.418194 -73.965508 -0.188305 -0.788341 0.585713 0.162066 0.595440 66 66 66 255
165.439377 -27.426548 -74.021988 -0.690682 -0.164676 0.704159 0.125000 0.610013 66 66 66 255
166.477829 -25.790932 -72.620903 -0.690682 -0.164676 0.704159 0.150160 0.605334 66 66 66 255
165.284729 -25.790932 -73.791168 -0.690682 -0.164676 0.704159 0.150160 0.605334 66 66 66 255
165.284729 -25.790932 -73.791168 -0.406160 -0.796117 0.448588 0.150160 0.605334 66 66 66 255
166.008820 -25.418194 -72.474060 -0.406160 -0.796117 0.448588 0.162066 0.595440 66 66 66 255
164.979950 -25.418194 -73.405617 -0.406160 -0.796117 0.448588 0.162066 0.595440 66 66 66 255
164.636765 -25.660534 -72.953758 0.542072 -0.269450 -0.795961 0.153299 0.584746 66 66 66 255
165.025085 -27.392735 -72.102913 0.542072 -0.269450 -0.795961 0.125000 0.584083 66 66 66 255
164.376266 -27.392735 -72.544777 0.542072 -0.269450 -0.795961 0.125000 0.584083 66 66 66 255
164.979950 -25.418194 -73.405617 0.243718 -0.919607 -0.308099 0.162066 0.595440 66 66 66 255
165.470718 -25.660534 -72.294067 0.243718 -0.919607 -0.308099 0.153299 0.584746 66 66 66 255
164.636765 -25.660534 -72.953758 0.243718 -0.919607 -0.308099 0.153299 0.584746 66 66 66 255
165.439377 -27.426548 -74.021988 0.014500 0.999790 -0.014486 0.125000 0.600740 178 136 64 255
165.025085 -27.392735 -72.102913 0.014500 0.999790 -0.014486 0.125000 0.593782 178 136 64 255
166.735641 -27.426548 -72.724487 0.014500 0.999790 -0.014486 0.125000 0.600740 178 136 64 255
165.470718 -25.660534 -72.294067 0.962294 -0.257301 -0.088239 0.153299 0.584746 66 66 66 255
165.116272 -27.392735 -71.108475 0.962294 -0.257301 -0.088239 0.125000 0.584083 66 66 66 255
165.025085 -27.392735 -72.102913 0.962294 -0.257301 -0.088239 0.125000 0.584083 66 66 66 255
166.008820 -25.418194 -72.474060 0.400917 -0.915482 -0.034024 0.162066 0.595440 66 66 66 255
165.582611 -25.660534 -70.975594 0.400917 -0.915482 -0.034024 0.153299 0.584746 66 66 66 255
165.470718 -25.660534 -72.294067 0.400917 -0.915482 -0.034024 0.153299 0.584746 66 66 66 255
166.735641 -27.426548 -72.724487 0.019977 0.999800 -0.000902 0.125000 0.600740 178 136 64 255
165.116272 -27.392735 -71.108475 0.019977 0.999800 -0.000902 0.125000 0.593782 178 136 64 255
166.835526 -27.426548 -70.511391 0.019977 0.999800 -0.000902 0.125000 0.600740 178 136 64 255
166.477829 -25.790932 -72.620903 -0.986458 -0.157743 0.044929 0.150160 0.605334 66 66 66 255
166.548737 -25.993252 -71.774399 -0.986458 -0.157743 0.044929 0.147048 0.605913 66 66 66 255
166.570160 -25.790932 -70.593704 -0.986458 -0.157743 0.044929 0.150160 0.605334 66 66 66 255
166.477829 -25.790932 -72.620903 -0.614426 -0.788062 0.037924 0.150160 0.605334 66 66 66 255
166.113647 -25.418194 -70.775711 -0.614426 -0.788062 0.037924 0.162066 0.595440 66 66 66 255
166.008820 -25.418194 -72.474060 -0.614426 -0.788062 0.037924 0.162066 0.595440 66 66 66 255
158.568558 -26.010729 -77.246681 0.965447 -0.256231 -0.047514 0.147572 0.584612 66 66 66 255
158.475769 -26.154293 -78.357864 0.965447 -0.256231 -0.047514 0.145230 0.584557 66 66 66 255
158.591141 -25.660534 -78.676315 0.965447 -0.256231 -0.047514 0.153299 0.584746 66 66 66 255
158.526367 -26.169636 -77.246849 0.966532 -0.251156 -0.052311 0.144972 0.584551 255 101 91 255
158.507660 -26.322512 -76.858505 0.966532 -0.251156 -0.052311 0.142480 0.584493 255 101 91 255
158.465729 -26.403584 -77.244011 0.966532 -0.251156 -0.052311 0.141151 0.584462 255 101 91 255
166.740891 -27.115004 -71.500282 -0.986385 -0.158311 0.044518 0.129793 0.609122 66 66 66 255
166.625656 -26.668127 -72.464394 -0.986385 -0.158311 0.044518 0.136667 0.607843 66 66 66 255
166.735641 -27.426548 -72.724487 -0.986385 -0.158311 0.044518 0.125000 0.610013 66 66 66 255
166.664902 -26.673136 -71.612648 -0.986431 -0.157916 0.044910 0.136590 0.607857 255 101 91 255
166.649796 -26.415466 -71.038406 -0.986431 -0.157916 0.044910 0.140553 0.607120 255 101 91 255
166.596680 -26.274340 -71.708839 -0.986431 -0.157916 0.044910 0.142725 0.606717 255 101 91 255
162.465942 -25.790932 -80.364204 -0.368758 -0.162263 -0.915253 0.150160 0.605334 66 66 66 255
162.631073 -27.426548 -80.140762 -0.368758 -0.162263 -0.915253 0.125000 0.610013 66 66 66 255
160.678558 -27.426548 -79.354088 -0.368758 -0.162263 -0.915253 0.125000 0.610013 66 66 66 255
162.205826 -25.418194 -80.781181 -0.235135 -0.792926 -0.562120 0.162066 0.595440 66 66 66 255
162.465942 -25.790932 -80.364204 -0.235135 -0.792926 -0.562120 0.150160 0.605334 66 66 66 255
160.459427 -25.790932 -79.524879 -0.235135 -0.792926 -0.562120 0.150160 0.605334 66 66 66 255
161.599075 -27.392735 -81.639893 0.403729 -0.263093 0.876233 0.125000 0.584083 66 66 66 255
161.896210 -25.660534 -81.256699 0.403729 -0.263093 0.876233 0.153299 0.584746 66 66 66 255
159.670654 -25.660534 -80.231262 0.403729 -0.263093 0.876233 0.153299 0.584746 66 66 66 255
161.896210 -25.660534 -81.256699 0.159509 -0.917704 0.363835 0.153299 0.584746 66 66 66 255
162.205826 -25.418194 -80.781181 0.159509 -0.917704 0.363835 0.162066 0.595440 66 66 66 255
160.096741 -25.418194 -79.856537 0.159509 -0.917704 0.363835 0.162066 0.595440 66 66 66 255
161.599075 -27.392735 -81.639893 0.008869 0.999792 0.018361 0.125000 0.593782 178 136 64 255
159.281403 -27.392735 -80.520424 0.008869 0.999792 0.018361 0.125000 0.593782 178 136 64 255
160.678558 -27.426548 -79.354088 0.008869 0.999792 0.018361 0.125000 0.600740 178 136 64 255
159.281403 -27.392735 -80.520424 0.791067 -0.269443 0.549194 0.125000 0.584083 66 66 66 255
159.670654 -25.660534 -80.231262 0.791067 -0.269443 0.549194 0.153299 0.584746 66 66 66 255
158.591141 -25.660534 -78.676315 0.791067 -0.269443 0.549194 0.153299 0.584746 66 66 66 255
159.670654 -25.660534 -80.231262 0.322388 -0.918828 0.227643 0.153299 0.584746 66 66 66 255
160.096741 -25.418194 -79.856537 0.322388 -0.918828 0.227643 0.162066 0.595440 66 66 66 255
159.122131 -25.418194 -78.476295 0.322388 -0.918828 0.227643 0.162066 0.595440 66 66 66 255
159.281403 -27.392735 -80.520424 0.015924 0.999815 0.010764 0.125000 0.593782 178 136 64 255
158.124832 -27.392735 -78.809311 0.015924 0.999815 0.010764 0.125000 0.593782 178 136 64 255
159.843948 -27.426548 -78.211800 0.015924 0.999815 0.010764 0.125000 0.600740 178 136 64 255
160.459427 -25.790932 -79.524879 -0.796046 -0.167384 -0.581629 0.150160 0.605334 66 66 66 255
160.678558 -27.426548 -79.354088 -0.796046 -0.167384 -0.581629 0.125000 0.610013 66 66 66 255
159.843948 -27.426548 -78.211800 -0.796046 -0.167384 -0.581629 0.125000 0.610013 66 66 66 255
160.096741 -25.418194 -79.856537 -0.493632 -0.794676 -0.353294 0.162066 0.595440 66 66 66 255
160.459427 -25.790932 -79.524879 -0.493632 -0.794676 -0.353294 0.150160 0.605334 66 66 66 255
159.578598 -25.790932 -78.294159 -0.493632 -0.794676 -0.353294 0.150160 0.605334 66 66 66 255
159.843948 -27.426548 -78.211800 0.020044 0.999799 -0.001090 0.125000 0.600740 178 136 64 255
158.124832 -27.392735 -78.809311 0.020044 0.999799 -0.001090 0.125000 0.593782 178 136 64 255
158.261337 -27.392735 -76.300148 0.020044 0.999799 -0.001090 0.125000 0.593782 178 136 64 255
159.843948 -27.426548 -78.211800 -0.984307 -0.157696 0.079199 0.125000 0.610013 66 66 66 255
159.941467 -27.426548 -76.999809 -0.984307 -0.157696 0.079199 0.125000 0.610013 66 66 66 255
159.688705 -25.790932 -76.884460 -0.984307 -0.157696 0.079199 0.150160 0.605334 66 66 66 255
159.578598 -25.790932 -78.294159 -0.616694 -0.785728 0.048168 0.150160 0.605334 66 66 66 255
159.688705 -25.790932 -76.884460 -0.616694 -0.785728 0.048168 0.150160 0.605334 66 66 66 255
159.226944 -25.418194 -76.716194 -0.616694 -0.785728 0.048168 0.162066 0.595440 66 66 66 255
158.124832 -27.392735 -78.809311 0.965442 -0.256249 -0.047515 0.125000 0.584083 66 66 66 255
158.591141 -25.660534 -78.676315 0.965442 -0.256249 -0.047515 0.153299 0.584746 66 66 66 255
158.397186 -26.441185 -78.407150 0.965442 -0.256249 -0.047515 0.140542 0.584447 66 66 66 255
158.397186 -26.441185 -78.407150 0.967050 -0.249844 -0.048910 0.140542 0.584447 66 66 66 255
158.465729 -26.403584 -77.244011 0.967050 -0.249844 -0.048910 0.141151 0.584462 66 66 66 255
158.413467 -26.607651 -77.234901 0.967050 -0.249844 -0.048910 0.137819 0.584383 66 66 66 255
158.507660 -26.322512 -76.858505 0.966822 -0.249974 -0.052614 0.142480 0.584493 66 66 66 255
158.697693 -25.660534 -76.511620 0.966822 -0.249974 -0.052614 0.153299 0.584746 66 66 66 255
158.261337 -27.392735 -76.300148 0.966822 -0.249974 -0.052614 0.125000 0.584083 66 66 66 255
158.124832 -27.392735 -78.809311 0.965566 -0.255372 -0.049675 0.125000 0.584083 66 66 66 255
158.397186 -26.441185 -78.407150 0.965566 -0.255372 -0.049675 0.140542 0.584447 66 66 66 255
158.413467 -26.607651 -77.234901 0.965566 -0.255372 -0.049675 0.137819 0.584383 66 66 66 255
158.413467 -26.607651 -77.234901 0.966827 -0.249961 -0.052588 0.137819 0.584383 66 66 66 255
158.507660 -26.322512 -76.858505 0.966827 -0.249961 -0.052588 0.142480 0.584493 66 66 66 255
158.261337 -27.392735 -76.300148 0.966827 -0.249961 -0.052588 0.125000 0.584083 66 66 66 255
159.122131 -25.418194 -78.476295 0.408414 -0.912473 -0.024321 0.162066 0.595440 66 66 66 255
159.226944 -25.418194 -76.716194 0.408414 -0.912473 -0.024321 0.162066 0.595440 66 66 66 255
158.697693 -25.660534 -76.511620 0.408414 -0.912473 -0.024321 0.153299 0.584746 66 66 66 255
159.226944 -25.418194 -76.716194 -0.508718 -0.787392 0.348165 0.162066 0.595440 66 66 66 255
159.688705 -25.790932 -76.884460 -0.508718 -0.787392 0.348165 0.150160 0.605334 66 66 66 255
160.376450 -25.790932 -75.879570 -0.508718 -0.787392 0.348165 0.150160 0.605334 66 66 66 255
158.261337 -27.392735 -76.300148 0.778912 -0.265573 -0.568127 0.125000 0.584083 66 66 66 255
158.697693 -25.660534 -76.511620 0.778912 -0.265573 -0.568127 0.153299 0.584746 66 66 66 255
159.812210 -25.660534 -74.983597 0.778912 -0.265573 -0.568127 0.153299 0.584746 66 66 66 255
158.697693 -25.660534 -76.511620 0.329136 -0.915180 -0.232626 0.153299 0.584746 66 66 66 255
159.226944 -25.418194 -76.716194 0.329136 -0.915180 -0.232626 0.162066 0.595440 66 66 66 255
160.110245 -25.418194 -75.466438 0.329136 -0.915180 -0.232626 0.162066 0.595440 66 66 66 255
158.261337 -27.392735 -76.300148 0.016000 0.999798 -0.012178 0.125000 0.593782 178 136 64 255
159.592361 -27.392735 -74.551407 0.016000 0.999798 -0.012178 0.125000 0.593782 178 136 64 255
160.508118 -27.426548 -76.124222 0.016000 0.999798 -0.012178 0.125000 0.600740 178 136 64 255
159.688705 -25.790932 -76.884460 -0.827919 -0.165730 0.535801 0.150160 0.605334 66 66 66 255
159.941467 -27.426548 -76.999809 -0.827919 -0.165730 0.535801 0.125000 0.610013 66 66 66 255
160.508118 -27.426548 -76.124222 -0.827919 -0.165730 0.535801 0.125000 0.610013 66 66 66 255
159.812210 -25.660534 -74.983597 0.210711 -0.919624 -0.331501 0.153299 0.584746 66 66 66 255
160.110245 -25.418194 -75.466438 0.210711 -0.919624 -0.331501 0.162066 0.595440 66 66 66 255
161.608688 -25.418194 -74.513985 0.210711 -0.919624 -0.331501 0.162066 0.595440 66 66 66 255
159.592361 -27.392735 -74.551407 0.009960 0.999818 -0.016290 0.125000 0.593782 178 136 64 255
161.294952 -27.392735 -73.510460 0.009960 0.999818 -0.016290 0.125000 0.593782 178 136 64 255
161.859222 -27.426548 -75.240768 0.009960 0.999818 -0.016290 0.125000 0.600740 178 136 64 255
160.376450 -25.790932 -75.879570 -0.539593 -0.166873 0.825223 0.150160 0.605334 66 66 66 255
160.508118 -27.426548 -76.124222 -0.539593 -0.166873 0.825223 0.125000 0.610013 66 66 66 255
161.859222 -27.426548 -75.240768 -0.539593 -0.166873 0.825223 0.125000 0.610013 66 66 66 255
160.110245 -25.418194 -75.466438 -0.327314 -0.796771 0.507959 0.162066 0.595440 66 66 66 255
160.376450 -25.790932 -75.879570 -0.327314 -0.796771 0.507959 0.150160 0.605334 66 66 66 255
161.781982 -25.790932 -74.973885 -0.327314 -0.796771 0.507959 0.150160 0.605334 66 66 66 255
159.592361 -27.392735 -74.551407 0.510580 -0.268597 -0.816801 0.125000 0.584083 66 66 66 255
159.812210 -25.660534 -74.983597 0.510580 -0.268597 -0.816801 0.153299 0.584746 66 66 66 255
161.418930 -25.660534 -73.979240 0.510580 -0.268597 -0.816801 0.153299 0.584746 66 66 66 255
161.781982 -25.790932 -74.973885 -0.333028 -0.167146 0.927984 0.150160 0.605334 66 66 66 255
161.859222 -27.426548 -75.240768 -0.333028 -0.167146 0.927984 0.125000 0.610013 66 66 66 255
163.272736 -27.426548 -74.733498 -0.333028 -0.167146 0.927984 0.125000 0.610013 66 66 66 255
161.608688 -25.418194 -74.513985 -0.198275 -0.796669 0.570969 0.162066 0.595440 66 66 66 255
161.781982 -25.790932 -74.973885 -0.198275 -0.796669 0.570969 0.150160 0.605334 66 66 66 255
163.274292 -25.790932 -74.455666 -0.198275 -0.796669 0.570969 0.150160 0.605334 66 66 66 255
161.294952 -27.392735 -73.510460 0.297158 -0.269189 -0.916097 0.125000 0.584083 66 66 66 255
161.418930 -25.660534 -73.979240 0.297158 -0.269189 -0.916097 0.153299 0.584746 66 66 66 255
163.208008 -25.660534 -73.398911 0.297158 -0.269189 -0.916097 0.153299 0.584746 66 66 66 255
161.418930 -25.660534 -73.979240 0.125294 -0.919617 -0.372299 0.153299 0.584746 66 66 66 255
161.608688 -25.418194 -74.513985 0.125294 -0.919617 -0.372299 0.162066 0.595440 66 66 66 255
163.238434 -25.418194 -73.965508 0.125294 -0.919617 -0.372299 0.162066 0.595440 66 66 66 255
161.294952 -27.392735 -73.510460 0.005701 0.999814 -0.018424 0.125000 0.593782 178 136 64 255
163.221954 -27.392735 -72.914215 0.005701 0.999814 -0.018424 0.125000 0.593782 178 136 64 255
163.272736 -27.426548 -74.733498 0.005701 0.999814 -0.018424 0.125000 0.600740 178 136 64 255
163.221954 -27.392735 -72.914215 0.287555 -0.255936 -0.922935 0.125000 0.584083 66 66 66 255
163.208008 -25.660534 -73.398911 0.287555 -0.255936 -0.922935 0.153299 0.584746 66 66 66 255
164.636765 -25.660534 -72.953758 0.287555 -0.255936 -0.922935 0.153299 0.584746 66 66 66 255
163.238434 -25.418194 -73.965508 0.126247 -0.910967 -0.392684 0.162066 0.595440 66 66 66 255
164.979950 -25.418194 -73.405617 0.126247 -0.910967 -0.392684 0.162066 0.595440 66 66 66 255
164.636765 -25.660534 -72.953758 0.126247 -0.910967 -0.392684 0.153299 0.584746 66 66 66 255
163.272736 -27.426548 -74.733498 0.005895 0.999813 -0.018418 0.125000 0.600740 178 136 64 255
163.221954 -27.392735 -72.914215 0.005895 0.999813 -0.018418 0.125000 0.593782 178 136 64 255
164.376266 -27.392735 -72.544777 0.005895 0.999813 -0.018418 0.125000 0.593782 178 136 64 255
163.274292 -25.790932 -74.455666 -0.308029 -0.159037 0.937990 0.150160 0.605334 66 66 66 255
163.272736 -27.426548 -74.733498 -0.308029 -0.159037 0.937990 0.125000 0.610013 66 66 66 255
165.439377 -27.426548 -74.021988 -0.308029 -0.159037 0.937990 0.125000 0.610013 66 66 66 255
163.274292 -25.790932 -74.455666 -0.197127 -0.778098 0.596409 0.150160 0.605334 66 66 66 255
165.284729 -25.790932 -73.791168 -0.197127 -0.778098 0.596409 0.150160 0.605334 66 66 66 255
164.979950 -25.418194 -73.405617 -0.197127 -0.778098 0.596409 0.162066 0.595440 66 66 66 255
165.439377 -27.426548 -74.021988 -0.698961 -0.154396 0.698295 0.125000 0.610013 66 66 66 255
166.735641 -27.426548 -72.724487 -0.698961 -0.154396 0.698295 0.125000 0.610013 66 66 66 255
166.477829 -25.790932 -72.620903 -0.698961 -0.154396 0.698295 0.150160 0.605334 66 66 66 255
165.284729 -25.790932 -73.791168 -0.456685 -0.758063 0.465596 0.150160 0.605334 66 66 66 255
166.477829 -25.790932 -72.620903 -0.456685 -0.758063 0.465596 0.150160 0.605334 66 66 66 255
166.008820 -25.418194 -72.474060 -0.456685 -0.758063 0.465596 0.162066 0.595440 66 66 66 255
164.636765 -25.660534 -72.953758 0.602418 -0.239020 -0.761552 0.153299 0.584746 66 66 66 255
165.470718 -25.660534 -72.294067 0.602418 -0.239020 -0.761552 0.153299 0.584746 66 66 66 255
165.025085 -27.392735 -72.102913 0.602418 -0.239020 -0.761552 0.125000 0.584083 66 66 66 255
164.979950 -25.418194 -73.405617 0.295321 -0.897997 -0.326171 0.162066 0.595440 66 66 66 255
166.008820 -25.418194 -72.474060 0.295321 -0.897997 -0.326171 0.162066 0.595440 66 66 66 255
165.470718 -25.660534 -72.294067 0.295321 -0.897997 -0.326171 0.153299 0.584746 66 66 66 255
165.439377 -27.426548 -74.021988 0.010460 0.999827 -0.015359 0.125000 0.600740 178 136 64 255
164.376266 -27.392735 -72.544777 0.010460 0.999827 -0.015359 0.125000 0.593782 178 136 64 255
165.025085 -27.392735 -72.102913 0.010460 0.999827 -0.015359 0.125000 0.593782 178 136 64 255
165.470718 -25.660534 -72.294067 0.963940 -0.253234 -0.081805 0.153299 0.584746 66 66 66 255
165.582611 -25.660534 -70.975594 0.963940 -0.253234 -0.081805 0.153299 0.584746 66 66 66 255
165.116272 -27.392735 -71.108475 0.963940 -0.253234 -0.081805 0.125000 0.584083 66 66 66 255
166.008820 -25.418194 -72.474060 0.423143 -0.905686 -0.026118 0.162066 0.595440 66 66 66 255
166.113647 -25.418194 -70.775711 0.423143 -0.905686 -0.026118 0.162066 0.595440 66 66 66 255
165.582611 -25.660534 -70.975594 0.423143 -0.905686 -0.026118 0.153299 0.584746 66 66 66 255
166.735641 -27.426548 -72.724487 0.019127 0.999816 -0.001754 0.125000 0.600740 178 136 64 255
165.025085 -27.392735 -72.102913 0.019127 0.999816 -0.001754 0.125000 0.593782 178 136 64 255
165.116272 -27.392735 -71.108475 0.019127 0.999816 -0.001754 0.125000 0.593782 178 136 64 255
166.477829 -25.790932 -72.620903 -0.986394 -0.158167 0.044822 0.150160 0.605334 66 66 66 255
166.549026 -26.192738 -72.471954 -0.986394 -0.158167 0.044822 0.143980 0.606483 66 66 66 255
166.548737 -25.993252 -71.774399 -0.986394 -0.158167 0.044822 0.147048 0.605913 66 66 66 255
166.549026 -26.192738 -72.471954 -0.986454 -0.157821 0.044723 0.143980 0.606483 66 66 66 255
166.596680 -26.274340 -71.708839 -0.986454 -0.157821 0.044723 0.142725 0.606717 66 66 66 255
166.548737 -25.993252 -71.774399 -0.986454 -0.157821 0.044723 0.147048 0.605913 66 66 66 255
166.548737 -25.993252 -71.774399 -0.986451 -0.157781 0.044936 0.147048 0.605913 66 66 66 255
166.649796 -26.415466 -71.038406 -0.986451 -0.157781 0.044936 0.140553 0.607120 66 66 66 255
166.570160 -25.790932 -70.593704 -0.986451 -0.157781 0.044936 0.150160 0.605334 66 66 66 255
166.477829 -25.790932 -72.620903 -0.639122 -0.768554 0.029110 0.150160 0.605334 66 66 66 255
166.570160 -25.790932 -70.593704 -0.639122 -0.768554 0.029110 0.150160 0.605334 66 66 66 255
166.113647 -25.418194 -70.775711 -0.639122 -0.768554 0.029110 0.162066 0.595440 66 66 66 255
158.697693 -25.660534 -76.511620 0.966631 -0.251219 -0.050132 0.153299 0.584746 66 66 66 255
158.507660 -26.322512 -76.858505 0.966631 -0.251219 -0.050132 0.142480 0.584493 66 66 66 255
158.568558 -26.010729 -77.246681 0.966631 -0.251219 -0.050132 0.147572 0.584612 66 66 66 255
158.568558 -26.010729 -77.246681 0.965435 -0.256277 -0.047507 0.147572 0.584612 66 66 66 255
158.526367 -26.169636 -77.246849 0.965435 -0.256277 -0.047507 0.144972 0.584551 66 66 66 255
158.475769 -26.154293 -78.357864 0.965435 -0.256277 -0.047507 0.145230 0.584557 66 66 66 255
158.475769 -26.154293 -78.357864 0.965434 -0.256269 -0.047578 0.145230 0.584557 66 66 66 255
158.397186 -26.441185 -78.407150 0.965434 -0.256269 -0.047578 0.140542 0.584447 66 66 66 255
158.591141 -25.660534 -78.676315 0.965434 -0.256269 -0.047578 0.153299 0.584746 66 66 66 255
158.591141 -25.660534 -78.676315 0.965439 -0.256260 -0.047521 0.153299 0.584746 66 66 66 255
158.697693 -25.660534 -76.511620 0.965439 -0.256260 -0.047521 0.153299 0.584746 66 66 66 255
158.568558 -26.010729 -77.246681 0.965439 -0.256260 -0.047521 0.147572 0.584612 66 66 66 255
158.397186 -26.441185 -78.407150 0.965430 -0.256090 -0.048613 0.140542 0.584447 255 101 91 255
158.475769 -26.154293 -78.357864 0.965430 -0.256090 -0.048613 0.145230 0.584557 255 101 91 255
158.465729 -26.403584 -77.244011 0.965430 -0.256090 -0.048613 0.141151 0.584462 255 101 91 255
158.475769 -26.154293 -78.357864 0.966779 -0.251162 -0.047498 0.145230 0.584557 255 101 91 255
158.526367 -26.169636 -77.246849 0.966779 -0.251162 -0.047498 0.144972 0.584551 255 101 91 255
158.465729 -26.403584 -77.244011 0.966779 -0.251162 -0.047498 0.141151 0.584462 255 101 91 255
158.526367 -26.169636 -77.246849 0.965099 -0.256181 -0.054358 0.144972 0.584551 255 101 91 255
158.568558 -26.010729 -77.246681 0.965099 -0.256181 -0.054358 0.147572 0.584612 255 101 91 255
158.507660 -26.322512 -76.858505 0.965099 -0.256181 -0.054358 0.142480 0.584493 255 101 91 255
158.507660 -26.322512 -76.858505 0.966829 -0.249951 -0.052596 0.142480 0.584493 255 101 91 255
158.413467 -26.607651 -77.234901 0.966829 -0.249951 -0.052596 0.137819 0.584383 255 101 91 255
158.465729 -26.403584 -77.244011 0.966829 -0.249951 -0.052596 0.141151 0.584462 255 101 91 255
166.835526 -27.426548 -70.511391 -0.986451 -0.157782 0.044938 0.125000 0.610013 66 66 66 255
166.570160 -25.790932 -70.593704 -0.986451 -0.157782 0.044938 0.150160 0.605334 66 66 66 255
166.649796 -26.415466 -71.038406 -0.986451 -0.157782 0.044938 0.140553 0.607120 66 66 66 255
166.740891 -27.115004 -71.500282 -0.986385 -0.158310 0.044518 0.129793 0.609122 66 66 66 255
166.664902 -26.673136 -71.612648 -0.986385 -0.158310 0.044518 0.136590 0.607857 66 66 66 255
166.625656 -26.668127 -72.464394 -0.986385 -0.158310 0.044518 0.136667 0.607843 66 66 66 255
166.835526 -27.426548 -70.511391 -0.986440 -0.157933 0.044645 0.125000 0.610013 66 66 66 255
166.649796 -26.415466 -71.038406 -0.986440 -0.157933 0.044645 0.140553 0.607120 66 66 66 255
166.740891 -27.115004 -71.500282 -0.986440 -0.157933 0.044645 0.129793 0.609122 66 66 66 255
166.549026 -26.192738 -72.471954 -0.986390 -0.158292 0.044484 0.143980 0.606483 66 66 66 255
166.477829 -25.790932 -72.620903 -0.986390 -0.158292 0.044484 0.150160 0.605334 66 66 66 255
166.625656 -26.668127 -72.464394 -0.986390 -0.158292 0.044484 0.136667 0.607843 66 66 66 255
166.477829 -25.790932 -72.620903 -0.986390 -0.158295 0.044468 0.150160 0.605334 66 66 66 255
166.735641 -27.426548 -72.724487 -0.986390 -0.158295 0.044468 0.125000 0.610013 66 66 66 255
166.625656 -26.668127 -72.464394 -0.986390 -0.158295 0.044468 0.136667 0.607843 66 66 66 255
166.735641 -27.426548 -72.724487 -0.986385 -0.158316 0.044519 0.125000 0.610013 66 66 66 255
166.835526 -27.426548 -70.511391 -0.986385 -0.158316 0.044519 0.125000 0.610013 66 66 66 255
166.740891 -27.115004 -71.500282 -0.986385 -0.158316 0.044519 0.129793 0.609122 66 66 66 255
166.549026 -26.192738 -72.471954 -0.986382 -0.158288 0.044669 0.143980 0.606483 255 101 91 255
166.625656 -26.668127 -72.464394 -0.986382 -0.158288 0.044669 0.136667 0.607843 255 101 91 255
166.596680 -26.274340 -71.708839 -0.986382 -0.158288 0.044669 0.142725 0.606717 255 101 91 255
166.625656 -26.668127 -72.464394 -0.986433 -0.158010 0.044522 0.136667 0.607843 255 101 91 255
166.664902 -26.673136 -71.612648 -0.986433 -0.158010 0.044522 0.136590 0.607857 255 101 91 255
166.596680 -26.274340 -71.708839 -0.986433 -0.158010 0.044522 0.142725 0.606717 255 101 91 255
166.664902 -26.673136 -71.612648 -0.986383 -0.158179 0.045029 0.136590 0.607857 255 101 91 255
166.740891 -27.115004 -71.500282 -0.986383 -0.158179 0.045029 0.129793 0.609122 255 101 91 255
166.649796 -26.415466 -71.038406 -0.986383 -0.158179 0.045029 0.140553 0.607120 255 101 91 255
166.649796 -26.415466 -71.038406 -0.986453 -0.157770 0.044942 0.140553 0.607120 255 101 91 255
166.548737 -25.993252 -71.774399 -0.986453 -0.157770 0.044942 0.147048 0.605913 255 101 91 255
166.596680 -26.274340 -71.708839 -0.986453 -0.157770 0.044942 0.142725 0.606717 255 101 91 255
3 0 1 2
3 3 4 5
3 6 7 8
3 9 10 11
3 12 13 14
3 15 16 17
3 18 19 20
3 21 22 23
3 24 25 26
3 27 28 29
3 30 31 32
3 33 34 35
3 36 37 38
3 39 40 41
3 42 43 44
3 45 46 47
3 48 49 50
3 51 52 53
3 54 55 56
3 57 58 59
3 60 61 62
3 63 64 65
3 66 67 68
3 69 70 71
3 72 73 74
3 75 76 77
3 78 79 80
3 81 82 83
3 84 85 86
3 87 88 89
3 90 91 92
3 93 94 95
3 96 97 98
3 99 100 101
3 102 103 104
3 105 106 107
3 108 109 110
3 111 112 113
3 114 115 116
3 117 118 119
3 120 121 122
3 123 124 125
3 126 127 128
3 129 130 131
3 132 133 134
3 135 136 137
3 138 139 140
3 141 142 143
3 144 145 146
3 147 148 149
3 150 151 152
3 153 154 155
3 156 157 158
3 159 160 161
3 162 163 164
3 165 166 167
3 168 169 170
3 171 172 173
3 174 175 176
3 177 178 179
3 180 181 182
3 183 184 185
3 186 187 188
3 189 190 191
3 192 193 194
3 195 196 197
3 198 199 200
3 201 202 203
3 204 205 206
3 207 208 209
3 210 211 212
3 213 214 215
3 216 217 218
3 219 220 221
3 222 223 224
3 225 226 227
3 228 229 230
3 231 232 233
3 234 235 236
3 237 238 239
3 240 241 242
3 243 244 245
3 246 247 248
3 249 250 251
3 252 253 254
3 255 256 257
3 258 259 260
3 261 262 263
3 264 265 266
3 267 268 269
3 270 271 272
3 273 274 275
3 276 277 278
3 279 280 281
3 282 283 284
3 285 286 287
3 288 289 290
3 291 292 293
3 294 295 296
3 297 298 299
3 300 301 302
3 303 304 305
3 306 307 308
3 309 310 311
3 312 313 314
3 315 316 317
3 318 319 320
3 321 322 323
3 324 325 326
3 327 328 329
3 330 331 332
3 333 334 335
3 336 337 338
3 339 340 341
3 342 343 344
3 345 346 347
3 348 349 350
3 351 352 353
