ply
format ascii 1.0
comment Created by Blender 2.93.1 - www.blender.org
element vertex 174
property float x
property float y
property float z
property float nx
property float ny
property float nz
property float s
property float t
property uchar red
property uchar green
property uchar blue
property uchar alpha
element face 60
property list uchar uint vertex_indices
end_header
98.315811 -12.368724 -65.674141 -0.999743 -0.019118 0.012208 0.125000 0.562500 147 133 102 255
98.196205 -9.063914 -70.293724 -0.999743 -0.019118 0.012208 0.507641 0.437500 147 133 102 255
98.315811 -16.042301 -71.427002 -0.999743 -0.019118 0.012208 0.125000 0.562500 147 133 102 255
91.866035 -12.497237 -65.856766 0.994773 0.101959 0.005642 0.125000 0.625000 147 133 102 255
91.563606 -9.267850 -70.893555 0.994773 0.101959 0.005642 0.503044 0.625000 147 133 102 255
90.989998 -3.989710 -65.140694 0.994773 0.101959 0.005642 0.503044 0.625000 147 133 102 255
98.315811 -12.368724 -65.674141 -0.001550 0.842749 -0.538305 0.125000 0.562500 115 196 116 255
92.439644 -16.170815 -71.609627 -0.001550 0.842749 -0.538305 0.125000 0.625000 115 196 116 255
91.866035 -12.497237 -65.856766 -0.001550 0.842749 -0.538305 0.125000 0.625000 115 196 116 255
98.315811 -16.042301 -71.427002 -0.999482 -0.013126 0.029397 0.125000 0.562500 147 133 102 255
98.004440 -11.078164 -79.796951 -0.999482 -0.013126 0.029397 0.507641 0.437500 147 133 102 255
98.124046 -16.042301 -77.946907 -0.999482 -0.013126 0.029397 0.125000 0.562500 147 133 102 255
92.439644 -16.170815 -71.609627 0.990504 0.118464 0.069773 0.125000 0.625000 147 133 102 255
92.473938 -11.282100 -80.396782 0.990504 0.118464 0.069773 0.503044 0.625000 147 133 102 255
91.563606 -9.267850 -70.893555 0.990504 0.118464 0.069773 0.503044 0.625000 147 133 102 255
98.315811 -16.042301 -71.427002 -0.021771 0.999758 -0.003040 0.125000 0.562500 115 196 116 255
93.349976 -16.170815 -78.129532 -0.021771 0.999758 -0.003040 0.125000 0.625000 115 196 116 255
92.439644 -16.170815 -71.609627 -0.021771 0.999758 -0.003040 0.125000 0.625000 115 196 116 255
98.004440 -11.078164 -79.796951 -0.999647 -0.026056 -0.005287 0.507641 0.437500 147 133 102 255
98.124046 -14.913916 -83.508003 -0.999647 -0.026056 -0.005287 0.125000 0.562500 147 133 102 255
98.124046 -16.042301 -77.946907 -0.999647 -0.026056 -0.005287 0.125000 0.562500 147 133 102 255
92.473938 -11.282100 -80.396782 0.731813 0.016110 0.681315 0.503044 0.625000 147 133 102 255
95.623276 -15.042429 -83.690628 0.731813 0.016110 0.681315 0.125000 0.625000 147 133 102 255
94.747238 -5.531444 -82.974556 0.731813 0.016110 0.681315 0.503044 0.625000 147 133 102 255
98.124046 -16.042301 -77.946907 -0.033534 0.982061 0.185559 0.125000 0.562500 115 196 116 255
95.623276 -15.042429 -83.690628 -0.033534 0.982061 0.185559 0.125000 0.625000 115 196 116 255
93.349976 -16.170815 -78.129532 -0.033534 0.982061 0.185559 0.125000 0.625000 115 196 116 255
98.004440 -5.327508 -82.374725 -0.999364 -0.008370 -0.034670 0.507641 0.437500 147 133 102 255
98.315811 -12.392313 -89.644386 -0.999364 -0.008370 -0.034670 0.125000 0.562500 147 133 102 255
98.124046 -14.913916 -83.508003 -0.999364 -0.008370 -0.034670 0.125000 0.562500 147 133 102 255
94.747238 -5.531444 -82.974556 0.890899 0.380011 -0.248778 0.503044 0.625000 147 133 102 255
95.815041 -12.520826 -89.827011 0.890899 0.380011 -0.248778 0.125000 0.625000 147 133 102 255
93.033691 -5.531444 -89.110939 0.890899 0.380011 -0.248778 0.503044 0.625000 147 133 102 255
95.623276 -15.042429 -83.690628 -0.074973 0.923169 0.377012 0.125000 0.625000 115 196 116 255
98.315811 -12.392313 -89.644386 -0.074973 0.923169 0.377012 0.125000 0.562500 115 196 116 255
95.815041 -12.520826 -89.827011 -0.074973 0.923169 0.377012 0.125000 0.625000 115 196 116 255
91.563606 -9.267850 -70.893555 0.011348 -0.978251 0.207115 0.503044 0.625000 147 133 102 255
98.004440 -11.078164 -79.796951 0.011348 -0.978251 0.207115 0.507641 0.437500 147 133 102 255
98.196205 -9.063914 -70.293724 0.011348 -0.978251 0.207115 0.507641 0.437500 147 133 102 255
95.815041 -12.520826 -89.827011 0.927996 0.371788 -0.024421 0.125000 0.625000 147 133 102 255
92.841927 -5.531444 -96.397896 0.927996 0.371788 -0.024421 0.503044 0.625000 147 133 102 255
93.033691 -5.531444 -89.110939 0.927996 0.371788 -0.024421 0.503044 0.625000 147 133 102 255
98.315811 -12.392313 -89.644386 -0.980112 0.191446 -0.052244 0.125000 0.562500 147 133 102 255
100.023804 -5.327508 -95.798065 -0.980112 0.191446 -0.052244 0.507641 0.437500 147 133 102 255
98.124046 -15.362602 -96.931343 -0.980112 0.191446 -0.052244 0.125000 0.562500 147 133 102 255
90.989998 -3.989710 -65.140694 -0.035398 -0.736393 0.675627 0.503044 0.625000 147 133 102 255
98.196205 -9.063914 -70.293724 -0.035398 -0.736393 0.675627 0.507641 0.437500 147 133 102 255
98.196205 -3.785774 -64.540863 -0.035398 -0.736393 0.675627 0.507641 0.437500 147 133 102 255
94.747238 -5.531444 -82.974556 -0.190123 0.401581 0.895872 0.503044 0.625000 147 133 102 255
98.004440 -11.078164 -79.796951 -0.190123 0.401581 0.895872 0.507641 0.437500 147 133 102 255
98.004440 -5.327508 -82.374725 -0.190123 0.401581 0.895872 0.507641 0.437500 147 133 102 255
95.815041 -12.520826 -89.827011 -0.020061 0.926023 -0.376935 0.125000 0.625000 115 196 116 255
98.124046 -15.362602 -96.931343 -0.020061 0.926023 -0.376935 0.125000 0.562500 115 196 116 255
95.623276 -15.491116 -97.113968 -0.020061 0.926023 -0.376935 0.125000 0.625000 115 196 116 255
98.124046 -15.362602 -96.931343 -0.986030 0.159773 -0.047097 0.125000 0.562500 147 133 102 255
99.934868 -5.327508 -100.799690 -0.986030 0.159773 -0.047097 0.507641 0.437500 147 133 102 255
98.358955 -15.362602 -101.849442 -0.986030 0.159773 -0.047097 0.125000 0.562500 147 133 102 255
95.623276 -15.491116 -97.113968 -0.053397 0.998566 -0.003748 0.125000 0.625000 115 196 116 255
98.358955 -15.362602 -101.849442 -0.053397 0.998566 -0.003748 0.125000 0.562500 115 196 116 255
96.018898 -15.491116 -102.750191 -0.053397 0.998566 -0.003748 0.125000 0.625000 115 196 116 255
95.623276 -15.491116 -97.113968 0.956473 0.257192 0.137883 0.125000 0.625000 147 133 102 255
93.695541 -5.531444 -102.319275 0.956473 0.257192 0.137883 0.503044 0.625000 147 133 102 255
92.841927 -5.531444 -96.397896 0.956473 0.257192 0.137883 0.503044 0.625000 147 133 102 255
98.358955 -15.362602 -101.849442 -0.868460 -0.038368 -0.494272 0.125000 0.562500 147 133 102 255
99.534340 -5.268729 -104.698196 -0.868460 -0.038368 -0.494272 0.507641 0.437500 147 133 102 255
101.201157 -15.362602 -106.843323 -0.868460 -0.038368 -0.494272 0.125000 0.562500 147 133 102 255
96.018898 -15.491116 -102.750191 -0.049366 0.998295 -0.031158 0.125000 0.625000 115 196 116 255
101.201157 -15.362602 -106.843323 -0.049366 0.998295 -0.031158 0.125000 0.562500 115 196 116 255
99.986969 -15.491116 -109.037170 -0.049366 0.998295 -0.031158 0.125000 0.625000 115 196 116 255
96.018898 -15.491116 -102.750191 0.908746 0.196048 0.368438 0.125000 0.625000 147 133 102 255
96.625526 -5.590223 -109.514755 0.908746 0.196048 0.368438 0.503044 0.625000 147 133 102 255
93.695541 -5.531444 -102.319275 0.908746 0.196048 0.368438 0.503044 0.625000 147 133 102 255
101.201157 -15.362602 -106.843323 -0.341906 0.009757 -0.939683 0.125000 0.562500 147 133 102 255
106.251144 -5.268729 -108.575966 -0.341906 0.009757 -0.939683 0.507641 0.437500 147 133 102 255
106.588661 -15.362602 -108.803581 -0.341906 0.009757 -0.939683 0.125000 0.562500 147 133 102 255
99.986969 -15.491116 -109.037170 -0.017657 0.998575 -0.050366 0.125000 0.625000 115 196 116 255
106.588661 -15.362602 -108.803581 -0.017657 0.998575 -0.050366 0.125000 0.562500 115 196 116 255
106.464203 -15.491116 -111.307922 -0.017657 0.998575 -0.050366 0.125000 0.625000 115 196 116 255
99.986969 -15.491116 -109.037170 0.365246 0.168169 0.915595 0.125000 0.625000 147 133 102 255
106.877029 -5.583907 -113.605408 0.365246 0.168169 0.915595 0.503044 0.625000 147 133 102 255
96.625526 -5.590223 -109.514755 0.365246 0.168169 0.915595 0.503044 0.625000 147 133 102 255
106.588661 -15.362602 -108.803581 0.000000 0.001977 -0.999998 0.125000 0.562500 147 133 102 255
109.788368 -5.327508 -108.783745 0.000000 0.001977 -0.999998 0.507641 0.437500 147 133 102 255
110.927773 -15.362602 -108.803581 0.000000 0.001977 -0.999998 0.125000 0.562500 147 133 102 255
106.588661 -15.362602 -108.803581 0.000000 0.998686 -0.051249 0.125000 0.562500 115 196 116 255
110.803314 -15.491116 -111.307922 0.000000 0.998686 -0.051249 0.125000 0.625000 115 196 116 255
106.464203 -15.491116 -111.307922 0.000000 0.998686 -0.051249 0.125000 0.625000 115 196 116 255
106.464203 -15.491116 -111.307922 -0.430426 0.220890 0.875181 0.125000 0.625000 147 133 102 255
109.611290 -5.537760 -112.272308 -0.430426 0.220890 0.875181 0.503044 0.625000 147 133 102 255
106.877029 -5.583907 -113.605408 -0.430426 0.220890 0.875181 0.503044 0.625000 147 133 102 255
98.315811 -12.368724 -65.674141 -0.999769 -0.015852 0.014544 0.125000 0.562500 147 133 102 255
98.196205 -3.785774 -64.540863 -0.999769 -0.015852 0.014544 0.507641 0.437500 147 133 102 255
98.196205 -9.063914 -70.293724 -0.999769 -0.015852 0.014544 0.507641 0.437500 147 133 102 255
91.866035 -12.497237 -65.856766 0.992103 0.123848 0.019836 0.125000 0.625000 147 133 102 255
92.439644 -16.170815 -71.609627 0.992103 0.123848 0.019836 0.125000 0.625000 147 133 102 255
91.563606 -9.267850 -70.893555 0.992103 0.123848 0.019836 0.503044 0.625000 147 133 102 255
98.315811 -12.368724 -65.674141 -0.001706 0.842819 -0.538195 0.125000 0.562500 115 196 116 255
98.315811 -16.042301 -71.427002 -0.001706 0.842819 -0.538195 0.125000 0.562500 115 196 116 255
92.439644 -16.170815 -71.609627 -0.001706 0.842819 -0.538195 0.125000 0.625000 115 196 116 255
98.315811 -16.042301 -71.427002 -0.999473 -0.021133 0.024648 0.125000 0.562500 147 133 102 255
98.196205 -9.063914 -70.293724 -0.999473 -0.021133 0.024648 0.507641 0.437500 147 133 102 255
98.004440 -11.078164 -79.796951 -0.999473 -0.021133 0.024648 0.507641 0.437500 147 133 102 255
92.439644 -16.170815 -71.609627 0.962694 0.234848 0.134415 0.125000 0.625000 147 133 102 255
93.349976 -16.170815 -78.129532 0.962694 0.234848 0.134415 0.125000 0.625000 147 133 102 255
92.473938 -11.282100 -80.396782 0.962694 0.234848 0.134415 0.503044 0.625000 147 133 102 255
98.315811 -16.042301 -71.427002 -0.026940 0.999637 0.000792 0.125000 0.562500 115 196 116 255
98.124046 -16.042301 -77.946907 -0.026940 0.999637 0.000792 0.125000 0.562500 115 196 116 255
93.349976 -16.170815 -78.129532 -0.026940 0.999637 0.000792 0.125000 0.625000 115 196 116 255
98.004440 -11.078164 -79.796951 -0.999709 -0.009870 -0.022019 0.507641 0.437500 147 133 102 255
98.004440 -5.327508 -82.374725 -0.999709 -0.009870 -0.022019 0.507641 0.437500 147 133 102 255
98.124046 -14.913916 -83.508003 -0.999709 -0.009870 -0.022019 0.125000 0.562500 147 133 102 255
92.473938 -11.282100 -80.396782 0.842995 0.343173 0.414237 0.503044 0.625000 147 133 102 255
93.349976 -16.170815 -78.129532 0.842995 0.343173 0.414237 0.125000 0.625000 147 133 102 255
95.623276 -15.042429 -83.690628 0.842995 0.343173 0.414237 0.125000 0.625000 147 133 102 255
98.124046 -16.042301 -77.946907 -0.064749 0.977973 0.198438 0.125000 0.562500 115 196 116 255
98.124046 -14.913916 -83.508003 -0.064749 0.977973 0.198438 0.125000 0.562500 115 196 116 255
95.623276 -15.042429 -83.690628 -0.064749 0.977973 0.198438 0.125000 0.625000 115 196 116 255
98.004440 -5.327508 -82.374725 -0.999441 -0.011910 -0.031233 0.507641 0.437500 147 133 102 255
98.196205 -5.327508 -88.511108 -0.999441 -0.011910 -0.031233 0.507641 0.437500 147 133 102 255
98.315811 -12.392313 -89.644386 -0.999441 -0.011910 -0.031233 0.125000 0.562500 147 133 102 255
94.747238 -5.531444 -82.974556 0.994018 0.086541 0.066625 0.503044 0.625000 147 133 102 255
95.623276 -15.042429 -83.690628 0.994018 0.086541 0.066625 0.125000 0.625000 147 133 102 255
95.815041 -12.520826 -89.827011 0.994018 0.086541 0.066625 0.125000 0.625000 147 133 102 255
98.124046 -14.913916 -83.508003 -0.074973 0.923169 0.377012 0.125000 0.562500 115 196 116 255
91.563606 -9.267850 -70.893555 0.013440 -0.977917 0.208561 0.503044 0.625000 147 133 102 255
92.473938 -11.282100 -80.396782 0.013440 -0.977917 0.208561 0.503044 0.625000 147 133 102 255
98.004440 -11.078164 -79.796951 0.013440 -0.977917 0.208561 0.507641 0.437500 147 133 102 255
95.815041 -12.520826 -89.827011 0.951416 0.275570 -0.137365 0.125000 0.625000 147 133 102 255
95.623276 -15.491116 -97.113968 0.951416 0.275570 -0.137365 0.125000 0.625000 147 133 102 255
92.841927 -5.531444 -96.397896 0.951416 0.275570 -0.137365 0.503044 0.625000 147 133 102 255
98.315811 -12.392313 -89.644386 -0.969711 0.022596 -0.243207 0.125000 0.562500 147 133 102 255
98.196205 -5.327508 -88.511108 -0.969711 0.022596 -0.243207 0.507641 0.437500 147 133 102 255
100.023804 -5.327508 -95.798065 -0.969711 0.022596 -0.243207 0.507641 0.437500 147 133 102 255
90.989998 -3.989710 -65.140694 -0.038210 -0.738212 0.673486 0.503044 0.625000 147 133 102 255
91.563606 -9.267850 -70.893555 -0.038210 -0.738212 0.673486 0.503044 0.625000 147 133 102 255
98.196205 -9.063914 -70.293724 -0.038210 -0.738212 0.673486 0.507641 0.437500 147 133 102 255
94.747238 -5.531444 -82.974556 -0.112795 0.443219 0.889289 0.503044 0.625000 147 133 102 255
92.473938 -11.282100 -80.396782 -0.112795 0.443219 0.889289 0.503044 0.625000 147 133 102 255
98.004440 -11.078164 -79.796951 -0.112795 0.443219 0.889289 0.507641 0.437500 147 133 102 255
98.315811 -12.392313 -89.644386 -0.020061 0.926023 -0.376935 0.125000 0.562500 115 196 116 255
98.124046 -15.362602 -96.931343 -0.982757 0.184074 0.017475 0.125000 0.562500 147 133 102 255
100.023804 -5.327508 -95.798065 -0.982757 0.184074 0.017475 0.507641 0.437500 147 133 102 255
99.934868 -5.327508 -100.799690 -0.982757 0.184074 0.017475 0.507641 0.437500 147 133 102 255
95.623276 -15.491116 -97.113968 -0.051144 0.998688 -0.002443 0.125000 0.625000 115 196 116 255
98.124046 -15.362602 -96.931343 -0.051144 0.998688 -0.002443 0.125000 0.562500 115 196 116 255
98.358955 -15.362602 -101.849442 -0.051144 0.998688 -0.002443 0.125000 0.562500 115 196 116 255
95.623276 -15.491116 -97.113968 0.972232 0.223846 0.068244 0.125000 0.625000 147 133 102 255
96.018898 -15.491116 -102.750191 0.972232 0.223846 0.068244 0.125000 0.625000 147 133 102 255
93.695541 -5.531444 -102.319275 0.972232 0.223846 0.068244 0.503044 0.625000 147 133 102 255
98.358955 -15.362602 -101.849442 -0.984209 0.143756 0.103284 0.125000 0.562500 147 133 102 255
99.934868 -5.327508 -100.799690 -0.984209 0.143756 0.103284 0.507641 0.437500 147 133 102 255
99.534340 -5.268729 -104.698196 -0.984209 0.143756 0.103284 0.507641 0.437500 147 133 102 255
96.018898 -15.491116 -102.750191 -0.044989 0.998659 -0.025605 0.125000 0.625000 115 196 116 255
98.358955 -15.362602 -101.849442 -0.044989 0.998659 -0.025605 0.125000 0.562500 115 196 116 255
101.201157 -15.362602 -106.843323 -0.044989 0.998659 -0.025605 0.125000 0.562500 115 196 116 255
96.018898 -15.491116 -102.750191 0.807075 0.298581 0.509391 0.125000 0.625000 147 133 102 255
99.986969 -15.491116 -109.037170 0.807075 0.298581 0.509391 0.125000 0.625000 147 133 102 255
96.625526 -5.590223 -109.514755 0.807075 0.298581 0.509391 0.503044 0.625000 147 133 102 255
101.201157 -15.362602 -106.843323 -0.497428 0.100966 -0.861610 0.125000 0.562500 147 133 102 255
99.534340 -5.268729 -104.698196 -0.497428 0.100966 -0.861610 0.507641 0.437500 147 133 102 255
106.251144 -5.268729 -108.575966 -0.497428 0.100966 -0.861610 0.507641 0.437500 147 133 102 255
99.986969 -15.491116 -109.037170 -0.017718 0.998657 -0.048694 0.125000 0.625000 115 196 116 255
101.201157 -15.362602 -106.843323 -0.017718 0.998657 -0.048694 0.125000 0.562500 115 196 116 255
106.588661 -15.362602 -108.803581 -0.017718 0.998657 -0.048694 0.125000 0.562500 115 196 116 255
99.986969 -15.491116 -109.037170 0.324090 0.200877 0.924454 0.125000 0.625000 147 133 102 255
106.464203 -15.491116 -111.307922 0.324090 0.200877 0.924454 0.125000 0.625000 147 133 102 255
106.877029 -5.583907 -113.605408 0.324090 0.200877 0.924454 0.503044 0.625000 147 133 102 255
106.588661 -15.362602 -108.803581 -0.058287 0.020558 -0.998088 0.125000 0.562500 147 133 102 255
106.251144 -5.268729 -108.575966 -0.058287 0.020558 -0.998088 0.507641 0.437500 147 133 102 255
109.788368 -5.327508 -108.783745 -0.058287 0.020558 -0.998088 0.507641 0.437500 147 133 102 255
110.927773 -15.362602 -108.803581 0.000000 0.998686 -0.051249 0.125000 0.562500 115 196 116 255
106.464203 -15.491116 -111.307922 0.000000 0.096439 0.995339 0.125000 0.625000 147 133 102 255
110.803314 -15.491116 -111.307922 0.000000 0.096439 0.995339 0.125000 0.625000 147 133 102 255
109.611290 -5.537760 -112.272308 0.000000 0.096439 0.995339 0.503044 0.625000 147 133 102 255
3 0 1 2
3 3 4 5
3 6 7 8
3 9 10 11
3 12 13 14
3 15 16 17
3 18 19 20
3 21 22 23
3 24 25 26
3 27 28 29
3 30 31 32
3 33 34 35
3 36 37 38
3 39 40 41
3 42 43 44
3 45 46 47
3 48 49 50
3 51 52 53
3 54 55 56
3 57 58 59
3 60 61 62
3 63 64 65
3 66 67 68
3 69 70 71
3 72 73 74
3 75 76 77
3 78 79 80
3 81 82 83
3 84 85 86
3 87 88 89
3 90 91 92
3 93 94 95
3 96 97 98
3 99 100 101
3 102 103 104
3 105 106 107
3 108 109 110
3 111 112 113
3 114 115 116
3 117 118 119
3 120 121 122
3 33 123 34
3 124 125 126
3 127 128 129
3 130 131 132
3 133 134 135
3 136 137 138
3 51 139 52
3 140 141 142
3 143 144 145
3 146 147 148
3 149 150 151
3 152 153 154
3 155 156 157
3 158 159 160
3 161 162 163
3 164 165 166
3 167 168 169
3 84 170 85
3 171 172 173
