ply
format ascii 1.0
comment Created by Blender 2.93.1 - www.blender.org
element vertex 192
property float x
property float y
property float z
property float nx
property float ny
property float nz
property float s
property float t
property uchar red
property uchar green
property uchar blue
property uchar alpha
element face 72
property list uchar uint vertex_indices
end_header
138.972214 -37.514271 11.301947 0.268479 -0.099396 -0.958144 0.125000 0.595978 147 133 102 255
141.835526 -36.910355 12.041620 0.268479 -0.099396 -0.958144 0.126526 0.596284 147 133 102 255
141.665085 -38.756729 12.185400 0.268479 -0.099396 -0.958144 0.125000 0.595978 147 133 102 255
140.055771 -38.168114 10.222343 -0.191887 0.114864 0.974672 0.125000 0.598639 147 133 102 255
141.938644 -36.905663 10.444253 -0.191887 0.114864 0.974672 0.125477 0.598996 147 133 102 255
140.220764 -36.497509 10.057947 -0.191887 0.114864 0.974672 0.125477 0.598996 147 133 102 255
140.220764 -36.497509 10.057947 -0.301440 -0.952317 0.047182 0.125477 0.598996 147 133 102 255
141.835526 -36.910355 12.041620 -0.301440 -0.952317 0.047182 0.126526 0.596284 147 133 102 255
139.194656 -36.111843 11.286493 -0.301440 -0.952317 0.047182 0.126526 0.596284 147 133 102 255
140.055771 -38.168114 10.222343 0.232135 0.967549 0.099812 0.125000 0.598639 80 72 55 255
141.665085 -38.756729 12.185400 0.232135 0.967549 0.099812 0.125000 0.595978 80 72 55 255
141.902496 -38.657810 10.674350 0.232135 0.967549 0.099812 0.125000 0.598639 80 72 55 255
141.856491 -38.660172 10.854085 -0.985999 0.000000 -0.166751 1.000000 0.000000 236 181 85 255
141.885162 -36.902866 10.684551 -0.985999 0.000000 -0.166751 0.000000 1.000000 236 181 85 255
141.885162 -38.783695 10.684551 -0.985999 0.000000 -0.166751 0.000000 0.000000 236 181 85 255
141.604965 -38.607132 11.759392 -0.985999 0.000000 -0.166751 0.000000 0.000000 236 181 85 255
141.576294 -36.863358 11.928926 -0.985999 0.000000 -0.166751 1.000000 1.000000 236 181 85 255
141.604965 -36.855812 11.759392 -0.985999 0.000000 -0.166751 0.000000 1.000000 236 181 85 255
141.902496 -38.657810 10.674350 -0.284841 0.130586 0.949638 0.125000 0.598639 147 133 102 255
144.538376 -37.303829 11.278787 -0.284841 0.130586 0.949638 0.125477 0.598996 147 133 102 255
141.938644 -36.905663 10.444253 -0.284841 0.130586 0.949638 0.125477 0.598996 147 133 102 255
141.938644 -36.905663 10.444253 -0.237907 -0.971117 -0.018211 0.125477 0.598996 147 133 102 255
143.671234 -37.370998 12.624256 -0.237907 -0.971117 -0.018211 0.126526 0.596284 147 133 102 255
141.835526 -36.910355 12.041620 -0.237907 -0.971117 -0.018211 0.126526 0.596284 147 133 102 255
141.902496 -38.657810 10.674350 0.095610 0.976878 0.191227 0.125000 0.598639 80 72 55 255
143.452377 -39.199562 12.666964 0.095610 0.976878 0.191227 0.125000 0.595978 80 72 55 255
144.394852 -39.055977 11.462237 0.095610 0.976878 0.191227 0.125000 0.598639 80 72 55 255
141.665085 -38.756729 12.185400 0.247716 -0.052243 -0.967423 0.125000 0.595978 147 133 102 255
143.671234 -37.370998 12.624256 0.247716 -0.052243 -0.967423 0.126526 0.596284 147 133 102 255
143.452377 -39.199562 12.666964 0.247716 -0.052243 -0.967423 0.125000 0.595978 147 133 102 255
143.452377 -39.199562 12.666964 0.818561 -0.064573 -0.570779 0.125000 0.595978 147 133 102 255
144.579025 -37.620182 14.104025 0.818561 -0.064573 -0.570779 0.126526 0.596284 147 133 102 255
144.375061 -39.408932 14.013880 0.818561 -0.064573 -0.570779 0.125000 0.595978 147 133 102 255
144.394852 -39.055977 11.462237 -0.812212 0.126164 0.569557 0.125000 0.598639 147 133 102 255
146.059860 -37.519733 13.496311 -0.812212 0.126164 0.569557 0.125477 0.598996 147 133 102 255
144.538376 -37.303829 11.278787 -0.812212 0.126164 0.569557 0.125477 0.598996 147 133 102 255
143.671234 -37.370998 12.624256 -0.001004 -0.986217 -0.165457 0.126526 0.596284 147 133 102 255
146.059860 -37.519733 13.496311 -0.001004 -0.986217 -0.165457 0.125477 0.598996 147 133 102 255
144.579025 -37.620182 14.104025 -0.001004 -0.986217 -0.165457 0.126526 0.596284 147 133 102 255
143.452377 -39.199562 12.666964 -0.011165 0.993899 0.109724 0.125000 0.595978 80 72 55 255
145.837219 -39.271881 13.564707 -0.011165 0.993899 0.109724 0.125000 0.598639 80 72 55 255
144.394852 -39.055977 11.462237 -0.011165 0.993899 0.109724 0.125000 0.598639 80 72 55 255
144.579025 -37.620182 14.104025 0.004559 -0.999198 -0.039784 0.126526 0.596284 147 133 102 255
145.764328 -37.711334 16.529196 0.004559 -0.999198 -0.039784 0.125477 0.598996 147 133 102 255
144.386292 -37.685196 15.714804 0.004559 -0.999198 -0.039784 0.126526 0.596284 147 133 102 255
145.837219 -39.271881 13.564707 0.278205 0.916067 0.288831 0.125000 0.598639 80 72 55 255
144.335144 -39.425190 15.497761 0.278205 0.916067 0.288831 0.125000 0.595978 80 72 55 255
145.575455 -40.084095 16.392887 0.278205 0.916067 0.288831 0.125000 0.598639 80 72 55 255
144.579025 -37.620182 14.104025 0.993094 -0.114522 0.025460 0.126526 0.596284 147 133 102 255
144.335144 -39.425190 15.497761 0.993094 -0.114522 0.025460 0.125000 0.595978 147 133 102 255
144.375061 -39.408932 14.013880 0.993094 -0.114522 0.025460 0.125000 0.595978 147 133 102 255
145.837219 -39.271881 13.564707 -0.988548 0.122153 -0.088610 0.125000 0.598639 147 133 102 255
145.764328 -37.711334 16.529196 -0.988548 0.122153 -0.088610 0.125477 0.598996 147 133 102 255
146.059860 -37.519733 13.496311 -0.988548 0.122153 -0.088610 0.125477 0.598996 147 133 102 255
144.386292 -37.685196 15.714804 -0.254828 -0.962708 0.090861 0.126526 0.596284 147 133 102 255
144.069443 -37.373814 18.125399 -0.254828 -0.962708 0.090861 0.125477 0.598996 147 133 102 255
143.225159 -37.278683 16.765472 -0.254828 -0.962708 0.090861 0.126526 0.596284 147 133 102 255
144.335144 -39.425190 15.497761 0.479076 0.877593 -0.017821 0.125000 0.595978 80 72 55 255
143.965149 -39.174080 17.917130 0.479076 0.877593 -0.017821 0.125000 0.598639 80 72 55 255
145.575455 -40.084095 16.392887 0.479076 0.877593 -0.017821 0.125000 0.598639 80 72 55 255
144.386292 -37.685196 15.714804 0.678962 -0.110494 0.725811 0.126526 0.596284 147 133 102 255
143.280319 -38.998756 16.549417 0.678962 -0.110494 0.725811 0.125000 0.595978 147 133 102 255
144.335144 -39.425190 15.497761 0.678962 -0.110494 0.725811 0.125000 0.595978 147 133 102 255
145.764328 -37.711334 16.529196 -0.667178 0.123632 -0.734567 0.125477 0.598996 147 133 102 255
143.965149 -39.174080 17.917130 -0.667178 0.123632 -0.734567 0.125000 0.598639 147 133 102 255
144.069443 -37.373814 18.125399 -0.667178 0.123632 -0.734567 0.125477 0.598996 147 133 102 255
143.225159 -37.278683 16.765472 0.516563 -0.090385 0.851465 0.126526 0.596284 147 133 102 255
141.396255 -38.253784 17.771513 0.516563 -0.090385 0.851465 0.125000 0.595978 147 133 102 255
143.280319 -38.998756 16.549417 0.516563 -0.090385 0.851465 0.125000 0.595978 147 133 102 255
144.069443 -37.373814 18.125399 -0.501593 0.131493 -0.855052 0.125477 0.598996 147 133 102 255
142.081085 -38.366058 19.139225 -0.501593 0.131493 -0.855052 0.125000 0.598639 147 133 102 255
142.185379 -36.613914 19.347494 -0.501593 0.131493 -0.855052 0.125477 0.598996 147 133 102 255
144.069443 -37.373814 18.125399 -0.275299 -0.955710 0.104059 0.125477 0.598996 147 133 102 255
141.341095 -36.602901 17.987568 -0.275299 -0.955710 0.104059 0.126526 0.596284 147 133 102 255
143.225159 -37.278683 16.765472 -0.275299 -0.955710 0.104059 0.126526 0.596284 147 133 102 255
143.965149 -39.174080 17.917130 0.340476 0.935575 -0.093680 0.125000 0.598639 80 72 55 255
141.396255 -38.253784 17.771513 0.340476 0.935575 -0.093680 0.125000 0.595978 80 72 55 255
142.081085 -38.366058 19.139225 0.340476 0.935575 -0.093680 0.125000 0.598639 80 72 55 255
144.259918 -39.148655 11.606190 -0.773903 0.000000 -0.633304 1.000000 0.000000 236 181 85 255
144.368805 -37.330910 11.473129 -0.773903 0.000000 -0.633304 0.000000 1.000000 236 181 85 255
144.368805 -39.272175 11.473129 -0.773903 0.000000 -0.633304 0.000000 0.000000 236 181 85 255
143.620178 -39.084248 12.371307 -0.773903 0.000000 -0.633304 0.000000 0.000000 236 181 85 255
143.511292 -37.349365 12.504368 -0.773903 0.000000 -0.633304 1.000000 1.000000 236 181 85 255
143.620178 -37.356430 12.371307 -0.773903 0.000000 -0.633304 0.000000 1.000000 236 181 85 255
145.676407 -39.368462 13.648220 -0.189317 0.000000 -0.981916 1.000000 0.000000 236 181 85 255
145.845245 -37.578201 13.615667 -0.189317 0.000000 -0.981916 0.000000 1.000000 236 181 85 255
145.845245 -39.493973 13.615667 -0.189317 0.000000 -0.981916 0.000000 0.000000 236 181 85 255
144.681229 -39.312630 13.828125 -0.189328 0.000000 -0.981914 0.000000 0.000000 236 181 85 255
144.512390 -37.579201 13.860680 -0.189328 0.000000 -0.981914 1.000000 1.000000 236 181 85 255
144.681229 -37.587894 13.828125 -0.189328 0.000000 -0.981914 0.000000 1.000000 236 181 85 255
145.339294 -39.893185 16.172489 0.574180 0.000000 -0.818729 1.000000 0.000000 236 181 85 255
145.480072 -37.754284 16.271217 0.574180 0.000000 -0.818729 0.000000 1.000000 236 181 85 255
145.480072 -40.083176 16.271217 0.574180 0.000000 -0.818729 0.000000 0.000000 236 181 85 255
144.429077 -39.550312 15.542006 0.574180 0.000000 -0.818729 1.000000 0.000000 236 181 85 255
144.569855 -37.697952 15.640734 0.574180 0.000000 -0.818729 0.000000 1.000000 236 181 85 255
144.569855 -39.565941 15.640734 0.574180 0.000000 -0.818729 0.000000 0.000000 236 181 85 255
143.936172 -39.195133 17.654436 0.846953 0.000000 -0.531667 1.000000 0.000000 236 181 85 255
144.027588 -37.424404 17.800062 0.846953 0.000000 -0.531667 0.000000 1.000000 236 181 85 255
144.027588 -39.290554 17.800062 0.846953 0.000000 -0.531667 0.000000 0.000000 236 181 85 255
143.487930 -39.163834 16.810482 0.846953 0.000000 -0.531667 0.000000 0.000000 236 181 85 255
143.396515 -37.370983 16.664856 0.846953 0.000000 -0.531667 1.000000 1.000000 236 181 85 255
143.487930 -37.368919 16.810482 0.846953 0.000000 -0.531667 0.000000 1.000000 236 181 85 255
142.102448 -38.517693 18.925007 0.846953 0.000000 -0.531667 1.000000 0.000000 236 181 85 255
142.193863 -36.701633 19.070633 0.846953 0.000000 -0.531667 0.000000 1.000000 236 181 85 255
142.193863 -38.557247 19.070633 0.846953 0.000000 -0.531667 0.000000 0.000000 236 181 85 255
141.506454 -38.975536 17.873974 0.846913 0.000000 -0.531731 1.000000 0.000000 236 181 85 255
141.597885 -36.703060 18.019600 0.846913 0.000000 -0.531731 0.000000 1.000000 236 181 85 255
141.597885 -39.052868 18.019600 0.846913 0.000000 -0.531731 0.000000 0.000000 236 181 85 255
138.972214 -37.514271 11.301947 0.260022 -0.051867 -0.964209 0.125000 0.595978 147 133 102 255
139.194656 -36.111843 11.286493 0.260022 -0.051867 -0.964209 0.126526 0.596284 147 133 102 255
141.835526 -36.910355 12.041620 0.260022 -0.051867 -0.964209 0.126526 0.596284 147 133 102 255
140.055771 -38.168114 10.222343 -0.202610 0.131612 0.970375 0.125000 0.598639 147 133 102 255
141.902496 -38.657810 10.674350 -0.202610 0.131612 0.970375 0.125000 0.598639 147 133 102 255
141.938644 -36.905663 10.444253 -0.202610 0.131612 0.970375 0.125477 0.598996 147 133 102 255
140.220764 -36.497509 10.057947 -0.227386 -0.973647 -0.017539 0.125477 0.598996 147 133 102 255
141.938644 -36.905663 10.444253 -0.227386 -0.973647 -0.017539 0.125477 0.598996 147 133 102 255
141.835526 -36.910355 12.041620 -0.227386 -0.973647 -0.017539 0.126526 0.596284 147 133 102 255
140.055771 -38.168114 10.222343 0.442718 0.891549 -0.095612 0.125000 0.598639 80 72 55 255
138.972214 -37.514271 11.301947 0.442718 0.891549 -0.095612 0.125000 0.595978 80 72 55 255
141.665085 -38.756729 12.185400 0.442718 0.891549 -0.095612 0.125000 0.595978 80 72 55 255
141.856491 -36.895889 10.854085 -0.985999 -0.000000 -0.166751 1.000000 1.000000 236 181 85 255
141.576294 -38.646832 11.928926 -0.985999 -0.000000 -0.166751 1.000000 0.000000 236 181 85 255
141.902496 -38.657810 10.674350 -0.281270 0.122689 0.951753 0.125000 0.598639 147 133 102 255
144.394852 -39.055977 11.462237 -0.281270 0.122689 0.951753 0.125000 0.598639 147 133 102 255
144.538376 -37.303829 11.278787 -0.281270 0.122689 0.951753 0.125477 0.598996 147 133 102 255
141.938644 -36.905663 10.444253 -0.112062 -0.986250 -0.121459 0.125477 0.598996 147 133 102 255
144.538376 -37.303829 11.278787 -0.112062 -0.986250 -0.121459 0.125477 0.598996 147 133 102 255
143.671234 -37.370998 12.624256 -0.112062 -0.986250 -0.121459 0.126526 0.596284 147 133 102 255
141.902496 -38.657810 10.674350 0.214567 0.971847 0.097333 0.125000 0.598639 80 72 55 255
141.665085 -38.756729 12.185400 0.214567 0.971847 0.097333 0.125000 0.595978 80 72 55 255
143.452377 -39.199562 12.666964 0.214567 0.971847 0.097333 0.125000 0.595978 80 72 55 255
141.665085 -38.756729 12.185400 0.278101 -0.100064 -0.955325 0.125000 0.595978 147 133 102 255
141.835526 -36.910355 12.041620 0.278101 -0.100064 -0.955325 0.126526 0.596284 147 133 102 255
143.671234 -37.370998 12.624256 0.278101 -0.100064 -0.955325 0.126526 0.596284 147 133 102 255
143.452377 -39.199562 12.666964 0.838368 -0.112798 -0.533307 0.125000 0.595978 147 133 102 255
143.671234 -37.370998 12.624256 0.838368 -0.112798 -0.533307 0.126526 0.596284 147 133 102 255
144.579025 -37.620182 14.104025 0.838368 -0.112798 -0.533307 0.126526 0.596284 147 133 102 255
144.394852 -39.055977 11.462237 -0.812037 0.125432 0.569967 0.125000 0.598639 147 133 102 255
145.837219 -39.271881 13.564707 -0.812037 0.125432 0.569967 0.125000 0.598639 147 133 102 255
146.059860 -37.519733 13.496311 -0.812037 0.125432 0.569967 0.125477 0.598996 147 133 102 255
143.671234 -37.370998 12.624256 -0.035536 -0.996723 -0.072662 0.126526 0.596284 147 133 102 255
144.538376 -37.303829 11.278787 -0.035536 -0.996723 -0.072662 0.125477 0.598996 147 133 102 255
146.059860 -37.519733 13.496311 -0.035536 -0.996723 -0.072662 0.125477 0.598996 147 133 102 255
143.452377 -39.199562 12.666964 -0.037349 0.983244 0.178425 0.125000 0.595978 80 72 55 255
144.375061 -39.408932 14.013880 -0.037349 0.983244 0.178425 0.125000 0.595978 80 72 55 255
145.837219 -39.271881 13.564707 -0.037349 0.983244 0.178425 0.125000 0.598639 80 72 55 255
144.579025 -37.620182 14.104025 0.043535 -0.997322 -0.058763 0.126526 0.596284 147 133 102 255
146.059860 -37.519733 13.496311 0.043535 -0.997322 -0.058763 0.125477 0.598996 147 133 102 255
145.764328 -37.711334 16.529196 0.043535 -0.997322 -0.058763 0.125477 0.598996 147 133 102 255
145.837219 -39.271881 13.564707 -0.090740 0.995839 0.008470 0.125000 0.598639 80 72 55 255
144.375061 -39.408932 14.013880 -0.090740 0.995839 0.008470 0.125000 0.595978 80 72 55 255
144.335144 -39.425190 15.497761 -0.090740 0.995839 0.008470 0.125000 0.595978 80 72 55 255
144.579025 -37.620182 14.104025 0.992174 -0.043753 0.116950 0.126526 0.596284 147 133 102 255
144.386292 -37.685196 15.714804 0.992174 -0.043753 0.116950 0.126526 0.596284 147 133 102 255
144.335144 -39.425190 15.497761 0.992174 -0.043753 0.116950 0.125000 0.595978 147 133 102 255
145.837219 -39.271881 13.564707 -0.994211 0.083056 -0.068168 0.125000 0.598639 147 133 102 255
145.575455 -40.084095 16.392887 -0.994211 0.083056 -0.068168 0.125000 0.598639 147 133 102 255
145.764328 -37.711334 16.529196 -0.994211 0.083056 -0.068168 0.125477 0.598996 147 133 102 255
144.386292 -37.685196 15.714804 -0.087495 -0.989353 0.116297 0.126526 0.596284 147 133 102 255
145.764328 -37.711334 16.529196 -0.087495 -0.989353 0.116297 0.125477 0.598996 147 133 102 255
144.069443 -37.373814 18.125399 -0.087495 -0.989353 0.116297 0.125477 0.598996 147 133 102 255
144.335144 -39.425190 15.497761 0.334099 0.941384 -0.046614 0.125000 0.595978 80 72 55 255
143.280319 -38.998756 16.549417 0.334099 0.941384 -0.046614 0.125000 0.595978 80 72 55 255
143.965149 -39.174080 17.917130 0.334099 0.941384 -0.046614 0.125000 0.598639 80 72 55 255
144.386292 -37.685196 15.714804 0.654876 -0.073476 0.752156 0.126526 0.596284 147 133 102 255
143.225159 -37.278683 16.765472 0.654876 -0.073476 0.752156 0.126526 0.596284 147 133 102 255
143.280319 -38.998756 16.549417 0.654876 -0.073476 0.752156 0.125000 0.595978 147 133 102 255
145.764328 -37.711334 16.529196 -0.655403 0.095213 -0.749254 0.125477 0.598996 147 133 102 255
145.575455 -40.084095 16.392887 -0.655403 0.095213 -0.749254 0.125000 0.598639 147 133 102 255
143.965149 -39.174080 17.917130 -0.655403 0.095213 -0.749254 0.125000 0.598639 147 133 102 255
143.225159 -37.278683 16.765472 0.517838 -0.093978 0.850301 0.126526 0.596284 147 133 102 255
141.341095 -36.602901 17.987568 0.517838 -0.093978 0.850301 0.126526 0.596284 147 133 102 255
141.396255 -38.253784 17.771513 0.517838 -0.093978 0.850301 0.125000 0.595978 147 133 102 255
144.069443 -37.373814 18.125399 -0.500475 0.128049 -0.856229 0.125477 0.598996 147 133 102 255
143.965149 -39.174080 17.917130 -0.500475 0.128049 -0.856229 0.125000 0.598639 147 133 102 255
142.081085 -38.366058 19.139225 -0.500475 0.128049 -0.856229 0.125000 0.598639 147 133 102 255
144.069443 -37.373814 18.125399 -0.275892 -0.947161 0.163612 0.125477 0.598996 147 133 102 255
142.185379 -36.613914 19.347494 -0.275892 -0.947161 0.163612 0.125477 0.598996 147 133 102 255
141.341095 -36.602901 17.987568 -0.275892 -0.947161 0.163612 0.126526 0.596284 147 133 102 255
143.965149 -39.174080 17.917130 0.339329 0.939365 -0.049491 0.125000 0.598639 80 72 55 255
143.280319 -38.998756 16.549417 0.339329 0.939365 -0.049491 0.125000 0.595978 80 72 55 255
141.396255 -38.253784 17.771513 0.339329 0.939365 -0.049491 0.125000 0.595978 80 72 55 255
144.259918 -37.327023 11.606190 -0.773903 -0.000000 -0.633304 1.000000 1.000000 236 181 85 255
143.511292 -39.113136 12.504368 -0.773903 -0.000000 -0.633304 1.000000 0.000000 236 181 85 255
145.676407 -37.606167 13.648220 -0.189317 -0.000000 -0.981916 1.000000 1.000000 236 181 85 255
144.512390 -39.347012 13.860680 -0.189328 -0.000000 -0.981914 1.000000 0.000000 236 181 85 255
145.339294 -37.741116 16.172489 0.574180 0.000000 -0.818729 1.000000 1.000000 236 181 85 255
144.429077 -37.699951 15.542006 0.574180 0.000000 -0.818729 1.000000 1.000000 236 181 85 255
143.936172 -37.401127 17.654436 0.846953 0.000000 -0.531667 1.000000 1.000000 236 181 85 255
143.396515 -39.216438 16.664856 0.846953 0.000000 -0.531667 1.000000 0.000000 236 181 85 255
142.102448 -36.726822 18.925007 0.846953 0.000000 -0.531667 1.000000 1.000000 236 181 85 255
141.506454 -36.667801 17.873974 0.846913 0.000000 -0.531731 1.000000 1.000000 236 181 85 255
3 0 1 2
3 3 4 5
3 6 7 8
3 9 10 11
3 12 13 14
3 15 16 17
3 18 19 20
3 21 22 23
3 24 25 26
3 27 28 29
3 30 31 32
3 33 34 35
3 36 37 38
3 39 40 41
3 42 43 44
3 45 46 47
3 48 49 50
3 51 52 53
3 54 55 56
3 57 58 59
3 60 61 62
3 63 64 65
3 66 67 68
3 69 70 71
3 72 73 74
3 75 76 77
3 78 79 80
3 81 82 83
3 84 85 86
3 87 88 89
3 90 91 92
3 93 94 95
3 96 97 98
3 99 100 101
3 102 103 104
3 105 106 107
3 108 109 110
3 111 112 113
3 114 115 116
3 117 118 119
3 12 120 13
3 15 121 16
3 122 123 124
3 125 126 127
3 128 129 130
3 131 132 133
3 134 135 136
3 137 138 139
3 140 141 142
3 143 144 145
3 146 147 148
3 149 150 151
3 152 153 154
3 155 156 157
3 158 159 160
3 161 162 163
3 164 165 166
3 167 168 169
3 170 171 172
3 173 174 175
3 176 177 178
3 179 180 181
3 78 182 79
3 81 183 82
3 84 184 85
3 87 185 88
3 90 186 91
3 93 187 94
3 96 188 97
3 99 189 100
3 102 190 103
3 105 191 106
