ply
format ascii 1.0
comment Created by Blender 2.93.1 - www.blender.org
element vertex 24
property float x
property float y
property float z
property float nx
property float ny
property float nz
property float s
property float t
property uchar red
property uchar green
property uchar blue
property uchar alpha
element face 6
property list uchar uint vertex_indices
end_header
42.884888 -12.411498 -42.625931 1.000000 0.000000 0.000000 0.375000 0.000000 255 151 108 255
42.884888 -9.211497 -42.625931 1.000000 0.000000 0.000000 0.625000 0.000000 255 147 101 255
42.884888 -9.211497 -39.425934 1.000000 0.000000 0.000000 0.625000 0.250000 255 147 101 255
42.884888 -12.411498 -39.425934 1.000000 0.000000 0.000000 0.375000 0.250000 255 147 101 255
42.884888 -12.411498 -39.425934 -0.000000 0.000000 1.000000 0.375000 0.250000 255 147 101 255
42.884888 -9.211497 -39.425934 -0.000000 0.000000 1.000000 0.625000 0.250000 255 147 101 255
39.684891 -9.211497 -39.425934 -0.000000 0.000000 1.000000 0.625000 0.500000 255 147 101 255
39.684891 -12.411498 -39.425934 -0.000000 0.000000 1.000000 0.375000 0.500000 255 149 106 255
39.684891 -12.411498 -39.425934 -1.000000 0.000000 0.000000 0.375000 0.500000 255 149 106 255
39.684891 -9.211497 -39.425934 -1.000000 0.000000 0.000000 0.625000 0.500000 255 147 101 255
39.684891 -9.211497 -42.625931 -1.000000 0.000000 0.000000 0.625000 0.750000 255 166 132 255
39.684891 -12.411498 -42.625931 -1.000000 0.000000 0.000000 0.375000 0.750000 255 147 101 255
39.684891 -12.411498 -42.625931 -0.000000 0.000000 -1.000000 0.375000 0.750000 255 147 101 255
39.684891 -9.211497 -42.625931 -0.000000 0.000000 -1.000000 0.625000 0.750000 255 166 132 255
42.884888 -9.211497 -42.625931 -0.000000 0.000000 -1.000000 0.625000 1.000000 255 147 101 255
42.884888 -12.411498 -42.625931 -0.000000 0.000000 -1.000000 0.375000 1.000000 255 151 108 255
42.884888 -12.411498 -39.425934 0.000000 -1.000000 0.000000 0.125000 0.500000 255 147 101 255
39.684891 -12.411498 -39.425934 0.000000 -1.000000 0.000000 0.375000 0.500000 255 149 106 255
39.684891 -12.411498 -42.625931 0.000000 -1.000000 0.000000 0.375000 0.750000 255 147 101 255
42.884888 -12.411498 -42.625931 0.000000 -1.000000 0.000000 0.125000 0.750000 255 151 108 255
39.684891 -9.211497 -39.425934 0.000000 1.000000 -0.000000 0.625000 0.500000 255 147 101 255
42.884888 -9.211497 -39.425934 0.000000 1.000000 -0.000000 0.875000 0.500000 255 147 101 255
42.884888 -9.211497 -42.625931 0.000000 1.000000 -0.000000 0.875000 0.750000 255 147 101 255
39.684891 -9.211497 -42.625931 0.000000 1.000000 -0.000000 0.625000 0.750000 255 166 132 255
4 0 1 2 3
4 4 5 6 7
4 8 9 10 11
4 12 13 14 15
4 16 17 18 19
4 20 21 22 23
