ply
format ascii 1.0
comment Created by Blender 2.92.0 - www.blender.org
element vertex 24
property float x
property float y
property float z
property float nx
property float ny
property float nz
property float s
property float t
property uchar red
property uchar green
property uchar blue
property uchar alpha
element face 6
property list uchar uint vertex_indices
end_header
118.387146 -21.360928 -123.795006 1.000000 0.000000 0.000000 0.375000 0.000000 217 186 242 255
118.387146 -18.249706 -123.795006 1.000000 0.000000 0.000000 0.625000 0.000000 217 186 242 255
118.387146 -18.249706 -120.683784 1.000000 0.000000 0.000000 0.625000 0.250000 217 186 242 255
118.387146 -21.360928 -120.683784 1.000000 0.000000 0.000000 0.375000 0.250000 217 186 242 255
118.387146 -21.360928 -120.683784 -0.000000 0.000000 1.000000 0.375000 0.250000 217 186 242 255
118.387146 -18.249706 -120.683784 -0.000000 0.000000 1.000000 0.625000 0.250000 217 186 242 255
115.275925 -18.249706 -120.683784 -0.000000 0.000000 1.000000 0.625000 0.500000 217 186 242 255
115.275925 -21.360928 -120.683784 -0.000000 0.000000 1.000000 0.375000 0.500000 217 186 242 255
115.275925 -21.360928 -120.683784 -1.000000 0.000000 0.000000 0.375000 0.500000 217 186 242 255
115.275925 -18.249706 -120.683784 -1.000000 0.000000 0.000000 0.625000 0.500000 217 186 242 255
115.275925 -18.249706 -123.795006 -1.000000 0.000000 0.000000 0.625000 0.750000 217 186 242 255
115.275925 -21.360928 -123.795006 -1.000000 0.000000 0.000000 0.375000 0.750000 217 186 242 255
115.275925 -21.360928 -123.795006 -0.000000 0.000000 -1.000000 0.375000 0.750000 217 186 242 255
115.275925 -18.249706 -123.795006 -0.000000 0.000000 -1.000000 0.625000 0.750000 217 186 242 255
118.387146 -18.249706 -123.795006 -0.000000 0.000000 -1.000000 0.625000 1.000000 217 186 242 255
118.387146 -21.360928 -123.795006 -0.000000 0.000000 -1.000000 0.375000 1.000000 217 186 242 255
118.387146 -21.360928 -120.683784 0.000000 -1.000000 0.000000 0.125000 0.500000 217 186 242 255
115.275925 -21.360928 -120.683784 0.000000 -1.000000 0.000000 0.375000 0.500000 217 186 242 255
115.275925 -21.360928 -123.795006 0.000000 -1.000000 0.000000 0.375000 0.750000 217 186 242 255
118.387146 -21.360928 -123.795006 0.000000 -1.000000 0.000000 0.125000 0.750000 217 186 242 255
115.275925 -18.249706 -120.683784 0.000000 1.000000 -0.000000 0.625000 0.500000 217 186 242 255
118.387146 -18.249706 -120.683784 0.000000 1.000000 -0.000000 0.875000 0.500000 217 186 242 255
118.387146 -18.249706 -123.795006 0.000000 1.000000 -0.000000 0.875000 0.750000 217 186 242 255
115.275925 -18.249706 -123.795006 0.000000 1.000000 -0.000000 0.625000 0.750000 217 186 242 255
4 0 1 2 3
4 4 5 6 7
4 8 9 10 11
4 12 13 14 15
4 16 17 18 19
4 20 21 22 23
