ply
format ascii 1.0
comment Created by Blender 2.92.0 - www.blender.org
element vertex 24
property float x
property float y
property float z
property float nx
property float ny
property float nz
property float s
property float t
property uchar red
property uchar green
property uchar blue
property uchar alpha
element face 6
property list uchar uint vertex_indices
end_header
48.189850 -13.012426 -47.330154 1.000000 0.000000 0.000000 0.375000 0.000000 255 151 108 255
48.189850 -10.161711 -47.330154 1.000000 0.000000 0.000000 0.625000 0.000000 255 147 101 255
48.189850 -10.161711 -44.479439 1.000000 0.000000 0.000000 0.625000 0.250000 255 147 101 255
48.189850 -13.012426 -44.479439 1.000000 0.000000 0.000000 0.375000 0.250000 255 147 101 255
48.189850 -13.012426 -44.479439 -0.000000 0.000000 1.000000 0.375000 0.250000 255 147 101 255
48.189850 -10.161711 -44.479439 -0.000000 0.000000 1.000000 0.625000 0.250000 255 147 101 255
45.339134 -10.161711 -44.479439 -0.000000 0.000000 1.000000 0.625000 0.500000 255 147 101 255
45.339134 -13.012426 -44.479439 -0.000000 0.000000 1.000000 0.375000 0.500000 255 149 106 255
45.339134 -13.012426 -44.479439 -1.000000 0.000000 0.000000 0.375000 0.500000 255 149 106 255
45.339134 -10.161711 -44.479439 -1.000000 0.000000 0.000000 0.625000 0.500000 255 147 101 255
45.339134 -10.161711 -47.330154 -1.000000 0.000000 0.000000 0.625000 0.750000 255 166 132 255
45.339134 -13.012426 -47.330154 -1.000000 0.000000 0.000000 0.375000 0.750000 255 147 101 255
45.339134 -13.012426 -47.330154 -0.000000 0.000000 -1.000000 0.375000 0.750000 255 147 101 255
45.339134 -10.161711 -47.330154 -0.000000 0.000000 -1.000000 0.625000 0.750000 255 166 132 255
48.189850 -10.161711 -47.330154 -0.000000 0.000000 -1.000000 0.625000 1.000000 255 147 101 255
48.189850 -13.012426 -47.330154 -0.000000 0.000000 -1.000000 0.375000 1.000000 255 151 108 255
48.189850 -13.012426 -44.479439 0.000000 -1.000000 0.000000 0.125000 0.500000 255 147 101 255
45.339134 -13.012426 -44.479439 0.000000 -1.000000 0.000000 0.375000 0.500000 255 149 106 255
45.339134 -13.012426 -47.330154 0.000000 -1.000000 0.000000 0.375000 0.750000 255 147 101 255
48.189850 -13.012426 -47.330154 0.000000 -1.000000 0.000000 0.125000 0.750000 255 151 108 255
45.339134 -10.161711 -44.479439 0.000000 1.000000 -0.000000 0.625000 0.500000 255 147 101 255
48.189850 -10.161711 -44.479439 0.000000 1.000000 -0.000000 0.875000 0.500000 255 147 101 255
48.189850 -10.161711 -47.330154 0.000000 1.000000 -0.000000 0.875000 0.750000 255 147 101 255
45.339134 -10.161711 -47.330154 0.000000 1.000000 -0.000000 0.625000 0.750000 255 166 132 255
4 0 1 2 3
4 4 5 6 7
4 8 9 10 11
4 12 13 14 15
4 16 17 18 19
4 20 21 22 23
