ply
format ascii 1.0
comment Created by Blender 2.92.0 - www.blender.org
element vertex 180
property float x
property float y
property float z
property float nx
property float ny
property float nz
property float s
property float t
property uchar red
property uchar green
property uchar blue
property uchar alpha
element face 85
property list uchar uint vertex_indices
end_header
-35.895309 -12.801314 36.133404 1.000000 0.000000 0.000000 0.375000 0.000000 255 255 255 255
-35.895309 5.761622 36.133404 1.000000 0.000000 0.000000 0.625000 0.000000 255 255 255 255
-35.895309 5.761622 64.227188 1.000000 0.000000 0.000000 0.625000 0.250000 255 255 255 255
-35.895309 -12.801314 64.227188 1.000000 0.000000 0.000000 0.375000 0.250000 255 255 255 255
-35.895309 -12.801314 64.227188 -0.000000 0.000000 1.000000 0.375000 0.250000 255 255 255 255
-35.895309 5.761622 64.227188 -0.000000 0.000000 1.000000 0.625000 0.250000 255 255 255 255
-66.425362 5.761622 64.227188 -0.000000 0.000000 1.000000 0.625000 0.500000 255 255 255 255
-66.425362 -12.801314 64.227188 -0.000000 0.000000 1.000000 0.375000 0.500000 255 255 255 255
-66.425362 -12.801314 64.227188 -1.000000 0.000000 0.000000 0.375000 0.500000 255 255 255 255
-66.425362 5.761622 64.227188 -1.000000 0.000000 0.000000 0.625000 0.500000 255 255 255 255
-66.425362 5.761622 36.133404 -1.000000 0.000000 0.000000 0.625000 0.750000 255 255 255 255
-66.425362 -12.801314 36.133404 -1.000000 0.000000 0.000000 0.375000 0.750000 255 255 255 255
-66.425362 -12.801314 36.133404 -0.000000 0.000000 -1.000000 0.375000 0.750000 255 255 255 255
-66.425362 5.761622 36.133404 -0.000000 0.000000 -1.000000 0.625000 0.750000 255 255 255 255
-35.895309 5.761622 36.133404 -0.000000 0.000000 -1.000000 0.625000 1.000000 255 255 255 255
-35.895309 -12.801314 36.133404 -0.000000 0.000000 -1.000000 0.375000 1.000000 255 255 255 255
-35.895309 -12.801314 64.227188 0.000000 -1.000000 0.000000 0.125000 0.500000 255 255 255 255
-66.425362 -12.801314 64.227188 0.000000 -1.000000 0.000000 0.375000 0.500000 255 255 255 255
-66.425362 -12.801314 36.133404 0.000000 -1.000000 0.000000 0.375000 0.750000 255 255 255 255
-35.895309 -12.801314 36.133404 0.000000 -1.000000 0.000000 0.125000 0.750000 255 255 255 255
-66.425362 5.761622 64.227188 0.000000 1.000000 -0.000000 0.625000 0.500000 255 255 255 255
-35.895309 5.761622 64.227188 0.000000 1.000000 -0.000000 0.875000 0.500000 255 255 255 255
-35.895309 5.761622 36.133404 0.000000 1.000000 -0.000000 0.875000 0.750000 255 255 255 255
-66.425362 5.761622 36.133404 0.000000 1.000000 -0.000000 0.625000 0.750000 255 255 255 255
25.946831 -2.193249 -11.458422 -0.992175 0.000000 0.124854 0.500000 0.250000 147 133 102 255
25.420914 0.991102 -15.637709 -0.992175 0.000000 0.124854 0.625000 0.250000 147 133 102 255
25.420914 -2.885034 -15.637709 -0.992175 0.000000 0.124854 0.500000 0.250000 147 133 102 255
21.954845 -5.377600 -11.205351 0.992396 0.000000 -0.123083 0.375000 1.000000 147 133 102 255
21.508171 0.991102 -14.806793 0.992396 0.000000 -0.123083 0.625000 1.000000 147 133 102 255
21.954845 0.991102 -11.205351 0.992396 0.000000 -0.123083 0.625000 1.000000 147 133 102 255
25.946831 -5.377600 -11.458422 -0.022574 0.934181 -0.356086 0.125000 0.500000 115 196 116 255
21.508171 -6.761170 -14.806793 -0.022574 0.934181 -0.356086 0.125000 0.750000 115 196 116 255
21.954845 -5.377600 -11.205351 -0.022574 0.934181 -0.356086 0.125000 0.750000 115 196 116 255
25.420914 0.991102 -15.637709 -0.843402 0.000000 0.537283 0.625000 0.250000 147 133 102 255
22.908058 -2.885034 -19.582273 -0.843402 0.000000 0.537283 0.500000 0.250000 147 133 102 255
25.420914 -2.885034 -15.637709 -0.843402 0.000000 0.537283 0.500000 0.250000 147 133 102 255
21.508171 0.991102 -14.806793 0.563354 0.122678 -0.817057 0.625000 1.000000 147 133 102 255
19.663818 -6.761170 -17.242428 0.563354 0.122678 -0.817057 0.375000 1.000000 147 133 102 255
18.815456 0.991102 -16.663397 0.563354 0.122678 -0.817057 0.625000 1.000000 147 133 102 255
21.508171 -6.761170 -14.806793 -0.000000 1.000000 -0.000000 0.125000 0.750000 115 196 116 255
22.908058 -6.761170 -19.582273 -0.000000 1.000000 -0.000000 0.125000 0.500000 115 196 116 255
19.663818 -6.761170 -17.242428 -0.000000 1.000000 -0.000000 0.125000 0.750000 115 196 116 255
22.908058 0.991102 -19.582273 -0.812981 0.000000 0.582290 0.625000 0.250000 147 133 102 255
20.836145 -2.885034 -22.475037 -0.812981 0.000000 0.582290 0.500000 0.250000 147 133 102 255
22.908058 -2.885034 -19.582273 -0.812981 0.000000 0.582290 0.500000 0.250000 147 133 102 255
18.815456 0.991102 -16.663397 0.752757 0.130570 -0.645220 0.625000 1.000000 147 133 102 255
17.329599 -6.761170 -19.965683 0.752757 0.130570 -0.645220 0.375000 1.000000 147 133 102 255
16.481237 0.991102 -19.386652 0.752757 0.130570 -0.645220 0.625000 1.000000 147 133 102 255
20.573839 -6.761170 -22.305529 -0.000000 1.000000 -0.000000 0.125000 0.500000 115 196 116 255
17.329599 -6.761170 -19.965683 -0.000000 1.000000 -0.000000 0.125000 0.750000 115 196 116 255
20.836145 -2.885034 -22.475037 -0.777163 0.178952 0.603319 0.500000 0.250000 147 133 102 255
19.515688 0.991102 -25.325689 -0.777163 0.178952 0.603319 0.625000 0.250000 147 133 102 255
18.942907 -2.885034 -24.913805 -0.777163 0.178952 0.603319 0.500000 0.250000 147 133 102 255
16.481237 0.991102 -19.386652 0.725493 0.183571 -0.663296 0.625000 1.000000 147 133 102 255
15.021242 -6.761170 -23.129038 0.725493 0.183571 -0.663296 0.375000 1.000000 147 133 102 255
13.244095 0.991102 -22.927336 0.725493 0.183571 -0.663296 0.625000 1.000000 147 133 102 255
18.680601 -6.761170 -24.744297 -0.000000 1.000000 0.000000 0.125000 0.500000 115 196 116 255
16.435274 -6.761170 -23.753199 -0.000000 1.000000 0.000000 0.125000 0.653396 115 196 116 255
19.515688 0.991102 -25.325689 -0.973778 0.160978 0.160754 0.625000 0.250000 147 133 102 255
18.613375 -2.885034 -26.909973 -0.973778 0.160978 0.160754 0.500000 0.250000 147 133 102 255
18.942907 -2.885034 -24.913805 -0.973778 0.160978 0.160754 0.500000 0.250000 147 133 102 255
13.244095 0.991102 -22.927336 0.996956 0.072667 0.028247 0.625000 1.000000 147 133 102 255
13.919086 -6.761170 -26.807348 0.996956 0.072667 0.028247 0.375000 1.000000 147 133 102 255
13.226950 2.854157 -27.115030 0.996956 0.072667 0.028247 0.625000 1.000000 147 133 102 255
13.919086 -6.761170 -26.807348 -0.000000 1.000000 0.000000 0.125000 0.750000 115 196 116 255
15.021242 -6.761170 -23.129038 -0.000000 1.000000 0.000000 0.125000 0.750000 115 196 116 255
18.987688 0.991102 -26.901056 -0.950762 0.092494 -0.295798 0.625000 0.250000 147 133 102 255
19.049015 -2.885034 -28.310219 -0.950762 0.092494 -0.295798 0.500000 0.250000 147 133 102 255
18.613375 -2.885034 -26.909973 -0.950762 0.092494 -0.295798 0.500000 0.250000 147 133 102 255
13.226950 2.854157 -27.115030 0.986804 0.019351 0.160760 0.625000 1.000000 147 133 102 255
13.897796 -6.761170 -30.075541 0.986804 0.019351 0.160760 0.375000 1.000000 147 133 102 255
13.759369 2.854157 -30.383223 0.986804 0.019351 0.160760 0.625000 1.000000 147 133 102 255
17.495207 -6.761170 -28.705511 0.000000 1.000000 -0.000000 0.125000 0.548045 115 196 116 255
13.897796 -6.761170 -30.075541 0.000000 1.000000 -0.000000 0.125000 0.750000 115 196 116 255
13.897796 -6.761170 -30.075541 0.822822 0.030005 0.567507 0.375000 1.000000 147 133 102 255
15.632977 0.991102 -33.001244 0.822822 0.030005 0.567507 0.625000 1.000000 147 133 102 255
13.759369 2.854157 -30.383223 0.822822 0.030005 0.567507 0.625000 1.000000 147 133 102 255
16.145046 -6.761170 -32.434490 -0.000000 1.000000 0.000000 0.125000 0.750000 115 196 116 255
16.145046 -6.761170 -32.434490 0.595052 0.097626 0.797735 0.375000 1.000000 147 133 102 255
17.522644 0.991102 -34.410797 0.595052 0.097626 0.797735 0.625000 1.000000 147 133 102 255
15.632977 0.991102 -33.001244 0.595052 0.097626 0.797735 0.625000 1.000000 147 133 102 255
18.416588 -6.761170 -33.017941 0.000000 1.000000 -0.000000 0.125000 0.693119 115 196 116 255
18.034714 -6.761170 -33.844044 0.000000 1.000000 -0.000000 0.125000 0.750000 115 196 116 255
21.871519 0.991102 -30.390837 -0.640725 0.080744 -0.763513 0.625000 0.250000 147 133 102 255
22.747589 -2.885034 -31.535931 -0.640725 0.080744 -0.763513 0.500000 0.250000 147 133 102 255
20.458170 -2.885034 -29.614695 -0.640725 0.080744 -0.763513 0.500000 0.250000 147 133 102 255
18.034714 -6.761170 -33.844044 0.207719 0.084964 0.974492 0.375000 1.000000 147 133 102 255
21.069199 0.991102 -35.166767 0.207719 0.084964 0.974492 0.625000 1.000000 147 133 102 255
17.522644 0.991102 -34.410797 0.207719 0.084964 0.974492 0.625000 1.000000 147 133 102 255
22.747589 -6.761170 -31.535931 0.000000 1.000000 -0.000000 0.125000 0.500000 115 196 116 255
21.069199 -6.761170 -35.166767 0.000000 1.000000 -0.000000 0.125000 0.750000 115 196 116 255
20.458170 -2.885034 -29.614695 -0.390387 0.213328 -0.895594 0.500000 0.250000 147 133 102 255
22.747589 -6.761170 -31.535931 -0.390387 0.213328 -0.895594 0.375000 0.250000 147 133 102 255
19.713104 -6.761170 -30.213207 -0.390387 0.213328 -0.895594 0.375000 0.250000 147 133 102 255
18.613375 -2.885034 -26.909973 -0.940198 0.174540 -0.292512 0.500000 0.250000 147 133 102 255
18.351023 -6.761170 -28.379585 -0.940198 0.174540 -0.292512 0.375000 0.250000 147 133 102 255
17.915382 -6.761170 -26.979340 -0.940198 0.174540 -0.292512 0.375000 0.250000 147 133 102 255
18.680601 -6.761170 -24.744297 -0.933529 0.162385 0.319615 0.375000 0.250000 147 133 102 255
18.613375 -2.885034 -26.909973 -0.933529 0.162385 0.319615 0.500000 0.250000 147 133 102 255
17.915382 -6.761170 -26.979340 -0.933529 0.162385 0.319615 0.375000 0.250000 147 133 102 255
20.573839 -6.761170 -22.305529 -0.787381 0.080014 0.611251 0.375000 0.250000 147 133 102 255
18.942907 -2.885034 -24.913805 -0.787381 0.080014 0.611251 0.500000 0.250000 147 133 102 255
18.680601 -6.761170 -24.744297 -0.787381 0.080014 0.611251 0.375000 0.250000 147 133 102 255
22.908058 -6.761170 -19.582273 -0.756848 0.079587 0.648727 0.375000 0.250000 147 133 102 255
20.836145 -2.885034 -22.475037 -0.756848 0.079587 0.648727 0.500000 0.250000 147 133 102 255
20.573839 -6.761170 -22.305529 -0.756848 0.079587 0.648727 0.375000 0.250000 147 133 102 255
22.908058 -6.761170 -19.582273 -0.843402 0.000000 0.537283 0.375000 0.250000 147 133 102 255
25.420914 -6.761170 -15.637709 -0.843402 0.000000 0.537283 0.375000 0.250000 147 133 102 255
25.946831 -5.377600 -11.458422 -0.992175 0.000000 0.124854 0.375000 0.250000 147 133 102 255
25.420914 -6.761170 -15.637709 -0.992175 0.000000 0.124854 0.375000 0.250000 147 133 102 255
19.423328 0.991102 -28.301302 -0.677792 0.067138 -0.732182 0.625000 0.250000 147 133 102 255
20.458170 -2.885034 -29.614695 -0.677792 0.067138 -0.732182 0.500000 0.250000 147 133 102 255
19.049015 -2.885034 -28.310219 -0.677792 0.067138 -0.732182 0.500000 0.250000 147 133 102 255
20.458170 -2.885034 -29.614695 -0.626812 0.235185 -0.742829 0.500000 0.250000 147 133 102 255
19.713104 -6.761170 -30.213207 -0.626812 0.235185 -0.742829 0.375000 0.250000 147 133 102 255
18.801708 -6.761170 -29.444155 -0.626812 0.235185 -0.742829 0.375000 0.250000 147 133 102 255
17.915382 -6.761170 -26.979340 0.000000 1.000000 0.000000 0.125000 0.500000 115 196 116 255
18.351023 -6.761170 -28.379585 0.000000 1.000000 0.000000 0.125000 0.500000 115 196 116 255
17.118313 -6.761170 -26.945036 0.000000 1.000000 -0.000000 0.125000 0.549863 115 196 116 255
17.876339 -6.761170 -30.485748 0.000000 1.000000 -0.000000 0.125000 0.587080 115 196 116 255
19.713104 -6.761170 -30.213207 0.000000 1.000000 -0.000000 0.125000 0.500000 115 196 116 255
18.801708 -6.761170 -29.444155 0.000000 1.000000 -0.000000 0.125000 0.500000 115 196 116 255
25.946831 0.991102 -11.458422 -0.992175 0.000000 0.124854 0.625000 0.250000 147 133 102 255
21.508171 -6.761170 -14.806793 0.992396 0.000000 -0.123083 0.375000 1.000000 147 133 102 255
25.946831 -5.377600 -11.458422 -0.065031 0.949734 -0.306230 0.125000 0.500000 115 196 116 255
25.420914 -6.761170 -15.637709 -0.065031 0.949734 -0.306230 0.125000 0.500000 115 196 116 255
21.508171 -6.761170 -14.806793 -0.065031 0.949734 -0.306230 0.125000 0.750000 115 196 116 255
22.908058 0.991102 -19.582273 -0.843402 0.000000 0.537283 0.625000 0.250000 147 133 102 255
21.508171 0.991102 -14.806793 0.797222 0.000000 -0.603686 0.625000 1.000000 147 133 102 255
21.508171 -6.761170 -14.806793 0.797222 0.000000 -0.603686 0.375000 1.000000 147 133 102 255
19.663818 -6.761170 -17.242428 0.797222 0.000000 -0.603686 0.375000 1.000000 147 133 102 255
25.420914 -6.761170 -15.637709 0.000000 1.000000 -0.000000 0.125000 0.500000 115 196 116 255
22.908058 0.991102 -19.582273 -0.896510 0.175694 0.406696 0.625000 0.250000 147 133 102 255
21.408926 0.991102 -22.886921 -0.896510 0.175694 0.406696 0.625000 0.250000 147 133 102 255
20.836145 -2.885034 -22.475037 -0.896510 0.175694 0.406696 0.500000 0.250000 147 133 102 255
19.663818 -6.761170 -17.242428 0.752757 0.130570 -0.645220 0.375000 1.000000 147 133 102 255
21.408926 0.991102 -22.886921 -0.777163 0.178952 0.603319 0.625000 0.250000 147 133 102 255
16.481237 0.991102 -19.386652 0.800804 0.131282 -0.584361 0.625000 1.000000 147 133 102 255
17.329599 -6.761170 -19.965683 0.800804 0.131282 -0.584361 0.375000 1.000000 147 133 102 255
15.021242 -6.761170 -23.129038 0.800804 0.131282 -0.584361 0.375000 1.000000 147 133 102 255
19.515688 0.991102 -25.325689 -0.944275 0.090459 0.316483 0.625000 0.250000 147 133 102 255
18.987688 0.991102 -26.901056 -0.944275 0.090459 0.316483 0.625000 0.250000 147 133 102 255
18.613375 -2.885034 -26.909973 -0.944275 0.090459 0.316483 0.500000 0.250000 147 133 102 255
13.244095 0.991102 -22.927336 0.934143 0.221428 -0.279904 0.625000 1.000000 147 133 102 255
15.021242 -6.761170 -23.129038 0.934143 0.221428 -0.279904 0.375000 1.000000 147 133 102 255
13.919086 -6.761170 -26.807348 0.934143 0.221428 -0.279904 0.375000 1.000000 147 133 102 255
19.423328 0.991102 -28.301302 -0.950762 0.092494 -0.295798 0.625000 0.250000 147 133 102 255
13.226950 2.854157 -27.115030 0.997413 0.071588 -0.006497 0.625000 1.000000 147 133 102 255
13.919086 -6.761170 -26.807348 0.997413 0.071588 -0.006497 0.375000 1.000000 147 133 102 255
13.897796 -6.761170 -30.075541 0.997413 0.071588 -0.006497 0.375000 1.000000 147 133 102 255
13.897796 -6.761170 -30.075541 0.720571 0.097782 0.686451 0.375000 1.000000 147 133 102 255
16.145046 -6.761170 -32.434490 0.720571 0.097782 0.686451 0.375000 1.000000 147 133 102 255
15.632977 0.991102 -33.001244 0.720571 0.097782 0.686451 0.625000 1.000000 147 133 102 255
16.145046 -6.761170 -32.434490 0.595052 0.097627 0.797736 0.375000 1.000000 147 133 102 255
18.034714 -6.761170 -33.844044 0.595052 0.097627 0.797736 0.375000 1.000000 147 133 102 255
17.522644 0.991102 -34.410797 0.595052 0.097627 0.797736 0.625000 1.000000 147 133 102 255
21.871519 0.991102 -30.390837 -0.794221 0.000000 -0.607629 0.625000 0.250000 147 133 102 255
22.747589 0.991102 -31.535931 -0.794221 0.000000 -0.607629 0.625000 0.250000 147 133 102 255
22.747589 -2.885034 -31.535931 -0.794221 0.000000 -0.607629 0.500000 0.250000 147 133 102 255
18.034714 -6.761170 -33.844044 0.399585 0.000000 0.916696 0.375000 1.000000 147 133 102 255
21.069199 -6.761170 -35.166767 0.399585 0.000000 0.916696 0.375000 1.000000 147 133 102 255
21.069199 0.991102 -35.166767 0.399585 0.000000 0.916696 0.625000 1.000000 147 133 102 255
20.458170 -2.885034 -29.614695 -0.642824 0.000000 -0.766014 0.500000 0.250000 147 133 102 255
22.747589 -2.885034 -31.535931 -0.642824 0.000000 -0.766014 0.500000 0.250000 147 133 102 255
22.747589 -6.761170 -31.535931 -0.642824 0.000000 -0.766014 0.375000 0.250000 147 133 102 255
19.049015 -2.885034 -28.310219 -0.940198 0.174540 -0.292512 0.500000 0.250000 147 133 102 255
18.680601 -6.761170 -24.744297 -0.983964 0.073690 0.162435 0.375000 0.250000 147 133 102 255
18.942907 -2.885034 -24.913805 -0.983964 0.073690 0.162435 0.500000 0.250000 147 133 102 255
18.613375 -2.885034 -26.909973 -0.983964 0.073690 0.162435 0.500000 0.250000 147 133 102 255
20.836145 -2.885034 -22.475037 -0.787381 0.080014 0.611251 0.500000 0.250000 147 133 102 255
22.908058 -6.761170 -19.582273 -0.812981 0.000000 0.582290 0.375000 0.250000 147 133 102 255
19.423328 0.991102 -28.301302 -0.646893 0.084111 -0.757928 0.625000 0.250000 147 133 102 255
21.871519 0.991102 -30.390837 -0.646893 0.084111 -0.757928 0.625000 0.250000 147 133 102 255
20.458170 -2.885034 -29.614695 -0.646893 0.084111 -0.757928 0.500000 0.250000 147 133 102 255
18.801708 -6.761170 -29.444155 -0.907428 0.170279 -0.384160 0.375000 0.250000 147 133 102 255
18.351023 -6.761170 -28.379585 -0.907428 0.170279 -0.384160 0.375000 0.250000 147 133 102 255
19.049015 -2.885034 -28.310219 -0.907428 0.170279 -0.384160 0.500000 0.250000 147 133 102 255
19.049015 -2.885034 -28.310219 -0.657781 0.249839 -0.710566 0.500000 0.250000 147 133 102 255
20.458170 -2.885034 -29.614695 -0.657781 0.249839 -0.710566 0.500000 0.250000 147 133 102 255
18.801708 -6.761170 -29.444155 -0.657781 0.249839 -0.710566 0.375000 0.250000 147 133 102 255
4 0 1 2 3
4 4 5 6 7
4 8 9 10 11
4 12 13 14 15
4 16 17 18 19
4 20 21 22 23
3 24 25 26
3 27 28 29
3 30 31 32
3 33 34 35
3 36 37 38
3 39 40 41
3 42 43 44
3 45 46 47
3 41 48 49
3 50 51 52
3 53 54 55
3 48 56 57
3 58 59 60
3 61 62 63
3 57 64 65
3 66 67 68
3 69 70 71
3 64 72 73
3 74 75 76
3 72 77 73
3 78 79 80
3 77 81 82
3 83 84 85
3 86 87 88
3 81 89 90
3 91 92 93
3 94 95 96
3 97 98 99
3 100 101 102
3 103 104 105
3 35 106 107
3 108 26 109
3 110 111 112
3 113 114 115
3 72 116 117
3 118 56 116
3 119 120 81
3 72 121 119
3 24 122 25
3 27 123 28
3 124 125 126
3 33 127 34
3 128 129 130
3 39 131 40
3 132 133 134
3 45 135 46
3 41 40 48
3 50 136 51
3 137 138 139
3 65 49 57
3 49 48 57
3 140 141 142
3 143 144 145
3 57 118 64
3 66 146 67
3 147 148 149
3 64 118 72
3 150 151 152
3 72 119 77
3 153 154 155
3 77 119 81
3 156 157 158
3 159 160 161
3 90 82 81
3 81 120 89
3 162 163 164
3 94 165 95
3 166 167 168
3 100 169 101
3 170 44 43
3 35 34 106
3 108 24 26
3 171 172 173
3 174 175 176
3 177 178 179
3 72 118 116
3 118 57 56
3 119 121 120
3 72 117 121
