ply
format ascii 1.0
comment Created by Blender 2.92.0 - www.blender.org
element vertex 276
property float x
property float y
property float z
property float nx
property float ny
property float nz
property float s
property float t
property uchar red
property uchar green
property uchar blue
property uchar alpha
element face 119
property list uchar uint vertex_indices
end_header
-58.030544 -10.133689 43.332291 0.194940 0.289048 0.937257 0.375000 0.750000 147 133 102 255
-52.270523 -0.809354 39.258659 0.194940 0.289048 0.937257 0.625000 0.873445 147 133 102 255
-61.290607 -0.809354 41.134743 0.194940 0.289048 0.937257 0.625000 0.750000 147 133 102 255
-44.691273 -10.133056 50.901581 0.034693 0.995751 -0.085300 0.171720 0.627336 115 196 116 255
-49.966419 -10.396753 45.677830 0.034693 0.995751 -0.085300 0.250713 0.703846 115 196 116 255
-55.100471 -9.749007 51.151188 0.034693 0.995751 -0.085300 0.325187 0.619583 115 196 116 255
-57.995777 -10.581739 58.319885 0.854512 0.362533 -0.371992 0.375000 0.500000 147 133 102 255
-64.255524 -0.809354 53.464359 0.854512 0.362533 -0.371992 0.625000 0.588958 147 133 102 255
-61.290607 -0.809354 60.275139 0.854512 0.362533 -0.371992 0.625000 0.500000 147 133 102 255
-50.190174 -10.226768 59.541725 -0.117920 0.165988 -0.979052 0.375000 0.370133 147 133 102 255
-43.023216 -0.809354 60.275139 -0.117920 0.165988 -0.979052 0.625000 0.250000 147 133 102 255
-42.743690 -10.218160 58.646305 -0.117920 0.165988 -0.979052 0.375000 0.250000 147 133 102 255
-42.743690 -10.218160 58.646305 -0.907448 0.363630 -0.210503 0.375000 0.250000 147 133 102 255
-37.509499 -0.809354 52.335587 -0.907448 0.363630 -0.210503 0.625000 0.561105 147 133 102 255
-40.716286 -9.759229 50.699249 -0.907448 0.363630 -0.210503 0.375000 0.635683 147 133 102 255
-50.328140 -10.153228 41.237038 -0.278925 0.205500 0.938068 0.375000 0.874752 147 133 102 255
-42.689102 -10.193803 43.517315 -0.278925 0.205500 0.938068 0.375000 1.000000 147 133 102 255
-42.989174 -2.623460 41.769676 -0.278925 0.205500 0.938068 0.505524 0.956245 147 133 102 255
-59.444962 -10.288747 51.631084 0.887245 0.408993 0.213357 0.375000 0.619464 147 133 102 255
-61.290607 -0.809354 41.134743 0.887245 0.408993 0.213357 0.625000 0.750000 147 133 102 255
-64.255524 -0.809354 53.464359 0.887245 0.408993 0.213357 0.625000 0.588958 147 133 102 255
-52.533264 -0.809354 62.123745 0.199629 0.256521 -0.945698 0.625000 0.380151 147 133 102 255
-57.995777 -10.581739 58.319885 0.199629 0.256521 -0.945698 0.375000 0.500000 147 133 102 255
-61.290607 -0.809354 60.275139 0.199629 0.256521 -0.945698 0.625000 0.500000 147 133 102 255
-37.509499 -0.809354 52.335587 -0.888796 0.136452 0.437518 0.625000 0.561105 147 133 102 255
-43.023216 -0.809354 41.134743 -0.888796 0.136452 0.437518 0.625000 1.000000 147 133 102 255
-42.989174 -2.623460 41.769676 -0.888796 0.136452 0.437518 0.505524 0.956245 147 133 102 255
-45.611923 -10.199009 47.074318 -0.056377 0.997401 -0.044866 0.183616 0.691383 115 196 116 255
-40.716286 -9.759229 50.699249 -0.056377 0.997401 -0.044866 0.125000 0.628561 115 196 116 255
-42.689102 -10.193803 43.517315 -0.056377 0.997401 -0.044866 0.125000 0.750000 115 196 116 255
-46.268276 -10.272942 54.904243 -0.002619 0.999923 -0.012171 0.183366 0.559432 115 196 116 255
-50.190174 -10.226768 59.541725 -0.002619 0.999923 -0.012171 0.245133 0.500000 115 196 116 255
-42.743690 -10.218160 58.646305 -0.002619 0.999923 -0.012171 0.125000 0.500000 115 196 116 255
-54.648521 -10.042072 45.973351 -0.005115 0.999591 -0.028125 0.315158 0.692042 115 196 116 255
-50.328140 -10.153228 41.237038 -0.005115 0.999591 -0.028125 0.250248 0.750000 115 196 116 255
-58.030544 -10.133689 43.332291 -0.005115 0.999591 -0.028125 0.375000 0.750000 115 196 116 255
-54.697433 -10.077989 55.296185 -0.093317 0.993594 0.063741 0.316239 0.559557 115 196 116 255
-59.444962 -10.288747 51.631084 -0.093317 0.993594 0.063741 0.375000 0.619464 115 196 116 255
-57.995777 -10.581739 58.319885 -0.093317 0.993594 0.063741 0.375000 0.500000 115 196 116 255
-45.611923 -10.199009 47.074318 -0.064437 0.996124 0.059874 0.183616 0.691383 115 196 116 255
-50.328140 -10.153228 41.237038 -0.064437 0.996124 0.059874 0.250248 0.750000 115 196 116 255
-49.966419 -10.396753 45.677830 -0.064437 0.996124 0.059874 0.250713 0.703846 115 196 116 255
-54.648521 -10.042072 45.973351 -0.130332 0.989179 -0.067364 0.315158 0.692042 115 196 116 255
-59.444962 -10.288747 51.631084 -0.130332 0.989179 -0.067364 0.375000 0.619464 115 196 116 255
-55.100471 -9.749007 51.151188 -0.130332 0.989179 -0.067364 0.325187 0.619583 115 196 116 255
-54.697433 -10.077989 55.296185 0.116299 0.989236 -0.088802 0.316239 0.559557 115 196 116 255
-50.190174 -10.226768 59.541725 0.116299 0.989236 -0.088802 0.245133 0.500000 115 196 116 255
-49.779392 -10.575946 56.189941 0.116299 0.989236 -0.088802 0.246286 0.550338 115 196 116 255
-46.268276 -10.272942 54.904243 -0.093739 0.995595 -0.002138 0.183366 0.559432 115 196 116 255
-40.716286 -9.759229 50.699249 -0.093739 0.995595 -0.002138 0.125000 0.628561 115 196 116 255
-44.691273 -10.133056 50.901581 -0.093739 0.995595 -0.002138 0.171720 0.627336 115 196 116 255
-58.030544 -10.133689 43.332291 0.254697 0.250693 0.933960 0.375000 0.750000 147 133 102 255
-50.328140 -10.153228 41.237038 0.254697 0.250693 0.933960 0.375000 0.874752 147 133 102 255
-52.270523 -0.809354 39.258659 0.254697 0.250693 0.933960 0.625000 0.873445 147 133 102 255
-49.779392 -10.575946 56.189941 -0.085578 0.996331 0.001103 0.246286 0.550338 115 196 116 255
-46.268276 -10.272942 54.904243 -0.085578 0.996331 0.001103 0.183366 0.559432 115 196 116 255
-44.691273 -10.133056 50.901581 -0.085578 0.996331 0.001103 0.171720 0.627336 115 196 116 255
-44.691273 -10.133056 50.901581 -0.043178 0.999044 -0.006830 0.171720 0.627336 115 196 116 255
-45.611923 -10.199009 47.074318 -0.043178 0.999044 -0.006830 0.183616 0.691383 115 196 116 255
-49.966419 -10.396753 45.677830 -0.043178 0.999044 -0.006830 0.250713 0.703846 115 196 116 255
-49.966419 -10.396753 45.677830 0.072299 0.996125 -0.050070 0.250713 0.703846 115 196 116 255
-54.648521 -10.042072 45.973351 0.072299 0.996125 -0.050070 0.315158 0.692042 115 196 116 255
-55.100471 -9.749007 51.151188 0.072299 0.996125 -0.050070 0.325187 0.619583 115 196 116 255
-55.100471 -9.749007 51.151188 0.087828 0.993650 0.070324 0.325187 0.619583 115 196 116 255
-54.697433 -10.077989 55.296185 0.087828 0.993650 0.070324 0.316239 0.559557 115 196 116 255
-49.779392 -10.575946 56.189941 0.087828 0.993650 0.070324 0.246286 0.550338 115 196 116 255
-49.779392 -10.575946 56.189941 0.039498 0.991858 0.121069 0.246286 0.550338 115 196 116 255
-44.691273 -10.133056 50.901581 0.039498 0.991858 0.121069 0.171720 0.627336 115 196 116 255
-55.100471 -9.749007 51.151188 0.039498 0.991858 0.121069 0.325187 0.619583 115 196 116 255
-57.995777 -10.581739 58.319885 0.865830 0.471671 -0.166928 0.375000 0.500000 147 133 102 255
-59.444962 -10.288747 51.631084 0.865830 0.471671 -0.166928 0.375000 0.619464 147 133 102 255
-64.255524 -0.809354 53.464359 0.865830 0.471671 -0.166928 0.625000 0.588958 147 133 102 255
-50.190174 -10.226768 59.541725 -0.186291 0.216410 -0.958364 0.375000 0.370133 147 133 102 255
-52.533264 -0.809354 62.123745 -0.186291 0.216410 -0.958364 0.625000 0.380151 147 133 102 255
-43.023216 -0.809354 60.275139 -0.186291 0.216410 -0.958364 0.625000 0.250000 147 133 102 255
-42.743690 -10.218160 58.646305 -0.819103 0.074141 -0.568836 0.375000 0.250000 147 133 102 255
-43.023216 -0.809354 60.275139 -0.819103 0.074141 -0.568836 0.625000 0.250000 147 133 102 255
-37.509499 -0.809354 52.335587 -0.819103 0.074141 -0.568836 0.625000 0.561105 147 133 102 255
-43.023216 -0.809354 41.134743 -0.188287 0.321291 0.928074 0.625000 1.000000 147 133 102 255
-52.270523 -0.809354 39.258659 -0.188287 0.321291 0.928074 0.625000 0.873445 147 133 102 255
-42.989174 -2.623460 41.769676 -0.188287 0.321291 0.928074 0.505524 0.956245 147 133 102 255
-52.270523 -0.809354 39.258659 -0.229496 0.155717 0.960773 0.625000 0.873445 147 133 102 255
-50.328140 -10.153228 41.237038 -0.229496 0.155717 0.960773 0.375000 0.874752 147 133 102 255
-42.989174 -2.623460 41.769676 -0.229496 0.155717 0.960773 0.505524 0.956245 147 133 102 255
-59.444962 -10.288747 51.631084 0.918675 0.359681 0.163296 0.375000 0.619464 147 133 102 255
-58.030544 -10.133689 43.332291 0.918675 0.359681 0.163296 0.375000 0.750000 147 133 102 255
-61.290607 -0.809354 41.134743 0.918675 0.359681 0.163296 0.625000 0.750000 147 133 102 255
-52.533264 -0.809354 62.123745 0.134837 0.293065 -0.946537 0.625000 0.380151 147 133 102 255
-50.190174 -10.226768 59.541725 0.134837 0.293065 -0.946537 0.375000 0.370133 147 133 102 255
-57.995777 -10.581739 58.319885 0.134837 0.293065 -0.946537 0.375000 0.500000 147 133 102 255
-42.689102 -10.193803 43.517315 -0.964383 0.022613 0.263540 0.375000 1.000000 147 133 102 255
-40.716286 -9.759229 50.699249 -0.964383 0.022613 0.263540 0.375000 0.635683 147 133 102 255
-42.989174 -2.623460 41.769676 -0.964383 0.022613 0.263540 0.505524 0.956245 147 133 102 255
-40.716286 -9.759229 50.699249 -0.878174 0.238884 0.414422 0.375000 0.635683 147 133 102 255
-37.509499 -0.809354 52.335587 -0.878174 0.238884 0.414422 0.625000 0.561105 147 133 102 255
-42.989174 -2.623460 41.769676 -0.878174 0.238884 0.414422 0.505524 0.956245 147 133 102 255
-45.611923 -10.199009 47.074318 -0.093363 0.995618 0.005302 0.183616 0.691383 115 196 116 255
-44.691273 -10.133056 50.901581 -0.093363 0.995618 0.005302 0.171720 0.627336 115 196 116 255
-40.716286 -9.759229 50.699249 -0.093363 0.995618 0.005302 0.125000 0.628561 115 196 116 255
-46.268276 -10.272942 54.904243 -0.128294 0.984655 -0.118301 0.183366 0.559432 115 196 116 255
-49.779392 -10.575946 56.189941 -0.128294 0.984655 -0.118301 0.246286 0.550338 115 196 116 255
-50.190174 -10.226768 59.541725 -0.128294 0.984655 -0.118301 0.245133 0.500000 115 196 116 255
-54.648521 -10.042072 45.973351 0.078474 0.995750 0.048213 0.315158 0.692042 115 196 116 255
-49.966419 -10.396753 45.677830 0.078474 0.995750 0.048213 0.250713 0.703846 115 196 116 255
-50.328140 -10.153228 41.237038 0.078474 0.995750 0.048213 0.250248 0.750000 115 196 116 255
-54.697433 -10.077989 55.296185 -0.113047 0.989548 0.089531 0.316239 0.559557 115 196 116 255
-55.100471 -9.749007 51.151188 -0.113047 0.989548 0.089531 0.325187 0.619583 115 196 116 255
-59.444962 -10.288747 51.631084 -0.113047 0.989548 0.089531 0.375000 0.619464 115 196 116 255
-45.611923 -10.199009 47.074318 0.003914 0.999981 0.004680 0.183616 0.691383 115 196 116 255
-42.689102 -10.193803 43.517315 0.003914 0.999981 0.004680 0.125000 0.750000 115 196 116 255
-50.328140 -10.153228 41.237038 0.003914 0.999981 0.004680 0.250248 0.750000 115 196 116 255
-54.648521 -10.042072 45.973351 -0.036757 0.999247 0.012406 0.315158 0.692042 115 196 116 255
-58.030544 -10.133689 43.332291 -0.036757 0.999247 0.012406 0.375000 0.750000 115 196 116 255
-59.444962 -10.288747 51.631084 -0.036757 0.999247 0.012406 0.375000 0.619464 115 196 116 255
-54.697433 -10.077989 55.296185 -0.060704 0.993209 0.099252 0.316239 0.559557 115 196 116 255
-57.995777 -10.581739 58.319885 -0.060704 0.993209 0.099252 0.375000 0.500000 115 196 116 255
-50.190174 -10.226768 59.541725 -0.060704 0.993209 0.099252 0.245133 0.500000 115 196 116 255
-46.268276 -10.272942 54.904243 -0.060311 0.997287 0.042206 0.183366 0.559432 115 196 116 255
-42.743690 -10.218160 58.646305 -0.060311 0.997287 0.042206 0.125000 0.500000 115 196 116 255
-40.716286 -9.759229 50.699249 -0.060311 0.997287 0.042206 0.125000 0.628561 115 196 116 255
25.946831 -2.193249 -11.458422 -0.992175 0.000000 0.124854 0.500000 0.250000 147 133 102 255
25.420914 0.991102 -15.637709 -0.992175 0.000000 0.124854 0.625000 0.250000 147 133 102 255
25.420914 -2.885034 -15.637709 -0.992175 0.000000 0.124854 0.500000 0.250000 147 133 102 255
21.954845 -5.377600 -11.205351 0.992396 0.000000 -0.123083 0.375000 1.000000 147 133 102 255
21.508171 0.991102 -14.806793 0.992396 0.000000 -0.123083 0.625000 1.000000 147 133 102 255
21.954845 0.991102 -11.205351 0.992396 0.000000 -0.123083 0.625000 1.000000 147 133 102 255
25.946831 -5.377600 -11.458422 -0.022574 0.934181 -0.356086 0.125000 0.500000 115 196 116 255
21.508171 -6.761170 -14.806793 -0.022574 0.934181 -0.356086 0.125000 0.750000 115 196 116 255
21.954845 -5.377600 -11.205351 -0.022574 0.934181 -0.356086 0.125000 0.750000 115 196 116 255
25.420914 0.991102 -15.637709 -0.843402 0.000000 0.537283 0.625000 0.250000 147 133 102 255
22.908058 -2.885034 -19.582273 -0.843402 0.000000 0.537283 0.500000 0.250000 147 133 102 255
25.420914 -2.885034 -15.637709 -0.843402 0.000000 0.537283 0.500000 0.250000 147 133 102 255
21.508171 0.991102 -14.806793 0.563354 0.122678 -0.817057 0.625000 1.000000 147 133 102 255
19.663818 -6.761170 -17.242428 0.563354 0.122678 -0.817057 0.375000 1.000000 147 133 102 255
18.815456 0.991102 -16.663397 0.563354 0.122678 -0.817057 0.625000 1.000000 147 133 102 255
21.508171 -6.761170 -14.806793 -0.000000 1.000000 -0.000000 0.125000 0.750000 115 196 116 255
22.908058 -6.761170 -19.582273 -0.000000 1.000000 -0.000000 0.125000 0.500000 115 196 116 255
19.663818 -6.761170 -17.242428 -0.000000 1.000000 -0.000000 0.125000 0.750000 115 196 116 255
22.908058 0.991102 -19.582273 -0.812981 0.000000 0.582290 0.625000 0.250000 147 133 102 255
20.836145 -2.885034 -22.475037 -0.812981 0.000000 0.582290 0.500000 0.250000 147 133 102 255
22.908058 -2.885034 -19.582273 -0.812981 0.000000 0.582290 0.500000 0.250000 147 133 102 255
18.815456 0.991102 -16.663397 0.752757 0.130570 -0.645220 0.625000 1.000000 147 133 102 255
17.329599 -6.761170 -19.965683 0.752757 0.130570 -0.645220 0.375000 1.000000 147 133 102 255
16.481237 0.991102 -19.386652 0.752757 0.130570 -0.645220 0.625000 1.000000 147 133 102 255
20.573839 -6.761170 -22.305529 -0.000000 1.000000 -0.000000 0.125000 0.500000 115 196 116 255
17.329599 -6.761170 -19.965683 -0.000000 1.000000 -0.000000 0.125000 0.750000 115 196 116 255
20.836145 -2.885034 -22.475037 -0.777163 0.178952 0.603319 0.500000 0.250000 147 133 102 255
19.515688 0.991102 -25.325689 -0.777163 0.178952 0.603319 0.625000 0.250000 147 133 102 255
18.942907 -2.885034 -24.913805 -0.777163 0.178952 0.603319 0.500000 0.250000 147 133 102 255
16.481237 0.991102 -19.386652 0.725493 0.183571 -0.663296 0.625000 1.000000 147 133 102 255
15.021242 -6.761170 -23.129038 0.725493 0.183571 -0.663296 0.375000 1.000000 147 133 102 255
13.244095 0.991102 -22.927336 0.725493 0.183571 -0.663296 0.625000 1.000000 147 133 102 255
18.680601 -6.761170 -24.744297 -0.000000 1.000000 0.000000 0.125000 0.500000 115 196 116 255
16.435274 -6.761170 -23.753199 -0.000000 1.000000 0.000000 0.125000 0.653396 115 196 116 255
19.515688 0.991102 -25.325689 -0.973778 0.160978 0.160754 0.625000 0.250000 147 133 102 255
18.613375 -2.885034 -26.909973 -0.973778 0.160978 0.160754 0.500000 0.250000 147 133 102 255
18.942907 -2.885034 -24.913805 -0.973778 0.160978 0.160754 0.500000 0.250000 147 133 102 255
13.244095 0.991102 -22.927336 0.996956 0.072667 0.028247 0.625000 1.000000 147 133 102 255
13.919086 -6.761170 -26.807348 0.996956 0.072667 0.028247 0.375000 1.000000 147 133 102 255
13.226950 2.854157 -27.115030 0.996956 0.072667 0.028247 0.625000 1.000000 147 133 102 255
13.919086 -6.761170 -26.807348 -0.000000 1.000000 0.000000 0.125000 0.750000 115 196 116 255
15.021242 -6.761170 -23.129038 -0.000000 1.000000 0.000000 0.125000 0.750000 115 196 116 255
18.987688 0.991102 -26.901056 -0.950762 0.092494 -0.295798 0.625000 0.250000 147 133 102 255
19.049015 -2.885034 -28.310219 -0.950762 0.092494 -0.295798 0.500000 0.250000 147 133 102 255
18.613375 -2.885034 -26.909973 -0.950762 0.092494 -0.295798 0.500000 0.250000 147 133 102 255
13.226950 2.854157 -27.115030 0.986804 0.019351 0.160760 0.625000 1.000000 147 133 102 255
13.897796 -6.761170 -30.075541 0.986804 0.019351 0.160760 0.375000 1.000000 147 133 102 255
13.759369 2.854157 -30.383223 0.986804 0.019351 0.160760 0.625000 1.000000 147 133 102 255
17.495207 -6.761170 -28.705511 0.000000 1.000000 -0.000000 0.125000 0.548045 115 196 116 255
13.897796 -6.761170 -30.075541 0.000000 1.000000 -0.000000 0.125000 0.750000 115 196 116 255
13.897796 -6.761170 -30.075541 0.822822 0.030005 0.567507 0.375000 1.000000 147 133 102 255
15.632977 0.991102 -33.001244 0.822822 0.030005 0.567507 0.625000 1.000000 147 133 102 255
13.759369 2.854157 -30.383223 0.822822 0.030005 0.567507 0.625000 1.000000 147 133 102 255
16.145046 -6.761170 -32.434490 -0.000000 1.000000 0.000000 0.125000 0.750000 115 196 116 255
16.145046 -6.761170 -32.434490 0.595052 0.097626 0.797735 0.375000 1.000000 147 133 102 255
17.522644 0.991102 -34.410797 0.595052 0.097626 0.797735 0.625000 1.000000 147 133 102 255
15.632977 0.991102 -33.001244 0.595052 0.097626 0.797735 0.625000 1.000000 147 133 102 255
18.416588 -6.761170 -33.017941 0.000000 1.000000 -0.000000 0.125000 0.693119 115 196 116 255
18.034714 -6.761170 -33.844044 0.000000 1.000000 -0.000000 0.125000 0.750000 115 196 116 255
21.871519 0.991102 -30.390837 -0.640725 0.080744 -0.763513 0.625000 0.250000 147 133 102 255
22.747589 -2.885034 -31.535931 -0.640725 0.080744 -0.763513 0.500000 0.250000 147 133 102 255
20.458170 -2.885034 -29.614695 -0.640725 0.080744 -0.763513 0.500000 0.250000 147 133 102 255
18.034714 -6.761170 -33.844044 0.207719 0.084964 0.974492 0.375000 1.000000 147 133 102 255
21.069199 0.991102 -35.166767 0.207719 0.084964 0.974492 0.625000 1.000000 147 133 102 255
17.522644 0.991102 -34.410797 0.207719 0.084964 0.974492 0.625000 1.000000 147 133 102 255
22.747589 -6.761170 -31.535931 0.000000 1.000000 -0.000000 0.125000 0.500000 115 196 116 255
21.069199 -6.761170 -35.166767 0.000000 1.000000 -0.000000 0.125000 0.750000 115 196 116 255
20.458170 -2.885034 -29.614695 -0.390387 0.213328 -0.895594 0.500000 0.250000 147 133 102 255
22.747589 -6.761170 -31.535931 -0.390387 0.213328 -0.895594 0.375000 0.250000 147 133 102 255
19.713104 -6.761170 -30.213207 -0.390387 0.213328 -0.895594 0.375000 0.250000 147 133 102 255
18.613375 -2.885034 -26.909973 -0.940198 0.174540 -0.292512 0.500000 0.250000 147 133 102 255
18.351023 -6.761170 -28.379585 -0.940198 0.174540 -0.292512 0.375000 0.250000 147 133 102 255
17.915382 -6.761170 -26.979340 -0.940198 0.174540 -0.292512 0.375000 0.250000 147 133 102 255
18.680601 -6.761170 -24.744297 -0.933529 0.162385 0.319615 0.375000 0.250000 147 133 102 255
18.613375 -2.885034 -26.909973 -0.933529 0.162385 0.319615 0.500000 0.250000 147 133 102 255
17.915382 -6.761170 -26.979340 -0.933529 0.162385 0.319615 0.375000 0.250000 147 133 102 255
20.573839 -6.761170 -22.305529 -0.787381 0.080014 0.611251 0.375000 0.250000 147 133 102 255
18.942907 -2.885034 -24.913805 -0.787381 0.080014 0.611251 0.500000 0.250000 147 133 102 255
18.680601 -6.761170 -24.744297 -0.787381 0.080014 0.611251 0.375000 0.250000 147 133 102 255
22.908058 -6.761170 -19.582273 -0.756848 0.079587 0.648727 0.375000 0.250000 147 133 102 255
20.836145 -2.885034 -22.475037 -0.756848 0.079587 0.648727 0.500000 0.250000 147 133 102 255
20.573839 -6.761170 -22.305529 -0.756848 0.079587 0.648727 0.375000 0.250000 147 133 102 255
22.908058 -6.761170 -19.582273 -0.843402 0.000000 0.537283 0.375000 0.250000 147 133 102 255
25.420914 -6.761170 -15.637709 -0.843402 0.000000 0.537283 0.375000 0.250000 147 133 102 255
25.946831 -5.377600 -11.458422 -0.992175 0.000000 0.124854 0.375000 0.250000 147 133 102 255
25.420914 -6.761170 -15.637709 -0.992175 0.000000 0.124854 0.375000 0.250000 147 133 102 255
19.423328 0.991102 -28.301302 -0.677792 0.067138 -0.732182 0.625000 0.250000 147 133 102 255
20.458170 -2.885034 -29.614695 -0.677792 0.067138 -0.732182 0.500000 0.250000 147 133 102 255
19.049015 -2.885034 -28.310219 -0.677792 0.067138 -0.732182 0.500000 0.250000 147 133 102 255
20.458170 -2.885034 -29.614695 -0.626812 0.235185 -0.742829 0.500000 0.250000 147 133 102 255
19.713104 -6.761170 -30.213207 -0.626812 0.235185 -0.742829 0.375000 0.250000 147 133 102 255
18.801708 -6.761170 -29.444155 -0.626812 0.235185 -0.742829 0.375000 0.250000 147 133 102 255
17.915382 -6.761170 -26.979340 0.000000 1.000000 0.000000 0.125000 0.500000 115 196 116 255
18.351023 -6.761170 -28.379585 0.000000 1.000000 0.000000 0.125000 0.500000 115 196 116 255
17.118313 -6.761170 -26.945036 0.000000 1.000000 -0.000000 0.125000 0.549863 115 196 116 255
17.876339 -6.761170 -30.485748 0.000000 1.000000 -0.000000 0.125000 0.587080 115 196 116 255
19.713104 -6.761170 -30.213207 0.000000 1.000000 -0.000000 0.125000 0.500000 115 196 116 255
18.801708 -6.761170 -29.444155 0.000000 1.000000 -0.000000 0.125000 0.500000 115 196 116 255
25.946831 0.991102 -11.458422 -0.992175 0.000000 0.124854 0.625000 0.250000 147 133 102 255
21.508171 -6.761170 -14.806793 0.992396 0.000000 -0.123083 0.375000 1.000000 147 133 102 255
25.946831 -5.377600 -11.458422 -0.065031 0.949734 -0.306230 0.125000 0.500000 115 196 116 255
25.420914 -6.761170 -15.637709 -0.065031 0.949734 -0.306230 0.125000 0.500000 115 196 116 255
21.508171 -6.761170 -14.806793 -0.065031 0.949734 -0.306230 0.125000 0.750000 115 196 116 255
22.908058 0.991102 -19.582273 -0.843402 0.000000 0.537283 0.625000 0.250000 147 133 102 255
21.508171 0.991102 -14.806793 0.797222 0.000000 -0.603686 0.625000 1.000000 147 133 102 255
21.508171 -6.761170 -14.806793 0.797222 0.000000 -0.603686 0.375000 1.000000 147 133 102 255
19.663818 -6.761170 -17.242428 0.797222 0.000000 -0.603686 0.375000 1.000000 147 133 102 255
25.420914 -6.761170 -15.637709 0.000000 1.000000 -0.000000 0.125000 0.500000 115 196 116 255
22.908058 0.991102 -19.582273 -0.896510 0.175694 0.406696 0.625000 0.250000 147 133 102 255
21.408926 0.991102 -22.886921 -0.896510 0.175694 0.406696 0.625000 0.250000 147 133 102 255
20.836145 -2.885034 -22.475037 -0.896510 0.175694 0.406696 0.500000 0.250000 147 133 102 255
19.663818 -6.761170 -17.242428 0.752757 0.130570 -0.645220 0.375000 1.000000 147 133 102 255
21.408926 0.991102 -22.886921 -0.777163 0.178952 0.603319 0.625000 0.250000 147 133 102 255
16.481237 0.991102 -19.386652 0.800804 0.131282 -0.584361 0.625000 1.000000 147 133 102 255
17.329599 -6.761170 -19.965683 0.800804 0.131282 -0.584361 0.375000 1.000000 147 133 102 255
15.021242 -6.761170 -23.129038 0.800804 0.131282 -0.584361 0.375000 1.000000 147 133 102 255
19.515688 0.991102 -25.325689 -0.944275 0.090459 0.316483 0.625000 0.250000 147 133 102 255
18.987688 0.991102 -26.901056 -0.944275 0.090459 0.316483 0.625000 0.250000 147 133 102 255
18.613375 -2.885034 -26.909973 -0.944275 0.090459 0.316483 0.500000 0.250000 147 133 102 255
13.244095 0.991102 -22.927336 0.934143 0.221428 -0.279904 0.625000 1.000000 147 133 102 255
15.021242 -6.761170 -23.129038 0.934143 0.221428 -0.279904 0.375000 1.000000 147 133 102 255
13.919086 -6.761170 -26.807348 0.934143 0.221428 -0.279904 0.375000 1.000000 147 133 102 255
19.423328 0.991102 -28.301302 -0.950762 0.092494 -0.295798 0.625000 0.250000 147 133 102 255
13.226950 2.854157 -27.115030 0.997413 0.071588 -0.006497 0.625000 1.000000 147 133 102 255
13.919086 -6.761170 -26.807348 0.997413 0.071588 -0.006497 0.375000 1.000000 147 133 102 255
13.897796 -6.761170 -30.075541 0.997413 0.071588 -0.006497 0.375000 1.000000 147 133 102 255
13.897796 -6.761170 -30.075541 0.720571 0.097782 0.686451 0.375000 1.000000 147 133 102 255
16.145046 -6.761170 -32.434490 0.720571 0.097782 0.686451 0.375000 1.000000 147 133 102 255
15.632977 0.991102 -33.001244 0.720571 0.097782 0.686451 0.625000 1.000000 147 133 102 255
16.145046 -6.761170 -32.434490 0.595052 0.097627 0.797736 0.375000 1.000000 147 133 102 255
18.034714 -6.761170 -33.844044 0.595052 0.097627 0.797736 0.375000 1.000000 147 133 102 255
17.522644 0.991102 -34.410797 0.595052 0.097627 0.797736 0.625000 1.000000 147 133 102 255
21.871519 0.991102 -30.390837 -0.794221 0.000000 -0.607629 0.625000 0.250000 147 133 102 255
22.747589 0.991102 -31.535931 -0.794221 0.000000 -0.607629 0.625000 0.250000 147 133 102 255
22.747589 -2.885034 -31.535931 -0.794221 0.000000 -0.607629 0.500000 0.250000 147 133 102 255
18.034714 -6.761170 -33.844044 0.399585 0.000000 0.916696 0.375000 1.000000 147 133 102 255
21.069199 -6.761170 -35.166767 0.399585 0.000000 0.916696 0.375000 1.000000 147 133 102 255
21.069199 0.991102 -35.166767 0.399585 0.000000 0.916696 0.625000 1.000000 147 133 102 255
20.458170 -2.885034 -29.614695 -0.642824 0.000000 -0.766014 0.500000 0.250000 147 133 102 255
22.747589 -2.885034 -31.535931 -0.642824 0.000000 -0.766014 0.500000 0.250000 147 133 102 255
22.747589 -6.761170 -31.535931 -0.642824 0.000000 -0.766014 0.375000 0.250000 147 133 102 255
19.049015 -2.885034 -28.310219 -0.940198 0.174540 -0.292512 0.500000 0.250000 147 133 102 255
18.680601 -6.761170 -24.744297 -0.983964 0.073690 0.162435 0.375000 0.250000 147 133 102 255
18.942907 -2.885034 -24.913805 -0.983964 0.073690 0.162435 0.500000 0.250000 147 133 102 255
18.613375 -2.885034 -26.909973 -0.983964 0.073690 0.162435 0.500000 0.250000 147 133 102 255
20.836145 -2.885034 -22.475037 -0.787381 0.080014 0.611251 0.500000 0.250000 147 133 102 255
22.908058 -6.761170 -19.582273 -0.812981 0.000000 0.582290 0.375000 0.250000 147 133 102 255
19.423328 0.991102 -28.301302 -0.646893 0.084111 -0.757928 0.625000 0.250000 147 133 102 255
21.871519 0.991102 -30.390837 -0.646893 0.084111 -0.757928 0.625000 0.250000 147 133 102 255
20.458170 -2.885034 -29.614695 -0.646893 0.084111 -0.757928 0.500000 0.250000 147 133 102 255
18.801708 -6.761170 -29.444155 -0.907428 0.170279 -0.384160 0.375000 0.250000 147 133 102 255
18.351023 -6.761170 -28.379585 -0.907428 0.170279 -0.384160 0.375000 0.250000 147 133 102 255
19.049015 -2.885034 -28.310219 -0.907428 0.170279 -0.384160 0.500000 0.250000 147 133 102 255
19.049015 -2.885034 -28.310219 -0.657781 0.249839 -0.710566 0.500000 0.250000 147 133 102 255
20.458170 -2.885034 -29.614695 -0.657781 0.249839 -0.710566 0.500000 0.250000 147 133 102 255
18.801708 -6.761170 -29.444155 -0.657781 0.249839 -0.710566 0.375000 0.250000 147 133 102 255
3 0 1 2
3 3 4 5
3 6 7 8
3 9 10 11
3 12 13 14
3 15 16 17
3 18 19 20
3 21 22 23
3 24 25 26
3 27 28 29
3 30 31 32
3 33 34 35
3 36 37 38
3 39 40 41
3 42 43 44
3 45 46 47
3 48 49 50
3 51 52 53
3 54 55 56
3 57 58 59
3 60 61 62
3 63 64 65
3 66 67 68
3 69 70 71
3 72 73 74
3 75 76 77
3 78 79 80
3 81 82 83
3 84 85 86
3 87 88 89
3 90 91 92
3 93 94 95
3 96 97 98
3 99 100 101
3 102 103 104
3 105 106 107
3 108 109 110
3 111 112 113
3 114 115 116
3 117 118 119
3 120 121 122
3 123 124 125
3 126 127 128
3 129 130 131
3 132 133 134
3 135 136 137
3 138 139 140
3 141 142 143
3 137 144 145
3 146 147 148
3 149 150 151
3 144 152 153
3 154 155 156
3 157 158 159
3 153 160 161
3 162 163 164
3 165 166 167
3 160 168 169
3 170 171 172
3 168 173 169
3 174 175 176
3 173 177 178
3 179 180 181
3 182 183 184
3 177 185 186
3 187 188 189
3 190 191 192
3 193 194 195
3 196 197 198
3 199 200 201
3 131 202 203
3 204 122 205
3 206 207 208
3 209 210 211
3 168 212 213
3 214 152 212
3 215 216 177
3 168 217 215
3 120 218 121
3 123 219 124
3 220 221 222
3 129 223 130
3 224 225 226
3 135 227 136
3 228 229 230
3 141 231 142
3 137 136 144
3 146 232 147
3 233 234 235
3 161 145 153
3 145 144 153
3 236 237 238
3 239 240 241
3 153 214 160
3 162 242 163
3 243 244 245
3 160 214 168
3 246 247 248
3 168 215 173
3 249 250 251
3 173 215 177
3 252 253 254
3 255 256 257
3 186 178 177
3 177 216 185
3 258 259 260
3 190 261 191
3 262 263 264
3 196 265 197
3 266 140 139
3 131 130 202
3 204 120 122
3 267 268 269
3 270 271 272
3 273 274 275
3 168 214 212
3 214 153 152
3 215 217 216
3 168 213 217
