ply
format ascii 1.0
comment Created by Blender 2.93.1 - www.blender.org
element vertex 120
property float x
property float y
property float z
property float nx
property float ny
property float nz
property float s
property float t
property uchar red
property uchar green
property uchar blue
property uchar alpha
element face 40
property list uchar uint vertex_indices
end_header
-58.030544 -10.133689 43.332291 0.194940 0.289048 0.937257 0.375000 0.750000 147 133 102 255
-52.270523 -0.809354 39.258659 0.194940 0.289048 0.937257 0.625000 0.873445 147 133 102 255
-61.290607 -0.809354 41.134743 0.194940 0.289048 0.937257 0.625000 0.750000 147 133 102 255
-44.691273 -10.133056 50.901581 0.034693 0.995751 -0.085300 0.171720 0.627336 115 196 116 255
-49.966419 -10.396753 45.677830 0.034693 0.995751 -0.085300 0.250713 0.703846 115 196 116 255
-55.100471 -9.749007 51.151188 0.034693 0.995751 -0.085300 0.325187 0.619583 115 196 116 255
-57.995777 -10.581739 58.319885 0.854512 0.362533 -0.371992 0.375000 0.500000 147 133 102 255
-64.255524 -0.809354 53.464359 0.854512 0.362533 -0.371992 0.625000 0.588958 147 133 102 255
-61.290607 -0.809354 60.275139 0.854512 0.362533 -0.371992 0.625000 0.500000 147 133 102 255
-50.190174 -10.226768 59.541725 -0.117920 0.165988 -0.979052 0.375000 0.370133 147 133 102 255
-43.023216 -0.809354 60.275139 -0.117920 0.165988 -0.979052 0.625000 0.250000 147 133 102 255
-42.743690 -10.218160 58.646305 -0.117920 0.165988 -0.979052 0.375000 0.250000 147 133 102 255
-42.743690 -10.218160 58.646305 -0.907448 0.363630 -0.210503 0.375000 0.250000 147 133 102 255
-37.509499 -0.809354 52.335587 -0.907448 0.363630 -0.210503 0.625000 0.561105 147 133 102 255
-40.716286 -9.759229 50.699249 -0.907448 0.363630 -0.210503 0.375000 0.635683 147 133 102 255
-50.328140 -10.153228 41.237038 -0.278925 0.205500 0.938068 0.375000 0.874752 147 133 102 255
-42.689102 -10.193803 43.517315 -0.278925 0.205500 0.938068 0.375000 1.000000 147 133 102 255
-42.989174 -2.623460 41.769676 -0.278925 0.205500 0.938068 0.505524 0.956245 147 133 102 255
-59.444962 -10.288747 51.631084 0.887245 0.408993 0.213357 0.375000 0.619464 147 133 102 255
-61.290607 -0.809354 41.134743 0.887245 0.408993 0.213357 0.625000 0.750000 147 133 102 255
-64.255524 -0.809354 53.464359 0.887245 0.408993 0.213357 0.625000 0.588958 147 133 102 255
-52.533264 -0.809354 62.123745 0.199629 0.256521 -0.945698 0.625000 0.380151 147 133 102 255
-57.995777 -10.581739 58.319885 0.199629 0.256521 -0.945698 0.375000 0.500000 147 133 102 255
-61.290607 -0.809354 60.275139 0.199629 0.256521 -0.945698 0.625000 0.500000 147 133 102 255
-37.509499 -0.809354 52.335587 -0.888796 0.136452 0.437518 0.625000 0.561105 147 133 102 255
-43.023216 -0.809354 41.134743 -0.888796 0.136452 0.437518 0.625000 1.000000 147 133 102 255
-42.989174 -2.623460 41.769676 -0.888796 0.136452 0.437518 0.505524 0.956245 147 133 102 255
-45.611923 -10.199009 47.074318 -0.056377 0.997401 -0.044866 0.183616 0.691383 115 196 116 255
-40.716286 -9.759229 50.699249 -0.056377 0.997401 -0.044866 0.125000 0.628561 115 196 116 255
-42.689102 -10.193803 43.517315 -0.056377 0.997401 -0.044866 0.125000 0.750000 115 196 116 255
-46.268276 -10.272942 54.904243 -0.002619 0.999923 -0.012171 0.183366 0.559432 115 196 116 255
-50.190174 -10.226768 59.541725 -0.002619 0.999923 -0.012171 0.245133 0.500000 115 196 116 255
-42.743690 -10.218160 58.646305 -0.002619 0.999923 -0.012171 0.125000 0.500000 115 196 116 255
-54.648521 -10.042072 45.973351 -0.005115 0.999591 -0.028125 0.315158 0.692042 115 196 116 255
-50.328140 -10.153228 41.237038 -0.005115 0.999591 -0.028125 0.250248 0.750000 115 196 116 255
-58.030544 -10.133689 43.332291 -0.005115 0.999591 -0.028125 0.375000 0.750000 115 196 116 255
-54.697433 -10.077989 55.296185 -0.093317 0.993594 0.063741 0.316239 0.559557 115 196 116 255
-59.444962 -10.288747 51.631084 -0.093317 0.993594 0.063741 0.375000 0.619464 115 196 116 255
-57.995777 -10.581739 58.319885 -0.093317 0.993594 0.063741 0.375000 0.500000 115 196 116 255
-45.611923 -10.199009 47.074318 -0.064437 0.996124 0.059874 0.183616 0.691383 115 196 116 255
-50.328140 -10.153228 41.237038 -0.064437 0.996124 0.059874 0.250248 0.750000 115 196 116 255
-49.966419 -10.396753 45.677830 -0.064437 0.996124 0.059874 0.250713 0.703846 115 196 116 255
-54.648521 -10.042072 45.973351 -0.130332 0.989179 -0.067364 0.315158 0.692042 115 196 116 255
-59.444962 -10.288747 51.631084 -0.130332 0.989179 -0.067364 0.375000 0.619464 115 196 116 255
-55.100471 -9.749007 51.151188 -0.130332 0.989179 -0.067364 0.325187 0.619583 115 196 116 255
-54.697433 -10.077989 55.296185 0.116299 0.989236 -0.088802 0.316239 0.559557 115 196 116 255
-50.190174 -10.226768 59.541725 0.116299 0.989236 -0.088802 0.245133 0.500000 115 196 116 255
-49.779392 -10.575946 56.189941 0.116299 0.989236 -0.088802 0.246286 0.550338 115 196 116 255
-46.268276 -10.272942 54.904243 -0.093739 0.995595 -0.002138 0.183366 0.559432 115 196 116 255
-40.716286 -9.759229 50.699249 -0.093739 0.995595 -0.002138 0.125000 0.628561 115 196 116 255
-44.691273 -10.133056 50.901581 -0.093739 0.995595 -0.002138 0.171720 0.627336 115 196 116 255
-58.030544 -10.133689 43.332291 0.254697 0.250693 0.933960 0.375000 0.750000 147 133 102 255
-50.328140 -10.153228 41.237038 0.254697 0.250693 0.933960 0.375000 0.874752 147 133 102 255
-52.270523 -0.809354 39.258659 0.254697 0.250693 0.933960 0.625000 0.873445 147 133 102 255
-49.779392 -10.575946 56.189941 -0.085578 0.996331 0.001103 0.246286 0.550338 115 196 116 255
-46.268276 -10.272942 54.904243 -0.085578 0.996331 0.001103 0.183366 0.559432 115 196 116 255
-44.691273 -10.133056 50.901581 -0.085578 0.996331 0.001103 0.171720 0.627336 115 196 116 255
-44.691273 -10.133056 50.901581 -0.043178 0.999044 -0.006830 0.171720 0.627336 115 196 116 255
-45.611923 -10.199009 47.074318 -0.043178 0.999044 -0.006830 0.183616 0.691383 115 196 116 255
-49.966419 -10.396753 45.677830 -0.043178 0.999044 -0.006830 0.250713 0.703846 115 196 116 255
-49.966419 -10.396753 45.677830 0.072299 0.996125 -0.050070 0.250713 0.703846 115 196 116 255
-54.648521 -10.042072 45.973351 0.072299 0.996125 -0.050070 0.315158 0.692042 115 196 116 255
-55.100471 -9.749007 51.151188 0.072299 0.996125 -0.050070 0.325187 0.619583 115 196 116 255
-55.100471 -9.749007 51.151188 0.087828 0.993650 0.070324 0.325187 0.619583 115 196 116 255
-54.697433 -10.077989 55.296185 0.087828 0.993650 0.070324 0.316239 0.559557 115 196 116 255
-49.779392 -10.575946 56.189941 0.087828 0.993650 0.070324 0.246286 0.550338 115 196 116 255
-49.779392 -10.575946 56.189941 0.039498 0.991858 0.121069 0.246286 0.550338 115 196 116 255
-44.691273 -10.133056 50.901581 0.039498 0.991858 0.121069 0.171720 0.627336 115 196 116 255
-55.100471 -9.749007 51.151188 0.039498 0.991858 0.121069 0.325187 0.619583 115 196 116 255
-57.995777 -10.581739 58.319885 0.865830 0.471671 -0.166928 0.375000 0.500000 147 133 102 255
-59.444962 -10.288747 51.631084 0.865830 0.471671 -0.166928 0.375000 0.619464 147 133 102 255
-64.255524 -0.809354 53.464359 0.865830 0.471671 -0.166928 0.625000 0.588958 147 133 102 255
-50.190174 -10.226768 59.541725 -0.186291 0.216410 -0.958364 0.375000 0.370133 147 133 102 255
-52.533264 -0.809354 62.123745 -0.186291 0.216410 -0.958364 0.625000 0.380151 147 133 102 255
-43.023216 -0.809354 60.275139 -0.186291 0.216410 -0.958364 0.625000 0.250000 147 133 102 255
-42.743690 -10.218160 58.646305 -0.819103 0.074141 -0.568836 0.375000 0.250000 147 133 102 255
-43.023216 -0.809354 60.275139 -0.819103 0.074141 -0.568836 0.625000 0.250000 147 133 102 255
-37.509499 -0.809354 52.335587 -0.819103 0.074141 -0.568836 0.625000 0.561105 147 133 102 255
-43.023216 -0.809354 41.134743 -0.188287 0.321291 0.928074 0.625000 1.000000 147 133 102 255
-52.270523 -0.809354 39.258659 -0.188287 0.321291 0.928074 0.625000 0.873445 147 133 102 255
-42.989174 -2.623460 41.769676 -0.188287 0.321291 0.928074 0.505524 0.956245 147 133 102 255
-52.270523 -0.809354 39.258659 -0.229496 0.155717 0.960773 0.625000 0.873445 147 133 102 255
-50.328140 -10.153228 41.237038 -0.229496 0.155717 0.960773 0.375000 0.874752 147 133 102 255
-42.989174 -2.623460 41.769676 -0.229496 0.155717 0.960773 0.505524 0.956245 147 133 102 255
-59.444962 -10.288747 51.631084 0.918675 0.359681 0.163296 0.375000 0.619464 147 133 102 255
-58.030544 -10.133689 43.332291 0.918675 0.359681 0.163296 0.375000 0.750000 147 133 102 255
-61.290607 -0.809354 41.134743 0.918675 0.359681 0.163296 0.625000 0.750000 147 133 102 255
-52.533264 -0.809354 62.123745 0.134837 0.293065 -0.946537 0.625000 0.380151 147 133 102 255
-50.190174 -10.226768 59.541725 0.134837 0.293065 -0.946537 0.375000 0.370133 147 133 102 255
-57.995777 -10.581739 58.319885 0.134837 0.293065 -0.946537 0.375000 0.500000 147 133 102 255
-42.689102 -10.193803 43.517315 -0.964383 0.022613 0.263540 0.375000 1.000000 147 133 102 255
-40.716286 -9.759229 50.699249 -0.964383 0.022613 0.263540 0.375000 0.635683 147 133 102 255
-42.989174 -2.623460 41.769676 -0.964383 0.022613 0.263540 0.505524 0.956245 147 133 102 255
-40.716286 -9.759229 50.699249 -0.878174 0.238884 0.414422 0.375000 0.635683 147 133 102 255
-37.509499 -0.809354 52.335587 -0.878174 0.238884 0.414422 0.625000 0.561105 147 133 102 255
-42.989174 -2.623460 41.769676 -0.878174 0.238884 0.414422 0.505524 0.956245 147 133 102 255
-45.611923 -10.199009 47.074318 -0.093363 0.995618 0.005302 0.183616 0.691383 115 196 116 255
-44.691273 -10.133056 50.901581 -0.093363 0.995618 0.005302 0.171720 0.627336 115 196 116 255
-40.716286 -9.759229 50.699249 -0.093363 0.995618 0.005302 0.125000 0.628561 115 196 116 255
-46.268276 -10.272942 54.904243 -0.128294 0.984655 -0.118301 0.183366 0.559432 115 196 116 255
-49.779392 -10.575946 56.189941 -0.128294 0.984655 -0.118301 0.246286 0.550338 115 196 116 255
-50.190174 -10.226768 59.541725 -0.128294 0.984655 -0.118301 0.245133 0.500000 115 196 116 255
-54.648521 -10.042072 45.973351 0.078474 0.995750 0.048213 0.315158 0.692042 115 196 116 255
-49.966419 -10.396753 45.677830 0.078474 0.995750 0.048213 0.250713 0.703846 115 196 116 255
-50.328140 -10.153228 41.237038 0.078474 0.995750 0.048213 0.250248 0.750000 115 196 116 255
-54.697433 -10.077989 55.296185 -0.113047 0.989548 0.089531 0.316239 0.559557 115 196 116 255
-55.100471 -9.749007 51.151188 -0.113047 0.989548 0.089531 0.325187 0.619583 115 196 116 255
-59.444962 -10.288747 51.631084 -0.113047 0.989548 0.089531 0.375000 0.619464 115 196 116 255
-45.611923 -10.199009 47.074318 0.003914 0.999981 0.004680 0.183616 0.691383 115 196 116 255
-42.689102 -10.193803 43.517315 0.003914 0.999981 0.004680 0.125000 0.750000 115 196 116 255
-50.328140 -10.153228 41.237038 0.003914 0.999981 0.004680 0.250248 0.750000 115 196 116 255
-54.648521 -10.042072 45.973351 -0.036757 0.999247 0.012406 0.315158 0.692042 115 196 116 255
-58.030544 -10.133689 43.332291 -0.036757 0.999247 0.012406 0.375000 0.750000 115 196 116 255
-59.444962 -10.288747 51.631084 -0.036757 0.999247 0.012406 0.375000 0.619464 115 196 116 255
-54.697433 -10.077989 55.296185 -0.060704 0.993209 0.099252 0.316239 0.559557 115 196 116 255
-57.995777 -10.581739 58.319885 -0.060704 0.993209 0.099252 0.375000 0.500000 115 196 116 255
-50.190174 -10.226768 59.541725 -0.060704 0.993209 0.099252 0.245133 0.500000 115 196 116 255
-46.268276 -10.272942 54.904243 -0.060311 0.997287 0.042206 0.183366 0.559432 115 196 116 255
-42.743690 -10.218160 58.646305 -0.060311 0.997287 0.042206 0.125000 0.500000 115 196 116 255
-40.716286 -9.759229 50.699249 -0.060311 0.997287 0.042206 0.125000 0.628561 115 196 116 255
3 0 1 2
3 3 4 5
3 6 7 8
3 9 10 11
3 12 13 14
3 15 16 17
3 18 19 20
3 21 22 23
3 24 25 26
3 27 28 29
3 30 31 32
3 33 34 35
3 36 37 38
3 39 40 41
3 42 43 44
3 45 46 47
3 48 49 50
3 51 52 53
3 54 55 56
3 57 58 59
3 60 61 62
3 63 64 65
3 66 67 68
3 69 70 71
3 72 73 74
3 75 76 77
3 78 79 80
3 81 82 83
3 84 85 86
3 87 88 89
3 90 91 92
3 93 94 95
3 96 97 98
3 99 100 101
3 102 103 104
3 105 106 107
3 108 109 110
3 111 112 113
3 114 115 116
3 117 118 119
