ply
format ascii 1.0
comment Created by Blender 2.93.1 - www.blender.org
element vertex 40
property float x
property float y
property float z
property float nx
property float ny
property float nz
property float s
property float t
property uchar red
property uchar green
property uchar blue
property uchar alpha
element face 12
property list uchar uint vertex_indices
end_header
97.710159 -35.562168 -40.859596 0.997017 0.000002 -0.077187 0.108932 0.055836 255 254 93 255
97.664970 -35.136826 -41.443283 0.997017 0.000002 -0.077187 0.249435 0.157918 255 254 86 255
97.692871 -34.872898 -41.082886 0.997017 0.000002 -0.077187 0.162681 0.221261 255 254 0 255
97.664795 -33.753151 -41.445629 0.997017 -0.000002 -0.077179 0.250000 0.490000 255 254 22 255
97.682121 -34.444134 -41.221786 0.997017 -0.000002 -0.077179 0.196117 0.324164 255 254 80 255
97.647690 -34.444134 -41.666580 0.997017 -0.000002 -0.077179 0.303187 0.324164 255 254 0 255
97.636978 -34.872898 -41.804939 -0.997017 -0.000007 0.077182 0.162681 0.221261 255 254 0 255
97.647728 -34.444134 -41.666039 -0.997017 -0.000007 0.077182 0.196117 0.324164 255 254 0 255
97.591652 -34.444134 -42.390415 -0.997017 -0.000007 0.077182 0.021746 0.324164 255 255 225 255
97.620010 -35.562168 -42.024082 0.997017 -0.000002 -0.077178 0.389244 0.055836 255 254 31 255
97.637047 -34.873951 -41.804020 0.997017 -0.000002 -0.077178 0.336271 0.221008 255 254 0 255
97.664970 -35.136826 -41.443283 0.997017 -0.000002 -0.077178 0.249435 0.157918 255 254 86 255
97.664879 -35.136826 -41.444542 -0.997017 0.000003 0.077180 0.249435 0.157918 255 254 0 255
97.692802 -34.873951 -41.083805 -0.997017 0.000003 0.077180 0.336271 0.221008 255 254 0 255
97.682159 -34.444134 -41.221245 -0.997017 0.000003 0.077180 0.303187 0.324164 255 254 0 255
97.647728 -34.444134 -41.666039 -0.997017 0.000003 0.077180 0.196117 0.324164 255 254 0 255
97.636978 -34.872898 -41.804939 -0.997017 0.000003 0.077180 0.162681 0.221261 255 254 0 255
97.709839 -35.562168 -40.863743 -0.997017 -0.000002 0.077178 0.389244 0.055836 255 254 17 255
97.692802 -34.873951 -41.083805 -0.997017 -0.000002 0.077178 0.336271 0.221008 255 254 0 255
97.664879 -35.136826 -41.444542 -0.997017 -0.000002 0.077178 0.249435 0.157918 255 254 0 255
97.647690 -34.444134 -41.666580 0.997016 -0.000006 -0.077189 0.303187 0.324164 255 254 0 255
97.637047 -34.873951 -41.804020 0.997016 -0.000006 -0.077189 0.336271 0.221008 255 254 0 255
97.591385 -34.444134 -42.393848 0.997016 -0.000006 -0.077189 0.478254 0.324164 255 254 0 255
97.665054 -33.753151 -41.442196 -0.997017 -0.000002 0.077179 0.250000 0.490000 255 254 10 255
97.647728 -34.444134 -41.666039 -0.997017 -0.000002 0.077179 0.196117 0.324164 255 254 0 255
97.682159 -34.444134 -41.221245 -0.997017 -0.000002 0.077179 0.303187 0.324164 255 254 0 255
97.664970 -35.136826 -41.443283 0.997017 -0.000003 -0.077181 0.249435 0.157918 255 254 86 255
97.637047 -34.873951 -41.804020 0.997017 -0.000003 -0.077181 0.336271 0.221008 255 254 0 255
97.647690 -34.444134 -41.666580 0.997017 -0.000003 -0.077181 0.303187 0.324164 255 254 0 255
97.682121 -34.444134 -41.221786 0.997017 -0.000003 -0.077181 0.196117 0.324164 255 254 80 255
97.692871 -34.872898 -41.082886 0.997017 -0.000003 -0.077181 0.162681 0.221261 255 254 0 255
97.692871 -34.872898 -41.082886 0.997017 -0.000007 -0.077182 0.162681 0.221261 255 254 0 255
97.682121 -34.444134 -41.221786 0.997017 -0.000007 -0.077182 0.196117 0.324164 255 254 80 255
97.738197 -34.444134 -40.497410 0.997017 -0.000007 -0.077182 0.021746 0.324164 255 254 36 255
97.619690 -35.562168 -42.028229 -0.997017 0.000002 0.077187 0.108932 0.055836 255 254 36 255
97.664879 -35.136826 -41.444542 -0.997017 0.000002 0.077187 0.249435 0.157918 255 254 0 255
97.636978 -34.872898 -41.804939 -0.997017 0.000002 0.077187 0.162681 0.221261 255 254 0 255
97.682159 -34.444134 -41.221245 -0.997016 -0.000006 0.077189 0.303187 0.324164 255 254 0 255
97.692802 -34.873951 -41.083805 -0.997016 -0.000006 0.077189 0.336271 0.221008 255 254 0 255
97.738464 -34.444134 -40.493977 -0.997016 -0.000006 0.077189 0.478254 0.324164 255 254 7 255
3 0 1 2
3 3 4 5
3 6 7 8
3 9 10 11
5 12 13 14 15 16
3 17 18 19
3 20 21 22
3 23 24 25
5 26 27 28 29 30
3 31 32 33
3 34 35 36
3 37 38 39
