ply
format ascii 1.0
comment Created by Blender 2.92.0 - www.blender.org
element vertex 32
property float x
property float y
property float z
property float nx
property float ny
property float nz
property float s
property float t
property uchar red
property uchar green
property uchar blue
property uchar alpha
element face 12
property list uchar uint vertex_indices
end_header
13.871202 -6.746481 2.841779 0.997017 -0.000000 -0.077186 0.108932 0.055836 255 254 93 255
13.826015 -6.321141 2.258095 0.997017 -0.000000 -0.077186 0.249435 0.157918 255 254 86 255
13.853915 -6.057212 2.618490 0.997017 -0.000000 -0.077186 0.162681 0.221261 255 254 0 255
13.825833 -4.937465 2.255747 0.997017 0.000000 -0.077185 0.250000 0.490000 255 254 22 255
13.843163 -5.628448 2.479591 0.997017 0.000000 -0.077185 0.196117 0.324164 255 254 80 255
13.808728 -5.628448 2.034797 0.997017 0.000000 -0.077185 0.303187 0.324164 255 254 0 255
13.798017 -6.057212 1.896439 -0.997017 -0.000000 0.077185 0.162681 0.221261 255 254 0 255
13.808769 -5.628448 2.035337 -0.997017 -0.000000 0.077185 0.196117 0.324164 255 254 0 255
13.752691 -5.628448 1.310963 -0.997017 -0.000000 0.077185 0.021746 0.324164 255 255 225 255
13.781052 -6.746481 1.677294 0.997017 -0.000000 -0.077184 0.389244 0.055836 255 254 31 255
13.798088 -6.058267 1.897358 0.997017 -0.000000 -0.077184 0.336271 0.221008 255 254 0 255
13.826015 -6.321141 2.258095 0.997017 -0.000000 -0.077184 0.249435 0.157918 255 254 86 255
13.825917 -6.321141 2.256834 -0.997017 0.000000 0.077185 0.249435 0.157918 255 254 0 255
13.853844 -6.058267 2.617570 -0.997017 0.000000 0.077185 0.336271 0.221008 255 254 0 255
13.843204 -5.628448 2.480131 -0.997017 0.000000 0.077185 0.303187 0.324164 255 254 0 255
13.870880 -6.746481 2.837635 -0.997017 -0.000000 0.077184 0.389244 0.055836 255 254 17 255
13.853844 -6.058267 2.617570 -0.997017 -0.000000 0.077184 0.336271 0.221008 255 254 0 255
13.825917 -6.321141 2.256834 -0.997017 -0.000000 0.077184 0.249435 0.157918 255 254 0 255
13.808728 -5.628448 2.034797 0.997017 -0.000000 -0.077186 0.303187 0.324164 255 254 0 255
13.798088 -6.058267 1.897358 0.997017 -0.000000 -0.077186 0.336271 0.221008 255 254 0 255
13.752425 -5.628448 1.307528 0.997017 -0.000000 -0.077186 0.478254 0.324164 255 254 0 255
13.826098 -4.937465 2.259182 -0.997017 0.000000 0.077185 0.250000 0.490000 255 254 10 255
13.826015 -6.321141 2.258095 0.997017 0.000000 -0.077185 0.249435 0.157918 255 254 86 255
13.798088 -6.058267 1.897358 0.997017 0.000000 -0.077185 0.336271 0.221008 255 254 0 255
13.853915 -6.057212 2.618490 0.997017 0.000000 -0.077185 0.162681 0.221261 255 254 0 255
13.899240 -5.628448 3.203966 0.997017 -0.000000 -0.077185 0.021746 0.324164 255 254 36 255
13.780730 -6.746481 1.673150 -0.997017 -0.000000 0.077186 0.108932 0.055836 255 254 36 255
13.825917 -6.321141 2.256834 -0.997017 -0.000000 0.077186 0.249435 0.157918 255 254 0 255
13.798017 -6.057212 1.896439 -0.997017 -0.000000 0.077186 0.162681 0.221261 255 254 0 255
13.843204 -5.628448 2.480131 -0.997017 -0.000000 0.077186 0.303187 0.324164 255 254 0 255
13.853844 -6.058267 2.617570 -0.997017 -0.000000 0.077186 0.336271 0.221008 255 254 0 255
13.899507 -5.628448 3.207401 -0.997017 -0.000000 0.077186 0.478254 0.324164 255 254 7 255
3 0 1 2
3 3 4 5
3 6 7 8
3 9 10 11
5 12 13 14 7 6
3 15 16 17
3 18 19 20
3 21 7 14
5 22 23 5 4 24
3 24 4 25
3 26 27 28
3 29 30 31
