ply
format ascii 1.0
comment Created by Blender 2.92.0 - www.blender.org
element vertex 66
property float x
property float y
property float z
property float nx
property float ny
property float nz
property float s
property float t
property uchar red
property uchar green
property uchar blue
property uchar alpha
element face 26
property list uchar uint vertex_indices
end_header
163.767059 -20.944599 -44.682930 -0.620653 0.000083 -0.784085 0.411277 0.036275 66 31 28 255
163.938522 -20.615593 -44.818619 -0.620653 0.000083 -0.784085 0.587753 0.213725 66 31 28 255
163.938324 -20.944344 -44.818497 -0.620653 0.000083 -0.784085 0.411277 0.213725 66 31 28 255
164.146942 -20.200542 -44.983620 0.784072 0.000000 -0.620670 0.623866 0.250000 146 69 62 255
164.612442 -19.232189 -44.395569 0.784072 0.000000 -0.620670 0.625000 0.500000 146 69 62 255
164.612442 -20.947140 -44.395569 0.784072 0.000000 -0.620670 0.375000 0.500000 146 69 62 255
164.612442 -19.232189 -44.395569 0.620675 -0.000000 0.784068 0.625000 0.500000 146 69 62 255
164.024399 -19.232189 -43.930069 0.620675 -0.000000 0.784068 0.625000 0.750000 146 69 62 255
164.024399 -20.947140 -43.930069 0.620675 -0.000000 0.784068 0.375000 0.750000 146 69 62 255
164.024399 -19.232189 -43.930069 -0.784076 0.000000 0.620665 0.625000 0.750000 146 69 62 255
163.558899 -20.947140 -44.518127 -0.784076 0.000000 0.620665 0.375000 1.000000 146 69 62 255
164.024399 -20.947140 -43.930069 -0.784076 0.000000 0.620665 0.375000 0.750000 146 69 62 255
164.612442 -20.947140 -44.395569 0.000000 -1.000000 0.000000 0.375000 0.500000 255 255 255 255
163.558899 -20.947140 -44.518127 0.000000 -1.000000 0.000000 0.125000 0.750000 255 255 255 255
164.146942 -20.947140 -44.983620 0.000000 -1.000000 0.000000 0.125000 0.500000 255 255 255 255
164.612442 -19.232189 -44.395569 0.584133 0.688940 -0.429128 0.625000 0.500000 178 136 64 255
163.865936 -18.826969 -44.761162 0.584133 0.688940 -0.429128 0.875000 0.619465 178 136 64 255
164.310257 -18.826969 -44.156349 0.584133 0.688940 -0.429128 0.625000 0.628473 178 136 64 255
164.310257 -18.826969 -44.156349 -0.582884 0.668844 0.461404 0.625000 0.628473 178 136 64 255
163.558899 -19.232189 -44.518127 -0.582884 0.668844 0.461404 0.875000 0.750000 178 136 64 255
164.024399 -19.232189 -43.930069 -0.582884 0.668844 0.461404 0.625000 0.750000 178 136 64 255
163.558899 -19.232189 -44.518127 -0.620669 0.000000 -0.784073 0.625000 0.000000 146 69 62 255
164.146942 -19.232189 -44.983620 -0.620669 0.000000 -0.784073 0.625000 0.250000 146 69 62 255
164.146942 -20.200542 -44.983620 -0.620669 0.000000 -0.784073 0.623866 0.250000 146 69 62 255
163.767059 -20.944599 -44.682930 -0.620652 -0.007328 -0.784052 0.411277 0.036275 146 69 62 255
164.146942 -20.947140 -44.983620 -0.620652 -0.007328 -0.784052 0.375000 0.250000 146 69 62 255
163.558899 -20.947140 -44.518127 -0.620652 -0.007328 -0.784052 0.375000 0.000000 146 69 62 255
163.767273 -20.614349 -44.683075 -0.620668 -0.000000 -0.784074 0.588558 0.036275 146 69 62 255
163.558899 -20.947140 -44.518127 -0.620668 -0.000000 -0.784074 0.375000 0.000000 146 69 62 255
163.558899 -19.232189 -44.518127 -0.620668 -0.000000 -0.784074 0.625000 0.000000 146 69 62 255
163.938522 -20.615593 -44.818619 -0.620626 0.000083 -0.784107 0.587753 0.213725 146 69 62 255
164.146942 -20.947140 -44.983620 -0.620626 0.000083 -0.784107 0.375000 0.250000 146 69 62 255
163.938324 -20.944344 -44.818497 -0.620626 0.000083 -0.784107 0.411277 0.213725 146 69 62 255
163.767273 -20.614349 -44.683075 -0.620623 -0.000069 -0.784109 0.588558 0.036275 146 69 62 255
164.146942 -20.200542 -44.983620 -0.620623 -0.000069 -0.784109 0.623866 0.250000 146 69 62 255
163.938522 -20.615593 -44.818619 -0.620623 -0.000069 -0.784109 0.587753 0.213725 146 69 62 255
163.767059 -20.944599 -44.682930 -0.620622 0.000057 -0.784110 0.411277 0.036275 66 31 28 255
163.767273 -20.614349 -44.683075 -0.620622 0.000057 -0.784110 0.588558 0.036275 66 31 28 255
163.938522 -20.615593 -44.818619 -0.620622 0.000057 -0.784110 0.587753 0.213725 66 31 28 255
164.146942 -20.947140 -44.983620 0.784072 0.000000 -0.620670 0.375000 0.250000 146 69 62 255
164.146942 -19.232189 -44.983620 0.784072 0.000000 -0.620670 0.625000 0.250000 146 69 62 255
164.612442 -20.947140 -44.395569 0.620675 0.000000 0.784068 0.375000 0.500000 146 69 62 255
164.612442 -19.232189 -44.395569 0.620675 -0.000014 0.784068 0.625000 0.500000 146 69 62 255
164.310257 -18.826969 -44.156349 0.620675 -0.000014 0.784068 0.625000 0.628473 146 69 62 255
164.024399 -19.232189 -43.930069 0.620675 -0.000014 0.784068 0.625000 0.750000 146 69 62 255
163.558899 -19.232189 -44.518127 -0.784076 0.000000 0.620665 0.625000 1.000000 146 69 62 255
164.024399 -20.947140 -43.930069 0.000000 -1.000000 0.000000 0.375000 0.750000 255 255 255 255
164.612442 -19.232189 -44.395569 0.587312 0.662509 -0.464915 0.625000 0.500000 178 136 64 255
164.146942 -19.232189 -44.983620 0.587312 0.662509 -0.464915 0.875000 0.500000 178 136 64 255
163.865936 -18.826969 -44.761162 0.587312 0.662509 -0.464915 0.875000 0.619465 178 136 64 255
164.310257 -18.826969 -44.156349 -0.579707 0.694671 0.425877 0.625000 0.628473 178 136 64 255
163.865936 -18.826969 -44.761162 -0.579707 0.694671 0.425877 0.875000 0.619465 178 136 64 255
163.558899 -19.232189 -44.518127 -0.579707 0.694671 0.425877 0.875000 0.750000 178 136 64 255
163.558899 -19.232189 -44.518127 -0.620669 0.000029 -0.784073 0.625000 0.000000 146 69 62 255
163.865936 -18.826969 -44.761162 -0.620669 0.000029 -0.784073 0.625000 0.130535 146 69 62 255
164.146942 -19.232189 -44.983620 -0.620669 0.000029 -0.784073 0.625000 0.250000 146 69 62 255
163.767059 -20.944599 -44.682930 -0.620648 -0.002870 -0.784084 0.411277 0.036275 146 69 62 255
163.938324 -20.944344 -44.818497 -0.620648 -0.002870 -0.784084 0.411277 0.213725 146 69 62 255
164.146942 -20.947140 -44.983620 -0.620648 -0.002870 -0.784084 0.375000 0.250000 146 69 62 255
163.767273 -20.614349 -44.683075 -0.620724 0.000057 -0.784029 0.588558 0.036275 146 69 62 255
163.767059 -20.944599 -44.682930 -0.620724 0.000057 -0.784029 0.411277 0.036275 146 69 62 255
163.558899 -20.947140 -44.518127 -0.620724 0.000057 -0.784029 0.375000 0.000000 146 69 62 255
163.938522 -20.615593 -44.818619 -0.620707 0.000000 -0.784042 0.587753 0.213725 146 69 62 255
164.146942 -20.200542 -44.983620 -0.620707 0.000000 -0.784042 0.623866 0.250000 146 69 62 255
164.146942 -20.947140 -44.983620 -0.620707 0.000000 -0.784042 0.375000 0.250000 146 69 62 255
163.767273 -20.614349 -44.683075 -0.620669 -0.000000 -0.784073 0.588558 0.036275 146 69 62 255
3 0 1 2
3 3 4 5
3 6 7 8
3 9 10 11
3 12 13 14
3 15 16 17
3 18 19 20
3 21 22 23
3 24 25 26
3 27 28 29
3 30 31 32
3 33 34 35
3 36 37 38
3 5 39 3
3 3 40 4
3 8 41 6
3 42 43 44
3 9 45 10
3 12 46 13
3 47 48 49
3 50 51 52
3 53 54 55
3 56 57 58
3 59 60 61
3 62 63 64
3 65 21 23
