ply
format ascii 1.0
comment Created by Blender 2.93.1 - www.blender.org
element vertex 24
property float x
property float y
property float z
property float nx
property float ny
property float nz
property float s
property float t
property uchar red
property uchar green
property uchar blue
property uchar alpha
element face 10
property list uchar uint vertex_indices
end_header
154.635147 -19.347126 -98.410805 0.000000 -1.000000 -0.000000 0.250000 0.490000 83 141 84 255
155.866425 -19.347126 -96.790504 0.000000 -1.000000 -0.000000 0.457846 0.130000 83 141 84 255
153.847565 -19.347126 -96.534317 0.000000 -1.000000 -0.000000 0.042154 0.130000 83 141 84 255
154.601608 -19.379585 -97.082947 -0.922061 0.000000 -0.387045 0.333333 1.000000 107 97 74 255
154.755569 -21.026707 -97.449730 -0.922061 0.000000 -0.387045 -0.000000 0.500000 107 97 74 255
154.601608 -21.026707 -97.082947 -0.922061 0.000000 -0.387045 0.333333 0.500000 107 97 74 255
154.996231 -19.379585 -97.132996 0.125819 0.000000 0.992053 0.666667 1.000000 107 97 74 255
154.601608 -21.026707 -97.082947 0.125819 0.000000 0.992053 0.333333 0.500000 107 97 74 255
154.996231 -21.026707 -97.132996 0.125819 0.000000 0.992053 0.666667 0.500000 107 97 74 255
154.755569 -19.379585 -97.449730 0.796231 0.000000 -0.604993 1.000000 1.000000 107 97 74 255
154.996231 -21.026707 -97.132996 0.796231 0.000000 -0.604993 0.666667 0.500000 107 97 74 255
154.755569 -21.026707 -97.449730 0.796231 0.000000 -0.604993 1.000000 0.500000 107 97 74 255
153.847565 -19.347126 -96.534317 -0.912546 0.143414 -0.383005 0.042154 0.130000 83 141 84 255
154.783066 -15.293036 -97.245209 -0.912546 0.143414 -0.383005 0.250000 0.250000 83 141 84 255
154.635147 -19.347126 -98.410805 -0.912546 0.143414 -0.383005 0.250000 0.490000 83 141 84 255
155.866425 -19.347126 -96.790504 0.124586 0.143410 0.981790 0.457846 0.130000 83 141 84 255
154.783066 -15.293036 -97.245209 0.124586 0.143410 0.981790 0.250000 0.250000 83 141 84 255
153.847565 -19.347126 -96.534317 0.124586 0.143410 0.981790 0.042154 0.130000 83 141 84 255
154.635147 -19.347126 -98.410805 0.787968 0.143407 -0.598783 0.250000 0.490000 83 141 84 255
154.783066 -15.293036 -97.245209 0.787968 0.143407 -0.598783 0.250000 0.250000 83 141 84 255
155.866425 -19.347126 -96.790504 0.787968 0.143407 -0.598783 0.457846 0.130000 83 141 84 255
154.755569 -19.379585 -97.449730 -0.922061 0.000000 -0.387045 -0.000000 1.000000 107 97 74 255
154.601608 -19.379585 -97.082947 0.125819 -0.000000 0.992053 0.333333 1.000000 107 97 74 255
154.996231 -19.379585 -97.132996 0.796231 0.000000 -0.604993 0.666667 1.000000 107 97 74 255
3 0 1 2
3 3 4 5
3 6 7 8
3 9 10 11
3 12 13 14
3 15 16 17
3 18 19 20
3 3 21 4
3 6 22 7
3 9 23 10
