ply
format ascii 1.0
comment Created by Blender 2.92.0 - www.blender.org
element vertex 4
property float x
property float y
property float z
property float nx
property float ny
property float nz
property float s
property float t
property uchar red
property uchar green
property uchar blue
property uchar alpha
element face 1
property list uchar uint vertex_indices
end_header
3.347760 -3.219050 -3.375905 0.000000 1.000000 0.000000 0.000000 0.000000 109 255 143 255
1.347760 -3.219050 -3.375905 0.000000 1.000000 0.000000 1.000000 0.000000 111 255 144 255
1.347760 -3.219050 -3.357359 0.000000 1.000000 0.000000 1.000000 0.009273 111 255 143 255
3.347760 -3.219050 -1.375905 0.000000 1.000000 0.000000 0.000000 1.000000 115 255 146 255
4 0 1 2 3
