ply
format ascii 1.0
comment Created by Blender 2.92.0 - www.blender.org
element vertex 256
property float x
property float y
property float z
property float nx
property float ny
property float nz
property float s
property float t
property uchar red
property uchar green
property uchar blue
property uchar alpha
element face 100
property list uchar uint vertex_indices
end_header
44.583778 -30.371761 -1.151318 0.883510 0.000000 -0.468413 1.000000 1.000000 138 44 0 255
44.710766 -31.024868 -0.911798 0.883510 0.000000 -0.468413 0.666667 0.500000 140 52 28 255
44.583778 -31.024868 -1.151318 0.883510 0.000000 -0.468413 1.000000 0.500000 138 44 0 255
44.710766 -30.371761 -0.911798 -0.036107 0.000000 0.999348 0.666667 1.000000 138 44 0 255
44.439842 -31.024868 -0.921586 -0.036107 0.000000 0.999348 0.333333 0.500000 148 77 64 255
44.710766 -31.024868 -0.911798 -0.036107 0.000000 0.999348 0.666667 0.500000 138 45 8 255
44.439842 -30.371761 -0.921586 -0.237976 -0.959759 -0.149101 0.333333 1.000000 0 97 12 255
44.595562 -30.324022 -1.477420 -0.237976 -0.959759 -0.149101 -0.000000 1.000000 0 97 12 255
44.583778 -30.371761 -1.151318 -0.237976 -0.959759 -0.149101 -0.000000 1.000000 0 97 12 255
44.439842 -30.371761 -0.921586 -0.847412 0.000000 -0.530936 0.333333 1.000000 138 44 0 255
44.583778 -31.024868 -1.151318 -0.847412 0.000000 -0.530936 -0.000000 0.500000 138 44 0 255
44.439842 -31.024868 -0.921586 -0.847412 0.000000 -0.530936 0.333333 0.500000 148 77 64 255
44.583778 -31.024868 -1.151318 0.000000 -1.000000 -0.000000 0.750000 0.490000 255 255 255 255
44.710766 -31.024868 -0.911798 0.000000 -1.000000 -0.000000 0.957846 0.130000 255 255 255 255
44.439842 -31.024868 -0.921586 0.000000 -1.000000 -0.000000 0.542154 0.130000 255 255 255 255
44.595562 -30.324022 -1.477420 -0.840602 0.126483 -0.526678 -0.000000 1.000000 1 105 23 255
44.151539 -30.324022 -0.768739 -0.840602 0.126483 -0.526678 0.333333 1.000000 2 105 23 255
44.578129 -28.430660 -0.994900 -0.840602 0.126483 -0.526678 -0.000000 1.000000 61 119 65 255
44.710766 -30.371761 -0.911798 -0.010140 -0.959760 0.280638 0.666667 1.000000 0 97 12 255
44.151539 -30.324022 -0.768739 -0.010140 -0.959760 0.280638 0.333333 1.000000 1 97 12 255
44.439842 -30.371761 -0.921586 -0.010140 -0.959760 0.280638 0.333333 1.000000 0 97 12 255
44.710766 -30.371761 -0.911798 0.248111 -0.959759 -0.131539 0.666667 1.000000 0 97 12 255
44.595562 -30.324022 -1.477420 0.248111 -0.959759 -0.131539 1.000000 1.000000 0 97 12 255
44.987286 -30.324022 -0.738543 0.248111 -0.959759 -0.131539 0.666667 1.000000 19 98 22 255
44.151539 -30.324022 -0.768739 -0.035817 0.126483 0.991322 0.333333 1.000000 2 105 23 255
44.987286 -30.324022 -0.738543 -0.035817 0.126483 0.991322 0.666667 1.000000 0 105 23 255
44.578129 -28.430660 -0.994900 -0.035817 0.126483 0.991322 0.333333 1.000000 61 119 65 255
44.987286 -30.324022 -0.738543 0.876419 0.126483 -0.464642 0.666667 1.000000 0 105 23 255
44.595562 -30.324022 -1.477420 0.876419 0.126483 -0.464642 1.000000 1.000000 1 105 23 255
44.578129 -28.430660 -0.994900 0.876419 0.126483 -0.464642 0.666667 1.000000 61 119 65 255
48.099419 -29.165913 7.465938 0.875403 0.290663 -0.386245 0.375000 1.000000 57 58 56 255
43.994213 -24.705559 1.518296 0.875403 0.290663 -0.386245 0.500827 1.000000 77 70 66 255
48.165745 -26.156628 9.880859 0.875403 0.290663 -0.386245 0.500827 1.000000 77 70 66 255
50.277023 -29.165913 7.432269 -0.881553 0.290638 -0.372014 0.375000 0.250000 57 58 56 255
52.974739 -26.586058 3.055073 -0.881553 0.290638 -0.372014 0.463687 0.250000 102 88 81 255
52.289711 -31.020058 1.214284 -0.881553 0.290638 -0.372014 0.375000 0.250000 87 116 94 255
48.099419 -29.165913 7.465938 -0.002360 0.958288 -0.285795 0.125000 0.750000 54 58 56 255
52.289711 -31.020058 1.214284 -0.002360 0.958288 -0.285795 0.125000 0.500000 87 116 94 255
43.733616 -31.020058 1.284932 -0.002360 0.958288 -0.285795 0.125000 0.750000 87 116 94 255
52.974739 -26.586058 3.055073 -0.813648 0.299330 -0.498375 0.463687 0.250000 102 88 81 255
50.657532 -19.295097 11.217186 -0.813648 0.299330 -0.498375 0.463687 0.250000 102 88 81 255
55.458763 -18.828342 3.659021 -0.813648 0.299330 -0.498375 0.463687 0.250000 102 88 81 255
43.994213 -24.705559 1.518296 0.896220 0.127120 -0.425007 0.500827 1.000000 77 70 66 255
47.351799 -18.398914 10.484808 0.896220 0.127120 -0.425007 0.500827 1.000000 77 70 66 255
48.165745 -26.156628 9.880859 0.896220 0.127120 -0.425007 0.500827 1.000000 77 70 66 255
48.165745 -26.156628 9.880859 0.241089 0.100444 -0.965291 0.500827 1.000000 77 70 66 255
50.657532 -19.295097 11.217186 0.241089 0.100444 -0.965291 0.463687 0.250000 102 88 81 255
51.471478 -27.052813 10.613237 0.241089 0.100444 -0.965291 0.463687 0.250000 102 88 81 255
43.994213 -24.705559 1.518296 0.976176 0.198589 -0.087421 0.500827 1.000000 77 70 66 255
41.663132 -16.683830 -6.288978 0.976176 0.198589 -0.087421 0.500827 1.000000 77 70 66 255
42.470104 -16.947845 2.122245 0.976176 0.198589 -0.087421 0.500827 1.000000 77 70 66 255
43.733616 -31.020058 1.284932 0.994617 -0.037477 -0.096600 0.375000 1.000000 87 116 94 255
43.187241 -24.441545 -6.892926 0.994617 -0.037477 -0.096600 0.500827 1.000000 77 70 66 255
43.994213 -24.705559 1.518296 0.994617 -0.037477 -0.096600 0.500827 1.000000 77 70 66 255
43.733616 -31.020058 1.284932 0.000259 0.999509 0.031348 0.125000 0.750000 87 118 94 255
51.482738 -30.756044 -7.196938 0.000259 0.999509 0.031348 0.125000 0.500000 82 255 100 255
42.926643 -30.756044 -7.126290 0.000259 0.999509 0.031348 0.125000 0.750000 82 255 100 255
52.289711 -31.020058 1.214284 -0.988834 0.111926 0.098382 0.375000 0.250000 87 116 94 255
52.167767 -26.322044 -5.356149 -0.988834 0.111926 0.098382 0.463687 0.250000 102 88 81 255
51.482738 -30.756044 -7.196938 -0.988834 0.111926 0.098382 0.375000 0.250000 57 58 56 255
52.974739 -26.586058 3.055073 -0.949798 0.296308 0.100424 0.463687 0.250000 102 88 81 255
54.651791 -18.564331 -4.752201 -0.949798 0.296308 0.100424 0.463687 0.250000 102 88 81 255
52.167767 -26.322044 -5.356149 -0.949798 0.296308 0.100424 0.463687 0.250000 102 88 81 255
52.167767 -26.322044 -5.356149 -0.952630 0.302923 0.027095 0.463687 0.250000 102 88 81 255
54.382652 -18.636772 -13.405056 -0.952630 0.302923 0.027095 0.463687 0.250000 102 88 81 255
51.898628 -26.394485 -14.009005 -0.952630 0.302923 0.027095 0.463687 0.250000 102 88 81 255
51.482738 -30.756044 -7.196938 -0.989624 0.140601 0.029604 0.375000 0.250000 57 58 56 255
51.898628 -26.394485 -14.009005 -0.989624 0.140601 0.029604 0.463687 0.250000 102 88 81 255
51.213600 -30.828485 -15.849792 -0.989624 0.140601 0.029604 0.375000 0.250000 57 58 56 255
43.187241 -24.441545 -6.892926 0.969291 0.177152 0.170563 0.500827 1.000000 77 70 66 255
43.198986 -16.756271 -14.941833 0.969291 0.177152 0.170563 0.500827 1.000000 77 70 66 255
41.663132 -16.683830 -6.288978 0.969291 0.177152 0.170563 0.500827 1.000000 77 70 66 255
42.926643 -30.756044 -7.126290 0.979173 -0.047703 0.197343 0.375000 1.000000 57 58 56 255
44.927608 -24.513987 -15.545781 0.979173 -0.047703 0.197343 0.500827 1.000000 77 70 66 255
43.187241 -24.441545 -6.892926 0.979173 -0.047703 0.197343 0.500827 1.000000 77 70 66 255
51.482738 -30.756044 -7.196938 -0.000069 0.999965 -0.008409 0.125000 0.500000 82 255 100 255
47.525616 -30.828485 -15.779145 -0.000069 0.999965 -0.008409 0.125000 0.750000 82 255 100 255
42.926643 -30.756044 -7.126290 -0.000069 0.999965 -0.008409 0.125000 0.750000 82 255 100 255
51.898628 -26.394485 -14.009005 -0.952630 0.302940 0.026883 0.463687 0.250000 102 88 81 255
54.239040 -18.419468 -20.942881 -0.952630 0.302940 0.026883 0.463687 0.250000 102 88 81 255
51.755016 -26.177181 -21.546829 -0.952630 0.302940 0.026883 0.463687 0.250000 102 88 81 255
51.213600 -30.828485 -15.849792 -0.989410 0.143317 0.022982 0.375000 0.250000 57 58 56 255
51.755016 -26.177181 -21.546829 -0.989410 0.143317 0.022982 0.463687 0.250000 102 88 81 255
51.069988 -30.611181 -23.387617 -0.989410 0.143317 0.022982 0.375000 0.250000 57 58 56 255
44.927608 -24.513987 -15.545781 0.975677 0.213554 0.049486 0.500827 1.000000 77 70 66 255
43.538242 -16.538967 -22.568405 0.975677 0.213554 0.049486 0.500827 1.000000 77 70 66 255
43.198986 -16.756271 -14.941833 0.975677 0.213554 0.049486 0.500827 1.000000 77 70 66 255
44.927608 -24.513987 -15.545781 0.957678 0.219106 0.186668 0.500827 1.000000 77 70 66 255
48.339939 -30.611181 -25.895603 0.957678 0.219106 0.186668 0.375000 1.000000 57 58 56 255
47.114983 -24.296682 -27.022903 0.957678 0.219106 0.186668 0.500827 1.000000 77 70 66 255
47.525616 -30.828485 -15.779145 -0.018368 0.999631 0.019994 0.125000 0.750000 82 255 100 255
51.069988 -30.611181 -23.387617 -0.018368 0.999631 0.019994 0.125000 0.500000 82 255 100 255
48.339939 -30.611181 -25.895603 -0.018368 0.999631 0.019994 0.125000 0.750000 82 254 99 255
44.390694 -30.075235 -2.707273 0.968775 0.000000 0.247940 1.000000 1.000000 138 44 0 255
44.297813 -30.977699 -2.344363 0.968775 0.000000 0.247940 0.666667 0.500000 140 52 28 255
44.390694 -30.977699 -2.707273 0.968775 0.000000 0.247940 1.000000 0.500000 138 44 0 255
44.297813 -30.075235 -2.344363 -0.699112 0.000000 0.715012 0.666667 1.000000 138 44 0 255
44.029964 -30.977699 -2.606256 -0.699112 0.000000 0.715012 0.333333 0.500000 148 77 64 255
44.297813 -30.977699 -2.344363 -0.699112 0.000000 0.715012 0.666667 0.500000 138 45 8 255
44.390694 -30.075235 -2.707273 -0.075727 -0.959760 -0.270418 -0.000000 1.000000 0 97 12 255
43.593143 -30.009270 -2.718054 -0.075727 -0.959760 -0.270418 0.333333 1.000000 1 97 12 255
44.705929 -30.009270 -3.029674 -0.075727 -0.959760 -0.270418 -0.000000 1.000000 0 97 12 255
44.029964 -30.075235 -2.606256 -0.269662 0.000000 -0.962955 0.333333 1.000000 138 44 0 255
44.390694 -30.977699 -2.707273 -0.269662 0.000000 -0.962955 -0.000000 0.500000 138 44 0 255
44.029964 -30.977699 -2.606256 -0.269662 0.000000 -0.962955 0.333333 0.500000 148 77 64 255
44.390694 -30.977699 -2.707273 0.000000 -1.000000 0.000000 0.750000 0.490000 255 255 255 255
44.297813 -30.977699 -2.344363 0.000000 -1.000000 0.000000 0.957846 0.130000 255 255 255 255
44.029964 -30.977699 -2.606256 0.000000 -1.000000 0.000000 0.542154 0.130000 255 255 255 255
44.705929 -30.009270 -3.029674 -0.267496 0.126483 -0.955221 -0.000000 1.000000 1 105 23 255
43.593143 -30.009270 -2.718054 -0.267496 0.126483 -0.955221 0.333333 1.000000 2 105 23 255
44.239491 -27.393013 -2.552630 -0.267496 0.126483 -0.955221 -0.000000 1.000000 61 119 65 255
44.297813 -30.075235 -2.344363 -0.196326 -0.959760 0.200791 0.666667 1.000000 0 97 12 255
43.593143 -30.009270 -2.718054 -0.196326 -0.959760 0.200791 0.333333 1.000000 1 97 12 255
44.029964 -30.075235 -2.606256 -0.196326 -0.959760 0.200791 0.333333 1.000000 0 97 12 255
44.297813 -30.075235 -2.344363 0.272049 -0.959761 0.069627 0.666667 1.000000 0 97 12 255
44.705929 -30.009270 -3.029674 0.272049 -0.959761 0.069627 1.000000 1.000000 0 97 12 255
44.419407 -30.009270 -1.910164 0.272049 -0.959761 0.069627 0.666667 1.000000 19 98 22 255
43.593143 -30.009270 -2.718054 -0.693498 0.126482 0.709269 0.333333 1.000000 2 105 23 255
44.419407 -30.009270 -1.910164 -0.693498 0.126482 0.709269 0.666667 1.000000 0 105 23 255
44.239491 -27.393013 -2.552630 -0.693498 0.126482 0.709269 0.333333 1.000000 61 119 65 255
44.419407 -30.009270 -1.910164 0.960994 0.126484 0.245952 0.666667 1.000000 0 105 23 255
44.705929 -30.009270 -3.029674 0.960994 0.126484 0.245952 1.000000 1.000000 1 105 23 255
44.239491 -27.393013 -2.552630 0.960994 0.126484 0.245952 0.666667 1.000000 61 119 65 255
50.420235 -29.660004 -15.813698 0.458988 0.000000 0.888442 1.000000 1.000000 138 44 0 255
49.975853 -30.864979 -15.584121 0.458988 0.000000 0.888442 0.666667 0.500000 140 52 28 255
50.420235 -30.864979 -15.813698 0.458988 0.000000 0.888442 1.000000 0.500000 138 44 0 255
49.975853 -29.660004 -15.584121 -0.998908 0.000000 -0.046721 0.666667 1.000000 138 44 0 255
49.999222 -30.864979 -16.083750 -0.998908 0.000000 -0.046721 0.333333 0.500000 148 77 64 255
49.975853 -30.864979 -15.584121 -0.998908 0.000000 -0.046721 0.666667 0.500000 138 45 8 255
49.999222 -29.660004 -16.083750 0.151619 -0.959760 -0.236375 0.333333 1.000000 0 97 12 255
51.021622 -29.571926 -15.785571 0.151619 -0.959760 -0.236375 -0.000000 1.000000 0 97 12 255
50.420235 -29.660004 -15.813698 0.151619 -0.959760 -0.236375 -0.000000 1.000000 0 97 12 255
49.999222 -29.660004 -16.083750 0.539910 0.000000 -0.841723 0.333333 1.000000 138 44 0 255
50.420235 -30.864979 -15.813698 0.539910 0.000000 -0.841723 -0.000000 0.500000 138 44 0 255
49.999222 -30.864979 -16.083750 0.539910 0.000000 -0.841723 0.333333 0.500000 148 77 64 255
50.420235 -30.864979 -15.813698 0.000000 -1.000000 0.000000 0.750000 0.490000 255 255 255 255
49.975853 -30.864979 -15.584121 0.000000 -1.000000 0.000000 0.957846 0.130000 255 255 255 255
49.999222 -30.864979 -16.083750 0.000000 -1.000000 0.000000 0.542154 0.130000 255 255 255 255
51.021622 -29.571926 -15.785571 0.535578 0.126483 -0.834960 -0.000000 1.000000 1 105 23 255
49.722885 -29.571926 -16.618635 0.535578 0.126483 -0.834960 0.333333 1.000000 2 105 23 255
50.131771 -26.078686 -15.827189 0.535578 0.126483 -0.834960 -0.000000 1.000000 61 119 65 255
49.975853 -29.660004 -15.584121 -0.280511 -0.959761 -0.013120 0.666667 1.000000 0 97 12 255
49.722885 -29.571926 -16.618635 -0.280511 -0.959761 -0.013120 0.333333 1.000000 1 97 12 255
49.999222 -29.660004 -16.083750 -0.280511 -0.959761 -0.013120 0.333333 1.000000 0 97 12 255
49.975853 -29.660004 -15.584121 0.128894 -0.959761 0.249488 0.666667 1.000000 0 97 12 255
51.021622 -29.571926 -15.785571 0.128894 -0.959761 0.249488 1.000000 1.000000 0 97 12 255
49.650803 -29.571926 -15.077362 0.128894 -0.959761 0.249488 0.666667 1.000000 19 98 22 255
49.722885 -29.571926 -16.618635 -0.990886 0.126483 -0.046342 0.333333 1.000000 2 105 23 255
49.650803 -29.571926 -15.077362 -0.990886 0.126483 -0.046342 0.666667 1.000000 0 105 23 255
50.131771 -26.078686 -15.827189 -0.990886 0.126483 -0.046342 0.333333 1.000000 61 119 65 255
49.650803 -29.571926 -15.077362 0.455309 0.126483 0.881303 0.666667 1.000000 0 105 23 255
51.021622 -29.571926 -15.785571 0.455309 0.126483 0.881303 1.000000 1.000000 1 105 23 255
50.131771 -26.078686 -15.827189 0.455309 0.126483 0.881303 0.666667 1.000000 61 119 65 255
54.239040 -18.419468 -20.942881 -0.865119 0.307840 -0.395984 0.463687 0.250000 102 88 81 255
53.017853 -26.177181 -24.305790 -0.865119 0.307840 -0.395984 0.463687 0.250000 102 88 81 255
51.755016 -26.177181 -21.546829 -0.865119 0.307840 -0.395984 0.463687 0.250000 102 88 81 255
51.069988 -30.611181 -23.387617 -0.681444 0.151071 -0.716109 0.375000 0.250000 57 58 56 255
53.017853 -26.177181 -24.305790 -0.681444 0.151071 -0.716109 0.463687 0.250000 102 88 81 255
53.886223 -30.611181 -26.067524 -0.681444 0.151071 -0.716109 0.375000 0.250000 57 58 56 255
47.114983 -24.296682 -27.022903 0.886950 0.160191 0.433196 0.500827 1.000000 77 70 66 255
47.427799 -16.538967 -30.532099 0.886950 0.160191 0.433196 0.500827 1.000000 77 70 66 255
43.538242 -16.538967 -22.568405 0.886950 0.160191 0.433196 0.500827 1.000000 77 70 66 255
47.114983 -24.296682 -27.022903 0.503954 0.274228 0.819041 0.500827 1.000000 77 70 66 255
56.116013 -30.611181 -30.447023 0.503954 0.274228 0.819041 0.375000 1.000000 57 58 56 255
56.125198 -19.807259 -34.070000 0.503954 0.274228 0.819041 0.500827 1.000000 77 70 66 255
48.339939 -30.611181 -25.895603 0.000000 1.000000 0.000000 0.125000 0.750000 82 254 99 255
53.886223 -30.611181 -26.067524 0.000000 1.000000 0.000000 0.125000 0.500000 82 255 100 255
56.116013 -30.611181 -30.447023 0.000000 1.000000 0.000000 0.125000 0.750000 82 254 99 255
44.710766 -30.371761 -0.911798 0.883510 0.000000 -0.468413 0.666667 1.000000 138 44 0 255
44.439842 -30.371761 -0.921586 -0.036107 0.000000 0.999348 0.333333 1.000000 138 44 0 255
44.439842 -30.371761 -0.921586 -0.237970 -0.959760 -0.149099 0.333333 1.000000 0 97 12 255
44.151539 -30.324022 -0.768739 -0.237970 -0.959760 -0.149099 0.333333 1.000000 1 97 12 255
44.595562 -30.324022 -1.477420 -0.237970 -0.959760 -0.149099 -0.000000 1.000000 0 97 12 255
44.583778 -30.371761 -1.151318 -0.847412 0.000000 -0.530936 -0.000000 1.000000 138 44 0 255
44.987286 -30.324022 -0.738543 -0.010140 -0.959760 0.280638 0.666667 1.000000 19 98 22 255
44.710766 -30.371761 -0.911798 0.248103 -0.959762 -0.131537 0.666667 1.000000 0 97 12 255
44.583778 -30.371761 -1.151318 0.248103 -0.959762 -0.131537 1.000000 1.000000 0 97 12 255
44.595562 -30.324022 -1.477420 0.248103 -0.959762 -0.131537 1.000000 1.000000 0 97 12 255
48.099419 -29.165913 7.465938 0.818503 -0.012553 -0.574364 0.375000 1.000000 57 58 56 255
43.733616 -31.020058 1.284932 0.818503 -0.012553 -0.574364 0.375000 1.000000 87 116 94 255
43.994213 -24.705559 1.518296 0.818503 -0.012553 -0.574364 0.500827 1.000000 77 70 66 255
50.277023 -29.165913 7.432269 -0.778881 0.616188 -0.116861 0.375000 0.250000 57 58 56 255
51.471478 -27.052813 10.613237 -0.778881 0.616188 -0.116861 0.463687 0.250000 102 88 81 255
52.974739 -26.586058 3.055073 -0.778881 0.616188 -0.116861 0.463687 0.250000 102 88 81 255
48.099419 -29.165913 7.465938 -0.004439 0.957898 -0.287073 0.125000 0.750000 54 58 56 255
50.277023 -29.165913 7.432269 -0.004439 0.957898 -0.287073 0.125000 0.500000 54 58 56 255
52.289711 -31.020058 1.214284 -0.004439 0.957898 -0.287073 0.125000 0.500000 87 116 94 255
52.974739 -26.586058 3.055073 -0.976041 -0.086876 -0.199492 0.463687 0.250000 102 88 81 255
51.471478 -27.052813 10.613237 -0.976041 -0.086876 -0.199492 0.463687 0.250000 102 88 81 255
50.657532 -19.295097 11.217186 -0.976041 -0.086876 -0.199492 0.463687 0.250000 102 88 81 255
43.994213 -24.705559 1.518296 0.860312 0.205344 -0.466581 0.500827 1.000000 77 70 66 255
42.470104 -16.947845 2.122245 0.860312 0.205344 -0.466581 0.500827 1.000000 77 70 66 255
47.351799 -18.398914 10.484808 0.860312 0.205344 -0.466581 0.500827 1.000000 77 70 66 255
47.351799 -18.398914 10.484808 0.241089 0.100444 -0.965291 0.500827 1.000000 77 70 66 255
43.187241 -24.441545 -6.892926 0.976176 0.198589 -0.087421 0.500827 1.000000 77 70 66 255
42.926643 -30.756044 -7.126290 0.994617 -0.037477 -0.096600 0.375000 1.000000 57 58 56 255
52.289711 -31.020058 1.214284 0.000259 0.999509 0.031348 0.125000 0.500000 87 116 94 255
52.974739 -26.586058 3.055073 -0.988834 0.111926 0.098382 0.463687 0.250000 102 88 81 255
55.458763 -18.828342 3.659021 -0.949798 0.296308 0.100424 0.463687 0.250000 102 88 81 255
54.651791 -18.564331 -4.752201 -0.952630 0.302923 0.027095 0.463687 0.250000 102 88 81 255
52.167767 -26.322044 -5.356149 -0.989624 0.140601 0.029604 0.463687 0.250000 102 88 81 255
43.187241 -24.441545 -6.892926 0.961035 0.199225 0.191627 0.500827 1.000000 77 70 66 255
44.927608 -24.513987 -15.545781 0.961035 0.199225 0.191627 0.500827 1.000000 77 70 66 255
43.198986 -16.756271 -14.941833 0.961035 0.199225 0.191627 0.500827 1.000000 77 70 66 255
42.926643 -30.756044 -7.126290 0.835480 0.327436 0.441314 0.375000 1.000000 57 58 56 255
47.525616 -30.828485 -15.779145 0.835480 0.327436 0.441314 0.375000 1.000000 57 58 56 255
44.927608 -24.513987 -15.545781 0.835480 0.327436 0.441314 0.500827 1.000000 77 70 66 255
51.482738 -30.756044 -7.196938 -0.000160 0.999965 -0.008367 0.125000 0.500000 82 255 100 255
51.213600 -30.828485 -15.849792 -0.000160 0.999965 -0.008367 0.125000 0.500000 82 255 100 255
47.525616 -30.828485 -15.779145 -0.000160 0.999965 -0.008367 0.125000 0.750000 82 255 100 255
54.382652 -18.636772 -13.405056 -0.952630 0.302940 0.026883 0.463687 0.250000 102 88 81 255
51.898628 -26.394485 -14.009005 -0.989410 0.143317 0.022982 0.463687 0.250000 102 88 81 255
44.927608 -24.513987 -15.545781 0.928529 0.322979 0.183079 0.500827 1.000000 77 70 66 255
47.114983 -24.296682 -27.022903 0.928529 0.322979 0.183079 0.500827 1.000000 77 70 66 255
43.538242 -16.538967 -22.568405 0.928529 0.322979 0.183079 0.500827 1.000000 77 70 66 255
44.927608 -24.513987 -15.545781 0.922711 0.376592 0.082363 0.500827 1.000000 77 70 66 255
47.525616 -30.828485 -15.779145 0.922711 0.376592 0.082363 0.375000 1.000000 57 58 56 255
48.339939 -30.611181 -25.895603 0.922711 0.376592 0.082363 0.375000 1.000000 57 58 56 255
47.525616 -30.828485 -15.779145 0.000552 0.999585 0.028806 0.125000 0.750000 82 255 100 255
51.213600 -30.828485 -15.849792 0.000552 0.999585 0.028806 0.125000 0.500000 82 255 100 255
51.069988 -30.611181 -23.387617 0.000552 0.999585 0.028806 0.125000 0.500000 82 255 100 255
44.297813 -30.075235 -2.344363 0.968775 -0.000000 0.247940 0.666667 1.000000 138 44 0 255
44.029964 -30.075235 -2.606256 -0.699112 0.000000 0.715012 0.333333 1.000000 138 44 0 255
44.029964 -30.075235 -2.606256 -0.075727 -0.959760 -0.270418 0.333333 1.000000 0 97 12 255
44.390694 -30.075235 -2.707273 -0.269662 0.000000 -0.962955 -0.000000 1.000000 138 44 0 255
44.297813 -30.075235 -2.344363 -0.196326 -0.959760 0.200790 0.666667 1.000000 0 97 12 255
44.419407 -30.009270 -1.910164 -0.196326 -0.959760 0.200790 0.666667 1.000000 19 98 22 255
43.593143 -30.009270 -2.718054 -0.196326 -0.959760 0.200790 0.333333 1.000000 1 97 12 255
44.297813 -30.075235 -2.344363 0.272047 -0.959762 0.069625 0.666667 1.000000 0 97 12 255
44.390694 -30.075235 -2.707273 0.272047 -0.959762 0.069625 1.000000 1.000000 0 97 12 255
44.705929 -30.009270 -3.029674 0.272047 -0.959762 0.069625 1.000000 1.000000 0 97 12 255
49.975853 -29.660004 -15.584121 0.458988 -0.000000 0.888442 0.666667 1.000000 138 44 0 255
49.999222 -29.660004 -16.083750 -0.998908 0.000000 -0.046721 0.333333 1.000000 138 44 0 255
49.999222 -29.660004 -16.083750 0.151618 -0.959761 -0.236370 0.333333 1.000000 0 97 12 255
49.722885 -29.571926 -16.618635 0.151618 -0.959761 -0.236370 0.333333 1.000000 1 97 12 255
51.021622 -29.571926 -15.785571 0.151618 -0.959761 -0.236370 -0.000000 1.000000 0 97 12 255
50.420235 -29.660004 -15.813698 0.539910 0.000000 -0.841723 -0.000000 1.000000 138 44 0 255
49.975853 -29.660004 -15.584121 -0.280515 -0.959760 -0.013119 0.666667 1.000000 0 97 12 255
49.650803 -29.571926 -15.077362 -0.280515 -0.959760 -0.013119 0.666667 1.000000 19 98 22 255
49.722885 -29.571926 -16.618635 -0.280515 -0.959760 -0.013119 0.333333 1.000000 1 97 12 255
49.975853 -29.660004 -15.584121 0.128895 -0.959759 0.249496 0.666667 1.000000 0 97 12 255
50.420235 -29.660004 -15.813698 0.128895 -0.959759 0.249496 1.000000 1.000000 0 97 12 255
51.021622 -29.571926 -15.785571 0.128895 -0.959759 0.249496 1.000000 1.000000 0 97 12 255
54.239040 -18.419468 -20.942881 -0.986290 0.163833 -0.019783 0.463687 0.250000 102 88 81 255
54.322716 -18.419468 -25.114538 -0.986290 0.163833 -0.019783 0.463687 0.250000 102 88 81 255
53.017853 -26.177181 -24.305790 -0.986290 0.163833 -0.019783 0.463687 0.250000 102 88 81 255
51.069988 -30.611181 -23.387617 -0.867697 0.298938 -0.397164 0.375000 0.250000 57 58 56 255
51.755016 -26.177181 -21.546829 -0.867697 0.298938 -0.397164 0.463687 0.250000 102 88 81 255
53.017853 -26.177181 -24.305790 -0.867697 0.298938 -0.397164 0.463687 0.250000 102 88 81 255
47.114983 -24.296682 -27.022903 0.462782 0.349796 0.814540 0.500827 1.000000 77 70 66 255
56.125198 -19.807259 -34.070000 0.462782 0.349796 0.814540 0.500827 1.000000 77 70 66 255
47.427799 -16.538967 -30.532099 0.462782 0.349796 0.814540 0.500827 1.000000 77 70 66 255
47.114983 -24.296682 -27.022903 0.489822 0.244422 0.836858 0.500827 1.000000 77 70 66 255
48.339939 -30.611181 -25.895603 0.489822 0.244422 0.836858 0.375000 1.000000 57 58 56 255
56.116013 -30.611181 -30.447023 0.489822 0.244422 0.836858 0.375000 1.000000 57 58 56 255
51.069988 -30.611181 -23.387617 0.000000 1.000000 0.000000 0.125000 0.500000 82 255 100 255
3 0 1 2
3 3 4 5
3 6 7 8
3 9 10 11
3 12 13 14
3 15 16 17
3 18 19 20
3 21 22 23
3 24 25 26
3 27 28 29
3 30 31 32
3 33 34 35
3 36 37 38
3 39 40 41
3 42 43 44
3 45 46 47
3 48 49 50
3 51 52 53
3 54 55 56
3 57 58 59
3 60 61 62
3 63 64 65
3 66 67 68
3 69 70 71
3 72 73 74
3 75 76 77
3 78 79 80
3 81 82 83
3 84 85 86
3 87 88 89
3 90 91 92
3 93 94 95
3 96 97 98
3 99 100 101
3 102 103 104
3 105 106 107
3 108 109 110
3 111 112 113
3 114 115 116
3 117 118 119
3 120 121 122
3 123 124 125
3 126 127 128
3 129 130 131
3 132 133 134
3 135 136 137
3 138 139 140
3 141 142 143
3 144 145 146
3 147 148 149
3 150 151 152
3 153 154 155
3 156 157 158
3 159 160 161
3 162 163 164
3 165 166 167
3 0 168 1
3 3 169 4
3 170 171 172
3 9 173 10
3 18 174 19
3 175 176 177
3 178 179 180
3 181 182 183
3 184 185 186
3 187 188 189
3 190 191 192
3 45 193 46
3 48 194 49
3 51 195 52
3 54 196 55
3 57 197 58
3 60 198 61
3 63 199 64
3 66 200 67
3 201 202 203
3 204 205 206
3 207 208 209
3 78 210 79
3 81 211 82
3 212 213 214
3 215 216 217
3 218 219 220
3 93 221 94
3 96 222 97
3 99 223 100
3 102 224 103
3 225 226 227
3 228 229 230
3 123 231 124
3 126 232 127
3 233 234 235
3 132 236 133
3 237 238 239
3 240 241 242
3 243 244 245
3 246 247 248
3 249 250 251
3 252 253 254
3 165 255 166
