ply
format ascii 1.0
comment Created by Blender 2.92.0 - www.blender.org
element vertex 149
property float x
property float y
property float z
property float nx
property float ny
property float nz
property float s
property float t
property uchar red
property uchar green
property uchar blue
property uchar alpha
element face 53
property list uchar uint vertex_indices
end_header
24.510672 -0.868843 18.730629 0.101202 -0.064099 0.992799 0.625000 1.000000 97 82 75 255
27.049479 -9.670888 17.903536 0.101202 -0.064099 0.992799 0.375000 1.000000 98 83 76 255
29.557768 -1.142644 18.198471 0.101202 -0.064099 0.992799 0.625000 1.000000 97 82 75 255
19.125694 -4.680470 22.069427 -0.057305 0.125664 -0.990416 0.463687 0.250000 102 88 81 255
27.323143 -1.142644 22.044006 -0.057305 0.125664 -0.990416 0.625000 0.250000 110 99 92 255
27.722685 -4.954271 21.537270 -0.057305 0.125664 -0.990416 0.463687 0.250000 102 88 81 255
19.345358 -9.397088 21.790833 -0.159597 0.246376 -0.955943 0.375000 0.250000 97 82 75 255
27.722685 -4.954271 21.537270 -0.159597 0.246376 -0.955943 0.463687 0.250000 102 88 81 255
27.176954 -9.670888 20.412762 -0.159597 0.246376 -0.955943 0.375000 0.250000 97 82 75 255
22.002382 -9.397088 17.903002 0.054169 0.998528 -0.002752 0.125000 0.750000 11 124 28 255
27.176954 -9.670888 20.412762 0.054169 0.998528 -0.002752 0.125000 0.500000 13 138 31 255
27.049479 -9.670888 17.903536 0.054169 0.998528 -0.002752 0.125000 0.750000 11 124 28 255
27.176954 -9.670888 20.412762 0.625725 0.111659 -0.772011 0.375000 0.250000 97 82 75 255
31.682487 -6.706564 24.493301 0.625725 0.111659 -0.772011 0.463687 0.250000 102 88 81 255
31.136757 -11.423182 23.368793 0.625725 0.111659 -0.772011 0.375000 0.250000 97 82 75 255
27.176954 -9.670888 20.412762 0.417785 0.908298 -0.021225 0.125000 0.500000 17 137 33 255
31.009281 -11.423182 20.859568 0.417785 0.908298 -0.021225 0.125000 0.750000 61 87 70 255
27.049479 -9.670888 17.903536 0.417785 0.908298 -0.021225 0.125000 0.750000 11 124 28 255
27.722685 -4.954271 21.537270 0.636170 0.166831 -0.753296 0.463687 0.250000 102 88 81 255
31.282946 -2.894937 25.000038 0.636170 0.166831 -0.753296 0.625000 0.250000 110 99 92 255
31.682487 -6.706564 24.493301 0.636170 0.166831 -0.753296 0.463687 0.250000 102 88 81 255
27.049479 -9.670888 17.903536 -0.553871 0.134486 0.821669 0.375000 1.000000 98 83 76 255
33.517570 -2.894937 21.154503 -0.553871 0.134486 0.821669 0.625000 1.000000 97 82 75 255
29.557768 -1.142644 18.198471 -0.553871 0.134486 0.821669 0.625000 1.000000 97 82 75 255
31.136757 -11.423182 23.368793 0.171432 0.170367 -0.970354 0.375000 0.250000 97 82 75 255
35.181202 -10.217717 24.294970 0.171432 0.170367 -0.970354 0.463687 0.250000 102 88 81 255
33.328388 -14.934335 23.139526 0.171432 0.170367 -0.970354 0.375000 0.250000 73 67 63 255
31.136757 -11.423182 23.368793 0.848102 0.528079 -0.043086 0.125000 0.500000 61 87 70 255
33.200912 -14.934335 20.965391 0.848102 0.528079 -0.043086 0.125000 0.750000 58 76 64 255
31.009281 -11.423182 20.859568 0.848102 0.528079 -0.043086 0.125000 0.750000 61 87 70 255
31.682487 -6.706564 24.493301 0.023739 0.079944 -0.996517 0.463687 0.250000 102 88 81 255
34.781658 -3.782508 24.801706 0.023739 0.079944 -0.996517 0.625000 0.250000 110 99 92 255
35.181202 -10.217717 24.294970 0.023739 0.079944 -0.996517 0.463687 0.250000 102 88 81 255
31.009281 -11.423182 20.859568 -0.025398 0.014273 0.999575 0.375000 1.000000 98 83 76 255
33.200912 -14.934335 20.965391 -0.025398 0.014273 0.999575 0.375000 1.000000 83 73 68 255
35.473469 -10.641859 20.961842 -0.025398 0.014273 0.999575 0.471228 1.000000 88 76 71 255
35.473469 -10.641859 20.961842 -0.184165 0.042234 0.981988 0.471228 1.000000 88 76 71 255
38.590752 -5.736085 21.335472 -0.184165 0.042234 0.981988 0.625000 1.000000 97 82 75 255
37.016285 -3.782508 20.956171 -0.184165 0.042234 0.981988 0.625000 1.000000 97 82 75 255
33.328388 -14.934335 23.139526 0.387612 0.069123 -0.919227 0.375000 0.250000 73 67 63 255
36.755669 -13.743392 24.674271 0.387612 0.069123 -0.919227 0.463687 0.250000 102 88 81 255
34.576286 -16.887911 23.518827 0.387612 0.069123 -0.919227 0.375000 0.250000 57 58 56 255
33.328388 -14.934335 23.139526 0.846043 0.530801 -0.049606 0.125000 0.500000 57 69 61 255
34.448811 -16.887911 21.344692 0.846043 0.530801 -0.049606 0.125000 0.750000 54 58 56 255
33.200912 -14.934335 20.965391 0.846043 0.530801 -0.049606 0.125000 0.750000 58 76 64 255
35.181202 -10.217717 24.294970 0.394414 0.077626 -0.915648 0.463687 0.250000 102 88 81 255
36.356125 -5.736085 25.181007 0.394414 0.077626 -0.915648 0.625000 0.250000 110 99 92 255
36.755669 -13.743392 24.674271 0.394414 0.077626 -0.915648 0.463687 0.250000 102 88 81 255
37.344906 -12.847206 21.340052 -0.854908 0.149457 -0.496784 0.500827 1.000000 77 70 66 255
36.356125 -5.736085 25.181007 -0.854908 0.149457 -0.496784 0.625000 0.250000 110 99 92 255
38.590752 -5.736085 21.335472 -0.854908 0.149457 -0.496784 0.625000 1.000000 97 82 75 255
37.344906 -12.847206 21.340052 -0.140237 0.101643 0.984887 0.500827 1.000000 77 70 66 255
33.200912 -14.934335 20.965391 -0.140237 0.101643 0.984887 0.375000 1.000000 83 73 68 255
34.448811 -16.887911 21.344692 -0.140237 0.101643 0.984887 0.375000 1.000000 57 58 56 255
36.755669 -13.743392 24.674271 -0.846963 -0.376269 -0.375600 0.463687 0.250000 102 88 81 255
38.968559 -15.102704 21.046019 -0.846963 -0.376269 -0.375600 0.500827 1.000000 77 70 66 255
38.379326 -17.104654 24.380238 -0.846963 -0.376269 -0.375600 0.463687 0.250000 102 88 81 255
34.448811 -16.887911 21.344692 0.090975 -0.064063 0.993790 0.375000 1.000000 57 58 56 255
38.968559 -15.102704 21.046019 0.090975 -0.064063 0.993790 0.500827 1.000000 77 70 66 255
37.344906 -12.847206 21.340052 0.090975 -0.064063 0.993790 0.500827 1.000000 77 70 66 255
34.576286 -16.887911 23.518827 0.227250 0.277487 -0.933466 0.375000 0.250000 57 58 56 255
38.379326 -17.104654 24.380238 0.227250 0.277487 -0.933466 0.463687 0.250000 102 88 81 255
36.180359 -19.190704 23.224794 0.227250 0.277487 -0.933466 0.375000 0.250000 57 58 56 255
34.576286 -16.887911 23.518827 0.593604 0.804004 -0.034805 0.125000 0.500000 54 58 56 255
36.052879 -18.084938 21.050659 0.593604 0.804004 -0.034805 0.125000 0.750000 54 58 56 255
34.448811 -16.887911 21.344692 0.593604 0.804004 -0.034805 0.125000 0.750000 54 58 56 255
38.379326 -17.104654 24.380238 0.094795 0.404018 -0.909826 0.463687 0.250000 102 88 81 255
38.301933 -21.012400 22.636900 0.094795 0.404018 -0.909826 0.375000 0.250000 57 58 56 255
36.180359 -19.190704 23.224794 0.094795 0.404018 -0.909826 0.375000 0.250000 57 58 56 255
38.968559 -15.102704 21.046019 0.072267 -0.107573 0.991567 0.500827 1.000000 77 70 66 255
38.174454 -21.012400 20.462767 0.072267 -0.107573 0.991567 0.375000 1.000000 57 58 56 255
42.717617 -18.003115 20.458124 0.072267 -0.107573 0.991567 0.500827 1.000000 77 70 66 255
36.180359 -19.190704 23.224794 0.809608 0.541011 0.227687 0.125000 0.500000 54 58 56 255
38.174454 -21.012400 20.462767 0.809608 0.541011 0.227687 0.125000 0.750000 54 58 56 255
36.052879 -18.084938 21.050659 0.809608 0.541011 0.227687 0.125000 0.750000 54 58 56 255
38.968559 -15.102704 21.046019 -0.433930 -0.736508 -0.518903 0.500827 1.000000 77 70 66 255
42.128384 -18.899300 23.792345 -0.433930 -0.736508 -0.518903 0.463687 0.250000 102 88 81 255
38.379326 -17.104654 24.380238 -0.433930 -0.736508 -0.518903 0.463687 0.250000 102 88 81 255
24.510672 -0.868843 18.730629 -0.005262 -0.095057 0.995458 0.625000 1.000000 97 82 75 255
22.002382 -9.397088 17.903002 -0.005262 -0.095057 0.995458 0.375000 1.000000 98 83 76 255
27.049479 -9.670888 17.903536 -0.005262 -0.095057 0.995458 0.375000 1.000000 98 83 76 255
19.125694 -4.680470 22.069427 -0.057305 0.125664 -0.990417 0.463687 0.250000 102 88 81 255
18.726152 -0.868843 22.576162 -0.057305 0.125664 -0.990417 0.625000 0.250000 110 99 92 255
27.323143 -1.142644 22.044006 -0.057305 0.125664 -0.990417 0.625000 0.250000 110 99 92 255
19.345358 -9.397088 21.790833 -0.059906 0.056078 -0.996628 0.375000 0.250000 97 82 75 255
19.125694 -4.680470 22.069427 -0.059906 0.056078 -0.996628 0.463687 0.250000 102 88 81 255
27.722685 -4.954271 21.537270 -0.059906 0.056078 -0.996628 0.463687 0.250000 102 88 81 255
22.002382 -9.397088 17.903002 0.039694 0.998844 0.027128 0.125000 0.750000 11 124 28 255
19.345358 -9.397088 21.790833 0.039694 0.998844 0.027128 0.125000 0.500000 13 138 31 255
27.176954 -9.670888 20.412762 0.039694 0.998844 0.027128 0.125000 0.500000 13 138 31 255
27.722685 -4.954271 21.537270 0.625725 0.111659 -0.772011 0.463687 0.250000 102 88 81 255
31.136757 -11.423182 23.368793 0.417785 0.908298 -0.021225 0.125000 0.500000 61 87 70 255
27.323143 -1.142644 22.044006 0.636170 0.166831 -0.753296 0.625000 0.250000 110 99 92 255
31.009281 -11.423182 20.859568 -0.553871 0.134486 0.821669 0.375000 1.000000 98 83 76 255
31.136757 -11.423182 23.368793 0.157776 0.211699 -0.964516 0.375000 0.250000 97 82 75 255
31.682487 -6.706564 24.493301 0.157776 0.211699 -0.964516 0.463687 0.250000 102 88 81 255
35.181202 -10.217717 24.294970 0.157776 0.211699 -0.964516 0.463687 0.250000 102 88 81 255
31.136757 -11.423182 23.368793 0.845805 0.531182 -0.049592 0.125000 0.500000 61 87 70 255
33.328388 -14.934335 23.139526 0.845805 0.531182 -0.049592 0.125000 0.500000 57 69 61 255
33.200912 -14.934335 20.965391 0.845805 0.531182 -0.049592 0.125000 0.750000 58 76 64 255
31.682487 -6.706564 24.493301 -0.023384 0.129341 -0.991324 0.463687 0.250000 102 88 81 255
31.282946 -2.894937 25.000038 -0.023384 0.129341 -0.991324 0.625000 0.250000 110 99 92 255
34.781658 -3.782508 24.801706 -0.023384 0.129341 -0.991324 0.625000 0.250000 110 99 92 255
37.016285 -3.782508 20.956171 0.053744 -0.011263 0.998491 0.625000 1.000000 97 82 75 255
33.517570 -2.894937 21.154503 0.053744 -0.011263 0.998491 0.625000 1.000000 97 82 75 255
35.473469 -10.641859 20.961842 0.053744 -0.011263 0.998491 0.471228 1.000000 88 76 71 255
33.517570 -2.894937 21.154503 -0.017761 -0.029339 0.999412 0.625000 1.000000 97 82 75 255
31.009281 -11.423182 20.859568 -0.017761 -0.029339 0.999412 0.375000 1.000000 98 83 76 255
35.473469 -10.641859 20.961842 -0.017761 -0.029339 0.999412 0.471228 1.000000 88 76 71 255
35.473469 -10.641859 20.961842 -0.164535 0.029461 0.985931 0.471228 1.000000 88 76 71 255
37.344906 -12.847206 21.340052 -0.164535 0.029461 0.985931 0.500827 1.000000 77 70 66 255
38.590752 -5.736085 21.335472 -0.164535 0.029461 0.985931 0.625000 1.000000 97 82 75 255
33.328388 -14.934335 23.139526 0.386191 0.073542 -0.919482 0.375000 0.250000 73 67 63 255
35.181202 -10.217717 24.294970 0.386191 0.073542 -0.919482 0.463687 0.250000 102 88 81 255
36.755669 -13.743392 24.674271 0.386191 0.073542 -0.919482 0.463687 0.250000 102 88 81 255
34.576286 -16.887911 23.518827 0.846043 0.530801 -0.049606 0.125000 0.500000 54 58 56 255
35.181202 -10.217717 24.294970 0.342874 0.094881 -0.934578 0.463687 0.250000 102 88 81 255
34.781658 -3.782508 24.801706 0.342874 0.094881 -0.934578 0.625000 0.250000 110 99 92 255
36.356125 -5.736085 25.181007 0.342874 0.094881 -0.934578 0.625000 0.250000 110 99 92 255
37.344906 -12.847206 21.340052 -0.982282 -0.037392 -0.183643 0.500827 1.000000 77 70 66 255
36.755669 -13.743392 24.674271 -0.982282 -0.037392 -0.183643 0.463687 0.250000 102 88 81 255
36.356125 -5.736085 25.181007 -0.982282 -0.037392 -0.183643 0.625000 0.250000 110 99 92 255
37.344906 -12.847206 21.340052 -0.122647 0.065751 0.990270 0.500827 1.000000 77 70 66 255
35.473469 -10.641859 20.961842 -0.122647 0.065751 0.990270 0.471228 1.000000 88 76 71 255
33.200912 -14.934335 20.965391 -0.122647 0.065751 0.990270 0.375000 1.000000 83 73 68 255
36.755669 -13.743392 24.674271 -0.795260 -0.535398 -0.284448 0.463687 0.250000 102 88 81 255
37.344906 -12.847206 21.340052 -0.795260 -0.535398 -0.284448 0.500827 1.000000 77 70 66 255
38.968559 -15.102704 21.046019 -0.795260 -0.535398 -0.284448 0.500827 1.000000 77 70 66 255
34.448811 -16.887911 21.344692 0.105503 -0.101609 0.989214 0.375000 1.000000 57 58 56 255
36.052879 -18.084938 21.050659 0.105503 -0.101609 0.989214 0.375000 1.000000 57 58 56 255
38.968559 -15.102704 21.046019 0.105503 -0.101609 0.989214 0.500827 1.000000 77 70 66 255
34.576286 -16.887911 23.518827 0.227209 0.193248 -0.954480 0.375000 0.250000 57 58 56 255
36.755669 -13.743392 24.674271 0.227209 0.193248 -0.954480 0.463687 0.250000 102 88 81 255
38.379326 -17.104654 24.380238 0.227209 0.193248 -0.954480 0.463687 0.250000 102 88 81 255
34.576286 -16.887911 23.518827 0.812669 0.537279 0.225610 0.125000 0.500000 54 58 56 255
36.180359 -19.190704 23.224794 0.812669 0.537279 0.225610 0.125000 0.500000 54 58 56 255
36.052879 -18.084938 21.050659 0.812669 0.537279 0.225610 0.125000 0.750000 54 58 56 255
38.379326 -17.104654 24.380238 0.051289 0.406035 -0.912417 0.463687 0.250000 102 88 81 255
42.128384 -18.899300 23.792345 0.051289 0.406035 -0.912417 0.463687 0.250000 102 88 81 255
38.301933 -21.012400 22.636900 0.051289 0.406035 -0.912417 0.375000 0.250000 57 58 56 255
38.968559 -15.102704 21.046019 0.117288 -0.113135 0.986633 0.500827 1.000000 77 70 66 255
36.052879 -18.084938 21.050659 0.117288 -0.113135 0.986633 0.375000 1.000000 57 58 56 255
38.174454 -21.012400 20.462767 0.117288 -0.113135 0.986633 0.375000 1.000000 57 58 56 255
36.180359 -19.190704 23.224794 0.644933 0.763303 -0.037815 0.125000 0.500000 54 58 56 255
38.301933 -21.012400 22.636900 0.644933 0.763303 -0.037815 0.125000 0.500000 54 58 56 255
38.174454 -21.012400 20.462767 0.644933 0.763303 -0.037815 0.125000 0.750000 54 58 56 255
38.968559 -15.102704 21.046019 -0.612269 -0.729728 -0.304341 0.500827 1.000000 77 70 66 255
42.717617 -18.003115 20.458124 -0.612269 -0.729728 -0.304341 0.500827 1.000000 77 70 66 255
42.128384 -18.899300 23.792345 -0.612269 -0.729728 -0.304341 0.463687 0.250000 102 88 81 255
3 0 1 2
3 3 4 5
3 6 7 8
3 9 10 11
3 12 13 14
3 15 16 17
3 18 19 20
3 21 22 23
3 24 25 26
3 27 28 29
3 30 31 32
3 33 34 35
3 36 37 38
3 39 40 41
3 42 43 44
3 45 46 47
3 48 49 50
3 51 52 53
3 54 55 56
3 57 58 59
3 60 61 62
3 63 64 65
3 66 67 68
3 69 70 71
3 72 73 74
3 75 76 77
3 78 79 80
3 81 82 83
3 84 85 86
3 87 88 89
3 12 90 13
3 15 91 16
3 18 92 19
3 21 93 22
3 94 95 96
3 97 98 99
3 100 101 102
3 103 104 105
3 106 107 108
3 109 110 111
3 112 113 114
3 42 115 43
3 116 117 118
3 119 120 121
3 122 123 124
3 125 126 127
3 128 129 130
3 131 132 133
3 134 135 136
3 137 138 139
3 140 141 142
3 143 144 145
3 146 147 148
