ply
format ascii 1.0
comment Created by Blender 2.92.0 - www.blender.org
element vertex 210
property float x
property float y
property float z
property float nx
property float ny
property float nz
property float s
property float t
property uchar red
property uchar green
property uchar blue
property uchar alpha
element face 70
property list uchar uint vertex_indices
end_header
56.116013 -30.611181 -30.447023 -0.063654 -0.023681 0.997691 0.375000 1.000000 57 58 56 255
60.402168 -30.271339 -30.165495 -0.063654 -0.023681 0.997691 0.375000 1.000000 57 58 56 255
61.733589 -25.988470 -29.978891 -0.063654 -0.023681 0.997691 0.375000 1.000000 57 58 56 255
56.116013 -30.611181 -30.447023 -0.069968 0.989192 -0.128855 0.125000 0.750000 82 254 99 255
58.939220 -29.709801 -25.060293 -0.069968 0.989192 -0.128855 0.125000 0.500000 82 255 100 255
60.402168 -30.271339 -30.165495 -0.069968 0.989192 -0.128855 0.125000 0.750000 82 254 99 255
54.283802 -18.419468 -25.097067 -0.280787 -0.053052 -0.958303 0.463687 0.250000 102 88 81 255
59.353111 -25.159771 -26.209257 -0.280787 -0.053052 -0.958303 0.463687 0.250000 102 88 81 255
53.086639 -26.218216 -24.314554 -0.280787 -0.053052 -0.958303 0.463687 0.250000 102 88 81 255
53.886223 -30.611181 -26.067524 0.113629 0.385994 -0.915476 0.375000 0.250000 57 58 56 255
53.086639 -26.218216 -24.314554 0.113629 0.385994 -0.915476 0.462657 0.250000 101 88 81 255
58.939220 -29.709801 -25.060293 0.113629 0.385994 -0.915476 0.375000 0.250000 57 58 56 255
60.402168 -30.271339 -30.165495 -0.786644 0.268763 -0.555840 0.125000 0.750000 66 59 56 255
59.353111 -25.159771 -26.209257 -0.786644 0.268763 -0.555840 0.463687 0.250000 66 59 56 255
61.733589 -25.988470 -29.978891 -0.786644 0.268763 -0.555840 0.375000 1.000000 66 59 56 255
53.086639 -26.218216 -24.314554 -0.249027 -0.215764 -0.944156 0.463687 0.250000 102 88 81 255
59.353111 -25.159771 -26.209257 -0.249027 -0.215764 -0.944156 0.463687 0.250000 102 88 81 255
58.939220 -29.709801 -25.060293 -0.249027 -0.215764 -0.944156 0.463687 0.250000 102 88 81 255
53.086639 -26.218216 -24.314554 0.113630 0.386007 -0.915471 0.462657 0.250000 101 88 81 255
53.027550 -26.226683 -24.325459 0.113630 0.386007 -0.915471 0.462697 0.250000 101 88 81 255
53.017853 -26.177181 -24.305790 0.113630 0.386007 -0.915471 0.463687 0.250000 102 88 81 255
61.733589 -25.988470 -29.978891 0.227157 0.973792 -0.011307 0.375000 1.000000 0 255 28 255
68.592033 -27.562969 -27.793697 0.227157 0.973792 -0.011307 0.463687 0.250000 0 255 28 255
68.101875 -27.497169 -31.974092 0.227157 0.973792 -0.011307 0.375000 1.000000 0 118 13 255
59.353111 -25.159771 -26.209257 -0.151343 0.068326 -0.986117 0.463687 0.250000 102 88 81 255
70.244682 -18.419468 -27.413803 -0.151343 0.068326 -0.986117 0.463687 0.250000 102 88 81 255
68.592033 -27.562969 -27.793697 -0.151343 0.068326 -0.986117 0.463687 0.250000 102 88 81 255
61.733589 -25.988470 -29.978891 0.311115 0.179457 0.933275 0.375000 1.000000 57 58 56 255
66.946198 -19.807259 -32.905128 0.311115 0.179457 0.933275 0.500827 1.000000 77 70 66 255
61.742775 -19.807259 -31.170523 0.311115 0.179457 0.933275 0.500827 1.000000 77 70 66 255
68.592033 -27.562969 -27.793697 0.889152 0.447166 -0.097216 0.463687 0.250000 0 255 28 255
70.104950 -31.315022 -31.214699 0.889152 0.447166 -0.097216 0.375000 1.000000 0 117 13 255
68.101875 -27.497169 -31.974092 0.889152 0.447166 -0.097216 0.375000 1.000000 0 118 13 255
68.592033 -27.562969 -27.793697 -0.514701 -0.140042 -0.845855 0.463687 0.250000 102 88 81 255
74.445312 -27.340765 -31.392197 -0.514701 -0.140042 -0.845855 0.463687 0.250000 102 88 81 255
73.292145 -31.717663 -29.965845 -0.514701 -0.140042 -0.845855 0.463687 0.250000 102 88 81 255
68.101875 -27.497169 -31.974092 0.988335 0.150963 0.020081 0.375000 1.000000 57 58 56 255
68.379745 -28.728558 -36.393002 0.988335 0.150963 0.020081 0.500827 1.000000 77 70 66 255
66.946198 -19.807259 -32.905128 0.988335 0.150963 0.020081 0.500827 1.000000 77 70 66 255
73.292145 -31.717663 -29.965845 0.125425 0.992103 -0.000235 0.463687 0.250000 0 117 13 255
73.199730 -31.708023 -38.605438 0.125425 0.992103 -0.000235 0.375000 1.000000 0 117 13 255
70.104950 -31.315022 -31.214699 0.125425 0.992103 -0.000235 0.375000 1.000000 0 117 13 255
74.445312 -27.340765 -31.392197 -0.930314 0.133826 -0.341477 0.463687 0.250000 102 88 81 255
76.224442 -31.752501 -37.968189 -0.930314 0.133826 -0.341477 0.463687 0.250000 102 88 81 255
73.292145 -31.717663 -29.965845 -0.930314 0.133826 -0.341477 0.463687 0.250000 102 88 81 255
68.379745 -28.728558 -36.393002 0.547808 0.308865 0.777502 0.500827 1.000000 77 70 66 255
73.199730 -31.708023 -38.605438 0.547808 0.308865 0.777502 0.375000 1.000000 57 58 56 255
72.621994 -28.093914 -39.634094 0.547808 0.308865 0.777502 0.500827 1.000000 77 70 66 255
72.479362 -27.285204 -35.079597 -0.880618 -0.071311 0.468430 0.482257 0.625000 90 79 74 255
74.445312 -27.340765 -31.392197 -0.880618 -0.071311 0.468430 0.463687 0.250000 102 88 81 255
73.650406 -15.797440 -31.129288 -0.880618 -0.071311 0.468430 0.463687 0.250000 102 88 81 255
74.195847 -26.165400 -38.569862 -0.088832 -0.934893 -0.343634 0.482257 0.625000 90 79 74 255
75.769699 -26.706120 -37.505630 -0.088832 -0.934893 -0.343634 0.463687 0.250000 102 88 81 255
72.479362 -27.285204 -35.079597 -0.088832 -0.934893 -0.343634 0.482257 0.625000 90 79 74 255
66.946198 -19.807259 -32.905128 0.615980 0.213821 0.758188 0.500827 1.000000 77 70 66 255
68.509804 -17.185232 -34.914913 0.615980 0.213821 0.758188 0.500827 1.000000 77 70 66 255
66.030533 -13.789224 -33.858387 0.615980 0.213821 0.758188 0.500827 1.000000 77 70 66 255
66.946198 -19.807259 -32.905128 0.310204 0.194596 0.930541 0.500827 1.000000 77 70 66 255
66.030533 -13.789224 -33.858387 0.310204 0.194596 0.930541 0.500827 1.000000 77 70 66 255
61.742775 -19.807259 -31.170523 0.310204 0.194596 0.930541 0.500827 1.000000 77 70 66 255
74.445312 -27.340765 -31.392197 -0.724590 -0.034220 -0.688330 0.463687 0.250000 102 88 81 255
70.244682 -18.419468 -27.413803 -0.724590 -0.034220 -0.688330 0.463687 0.250000 102 88 81 255
73.650406 -15.797440 -31.129288 -0.724590 -0.034220 -0.688330 0.463687 0.250000 102 88 81 255
72.621994 -28.093914 -39.634094 0.985801 0.163040 -0.040173 0.500827 1.000000 77 70 66 255
73.031204 -31.975681 -45.346531 0.985801 0.163040 -0.040173 0.375000 1.000000 57 58 56 255
72.453468 -28.735935 -46.375187 0.985801 0.163040 -0.040173 0.500827 1.000000 77 70 66 255
72.621994 -28.093914 -39.634094 0.356496 -0.930888 0.079745 0.500827 1.000000 77 70 66 255
72.453468 -28.735935 -46.375187 0.356496 -0.930888 0.079745 0.500827 1.000000 77 70 66 255
75.601181 -27.348141 -44.246723 0.356496 -0.930888 0.079745 0.463687 0.250000 102 88 81 255
76.224442 -31.752501 -37.968189 -0.995023 -0.094104 0.032761 0.463687 0.250000 102 88 81 255
75.601181 -27.348141 -44.246723 -0.995023 -0.094104 0.032761 0.463687 0.250000 102 88 81 255
76.055908 -32.317307 -44.709282 -0.995023 -0.094104 0.032761 0.463687 0.250000 102 88 81 255
73.199730 -31.708023 -38.605438 0.120947 0.991753 -0.042402 0.375000 1.000000 0 117 13 255
76.055908 -32.317307 -44.709282 0.120947 0.991753 -0.042402 0.463687 0.250000 3 255 28 255
73.031204 -31.975681 -45.346531 0.120947 0.991753 -0.042402 0.375000 1.000000 0 255 28 255
75.601181 -27.348141 -44.246723 0.253521 -0.067018 -0.965006 0.463687 0.250000 102 88 81 255
69.048759 -15.923110 -46.761585 0.253521 -0.067018 -0.965006 0.500827 1.000000 77 70 66 255
77.102020 -16.106762 -44.633121 0.253521 -0.067018 -0.965006 0.463687 0.250000 102 88 81 255
73.031204 -31.975681 -45.346531 0.058611 0.998281 0.000825 0.375000 1.000000 0 255 28 255
76.931915 -32.200279 -50.692001 0.058611 0.998281 0.000825 0.463687 0.250000 0 255 28 255
73.115463 -31.975681 -51.329250 0.058611 0.998281 0.000825 0.375000 1.000000 0 255 28 255
77.102020 -16.106762 -44.633121 -0.963412 0.120394 -0.239461 0.463687 0.250000 102 88 81 255
77.469894 -24.293903 -50.229443 -0.963412 0.120394 -0.239461 0.463687 0.250000 102 88 81 255
75.601181 -27.348141 -44.246723 -0.963412 0.120394 -0.239461 0.463687 0.250000 102 88 81 255
72.453468 -28.735935 -46.375187 0.972307 0.232650 -0.022217 0.500827 1.000000 77 70 66 255
73.115463 -31.975681 -51.329250 0.972307 0.232650 -0.022217 0.375000 1.000000 57 58 56 255
70.433823 -20.866608 -52.357906 0.972307 0.232650 -0.022217 0.500827 1.000000 77 70 66 255
75.601181 -27.348141 -44.246723 -0.986321 -0.076675 -0.145920 0.463687 0.250000 102 88 81 255
76.931915 -32.200279 -50.692001 -0.986321 -0.076675 -0.145920 0.463687 0.250000 102 88 81 255
76.055908 -32.317307 -44.709282 -0.986321 -0.076675 -0.145920 0.463687 0.250000 102 88 81 255
69.048759 -15.923110 -46.761585 0.966728 0.255444 0.013615 0.500827 1.000000 77 70 66 255
70.433823 -20.866608 -52.357906 0.966728 0.255444 0.013615 0.500827 1.000000 77 70 66 255
69.133018 -15.923110 -52.744305 0.966728 0.255444 0.013615 0.500827 1.000000 77 70 66 255
76.931915 -32.200279 -50.692001 -0.480011 0.066495 -0.874739 0.463687 0.250000 102 88 81 255
78.238632 -26.669346 -50.988617 -0.480011 0.066495 -0.874739 0.463687 0.250000 102 88 81 255
78.592781 -32.200279 -51.603397 -0.480011 0.066495 -0.874739 0.463687 0.250000 102 88 81 255
76.931915 -32.200279 -50.692001 0.048192 0.996867 0.062727 0.463687 0.250000 0 255 28 255
78.507370 -31.975681 -55.471741 0.048192 0.996867 0.062727 0.375000 1.000000 0 255 28 255
73.115463 -31.975681 -51.329250 0.048192 0.996867 0.062727 0.375000 1.000000 0 255 28 255
73.115463 -31.975681 -51.329250 0.481957 0.195429 0.854123 0.375000 1.000000 57 58 56 255
79.018066 -25.511812 -56.138893 0.481957 0.195429 0.854123 0.500827 1.000000 77 70 66 255
70.433823 -20.866608 -52.357906 0.481957 0.195429 0.854123 0.500827 1.000000 77 70 66 255
61.742775 -19.807259 -31.170523 -0.452016 0.169503 0.875757 0.500827 1.000000 77 70 66 255
56.125198 -19.807259 -34.070000 -0.452016 0.169503 0.875757 0.500827 1.000000 77 70 66 255
61.733589 -25.988470 -29.978891 -0.452016 0.169503 0.875757 0.375000 1.000000 57 58 56 255
56.125198 -19.807259 -34.070000 -0.322623 0.301184 0.897331 0.500827 1.000000 77 70 66 255
56.116013 -30.611181 -30.447023 -0.322623 0.301184 0.897331 0.375000 1.000000 57 58 56 255
61.733589 -25.988470 -29.978891 -0.322623 0.301184 0.897331 0.375000 1.000000 57 58 56 255
56.116013 -30.611181 -30.447023 -0.159339 0.983885 -0.081126 0.125000 0.750000 82 254 99 255
53.886223 -30.611181 -26.067524 -0.159339 0.983885 -0.081126 0.125000 0.500000 82 255 100 255
58.939220 -29.709801 -25.060293 -0.159339 0.983885 -0.081126 0.125000 0.500000 82 255 100 255
53.086639 -26.218216 -24.314554 -0.168640 -0.072744 -0.982990 0.463687 0.250000 102 88 81 255
53.017853 -26.177181 -24.305790 -0.168640 -0.072744 -0.982990 0.463687 0.250000 102 88 81 255
54.283802 -18.419468 -25.097067 -0.168640 -0.072744 -0.982990 0.463687 0.250000 102 88 81 255
54.283802 -18.419468 -25.097067 0.080987 0.221270 -0.971844 0.463687 0.250000 102 88 81 255
59.901379 -18.419468 -24.628935 0.080987 0.221270 -0.971844 0.463687 0.250000 102 88 81 255
59.353111 -25.159771 -26.209257 0.080987 0.221270 -0.971844 0.463687 0.250000 102 88 81 255
53.886223 -30.611181 -26.067524 0.113633 0.385994 -0.915476 0.375000 0.250000 57 58 56 255
53.027550 -26.226683 -24.325459 0.113633 0.385994 -0.915476 0.462697 0.250000 101 88 81 255
53.086639 -26.218216 -24.314554 0.113633 0.385994 -0.915476 0.462657 0.250000 101 88 81 255
60.402168 -30.271339 -30.165495 -0.960655 0.017388 -0.277198 0.125000 0.750000 66 59 56 255
58.939220 -29.709801 -25.060293 -0.960655 0.017388 -0.277198 0.125000 0.500000 66 59 56 255
59.353111 -25.159771 -26.209257 -0.960655 0.017388 -0.277198 0.463687 0.250000 66 59 56 255
61.733589 -25.988470 -29.978891 0.241572 0.968504 -0.060361 0.375000 1.000000 0 255 28 255
59.353111 -25.159771 -26.209257 0.241572 0.968504 -0.060361 0.463687 0.250000 1 255 28 255
68.592033 -27.562969 -27.793697 0.241572 0.968504 -0.060361 0.463687 0.250000 0 255 28 255
59.353111 -25.159771 -26.209257 -0.252368 0.240291 -0.937321 0.463687 0.250000 102 88 81 255
59.901379 -18.419468 -24.628935 -0.252368 0.240291 -0.937321 0.463687 0.250000 102 88 81 255
70.244682 -18.419468 -27.413803 -0.252368 0.240291 -0.937321 0.463687 0.250000 102 88 81 255
61.733589 -25.988470 -29.978891 0.329796 0.162163 0.930020 0.375000 1.000000 57 58 56 255
68.101875 -27.497169 -31.974092 0.329796 0.162163 0.930020 0.375000 1.000000 57 58 56 255
66.946198 -19.807259 -32.905128 0.329796 0.162163 0.930020 0.500827 1.000000 77 70 66 255
68.592033 -27.562969 -27.793697 0.334160 0.705048 -0.625495 0.463687 0.250000 0 255 28 255
73.292145 -31.717663 -29.965845 0.334160 0.705048 -0.625495 0.463687 0.250000 0 117 13 255
70.104950 -31.315022 -31.214699 0.334160 0.705048 -0.625495 0.375000 1.000000 0 117 13 255
68.592033 -27.562969 -27.793697 -0.522878 0.129513 -0.842511 0.463687 0.250000 102 88 81 255
70.244682 -18.419468 -27.413803 -0.522878 0.129513 -0.842511 0.463687 0.250000 102 88 81 255
74.445312 -27.340765 -31.392197 -0.522878 0.129513 -0.842511 0.463687 0.250000 102 88 81 255
68.101875 -27.497169 -31.974092 0.889014 0.452470 -0.070184 0.375000 1.000000 57 58 56 255
70.104950 -31.315022 -31.214699 0.889014 0.452470 -0.070184 0.375000 1.000000 57 58 56 255
68.379745 -28.728558 -36.393002 0.889014 0.452470 -0.070184 0.500827 1.000000 77 70 66 255
73.292145 -31.717663 -29.965845 0.014501 0.999894 0.000961 0.463687 0.250000 0 117 13 255
76.224442 -31.752501 -37.968189 0.014501 0.999894 0.000961 0.463687 0.250000 0 117 13 255
73.199730 -31.708023 -38.605438 0.014501 0.999894 0.000961 0.375000 1.000000 0 117 13 255
74.445312 -27.340765 -31.392197 -0.973605 -0.067756 -0.217951 0.463687 0.250000 102 88 81 255
75.769699 -26.706120 -37.505630 -0.973605 -0.067756 -0.217951 0.463687 0.250000 102 88 81 255
76.224442 -31.752501 -37.968189 -0.973605 -0.067756 -0.217951 0.463687 0.250000 102 88 81 255
68.379745 -28.728558 -36.393002 0.580162 0.789320 0.200964 0.500827 1.000000 77 70 66 255
70.104950 -31.315022 -31.214699 0.580162 0.789320 0.200964 0.375000 1.000000 57 58 56 255
73.199730 -31.708023 -38.605438 0.580162 0.789320 0.200964 0.375000 1.000000 57 58 56 255
73.650406 -15.797440 -31.129288 -0.537783 -0.224613 0.812612 0.463687 0.250000 102 88 81 255
68.509804 -17.185232 -34.914913 -0.537783 -0.224613 0.812612 0.500827 1.000000 77 70 66 255
72.479362 -27.285204 -35.079597 -0.537783 -0.224613 0.812612 0.482257 0.625000 90 79 74 255
68.509804 -17.185232 -34.914913 -0.264489 -0.119555 0.956950 0.500827 1.000000 77 70 66 255
68.379745 -28.728558 -36.393002 -0.264489 -0.119555 0.956950 0.500827 1.000000 77 70 66 255
72.479362 -27.285204 -35.079597 -0.264489 -0.119555 0.956950 0.482257 0.625000 90 79 74 255
75.769699 -26.706120 -37.505630 0.117185 -0.990090 -0.077396 0.463687 0.250000 102 88 81 255
74.445312 -27.340765 -31.392197 0.117185 -0.990090 -0.077396 0.463687 0.250000 102 88 81 255
72.479362 -27.285204 -35.079597 0.117185 -0.990090 -0.077396 0.482257 0.625000 90 79 74 255
72.479362 -27.285204 -35.079597 0.276118 -0.944796 0.176408 0.482257 0.625000 90 79 74 255
68.379745 -28.728558 -36.393002 0.276118 -0.944796 0.176408 0.500827 1.000000 77 70 66 255
72.621994 -28.093914 -39.634094 0.276118 -0.944796 0.176408 0.500827 1.000000 77 70 66 255
72.621994 -28.093914 -39.634094 0.727052 -0.671729 0.142043 0.500827 1.000000 77 70 66 255
74.195847 -26.165400 -38.569862 0.727052 -0.671729 0.142043 0.482257 0.625000 90 79 74 255
72.479362 -27.285204 -35.079597 0.727052 -0.671729 0.142043 0.482257 0.625000 90 79 74 255
66.946198 -19.807259 -32.905128 0.834263 -0.079267 0.545640 0.500827 1.000000 77 70 66 255
68.379745 -28.728558 -36.393002 0.834263 -0.079267 0.545640 0.500827 1.000000 77 70 66 255
68.509804 -17.185232 -34.914913 0.834263 -0.079267 0.545640 0.500827 1.000000 77 70 66 255
72.621994 -28.093914 -39.634094 0.988322 0.149270 -0.030635 0.500827 1.000000 77 70 66 255
73.199730 -31.708023 -38.605438 0.988322 0.149270 -0.030635 0.375000 1.000000 57 58 56 255
73.031204 -31.975681 -45.346531 0.988322 0.149270 -0.030635 0.375000 1.000000 57 58 56 255
75.601181 -27.348141 -44.246723 -0.381477 -0.919266 0.097087 0.463687 0.250000 102 88 81 255
75.769699 -26.706120 -37.505630 -0.381477 -0.919266 0.097087 0.463687 0.250000 102 88 81 255
74.195847 -26.165400 -38.569862 -0.381477 -0.919266 0.097087 0.482257 0.625000 90 79 74 255
74.195847 -26.165400 -38.569862 0.648011 -0.697565 0.305752 0.482257 0.625000 90 79 74 255
72.621994 -28.093914 -39.634094 0.648011 -0.697565 0.305752 0.500827 1.000000 77 70 66 255
75.601181 -27.348141 -44.246723 0.648011 -0.697565 0.305752 0.463687 0.250000 102 88 81 255
76.224442 -31.752501 -37.968189 -0.995117 -0.092763 0.033711 0.463687 0.250000 102 88 81 255
75.769699 -26.706120 -37.505630 -0.995117 -0.092763 0.033711 0.463687 0.250000 102 88 81 255
75.601181 -27.348141 -44.246723 -0.995117 -0.092763 0.033711 0.463687 0.250000 102 88 81 255
73.199730 -31.708023 -38.605438 0.032395 0.995918 -0.084253 0.375000 1.000000 0 117 13 255
76.224442 -31.752501 -37.968189 0.032395 0.995918 -0.084253 0.463687 0.250000 0 117 13 255
76.055908 -32.317307 -44.709282 0.032395 0.995918 -0.084253 0.463687 0.250000 3 255 28 255
75.601181 -27.348141 -44.246723 0.521833 0.113167 -0.845508 0.463687 0.250000 102 88 81 255
72.453468 -28.735935 -46.375187 0.521833 0.113167 -0.845508 0.500827 1.000000 77 70 66 255
69.048759 -15.923110 -46.761585 0.521833 0.113167 -0.845508 0.500827 1.000000 77 70 66 255
73.031204 -31.975681 -45.346531 0.104920 0.993871 0.034804 0.375000 1.000000 0 255 28 255
76.055908 -32.317307 -44.709282 0.104920 0.993871 0.034804 0.463687 0.250000 3 255 28 255
76.931915 -32.200279 -50.692001 0.104920 0.993871 0.034804 0.463687 0.250000 0 255 28 255
77.102020 -16.106762 -44.633121 -0.999278 -0.035281 -0.014074 0.463687 0.250000 102 88 81 255
77.186279 -16.106762 -50.615841 -0.999278 -0.035281 -0.014074 0.463687 0.250000 102 88 81 255
77.469894 -24.293903 -50.229443 -0.999278 -0.035281 -0.014074 0.463687 0.250000 102 88 81 255
72.453468 -28.735935 -46.375187 0.983605 0.179802 0.013853 0.500827 1.000000 77 70 66 255
73.031204 -31.975681 -45.346531 0.983605 0.179802 0.013853 0.375000 1.000000 57 58 56 255
73.115463 -31.975681 -51.329250 0.983605 0.179802 0.013853 0.375000 1.000000 57 58 56 255
75.601181 -27.348141 -44.246723 -0.962389 0.080662 -0.259425 0.463687 0.250000 102 88 81 255
77.469894 -24.293903 -50.229443 -0.962389 0.080662 -0.259425 0.463687 0.250000 102 88 81 255
76.931915 -32.200279 -50.692001 -0.962389 0.080662 -0.259425 0.463687 0.250000 102 88 81 255
69.048759 -15.923110 -46.761585 0.966301 0.257134 0.012016 0.500827 1.000000 77 70 66 255
72.453468 -28.735935 -46.375187 0.966301 0.257134 0.012016 0.500827 1.000000 77 70 66 255
70.433823 -20.866608 -52.357906 0.966301 0.257134 0.012016 0.500827 1.000000 77 70 66 255
76.931915 -32.200279 -50.692001 -0.552611 0.086101 -0.828980 0.463687 0.250000 102 88 81 255
77.469894 -24.293903 -50.229443 -0.552611 0.086101 -0.828980 0.463687 0.250000 102 88 81 255
78.238632 -26.669346 -50.988617 -0.552611 0.086101 -0.828980 0.463687 0.250000 102 88 81 255
76.931915 -32.200279 -50.692001 0.031412 0.997866 0.057243 0.463687 0.250000 0 255 28 255
78.592781 -32.200279 -51.603397 0.031412 0.997866 0.057243 0.463687 0.250000 0 255 28 255
78.507370 -31.975681 -55.471741 0.031412 0.997866 0.057243 0.375000 1.000000 0 255 28 255
73.115463 -31.975681 -51.329250 0.608891 0.033693 0.792538 0.375000 1.000000 57 58 56 255
78.507370 -31.975681 -55.471741 0.608891 0.033693 0.792538 0.375000 1.000000 57 58 56 255
79.018066 -25.511812 -56.138893 0.608891 0.033693 0.792538 0.500827 1.000000 77 70 66 255
3 0 1 2
3 3 4 5
3 6 7 8
3 9 10 11
3 12 13 14
3 15 16 17
3 18 19 20
3 21 22 23
3 24 25 26
3 27 28 29
3 30 31 32
3 33 34 35
3 36 37 38
3 39 40 41
3 42 43 44
3 45 46 47
3 48 49 50
3 51 52 53
3 54 55 56
3 57 58 59
3 60 61 62
3 63 64 65
3 66 67 68
3 69 70 71
3 72 73 74
3 75 76 77
3 78 79 80
3 81 82 83
3 84 85 86
3 87 88 89
3 90 91 92
3 93 94 95
3 96 97 98
3 99 100 101
3 102 103 104
3 105 106 107
3 108 109 110
3 111 112 113
3 114 115 116
3 117 118 119
3 120 121 122
3 123 124 125
3 126 127 128
3 129 130 131
3 132 133 134
3 135 136 137
3 138 139 140
3 141 142 143
3 144 145 146
3 147 148 149
3 150 151 152
3 153 154 155
3 156 157 158
3 159 160 161
3 162 163 164
3 165 166 167
3 168 169 170
3 171 172 173
3 174 175 176
3 177 178 179
3 180 181 182
3 183 184 185
3 186 187 188
3 189 190 191
3 192 193 194
3 195 196 197
3 198 199 200
3 201 202 203
3 204 205 206
3 207 208 209
