ply
format ascii 1.0
comment Created by Blender 2.92.0 - www.blender.org
element vertex 130
property float x
property float y
property float z
property float nx
property float ny
property float nz
property float s
property float t
property uchar red
property uchar green
property uchar blue
property uchar alpha
element face 48
property list uchar uint vertex_indices
end_header
38.301933 -21.012400 22.636900 0.058211 0.998298 -0.003413 0.125000 0.500000 54 58 56 255
44.143311 -21.361574 20.132317 0.058211 0.998298 -0.003413 0.125000 0.750000 54 58 56 255
38.174454 -21.012400 20.462767 0.058211 0.998298 -0.003413 0.125000 0.750000 54 58 56 255
42.717617 -18.003115 20.458124 -0.138065 -0.950089 -0.279768 0.500827 1.000000 77 70 66 255
45.200825 -19.248474 23.461895 -0.138065 -0.950089 -0.279768 0.463687 0.250000 102 88 81 255
42.128384 -18.899300 23.792345 -0.138065 -0.950089 -0.279768 0.463687 0.250000 102 88 81 255
42.128384 -18.899300 23.792345 -0.018240 0.504908 -0.862981 0.463687 0.250000 102 88 81 255
44.270790 -21.361574 22.306450 -0.018240 0.504908 -0.862981 0.375000 0.250000 57 58 56 255
38.301933 -21.012400 22.636900 -0.018240 0.504908 -0.862981 0.375000 0.250000 57 58 56 255
42.717617 -18.003115 20.458124 0.100758 -0.053604 0.993466 0.500827 1.000000 77 70 66 255
44.143311 -21.361574 20.132317 0.100758 -0.053604 0.993466 0.375000 1.000000 57 58 56 255
45.790058 -18.352289 20.127674 0.100758 -0.053604 0.993466 0.500827 1.000000 89 83 79 255
44.143311 -21.361574 20.132317 0.656395 0.753435 -0.038488 0.125000 0.750000 54 58 56 255
46.462208 -23.327538 21.194706 0.656395 0.753435 -0.038488 0.125000 0.500000 54 58 56 255
46.334728 -23.327538 19.020573 0.656395 0.753435 -0.038488 0.125000 0.750000 110 112 111 255
45.790058 -18.352289 20.127674 -0.716689 -0.631300 -0.296339 0.500827 1.000000 89 83 79 255
47.392242 -21.214437 22.350151 -0.716689 -0.631300 -0.296339 0.463687 0.250000 142 131 127 255
45.200825 -19.248474 23.461895 -0.716689 -0.631300 -0.296339 0.463687 0.250000 102 88 81 255
44.270790 -21.361574 22.306450 -0.010526 0.483298 -0.875392 0.375000 0.250000 57 58 56 255
47.392242 -21.214437 22.350151 -0.010526 0.483298 -0.875392 0.463687 0.250000 142 131 127 255
46.462208 -23.327538 21.194706 -0.010526 0.483298 -0.875392 0.375000 0.250000 57 58 56 255
44.143311 -21.361574 20.132317 0.318072 -0.172618 0.932219 0.375000 1.000000 57 58 56 255
47.981476 -20.318253 19.015930 0.318072 -0.172618 0.932219 0.500827 1.000000 113 107 104 255
45.790058 -18.352289 20.127674 0.318072 -0.172618 0.932219 0.500827 1.000000 89 83 79 255
47.981476 -20.318253 19.015930 -0.495676 -0.812792 -0.306063 0.500827 1.000000 113 107 104 255
51.721806 -22.912380 19.847441 -0.495676 -0.812792 -0.306063 0.463687 0.250000 133 121 116 255
47.392242 -21.214437 22.350151 -0.495676 -0.812792 -0.306063 0.463687 0.250000 142 131 127 255
47.392242 -21.214437 22.350151 -0.131351 0.519487 -0.844322 0.463687 0.250000 142 131 127 255
49.259361 -25.025480 19.714859 -0.131351 0.519487 -0.844322 0.375000 0.250000 97 97 96 255
46.462208 -23.327538 21.194706 -0.131351 0.519487 -0.844322 0.375000 0.250000 57 58 56 255
46.334728 -23.327538 19.020573 0.692685 -0.378105 0.614186 0.375000 1.000000 112 112 111 255
48.745605 -22.016195 17.108849 0.692685 -0.378105 0.614186 0.500827 1.000000 136 131 128 255
47.981476 -20.318253 19.015930 0.692685 -0.378105 0.614186 0.500827 1.000000 113 107 104 255
46.334728 -23.327538 19.020573 0.505591 0.629686 -0.589808 0.125000 0.750000 110 112 111 255
49.259361 -25.025480 19.714859 0.505591 0.629686 -0.589808 0.125000 0.500000 94 97 96 255
47.605858 -25.025480 18.297455 0.505591 0.629686 -0.589808 0.125000 0.750000 54 58 56 255
47.605858 -25.025480 18.297455 0.318065 0.476960 -0.819356 0.125000 0.750000 54 58 56 255
50.206478 -27.746809 17.722858 0.318065 0.476960 -0.819356 0.125000 0.500000 94 97 96 255
48.176216 -27.746809 16.934732 0.318065 0.476960 -0.819356 0.125000 0.750000 54 58 56 255
51.721806 -22.912380 19.847441 -0.678677 -0.572959 0.459473 0.463687 0.250000 133 121 116 255
48.856758 -23.057020 15.435176 -0.678677 -0.572959 0.459473 0.500827 1.000000 131 125 122 255
53.006496 -26.630674 17.108345 -0.678677 -0.572959 0.459473 0.463687 0.250000 133 122 117 255
49.259361 -25.025480 19.714859 -0.362607 0.464995 -0.807648 0.375000 0.250000 97 97 96 255
53.006496 -26.630674 17.108345 -0.362607 0.464995 -0.807648 0.463687 0.250000 133 122 117 255
50.206478 -27.746809 17.722858 -0.362607 0.464995 -0.807648 0.375000 0.250000 97 97 96 255
47.605858 -25.025480 18.297455 0.937059 -0.265187 0.227147 0.375000 1.000000 57 58 56 255
48.856758 -23.057020 15.435176 0.937059 -0.265187 0.227147 0.500827 1.000000 131 125 122 255
48.745605 -22.016195 17.108849 0.937059 -0.265187 0.227147 0.500827 1.000000 136 131 128 255
48.856758 -23.057020 15.435176 -0.682147 -0.709727 0.175963 0.500827 1.000000 131 125 122 255
52.366917 -26.940674 13.378572 -0.682147 -0.709727 0.175963 0.463687 0.250000 133 121 116 255
53.006496 -26.630674 17.108345 -0.682147 -0.709727 0.175963 0.463687 0.250000 133 122 117 255
50.206478 -27.746809 17.722858 -0.726087 0.643748 -0.241632 0.375000 0.250000 97 97 96 255
52.366917 -26.940674 13.378572 -0.726087 0.643748 -0.241632 0.463687 0.250000 133 121 116 255
50.438751 -29.053774 13.542922 -0.726087 0.643748 -0.241632 0.375000 0.250000 57 58 56 255
48.176216 -27.746809 16.934732 0.981200 -0.170996 -0.089484 0.375000 1.000000 57 58 56 255
48.327473 -24.634636 12.646194 0.981200 -0.170996 -0.089484 0.500827 1.000000 113 107 104 255
48.856758 -23.057020 15.435176 0.981200 -0.170996 -0.089484 0.500827 1.000000 131 125 122 255
48.176216 -27.746809 16.934732 -0.005610 0.931846 -0.362810 0.125000 0.750000 54 58 56 255
50.438751 -29.053774 13.542922 -0.005610 0.931846 -0.362810 0.125000 0.500000 54 58 56 255
48.261147 -29.053774 13.576591 -0.005610 0.931846 -0.362810 0.125000 0.750000 54 58 56 255
48.261147 -29.053774 13.576591 0.998690 -0.024453 -0.044949 0.375000 1.000000 57 58 56 255
48.165745 -26.156628 9.880859 0.998690 -0.024453 -0.044949 0.500827 1.000000 77 70 66 255
48.327473 -24.634636 12.646194 0.998690 -0.024453 -0.044949 0.500827 1.000000 113 107 104 255
48.261147 -29.053774 13.576591 -0.000284 0.999832 -0.018341 0.125000 0.750000 54 58 56 255
50.277023 -29.165913 7.432269 -0.000284 0.999832 -0.018341 0.125000 0.500000 54 58 56 255
48.099419 -29.165913 7.465938 -0.000284 0.999832 -0.018341 0.125000 0.750000 54 58 56 255
48.327473 -24.634636 12.646194 -0.512858 -0.834870 0.199923 0.500827 1.000000 113 107 104 255
51.471478 -27.052813 10.613237 -0.512858 -0.834870 0.199923 0.463687 0.250000 102 88 81 255
52.366917 -26.940674 13.378572 -0.512858 -0.834870 0.199923 0.463687 0.250000 133 121 116 255
50.438751 -29.053774 13.542922 -0.879684 0.475335 0.014559 0.375000 0.250000 57 58 56 255
51.471478 -27.052813 10.613237 -0.879684 0.475335 0.014559 0.463687 0.250000 102 88 81 255
50.277023 -29.165913 7.432269 -0.879684 0.475335 0.014559 0.375000 0.250000 57 58 56 255
44.270790 -21.361574 22.306450 0.058211 0.998298 -0.003413 0.125000 0.500000 54 58 56 255
45.790058 -18.352289 20.127674 -0.138065 -0.950089 -0.279768 0.500827 1.000000 89 83 79 255
42.128384 -18.899300 23.792345 -0.037613 0.492116 -0.869717 0.463687 0.250000 102 88 81 255
45.200825 -19.248474 23.461895 -0.037613 0.492116 -0.869717 0.463687 0.250000 102 88 81 255
44.270790 -21.361574 22.306450 -0.037613 0.492116 -0.869717 0.375000 0.250000 57 58 56 255
42.717617 -18.003115 20.458124 0.050743 -0.075071 0.995886 0.500827 1.000000 77 70 66 255
38.174454 -21.012400 20.462767 0.050743 -0.075071 0.995886 0.375000 1.000000 57 58 56 255
44.143311 -21.361574 20.132317 0.050743 -0.075071 0.995886 0.375000 1.000000 57 58 56 255
44.270790 -21.361574 22.306450 0.656395 0.753435 -0.038488 0.125000 0.500000 54 58 56 255
47.981476 -20.318253 19.015930 -0.716689 -0.631300 -0.296339 0.500827 1.000000 113 107 104 255
45.200825 -19.248474 23.461895 -0.010526 0.483298 -0.875392 0.463687 0.250000 102 88 81 255
46.334728 -23.327538 19.020573 0.318072 -0.172618 0.932219 0.375000 1.000000 112 112 111 255
47.981476 -20.318253 19.015930 -0.580811 -0.709542 0.399011 0.500827 1.000000 113 107 104 255
48.745605 -22.016195 17.108849 -0.580811 -0.709542 0.399011 0.500827 1.000000 136 131 128 255
51.721806 -22.912380 19.847441 -0.580811 -0.709542 0.399011 0.463687 0.250000 133 121 116 255
47.392242 -21.214437 22.350151 -0.321066 0.427178 -0.845243 0.463687 0.250000 142 131 127 255
51.721806 -22.912380 19.847441 -0.321066 0.427178 -0.845243 0.463687 0.250000 133 121 116 255
49.259361 -25.025480 19.714859 -0.321066 0.427178 -0.845243 0.375000 0.250000 97 97 96 255
46.334728 -23.327538 19.020573 0.585903 0.095927 0.804684 0.375000 1.000000 112 112 111 255
47.605858 -25.025480 18.297455 0.585903 0.095927 0.804684 0.375000 1.000000 57 58 56 255
48.745605 -22.016195 17.108849 0.585903 0.095927 0.804684 0.500827 1.000000 136 131 128 255
46.334728 -23.327538 19.020573 0.507132 0.861355 -0.029736 0.125000 0.750000 110 112 111 255
46.462208 -23.327538 21.194706 0.507132 0.861355 -0.029736 0.125000 0.500000 54 58 56 255
49.259361 -25.025480 19.714859 0.507132 0.861355 -0.029736 0.125000 0.500000 94 97 96 255
47.605858 -25.025480 18.297455 0.512612 0.616139 -0.597998 0.125000 0.750000 54 58 56 255
49.259361 -25.025480 19.714859 0.512612 0.616139 -0.597998 0.125000 0.500000 94 97 96 255
50.206478 -27.746809 17.722858 0.512612 0.616139 -0.597998 0.125000 0.500000 94 97 96 255
51.721806 -22.912380 19.847441 -0.582109 -0.707256 0.401170 0.463687 0.250000 133 121 116 255
48.745605 -22.016195 17.108849 -0.582109 -0.707256 0.401170 0.500827 1.000000 136 131 128 255
48.856758 -23.057020 15.435176 -0.582109 -0.707256 0.401170 0.500827 1.000000 131 125 122 255
49.259361 -25.025480 19.714859 -0.359637 0.469681 -0.806264 0.375000 0.250000 97 97 96 255
51.721806 -22.912380 19.847441 -0.359637 0.469681 -0.806264 0.463687 0.250000 133 121 116 255
53.006496 -26.630674 17.108345 -0.359637 0.469681 -0.806264 0.463687 0.250000 133 122 117 255
47.605858 -25.025480 18.297455 0.917885 -0.006320 0.396796 0.375000 1.000000 57 58 56 255
48.176216 -27.746809 16.934732 0.917885 -0.006320 0.396796 0.375000 1.000000 57 58 56 255
48.856758 -23.057020 15.435176 0.917885 -0.006320 0.396796 0.500827 1.000000 131 125 122 255
48.856758 -23.057020 15.435176 -0.496443 -0.711812 0.496858 0.500827 1.000000 131 125 122 255
48.327473 -24.634636 12.646194 -0.496443 -0.711812 0.496858 0.500827 1.000000 113 107 104 255
52.366917 -26.940674 13.378572 -0.496443 -0.711812 0.496858 0.463687 0.250000 133 121 116 255
50.206478 -27.746809 17.722858 -0.372749 0.927838 -0.013198 0.375000 0.250000 97 97 96 255
53.006496 -26.630674 17.108345 -0.372749 0.927838 -0.013198 0.463687 0.250000 133 122 117 255
52.366917 -26.940674 13.378572 -0.372749 0.927838 -0.013198 0.463687 0.250000 133 121 116 255
48.176216 -27.746809 16.934732 0.999546 -0.008947 0.028761 0.375000 1.000000 57 58 56 255
48.261147 -29.053774 13.576591 0.999546 -0.008947 0.028761 0.375000 1.000000 57 58 56 255
48.327473 -24.634636 12.646194 0.999546 -0.008947 0.028761 0.500827 1.000000 113 107 104 255
48.176216 -27.746809 16.934732 0.112886 0.950101 -0.290801 0.125000 0.750000 54 58 56 255
50.206478 -27.746809 17.722858 0.112886 0.950101 -0.290801 0.125000 0.500000 94 97 96 255
50.438751 -29.053774 13.542922 0.112886 0.950101 -0.290801 0.125000 0.500000 54 58 56 255
48.261147 -29.053774 13.576591 0.999650 -0.000813 -0.026442 0.375000 1.000000 57 58 56 255
48.099419 -29.165913 7.465938 0.999650 -0.000813 -0.026442 0.375000 1.000000 57 58 56 255
48.165745 -26.156628 9.880859 0.999650 -0.000813 -0.026442 0.500827 1.000000 77 70 66 255
50.438751 -29.053774 13.542922 -0.000284 0.999832 -0.018341 0.125000 0.500000 54 58 56 255
48.327473 -24.634636 12.646194 -0.326471 -0.819877 0.470339 0.500827 1.000000 113 107 104 255
48.165745 -26.156628 9.880859 -0.326471 -0.819877 0.470339 0.500827 1.000000 77 70 66 255
51.471478 -27.052813 10.613237 -0.326471 -0.819877 0.470339 0.463687 0.250000 102 88 81 255
50.438751 -29.053774 13.542922 -0.715118 0.668434 0.204455 0.375000 0.250000 57 58 56 255
52.366917 -26.940674 13.378572 -0.715118 0.668434 0.204455 0.463687 0.250000 133 121 116 255
51.471478 -27.052813 10.613237 -0.715118 0.668434 0.204455 0.463687 0.250000 102 88 81 255
3 0 1 2
3 3 4 5
3 6 7 8
3 9 10 11
3 12 13 14
3 15 16 17
3 18 19 20
3 21 22 23
3 24 25 26
3 27 28 29
3 30 31 32
3 33 34 35
3 36 37 38
3 39 40 41
3 42 43 44
3 45 46 47
3 48 49 50
3 51 52 53
3 54 55 56
3 57 58 59
3 60 61 62
3 63 64 65
3 66 67 68
3 69 70 71
3 0 72 1
3 3 73 4
3 74 75 76
3 77 78 79
3 12 80 13
3 15 81 16
3 18 82 19
3 21 83 22
3 84 85 86
3 87 88 89
3 90 91 92
3 93 94 95
3 96 97 98
3 99 100 101
3 102 103 104
3 105 106 107
3 108 109 110
3 111 112 113
3 114 115 116
3 117 118 119
3 120 121 122
3 63 123 64
3 124 125 126
3 127 128 129
