ply
format ascii 1.0
comment Created by Blender 2.92.0 - www.blender.org
element vertex 96
property float x
property float y
property float z
property float nx
property float ny
property float nz
property float s
property float t
property uchar red
property uchar green
property uchar blue
property uchar alpha
element face 32
property list uchar uint vertex_indices
end_header
92.176849 -38.619156 -60.468761 0.188107 0.978448 0.085175 0.375000 1.000000 0 255 28 255
95.297012 -39.144966 -61.319332 0.188107 0.978448 0.085175 0.463687 0.250000 0 255 28 255
94.888992 -38.920368 -62.998291 0.188107 0.978448 0.085175 0.375000 1.000000 0 255 28 255
93.230537 -38.843754 -59.785469 -0.589629 0.057370 -0.805634 0.463687 0.250000 102 88 81 255
95.336487 -35.368645 -61.079308 -0.589629 0.057370 -0.805634 0.463687 0.250000 102 88 81 255
95.297012 -39.144966 -61.319332 -0.589629 0.057370 -0.805634 0.463687 0.250000 102 88 81 255
92.176849 -38.619156 -60.468761 0.684216 0.052687 0.727373 0.375000 1.000000 57 58 56 255
94.861839 -26.973015 -63.838032 0.684216 0.052687 0.727373 0.500827 1.000000 77 70 66 255
91.743309 -27.051661 -60.898834 0.684216 0.052687 0.727373 0.500827 1.000000 77 70 66 255
99.004417 -38.872326 -63.329338 -0.052337 0.989852 0.132115 0.375000 1.000000 0 255 28 255
101.694427 -39.144966 -60.220974 -0.052337 0.989852 0.132115 0.463687 0.250000 0 255 28 255
102.952423 -38.920368 -61.405388 -0.052337 0.989852 0.132115 0.375000 1.000000 0 255 28 255
98.514664 -35.828777 -61.727612 0.473900 0.055118 -0.878852 0.463687 0.250000 102 88 81 255
101.694427 -39.144966 -60.220974 0.473900 0.055118 -0.878852 0.463687 0.250000 102 88 81 255
98.579430 -39.096924 -61.897652 0.473900 0.055118 -0.878852 0.463687 0.250000 102 88 81 255
99.349152 -26.924974 -63.968498 -0.440011 0.059286 0.896033 0.500827 1.000000 77 70 66 255
102.952423 -38.920368 -61.405388 -0.440011 0.059286 0.896033 0.375000 1.000000 57 58 56 255
103.669052 -26.973015 -61.843967 -0.440011 0.059286 0.896033 0.500827 1.000000 77 70 66 255
91.555977 -38.160656 -56.527687 0.970916 0.073309 0.227919 0.375000 1.000000 57 58 56 255
91.743309 -27.051661 -60.898834 0.970916 0.073309 0.227919 0.500827 1.000000 77 70 66 255
90.716049 -26.973015 -56.548092 0.970916 0.073309 0.227919 0.500827 1.000000 77 70 66 255
93.255325 -38.385254 -56.840061 -0.999256 0.038483 0.002419 0.463687 0.250000 102 88 81 255
93.392624 -34.642738 -59.662075 -0.999256 0.038483 0.002419 0.463687 0.250000 102 88 81 255
93.230537 -38.843754 -59.785469 -0.999256 0.038483 0.002419 0.463687 0.250000 102 88 81 255
91.555977 -38.160656 -56.527687 0.252641 0.964844 -0.072448 0.375000 1.000000 0 255 28 255
93.230537 -38.843754 -59.785469 0.252641 0.964844 -0.072448 0.463687 0.250000 0 255 28 255
92.176849 -38.619156 -60.468761 0.252641 0.964844 -0.072448 0.375000 1.000000 0 255 28 255
94.861839 -26.973015 -63.838032 0.028460 0.052581 0.998211 0.500827 1.000000 77 70 66 255
99.004417 -38.872326 -63.329338 0.028460 0.052581 0.998211 0.375000 1.000000 57 58 56 255
99.349152 -26.924974 -63.968498 0.028460 0.052581 0.998211 0.500827 1.000000 77 70 66 255
95.297012 -39.144966 -61.319332 -0.173994 0.047728 -0.983589 0.463687 0.250000 102 88 81 255
98.514664 -35.828777 -61.727612 -0.173994 0.047728 -0.983589 0.463687 0.250000 102 88 81 255
98.579430 -39.096924 -61.897652 -0.173994 0.047728 -0.983589 0.463687 0.250000 102 88 81 255
94.888992 -38.920368 -62.998291 0.000957 0.987873 0.155258 0.375000 1.000000 0 255 28 255
98.579430 -39.096924 -61.897652 0.000957 0.987873 0.155258 0.463687 0.250000 0 255 28 255
99.004417 -38.872326 -63.329338 0.000957 0.987873 0.155258 0.375000 1.000000 0 255 28 255
93.392624 -34.642738 -59.662075 -0.573925 0.057920 -0.816857 0.463687 0.250000 102 88 81 255
95.412155 -28.130550 -60.619247 -0.573925 0.057920 -0.816857 0.463687 0.250000 102 88 81 255
95.336487 -35.368645 -61.079308 -0.573925 0.057920 -0.816857 0.463687 0.250000 102 88 81 255
95.336487 -35.368645 -61.079308 -0.193088 0.047165 -0.980047 0.463687 0.250000 102 88 81 255
98.361145 -28.082508 -61.324577 -0.193088 0.047165 -0.980047 0.463687 0.250000 102 88 81 255
98.514664 -35.828777 -61.727612 -0.193088 0.047165 -0.980047 0.463687 0.250000 102 88 81 255
93.555939 -34.015614 -56.872169 -0.998057 0.037037 0.050099 0.463687 0.250000 102 88 81 255
93.640854 -28.209194 -59.473103 -0.998057 0.037037 0.050099 0.463687 0.250000 102 88 81 255
93.392624 -34.642738 -59.662075 -0.998057 0.037037 0.050099 0.463687 0.250000 102 88 81 255
101.488739 -35.038551 -60.054672 0.486607 0.059672 -0.871581 0.463687 0.250000 102 88 81 255
98.361145 -28.082508 -61.324577 0.486607 0.059672 -0.871581 0.463687 0.250000 102 88 81 255
101.142708 -28.130550 -59.774910 0.486607 0.059672 -0.871581 0.463687 0.250000 102 88 81 255
92.176849 -38.619156 -60.468761 0.178599 0.982769 0.047623 0.375000 1.000000 0 255 28 255
93.230537 -38.843754 -59.785469 0.178599 0.982769 0.047623 0.463687 0.250000 0 255 28 255
95.297012 -39.144966 -61.319332 0.178599 0.982769 0.047623 0.463687 0.250000 0 255 28 255
93.230537 -38.843754 -59.785469 -0.577171 0.046217 -0.815314 0.463687 0.250000 102 88 81 255
93.392624 -34.642738 -59.662075 -0.577171 0.046217 -0.815314 0.463687 0.250000 102 88 81 255
95.336487 -35.368645 -61.079308 -0.577171 0.046217 -0.815314 0.463687 0.250000 102 88 81 255
92.176849 -38.619156 -60.468761 0.684234 0.052679 0.727358 0.375000 1.000000 57 58 56 255
94.888992 -38.920368 -62.998291 0.684234 0.052679 0.727358 0.375000 1.000000 57 58 56 255
94.861839 -26.973015 -63.838032 0.684234 0.052679 0.727358 0.500827 1.000000 77 70 66 255
99.004417 -38.872326 -63.329338 -0.058839 0.988733 0.137643 0.375000 1.000000 0 255 28 255
98.579430 -39.096924 -61.897652 -0.058839 0.988733 0.137643 0.463687 0.250000 0 255 28 255
101.694427 -39.144966 -60.220974 -0.058839 0.988733 0.137643 0.463687 0.250000 0 255 28 255
98.514664 -35.828777 -61.727612 0.477361 0.059415 -0.876696 0.463687 0.250000 102 88 81 255
101.488739 -35.038551 -60.054672 0.477361 0.059415 -0.876696 0.463687 0.250000 102 88 81 255
101.694427 -39.144966 -60.220974 0.477361 0.059415 -0.876696 0.463687 0.250000 102 88 81 255
99.349152 -26.924974 -63.968498 -0.436671 0.060619 0.897577 0.500827 1.000000 77 70 66 255
99.004417 -38.872326 -63.329338 -0.436671 0.060619 0.897577 0.375000 1.000000 57 58 56 255
102.952423 -38.920368 -61.405388 -0.436671 0.060619 0.897577 0.375000 1.000000 57 58 56 255
91.555977 -38.160656 -56.527687 0.987670 0.042618 0.150638 0.375000 1.000000 57 58 56 255
92.176849 -38.619156 -60.468761 0.987670 0.042618 0.150638 0.375000 1.000000 57 58 56 255
91.743309 -27.051661 -60.898834 0.987670 0.042618 0.150638 0.500827 1.000000 77 70 66 255
93.255325 -38.385254 -56.840061 -0.996703 0.068884 0.042861 0.463687 0.250000 102 88 81 255
93.555939 -34.015614 -56.872169 -0.996703 0.068884 0.042861 0.463687 0.250000 102 88 81 255
93.392624 -34.642738 -59.662075 -0.996703 0.068884 0.042861 0.463687 0.250000 102 88 81 255
91.555977 -38.160656 -56.527687 0.101620 0.982854 -0.153852 0.375000 1.000000 0 255 28 255
93.255325 -38.385254 -56.840061 0.101620 0.982854 -0.153852 0.463687 0.250000 0 255 28 255
93.230537 -38.843754 -59.785469 0.101620 0.982854 -0.153852 0.463687 0.250000 0 255 28 255
94.861839 -26.973015 -63.838032 0.079172 0.070073 0.994395 0.500827 1.000000 77 70 66 255
94.888992 -38.920368 -62.998291 0.079172 0.070073 0.994395 0.375000 1.000000 57 58 56 255
99.004417 -38.872326 -63.329338 0.079172 0.070073 0.994395 0.375000 1.000000 57 58 56 255
95.297012 -39.144966 -61.319332 -0.190518 0.064254 -0.979579 0.463687 0.250000 102 88 81 255
95.336487 -35.368645 -61.079308 -0.190518 0.064254 -0.979579 0.463687 0.250000 102 88 81 255
98.514664 -35.828777 -61.727612 -0.190518 0.064254 -0.979579 0.463687 0.250000 102 88 81 255
94.888992 -38.920368 -62.998291 0.008492 0.991404 0.130558 0.375000 1.000000 0 255 28 255
95.297012 -39.144966 -61.319332 0.008492 0.991404 0.130558 0.463687 0.250000 0 255 28 255
98.579430 -39.096924 -61.897652 0.008492 0.991404 0.130558 0.463687 0.250000 0 255 28 255
93.392624 -34.642738 -59.662075 -0.544115 0.045602 -0.837770 0.463687 0.250000 102 88 81 255
93.640854 -28.209194 -59.473103 -0.544115 0.045602 -0.837770 0.463687 0.250000 102 88 81 255
95.412155 -28.130550 -60.619247 -0.544115 0.045602 -0.837770 0.463687 0.250000 102 88 81 255
95.336487 -35.368645 -61.079308 -0.233125 0.064112 -0.970331 0.463687 0.250000 102 88 81 255
95.412155 -28.130550 -60.619247 -0.233125 0.064112 -0.970331 0.463687 0.250000 102 88 81 255
98.361145 -28.082508 -61.324577 -0.233125 0.064112 -0.970331 0.463687 0.250000 102 88 81 255
93.555939 -34.015614 -56.872169 -0.990160 0.069014 0.121742 0.463687 0.250000 102 88 81 255
93.960808 -28.130550 -56.915413 -0.990160 0.069014 0.121742 0.463687 0.250000 102 88 81 255
93.640854 -28.209194 -59.473103 -0.990160 0.069014 0.121742 0.463687 0.250000 102 88 81 255
101.488739 -35.038551 -60.054672 0.478364 0.055081 -0.876432 0.463687 0.250000 102 88 81 255
98.514664 -35.828777 -61.727612 0.478364 0.055081 -0.876432 0.463687 0.250000 102 88 81 255
98.361145 -28.082508 -61.324577 0.478364 0.055081 -0.876432 0.463687 0.250000 102 88 81 255
3 0 1 2
3 3 4 5
3 6 7 8
3 9 10 11
3 12 13 14
3 15 16 17
3 18 19 20
3 21 22 23
3 24 25 26
3 27 28 29
3 30 31 32
3 33 34 35
3 36 37 38
3 39 40 41
3 42 43 44
3 45 46 47
3 48 49 50
3 51 52 53
3 54 55 56
3 57 58 59
3 60 61 62
3 63 64 65
3 66 67 68
3 69 70 71
3 72 73 74
3 75 76 77
3 78 79 80
3 81 82 83
3 84 85 86
3 87 88 89
3 90 91 92
3 93 94 95
