ply
format ascii 1.0
comment Created by Blender 2.92.0 - www.blender.org
element vertex 403
property float x
property float y
property float z
property float nx
property float ny
property float nz
property float s
property float t
property uchar red
property uchar green
property uchar blue
property uchar alpha
element face 135
property list uchar uint vertex_indices
end_header
78.592781 -32.200279 -51.603397 0.297286 0.953541 0.048799 0.463687 0.250000 0 255 28 255
82.716751 -33.436882 -52.563419 0.297286 0.953541 0.048799 0.375000 1.000000 0 255 28 255
78.507370 -31.975681 -55.471741 0.297286 0.953541 0.048799 0.375000 1.000000 0 255 28 255
78.592781 -32.200279 -51.603397 0.223919 0.121819 -0.966965 0.463687 0.250000 102 88 81 255
81.615326 -28.130550 -50.390762 0.223919 0.121819 -0.966965 0.463687 0.250000 102 88 81 255
81.969482 -33.661480 -51.005543 0.223919 0.121819 -0.966965 0.463687 0.250000 102 88 81 255
78.507370 -31.975681 -55.471741 -0.533164 0.128432 0.836206 0.375000 1.000000 57 58 56 255
82.716751 -33.436882 -52.563419 -0.533164 0.128432 0.836206 0.375000 1.000000 57 58 56 255
82.979004 -30.117611 -52.906010 -0.533164 0.128432 0.836206 0.439614 1.000000 67 64 61 255
81.969482 -33.661480 -51.005543 -0.089109 0.990977 0.100125 0.463687 0.250000 0 255 28 255
85.919998 -33.436882 -49.712612 -0.089109 0.990977 0.100125 0.375000 1.000000 0 255 28 255
82.716751 -33.436882 -52.563419 -0.089109 0.990977 0.100125 0.375000 1.000000 0 255 28 255
81.615326 -28.130550 -50.390762 0.671681 0.124191 -0.730357 0.463687 0.250000 102 88 81 255
84.654366 -33.661480 -48.536358 0.671681 0.124191 -0.730357 0.463687 0.250000 102 88 81 255
81.969482 -33.661480 -51.005543 0.671681 0.124191 -0.730357 0.463687 0.250000 102 88 81 255
82.979004 -30.117611 -52.906010 -0.664996 0.128474 0.735714 0.439614 1.000000 67 64 61 255
86.639442 -26.973015 -50.146545 -0.664996 0.128474 0.735714 0.500827 1.000000 77 70 66 255
83.227448 -26.973015 -53.230572 -0.664996 0.128474 0.735714 0.500827 1.000000 77 70 66 255
84.654366 -33.661480 -48.536358 0.429328 0.681927 0.592160 0.463687 0.250000 0 255 28 255
88.361526 -36.520664 -47.931511 0.429328 0.681927 0.592160 0.375000 1.000000 0 255 28 255
85.919998 -33.436882 -49.712612 0.429328 0.681927 0.592160 0.375000 1.000000 0 255 28 255
84.654366 -33.661480 -48.536358 0.657320 0.068483 -0.750494 0.463687 0.250000 102 88 81 255
88.165787 -28.130550 -44.956184 0.657320 0.068483 -0.750494 0.463687 0.250000 102 88 81 255
88.260498 -36.745262 -45.659325 0.657320 0.068483 -0.750494 0.463687 0.250000 102 88 81 255
86.182297 -31.080276 -49.870815 -0.581806 0.118771 0.804609 0.420874 1.000000 64 62 60 255
88.581238 -26.973015 -48.742451 -0.581806 0.118771 0.804609 0.500827 1.000000 77 70 66 255
86.639442 -26.973015 -50.146545 -0.581806 0.118771 0.804609 0.500827 1.000000 77 70 66 255
88.260498 -36.745262 -45.659325 0.238871 0.965245 0.106032 0.463687 0.250000 0 255 28 255
92.169403 -37.354813 -48.916439 0.238871 0.965245 0.106032 0.375000 1.000000 0 255 28 255
88.361526 -36.520664 -47.931511 0.238871 0.965245 0.106032 0.375000 1.000000 0 255 28 255
89.117783 -35.652534 -45.288033 0.000022 1.000000 -0.000001 0.463687 0.250000 102 88 81 255
91.792053 -35.652592 -43.230312 0.000022 1.000000 -0.000001 0.463687 0.250000 68 59 54 255
91.692078 -35.652592 -46.009750 0.000022 1.000000 -0.000001 0.463687 0.250000 102 88 81 255
88.443077 -32.976788 -48.232513 0.276449 0.075015 0.958096 0.421704 1.000000 64 62 60 255
91.800713 -26.973015 -49.671398 0.276449 0.075015 0.958096 0.500827 1.000000 77 70 66 255
88.581238 -26.973015 -48.742451 0.276449 0.075015 0.958096 0.500827 1.000000 77 70 66 255
92.169403 -37.354813 -48.916439 0.122565 0.991595 0.041431 0.375000 1.000000 0 255 28 255
94.959198 -37.579411 -51.794006 0.122565 0.991595 0.041431 0.463687 0.250000 0 255 28 255
93.280731 -37.354813 -52.204056 0.122565 0.991595 0.041431 0.375000 1.000000 0 255 28 255
91.692078 -35.652592 -46.009750 -0.994014 0.081838 0.072381 0.463687 0.250000 102 88 81 255
92.084335 -33.428215 -43.137856 -0.994014 0.081838 0.072381 0.463687 0.250000 68 59 54 255
91.984360 -32.288574 -45.799370 -0.994014 0.081838 0.072381 0.463687 0.250000 102 88 81 255
91.800713 -26.973015 -49.671398 0.967248 0.079047 0.241213 0.500827 1.000000 77 70 66 255
92.998627 -33.491440 -52.338833 0.967248 0.079047 0.241213 0.421824 1.000000 64 62 60 255
92.522629 -26.973015 -52.566238 0.967248 0.079047 0.241213 0.500827 1.000000 77 70 66 255
93.280731 -37.354813 -52.204056 0.116732 0.966925 -0.226782 0.375000 1.000000 0 255 28 255
93.788589 -38.133049 -55.260788 0.116732 0.966925 -0.226782 0.463687 0.250000 0 255 28 255
91.555977 -38.160656 -56.527687 0.116732 0.966925 -0.226782 0.375000 1.000000 0 255 28 255
94.959198 -37.579411 -51.794006 -0.948598 0.060499 0.310646 0.463687 0.250000 102 88 81 255
93.917007 -36.707718 -55.146233 -0.948598 0.060499 0.310646 0.463687 0.250000 102 88 81 255
93.788589 -38.133049 -55.260788 -0.948598 0.060499 0.310646 0.463687 0.250000 102 88 81 255
92.522629 -26.973015 -52.566238 0.908581 0.067462 -0.412226 0.500827 1.000000 77 70 66 255
91.083252 -31.864033 -56.539173 0.908581 0.067462 -0.412226 0.445818 1.000000 68 65 62 255
90.716049 -26.973015 -56.548092 0.908581 0.067462 -0.412226 0.500827 1.000000 77 70 66 255
89.047203 -32.288628 -44.993412 0.338923 0.080236 -0.937386 0.463687 0.250000 102 88 81 255
88.260498 -36.745262 -45.659325 0.338923 0.080236 -0.937386 0.463687 0.250000 102 88 81 255
88.165787 -28.130550 -44.956184 0.338923 0.080236 -0.937386 0.463687 0.250000 102 88 81 255
91.984360 -32.288574 -45.799370 -0.321946 0.086931 -0.942759 0.463687 0.250000 102 88 81 255
93.607346 -37.579411 -46.841473 -0.321946 0.086931 -0.942759 0.463687 0.250000 102 88 81 255
91.692078 -35.652592 -46.009750 -0.321946 0.086931 -0.942759 0.463687 0.250000 102 88 81 255
91.692078 -35.652592 -46.009750 -0.237623 0.474430 -0.847615 0.463687 0.250000 102 88 81 255
88.260498 -36.745262 -45.659325 -0.237623 0.474430 -0.847615 0.463687 0.250000 102 88 81 255
89.117783 -35.652534 -45.288033 -0.237623 0.474430 -0.847615 0.463687 0.250000 102 88 81 255
91.984360 -32.288574 -45.799370 -0.216528 -0.000877 -0.976276 0.463687 0.250000 102 88 81 255
88.165787 -28.130550 -44.956184 -0.216528 -0.000877 -0.976276 0.463687 0.250000 102 88 81 255
93.999115 -28.130550 -46.249958 -0.216528 -0.000877 -0.976276 0.463687 0.250000 102 88 81 255
94.752144 -33.973053 -48.709652 -0.901307 0.064189 -0.428400 0.463687 0.250000 102 88 81 255
93.607346 -37.579411 -46.841473 -0.901307 0.064189 -0.428400 0.463687 0.250000 102 88 81 255
93.999115 -28.130550 -46.249958 -0.901307 0.064189 -0.428400 0.463687 0.250000 102 88 81 255
95.286301 -33.528603 -50.637844 -0.996888 0.070343 0.035582 0.463687 0.250000 102 88 81 255
95.633781 -28.130550 -51.574200 -0.996888 0.070343 0.035582 0.463687 0.250000 102 88 81 255
95.274857 -33.157993 -51.691151 -0.996888 0.070343 0.035582 0.463687 0.250000 102 88 81 255
94.469467 -36.196918 -49.159042 -0.952567 0.158140 -0.260014 0.463687 0.250000 102 88 81 255
94.959198 -37.579411 -51.794006 -0.952567 0.158140 -0.260014 0.463687 0.250000 102 88 81 255
93.607346 -37.579411 -46.841473 -0.952567 0.158140 -0.260014 0.463687 0.250000 102 88 81 255
94.752144 -33.973053 -48.709652 -0.964541 0.016395 -0.263423 0.463687 0.250000 102 88 81 255
95.633781 -28.130550 -51.574200 -0.964541 0.016395 -0.263423 0.463687 0.250000 102 88 81 255
95.286301 -33.528603 -50.637844 -0.964541 0.016395 -0.263423 0.463687 0.250000 102 88 81 255
89.117783 -35.652534 -45.288033 0.937180 0.057074 -0.344145 0.463687 0.250000 102 88 81 255
90.067856 -33.428268 -42.331898 0.937180 0.057074 -0.344145 0.463687 0.250000 68 59 54 255
90.138428 -35.652534 -42.508595 0.937180 0.057074 -0.344145 0.463687 0.250000 68 59 54 255
89.047203 -32.288628 -44.993412 -0.137769 -0.928527 -0.344756 0.463687 0.250000 102 88 81 255
92.084335 -33.428215 -43.137856 -0.137769 -0.928527 -0.344756 0.463687 0.250000 68 59 54 255
90.067856 -33.428268 -42.331898 -0.137769 -0.928527 -0.344756 0.463687 0.250000 68 59 54 255
93.300697 -35.901947 -41.455185 -0.094310 0.995543 0.000108 0.463687 0.250000 68 59 54 255
95.935440 -35.652534 -39.769352 -0.094310 0.995543 0.000108 0.463687 0.250000 68 59 54 255
95.932762 -35.652592 -41.573612 -0.094310 0.995543 0.000108 0.463687 0.250000 68 59 54 255
92.506889 -33.677624 -40.036263 0.116203 0.067814 -0.990908 0.463687 0.250000 69 61 56 255
95.935440 -35.652534 -39.769352 0.116203 0.067814 -0.990908 0.463687 0.250000 68 59 54 255
92.475220 -35.901890 -40.192196 0.116203 0.067814 -0.990908 0.463687 0.250000 68 59 54 255
93.547493 -33.677570 -41.524551 0.098273 0.094076 0.990703 0.463687 0.250000 101 94 89 255
95.932762 -35.652592 -41.573612 0.098273 0.094076 0.990703 0.463687 0.250000 68 59 54 255
96.134071 -33.428215 -41.804806 0.098273 0.094076 0.990703 0.463687 0.250000 105 98 94 255
93.547493 -33.677570 -41.524551 0.064677 -0.996883 0.045186 0.463687 0.250000 101 94 89 255
96.069359 -33.428268 -39.634186 0.064677 -0.996883 0.045186 0.463687 0.250000 68 59 54 255
92.506889 -33.677624 -40.036263 0.064677 -0.996883 0.045186 0.463687 0.250000 69 61 56 255
98.426453 -34.057884 -42.794456 0.912574 0.105993 0.394935 0.463687 0.250000 85 76 71 255
99.449158 -35.652592 -44.729630 0.912574 0.105993 0.394935 0.463687 0.250000 68 59 54 255
99.308731 -33.428215 -45.002125 0.912574 0.105993 0.394935 0.463687 0.250000 68 59 54 255
98.426453 -34.057884 -42.794456 0.165473 -0.980582 -0.105247 0.463687 0.250000 85 76 71 255
101.301788 -33.428268 -44.139862 0.165473 -0.980582 -0.105247 0.463687 0.250000 105 98 94 255
99.390625 -34.057941 -41.278015 0.165473 -0.980582 -0.105247 0.463687 0.250000 68 59 54 255
98.396011 -36.282265 -42.542610 -0.092694 0.967806 0.234008 0.463687 0.250000 68 59 54 255
101.126694 -35.652534 -44.065372 -0.092694 0.967806 0.234008 0.463687 0.250000 72 62 57 255
99.449158 -35.652592 -44.729630 -0.092694 0.967806 0.234008 0.463687 0.250000 68 59 54 255
99.390625 -34.057941 -41.278015 -0.829851 0.065202 -0.554163 0.463687 0.250000 68 59 54 255
101.126694 -35.652534 -44.065372 -0.829851 0.065202 -0.554163 0.463687 0.250000 72 62 57 255
99.236122 -36.282207 -41.308353 -0.829851 0.065202 -0.554163 0.463687 0.250000 73 64 59 255
98.915413 -33.604317 -46.483452 0.266325 0.072669 -0.961140 0.463687 0.250000 85 74 68 255
96.973061 -35.652592 -47.176529 0.266325 0.072669 -0.961140 0.463687 0.250000 102 88 81 255
96.679024 -33.428215 -47.089825 0.266325 0.072669 -0.961140 0.463687 0.250000 102 88 81 255
98.915413 -33.604317 -46.483452 -0.018939 -0.997697 -0.065127 0.463687 0.250000 85 74 68 255
97.900574 -33.428268 -48.885262 -0.018939 -0.997697 -0.065127 0.463687 0.250000 102 88 81 255
100.522720 -33.604370 -46.950039 -0.018939 -0.997697 -0.065127 0.463687 0.250000 85 74 68 255
99.132652 -35.828693 -46.390556 0.066012 0.996935 0.041990 0.463687 0.250000 85 74 68 255
97.940826 -35.652534 -48.699291 0.066012 0.996935 0.041990 0.463687 0.250000 102 88 81 255
96.973061 -35.652592 -47.176529 0.066012 0.996935 0.041990 0.463687 0.250000 102 88 81 255
100.522720 -33.604370 -46.950039 -0.594514 0.064946 0.801458 0.463687 0.250000 85 74 68 255
97.940826 -35.652534 -48.699291 -0.594514 0.064946 0.801458 0.463687 0.250000 102 88 81 255
100.455299 -35.828636 -46.819809 -0.594514 0.064946 0.801458 0.463687 0.250000 87 75 69 255
94.752144 -33.973053 -48.709652 0.175750 -0.977142 0.119603 0.463687 0.250000 102 88 81 255
97.900574 -33.428268 -48.885262 0.175750 -0.977142 0.119603 0.463687 0.250000 102 88 81 255
96.679024 -33.428215 -47.089825 0.175750 -0.977142 0.119603 0.463687 0.250000 102 88 81 255
94.752144 -33.973053 -48.709652 0.607617 0.082395 -0.789945 0.463687 0.250000 102 88 81 255
96.973061 -35.652592 -47.176529 0.607617 0.082395 -0.789945 0.463687 0.250000 102 88 81 255
94.469467 -36.196918 -49.159042 0.607617 0.082395 -0.789945 0.463687 0.250000 102 88 81 255
94.469467 -36.196918 -49.159042 -0.180364 0.956510 0.229254 0.463687 0.250000 102 88 81 255
97.940826 -35.652534 -48.699291 -0.180364 0.956510 0.229254 0.463687 0.250000 102 88 81 255
94.749245 -35.747940 -50.812187 -0.180364 0.956510 0.229254 0.463687 0.250000 102 88 81 255
97.940826 -35.652534 -48.699291 -0.552145 0.068337 0.830943 0.463687 0.250000 102 88 81 255
95.286301 -33.528603 -50.637844 -0.552145 0.068337 0.830943 0.463687 0.250000 102 88 81 255
94.749245 -35.747940 -50.812187 -0.552145 0.068337 0.830943 0.463687 0.250000 102 88 81 255
92.084335 -33.428215 -43.137856 -0.030353 -0.996645 -0.076008 0.463687 0.250000 68 59 54 255
92.506889 -33.677624 -40.036263 -0.030353 -0.996645 -0.076008 0.463687 0.250000 69 61 56 255
90.067856 -33.428268 -42.331898 -0.030353 -0.996645 -0.076008 0.463687 0.250000 68 59 54 255
91.792053 -35.652592 -43.230312 -0.733728 0.068313 0.676000 0.463687 0.250000 68 59 54 255
93.547493 -33.677570 -41.524551 -0.733728 0.068313 0.676000 0.463687 0.250000 101 94 89 255
92.084335 -33.428215 -43.137856 -0.733728 0.068313 0.676000 0.463687 0.250000 68 59 54 255
90.138428 -35.652534 -42.508595 0.705576 0.039556 -0.707530 0.463687 0.250000 68 59 54 255
92.506889 -33.677624 -40.036263 0.705576 0.039556 -0.707530 0.463687 0.250000 69 61 56 255
92.475220 -35.901890 -40.192196 0.705576 0.039556 -0.707530 0.463687 0.250000 68 59 54 255
91.792053 -35.652592 -43.230312 0.092885 0.993827 0.060664 0.463687 0.250000 68 59 54 255
92.475220 -35.901890 -40.192196 0.092885 0.993827 0.060664 0.463687 0.250000 68 59 54 255
93.300697 -35.901947 -41.455185 0.092885 0.993827 0.060664 0.463687 0.250000 68 59 54 255
95.935440 -35.652534 -39.769352 -0.415750 0.041271 -0.908542 0.463687 0.250000 68 59 54 255
99.390625 -34.057941 -41.278015 -0.415750 0.041271 -0.908542 0.463687 0.250000 68 59 54 255
99.236122 -36.282207 -41.308353 -0.415750 0.041271 -0.908542 0.463687 0.250000 73 64 59 255
95.932762 -35.652592 -41.573612 0.195879 0.971516 -0.133373 0.463687 0.250000 68 59 54 255
99.236122 -36.282207 -41.308353 0.195879 0.971516 -0.133373 0.463687 0.250000 73 64 59 255
98.396011 -36.282265 -42.542610 0.195879 0.971516 -0.133373 0.463687 0.250000 68 59 54 255
96.134071 -33.428215 -41.804806 -0.188970 -0.981967 -0.005658 0.463687 0.250000 105 98 94 255
99.390625 -34.057941 -41.278015 -0.188970 -0.981967 -0.005658 0.463687 0.250000 68 59 54 255
96.069359 -33.428268 -39.634186 -0.188970 -0.981967 -0.005658 0.463687 0.250000 68 59 54 255
95.932762 -35.652592 -41.573612 0.408999 0.057641 0.910712 0.463687 0.250000 68 59 54 255
98.426453 -34.057884 -42.794456 0.408999 0.057641 0.910712 0.463687 0.250000 85 76 71 255
96.134071 -33.428215 -41.804806 0.408999 0.057641 0.910712 0.463687 0.250000 105 98 94 255
101.126694 -35.652534 -44.065372 -0.971281 0.043141 0.233992 0.463687 0.250000 72 62 57 255
100.522720 -33.604370 -46.950039 -0.971281 0.043141 0.233992 0.463687 0.250000 85 74 68 255
100.455299 -35.828636 -46.819809 -0.971281 0.043141 0.233992 0.463687 0.250000 87 75 69 255
99.449158 -35.652592 -44.729630 -0.032269 0.994534 -0.099297 0.463687 0.250000 68 59 54 255
100.455299 -35.828636 -46.819809 -0.032269 0.994534 -0.099297 0.463687 0.250000 87 75 69 255
99.132652 -35.828693 -46.390556 -0.032269 0.994534 -0.099297 0.463687 0.250000 85 74 68 255
99.308731 -33.428215 -45.002125 -0.030744 -0.997002 0.071001 0.463687 0.250000 68 59 54 255
100.522720 -33.604370 -46.950039 -0.030744 -0.997002 0.071001 0.463687 0.250000 85 74 68 255
101.301788 -33.428268 -44.139862 -0.030744 -0.997002 0.071001 0.463687 0.250000 105 98 94 255
99.449158 -35.652592 -44.729630 0.965237 0.029116 -0.259749 0.463687 0.250000 68 59 54 255
98.915413 -33.604317 -46.483452 0.965237 0.029116 -0.259749 0.463687 0.250000 85 74 68 255
99.308731 -33.428215 -45.002125 0.965237 0.029116 -0.259749 0.463687 0.250000 68 59 54 255
93.917007 -36.707718 -55.146233 -0.950222 0.067309 0.304215 0.463687 0.250000 102 88 81 255
94.027267 -35.657265 -55.034252 -0.950222 0.067309 0.304215 0.463687 0.250000 102 88 81 255
93.380669 -36.563316 -56.853447 -0.950222 0.067309 0.304215 0.463687 0.250000 102 88 81 255
93.788589 -38.133049 -55.260788 0.094633 0.977586 -0.188072 0.463687 0.250000 0 255 28 255
93.255325 -38.385254 -56.840061 0.094633 0.977586 -0.188072 0.463687 0.250000 0 255 28 255
91.555977 -38.160656 -56.527687 0.094633 0.977586 -0.188072 0.375000 1.000000 0 255 28 255
93.788589 -38.133049 -55.260788 -0.948599 0.060499 0.310644 0.463687 0.250000 102 88 81 255
93.917007 -36.707718 -55.146233 -0.948599 0.060499 0.310644 0.463687 0.250000 102 88 81 255
93.279724 -38.373714 -56.767815 -0.948599 0.060499 0.310644 0.463687 0.250000 102 88 81 255
94.027267 -35.657265 -55.034252 -0.950246 0.067605 0.304075 0.463687 0.250000 102 88 81 255
95.274857 -33.157993 -51.691151 -0.950246 0.067605 0.304075 0.463687 0.250000 102 88 81 255
93.529816 -34.395329 -56.869377 -0.950246 0.067605 0.304075 0.463687 0.250000 102 88 81 255
93.280731 -37.354813 -52.204056 0.945807 0.056837 0.319716 0.375000 1.000000 57 58 56 255
92.039230 -33.689262 -49.182995 0.945807 0.056837 0.319716 0.419426 1.000000 64 62 60 255
92.169403 -37.354813 -48.916439 0.945807 0.056837 0.319716 0.375000 1.000000 57 58 56 255
95.274857 -33.157993 -51.691151 -0.950246 0.067608 0.304074 0.463687 0.250000 102 88 81 255
93.960808 -28.130550 -56.915413 -0.950246 0.067608 0.304074 0.463687 0.250000 102 88 81 255
93.529816 -34.395329 -56.869377 -0.950246 0.067608 0.304074 0.463687 0.250000 102 88 81 255
92.998627 -33.491440 -52.338833 0.917456 0.068164 -0.391954 0.421824 1.000000 64 62 60 255
91.555977 -38.160656 -56.527687 0.917456 0.068164 -0.391954 0.375000 1.000000 57 58 56 255
91.083252 -31.864033 -56.539173 0.917456 0.068164 -0.391954 0.445818 1.000000 68 65 62 255
92.998627 -33.491440 -52.338833 0.952309 0.079812 0.294512 0.421824 1.000000 64 62 60 255
92.039230 -33.689262 -49.182995 0.952309 0.079812 0.294512 0.419426 1.000000 64 62 60 255
93.280731 -37.354813 -52.204056 0.952309 0.079812 0.294512 0.375000 1.000000 57 58 56 255
88.443077 -32.976788 -48.232513 -0.515577 0.084288 0.852687 0.421704 1.000000 64 62 60 255
85.919998 -33.436882 -49.712612 -0.515577 0.084288 0.852687 0.375000 1.000000 57 58 56 255
88.361526 -36.520664 -47.931511 -0.515577 0.084288 0.852687 0.375000 1.000000 57 58 56 255
86.182297 -31.080276 -49.870815 -0.659752 0.123199 0.741316 0.420874 1.000000 64 62 60 255
82.716751 -33.436882 -52.563419 -0.659752 0.123199 0.741316 0.375000 1.000000 57 58 56 255
85.919998 -33.436882 -49.712612 -0.659752 0.123199 0.741316 0.375000 1.000000 57 58 56 255
92.039230 -33.689262 -49.182995 0.265873 0.079306 0.960740 0.419426 1.000000 64 62 60 255
88.361526 -36.520664 -47.931511 0.265873 0.079306 0.960740 0.375000 1.000000 57 58 56 255
92.169403 -37.354813 -48.916439 0.265873 0.079306 0.960740 0.375000 1.000000 57 58 56 255
78.592781 -32.200279 -51.603397 0.336246 0.895869 0.290444 0.463687 0.250000 0 255 28 255
81.969482 -33.661480 -51.005543 0.336246 0.895869 0.290444 0.463687 0.250000 0 255 28 255
82.716751 -33.436882 -52.563419 0.336246 0.895869 0.290444 0.375000 1.000000 0 255 28 255
78.238632 -26.669346 -50.988617 0.223919 0.121819 -0.966965 0.463687 0.250000 102 88 81 255
83.227448 -26.973015 -53.230572 -0.533165 0.128431 0.836206 0.500827 1.000000 77 70 66 255
79.018066 -25.511812 -56.138893 -0.533165 0.128431 0.836206 0.500827 1.000000 77 70 66 255
82.979004 -30.117611 -52.906010 -0.533165 0.128431 0.836206 0.439614 1.000000 67 64 61 255
79.018066 -25.511812 -56.138893 -0.533164 0.128431 0.836207 0.500827 1.000000 77 70 66 255
78.507370 -31.975681 -55.471741 -0.533164 0.128431 0.836207 0.375000 1.000000 57 58 56 255
82.979004 -30.117611 -52.906010 -0.533164 0.128431 0.836207 0.439614 1.000000 67 64 61 255
81.969482 -33.661480 -51.005543 -0.087522 0.991606 0.095168 0.463687 0.250000 0 255 28 255
84.654366 -33.661480 -48.536358 -0.087522 0.991606 0.095168 0.463687 0.250000 0 255 28 255
85.919998 -33.436882 -49.712612 -0.087522 0.991606 0.095168 0.375000 1.000000 0 255 28 255
81.615326 -28.130550 -50.390762 0.673456 0.125807 -0.728444 0.463687 0.250000 102 88 81 255
84.099762 -28.130550 -48.093868 0.673456 0.125807 -0.728444 0.463687 0.250000 102 88 81 255
84.654366 -33.661480 -48.536358 0.673456 0.125807 -0.728444 0.463687 0.250000 102 88 81 255
82.979004 -30.117611 -52.906010 -0.662767 0.123351 0.738596 0.439614 1.000000 67 64 61 255
86.182297 -31.080276 -49.870815 -0.662767 0.123351 0.738596 0.420874 1.000000 64 62 60 255
86.639442 -26.973015 -50.146545 -0.662767 0.123351 0.738596 0.500827 1.000000 77 70 66 255
84.654366 -33.661480 -48.536358 0.596516 0.795680 0.105173 0.463687 0.250000 0 255 28 255
88.260498 -36.745262 -45.659325 0.596516 0.795680 0.105173 0.463687 0.250000 0 255 28 255
88.361526 -36.520664 -47.931511 0.596516 0.795680 0.105173 0.375000 1.000000 0 255 28 255
84.654366 -33.661480 -48.536358 0.606242 0.123641 -0.785610 0.463687 0.250000 102 88 81 255
84.099762 -28.130550 -48.093868 0.606242 0.123641 -0.785610 0.463687 0.250000 102 88 81 255
88.165787 -28.130550 -44.956184 0.606242 0.123641 -0.785610 0.463687 0.250000 102 88 81 255
86.182297 -31.080276 -49.870815 -0.537782 0.083631 0.838926 0.420874 1.000000 64 62 60 255
88.443077 -32.976788 -48.232513 -0.537782 0.083631 0.838926 0.421704 1.000000 64 62 60 255
88.581238 -26.973015 -48.742451 -0.537782 0.083631 0.838926 0.500827 1.000000 77 70 66 255
88.260498 -36.745262 -45.659325 0.154167 0.988045 0.000111 0.463687 0.250000 0 255 28 255
93.607346 -37.579411 -46.841473 0.154167 0.988045 0.000111 0.463687 0.250000 0 255 28 255
92.169403 -37.354813 -48.916439 0.154167 0.988045 0.000111 0.375000 1.000000 0 255 28 255
89.117783 -35.652534 -45.288033 0.000030 1.000000 -0.000011 0.463687 0.250000 102 88 81 255
90.138428 -35.652534 -42.508595 0.000030 1.000000 -0.000011 0.463687 0.250000 68 59 54 255
91.792053 -35.652592 -43.230312 0.000030 1.000000 -0.000011 0.463687 0.250000 68 59 54 255
88.443077 -32.976788 -48.232513 0.269391 0.079360 0.959755 0.421704 1.000000 64 62 60 255
92.039230 -33.689262 -49.182995 0.269391 0.079360 0.959755 0.419426 1.000000 64 62 60 255
91.800713 -26.973015 -49.671398 0.269391 0.079360 0.959755 0.500827 1.000000 77 70 66 255
92.169403 -37.354813 -48.916439 0.111308 0.993321 0.030383 0.375000 1.000000 0 255 28 255
93.607346 -37.579411 -46.841473 0.111308 0.993321 0.030383 0.463687 0.250000 0 255 28 255
94.959198 -37.579411 -51.794006 0.111308 0.993321 0.030383 0.463687 0.250000 0 255 28 255
91.692078 -35.652592 -46.009750 -0.991037 0.128740 0.035647 0.463687 0.250000 102 88 81 255
91.792053 -35.652592 -43.230312 -0.991037 0.128740 0.035647 0.463687 0.250000 68 59 54 255
92.084335 -33.428215 -43.137856 -0.991037 0.128740 0.035647 0.463687 0.250000 68 59 54 255
91.800713 -26.973015 -49.671398 0.954335 0.055241 0.293587 0.500827 1.000000 77 70 66 255
92.039230 -33.689262 -49.182995 0.954335 0.055241 0.293587 0.419426 1.000000 64 62 60 255
92.998627 -33.491440 -52.338833 0.954335 0.055241 0.293587 0.421824 1.000000 64 62 60 255
93.280731 -37.354813 -52.204056 0.180807 0.959878 -0.214343 0.375000 1.000000 0 255 28 255
94.959198 -37.579411 -51.794006 0.180807 0.959878 -0.214343 0.463687 0.250000 0 255 28 255
93.788589 -38.133049 -55.260788 0.180807 0.959878 -0.214343 0.463687 0.250000 0 255 28 255
94.959198 -37.579411 -51.794006 -0.948599 0.060497 0.310646 0.463687 0.250000 102 88 81 255
95.274857 -33.157993 -51.691151 -0.948599 0.060497 0.310646 0.463687 0.250000 102 88 81 255
93.917007 -36.707718 -55.146233 -0.948599 0.060497 0.310646 0.463687 0.250000 102 88 81 255
92.522629 -26.973015 -52.566238 0.916184 0.053045 -0.397232 0.500827 1.000000 77 70 66 255
92.998627 -33.491440 -52.338833 0.916184 0.053045 -0.397232 0.421824 1.000000 64 62 60 255
91.083252 -31.864033 -56.539173 0.916184 0.053045 -0.397232 0.445818 1.000000 68 65 62 255
89.047203 -32.288628 -44.993412 0.297592 0.089490 -0.950490 0.463687 0.250000 102 88 81 255
89.117783 -35.652534 -45.288033 0.297592 0.089490 -0.950490 0.463687 0.250000 102 88 81 255
88.260498 -36.745262 -45.659325 0.297592 0.089490 -0.950490 0.463687 0.250000 102 88 81 255
91.984360 -32.288574 -45.799370 -0.359025 0.073134 -0.930458 0.463687 0.250000 102 88 81 255
93.999115 -28.130550 -46.249958 -0.359025 0.073134 -0.930458 0.463687 0.250000 102 88 81 255
93.607346 -37.579411 -46.841473 -0.359025 0.073134 -0.930458 0.463687 0.250000 102 88 81 255
91.692078 -35.652592 -46.009750 -0.173817 0.239542 -0.955200 0.463687 0.250000 102 88 81 255
93.607346 -37.579411 -46.841473 -0.173817 0.239542 -0.955200 0.463687 0.250000 102 88 81 255
88.260498 -36.745262 -45.659325 -0.173817 0.239542 -0.955200 0.463687 0.250000 102 88 81 255
91.984360 -32.288574 -45.799370 -0.264321 -0.047406 -0.963269 0.463687 0.250000 102 88 81 255
89.047203 -32.288628 -44.993412 -0.264321 -0.047406 -0.963269 0.463687 0.250000 102 88 81 255
88.165787 -28.130550 -44.956184 -0.264321 -0.047406 -0.963269 0.463687 0.250000 102 88 81 255
94.752144 -33.973053 -48.709652 -0.952404 0.171929 -0.251728 0.463687 0.250000 102 88 81 255
94.469467 -36.196918 -49.159042 -0.952404 0.171929 -0.251728 0.463687 0.250000 102 88 81 255
93.607346 -37.579411 -46.841473 -0.952404 0.171929 -0.251728 0.463687 0.250000 102 88 81 255
94.959198 -37.579411 -51.794006 -0.937422 0.074836 -0.340058 0.463687 0.250000 102 88 81 255
94.749245 -35.747940 -50.812187 -0.937422 0.074836 -0.340058 0.463687 0.250000 102 88 81 255
95.274857 -33.157993 -51.691151 -0.937422 0.074836 -0.340058 0.463687 0.250000 102 88 81 255
94.749245 -35.747940 -50.812187 -0.969554 0.227506 0.090583 0.463687 0.250000 102 88 81 255
95.286301 -33.528603 -50.637844 -0.969554 0.227506 0.090583 0.463687 0.250000 102 88 81 255
95.274857 -33.157993 -51.691151 -0.969554 0.227506 0.090583 0.463687 0.250000 102 88 81 255
94.469467 -36.196918 -49.159042 -0.984838 -0.020555 -0.172256 0.463687 0.250000 102 88 81 255
94.749245 -35.747940 -50.812187 -0.984838 -0.020555 -0.172256 0.463687 0.250000 102 88 81 255
94.959198 -37.579411 -51.794006 -0.984838 -0.020555 -0.172256 0.463687 0.250000 102 88 81 255
94.752144 -33.973053 -48.709652 -0.955959 0.000353 -0.293502 0.463687 0.250000 102 88 81 255
93.999115 -28.130550 -46.249958 -0.955959 0.000353 -0.293502 0.463687 0.250000 102 88 81 255
95.633781 -28.130550 -51.574200 -0.955959 0.000353 -0.293502 0.463687 0.250000 102 88 81 255
89.117783 -35.652534 -45.288033 0.939449 0.049411 -0.339108 0.463687 0.250000 102 88 81 255
89.047203 -32.288628 -44.993412 0.939449 0.049411 -0.339108 0.463687 0.250000 102 88 81 255
90.067856 -33.428268 -42.331898 0.939449 0.049411 -0.339108 0.463687 0.250000 68 59 54 255
89.047203 -32.288628 -44.993412 -0.106453 -0.915488 -0.388007 0.463687 0.250000 102 88 81 255
91.984360 -32.288574 -45.799370 -0.106453 -0.915488 -0.388007 0.463687 0.250000 102 88 81 255
92.084335 -33.428215 -43.137856 -0.106453 -0.915488 -0.388007 0.463687 0.250000 68 59 54 255
93.300697 -35.901947 -41.455185 -0.066517 0.996836 -0.043520 0.463687 0.250000 68 59 54 255
92.475220 -35.901890 -40.192196 -0.066517 0.996836 -0.043520 0.463687 0.250000 68 59 54 255
95.935440 -35.652534 -39.769352 -0.066517 0.996836 -0.043520 0.463687 0.250000 68 59 54 255
92.506889 -33.677624 -40.036263 0.108271 0.053804 -0.992664 0.463687 0.250000 69 61 56 255
96.069359 -33.428268 -39.634186 0.108271 0.053804 -0.992664 0.463687 0.250000 68 59 54 255
95.935440 -35.652534 -39.769352 0.108271 0.053804 -0.992664 0.463687 0.250000 68 59 54 255
93.547493 -33.677570 -41.524551 0.042433 0.026438 0.998749 0.463687 0.250000 101 94 89 255
93.300697 -35.901947 -41.455185 0.042433 0.026438 0.998749 0.463687 0.250000 68 59 54 255
95.932762 -35.652592 -41.573612 0.042433 0.026438 0.998749 0.463687 0.250000 68 59 54 255
93.547493 -33.677570 -41.524551 0.096264 -0.995352 0.002845 0.463687 0.250000 101 94 89 255
96.134071 -33.428215 -41.804806 0.096264 -0.995352 0.002845 0.463687 0.250000 105 98 94 255
96.069359 -33.428268 -39.634186 0.096264 -0.995352 0.002845 0.463687 0.250000 68 59 54 255
98.426453 -34.057884 -42.794456 0.896035 0.037823 0.442370 0.463687 0.250000 85 76 71 255
98.396011 -36.282265 -42.542610 0.896035 0.037823 0.442370 0.463687 0.250000 68 59 54 255
99.449158 -35.652592 -44.729630 0.896035 0.037823 0.442370 0.463687 0.250000 68 59 54 255
98.426453 -34.057884 -42.794456 0.101674 -0.966645 -0.235072 0.463687 0.250000 85 76 71 255
99.308731 -33.428215 -45.002125 0.101674 -0.966645 -0.235072 0.463687 0.250000 68 59 54 255
101.301788 -33.428268 -44.139862 0.101674 -0.966645 -0.235072 0.463687 0.250000 105 98 94 255
98.396011 -36.282265 -42.542610 -0.163865 0.980162 0.111491 0.463687 0.250000 68 59 54 255
99.236122 -36.282207 -41.308353 -0.163865 0.980162 0.111491 0.463687 0.250000 73 64 59 255
101.126694 -35.652534 -44.065372 -0.163865 0.980162 0.111491 0.463687 0.250000 72 62 57 255
99.390625 -34.057941 -41.278015 -0.835465 0.047433 -0.547493 0.463687 0.250000 68 59 54 255
101.301788 -33.428268 -44.139862 -0.835465 0.047433 -0.547493 0.463687 0.250000 105 98 94 255
101.126694 -35.652534 -44.065372 -0.835465 0.047433 -0.547493 0.463687 0.250000 72 62 57 255
98.915413 -33.604317 -46.483452 0.341569 -0.005891 -0.939838 0.463687 0.250000 85 74 68 255
99.132652 -35.828693 -46.390556 0.341569 -0.005891 -0.939838 0.463687 0.250000 85 74 68 255
96.973061 -35.652592 -47.176529 0.341569 -0.005891 -0.939838 0.463687 0.250000 102 88 81 255
98.915413 -33.604317 -46.483452 -0.066273 -0.996784 -0.045060 0.463687 0.250000 85 74 68 255
96.679024 -33.428215 -47.089825 -0.066273 -0.996784 -0.045060 0.463687 0.250000 102 88 81 255
97.900574 -33.428268 -48.885262 -0.066273 -0.996784 -0.045060 0.463687 0.250000 102 88 81 255
99.132652 -35.828693 -46.390556 0.021123 0.997648 0.065218 0.463687 0.250000 85 74 68 255
100.455299 -35.828636 -46.819809 0.021123 0.997648 0.065218 0.463687 0.250000 87 75 69 255
97.940826 -35.652534 -48.699291 0.021123 0.997648 0.065218 0.463687 0.250000 102 88 81 255
100.522720 -33.604370 -46.950039 -0.590400 0.056631 0.805121 0.463687 0.250000 85 74 68 255
97.900574 -33.428268 -48.885262 -0.590400 0.056631 0.805121 0.463687 0.250000 102 88 81 255
97.940826 -35.652534 -48.699291 -0.590400 0.056631 0.805121 0.463687 0.250000 102 88 81 255
94.752144 -33.973053 -48.709652 0.157956 -0.970895 -0.180035 0.463687 0.250000 102 88 81 255
95.286301 -33.528603 -50.637844 0.157956 -0.970895 -0.180035 0.463687 0.250000 102 88 81 255
97.900574 -33.428268 -48.885262 0.157956 -0.970895 -0.180035 0.463687 0.250000 102 88 81 255
94.752144 -33.973053 -48.709652 0.620619 0.112288 -0.776031 0.463687 0.250000 102 88 81 255
96.679024 -33.428215 -47.089825 0.620619 0.112288 -0.776031 0.463687 0.250000 102 88 81 255
96.973061 -35.652592 -47.176529 0.620619 0.112288 -0.776031 0.463687 0.250000 102 88 81 255
94.469467 -36.196918 -49.159042 -0.142573 0.985632 -0.090573 0.463687 0.250000 102 88 81 255
96.973061 -35.652592 -47.176529 -0.142573 0.985632 -0.090573 0.463687 0.250000 102 88 81 255
97.940826 -35.652534 -48.699291 -0.142573 0.985632 -0.090573 0.463687 0.250000 102 88 81 255
97.940826 -35.652534 -48.699291 -0.557430 0.059151 0.828114 0.463687 0.250000 102 88 81 255
97.900574 -33.428268 -48.885262 -0.557430 0.059151 0.828114 0.463687 0.250000 102 88 81 255
95.286301 -33.528603 -50.637844 -0.557430 0.059151 0.828114 0.463687 0.250000 102 88 81 255
92.084335 -33.428215 -43.137856 -0.095554 -0.993177 -0.066846 0.463687 0.250000 68 59 54 255
93.547493 -33.677570 -41.524551 -0.095554 -0.993177 -0.066846 0.463687 0.250000 101 94 89 255
92.506889 -33.677624 -40.036263 -0.095554 -0.993177 -0.066846 0.463687 0.250000 69 61 56 255
91.792053 -35.652592 -43.230312 -0.750651 0.103634 0.652520 0.463687 0.250000 68 59 54 255
93.300697 -35.901947 -41.455185 -0.750651 0.103634 0.652520 0.463687 0.250000 68 59 54 255
93.547493 -33.677570 -41.524551 -0.750651 0.103634 0.652520 0.463687 0.250000 101 94 89 255
90.138428 -35.652534 -42.508595 0.687505 0.079158 -0.721852 0.463687 0.250000 68 59 54 255
90.067856 -33.428268 -42.331898 0.687505 0.079158 -0.721852 0.463687 0.250000 68 59 54 255
92.506889 -33.677624 -40.036263 0.687505 0.079158 -0.721852 0.463687 0.250000 69 61 56 255
91.792053 -35.652592 -43.230312 0.032536 0.996692 0.074469 0.463687 0.250000 68 59 54 255
90.138428 -35.652534 -42.508595 0.032536 0.996692 0.074469 0.463687 0.250000 68 59 54 255
92.475220 -35.901890 -40.192196 0.032536 0.996692 0.074469 0.463687 0.250000 68 59 54 255
95.935440 -35.652534 -39.769352 -0.429837 0.080530 -0.899308 0.463687 0.250000 68 59 54 255
96.069359 -33.428268 -39.634186 -0.429837 0.080530 -0.899308 0.463687 0.250000 68 59 54 255
99.390625 -34.057941 -41.278015 -0.429837 0.080530 -0.899308 0.463687 0.250000 68 59 54 255
95.932762 -35.652592 -41.573612 0.187252 0.982312 -0.000309 0.463687 0.250000 68 59 54 255
95.935440 -35.652534 -39.769352 0.187252 0.982312 -0.000309 0.463687 0.250000 68 59 54 255
99.236122 -36.282207 -41.308353 0.187252 0.982312 -0.000309 0.463687 0.250000 73 64 59 255
96.134071 -33.428215 -41.804806 -0.208831 -0.968901 0.132741 0.463687 0.250000 105 98 94 255
98.426453 -34.057884 -42.794456 -0.208831 -0.968901 0.132741 0.463687 0.250000 85 76 71 255
99.390625 -34.057941 -41.278015 -0.208831 -0.968901 0.132741 0.463687 0.250000 68 59 54 255
95.932762 -35.652592 -41.573612 0.386011 0.098565 0.917213 0.463687 0.250000 68 59 54 255
98.396011 -36.282265 -42.542610 0.386011 0.098565 0.917213 0.463687 0.250000 68 59 54 255
98.426453 -34.057884 -42.794456 0.386011 0.098565 0.917213 0.463687 0.250000 85 76 71 255
101.126694 -35.652534 -44.065372 -0.961561 0.084445 0.261283 0.463687 0.250000 72 62 57 255
101.301788 -33.428268 -44.139862 -0.961561 0.084445 0.261283 0.463687 0.250000 105 98 94 255
100.522720 -33.604370 -46.950039 -0.961561 0.084445 0.261283 0.463687 0.250000 85 74 68 255
99.449158 -35.652592 -44.729630 0.027902 0.997118 -0.070551 0.463687 0.250000 68 59 54 255
101.126694 -35.652534 -44.065372 0.027902 0.997118 -0.070551 0.463687 0.250000 72 62 57 255
100.455299 -35.828636 -46.819809 0.027902 0.997118 -0.070551 0.463687 0.250000 87 75 69 255
99.308731 -33.428215 -45.002125 0.031800 -0.993460 0.109660 0.463687 0.250000 68 59 54 255
98.915413 -33.604317 -46.483452 0.031800 -0.993460 0.109660 0.463687 0.250000 85 74 68 255
100.522720 -33.604370 -46.950039 0.031800 -0.993460 0.109660 0.463687 0.250000 85 74 68 255
99.449158 -35.652592 -44.729630 0.976837 0.087241 -0.195395 0.463687 0.250000 68 59 54 255
99.132652 -35.828693 -46.390556 0.976837 0.087241 -0.195395 0.463687 0.250000 85 74 68 255
98.915413 -33.604317 -46.483452 0.976837 0.087241 -0.195395 0.463687 0.250000 85 74 68 255
93.255325 -38.385254 -56.840061 -0.948488 0.067527 0.309534 0.463687 0.250000 102 88 81 255
93.279724 -38.373714 -56.767815 -0.948488 0.067527 0.309534 0.463687 0.250000 102 88 81 255
93.380669 -36.563316 -56.853447 -0.948488 0.067527 0.309534 0.463687 0.250000 102 88 81 255
93.279724 -38.373714 -56.767815 -0.950217 0.067372 0.304219 0.463687 0.250000 102 88 81 255
93.917007 -36.707718 -55.146233 -0.950217 0.067372 0.304219 0.463687 0.250000 102 88 81 255
93.380669 -36.563316 -56.853447 -0.950217 0.067372 0.304219 0.463687 0.250000 102 88 81 255
93.788589 -38.133049 -55.260788 -0.457516 0.889114 0.012466 0.463687 0.250000 0 255 28 255
93.279724 -38.373714 -56.767815 -0.457516 0.889114 0.012466 0.463687 0.250000 0 255 28 255
93.255325 -38.385254 -56.840061 -0.457516 0.889114 0.012466 0.463687 0.250000 0 255 28 255
93.529816 -34.395329 -56.869377 -0.950246 0.067607 0.304076 0.463687 0.250000 102 88 81 255
93.380669 -36.563316 -56.853447 -0.950246 0.067607 0.304076 0.463687 0.250000 102 88 81 255
94.027267 -35.657265 -55.034252 -0.950246 0.067607 0.304076 0.463687 0.250000 102 88 81 255
94.027267 -35.657265 -55.034252 -0.950200 0.067300 0.304286 0.463687 0.250000 102 88 81 255
93.917007 -36.707718 -55.146233 -0.950200 0.067300 0.304286 0.463687 0.250000 102 88 81 255
95.274857 -33.157993 -51.691151 -0.950200 0.067300 0.304286 0.463687 0.250000 102 88 81 255
95.274857 -33.157993 -51.691151 -0.952503 0.061062 0.298343 0.463687 0.250000 102 88 81 255
95.633781 -28.130550 -51.574200 -0.952503 0.061062 0.298343 0.463687 0.250000 102 88 81 255
93.960808 -28.130550 -56.915413 -0.952503 0.061062 0.298343 0.463687 0.250000 102 88 81 255
92.998627 -33.491440 -52.338833 0.923935 0.054255 -0.378682 0.421824 1.000000 64 62 60 255
93.280731 -37.354813 -52.204056 0.923935 0.054255 -0.378682 0.375000 1.000000 57 58 56 255
91.555977 -38.160656 -56.527687 0.923935 0.054255 -0.378682 0.375000 1.000000 57 58 56 255
88.443077 -32.976788 -48.232513 -0.518116 0.114569 0.847602 0.421704 1.000000 64 62 60 255
86.182297 -31.080276 -49.870815 -0.518116 0.114569 0.847602 0.420874 1.000000 64 62 60 255
85.919998 -33.436882 -49.712612 -0.518116 0.114569 0.847602 0.375000 1.000000 57 58 56 255
86.182297 -31.080276 -49.870815 -0.661475 0.128523 0.738873 0.420874 1.000000 64 62 60 255
82.979004 -30.117611 -52.906010 -0.661475 0.128523 0.738873 0.439614 1.000000 67 64 61 255
82.716751 -33.436882 -52.563419 -0.661475 0.128523 0.738873 0.375000 1.000000 57 58 56 255
92.039230 -33.689262 -49.182995 0.268735 0.075377 0.960260 0.419426 1.000000 64 62 60 255
88.443077 -32.976788 -48.232513 0.268735 0.075377 0.960260 0.421704 1.000000 64 62 60 255
88.361526 -36.520664 -47.931511 0.268735 0.075377 0.960260 0.375000 1.000000 57 58 56 255
3 0 1 2
3 3 4 5
3 6 7 8
3 9 10 11
3 12 13 14
3 15 16 17
3 18 19 20
3 21 22 23
3 24 25 26
3 27 28 29
3 30 31 32
3 33 34 35
3 36 37 38
3 39 40 41
3 42 43 44
3 45 46 47
3 48 49 50
3 51 52 53
3 54 55 56
3 57 58 59
3 60 61 62
3 63 64 65
3 66 67 68
3 69 70 71
3 72 73 74
3 75 76 77
3 78 79 80
3 81 82 83
3 84 85 86
3 87 88 89
3 90 91 92
3 93 94 95
3 96 97 98
3 99 100 101
3 102 103 104
3 105 106 107
3 108 109 110
3 111 112 113
3 114 115 116
3 117 118 119
3 120 121 122
3 123 124 125
3 126 127 128
3 129 130 131
3 132 133 134
3 135 136 137
3 138 139 140
3 141 142 143
3 144 145 146
3 147 148 149
3 150 151 152
3 153 154 155
3 156 157 158
3 159 160 161
3 162 163 164
3 165 166 167
3 168 169 170
3 171 172 173
3 174 175 176
3 177 178 179
3 180 181 182
3 183 184 185
3 186 187 188
3 189 190 191
3 192 193 194
3 195 196 197
3 198 199 200
3 201 202 203
3 3 204 4
3 205 206 207
3 208 209 210
3 211 212 213
3 214 215 216
3 217 218 219
3 220 221 222
3 223 224 225
3 226 227 228
3 229 230 231
3 232 233 234
3 235 236 237
3 238 239 240
3 241 242 243
3 244 245 246
3 247 248 249
3 250 251 252
3 253 254 255
3 256 257 258
3 259 260 261
3 262 263 264
3 265 266 267
3 268 269 270
3 271 272 273
3 274 275 276
3 277 278 279
3 280 281 282
3 283 284 285
3 286 287 288
3 289 290 291
3 292 293 294
3 295 296 297
3 298 299 300
3 301 302 303
3 304 305 306
3 307 308 309
3 310 311 312
3 313 314 315
3 316 317 318
3 319 320 321
3 322 323 324
3 325 326 327
3 328 329 330
3 331 332 333
3 334 335 336
3 337 338 339
3 340 341 342
3 343 344 345
3 346 347 348
3 349 350 351
3 352 353 354
3 355 356 357
3 358 359 360
3 361 362 363
3 364 365 366
3 367 368 369
3 370 371 372
3 373 374 375
3 376 377 378
3 379 380 381
3 382 383 384
3 385 386 387
3 388 389 390
3 391 392 393
3 394 395 396
3 397 398 399
3 400 401 402
