ply
format ascii 1.0
comment Created by Blender 2.92.0 - www.blender.org
element vertex 110
property float x
property float y
property float z
property float nx
property float ny
property float nz
property float s
property float t
property uchar red
property uchar green
property uchar blue
property uchar alpha
element face 40
property list uchar uint vertex_indices
end_header
102.952423 -38.920368 -61.405388 0.996971 0.066383 0.040522 0.375000 1.000000 0 255 28 255
103.127930 -42.370575 -60.071304 0.996971 0.066383 0.040522 0.463687 0.250000 0 255 28 255
103.233330 -42.145981 -63.032394 0.996971 0.066383 0.040522 0.375000 1.000000 0 255 28 255
101.488739 -35.038551 -60.054672 0.428256 0.097780 -0.898352 0.463687 0.250000 102 88 81 255
103.016533 -31.356161 -58.925549 0.428256 0.097780 -0.898352 0.463687 0.250000 102 88 81 255
103.086395 -38.264160 -59.644135 0.428256 0.097780 -0.898352 0.463687 0.250000 102 88 81 255
102.952423 -38.920368 -61.405388 0.998170 -0.059470 0.010970 0.375000 1.000000 57 58 56 255
103.503067 -30.198627 -64.227219 0.998170 -0.059470 0.010970 0.500827 1.000000 77 70 66 255
103.669052 -26.973015 -61.843967 0.998170 -0.059470 0.010970 0.500827 1.000000 77 70 66 255
101.694427 -39.144966 -60.220974 0.325612 0.101086 -0.940084 0.463687 0.250000 102 88 81 255
103.086395 -38.264160 -59.644135 0.325612 0.101086 -0.940084 0.463687 0.250000 102 88 81 255
103.127930 -42.370575 -60.071304 0.325612 0.101086 -0.940084 0.463687 0.250000 102 88 81 255
103.233330 -42.145981 -63.032394 0.540302 0.071649 0.838415 0.375000 1.000000 57 58 56 255
107.134850 -34.906456 -66.165337 0.540302 0.071649 0.838415 0.500827 1.000000 77 70 66 255
103.503067 -30.198627 -64.227219 0.540302 0.071649 0.838415 0.500827 1.000000 77 70 66 255
103.086395 -38.264160 -59.644135 0.351679 0.152772 -0.923571 0.463687 0.250000 102 88 81 255
108.144104 -36.063992 -57.354309 0.351679 0.152772 -0.923571 0.463687 0.250000 102 88 81 255
108.011719 -42.971992 -58.547405 0.351679 0.152772 -0.923571 0.463687 0.250000 102 88 81 255
103.127930 -42.370575 -60.071304 0.311671 0.155916 -0.937311 0.463687 0.250000 102 88 81 255
108.011719 -42.971992 -58.547405 0.311671 0.155916 -0.937311 0.463687 0.250000 102 88 81 255
107.933022 -47.078407 -59.256649 0.311671 0.155916 -0.937311 0.463687 0.250000 102 88 81 255
103.127930 -42.370575 -60.071304 0.773309 0.629545 0.075276 0.463687 0.250000 0 255 28 255
107.182182 -46.853806 -64.226631 0.773309 0.629545 0.075276 0.375000 1.000000 0 255 28 255
103.233330 -42.145981 -63.032394 0.773309 0.629545 0.075276 0.375000 1.000000 0 255 28 255
107.182182 -46.853806 -64.226631 0.047779 0.998139 0.037889 0.375000 1.000000 0 255 28 255
113.684273 -47.303528 -60.578495 0.047779 0.998139 0.037889 0.463687 0.250000 0 255 28 255
112.933434 -47.078930 -65.548477 0.047779 0.998139 0.037889 0.375000 1.000000 0 255 28 255
107.182182 -46.853806 -64.226631 0.227051 0.156869 0.961166 0.375000 1.000000 57 58 56 255
112.886093 -35.131577 -67.487183 0.227051 0.156869 0.961166 0.500827 1.000000 77 70 66 255
107.134850 -34.906456 -66.165337 0.227051 0.156869 0.961166 0.500827 1.000000 77 70 66 255
108.011719 -42.971992 -58.547405 -0.214394 0.170223 -0.961800 0.463687 0.250000 102 88 81 255
113.895355 -36.289112 -58.676155 -0.214394 0.170223 -0.961800 0.463687 0.250000 102 88 81 255
113.762970 -43.197113 -59.869251 -0.214394 0.170223 -0.961800 0.463687 0.250000 102 88 81 255
107.933022 -47.078407 -59.256649 -0.214393 0.170227 -0.961800 0.463687 0.250000 102 88 81 255
113.762970 -43.197113 -59.869251 -0.214393 0.170227 -0.961800 0.463687 0.250000 102 88 81 255
113.684273 -47.303528 -60.578495 -0.214393 0.170227 -0.961800 0.463687 0.250000 102 88 81 255
112.933434 -47.078930 -65.548477 0.055542 0.997782 0.036700 0.375000 1.000000 0 255 28 255
119.188583 -47.566162 -61.768478 0.055542 0.997782 0.036700 0.463687 0.250000 0 255 28 255
118.437737 -47.341560 -66.738464 0.055542 0.997782 0.036700 0.375000 1.000000 0 255 28 255
112.933434 -47.078930 -65.548477 0.215842 0.157233 0.963686 0.375000 1.000000 57 58 56 255
118.390396 -35.394211 -68.677162 0.215842 0.157233 0.963686 0.500827 1.000000 77 70 66 255
112.886093 -35.131577 -67.487183 0.215842 0.157233 0.963686 0.500827 1.000000 77 70 66 255
113.762970 -43.197113 -59.869251 -0.200439 0.170467 -0.964762 0.463687 0.250000 102 88 81 255
119.399658 -36.551746 -59.866135 -0.200439 0.170467 -0.964762 0.463687 0.250000 102 88 81 255
119.267273 -43.459747 -61.059231 -0.200439 0.170467 -0.964762 0.463687 0.250000 102 88 81 255
113.684273 -47.303528 -60.578495 -0.200439 0.170472 -0.964761 0.463687 0.250000 102 88 81 255
119.267273 -43.459747 -61.059231 -0.200439 0.170472 -0.964761 0.463687 0.250000 102 88 81 255
119.188583 -47.566162 -61.768478 -0.200439 0.170472 -0.964761 0.463687 0.250000 102 88 81 255
118.437737 -47.341560 -66.738464 0.049926 0.998046 0.037561 0.375000 1.000000 0 255 28 255
124.611069 -47.791283 -62.994274 0.049926 0.998046 0.037561 0.463687 0.250000 0 255 28 255
123.860229 -47.566681 -67.964256 0.049926 0.998046 0.037561 0.375000 1.000000 0 255 28 255
118.437737 -47.341560 -66.738464 0.223957 0.156971 0.961875 0.375000 1.000000 57 58 56 255
123.812889 -35.619331 -69.902962 0.223957 0.156971 0.961875 0.500827 1.000000 77 70 66 255
118.390396 -35.394211 -68.677162 0.223957 0.156971 0.961875 0.500827 1.000000 77 70 66 255
119.267273 -43.459747 -61.059231 -0.210543 0.170294 -0.962638 0.463687 0.250000 102 88 81 255
124.822144 -36.776863 -61.091934 -0.210543 0.170294 -0.962638 0.463687 0.250000 102 88 81 255
124.689758 -43.684868 -62.285030 -0.210543 0.170294 -0.962638 0.463687 0.250000 102 88 81 255
119.188583 -47.566162 -61.768478 -0.210542 0.170297 -0.962637 0.463687 0.250000 102 88 81 255
124.689758 -43.684868 -62.285030 -0.210542 0.170297 -0.962637 0.463687 0.250000 102 88 81 255
124.611069 -47.791283 -62.994274 -0.210542 0.170297 -0.962637 0.463687 0.250000 102 88 81 255
102.952423 -38.920368 -61.405388 0.621881 0.309745 0.719251 0.375000 1.000000 0 255 28 255
101.694427 -39.144966 -60.220974 0.621881 0.309745 0.719251 0.463687 0.250000 0 255 28 255
103.127930 -42.370575 -60.071304 0.621881 0.309745 0.719251 0.463687 0.250000 0 255 28 255
101.488739 -35.038551 -60.054672 0.495844 0.059923 -0.866342 0.463687 0.250000 102 88 81 255
101.142708 -28.130550 -59.774910 0.495844 0.059923 -0.866342 0.463687 0.250000 102 88 81 255
103.016533 -31.356161 -58.925549 0.495844 0.059923 -0.866342 0.463687 0.250000 102 88 81 255
102.952423 -38.920368 -61.405388 0.983926 -0.004361 0.178523 0.375000 1.000000 57 58 56 255
103.233330 -42.145981 -63.032394 0.983926 -0.004361 0.178523 0.375000 1.000000 57 58 56 255
103.503067 -30.198627 -64.227219 0.983926 -0.004361 0.178523 0.500827 1.000000 77 70 66 255
101.694427 -39.144966 -60.220974 0.352086 0.055474 -0.934322 0.463687 0.250000 102 88 81 255
101.488739 -35.038551 -60.054672 0.352086 0.055474 -0.934322 0.463687 0.250000 102 88 81 255
103.086395 -38.264160 -59.644135 0.352086 0.055474 -0.934322 0.463687 0.250000 102 88 81 255
103.233330 -42.145981 -63.032394 0.441210 0.145445 0.885539 0.375000 1.000000 57 58 56 255
107.182182 -46.853806 -64.226631 0.441210 0.145445 0.885539 0.375000 1.000000 57 58 56 255
107.134850 -34.906456 -66.165337 0.441210 0.145445 0.885539 0.500827 1.000000 77 70 66 255
103.086395 -38.264160 -59.644135 0.374070 0.099694 -0.922027 0.463687 0.250000 102 88 81 255
103.016533 -31.356161 -58.925549 0.374070 0.099694 -0.922027 0.463687 0.250000 102 88 81 255
108.144104 -36.063992 -57.354309 0.374070 0.099694 -0.922027 0.463687 0.250000 102 88 81 255
103.127930 -42.370575 -60.071304 0.307701 0.101525 -0.946051 0.463687 0.250000 102 88 81 255
103.086395 -38.264160 -59.644135 0.307701 0.101525 -0.946051 0.463687 0.250000 102 88 81 255
108.011719 -42.971992 -58.547405 0.307701 0.101525 -0.946051 0.463687 0.250000 102 88 81 255
103.127930 -42.370575 -60.071304 0.704312 0.705971 -0.074500 0.463687 0.250000 0 255 28 255
107.933022 -47.078407 -59.256649 0.704312 0.705971 -0.074500 0.463687 0.250000 0 255 28 255
107.182182 -46.853806 -64.226631 0.704312 0.705971 -0.074500 0.375000 1.000000 0 255 28 255
107.182182 -46.853806 -64.226631 0.047778 0.998139 0.037889 0.375000 1.000000 0 255 28 255
107.933022 -47.078407 -59.256649 0.047778 0.998139 0.037889 0.463687 0.250000 0 255 28 255
113.684273 -47.303528 -60.578495 0.047778 0.998139 0.037889 0.463687 0.250000 0 255 28 255
112.933434 -47.078930 -65.548477 0.227051 0.156869 0.961166 0.375000 1.000000 57 58 56 255
108.011719 -42.971992 -58.547405 -0.214393 0.170223 -0.961800 0.463687 0.250000 102 88 81 255
108.144104 -36.063992 -57.354309 -0.214393 0.170223 -0.961800 0.463687 0.250000 102 88 81 255
113.895355 -36.289112 -58.676155 -0.214393 0.170223 -0.961800 0.463687 0.250000 102 88 81 255
108.011719 -42.971992 -58.547405 -0.214393 0.170227 -0.961800 0.463687 0.250000 102 88 81 255
112.933434 -47.078930 -65.548477 0.055543 0.997782 0.036700 0.375000 1.000000 0 255 28 255
113.684273 -47.303528 -60.578495 0.055543 0.997782 0.036700 0.463687 0.250000 0 255 28 255
119.188583 -47.566162 -61.768478 0.055543 0.997782 0.036700 0.463687 0.250000 0 255 28 255
112.933434 -47.078930 -65.548477 0.215843 0.157233 0.963685 0.375000 1.000000 57 58 56 255
118.437737 -47.341560 -66.738464 0.215843 0.157233 0.963685 0.375000 1.000000 57 58 56 255
118.390396 -35.394211 -68.677162 0.215843 0.157233 0.963685 0.500827 1.000000 77 70 66 255
113.895355 -36.289112 -58.676155 -0.200439 0.170467 -0.964762 0.463687 0.250000 102 88 81 255
113.684273 -47.303528 -60.578495 -0.200439 0.170471 -0.964761 0.463687 0.250000 102 88 81 255
113.762970 -43.197113 -59.869251 -0.200439 0.170471 -0.964761 0.463687 0.250000 102 88 81 255
119.267273 -43.459747 -61.059231 -0.200439 0.170471 -0.964761 0.463687 0.250000 102 88 81 255
119.188583 -47.566162 -61.768478 0.049926 0.998046 0.037561 0.463687 0.250000 0 255 28 255
118.437737 -47.341560 -66.738464 0.223955 0.156972 0.961875 0.375000 1.000000 57 58 56 255
123.860229 -47.566681 -67.964256 0.223955 0.156972 0.961875 0.375000 1.000000 57 58 56 255
123.812889 -35.619331 -69.902962 0.223955 0.156972 0.961875 0.500827 1.000000 77 70 66 255
119.399658 -36.551746 -59.866135 -0.210543 0.170294 -0.962638 0.463687 0.250000 102 88 81 255
119.188583 -47.566162 -61.768478 -0.210542 0.170298 -0.962637 0.463687 0.250000 102 88 81 255
119.267273 -43.459747 -61.059231 -0.210542 0.170298 -0.962637 0.463687 0.250000 102 88 81 255
124.689758 -43.684868 -62.285030 -0.210542 0.170298 -0.962637 0.463687 0.250000 102 88 81 255
3 0 1 2
3 3 4 5
3 6 7 8
3 9 10 11
3 12 13 14
3 15 16 17
3 18 19 20
3 21 22 23
3 24 25 26
3 27 28 29
3 30 31 32
3 33 34 35
3 36 37 38
3 39 40 41
3 42 43 44
3 45 46 47
3 48 49 50
3 51 52 53
3 54 55 56
3 57 58 59
3 60 61 62
3 63 64 65
3 66 67 68
3 69 70 71
3 72 73 74
3 75 76 77
3 78 79 80
3 81 82 83
3 84 85 86
3 27 87 28
3 88 89 90
3 33 91 34
3 92 93 94
3 95 96 97
3 42 98 43
3 99 100 101
3 48 102 49
3 103 104 105
3 54 106 55
3 107 108 109
