ply
format ascii 1.0
comment Created by Blender 2.92.0 - www.blender.org
element vertex 478
property float x
property float y
property float z
property float nx
property float ny
property float nz
property float s
property float t
property uchar red
property uchar green
property uchar blue
property uchar alpha
element face 188
property list uchar uint vertex_indices
end_header
3.000000 -5.476122 -3.000000 0.119260 0.078482 0.989756 0.375000 1.000000 97 82 75 255
8.412150 -3.560441 -3.804037 0.119260 0.078482 0.989756 0.481672 1.000000 97 82 75 255
2.575114 -2.545823 -3.181159 0.119260 0.078482 0.989756 0.495116 1.000000 97 82 75 255
0.320651 -2.594006 -3.872454 -0.000000 0.007129 0.999975 0.508734 0.912489 97 82 75 255
1.371693 0.622794 -3.895387 -0.000000 0.007129 0.999975 0.625000 1.000000 97 82 75 255
-5.813660 0.622794 -3.895387 -0.000000 0.007129 0.999975 0.625000 0.750000 97 82 75 255
8.001423 -0.104246 2.030885 -0.305393 0.113776 -0.945405 0.625000 0.250000 97 82 75 255
8.163523 -3.617657 1.555694 -0.305393 0.113776 -0.945405 0.491857 0.250000 97 82 75 255
3.000000 -5.476122 3.000000 -0.305393 0.113776 -0.945405 0.375000 0.250000 97 82 75 255
3.000000 -5.476122 -3.000000 0.000000 1.000000 0.000000 0.125000 0.750000 0 224 48 255
-3.000000 -5.476122 3.000000 0.000000 1.000000 0.000000 0.375000 0.500000 29 216 52 255
3.000000 -5.476122 3.000000 0.000000 1.000000 0.000000 0.125000 0.500000 3 224 48 255
-3.000000 -5.476122 -3.000000 0.908029 0.418908 0.000000 0.375000 0.750000 97 82 75 255
-5.813660 0.622794 3.633354 0.908029 0.418908 0.000000 0.625000 0.500000 97 82 75 255
-3.000000 -5.476122 3.000000 0.908029 0.418908 0.000000 0.375000 0.500000 99 85 79 255
-3.000000 -5.476122 3.000000 0.000000 0.103292 -0.994651 0.375000 0.500000 99 85 79 255
1.371693 0.622794 3.633354 0.000000 0.103292 -0.994651 0.625000 0.250000 97 82 75 255
3.000000 -5.476122 3.000000 0.000000 0.103292 -0.994651 0.375000 0.250000 97 82 75 255
8.536037 -6.132714 0.956904 0.117778 0.993040 0.000000 0.125000 0.500000 0 224 48 255
3.000000 -5.476122 -3.000000 0.117778 0.993040 0.000000 0.125000 0.750000 0 224 48 255
3.000000 -5.476122 3.000000 0.117778 0.993040 0.000000 0.125000 0.500000 3 224 48 255
14.649120 -0.819587 5.534788 0.473426 0.139473 -0.869721 0.625000 0.250000 97 82 75 255
8.163523 -3.617657 1.555694 0.473426 0.139473 -0.869721 0.491857 0.250000 97 82 75 255
8.001423 -0.104246 2.030885 0.473426 0.139473 -0.869721 0.625000 0.250000 97 82 75 255
8.001423 -0.104246 -4.667081 -0.248299 0.016559 0.968542 0.625000 1.000000 97 82 75 255
8.388749 -3.454979 -4.510499 -0.248299 0.016559 0.968542 0.501821 1.000000 97 82 75 255
10.902423 -3.777735 -3.860567 -0.248299 0.016559 0.968542 0.497483 1.000000 97 82 75 255
9.612438 -6.257985 -1.236938 0.090747 0.995809 0.011381 0.125000 0.639592 0 224 48 255
11.545751 -6.431004 -1.513628 0.090747 0.995809 0.011381 0.125000 0.685089 0 224 48 255
8.536037 -6.132714 -3.614998 0.090747 0.995809 0.011381 0.125000 0.750000 85 129 70 255
18.127735 -7.261613 2.716693 -0.172392 0.441014 -0.880788 0.375000 0.250000 97 82 75 255
14.087078 -6.778740 3.749326 -0.172392 0.441014 -0.880788 0.375000 0.250000 97 82 75 255
14.109032 -4.779586 4.746014 -0.172392 0.441014 -0.880788 0.474059 0.250000 97 82 75 255
22.086590 -7.261613 -3.283307 0.252024 0.052556 0.966293 0.375000 1.000000 97 82 75 255
16.898329 -0.819587 -2.280504 0.252024 0.052556 0.966293 0.625000 1.000000 97 82 75 255
15.965239 -6.778740 -1.713025 0.252024 0.052556 0.966293 0.375000 1.000000 97 82 75 255
15.481524 -6.778740 -0.306211 0.129777 0.990539 0.044622 0.125000 0.685613 0 224 48 255
14.891655 -6.778740 1.409333 0.129777 0.990539 0.044622 0.125000 0.607096 97 82 75 255
18.127735 -7.261613 2.716693 0.129777 0.990539 0.044622 0.125000 0.500000 3 224 48 255
19.488045 -1.354269 3.277864 0.317371 0.016987 -0.948149 0.625000 0.250000 97 82 75 255
20.756172 -7.262935 3.596479 0.317371 0.016987 -0.948149 0.375000 0.250000 97 82 75 255
18.127735 -7.261613 2.716693 0.317371 0.016987 -0.948149 0.375000 0.250000 97 82 75 255
26.810818 -7.262935 3.762487 -0.773139 0.365314 0.518461 0.375000 1.000000 98 83 76 255
24.229008 -1.354269 -4.250877 -0.773139 0.365314 0.518461 0.625000 1.000000 97 82 75 255
22.086590 -7.261613 -3.283307 -0.773139 0.365314 0.518461 0.375000 1.000000 97 82 75 255
20.756172 -7.262935 3.596479 0.000412 1.000000 0.000272 0.125000 0.500000 0 224 48 255
22.086590 -7.261613 -3.283307 0.000412 1.000000 0.000272 0.125000 0.750000 1 224 48 255
18.127735 -7.261613 2.716693 0.000412 1.000000 0.000272 0.125000 0.500000 3 224 48 255
8.412150 -3.560441 -3.804037 0.185339 0.970120 0.156579 0.481672 1.000000 0 224 48 255
2.501482 -2.418427 -3.883308 0.185339 0.970120 0.156579 0.515931 1.000000 0 224 48 255
2.575114 -2.545823 -3.181159 0.185339 0.970120 0.156579 0.495116 1.000000 0 224 48 255
8.001423 -0.104246 -4.667081 0.116142 0.059756 0.991433 0.625000 1.000000 97 82 75 255
2.501482 -2.418427 -3.883308 0.116142 0.059756 0.991433 0.515931 1.000000 97 82 75 255
8.388749 -3.454979 -4.510499 0.116142 0.059756 0.991433 0.501821 1.000000 97 82 75 255
2.575114 -2.545823 -3.181159 -0.077932 0.979476 0.185885 0.495116 1.000000 0 224 48 255
2.501482 -2.418427 -3.883308 -0.077932 0.979476 0.185885 0.515931 1.000000 0 224 48 255
0.320651 -2.594006 -3.872454 -0.077932 0.979476 0.185885 0.508734 0.912489 0 224 48 255
8.388749 -3.454979 -4.510499 0.089266 0.985519 0.144163 0.501821 1.000000 0 224 48 255
8.412150 -3.560441 -3.804037 0.089266 0.985519 0.144163 0.481672 1.000000 0 224 48 255
10.902423 -3.777735 -3.860567 0.089266 0.985519 0.144163 0.497483 1.000000 0 224 48 255
14.087078 -6.778740 3.749326 0.641074 0.336782 -0.689638 0.375000 0.250000 97 82 75 255
12.293752 -4.637356 3.128022 0.641074 0.336782 -0.689638 0.463828 0.250000 97 82 75 255
14.109032 -4.779586 4.746014 0.641074 0.336782 -0.689638 0.474059 0.250000 97 82 75 255
12.691368 -6.854315 3.264930 0.516309 0.039771 -0.855478 0.375000 0.250000 97 82 75 255
10.285189 -6.336279 1.836805 0.516309 0.039771 -0.855478 0.375000 0.250000 97 82 75 255
12.293752 -4.637356 3.128022 0.516309 0.039771 -0.855478 0.463828 0.250000 97 82 75 255
8.536037 -6.132714 0.956904 0.455956 0.091012 -0.885337 0.375000 0.250000 97 82 75 255
9.947112 -4.137025 1.888776 0.455956 0.091012 -0.885337 0.466578 0.250000 97 82 75 255
10.285189 -6.336279 1.836805 0.455956 0.091012 -0.885337 0.375000 0.250000 97 82 75 255
10.285189 -6.336279 1.836805 0.480565 0.094477 -0.871855 0.375000 0.250000 97 82 75 255
9.947112 -4.137025 1.888776 0.480565 0.094477 -0.871855 0.466578 0.250000 97 82 75 255
12.293752 -4.637356 3.128022 0.480565 0.094477 -0.871855 0.463828 0.250000 97 82 75 255
12.293752 -4.637356 3.128022 0.333509 0.895245 -0.295479 0.463828 0.250000 0 224 48 255
8.163523 -3.617657 1.555694 0.333509 0.895245 -0.295479 0.491857 0.250000 0 224 48 255
14.109032 -4.779586 4.746014 0.333509 0.895245 -0.295479 0.474059 0.250000 0 224 48 255
14.891655 -6.778740 1.409333 -0.116856 0.200368 0.972727 0.125000 0.607096 97 82 75 255
11.462316 -5.538507 0.741889 -0.116856 0.200368 0.972727 0.125000 0.561707 97 82 75 255
10.994563 -6.418836 0.867032 -0.116856 0.200368 0.972727 0.125000 0.561707 97 82 75 255
11.919992 -5.548612 -1.234888 0.091408 0.995684 0.016074 0.125000 0.685089 0 224 48 255
10.314670 -5.404945 -1.005139 0.091408 0.995684 0.016074 0.125000 0.639592 0 224 48 255
11.462316 -5.538507 0.741889 0.091408 0.995684 0.016074 0.125000 0.561707 0 224 48 255
10.314670 -5.404945 -1.005139 -0.103455 0.339234 -0.934996 0.125000 0.639592 97 82 75 255
11.545751 -6.431004 -1.513628 -0.103455 0.339234 -0.934996 0.125000 0.685089 97 82 75 255
9.612438 -6.257985 -1.236938 -0.103455 0.339234 -0.934996 0.125000 0.639592 97 82 75 255
15.188056 -5.837354 -0.232311 0.913135 0.260014 0.313970 0.125000 0.685613 97 82 75 255
14.891655 -6.778740 1.409333 0.913135 0.260014 0.313970 0.125000 0.607096 97 82 75 255
15.481524 -6.778740 -0.306211 0.913135 0.260014 0.313970 0.125000 0.685613 97 82 75 255
10.994563 -6.418836 0.867032 -0.726202 0.458658 0.512116 0.125000 0.561707 97 82 75 255
10.314670 -5.404945 -1.005139 -0.726202 0.458658 0.512116 0.125000 0.639592 97 82 75 255
9.612438 -6.257985 -1.236938 -0.726202 0.458658 0.512116 0.125000 0.639592 97 82 75 255
11.919992 -5.548612 -1.234888 0.302657 0.167998 -0.938177 0.125000 0.685089 97 82 75 255
15.481524 -6.778740 -0.306211 0.302657 0.167998 -0.938177 0.125000 0.685613 97 82 75 255
11.545751 -6.431004 -1.513628 0.302657 0.167998 -0.938177 0.125000 0.685089 97 82 75 255
2.136982 -4.965320 -2.205127 -0.866025 0.000000 0.500000 1.000000 1.000000 138 44 0 255
2.028360 -5.488681 -2.393265 -0.866025 0.000000 0.500000 0.666667 0.500000 140 52 28 255
2.136982 -5.488681 -2.205127 -0.866025 0.000000 0.500000 1.000000 0.500000 138 44 0 255
2.028360 -4.965320 -2.393265 0.000000 0.000000 -1.000000 0.666667 1.000000 138 44 0 255
2.245604 -5.488681 -2.393265 0.000000 0.000000 -1.000000 0.333333 0.500000 148 77 64 255
2.028360 -5.488681 -2.393265 0.000000 0.000000 -1.000000 0.666667 0.500000 138 45 8 255
2.245604 -4.965320 -2.393265 0.243197 -0.959760 0.140410 0.333333 1.000000 0 97 12 255
2.136982 -4.927064 -1.943637 0.243197 -0.959760 0.140410 -0.000000 1.000000 0 97 12 255
2.136982 -4.965320 -2.205127 0.243197 -0.959760 0.140410 -0.000000 1.000000 0 97 12 255
2.245604 -4.965320 -2.393265 0.866025 0.000000 0.500000 0.333333 1.000000 138 44 0 255
2.136982 -5.488681 -2.205127 0.866025 0.000000 0.500000 -0.000000 0.500000 138 44 0 255
2.245604 -5.488681 -2.393265 0.866025 0.000000 0.500000 0.333333 0.500000 148 77 64 255
2.136982 -5.488681 -2.205127 0.000000 -1.000000 0.000000 0.750000 0.490000 255 255 255 255
2.028360 -5.488681 -2.393265 0.000000 -1.000000 0.000000 0.957846 0.130000 255 255 255 255
2.245604 -5.488681 -2.393265 0.000000 -1.000000 0.000000 0.542154 0.130000 255 255 255 255
2.136982 -4.927064 -1.943637 0.859070 0.126483 0.495985 -0.000000 1.000000 1 105 23 255
2.472061 -4.927064 -2.524010 0.859070 0.126483 0.495985 0.333333 1.000000 2 105 23 255
2.136982 -3.409833 -2.330553 0.859070 0.126483 0.495985 -0.000000 1.000000 61 119 65 255
2.028360 -4.965320 -2.393265 0.000000 -0.959760 -0.280820 0.666667 1.000000 0 97 12 255
2.472061 -4.927064 -2.524010 0.000000 -0.959760 -0.280820 0.333333 1.000000 1 97 12 255
2.245604 -4.965320 -2.393265 0.000000 -0.959760 -0.280820 0.333333 1.000000 0 97 12 255
2.028360 -4.965320 -2.393265 -0.243197 -0.959760 0.140410 0.666667 1.000000 0 97 12 255
2.136982 -4.927064 -1.943637 -0.243197 -0.959760 0.140410 1.000000 1.000000 0 97 12 255
1.801903 -4.927064 -2.524010 -0.243197 -0.959760 0.140410 0.666667 1.000000 19 98 22 255
2.472061 -4.927064 -2.524010 0.000000 0.126483 -0.991969 0.333333 1.000000 2 105 23 255
1.801903 -4.927064 -2.524010 0.000000 0.126483 -0.991969 0.666667 1.000000 0 105 23 255
2.136982 -3.409833 -2.330553 0.000000 0.126483 -0.991969 0.333333 1.000000 61 119 65 255
1.801903 -4.927064 -2.524010 -0.859070 0.126483 0.495985 0.666667 1.000000 0 105 23 255
2.136982 -4.927064 -1.943637 -0.859070 0.126483 0.495985 1.000000 1.000000 1 105 23 255
2.136982 -3.409833 -2.330553 -0.859070 0.126483 0.495985 0.666667 1.000000 61 119 65 255
2.945179 -4.975981 -2.003559 0.883514 0.000000 -0.468405 1.000000 1.000000 138 44 0 255
3.072164 -5.629087 -1.764038 0.883514 0.000000 -0.468405 0.666667 0.500000 140 52 28 255
2.945179 -5.629087 -2.003559 0.883514 0.000000 -0.468405 1.000000 0.500000 138 44 0 255
3.072164 -4.975981 -1.764038 -0.036107 0.000000 0.999348 0.666667 1.000000 138 44 0 255
2.801241 -5.629087 -1.773827 -0.036107 0.000000 0.999348 0.333333 0.500000 148 77 64 255
3.072164 -5.629087 -1.764038 -0.036107 0.000000 0.999348 0.666667 0.500000 138 45 8 255
2.801241 -4.975981 -1.773827 -0.237970 -0.959760 -0.149100 0.333333 1.000000 0 97 12 255
2.956962 -4.928242 -2.329661 -0.237970 -0.959760 -0.149100 -0.000000 1.000000 0 97 12 255
2.945179 -4.975981 -2.003559 -0.237970 -0.959760 -0.149100 -0.000000 1.000000 0 97 12 255
2.801241 -4.975981 -1.773827 -0.847407 0.000000 -0.530943 0.333333 1.000000 138 44 0 255
2.945179 -5.629087 -2.003559 -0.847407 0.000000 -0.530943 -0.000000 0.500000 138 44 0 255
2.801241 -5.629087 -1.773827 -0.847407 0.000000 -0.530943 0.333333 0.500000 148 77 64 255
2.945179 -5.629087 -2.003559 0.000000 -1.000000 -0.000000 0.750000 0.490000 255 255 255 255
3.072164 -5.629087 -1.764038 0.000000 -1.000000 -0.000000 0.957846 0.130000 255 255 255 255
2.801241 -5.629087 -1.773827 0.000000 -1.000000 -0.000000 0.542154 0.130000 255 255 255 255
2.956962 -4.928242 -2.329661 -0.840601 0.126483 -0.526680 -0.000000 1.000000 1 105 23 255
2.512937 -4.928242 -1.620980 -0.840601 0.126483 -0.526680 0.333333 1.000000 2 105 23 255
2.939528 -3.034879 -1.847141 -0.840601 0.126483 -0.526680 -0.000000 1.000000 61 119 65 255
3.072164 -4.975981 -1.764038 -0.010140 -0.959760 0.280638 0.666667 1.000000 0 97 12 255
2.512937 -4.928242 -1.620980 -0.010140 -0.959760 0.280638 0.333333 1.000000 1 97 12 255
2.801241 -4.975981 -1.773827 -0.010140 -0.959760 0.280638 0.333333 1.000000 0 97 12 255
3.072164 -4.975981 -1.764038 0.248109 -0.959760 -0.131538 0.666667 1.000000 0 97 12 255
2.956962 -4.928242 -2.329661 0.248109 -0.959760 -0.131538 1.000000 1.000000 0 97 12 255
3.348686 -4.928242 -1.590784 0.248109 -0.959760 -0.131538 0.666667 1.000000 19 98 22 255
2.512937 -4.928242 -1.620980 -0.035817 0.126483 0.991322 0.333333 1.000000 2 105 23 255
3.348686 -4.928242 -1.590784 -0.035817 0.126483 0.991322 0.666667 1.000000 0 105 23 255
2.939528 -3.034879 -1.847141 -0.035817 0.126483 0.991322 0.333333 1.000000 61 119 65 255
3.348686 -4.928242 -1.590784 0.876418 0.126483 -0.464643 0.666667 1.000000 0 105 23 255
2.956962 -4.928242 -2.329661 0.876418 0.126483 -0.464643 1.000000 1.000000 1 105 23 255
2.939528 -3.034879 -1.847141 0.876418 0.126483 -0.464643 0.666667 1.000000 61 119 65 255
11.362229 -5.073761 -0.192904 -0.689689 0.000000 -0.724106 1.000000 1.000000 138 44 0 255
11.488491 -5.493834 -0.313164 -0.689689 0.000000 -0.724106 0.666667 0.500000 140 52 28 255
11.362229 -5.493834 -0.192904 -0.689689 0.000000 -0.724106 1.000000 0.500000 138 44 0 255
11.488491 -5.073761 -0.313164 0.971939 0.000000 -0.235232 0.666667 1.000000 138 44 0 255
11.529509 -5.493834 -0.143686 0.971939 0.000000 -0.235232 0.333333 0.500000 148 77 64 255
11.488491 -5.493834 -0.313164 0.971939 0.000000 -0.235232 0.666667 0.500000 138 45 8 255
11.529509 -5.073761 -0.143686 -0.079263 -0.959762 0.269396 0.333333 1.000000 0 97 12 255
11.158236 -5.043056 -0.143533 -0.079263 -0.959762 0.269396 -0.000000 1.000000 0 97 12 255
11.362229 -5.073761 -0.192904 -0.079263 -0.959762 0.269396 -0.000000 1.000000 0 97 12 255
11.529509 -5.073761 -0.143686 -0.282259 0.000000 0.959338 0.333333 1.000000 138 44 0 255
11.362229 -5.493834 -0.192904 -0.282259 0.000000 0.959338 -0.000000 0.500000 138 44 0 255
11.529509 -5.493834 -0.143686 -0.282259 0.000000 0.959338 0.333333 0.500000 148 77 64 255
11.362229 -5.493834 -0.192904 -0.000000 -1.000000 0.000000 0.750000 0.490000 255 255 255 255
11.488491 -5.493834 -0.313164 -0.000000 -1.000000 0.000000 0.957846 0.130000 255 255 255 255
11.529509 -5.493834 -0.143686 -0.000000 -1.000000 0.000000 0.542154 0.130000 255 255 255 255
11.158236 -5.043056 -0.143533 -0.279987 0.126483 0.951635 -0.000000 1.000000 1 105 23 255
11.674262 -5.043056 0.008291 -0.279987 0.126483 0.951635 0.333333 1.000000 2 105 23 255
11.460076 -3.825258 -0.216585 -0.279987 0.126483 0.951635 -0.000000 1.000000 61 119 65 255
11.488491 -5.073761 -0.313164 0.272938 -0.959761 -0.066057 0.666667 1.000000 0 97 12 255
11.674262 -5.043056 0.008291 0.272938 -0.959761 -0.066057 0.333333 1.000000 1 97 12 255
11.529509 -5.073761 -0.143686 0.272938 -0.959761 -0.066057 0.333333 1.000000 0 97 12 255
11.488491 -5.073761 -0.313164 -0.193676 -0.959761 -0.203342 0.666667 1.000000 0 97 12 255
11.158236 -5.043056 -0.143533 -0.193676 -0.959761 -0.203342 1.000000 1.000000 0 97 12 255
11.547731 -5.043056 -0.514514 -0.193676 -0.959761 -0.203342 0.666667 1.000000 19 98 22 255
11.674262 -5.043056 0.008291 0.964134 0.126483 -0.233342 0.333333 1.000000 2 105 23 255
11.547731 -5.043056 -0.514514 0.964134 0.126483 -0.233342 0.666667 1.000000 0 105 23 255
11.460076 -3.825258 -0.216585 0.964134 0.126483 -0.233342 0.333333 1.000000 61 119 65 255
11.547731 -5.043056 -0.514514 -0.684148 0.126483 -0.718292 0.666667 1.000000 0 105 23 255
11.158236 -5.043056 -0.143533 -0.684148 0.126483 -0.718292 1.000000 1.000000 1 105 23 255
11.460076 -3.825258 -0.216585 -0.684148 0.126483 -0.718292 0.666667 1.000000 61 119 65 255
12.161037 -4.967753 -0.515340 -0.247868 0.000000 -0.968794 1.000000 1.000000 138 44 0 255
12.371502 -5.491114 -0.569188 -0.247868 0.000000 -0.968794 0.666667 0.500000 140 52 28 255
12.161037 -5.491114 -0.515340 -0.247868 0.000000 -0.968794 1.000000 0.500000 138 44 0 255
12.371502 -4.967753 -0.569188 0.962933 0.000000 0.269739 0.666667 1.000000 138 44 0 255
12.312902 -5.491114 -0.359996 0.962933 0.000000 0.269739 0.333333 0.500000 148 77 64 255
12.371502 -5.491114 -0.569188 0.962933 0.000000 0.269739 0.666667 0.500000 138 45 8 255
12.161037 -4.967753 -0.515340 -0.200803 -0.959761 0.196306 -0.000000 1.000000 0 97 12 255
12.377717 -4.929498 -0.106666 -0.200803 -0.959761 0.196306 0.333333 1.000000 1 97 12 255
11.909240 -4.929498 -0.585874 -0.200803 -0.959761 0.196306 -0.000000 1.000000 0 97 12 255
12.312902 -4.967753 -0.359996 -0.715070 0.000000 0.699053 0.333333 1.000000 138 44 0 255
12.161037 -5.491114 -0.515340 -0.715070 0.000000 0.699053 -0.000000 0.500000 138 44 0 255
12.312902 -5.491114 -0.359996 -0.715070 0.000000 0.699053 0.333333 0.500000 148 77 64 255
12.161037 -5.491114 -0.515340 -0.000000 -1.000000 -0.000000 0.750000 0.490000 255 255 255 255
12.371502 -5.491114 -0.569188 -0.000000 -1.000000 -0.000000 0.957846 0.130000 255 255 255 255
12.312902 -5.491114 -0.359996 -0.000000 -1.000000 -0.000000 0.542154 0.130000 255 255 255 255
11.909240 -4.929498 -0.585874 -0.709325 0.126483 0.693441 -0.000000 1.000000 1 105 23 255
12.377717 -4.929498 -0.106666 -0.709325 0.126483 0.693441 0.333333 1.000000 2 105 23 255
12.281814 -3.412267 -0.481508 -0.709325 0.126483 0.693441 -0.000000 1.000000 61 119 65 255
12.371502 -4.967753 -0.569188 0.270408 -0.959761 0.075747 0.666667 1.000000 0 97 12 255
12.377717 -4.929498 -0.106666 0.270408 -0.959761 0.075747 0.333333 1.000000 1 97 12 255
12.312902 -4.967753 -0.359996 0.270408 -0.959761 0.075747 0.333333 1.000000 0 97 12 255
12.161037 -4.967753 -0.515340 -0.069606 -0.959761 -0.272056 1.000000 1.000000 0 97 12 255
12.558485 -4.929498 -0.751984 -0.069606 -0.959761 -0.272056 0.666667 1.000000 19 98 22 255
12.371502 -4.967753 -0.569188 -0.069606 -0.959761 -0.272056 0.666667 1.000000 0 97 12 255
12.377717 -4.929498 -0.106666 0.955200 0.126483 0.267573 0.333333 1.000000 2 105 23 255
12.558485 -4.929498 -0.751984 0.955200 0.126483 0.267573 0.666667 1.000000 0 105 23 255
12.281814 -3.412267 -0.481508 0.955200 0.126483 0.267573 0.333333 1.000000 61 119 65 255
12.558485 -4.929498 -0.751984 -0.245875 0.126483 -0.961014 0.666667 1.000000 0 105 23 255
11.909240 -4.929498 -0.585874 -0.245875 0.126483 -0.961014 1.000000 1.000000 1 105 23 255
12.281814 -3.412267 -0.481508 -0.245875 0.126483 -0.961014 0.666667 1.000000 61 119 65 255
12.112348 -5.194282 0.245468 -0.914258 0.000000 -0.405132 1.000000 1.000000 138 44 0 255
12.235830 -5.928564 -0.033195 -0.914258 0.000000 -0.405132 0.666667 0.500000 140 52 28 255
12.112348 -5.928564 0.245468 -0.914258 0.000000 -0.405132 1.000000 0.500000 138 44 0 255
12.235830 -5.194282 -0.033195 0.807986 0.000000 -0.589202 0.666667 1.000000 138 44 0 255
12.415418 -5.928564 0.213078 0.807986 0.000000 -0.589202 0.333333 0.500000 148 77 64 255
12.235830 -5.928564 -0.033195 0.807986 0.000000 -0.589202 0.666667 0.500000 138 45 8 255
12.415418 -5.194282 0.213078 0.029842 -0.959762 0.279226 0.333333 1.000000 0 97 12 255
11.815919 -5.140610 0.461631 0.029842 -0.959762 0.279226 -0.000000 1.000000 0 97 12 255
12.112348 -5.194282 0.245468 0.029842 -0.959762 0.279226 -0.000000 1.000000 0 97 12 255
12.415418 -5.194282 0.213078 0.106269 0.000000 0.994337 0.333333 1.000000 138 44 0 255
12.112348 -5.928564 0.245468 0.106269 0.000000 0.994337 -0.000000 0.500000 138 44 0 255
12.415418 -5.928564 0.213078 0.106269 0.000000 0.994337 0.333333 0.500000 148 77 64 255
12.112348 -5.928564 0.245468 -0.000000 -1.000000 0.000000 0.750000 0.490000 255 255 255 255
12.235830 -5.928564 -0.033195 -0.000000 -1.000000 0.000000 0.957846 0.130000 255 255 255 255
12.415418 -5.928564 0.213078 -0.000000 -1.000000 0.000000 0.542154 0.130000 255 255 255 255
11.815919 -5.140610 0.461631 0.105417 0.126483 0.986351 -0.000000 1.000000 1 105 23 255
12.750834 -5.140610 0.361711 0.105417 0.126483 0.986351 0.333333 1.000000 2 105 23 255
12.254532 -3.011915 0.141784 0.105417 0.126483 0.986351 -0.000000 1.000000 61 119 65 255
12.415418 -5.194282 0.213078 0.226896 -0.959762 -0.165458 0.333333 1.000000 0 97 12 255
12.196842 -5.140610 -0.397990 0.226896 -0.959762 -0.165458 0.666667 1.000000 19 98 22 255
12.750834 -5.140610 0.361711 0.226896 -0.959762 -0.165458 0.333333 1.000000 1 97 12 255
12.235830 -5.194282 -0.033195 -0.256739 -0.959761 -0.113769 0.666667 1.000000 0 97 12 255
11.815919 -5.140610 0.461631 -0.256739 -0.959761 -0.113769 1.000000 1.000000 0 97 12 255
12.196842 -5.140610 -0.397990 -0.256739 -0.959761 -0.113769 0.666667 1.000000 19 98 22 255
12.750834 -5.140610 0.361711 0.801496 0.126483 -0.584471 0.333333 1.000000 2 105 23 255
12.196842 -5.140610 -0.397990 0.801496 0.126483 -0.584471 0.666667 1.000000 0 105 23 255
12.254532 -3.011915 0.141784 0.801496 0.126483 -0.584471 0.333333 1.000000 61 119 65 255
12.196842 -5.140610 -0.397990 -0.906915 0.126483 -0.401880 0.666667 1.000000 0 105 23 255
11.815919 -5.140610 0.461631 -0.906915 0.126483 -0.401880 1.000000 1.000000 1 105 23 255
12.254532 -3.011915 0.141784 -0.906915 0.126483 -0.401880 0.666667 1.000000 61 119 65 255
12.995387 -5.391798 -0.193124 -0.998075 0.000000 -0.062020 1.000000 1.000000 138 44 0 255
13.008861 -5.915159 -0.409950 -0.998075 0.000000 -0.062020 0.666667 0.500000 140 52 28 255
12.995387 -5.915159 -0.193124 -0.998075 0.000000 -0.062020 1.000000 0.500000 138 44 0 255
13.008861 -5.391798 -0.409950 0.552751 0.000000 -0.833346 0.666667 1.000000 138 44 0 255
13.189901 -5.915159 -0.289867 0.552751 0.000000 -0.833346 0.333333 0.500000 148 77 64 255
13.008861 -5.915159 -0.409950 0.552751 0.000000 -0.833346 0.666667 0.500000 138 45 8 255
13.189901 -5.391798 -0.289867 0.125053 -0.959762 0.251435 0.333333 1.000000 0 97 12 255
12.850848 -5.353543 0.024787 0.125053 -0.959762 0.251435 -0.000000 1.000000 0 97 12 255
12.995387 -5.391798 -0.193124 0.125053 -0.959762 0.251435 -0.000000 1.000000 0 97 12 255
13.189901 -5.391798 -0.289867 0.445320 0.000000 0.895371 0.333333 1.000000 138 44 0 255
12.995387 -5.915159 -0.193124 0.445320 0.000000 0.895371 -0.000000 0.500000 138 44 0 255
13.189901 -5.915159 -0.289867 0.445320 0.000000 0.895371 0.333333 0.500000 148 77 64 255
12.995387 -5.915159 -0.193124 -0.000000 -1.000000 0.000000 0.750000 0.490000 255 255 255 255
13.008861 -5.915159 -0.409950 -0.000000 -1.000000 0.000000 0.957846 0.130000 255 255 255 255
13.189901 -5.915159 -0.289867 -0.000000 -1.000000 0.000000 0.542154 0.130000 255 255 255 255
12.850848 -5.353543 0.024787 0.441745 0.126483 0.888179 -0.000000 1.000000 1 105 23 255
13.450888 -5.353543 -0.273649 0.441745 0.126483 0.888179 0.333333 1.000000 2 105 23 255
13.064716 -3.836312 -0.297647 0.441745 0.126483 0.888179 -0.000000 1.000000 61 119 65 255
13.189901 -5.391798 -0.289867 0.155222 -0.959761 -0.234018 0.333333 1.000000 0 97 12 255
12.892413 -5.353543 -0.644080 0.155222 -0.959761 -0.234018 0.666667 1.000000 19 98 22 255
13.450888 -5.353543 -0.273649 0.155222 -0.959761 -0.234018 0.333333 1.000000 1 97 12 255
13.008861 -5.391798 -0.409950 -0.280277 -0.959761 -0.017417 0.666667 1.000000 0 97 12 255
12.850848 -5.353543 0.024787 -0.280277 -0.959761 -0.017417 1.000000 1.000000 0 97 12 255
12.892413 -5.353543 -0.644080 -0.280277 -0.959761 -0.017417 0.666667 1.000000 19 98 22 255
13.450888 -5.353543 -0.273649 0.548312 0.126483 -0.826653 0.333333 1.000000 2 105 23 255
12.892413 -5.353543 -0.644080 0.548312 0.126483 -0.826653 0.666667 1.000000 0 105 23 255
13.064716 -3.836312 -0.297647 0.548312 0.126483 -0.826653 0.333333 1.000000 61 119 65 255
12.892413 -5.353543 -0.644080 -0.990059 0.126483 -0.061525 0.666667 1.000000 0 105 23 255
12.850848 -5.353543 0.024787 -0.990059 0.126483 -0.061525 1.000000 1.000000 1 105 23 255
13.064716 -3.836312 -0.297647 -0.990059 0.126483 -0.061525 0.666667 1.000000 61 119 65 255
18.770199 -6.974879 2.262069 -0.866025 0.000000 0.500001 1.000000 1.000000 138 44 0 255
18.626162 -7.668876 2.012589 -0.866025 0.000000 0.500001 0.666667 0.500000 140 52 28 255
18.770199 -7.668876 2.262069 -0.866025 0.000000 0.500001 1.000000 0.500000 138 44 0 255
18.626162 -6.974879 2.012589 0.000000 0.000000 -1.000000 0.666667 1.000000 138 44 0 255
18.914238 -7.668876 2.012589 0.000000 0.000000 -1.000000 0.333333 0.500000 148 77 64 255
18.626162 -7.668876 2.012589 0.000000 0.000000 -1.000000 0.666667 0.500000 138 45 8 255
18.770199 -6.974879 2.262069 0.243202 -0.959759 0.140413 -0.000000 1.000000 0 97 12 255
19.214525 -6.924150 1.839217 0.243202 -0.959759 0.140413 0.333333 1.000000 1 97 12 255
18.770199 -6.924150 2.608814 0.243202 -0.959759 0.140413 -0.000000 1.000000 0 97 12 255
18.914238 -6.974879 2.012589 0.866022 0.000000 0.500006 0.333333 1.000000 138 44 0 255
18.770199 -7.668876 2.262069 0.866022 0.000000 0.500006 -0.000000 0.500000 138 44 0 255
18.914238 -7.668876 2.012589 0.866022 0.000000 0.500006 0.333333 0.500000 148 77 64 255
18.770199 -7.668876 2.262069 0.000000 -1.000000 0.000000 0.750000 0.490000 255 255 255 255
18.626162 -7.668876 2.012589 0.000000 -1.000000 0.000000 0.957846 0.130000 255 255 255 255
18.914238 -7.668876 2.012589 0.000000 -1.000000 0.000000 0.542154 0.130000 255 255 255 255
18.770199 -6.924150 2.608814 0.859071 0.126483 0.495984 -0.000000 1.000000 1 105 23 255
19.214525 -6.924150 1.839217 0.859071 0.126483 0.495984 0.333333 1.000000 2 105 23 255
18.770199 -4.912244 2.095749 0.859071 0.126483 0.495984 -0.000000 1.000000 61 119 65 255
18.626162 -6.974879 2.012589 0.000000 -0.959759 -0.280825 0.666667 1.000000 0 97 12 255
19.214525 -6.924150 1.839217 0.000000 -0.959759 -0.280825 0.333333 1.000000 1 97 12 255
18.914238 -6.974879 2.012589 0.000000 -0.959759 -0.280825 0.333333 1.000000 0 97 12 255
18.626162 -6.974879 2.012589 -0.243201 -0.959759 0.140413 0.666667 1.000000 0 97 12 255
18.770199 -6.924150 2.608814 -0.243201 -0.959759 0.140413 1.000000 1.000000 0 97 12 255
18.325871 -6.924150 1.839217 -0.243201 -0.959759 0.140413 0.666667 1.000000 19 98 22 255
19.214525 -6.924150 1.839217 0.000000 0.126483 -0.991969 0.333333 1.000000 2 105 23 255
18.325871 -6.924150 1.839217 0.000000 0.126483 -0.991969 0.666667 1.000000 0 105 23 255
18.770199 -4.912244 2.095749 0.000000 0.126483 -0.991969 0.333333 1.000000 61 119 65 255
18.325871 -6.924150 1.839217 -0.859070 0.126483 0.495985 0.666667 1.000000 0 105 23 255
18.770199 -6.924150 2.608814 -0.859070 0.126483 0.495985 1.000000 1.000000 1 105 23 255
18.770199 -4.912244 2.095749 -0.859070 0.126483 0.495985 0.666667 1.000000 61 119 65 255
8.536037 -6.132714 -3.614998 0.119260 0.078482 0.989756 0.375000 1.000000 97 82 75 255
-5.813660 0.622794 -3.895387 0.094477 0.187135 0.977781 0.625000 0.750000 97 82 75 255
-3.000000 -5.476122 -3.000000 0.094477 0.187135 0.977781 0.375000 0.750000 97 82 75 255
0.320651 -2.594006 -3.872454 0.094477 0.187135 0.977781 0.508734 0.912489 97 82 75 255
-3.000000 -5.476122 -3.000000 0.000000 0.289729 0.957109 0.375000 0.750000 97 82 75 255
3.000000 -5.476122 -3.000000 0.000000 0.289729 0.957109 0.375000 1.000000 97 82 75 255
0.320651 -2.594006 -3.872454 0.000000 0.289729 0.957109 0.508734 0.912489 97 82 75 255
3.000000 -5.476122 -3.000000 -0.293444 0.016544 0.955833 0.375000 1.000000 97 82 75 255
2.575114 -2.545823 -3.181159 -0.293444 0.016544 0.955833 0.495116 1.000000 97 82 75 255
0.320651 -2.594006 -3.872454 -0.293444 0.016544 0.955833 0.508734 0.912489 97 82 75 255
0.320651 -2.594006 -3.872454 0.004522 0.005651 0.999974 0.508734 0.912489 97 82 75 255
2.501482 -2.418427 -3.883308 0.004522 0.005651 0.999974 0.515931 1.000000 97 82 75 255
1.371693 0.622794 -3.895387 0.004522 0.005651 0.999974 0.625000 1.000000 97 82 75 255
3.000000 -5.476122 3.000000 -0.230680 0.039376 -0.972233 0.375000 0.250000 97 82 75 255
1.371693 0.622794 3.633354 -0.230680 0.039376 -0.972233 0.625000 0.250000 97 82 75 255
8.001423 -0.104246 2.030885 -0.230680 0.039376 -0.972233 0.625000 0.250000 97 82 75 255
8.163523 -3.617657 1.555694 -0.322766 0.173706 -0.930402 0.491857 0.250000 97 82 75 255
8.536037 -6.132714 0.956904 -0.322766 0.173706 -0.930402 0.375000 0.250000 97 82 75 255
3.000000 -5.476122 3.000000 -0.322766 0.173706 -0.930402 0.375000 0.250000 97 82 75 255
-3.000000 -5.476122 -3.000000 -0.000000 1.000000 0.000000 0.375000 0.750000 0 224 48 255
-5.813660 0.622794 -3.895387 0.908029 0.418908 0.000000 0.625000 0.750000 97 82 75 255
-5.813660 0.622794 3.633354 0.000000 0.103292 -0.994651 0.625000 0.500000 97 82 75 255
8.536037 -6.132714 -3.614998 0.117778 0.993040 -0.000000 0.125000 0.750000 85 129 70 255
14.649120 -0.819587 5.534788 0.486209 0.106448 -0.867335 0.625000 0.250000 97 82 75 255
14.109032 -4.779586 4.746014 0.486209 0.106448 -0.867335 0.474059 0.250000 97 82 75 255
8.163523 -3.617657 1.555694 0.486209 0.106448 -0.867335 0.491857 0.250000 97 82 75 255
8.412150 -3.560441 -3.804037 0.029142 0.074658 0.996783 0.481672 1.000000 97 82 75 255
8.536037 -6.132714 -3.614998 0.029142 0.074658 0.996783 0.375000 1.000000 97 82 75 255
10.902423 -3.777735 -3.860567 0.029142 0.074658 0.996783 0.497483 1.000000 97 82 75 255
8.536037 -6.132714 -3.614998 -0.210666 0.308417 0.927631 0.375000 1.000000 97 82 75 255
15.965239 -6.778740 -1.713025 -0.210666 0.308417 0.927631 0.375000 1.000000 97 82 75 255
10.902423 -3.777735 -3.860567 -0.210666 0.308417 0.927631 0.497483 1.000000 97 82 75 255
15.965239 -6.778740 -1.713025 -0.315840 0.138836 0.938600 0.375000 1.000000 97 82 75 255
16.898329 -0.819587 -2.280504 -0.315840 0.138836 0.938600 0.625000 1.000000 97 82 75 255
10.902423 -3.777735 -3.860567 -0.315840 0.138836 0.938600 0.497483 1.000000 97 82 75 255
16.898329 -0.819587 -2.280504 -0.258483 0.007954 0.965983 0.625000 1.000000 97 82 75 255
8.001423 -0.104246 -4.667081 -0.258483 0.007954 0.965983 0.625000 1.000000 97 82 75 255
10.902423 -3.777735 -3.860567 -0.258483 0.007954 0.965983 0.497483 1.000000 97 82 75 255
8.536037 -6.132714 -3.614998 0.115599 0.993296 0.000000 0.125000 0.750000 85 129 70 255
8.536037 -6.132714 0.956904 0.115599 0.993296 0.000000 0.125000 0.500000 0 224 48 255
9.612438 -6.257985 -1.236938 0.115599 0.993296 0.000000 0.125000 0.639592 0 224 48 255
10.285189 -6.336279 1.836805 0.115599 0.993296 -0.000000 0.125000 0.500000 0 224 48 255
10.994563 -6.418836 0.867032 0.115599 0.993296 -0.000000 0.125000 0.561707 97 82 75 255
10.285189 -6.336279 1.836805 0.182022 0.982045 0.049545 0.125000 0.500000 0 224 48 255
12.691368 -6.854315 3.264930 0.182022 0.982045 0.049545 0.125000 0.500000 0 224 48 255
10.994563 -6.418836 0.867032 0.182022 0.982045 0.049545 0.125000 0.561707 97 82 75 255
12.691368 -6.854315 3.264930 -0.048312 0.998694 -0.016611 0.125000 0.500000 0 224 48 255
14.087078 -6.778740 3.749326 -0.048312 0.998694 -0.016611 0.125000 0.500000 15 222 49 255
14.891655 -6.778740 1.409333 -0.048312 0.998694 -0.016611 0.125000 0.607096 97 82 75 255
10.994563 -6.418836 0.867032 0.073596 0.989098 0.127551 0.125000 0.561707 97 82 75 255
12.691368 -6.854315 3.264930 0.073596 0.989098 0.127551 0.125000 0.500000 0 224 48 255
14.891655 -6.778740 1.409333 0.073596 0.989098 0.127551 0.125000 0.607096 97 82 75 255
15.481524 -6.778740 -0.306211 0.079638 0.996448 0.027383 0.125000 0.685613 0 224 48 255
15.965239 -6.778740 -1.713025 0.079638 0.996448 0.027383 0.125000 0.750000 96 87 75 255
11.545751 -6.431004 -1.513628 0.079638 0.996448 0.027383 0.125000 0.685089 0 224 48 255
8.536037 -6.132714 -3.614998 0.079638 0.996448 0.027383 0.125000 0.750000 85 129 70 255
14.109032 -4.779586 4.746014 -0.390228 0.230762 -0.891331 0.474059 0.250000 97 82 75 255
14.649120 -0.819587 5.534788 -0.390228 0.230762 -0.891331 0.625000 0.250000 97 82 75 255
19.488045 -1.354269 3.277864 -0.390228 0.230762 -0.891331 0.625000 0.250000 97 82 75 255
19.488045 -1.354269 3.277864 -0.358650 0.169784 -0.917902 0.625000 0.250000 97 82 75 255
18.127735 -7.261613 2.716693 -0.358650 0.169784 -0.917902 0.375000 0.250000 97 82 75 255
14.109032 -4.779586 4.746014 -0.358650 0.169784 -0.917902 0.474059 0.250000 97 82 75 255
22.086590 -7.261613 -3.283307 0.263297 0.062193 0.962708 0.375000 1.000000 97 82 75 255
24.229008 -1.354269 -4.250877 0.263297 0.062193 0.962708 0.625000 1.000000 97 82 75 255
16.898329 -0.819587 -2.280504 0.263297 0.062193 0.962708 0.625000 1.000000 97 82 75 255
14.087078 -6.778740 3.749326 0.129777 0.990539 0.044622 0.125000 0.500000 15 222 49 255
18.127735 -7.261613 2.716693 0.094347 0.993591 0.062251 0.125000 0.500000 3 224 48 255
22.086590 -7.261613 -3.283307 0.094347 0.993591 0.062251 0.125000 0.750000 1 224 48 255
15.965239 -6.778740 -1.713025 0.094347 0.993591 0.062251 0.125000 0.750000 96 87 75 255
15.965239 -6.778740 -1.713025 0.129777 0.990539 0.044622 0.125000 0.750000 96 87 75 255
19.488045 -1.354269 3.277864 0.330892 0.020142 -0.943454 0.625000 0.250000 97 82 75 255
22.635754 -1.355731 4.381810 0.330892 0.020142 -0.943454 0.625000 0.250000 110 99 92 255
20.756172 -7.262935 3.596479 0.330892 0.020142 -0.943454 0.375000 0.250000 97 82 75 255
26.810818 -7.262935 3.762487 -0.791719 0.341237 0.506694 0.375000 1.000000 98 83 76 255
29.886547 -1.355731 4.590116 -0.791719 0.341237 0.506694 0.625000 1.000000 97 82 75 255
24.229008 -1.354269 -4.250877 -0.791719 0.341237 0.506694 0.625000 1.000000 97 82 75 255
20.756172 -7.262935 3.596479 -0.000005 1.000000 0.000191 0.125000 0.500000 0 224 48 255
26.810818 -7.262935 3.762487 -0.000005 1.000000 0.000191 0.125000 0.750000 34 213 53 255
22.086590 -7.261613 -3.283307 -0.000005 1.000000 0.000191 0.125000 0.750000 1 224 48 255
8.412150 -3.560441 -3.804037 0.186063 0.972651 0.139035 0.481672 1.000000 0 224 48 255
8.388749 -3.454979 -4.510499 0.186063 0.972651 0.139035 0.501821 1.000000 0 224 48 255
2.501482 -2.418427 -3.883308 0.186063 0.972651 0.139035 0.515931 1.000000 0 224 48 255
8.001423 -0.104246 -4.667081 0.120759 0.048799 0.991482 0.625000 1.000000 97 82 75 255
1.371693 0.622794 -3.895387 0.120759 0.048799 0.991482 0.625000 1.000000 97 82 75 255
2.501482 -2.418427 -3.883308 0.120759 0.048799 0.991482 0.515931 1.000000 97 82 75 255
14.087078 -6.778740 3.749326 0.327853 0.000460 -0.944728 0.375000 0.250000 97 82 75 255
12.691368 -6.854315 3.264930 0.327853 0.000460 -0.944728 0.375000 0.250000 97 82 75 255
12.293752 -4.637356 3.128022 0.327853 0.000460 -0.944728 0.463828 0.250000 97 82 75 255
8.536037 -6.132714 0.956904 0.249691 0.259116 -0.933013 0.375000 0.250000 97 82 75 255
8.163523 -3.617657 1.555694 0.249691 0.259116 -0.933013 0.491857 0.250000 97 82 75 255
9.947112 -4.137025 1.888776 0.249691 0.259116 -0.933013 0.466578 0.250000 97 82 75 255
12.293752 -4.637356 3.128022 0.309491 0.927020 -0.211779 0.463828 0.250000 0 224 48 255
9.947112 -4.137025 1.888776 0.309491 0.927020 -0.211779 0.466578 0.250000 0 224 48 255
8.163523 -3.617657 1.555694 0.309491 0.927020 -0.211779 0.491857 0.250000 0 224 48 255
14.698259 -5.837354 1.192188 -0.116856 0.200368 0.972727 0.125000 0.607096 97 82 75 255
11.462316 -5.538507 0.741889 0.089783 0.995838 0.015697 0.125000 0.561707 0 224 48 255
14.698259 -5.837354 1.192188 0.089783 0.995838 0.015697 0.125000 0.607096 0 224 48 255
11.919992 -5.548612 -1.234888 0.089783 0.995838 0.015697 0.125000 0.685089 0 224 48 255
14.698259 -5.837354 1.192188 0.079638 0.996448 0.027383 0.125000 0.607096 0 224 48 255
15.188056 -5.837354 -0.232311 0.079638 0.996448 0.027383 0.125000 0.685613 0 224 48 255
11.919992 -5.548612 -1.234888 0.079638 0.996448 0.027383 0.125000 0.685089 0 224 48 255
10.314670 -5.404945 -1.005139 -0.103455 0.339235 -0.934996 0.125000 0.639592 97 82 75 255
11.919992 -5.548612 -1.234888 -0.103455 0.339235 -0.934996 0.125000 0.685089 97 82 75 255
11.545751 -6.431004 -1.513628 -0.103455 0.339235 -0.934996 0.125000 0.685089 97 82 75 255
14.698259 -5.837354 1.192188 0.913135 0.260014 0.313970 0.125000 0.607096 97 82 75 255
10.994563 -6.418836 0.867032 -0.726202 0.458659 0.512116 0.125000 0.561707 97 82 75 255
11.462316 -5.538507 0.741889 -0.726202 0.458659 0.512116 0.125000 0.561707 97 82 75 255
10.314670 -5.404945 -1.005139 -0.726202 0.458659 0.512116 0.125000 0.639592 97 82 75 255
15.188056 -5.837354 -0.232311 0.302657 0.167998 -0.938177 0.125000 0.685613 97 82 75 255
2.028360 -4.965320 -2.393265 -0.866025 0.000000 0.500000 0.666667 1.000000 138 44 0 255
2.245604 -4.965320 -2.393265 0.000000 0.000000 -1.000000 0.333333 1.000000 138 44 0 255
2.472061 -4.927064 -2.524010 0.243197 -0.959760 0.140410 0.333333 1.000000 1 97 12 255
2.136982 -4.965320 -2.205127 0.866025 -0.000000 0.500000 -0.000000 1.000000 138 44 0 255
1.801903 -4.927064 -2.524010 -0.000000 -0.959760 -0.280820 0.666667 1.000000 19 98 22 255
2.136982 -4.965320 -2.205127 -0.243197 -0.959760 0.140410 1.000000 1.000000 0 97 12 255
3.072164 -4.975981 -1.764038 0.883514 0.000000 -0.468405 0.666667 1.000000 138 44 0 255
2.801241 -4.975981 -1.773827 -0.036107 0.000000 0.999348 0.333333 1.000000 138 44 0 255
2.801241 -4.975981 -1.773827 -0.237969 -0.959760 -0.149100 0.333333 1.000000 0 97 12 255
2.512937 -4.928242 -1.620980 -0.237969 -0.959760 -0.149100 0.333333 1.000000 1 97 12 255
2.956962 -4.928242 -2.329661 -0.237969 -0.959760 -0.149100 -0.000000 1.000000 0 97 12 255
2.945179 -4.975981 -2.003559 -0.847407 0.000000 -0.530943 -0.000000 1.000000 138 44 0 255
3.348686 -4.928242 -1.590784 -0.010140 -0.959760 0.280638 0.666667 1.000000 19 98 22 255
2.945179 -4.975981 -2.003559 0.248109 -0.959760 -0.131538 1.000000 1.000000 0 97 12 255
11.488491 -5.073761 -0.313164 -0.689689 0.000000 -0.724106 0.666667 1.000000 138 44 0 255
11.529509 -5.073761 -0.143686 0.971939 0.000000 -0.235232 0.333333 1.000000 138 44 0 255
11.529509 -5.073761 -0.143686 -0.079262 -0.959761 0.269401 0.333333 1.000000 0 97 12 255
11.674262 -5.043056 0.008291 -0.079262 -0.959761 0.269401 0.333333 1.000000 1 97 12 255
11.158236 -5.043056 -0.143533 -0.079262 -0.959761 0.269401 -0.000000 1.000000 0 97 12 255
11.362229 -5.073761 -0.192904 -0.282259 0.000000 0.959338 -0.000000 1.000000 138 44 0 255
11.488491 -5.073761 -0.313164 0.272937 -0.959761 -0.066057 0.666667 1.000000 0 97 12 255
11.547731 -5.043056 -0.514514 0.272937 -0.959761 -0.066057 0.666667 1.000000 19 98 22 255
11.674262 -5.043056 0.008291 0.272937 -0.959761 -0.066057 0.333333 1.000000 1 97 12 255
11.488491 -5.073761 -0.313164 -0.193676 -0.959762 -0.203340 0.666667 1.000000 0 97 12 255
11.362229 -5.073761 -0.192904 -0.193676 -0.959762 -0.203340 1.000000 1.000000 0 97 12 255
11.158236 -5.043056 -0.143533 -0.193676 -0.959762 -0.203340 1.000000 1.000000 0 97 12 255
12.371502 -4.967753 -0.569188 -0.247868 0.000000 -0.968794 0.666667 1.000000 138 44 0 255
12.312902 -4.967753 -0.359996 0.962933 -0.000000 0.269739 0.333333 1.000000 138 44 0 255
12.161037 -4.967753 -0.515340 -0.200806 -0.959761 0.196307 -0.000000 1.000000 0 97 12 255
12.312902 -4.967753 -0.359996 -0.200806 -0.959761 0.196307 0.333333 1.000000 0 97 12 255
12.377717 -4.929498 -0.106666 -0.200806 -0.959761 0.196307 0.333333 1.000000 1 97 12 255
12.161037 -4.967753 -0.515340 -0.715070 0.000000 0.699053 -0.000000 1.000000 138 44 0 255
12.558485 -4.929498 -0.751984 0.270408 -0.959761 0.075747 0.666667 1.000000 19 98 22 255
12.161037 -4.967753 -0.515340 -0.069605 -0.959761 -0.272054 1.000000 1.000000 0 97 12 255
11.909240 -4.929498 -0.585874 -0.069605 -0.959761 -0.272054 1.000000 1.000000 0 97 12 255
12.558485 -4.929498 -0.751984 -0.069605 -0.959761 -0.272054 0.666667 1.000000 19 98 22 255
12.235830 -5.194282 -0.033195 -0.914258 0.000000 -0.405132 0.666667 1.000000 138 44 0 255
12.415418 -5.194282 0.213078 0.807986 0.000000 -0.589202 0.333333 1.000000 138 44 0 255
12.415418 -5.194282 0.213078 0.029843 -0.959761 0.279228 0.333333 1.000000 0 97 12 255
12.750834 -5.140610 0.361711 0.029843 -0.959761 0.279228 0.333333 1.000000 1 97 12 255
11.815919 -5.140610 0.461631 0.029843 -0.959761 0.279228 -0.000000 1.000000 0 97 12 255
12.112348 -5.194282 0.245468 0.106269 -0.000000 0.994337 -0.000000 1.000000 138 44 0 255
12.415418 -5.194282 0.213078 0.226897 -0.959761 -0.165458 0.333333 1.000000 0 97 12 255
12.235830 -5.194282 -0.033195 0.226897 -0.959761 -0.165458 0.666667 1.000000 0 97 12 255
12.196842 -5.140610 -0.397990 0.226897 -0.959761 -0.165458 0.666667 1.000000 19 98 22 255
12.235830 -5.194282 -0.033195 -0.256738 -0.959762 -0.113767 0.666667 1.000000 0 97 12 255
12.112348 -5.194282 0.245468 -0.256738 -0.959762 -0.113767 1.000000 1.000000 0 97 12 255
11.815919 -5.140610 0.461631 -0.256738 -0.959762 -0.113767 1.000000 1.000000 0 97 12 255
13.008861 -5.391798 -0.409950 -0.998075 0.000000 -0.062020 0.666667 1.000000 138 44 0 255
13.189901 -5.391798 -0.289867 0.552751 0.000000 -0.833346 0.333333 1.000000 138 44 0 255
13.189901 -5.391798 -0.289867 0.125054 -0.959761 0.251436 0.333333 1.000000 0 97 12 255
13.450888 -5.353543 -0.273649 0.125054 -0.959761 0.251436 0.333333 1.000000 1 97 12 255
12.850848 -5.353543 0.024787 0.125054 -0.959761 0.251436 -0.000000 1.000000 0 97 12 255
12.995387 -5.391798 -0.193124 0.445320 -0.000000 0.895371 -0.000000 1.000000 138 44 0 255
13.008861 -5.391798 -0.409950 0.155222 -0.959761 -0.234018 0.666667 1.000000 0 97 12 255
13.008861 -5.391798 -0.409950 -0.280275 -0.959762 -0.017416 0.666667 1.000000 0 97 12 255
12.995387 -5.391798 -0.193124 -0.280275 -0.959762 -0.017416 1.000000 1.000000 0 97 12 255
12.850848 -5.353543 0.024787 -0.280275 -0.959762 -0.017416 1.000000 1.000000 0 97 12 255
18.626162 -6.974879 2.012589 -0.866025 0.000000 0.500001 0.666667 1.000000 138 44 0 255
18.914238 -6.974879 2.012589 0.000000 0.000000 -1.000000 0.333333 1.000000 138 44 0 255
18.770199 -6.974879 2.262069 0.243207 -0.959757 0.140418 -0.000000 1.000000 0 97 12 255
18.914238 -6.974879 2.012589 0.243207 -0.959757 0.140418 0.333333 1.000000 0 97 12 255
19.214525 -6.924150 1.839217 0.243207 -0.959757 0.140418 0.333333 1.000000 1 97 12 255
18.770199 -6.974879 2.262069 0.866022 -0.000000 0.500006 -0.000000 1.000000 138 44 0 255
18.325871 -6.924150 1.839217 -0.000000 -0.959759 -0.280825 0.666667 1.000000 19 98 22 255
18.770199 -6.974879 2.262069 -0.243201 -0.959759 0.140413 1.000000 1.000000 0 97 12 255
3 0 1 2
3 3 4 5
3 6 7 8
3 9 10 11
3 12 13 14
3 15 16 17
3 18 19 20
3 21 22 23
3 24 25 26
3 27 28 29
3 30 31 32
3 33 34 35
3 36 37 38
3 39 40 41
3 42 43 44
3 45 46 47
3 48 49 50
3 51 52 53
3 54 55 56
3 57 58 59
3 60 61 62
3 63 64 65
3 66 67 68
3 69 70 71
3 72 73 74
3 75 76 77
3 78 79 80
3 81 82 83
3 84 85 86
3 87 88 89
3 90 91 92
3 93 94 95
3 96 97 98
3 99 100 101
3 102 103 104
3 105 106 107
3 108 109 110
3 111 112 113
3 114 115 116
3 117 118 119
3 120 121 122
3 123 124 125
3 126 127 128
3 129 130 131
3 132 133 134
3 135 136 137
3 138 139 140
3 141 142 143
3 144 145 146
3 147 148 149
3 150 151 152
3 153 154 155
3 156 157 158
3 159 160 161
3 162 163 164
3 165 166 167
3 168 169 170
3 171 172 173
3 174 175 176
3 177 178 179
3 180 181 182
3 183 184 185
3 186 187 188
3 189 190 191
3 192 193 194
3 195 196 197
3 198 199 200
3 201 202 203
3 204 205 206
3 207 208 209
3 210 211 212
3 213 214 215
3 216 217 218
3 219 220 221
3 222 223 224
3 225 226 227
3 228 229 230
3 231 232 233
3 234 235 236
3 237 238 239
3 240 241 242
3 243 244 245
3 246 247 248
3 249 250 251
3 252 253 254
3 255 256 257
3 258 259 260
3 261 262 263
3 264 265 266
3 267 268 269
3 270 271 272
3 273 274 275
3 276 277 278
3 279 280 281
3 282 283 284
3 285 286 287
3 288 289 290
3 291 292 293
3 294 295 296
3 297 298 299
3 300 301 302
3 0 303 1
3 304 305 306
3 307 308 309
3 310 311 312
3 313 314 315
3 316 317 318
3 319 320 321
3 9 322 10
3 12 323 13
3 15 324 16
3 18 325 19
3 326 327 328
3 329 330 331
3 332 333 334
3 335 336 337
3 338 339 340
3 341 342 343
3 342 344 345
3 343 342 345
3 346 347 348
3 349 350 351
3 352 353 354
3 355 356 357
3 356 358 357
3 359 360 361
3 362 363 364
3 365 366 367
3 37 368 38
3 369 370 371
3 372 36 38
3 373 374 375
3 376 377 378
3 379 380 381
3 382 383 384
3 385 386 387
3 388 389 390
3 391 392 393
3 394 395 396
3 75 397 76
3 398 399 400
3 401 402 403
3 404 405 406
3 84 407 85
3 408 409 410
3 90 411 91
3 93 412 94
3 96 413 97
3 99 414 100
3 102 415 103
3 111 416 112
3 114 417 115
3 123 418 124
3 126 419 127
3 420 421 422
3 132 423 133
3 141 424 142
3 144 425 145
3 153 426 154
3 156 427 157
3 428 429 430
3 162 431 163
3 432 433 434
3 435 436 437
3 183 438 184
3 186 439 187
3 440 441 442
3 192 443 193
3 201 444 202
3 445 446 447
3 213 448 214
3 216 449 217
3 450 451 452
3 222 453 223
3 454 455 456
3 457 458 459
3 243 460 244
3 246 461 247
3 462 463 464
3 252 465 253
3 261 466 262
3 467 468 469
3 273 470 274
3 276 471 277
3 472 473 474
3 282 475 283
3 291 476 292
3 294 477 295
