ply
format ascii 1.0
comment Created by Blender 2.92.0 - www.blender.org
element vertex 372
property float x
property float y
property float z
property float nx
property float ny
property float nz
property float s
property float t
property uchar red
property uchar green
property uchar blue
property uchar alpha
element face 144
property list uchar uint vertex_indices
end_header
-49.459686 -9.635935 43.325413 0.876418 0.126482 -0.464643 0.666667 1.000000 0 105 23 255
-49.851410 -9.635935 42.586536 0.876418 0.126482 -0.464643 1.000000 1.000000 1 105 23 255
-49.868843 -7.742572 43.069054 0.876418 0.126482 -0.464643 0.666667 1.000000 61 119 65 255
-50.295433 -9.635935 43.295219 -0.035814 0.126484 0.991322 0.333333 1.000000 2 105 23 255
-49.459686 -9.635935 43.325413 -0.035814 0.126484 0.991322 0.666667 1.000000 0 105 23 255
-49.868843 -7.742572 43.069054 -0.035814 0.126484 0.991322 0.333333 1.000000 61 119 65 255
-49.736206 -9.683674 43.152161 0.248110 -0.959760 -0.131538 0.666667 1.000000 0 97 12 255
-49.851410 -9.635935 42.586536 0.248110 -0.959760 -0.131538 1.000000 1.000000 0 97 12 255
-49.459686 -9.635935 43.325413 0.248110 -0.959760 -0.131538 0.666667 1.000000 19 98 22 255
-49.736206 -9.683674 43.152161 -0.010139 -0.959760 0.280638 0.666667 1.000000 0 97 12 255
-50.295433 -9.635935 43.295219 -0.010139 -0.959760 0.280638 0.333333 1.000000 1 97 12 255
-50.007130 -9.683674 43.142372 -0.010139 -0.959760 0.280638 0.333333 1.000000 0 97 12 255
-49.851410 -9.635935 42.586536 -0.840603 0.126482 -0.526677 -0.000000 1.000000 1 105 23 255
-50.295433 -9.635935 43.295219 -0.840603 0.126482 -0.526677 0.333333 1.000000 2 105 23 255
-49.868843 -7.742572 43.069054 -0.840603 0.126482 -0.526677 -0.000000 1.000000 61 119 65 255
-49.863190 -10.336780 42.912636 0.000000 -1.000000 -0.000000 0.750000 0.490000 255 255 255 255
-49.736206 -10.336780 43.152161 0.000000 -1.000000 -0.000000 0.957846 0.130000 255 255 255 255
-50.007130 -10.336780 43.142372 0.000000 -1.000000 -0.000000 0.542154 0.130000 255 255 255 255
-50.007130 -9.683674 43.142372 -0.847410 0.000000 -0.530940 0.333333 1.000000 138 44 0 255
-49.863190 -10.336780 42.912636 -0.847410 0.000000 -0.530940 -0.000000 0.500000 138 44 0 255
-50.007130 -10.336780 43.142372 -0.847410 0.000000 -0.530940 0.333333 0.500000 148 77 64 255
-50.007130 -9.683674 43.142372 -0.237971 -0.959760 -0.149099 0.333333 1.000000 0 97 12 255
-49.851410 -9.635935 42.586536 -0.237971 -0.959760 -0.149099 -0.000000 1.000000 0 97 12 255
-49.863190 -9.683674 42.912636 -0.237971 -0.959760 -0.149099 -0.000000 1.000000 0 97 12 255
-49.736206 -9.683674 43.152161 -0.036107 0.000000 0.999348 0.666667 1.000000 138 44 0 255
-50.007130 -10.336780 43.142372 -0.036107 0.000000 0.999348 0.333333 0.500000 148 77 64 255
-49.736206 -10.336780 43.152161 -0.036107 0.000000 0.999348 0.666667 0.500000 138 45 8 255
-49.863190 -9.683674 42.912636 0.883519 0.000000 -0.468396 1.000000 1.000000 138 44 0 255
-49.736206 -10.336780 43.152161 0.883519 0.000000 -0.468396 0.666667 0.500000 140 52 28 255
-49.863190 -10.336780 42.912636 0.883519 0.000000 -0.468396 1.000000 0.500000 138 44 0 255
-49.865898 -9.812325 42.060917 0.992024 0.000000 0.126045 1.000000 1.000000 138 44 0 255
-49.896709 -10.401227 42.303413 0.992024 0.000000 0.126045 0.666667 0.500000 140 52 28 255
-49.865898 -10.401227 42.060917 0.992024 0.000000 0.126045 1.000000 0.500000 138 44 0 255
-49.896709 -9.812325 42.303413 -0.605168 0.000000 0.796098 0.666667 1.000000 138 44 0 255
-50.091316 -10.401227 42.155479 -0.605168 0.000000 0.796098 0.333333 0.500000 148 77 64 255
-49.896709 -10.401227 42.303413 -0.605168 0.000000 0.796098 0.666667 0.500000 138 45 8 255
-50.091316 -9.812325 42.155479 -0.108627 -0.959765 -0.258944 0.333333 1.000000 0 97 12 255
-49.687836 -9.769280 41.826675 -0.108627 -0.959765 -0.258944 -0.000000 1.000000 0 97 12 255
-49.865898 -9.812325 42.060917 -0.108627 -0.959765 -0.258944 -0.000000 1.000000 0 97 12 255
-50.091316 -9.812325 42.155479 -0.386839 0.000000 -0.922147 0.333333 1.000000 138 44 0 255
-49.865898 -10.401227 42.060917 -0.386839 0.000000 -0.922147 -0.000000 0.500000 138 44 0 255
-50.091316 -10.401227 42.155479 -0.386839 0.000000 -0.922147 0.333333 0.500000 148 77 64 255
-49.865898 -10.401227 42.060917 0.000000 -1.000000 0.000000 0.750000 0.490000 255 255 255 255
-49.896709 -10.401227 42.303413 0.000000 -1.000000 0.000000 0.957846 0.130000 255 255 255 255
-50.091316 -10.401227 42.155479 0.000000 -1.000000 0.000000 0.542154 0.130000 255 255 255 255
-49.687836 -9.769280 41.826675 -0.383745 0.126484 -0.914736 -0.000000 1.000000 1 105 23 255
-50.383205 -9.769280 42.118393 -0.383745 0.126484 -0.914736 0.333333 1.000000 2 105 23 255
-49.951309 -8.062047 42.173271 -0.383745 0.126484 -0.914736 -0.000000 1.000000 61 119 65 255
-49.896709 -9.812325 42.303413 -0.169941 -0.959762 0.223557 0.666667 1.000000 0 97 12 255
-50.383205 -9.769280 42.118393 -0.169941 -0.959762 0.223557 0.333333 1.000000 1 97 12 255
-50.091316 -9.812325 42.155479 -0.169941 -0.959762 0.223557 0.333333 1.000000 0 97 12 255
-49.896709 -9.812325 42.303413 0.278576 -0.959762 0.035395 0.666667 1.000000 0 97 12 255
-49.687836 -9.769280 41.826675 0.278576 -0.959762 0.035395 1.000000 1.000000 0 97 12 255
-49.782883 -9.769280 42.574741 0.278576 -0.959762 0.035395 0.666667 1.000000 19 98 22 255
-50.383205 -9.769280 42.118393 -0.600310 0.126482 0.789703 0.333333 1.000000 2 105 23 255
-49.782883 -9.769280 42.574741 -0.600310 0.126482 0.789703 0.666667 1.000000 0 105 23 255
-49.951309 -8.062047 42.173271 -0.600310 0.126482 0.789703 0.333333 1.000000 61 119 65 255
-49.782883 -9.769280 42.574741 0.984057 0.126484 0.125031 0.666667 1.000000 0 105 23 255
-49.687836 -9.769280 41.826675 0.984057 0.126484 0.125031 1.000000 1.000000 1 105 23 255
-49.951309 -8.062047 42.173271 0.984057 0.126484 0.125031 0.666667 1.000000 61 119 65 255
-50.518097 -9.613485 43.614479 0.830523 0.126483 0.542434 0.666667 1.000000 0 105 23 255
-49.825123 -9.613485 42.553463 0.830523 0.126483 0.542434 1.000000 1.000000 1 105 23 255
-50.477898 -6.744404 42.883926 0.830523 0.126483 0.542434 0.666667 1.000000 61 119 65 255
-51.090477 -9.613485 42.483837 -0.885023 0.126484 0.448037 0.333333 1.000000 2 105 23 255
-50.518097 -9.613485 43.614479 -0.885023 0.126484 0.448037 0.666667 1.000000 0 105 23 255
-50.477898 -6.744404 42.883926 -0.885023 0.126484 0.448037 0.333333 1.000000 61 119 65 255
-50.490929 -9.685826 43.120750 0.235119 -0.959759 0.153561 0.666667 1.000000 0 97 12 255
-49.825123 -9.613485 42.553463 0.235119 -0.959759 0.153561 1.000000 1.000000 0 97 12 255
-50.518097 -9.613485 43.614479 0.235119 -0.959759 0.153561 0.666667 1.000000 19 98 22 255
-50.676479 -9.685826 42.754230 -0.250548 -0.959759 0.126838 0.333333 1.000000 0 97 12 255
-50.518097 -9.613485 43.614479 -0.250548 -0.959759 0.126838 0.666667 1.000000 19 98 22 255
-51.090477 -9.613485 42.483837 -0.250548 -0.959759 0.126838 0.333333 1.000000 1 97 12 255
-49.825123 -9.613485 42.553463 0.054500 0.126483 -0.990470 -0.000000 1.000000 1 105 23 255
-51.090477 -9.613485 42.483837 0.054500 0.126483 -0.990470 0.333333 1.000000 2 105 23 255
-50.477898 -6.744404 42.883926 0.054500 0.126483 -0.990470 -0.000000 1.000000 61 119 65 255
-50.266289 -10.675502 42.776802 0.000000 -1.000000 0.000000 0.750000 0.490000 255 255 255 255
-50.490929 -10.675502 43.120750 0.000000 -1.000000 0.000000 0.957846 0.130000 255 255 255 255
-50.676479 -10.675502 42.754230 0.000000 -1.000000 0.000000 0.542154 0.130000 255 255 255 255
-50.676479 -9.685826 42.754230 0.054944 0.000000 -0.998489 0.333333 1.000000 138 44 0 255
-50.266289 -10.675502 42.776802 0.054944 0.000000 -0.998489 -0.000000 0.500000 138 44 0 255
-50.676479 -10.675502 42.754230 0.054944 0.000000 -0.998489 0.333333 0.500000 148 77 64 255
-50.676479 -9.685826 42.754230 0.015429 -0.959761 -0.280395 0.333333 1.000000 0 97 12 255
-49.825123 -9.613485 42.553463 0.015429 -0.959761 -0.280395 -0.000000 1.000000 0 97 12 255
-50.266289 -9.685826 42.776802 0.015429 -0.959761 -0.280395 -0.000000 1.000000 0 97 12 255
-50.490929 -9.685826 43.120750 -0.892186 0.000000 0.451669 0.666667 1.000000 138 44 0 255
-50.676479 -10.675502 42.754230 -0.892186 0.000000 0.451669 0.333333 0.500000 148 77 64 255
-50.490929 -10.675502 43.120750 -0.892186 0.000000 0.451669 0.666667 0.500000 138 45 8 255
-50.266289 -9.685826 42.776802 0.837248 0.000000 0.546824 1.000000 1.000000 138 44 0 255
-50.490929 -10.675502 43.120750 0.837248 0.000000 0.546824 0.666667 0.500000 140 52 28 255
-50.266289 -10.675502 42.776802 0.837248 0.000000 0.546824 1.000000 0.500000 138 44 0 255
-44.561577 -9.507911 56.221085 0.992025 0.000000 0.126043 1.000000 1.000000 138 44 0 255
-44.592388 -10.096812 56.463585 0.992025 0.000000 0.126043 0.666667 0.500000 140 52 28 255
-44.561577 -10.096812 56.221085 0.992025 0.000000 0.126043 1.000000 0.500000 138 44 0 255
-44.592388 -9.507911 56.463585 -0.605168 0.000000 0.796098 0.666667 1.000000 138 44 0 255
-44.786995 -10.096812 56.315651 -0.605168 0.000000 0.796098 0.333333 0.500000 148 77 64 255
-44.592388 -10.096812 56.463585 -0.605168 0.000000 0.796098 0.666667 0.500000 138 45 8 255
-44.786995 -9.507911 56.315651 -0.108635 -0.959761 -0.258954 0.333333 1.000000 0 97 12 255
-44.383514 -9.464866 55.986847 -0.108635 -0.959761 -0.258954 -0.000000 1.000000 0 97 12 255
-44.561577 -9.507911 56.221085 -0.108635 -0.959761 -0.258954 -0.000000 1.000000 0 97 12 255
-44.786995 -9.507911 56.315651 -0.386853 0.000000 -0.922142 0.333333 1.000000 138 44 0 255
-44.561577 -10.096812 56.221085 -0.386853 0.000000 -0.922142 -0.000000 0.500000 138 44 0 255
-44.786995 -10.096812 56.315651 -0.386853 0.000000 -0.922142 0.333333 0.500000 148 77 64 255
-44.561577 -10.096812 56.221085 0.000000 -1.000000 0.000000 0.750000 0.490000 255 255 255 255
-44.592388 -10.096812 56.463585 0.000000 -1.000000 0.000000 0.957846 0.130000 255 255 255 255
-44.786995 -10.096812 56.315651 0.000000 -1.000000 0.000000 0.542154 0.130000 255 255 255 255
-44.383514 -9.464866 55.986847 -0.383745 0.126484 -0.914736 -0.000000 1.000000 1 105 23 255
-45.078884 -9.464866 56.278564 -0.383745 0.126484 -0.914736 0.333333 1.000000 2 105 23 255
-44.646988 -7.757632 56.333443 -0.383745 0.126484 -0.914736 -0.000000 1.000000 61 119 65 255
-44.592388 -9.507911 56.463585 -0.169941 -0.959762 0.223557 0.666667 1.000000 0 97 12 255
-45.078884 -9.464866 56.278564 -0.169941 -0.959762 0.223557 0.333333 1.000000 1 97 12 255
-44.786995 -9.507911 56.315651 -0.169941 -0.959762 0.223557 0.333333 1.000000 0 97 12 255
-44.592388 -9.507911 56.463585 0.278576 -0.959762 0.035395 0.666667 1.000000 0 97 12 255
-44.383514 -9.464866 55.986847 0.278576 -0.959762 0.035395 1.000000 1.000000 0 97 12 255
-44.478561 -9.464866 56.734913 0.278576 -0.959762 0.035395 0.666667 1.000000 19 98 22 255
-45.078884 -9.464866 56.278564 -0.600310 0.126482 0.789703 0.333333 1.000000 2 105 23 255
-44.478561 -9.464866 56.734913 -0.600310 0.126482 0.789703 0.666667 1.000000 0 105 23 255
-44.646988 -7.757632 56.333443 -0.600310 0.126482 0.789703 0.333333 1.000000 61 119 65 255
-44.478561 -9.464866 56.734913 0.984057 0.126484 0.125031 0.666667 1.000000 0 105 23 255
-44.383514 -9.464866 55.986847 0.984057 0.126484 0.125031 1.000000 1.000000 1 105 23 255
-44.646988 -7.757632 56.333443 0.984057 0.126484 0.125031 0.666667 1.000000 61 119 65 255
-45.183701 -9.514488 57.361816 -0.190092 0.000000 0.981766 1.000000 1.000000 138 44 0 255
-45.563747 -10.447063 57.288231 -0.190092 0.000000 0.981766 0.666667 0.500000 140 52 28 255
-45.183701 -10.447063 57.361816 -0.190092 0.000000 0.981766 1.000000 0.500000 138 44 0 255
-45.563747 -9.514488 57.288231 -0.755191 0.000000 -0.655504 0.666667 1.000000 138 44 0 255
-45.309998 -10.447063 56.995892 -0.755191 0.000000 -0.655504 0.333333 0.500000 148 77 64 255
-45.563747 -10.447063 57.288231 -0.755191 0.000000 -0.655504 0.666667 0.500000 138 45 8 255
-45.309998 -9.514488 56.995892 0.265449 -0.959762 -0.091618 0.333333 1.000000 0 97 12 255
-44.831821 -9.446322 57.667248 0.265449 -0.959762 -0.091618 -0.000000 1.000000 0 97 12 255
-45.183701 -9.514488 57.361816 0.265449 -0.959762 -0.091618 -0.000000 1.000000 0 97 12 255
-45.309998 -9.514488 56.995892 0.945281 0.000000 -0.326259 0.333333 1.000000 138 44 0 255
-45.183701 -10.447063 57.361816 0.945281 0.000000 -0.326259 -0.000000 0.500000 138 44 0 255
-45.309998 -10.447063 56.995892 0.945281 0.000000 -0.326259 0.333333 0.500000 148 77 64 255
-45.183701 -10.447063 57.361816 0.000000 -1.000000 0.000000 0.750000 0.490000 255 255 255 255
-45.563747 -10.447063 57.288231 0.000000 -1.000000 0.000000 0.957846 0.130000 255 255 255 255
-45.309998 -10.447063 56.995892 0.000000 -1.000000 0.000000 0.542154 0.130000 255 255 255 255
-44.831821 -9.446322 57.667248 0.937689 0.126483 -0.323638 -0.000000 1.000000 1 105 23 255
-45.221424 -9.446322 56.538437 0.937689 0.126483 -0.323638 0.333333 1.000000 2 105 23 255
-45.352482 -6.742773 57.215309 0.937689 0.126483 -0.323638 -0.000000 1.000000 61 119 65 255
-45.563747 -9.514488 57.288231 -0.212070 -0.959761 -0.184077 0.666667 1.000000 0 97 12 255
-45.221424 -9.446322 56.538437 -0.212070 -0.959761 -0.184077 0.333333 1.000000 1 97 12 255
-45.309998 -9.514488 56.995892 -0.212070 -0.959761 -0.184077 0.333333 1.000000 0 97 12 255
-45.563747 -9.514488 57.288231 -0.053382 -0.959761 0.275699 0.666667 1.000000 0 97 12 255
-44.831821 -9.446322 57.667248 -0.053382 -0.959761 0.275699 1.000000 1.000000 0 97 12 255
-46.004200 -9.446322 57.440247 -0.053382 -0.959761 0.275699 0.666667 1.000000 19 98 22 255
-45.221424 -9.446322 56.538437 -0.749123 0.126483 -0.650243 0.333333 1.000000 2 105 23 255
-46.004200 -9.446322 57.440247 -0.749123 0.126483 -0.650243 0.666667 1.000000 0 105 23 255
-45.352482 -6.742773 57.215309 -0.749123 0.126483 -0.650243 0.333333 1.000000 61 119 65 255
-46.004200 -9.446322 57.440247 -0.188567 0.126484 0.973881 0.666667 1.000000 0 105 23 255
-44.831821 -9.446322 57.667248 -0.188567 0.126484 0.973881 1.000000 1.000000 1 105 23 255
-45.352482 -6.742773 57.215309 -0.188567 0.126484 0.973881 0.666667 1.000000 61 119 65 255
-44.267097 -9.511339 57.536400 -0.844795 0.000000 0.535090 1.000000 1.000000 138 44 0 255
-44.437687 -10.279367 57.267075 -0.844795 0.000000 0.535090 0.666667 0.500000 140 52 28 255
-44.267097 -10.279367 57.536400 -0.844795 0.000000 0.535090 1.000000 0.500000 138 44 0 255
-44.437687 -9.511339 57.267075 -0.041006 0.000000 -0.999159 0.666667 1.000000 138 44 0 255
-44.119152 -10.279367 57.254002 -0.041006 0.000000 -0.999159 0.333333 0.500000 148 77 64 255
-44.437687 -10.279367 57.267075 -0.041006 0.000000 -0.999159 0.666667 0.500000 138 45 8 255
-44.267097 -9.511339 57.536400 0.248748 -0.959761 0.130317 -0.000000 1.000000 0 97 12 255
-43.794979 -9.455201 57.048668 0.248748 -0.959761 0.130317 0.333333 1.000000 1 97 12 255
-44.251362 -9.455201 57.919811 0.248748 -0.959761 0.130317 -0.000000 1.000000 0 97 12 255
-44.119152 -9.511339 57.254002 0.885802 0.000000 0.464062 0.333333 1.000000 138 44 0 255
-44.267097 -10.279367 57.536400 0.885802 0.000000 0.464062 -0.000000 0.500000 138 44 0 255
-44.119152 -10.279367 57.254002 0.885802 0.000000 0.464062 0.333333 0.500000 148 77 64 255
-44.267097 -10.279367 57.536400 0.000000 -1.000000 0.000000 0.750000 0.490000 255 255 255 255
-44.437687 -10.279367 57.267075 0.000000 -1.000000 0.000000 0.957846 0.130000 255 255 255 255
-44.119152 -10.279367 57.254002 0.000000 -1.000000 0.000000 0.542154 0.130000 255 255 255 255
-44.251362 -9.455201 57.919811 0.878688 0.126483 0.460336 -0.000000 1.000000 1 105 23 255
-43.794979 -9.455201 57.048668 0.878688 0.126483 0.460336 0.333333 1.000000 2 105 23 255
-44.274647 -7.228677 57.352493 0.878688 0.126483 0.460336 -0.000000 1.000000 61 119 65 255
-44.437687 -9.511339 57.267075 -0.011515 -0.959762 -0.280578 0.666667 1.000000 0 97 12 255
-43.794979 -9.455201 57.048668 -0.011515 -0.959762 -0.280578 0.333333 1.000000 1 97 12 255
-44.119152 -9.511339 57.254002 -0.011515 -0.959762 -0.280578 0.333333 1.000000 0 97 12 255
-44.437687 -9.511339 57.267075 -0.237227 -0.959763 0.150260 0.666667 1.000000 0 97 12 255
-44.251362 -9.455201 57.919811 -0.237227 -0.959763 0.150260 1.000000 1.000000 0 97 12 255
-44.777603 -9.455201 57.088997 -0.237227 -0.959763 0.150260 0.666667 1.000000 19 98 22 255
-43.794979 -9.455201 57.048668 -0.040678 0.126484 -0.991134 0.333333 1.000000 2 105 23 255
-44.777603 -9.455201 57.088997 -0.040678 0.126484 -0.991134 0.666667 1.000000 0 105 23 255
-44.274647 -7.228677 57.352493 -0.040678 0.126484 -0.991134 0.333333 1.000000 61 119 65 255
-44.777603 -9.455201 57.088997 -0.838007 0.126483 0.530797 0.666667 1.000000 0 105 23 255
-44.251362 -9.455201 57.919811 -0.838007 0.126483 0.530797 1.000000 1.000000 1 105 23 255
-44.274647 -7.228677 57.352493 -0.838007 0.126483 0.530797 0.666667 1.000000 61 119 65 255
-46.774551 -9.620771 46.372749 0.514683 0.126483 0.847999 0.666667 1.000000 0 105 23 255
-45.839020 -9.620771 45.804939 0.514683 0.126483 0.847999 1.000000 1.000000 1 105 23 255
-46.470695 -7.143151 45.818779 0.514683 0.126483 0.847999 0.666667 1.000000 61 119 65 255
-46.798523 -9.620771 45.278648 -0.991731 0.126484 0.021729 0.333333 1.000000 2 105 23 255
-46.774551 -9.620771 46.372749 -0.991731 0.126484 0.021729 0.666667 1.000000 0 105 23 255
-46.470695 -7.143151 45.818779 -0.991731 0.126484 0.021729 0.333333 1.000000 61 119 65 255
-46.569195 -9.683242 45.998360 0.145705 -0.959760 0.240066 0.666667 1.000000 0 97 12 255
-45.839020 -9.620771 45.804939 0.145705 -0.959760 0.240066 1.000000 1.000000 0 97 12 255
-46.774551 -9.620771 46.372749 0.145705 -0.959760 0.240066 0.666667 1.000000 19 98 22 255
-46.576965 -9.683242 45.643684 -0.280749 -0.959761 0.006151 0.333333 1.000000 0 97 12 255
-46.774551 -9.620771 46.372749 -0.280749 -0.959761 0.006151 0.666667 1.000000 19 98 22 255
-46.798523 -9.620771 45.278648 -0.280749 -0.959761 0.006151 0.333333 1.000000 1 97 12 255
-45.839020 -9.620771 45.804939 0.477049 0.126483 -0.869728 -0.000000 1.000000 1 105 23 255
-46.798523 -9.620771 45.278648 0.477049 0.126483 -0.869728 0.333333 1.000000 2 105 23 255
-46.470695 -7.143151 45.818779 0.477049 0.126483 -0.869728 -0.000000 1.000000 61 119 65 255
-46.265926 -10.537885 45.814293 0.000000 -1.000000 0.000000 0.750000 0.490000 255 255 255 255
-46.569195 -10.537885 45.998360 0.000000 -1.000000 0.000000 0.957846 0.130000 255 255 255 255
-46.576965 -10.537885 45.643684 0.000000 -1.000000 0.000000 0.542154 0.130000 255 255 255 255
-46.576965 -9.683242 45.643684 0.480917 0.000000 -0.876766 0.333333 1.000000 138 44 0 255
-46.265926 -10.537885 45.814293 0.480917 0.000000 -0.876766 -0.000000 0.500000 138 44 0 255
-46.576965 -10.537885 45.643684 0.480917 0.000000 -0.876766 0.333333 0.500000 148 77 64 255
-46.576965 -9.683242 45.643684 0.135050 -0.959761 -0.246212 0.333333 1.000000 0 97 12 255
-45.839020 -9.620771 45.804939 0.135050 -0.959761 -0.246212 -0.000000 1.000000 0 97 12 255
-46.265926 -9.683242 45.814293 0.135050 -0.959761 -0.246212 -0.000000 1.000000 0 97 12 255
-46.569195 -9.683242 45.998360 -0.999760 0.000000 0.021904 0.666667 1.000000 138 44 0 255
-46.576965 -10.537885 45.643684 -0.999760 0.000000 0.021904 0.333333 0.500000 148 77 64 255
-46.569195 -10.537885 45.998360 -0.999760 0.000000 0.021904 0.666667 0.500000 138 45 8 255
-46.265926 -9.683242 45.814293 0.518853 0.000000 0.854863 1.000000 1.000000 138 44 0 255
-46.569195 -10.537885 45.998360 0.518853 0.000000 0.854863 0.666667 0.500000 140 52 28 255
-46.265926 -10.537885 45.814293 0.518853 0.000000 0.854863 1.000000 0.500000 138 44 0 255
-58.285500 -9.584955 52.537216 -0.557789 0.126483 0.820288 0.666667 1.000000 0 105 23 255
-56.677670 -9.584955 53.630527 -0.557789 0.126483 0.820288 1.000000 1.000000 1 105 23 255
-57.165970 -5.182990 52.619732 -0.557789 0.126483 0.820288 0.666667 1.000000 61 119 65 255
-56.534744 -9.584955 51.691448 -0.431496 0.126483 -0.893204 0.333333 1.000000 2 105 23 255
-58.285500 -9.584955 52.537216 -0.431496 0.126483 -0.893204 0.666667 1.000000 0 105 23 255
-57.165970 -5.182990 52.619732 -0.431496 0.126483 -0.893204 0.333333 1.000000 61 119 65 255
-57.528885 -9.695946 52.592983 -0.157907 -0.959760 0.232218 0.666667 1.000000 0 97 12 255
-56.677670 -9.584955 53.630527 -0.157907 -0.959760 0.232218 1.000000 1.000000 0 97 12 255
-58.285500 -9.584955 52.537216 -0.157907 -0.959760 0.232218 0.666667 1.000000 19 98 22 255
-56.961349 -9.695946 52.318810 -0.122155 -0.959760 -0.252862 0.333333 1.000000 0 97 12 255
-58.285500 -9.584955 52.537216 -0.122155 -0.959760 -0.252862 0.666667 1.000000 19 98 22 255
-56.534744 -9.584955 51.691448 -0.122155 -0.959760 -0.252862 0.333333 1.000000 1 97 12 255
-56.677670 -9.584955 53.630527 0.989285 0.126483 0.072918 -0.000000 1.000000 1 105 23 255
-56.534744 -9.584955 51.691448 0.989285 0.126483 0.072918 0.333333 1.000000 2 105 23 255
-57.165970 -5.182990 52.619732 0.989285 0.126483 0.072918 -0.000000 1.000000 61 119 65 255
-57.007679 -11.214382 52.947399 0.000000 -1.000000 0.000000 0.750000 0.490000 255 255 255 255
-57.528885 -11.214382 52.592983 0.000000 -1.000000 0.000000 0.957846 0.130000 255 255 255 255
-56.961349 -11.214382 52.318810 0.000000 -1.000000 0.000000 0.542154 0.130000 255 255 255 255
-56.961349 -9.695946 52.318810 0.997295 0.000000 0.073505 0.333333 1.000000 138 44 0 255
-57.007679 -11.214382 52.947399 0.997295 0.000000 0.073505 -0.000000 0.500000 138 44 0 255
-56.961349 -11.214382 52.318810 0.997295 0.000000 0.073505 0.333333 0.500000 148 77 64 255
-56.961349 -9.695946 52.318810 0.280063 -0.959760 0.020642 0.333333 1.000000 0 97 12 255
-56.677670 -9.584955 53.630527 0.280063 -0.959760 0.020642 -0.000000 1.000000 0 97 12 255
-57.007679 -9.695946 52.947399 0.280063 -0.959760 0.020642 -0.000000 1.000000 0 97 12 255
-57.528885 -9.695946 52.592983 -0.434995 0.000000 -0.900433 0.666667 1.000000 138 44 0 255
-56.961349 -11.214382 52.318810 -0.434995 0.000000 -0.900433 0.333333 0.500000 148 77 64 255
-57.528885 -11.214382 52.592983 -0.434995 0.000000 -0.900433 0.666667 0.500000 138 45 8 255
-57.007679 -9.695946 52.947399 -0.562306 0.000000 0.826930 1.000000 1.000000 138 44 0 255
-57.528885 -11.214382 52.592983 -0.562306 0.000000 0.826930 0.666667 0.500000 140 52 28 255
-57.007679 -11.214382 52.947399 -0.562306 0.000000 0.826930 1.000000 0.500000 138 44 0 255
-58.875492 -9.612258 50.900696 -0.872968 0.126484 0.471093 0.666667 1.000000 0 105 23 255
-58.259830 -9.612258 52.041561 -0.872968 0.126484 0.471093 1.000000 1.000000 1 105 23 255
-58.238319 -6.677254 51.293404 -0.872968 0.126484 0.471093 0.666667 1.000000 61 119 65 255
-57.579639 -9.612258 50.937954 0.028509 0.126483 -0.991559 0.333333 1.000000 2 105 23 255
-58.875492 -9.612258 50.900696 0.028509 0.126483 -0.991559 0.666667 1.000000 0 105 23 255
-58.238319 -6.677254 51.293404 0.028509 0.126483 -0.991559 0.333333 1.000000 61 119 65 255
-58.444870 -9.686261 51.166100 -0.247132 -0.959760 0.133363 0.666667 1.000000 0 97 12 255
-58.259830 -9.612258 52.041561 -0.247132 -0.959760 0.133363 1.000000 1.000000 0 97 12 255
-58.875492 -9.612258 50.900696 -0.247132 -0.959760 0.133363 0.666667 1.000000 19 98 22 255
-58.024796 -9.686261 51.178177 0.008071 -0.959759 -0.280708 0.333333 1.000000 0 97 12 255
-58.875492 -9.612258 50.900696 0.008071 -0.959759 -0.280708 0.666667 1.000000 19 98 22 255
-57.579639 -9.612258 50.937954 0.008071 -0.959759 -0.280708 0.333333 1.000000 1 97 12 255
-58.259830 -9.612258 52.041561 0.844460 0.126483 0.520470 -0.000000 1.000000 1 105 23 255
-57.579639 -9.612258 50.937954 0.844460 0.126483 0.520470 0.333333 1.000000 2 105 23 255
-58.238319 -6.677254 51.293404 0.844460 0.126483 0.520470 -0.000000 1.000000 61 119 65 255
-58.245293 -10.698676 51.535934 -0.000000 -1.000000 0.000000 0.750000 0.490000 255 255 255 255
-58.444870 -10.698676 51.166100 -0.000000 -1.000000 0.000000 0.957846 0.130000 255 255 255 255
-58.024796 -10.698676 51.178177 -0.000000 -1.000000 0.000000 0.542154 0.130000 255 255 255 255
-58.024796 -9.686261 51.178177 0.851298 0.000000 0.524682 0.333333 1.000000 138 44 0 255
-58.245293 -10.698676 51.535934 0.851298 0.000000 0.524682 -0.000000 0.500000 138 44 0 255
-58.024796 -10.698676 51.178177 0.851298 0.000000 0.524682 0.333333 0.500000 148 77 64 255
-58.024796 -9.686261 51.178177 0.239065 -0.959759 0.147343 0.333333 1.000000 0 97 12 255
-58.259830 -9.612258 52.041561 0.239065 -0.959759 0.147343 -0.000000 1.000000 0 97 12 255
-58.245293 -9.686261 51.535934 0.239065 -0.959759 0.147343 -0.000000 1.000000 0 97 12 255
-58.444870 -9.686261 51.166100 0.028739 0.000000 -0.999587 0.666667 1.000000 138 44 0 255
-58.024796 -10.698676 51.178177 0.028739 0.000000 -0.999587 0.333333 0.500000 148 77 64 255
-58.444870 -10.698676 51.166100 0.028739 0.000000 -0.999587 0.666667 0.500000 138 45 8 255
-58.245293 -9.686261 51.535934 -0.880038 0.000000 0.474903 1.000000 1.000000 138 44 0 255
-58.444870 -10.698676 51.166100 -0.880038 0.000000 0.474903 0.666667 0.500000 140 52 28 255
-58.245293 -10.698676 51.535934 -0.880038 0.000000 0.474903 1.000000 0.500000 138 44 0 255
-49.736206 -9.683674 43.152161 0.248119 -0.959757 -0.131540 0.666667 1.000000 0 97 12 255
-49.863190 -9.683674 42.912636 0.248119 -0.959757 -0.131540 1.000000 1.000000 0 97 12 255
-49.851410 -9.635935 42.586536 0.248119 -0.959757 -0.131540 1.000000 1.000000 0 97 12 255
-49.736206 -9.683674 43.152161 -0.010139 -0.959759 0.280641 0.666667 1.000000 0 97 12 255
-49.459686 -9.635935 43.325413 -0.010139 -0.959759 0.280641 0.666667 1.000000 19 98 22 255
-50.295433 -9.635935 43.295219 -0.010139 -0.959759 0.280641 0.333333 1.000000 1 97 12 255
-49.863190 -9.683674 42.912636 -0.847410 0.000000 -0.530940 -0.000000 1.000000 138 44 0 255
-50.007130 -9.683674 43.142372 -0.237970 -0.959760 -0.149099 0.333333 1.000000 0 97 12 255
-50.295433 -9.635935 43.295219 -0.237970 -0.959760 -0.149099 0.333333 1.000000 1 97 12 255
-49.851410 -9.635935 42.586536 -0.237970 -0.959760 -0.149099 -0.000000 1.000000 0 97 12 255
-50.007130 -9.683674 43.142372 -0.036107 0.000000 0.999348 0.333333 1.000000 138 44 0 255
-49.736206 -9.683674 43.152161 0.883519 0.000000 -0.468396 0.666667 1.000000 138 44 0 255
-49.896709 -9.812325 42.303413 0.992024 -0.000000 0.126045 0.666667 1.000000 138 44 0 255
-50.091316 -9.812325 42.155479 -0.605168 0.000000 0.796098 0.333333 1.000000 138 44 0 255
-50.091316 -9.812325 42.155479 -0.108635 -0.959761 -0.258953 0.333333 1.000000 0 97 12 255
-50.383205 -9.769280 42.118393 -0.108635 -0.959761 -0.258953 0.333333 1.000000 1 97 12 255
-49.687836 -9.769280 41.826675 -0.108635 -0.959761 -0.258953 -0.000000 1.000000 0 97 12 255
-49.865898 -9.812325 42.060917 -0.386839 0.000000 -0.922147 -0.000000 1.000000 138 44 0 255
-49.896709 -9.812325 42.303413 -0.169940 -0.959762 0.223555 0.666667 1.000000 0 97 12 255
-49.782883 -9.769280 42.574741 -0.169940 -0.959762 0.223555 0.666667 1.000000 19 98 22 255
-50.383205 -9.769280 42.118393 -0.169940 -0.959762 0.223555 0.333333 1.000000 1 97 12 255
-49.896709 -9.812325 42.303413 0.278577 -0.959761 0.035396 0.666667 1.000000 0 97 12 255
-49.865898 -9.812325 42.060917 0.278577 -0.959761 0.035396 1.000000 1.000000 0 97 12 255
-49.687836 -9.769280 41.826675 0.278577 -0.959761 0.035396 1.000000 1.000000 0 97 12 255
-50.490929 -9.685826 43.120750 0.235118 -0.959760 0.153560 0.666667 1.000000 0 97 12 255
-50.266289 -9.685826 42.776802 0.235118 -0.959760 0.153560 1.000000 1.000000 0 97 12 255
-49.825123 -9.613485 42.553463 0.235118 -0.959760 0.153560 1.000000 1.000000 0 97 12 255
-50.676479 -9.685826 42.754230 -0.250543 -0.959761 0.126837 0.333333 1.000000 0 97 12 255
-50.490929 -9.685826 43.120750 -0.250543 -0.959761 0.126837 0.666667 1.000000 0 97 12 255
-50.518097 -9.613485 43.614479 -0.250543 -0.959761 0.126837 0.666667 1.000000 19 98 22 255
-50.266289 -9.685826 42.776802 0.054944 0.000000 -0.998489 -0.000000 1.000000 138 44 0 255
-50.676479 -9.685826 42.754230 0.015429 -0.959760 -0.280397 0.333333 1.000000 0 97 12 255
-51.090477 -9.613485 42.483837 0.015429 -0.959760 -0.280397 0.333333 1.000000 1 97 12 255
-49.825123 -9.613485 42.553463 0.015429 -0.959760 -0.280397 -0.000000 1.000000 0 97 12 255
-50.676479 -9.685826 42.754230 -0.892186 0.000000 0.451669 0.333333 1.000000 138 44 0 255
-50.490929 -9.685826 43.120750 0.837248 -0.000000 0.546824 0.666667 1.000000 138 44 0 255
-44.592388 -9.507911 56.463585 0.992025 -0.000000 0.126043 0.666667 1.000000 138 44 0 255
-44.786995 -9.507911 56.315651 -0.605168 0.000000 0.796098 0.333333 1.000000 138 44 0 255
-44.786995 -9.507911 56.315651 -0.108635 -0.959761 -0.258953 0.333333 1.000000 0 97 12 255
-45.078884 -9.464866 56.278564 -0.108635 -0.959761 -0.258953 0.333333 1.000000 1 97 12 255
-44.383514 -9.464866 55.986847 -0.108635 -0.959761 -0.258953 -0.000000 1.000000 0 97 12 255
-44.561577 -9.507911 56.221085 -0.386853 0.000000 -0.922142 -0.000000 1.000000 138 44 0 255
-44.592388 -9.507911 56.463585 -0.169940 -0.959762 0.223555 0.666667 1.000000 0 97 12 255
-44.478561 -9.464866 56.734913 -0.169940 -0.959762 0.223555 0.666667 1.000000 19 98 22 255
-45.078884 -9.464866 56.278564 -0.169940 -0.959762 0.223555 0.333333 1.000000 1 97 12 255
-44.592388 -9.507911 56.463585 0.278575 -0.959762 0.035395 0.666667 1.000000 0 97 12 255
-44.561577 -9.507911 56.221085 0.278575 -0.959762 0.035395 1.000000 1.000000 0 97 12 255
-44.383514 -9.464866 55.986847 0.278575 -0.959762 0.035395 1.000000 1.000000 0 97 12 255
-45.563747 -9.514488 57.288231 -0.190092 0.000000 0.981766 0.666667 1.000000 138 44 0 255
-45.309998 -9.514488 56.995892 -0.755191 0.000000 -0.655504 0.333333 1.000000 138 44 0 255
-45.221424 -9.446322 56.538437 0.265449 -0.959762 -0.091618 0.333333 1.000000 1 97 12 255
-45.183701 -9.514488 57.361816 0.945281 0.000000 -0.326259 -0.000000 1.000000 138 44 0 255
-45.563747 -9.514488 57.288231 -0.212067 -0.959763 -0.184075 0.666667 1.000000 0 97 12 255
-46.004200 -9.446322 57.440247 -0.212067 -0.959763 -0.184075 0.666667 1.000000 19 98 22 255
-45.221424 -9.446322 56.538437 -0.212067 -0.959763 -0.184075 0.333333 1.000000 1 97 12 255
-45.563747 -9.514488 57.288231 -0.053381 -0.959761 0.275697 0.666667 1.000000 0 97 12 255
-45.183701 -9.514488 57.361816 -0.053381 -0.959761 0.275697 1.000000 1.000000 0 97 12 255
-44.831821 -9.446322 57.667248 -0.053381 -0.959761 0.275697 1.000000 1.000000 0 97 12 255
-44.437687 -9.511339 57.267075 -0.844795 0.000000 0.535090 0.666667 1.000000 138 44 0 255
-44.119152 -9.511339 57.254002 -0.041006 0.000000 -0.999159 0.333333 1.000000 138 44 0 255
-44.119152 -9.511339 57.254002 0.248748 -0.959761 0.130317 0.333333 1.000000 0 97 12 255
-44.267097 -9.511339 57.536400 0.885802 -0.000000 0.464062 -0.000000 1.000000 138 44 0 255
-44.437687 -9.511339 57.267075 -0.011516 -0.959762 -0.280579 0.666667 1.000000 0 97 12 255
-44.777603 -9.455201 57.088997 -0.011516 -0.959762 -0.280579 0.666667 1.000000 19 98 22 255
-43.794979 -9.455201 57.048668 -0.011516 -0.959762 -0.280579 0.333333 1.000000 1 97 12 255
-44.437687 -9.511339 57.267075 -0.237232 -0.959762 0.150262 0.666667 1.000000 0 97 12 255
-44.267097 -9.511339 57.536400 -0.237232 -0.959762 0.150262 1.000000 1.000000 0 97 12 255
-44.251362 -9.455201 57.919811 -0.237232 -0.959762 0.150262 1.000000 1.000000 0 97 12 255
-46.569195 -9.683242 45.998360 0.145704 -0.959760 0.240062 0.666667 1.000000 0 97 12 255
-46.265926 -9.683242 45.814293 0.145704 -0.959760 0.240062 1.000000 1.000000 0 97 12 255
-45.839020 -9.620771 45.804939 0.145704 -0.959760 0.240062 1.000000 1.000000 0 97 12 255
-46.576965 -9.683242 45.643684 -0.280750 -0.959761 0.006151 0.333333 1.000000 0 97 12 255
-46.569195 -9.683242 45.998360 -0.280750 -0.959761 0.006151 0.666667 1.000000 0 97 12 255
-46.774551 -9.620771 46.372749 -0.280750 -0.959761 0.006151 0.666667 1.000000 19 98 22 255
-46.265926 -9.683242 45.814293 0.480917 0.000000 -0.876766 -0.000000 1.000000 138 44 0 255
-46.576965 -9.683242 45.643684 0.135051 -0.959759 -0.246217 0.333333 1.000000 0 97 12 255
-46.798523 -9.620771 45.278648 0.135051 -0.959759 -0.246217 0.333333 1.000000 1 97 12 255
-45.839020 -9.620771 45.804939 0.135051 -0.959759 -0.246217 -0.000000 1.000000 0 97 12 255
-46.576965 -9.683242 45.643684 -0.999760 0.000000 0.021904 0.333333 1.000000 138 44 0 255
-46.569195 -9.683242 45.998360 0.518853 -0.000000 0.854863 0.666667 1.000000 138 44 0 255
-57.007679 -9.695946 52.947399 -0.157907 -0.959760 0.232218 1.000000 1.000000 0 97 12 255
-56.961349 -9.695946 52.318810 -0.122154 -0.959761 -0.252856 0.333333 1.000000 0 97 12 255
-57.528885 -9.695946 52.592983 -0.122154 -0.959761 -0.252856 0.666667 1.000000 0 97 12 255
-58.285500 -9.584955 52.537216 -0.122154 -0.959761 -0.252856 0.666667 1.000000 19 98 22 255
-57.007679 -9.695946 52.947399 0.997295 -0.000000 0.073505 -0.000000 1.000000 138 44 0 255
-56.961349 -9.695946 52.318810 0.280059 -0.959761 0.020643 0.333333 1.000000 0 97 12 255
-56.534744 -9.584955 51.691448 0.280059 -0.959761 0.020643 0.333333 1.000000 1 97 12 255
-56.677670 -9.584955 53.630527 0.280059 -0.959761 0.020643 -0.000000 1.000000 0 97 12 255
-56.961349 -9.695946 52.318810 -0.434995 0.000000 -0.900433 0.333333 1.000000 138 44 0 255
-57.528885 -9.695946 52.592983 -0.562306 0.000000 0.826930 0.666667 1.000000 138 44 0 255
-58.444870 -9.686261 51.166100 -0.247136 -0.959759 0.133364 0.666667 1.000000 0 97 12 255
-58.245293 -9.686261 51.535934 -0.247136 -0.959759 0.133364 1.000000 1.000000 0 97 12 255
-58.259830 -9.612258 52.041561 -0.247136 -0.959759 0.133364 1.000000 1.000000 0 97 12 255
-58.024796 -9.686261 51.178177 0.008070 -0.959760 -0.280707 0.333333 1.000000 0 97 12 255
-58.444870 -9.686261 51.166100 0.008070 -0.959760 -0.280707 0.666667 1.000000 0 97 12 255
-58.875492 -9.612258 50.900696 0.008070 -0.959760 -0.280707 0.666667 1.000000 19 98 22 255
-58.245293 -9.686261 51.535934 0.851298 -0.000000 0.524682 -0.000000 1.000000 138 44 0 255
-58.024796 -9.686261 51.178177 0.239063 -0.959760 0.147343 0.333333 1.000000 0 97 12 255
-57.579639 -9.612258 50.937954 0.239063 -0.959760 0.147343 0.333333 1.000000 1 97 12 255
-58.259830 -9.612258 52.041561 0.239063 -0.959760 0.147343 -0.000000 1.000000 0 97 12 255
-58.024796 -9.686261 51.178177 0.028739 0.000000 -0.999587 0.333333 1.000000 138 44 0 255
-58.444870 -9.686261 51.166100 -0.880038 0.000000 0.474903 0.666667 1.000000 138 44 0 255
3 0 1 2
3 3 4 5
3 6 7 8
3 9 10 11
3 12 13 14
3 15 16 17
3 18 19 20
3 21 22 23
3 24 25 26
3 27 28 29
3 30 31 32
3 33 34 35
3 36 37 38
3 39 40 41
3 42 43 44
3 45 46 47
3 48 49 50
3 51 52 53
3 54 55 56
3 57 58 59
3 60 61 62
3 63 64 65
3 66 67 68
3 69 70 71
3 72 73 74
3 75 76 77
3 78 79 80
3 81 82 83
3 84 85 86
3 87 88 89
3 90 91 92
3 93 94 95
3 96 97 98
3 99 100 101
3 102 103 104
3 105 106 107
3 108 109 110
3 111 112 113
3 114 115 116
3 117 118 119
3 120 121 122
3 123 124 125
3 126 127 128
3 129 130 131
3 132 133 134
3 135 136 137
3 138 139 140
3 141 142 143
3 144 145 146
3 147 148 149
3 150 151 152
3 153 154 155
3 156 157 158
3 159 160 161
3 162 163 164
3 165 166 167
3 168 169 170
3 171 172 173
3 174 175 176
3 177 178 179
3 180 181 182
3 183 184 185
3 186 187 188
3 189 190 191
3 192 193 194
3 195 196 197
3 198 199 200
3 201 202 203
3 204 205 206
3 207 208 209
3 210 211 212
3 213 214 215
3 216 217 218
3 219 220 221
3 222 223 224
3 225 226 227
3 228 229 230
3 231 232 233
3 234 235 236
3 237 238 239
3 240 241 242
3 243 244 245
3 246 247 248
3 249 250 251
3 252 253 254
3 255 256 257
3 258 259 260
3 261 262 263
3 264 265 266
3 267 268 269
3 270 271 272
3 273 274 275
3 18 276 19
3 277 278 279
3 24 280 25
3 27 281 28
3 30 282 31
3 33 283 34
3 284 285 286
3 39 287 40
3 288 289 290
3 291 292 293
3 294 295 296
3 297 298 299
3 78 300 79
3 301 302 303
3 84 304 85
3 87 305 88
3 90 306 91
3 93 307 94
3 308 309 310
3 99 311 100
3 312 313 314
3 315 316 317
3 120 318 121
3 123 319 124
3 126 320 127
3 129 321 130
3 322 323 324
3 325 326 327
3 150 328 151
3 153 329 154
3 156 330 157
3 159 331 160
3 332 333 334
3 335 336 337
3 338 339 340
3 341 342 343
3 198 344 199
3 345 346 347
3 204 348 205
3 207 349 208
3 216 350 217
3 351 352 353
3 228 354 229
3 355 356 357
3 234 358 235
3 237 359 238
3 360 361 362
3 363 364 365
3 258 366 259
3 367 368 369
3 264 370 265
3 267 371 268
