ply
format ascii 1.0
comment Created by Blender 2.92.0 - www.blender.org
element vertex 56
property float x
property float y
property float z
property float nx
property float ny
property float nz
property float s
property float t
property uchar red
property uchar green
property uchar blue
property uchar alpha
element face 24
property list uchar uint vertex_indices
end_header
6.225025 -9.776961 -4.553616 0.418883 0.061008 0.905989 0.000000 0.000000 255 173 76 255
11.929665 -0.343230 -7.826407 0.418883 0.061008 0.905989 0.000000 0.000000 255 191 101 255
6.941454 0.542273 -5.579742 0.418883 0.061008 0.905989 0.000000 0.000000 255 191 101 255
6.830549 -9.576464 -0.329320 -0.418338 -0.056570 -0.906528 0.000000 0.000000 255 191 101 255
11.615378 -0.269777 -3.118153 -0.418338 -0.056570 -0.906528 0.000000 0.000000 255 191 101 255
11.818759 -10.461967 -2.575984 -0.418338 -0.056570 -0.906528 0.000000 0.000000 255 191 101 255
6.225025 -9.776961 -4.553616 0.144788 0.987150 -0.067607 0.000000 0.000000 255 173 76 255
11.818759 -10.461967 -2.575984 0.144788 0.987150 -0.067607 0.000000 0.000000 255 191 101 255
11.213236 -10.662464 -6.800281 0.144788 0.987150 -0.067607 0.000000 0.000000 255 173 76 255
11.615378 -0.269777 -3.118153 -0.661893 -0.052983 -0.747723 0.000000 0.000000 255 191 101 255
15.563648 -10.303370 -5.902239 -0.661893 -0.052983 -0.747723 0.000000 0.000000 255 191 101 255
11.818759 -10.461967 -2.575984 -0.661893 -0.052983 -0.747723 0.000000 0.000000 255 191 101 255
11.213236 -10.662464 -6.800281 -0.074703 0.996534 -0.036590 0.000000 0.000000 255 173 76 255
15.563648 -10.303370 -5.902239 -0.074703 0.996534 -0.036590 0.000000 0.000000 255 191 101 255
14.958125 -10.503867 -10.126535 -0.074703 0.996534 -0.036590 0.000000 0.000000 255 173 76 255
11.929665 -0.343230 -7.826407 0.663143 0.028336 0.747956 0.000000 0.000000 255 191 101 255
14.958125 -10.503867 -10.126535 0.663143 0.028336 0.747956 0.000000 0.000000 255 173 76 255
15.674555 -0.184634 -11.152662 0.663143 0.028336 0.747956 0.000000 0.000000 255 191 101 255
15.563648 -10.303370 -5.902239 -0.234002 -0.220223 -0.946966 0.000000 0.000000 255 191 101 255
19.553686 -1.490983 -8.937585 -0.234002 -0.220223 -0.946966 0.000000 0.000000 255 191 101 255
19.900122 -11.683172 -6.652929 -0.234002 -0.220223 -0.946966 0.000000 0.000000 255 191 101 255
14.958125 -10.503867 -10.126535 0.288423 0.953579 -0.086603 0.000000 0.000000 255 173 76 255
19.900122 -11.683172 -6.652929 0.288423 0.953579 -0.086603 0.000000 0.000000 255 191 101 255
19.294598 -11.883670 -10.877225 0.288423 0.953579 -0.086603 0.000000 0.000000 255 173 76 255
14.958125 -10.503867 -10.126535 0.458956 0.056306 0.886673 0.000000 0.000000 255 173 76 255
19.951981 -1.564436 -13.279102 0.458956 0.056306 0.886673 0.000000 0.000000 255 191 101 255
15.674555 -0.184634 -11.152662 0.458956 0.056306 0.886673 0.000000 0.000000 255 191 101 255
19.900122 -11.683172 -6.652929 0.088892 -0.037504 -0.995335 0.000000 0.000000 255 191 101 255
25.309759 -0.353727 -6.596697 0.088892 -0.037504 -0.995335 0.000000 0.000000 255 191 101 255
25.513142 -14.260455 -6.054528 0.088892 -0.037504 -0.995335 0.000000 0.000000 255 191 101 255
19.900122 -11.683172 -6.652929 0.424127 0.899669 -0.103497 0.000000 0.000000 255 191 101 255
24.907618 -14.460953 -10.278824 0.424127 0.899669 -0.103497 0.000000 0.000000 255 173 76 255
19.294598 -11.883670 -10.877225 0.424127 0.899669 -0.103497 0.000000 0.000000 255 173 76 255
19.294598 -11.883670 -10.877225 -0.361016 0.233164 0.902941 0.000000 0.000000 255 173 76 255
25.624048 -0.427180 -11.304951 -0.361016 0.233164 0.902941 0.000000 0.000000 255 191 101 255
19.951981 -1.564436 -13.279102 -0.361016 0.233164 0.902941 0.000000 0.000000 255 191 101 255
11.213236 -10.662464 -6.800281 0.418883 0.061008 0.905989 0.000000 0.000000 255 173 76 255
6.627168 0.615726 -0.871489 -0.418338 -0.056570 -0.906528 0.000000 0.000000 255 191 101 255
6.830549 -9.576464 -0.329320 0.144788 0.987150 -0.067607 0.000000 0.000000 255 191 101 255
15.360267 -0.111180 -6.444407 -0.661893 -0.052983 -0.747723 0.000000 0.000000 255 191 101 255
11.818759 -10.461967 -2.575984 -0.074703 0.996534 -0.036590 0.000000 0.000000 255 191 101 255
11.213236 -10.662464 -6.800281 0.663143 0.028336 0.747956 0.000000 0.000000 255 173 76 255
15.563648 -10.303370 -5.902239 -0.523722 -0.055670 -0.850068 0.000000 0.000000 255 191 101 255
15.360267 -0.111180 -6.444407 -0.523722 -0.055670 -0.850068 0.000000 0.000000 255 191 101 255
19.553686 -1.490983 -8.937585 -0.523722 -0.055670 -0.850068 0.000000 0.000000 255 191 101 255
15.563648 -10.303370 -5.902239 0.288423 0.953579 -0.086603 0.000000 0.000000 255 191 101 255
14.958125 -10.503867 -10.126535 0.230367 0.206655 0.950907 0.000000 0.000000 255 173 76 255
19.294598 -11.883670 -10.877225 0.230367 0.206655 0.950907 0.000000 0.000000 255 173 76 255
19.951981 -1.564436 -13.279102 0.230367 0.206655 0.950907 0.000000 0.000000 255 191 101 255
19.900122 -11.683172 -6.652929 0.401582 -0.187300 -0.896466 0.000000 0.000000 255 191 101 255
19.553686 -1.490983 -8.937585 0.401582 -0.187300 -0.896466 0.000000 0.000000 255 191 101 255
25.309759 -0.353727 -6.596697 0.401582 -0.187300 -0.896466 0.000000 0.000000 255 191 101 255
25.513142 -14.260455 -6.054528 0.424127 0.899669 -0.103497 0.000000 0.000000 255 191 101 255
19.294598 -11.883670 -10.877225 -0.070975 0.076343 0.994552 0.000000 0.000000 255 173 76 255
24.907618 -14.460953 -10.278824 -0.070975 0.076343 0.994552 0.000000 0.000000 255 173 76 255
25.624048 -0.427180 -11.304951 -0.070975 0.076343 0.994552 0.000000 0.000000 255 191 101 255
3 0 1 2
3 3 4 5
3 6 7 8
3 9 10 11
3 12 13 14
3 15 16 17
3 18 19 20
3 21 22 23
3 24 25 26
3 27 28 29
3 30 31 32
3 33 34 35
3 0 36 1
3 3 37 4
3 6 38 7
3 9 39 10
3 12 40 13
3 15 41 16
3 42 43 44
3 21 45 22
3 46 47 48
3 49 50 51
3 30 52 31
3 53 54 55
