ply
format ascii 1.0
comment Created by Blender 2.92.0 - www.blender.org
element vertex 114
property float x
property float y
property float z
property float nx
property float ny
property float nz
property float s
property float t
property uchar red
property uchar green
property uchar blue
property uchar alpha
element face 38
property list uchar uint vertex_indices
end_header
-5.394837 -5.041954 3.814024 0.196245 0.963466 -0.182265 1.000000 0.000000 255 202 117 255
-2.691585 -4.876855 7.597343 0.196245 0.963466 -0.182265 0.000000 1.000000 255 183 94 255
-2.280334 -5.521305 4.633526 0.196245 0.963466 -0.182265 0.000000 0.000000 255 192 103 255
-5.394837 -5.041954 3.814024 0.328510 0.925051 -0.190690 1.000000 0.000000 255 202 117 255
-1.752694 -6.804205 1.539693 0.328510 0.925051 -0.190690 0.000000 0.000000 255 191 101 255
-5.359735 -5.630082 1.021443 0.328510 0.925051 -0.190690 1.000000 0.000000 255 190 100 255
-5.359735 -5.630082 1.021443 0.299552 0.860183 -0.412740 1.000000 0.000000 255 190 100 255
-2.151646 -7.552241 -0.656169 0.299552 0.860183 -0.412740 0.000000 0.000000 255 191 101 255
-5.936589 -6.739996 -1.710364 0.299552 0.860183 -0.412740 1.000000 0.000000 255 190 100 255
-5.936589 -6.739996 -1.710364 -0.211063 0.970719 -0.114707 1.000000 0.000000 255 190 100 255
-2.912213 -6.466057 -4.957047 -0.211063 0.970719 -0.114707 0.000000 0.000000 255 191 101 255
-6.382766 -7.095537 -3.898195 -0.211063 0.970719 -0.114707 1.000000 0.000000 255 183 91 255
-2.151646 -7.552241 -0.656169 0.492476 0.860527 0.130236 0.000000 0.000000 255 191 101 255
0.729774 -8.550020 -4.959224 0.492476 0.860527 0.130236 0.000000 0.000000 255 190 99 255
-2.912213 -6.466057 -4.957047 0.492476 0.860527 0.130236 0.000000 0.000000 255 191 101 255
1.221500 -7.796507 -1.766448 0.228616 0.939029 -0.256826 0.000000 0.000000 255 191 101 255
6.225025 -9.776961 -4.553616 0.228616 0.939029 -0.256826 0.000000 0.000000 255 173 76 255
0.729774 -8.550020 -4.959224 0.228616 0.939029 -0.256826 0.000000 0.000000 255 190 99 255
-2.691585 -4.876855 7.597343 -0.987510 0.052695 -0.148482 0.000000 1.000000 255 183 94 255
-1.829998 2.115983 4.348854 -0.987510 0.052695 -0.148482 0.000000 0.000000 255 191 101 255
-2.280334 -5.521305 4.633526 -0.987510 0.052695 -0.148482 0.000000 0.000000 255 192 103 255
-2.151646 -7.552241 -0.656169 -0.316563 -0.072525 -0.945795 0.000000 0.000000 255 191 101 255
0.701615 1.483241 -2.304020 -0.316563 -0.072525 -0.945795 0.000000 0.000000 255 191 101 255
1.221500 -7.796507 -1.766448 -0.316563 -0.072525 -0.945795 0.000000 0.000000 255 191 101 255
-5.359735 -5.630082 1.021443 0.992312 0.023826 0.121449 1.000000 0.000000 255 190 100 255
-5.122600 0.666590 -2.151395 0.992312 0.023826 0.121449 1.000000 0.000000 255 191 101 255
-5.467189 1.701094 0.461158 0.992312 0.023826 0.121449 1.000000 0.000000 255 191 101 255
-1.752694 -6.804205 1.539693 -0.980804 -0.038221 0.191216 0.000000 0.000000 255 191 101 255
-2.540192 1.231242 -0.893465 -0.980804 -0.038221 0.191216 0.000000 0.000000 255 191 101 255
-2.151646 -7.552241 -0.656169 -0.980804 -0.038221 0.191216 0.000000 0.000000 255 191 101 255
-5.394837 -5.041954 3.814024 0.994370 0.082783 0.066151 1.000000 0.000000 255 202 117 255
-6.332549 3.032294 7.805256 0.994370 0.082783 0.066151 1.000000 1.000000 255 192 107 255
-5.717177 -5.324843 9.013398 0.994370 0.082783 0.066151 1.000000 1.000000 255 204 119 255
0.729774 -8.550020 -4.959224 0.013348 0.059002 0.998169 0.000000 0.000000 255 190 99 255
6.941454 0.542273 -5.579742 0.013348 0.059002 0.998169 0.000000 0.000000 255 191 101 255
0.690313 1.194630 -5.534709 0.013348 0.059002 0.998169 0.000000 0.000000 255 201 130 255
-2.912213 -6.466057 -4.957047 0.268660 0.125277 0.955054 0.000000 0.000000 255 191 101 255
-6.994833 0.557278 -4.729863 0.268660 0.125277 0.955054 1.000000 0.000000 255 191 101 255
-6.382766 -7.095537 -3.898195 0.268660 0.125277 0.955054 1.000000 0.000000 255 183 91 255
-2.691585 -4.876855 7.597343 -0.219262 -0.075366 -0.972751 0.000000 1.000000 255 183 94 255
-6.332549 3.032294 7.805256 -0.219262 -0.075366 -0.972751 1.000000 1.000000 255 192 107 255
-2.604819 2.630988 6.996102 -0.219262 -0.075366 -0.972751 0.000000 1.000000 255 191 101 255
1.221500 -7.796507 -1.766448 0.233905 -0.046991 -0.971123 0.000000 0.000000 255 191 101 255
6.627168 0.615726 -0.871489 0.233905 -0.046991 -0.971123 0.000000 0.000000 255 191 101 255
6.830549 -9.576464 -0.329320 0.233905 -0.046991 -0.971123 0.000000 0.000000 255 191 101 255
-6.382766 -7.095537 -3.898195 0.976563 -0.118042 -0.179973 1.000000 0.000000 255 183 91 255
-5.122600 0.666590 -2.151395 0.976563 -0.118042 -0.179973 1.000000 0.000000 255 191 101 255
-5.936589 -6.739996 -1.710364 0.976563 -0.118042 -0.179973 1.000000 0.000000 255 190 100 255
-5.394837 -5.041954 3.814024 0.938405 0.161865 0.305281 1.000000 0.000000 255 202 117 255
-5.467189 1.701094 0.461158 0.938405 0.161865 0.305281 1.000000 0.000000 255 191 101 255
-6.546524 1.755049 3.750326 0.938405 0.161865 0.305281 1.000000 0.000000 255 191 101 255
-2.280334 -5.521305 4.633526 -0.987440 -0.034073 -0.154275 0.000000 0.000000 255 192 103 255
-1.941963 1.755601 0.860582 -0.987440 -0.034073 -0.154275 0.000000 0.000000 255 191 101 255
-1.752694 -6.804205 1.539693 -0.987440 -0.034073 -0.154275 0.000000 0.000000 255 191 101 255
-2.912213 -6.466057 -4.957047 0.058284 0.047783 0.997156 0.000000 0.000000 255 191 101 255
0.690313 1.194630 -5.534709 0.058284 0.047783 0.997156 0.000000 0.000000 255 201 130 255
-2.929068 1.009690 -5.314293 0.058284 0.047783 0.997156 0.000000 0.000000 255 191 101 255
-5.394837 -5.041954 3.814024 -0.125137 0.991065 0.046164 1.000000 0.000000 255 202 117 255
-5.717177 -5.324843 9.013398 -0.125137 0.991065 0.046164 1.000000 1.000000 255 204 119 255
-2.691585 -4.876855 7.597343 -0.125137 0.991065 0.046164 0.000000 1.000000 255 183 94 255
-5.394837 -5.041954 3.814024 0.229641 0.912282 -0.339126 1.000000 0.000000 255 202 117 255
-2.280334 -5.521305 4.633526 0.229641 0.912282 -0.339126 0.000000 0.000000 255 192 103 255
-1.752694 -6.804205 1.539693 0.229641 0.912282 -0.339126 0.000000 0.000000 255 191 101 255
-5.359735 -5.630082 1.021443 0.335119 0.871593 -0.357800 1.000000 0.000000 255 190 100 255
-1.752694 -6.804205 1.539693 0.335119 0.871593 -0.357800 0.000000 0.000000 255 191 101 255
-2.151646 -7.552241 -0.656169 0.335119 0.871593 -0.357800 0.000000 0.000000 255 191 101 255
-5.936589 -6.739996 -1.710364 0.146413 0.964948 0.217805 1.000000 0.000000 255 190 100 255
-2.151646 -7.552241 -0.656169 0.146413 0.964948 0.217805 0.000000 0.000000 255 191 101 255
-2.912213 -6.466057 -4.957047 0.146413 0.964948 0.217805 0.000000 0.000000 255 191 101 255
-2.151646 -7.552241 -0.656169 -0.004880 0.973419 -0.228981 0.000000 0.000000 255 191 101 255
1.221500 -7.796507 -1.766448 -0.004880 0.973419 -0.228981 0.000000 0.000000 255 191 101 255
0.729774 -8.550020 -4.959224 -0.004880 0.973419 -0.228981 0.000000 0.000000 255 190 99 255
1.221500 -7.796507 -1.766448 0.322309 0.942258 -0.090923 0.000000 0.000000 255 191 101 255
6.830549 -9.576464 -0.329320 0.322309 0.942258 -0.090923 0.000000 0.000000 255 191 101 255
6.225025 -9.776961 -4.553616 0.322309 0.942258 -0.090923 0.000000 0.000000 255 173 76 255
-2.691585 -4.876855 7.597343 -0.960262 -0.011235 -0.278873 0.000000 1.000000 255 183 94 255
-2.604819 2.630988 6.996102 -0.960262 -0.011235 -0.278873 0.000000 1.000000 255 191 101 255
-1.829998 2.115983 4.348854 -0.960262 -0.011235 -0.278873 0.000000 0.000000 255 191 101 255
-2.151646 -7.552241 -0.656169 -0.395859 -0.042294 -0.917337 0.000000 0.000000 255 191 101 255
-2.540192 1.231242 -0.893465 -0.395859 -0.042294 -0.917337 0.000000 0.000000 255 191 101 255
0.701615 1.483241 -2.304020 -0.395859 -0.042294 -0.917337 0.000000 0.000000 255 191 101 255
-5.359735 -5.630082 1.021443 0.980236 -0.117218 -0.159364 1.000000 0.000000 255 190 100 255
-5.936589 -6.739996 -1.710364 0.980236 -0.117218 -0.159364 1.000000 0.000000 255 190 100 255
-5.122600 0.666590 -2.151395 0.980236 -0.117218 -0.159364 1.000000 0.000000 255 191 101 255
-1.752694 -6.804205 1.539693 -0.946875 0.004576 0.321570 0.000000 0.000000 255 191 101 255
-1.941963 1.755601 0.860582 -0.946875 0.004576 0.321570 0.000000 0.000000 255 191 101 255
-2.540192 1.231242 -0.893465 -0.946875 0.004576 0.321570 0.000000 0.000000 255 191 101 255
-5.394837 -5.041954 3.814024 0.980781 0.165211 -0.103794 1.000000 0.000000 255 202 117 255
-6.546524 1.755049 3.750326 0.980781 0.165211 -0.103794 1.000000 0.000000 255 191 101 255
-6.332549 3.032294 7.805256 0.980781 0.165211 -0.103794 1.000000 1.000000 255 192 107 255
0.729774 -8.550020 -4.959224 -0.050489 0.102294 0.993472 0.000000 0.000000 255 190 99 255
6.225025 -9.776961 -4.553616 -0.050489 0.102294 0.993472 0.000000 0.000000 255 173 76 255
6.941454 0.542273 -5.579742 -0.050489 0.102294 0.993472 0.000000 0.000000 255 191 101 255
-2.912213 -6.466057 -4.957047 0.136930 0.047591 0.989437 0.000000 0.000000 255 191 101 255
-2.929068 1.009690 -5.314293 0.136930 0.047591 0.989437 0.000000 0.000000 255 191 101 255
-6.994833 0.557278 -4.729863 0.136930 0.047591 0.989437 1.000000 0.000000 255 191 101 255
-2.691585 -4.876855 7.597343 -0.398920 -0.159906 -0.902936 0.000000 1.000000 255 183 94 255
-5.717177 -5.324843 9.013398 -0.398920 -0.159906 -0.902936 1.000000 1.000000 255 204 119 255
-6.332549 3.032294 7.805256 -0.398920 -0.159906 -0.902936 1.000000 1.000000 255 192 107 255
1.221500 -7.796507 -1.766448 0.228738 -0.043523 -0.972515 0.000000 0.000000 255 191 101 255
0.701615 1.483241 -2.304020 0.228738 -0.043523 -0.972515 0.000000 0.000000 255 191 101 255
6.627168 0.615726 -0.871489 0.228738 -0.043523 -0.972515 0.000000 0.000000 255 191 101 255
-6.382766 -7.095537 -3.898195 0.809168 0.000862 -0.587576 1.000000 0.000000 255 183 91 255
-6.994833 0.557278 -4.729863 0.809168 0.000862 -0.587576 1.000000 0.000000 255 191 101 255
-5.122600 0.666590 -2.151395 0.809168 0.000862 -0.587576 1.000000 0.000000 255 191 101 255
-5.394837 -5.041954 3.814024 0.999838 0.015368 0.009331 1.000000 0.000000 255 202 117 255
-5.359735 -5.630082 1.021443 0.999838 0.015368 0.009331 1.000000 0.000000 255 190 100 255
-5.467189 1.701094 0.461158 0.999838 0.015368 0.009331 1.000000 0.000000 255 191 101 255
-2.280334 -5.521305 4.633526 -0.997875 0.059804 0.025851 0.000000 0.000000 255 192 103 255
-1.829998 2.115983 4.348854 -0.997875 0.059804 0.025851 0.000000 0.000000 255 191 101 255
-1.941963 1.755601 0.860582 -0.997875 0.059804 0.025851 0.000000 0.000000 255 191 101 255
-2.912213 -6.466057 -4.957047 0.034390 0.059058 0.997662 0.000000 0.000000 255 191 101 255
0.729774 -8.550020 -4.959224 0.034390 0.059058 0.997662 0.000000 0.000000 255 190 99 255
0.690313 1.194630 -5.534709 0.034390 0.059058 0.997662 0.000000 0.000000 255 201 130 255
3 0 1 2
3 3 4 5
3 6 7 8
3 9 10 11
3 12 13 14
3 15 16 17
3 18 19 20
3 21 22 23
3 24 25 26
3 27 28 29
3 30 31 32
3 33 34 35
3 36 37 38
3 39 40 41
3 42 43 44
3 45 46 47
3 48 49 50
3 51 52 53
3 54 55 56
3 57 58 59
3 60 61 62
3 63 64 65
3 66 67 68
3 69 70 71
3 72 73 74
3 75 76 77
3 78 79 80
3 81 82 83
3 84 85 86
3 87 88 89
3 90 91 92
3 93 94 95
3 96 97 98
3 99 100 101
3 102 103 104
3 105 106 107
3 108 109 110
3 111 112 113
