ply
format ascii 1.0
comment Created by Blender 2.92.0 - www.blender.org
element vertex 126
property float x
property float y
property float z
property float nx
property float ny
property float nz
property float s
property float t
property uchar red
property uchar green
property uchar blue
property uchar alpha
element face 42
property list uchar uint vertex_indices
end_header
30.350954 -9.925306 -7.012451 0.080384 -0.299760 -0.950622 0.000000 0.000000 220 178 122 255
25.513142 -14.260455 -6.054528 0.080384 -0.299760 -0.950622 0.000000 0.000000 255 205 147 255
27.548653 -4.374038 -8.999894 0.080384 -0.299760 -0.950622 0.000000 0.000000 250 200 143 255
24.907618 -14.460953 -10.278824 0.771307 0.583696 -0.253741 0.000000 0.000000 255 205 147 255
28.721844 -18.048923 -6.938187 0.771307 0.583696 -0.253741 0.000000 0.000000 255 205 147 255
27.147556 -18.702225 -13.226454 0.771307 0.583696 -0.253741 0.000000 0.000000 249 200 144 255
24.907618 -14.460953 -10.278824 0.283794 -0.441641 0.851125 0.000000 0.000000 255 205 147 255
27.147556 -18.702225 -13.226454 0.283794 -0.441641 0.851125 0.000000 0.000000 249 200 144 255
29.461508 -12.104508 -10.574510 0.283794 -0.441641 0.851125 0.000000 0.000000 255 205 147 255
30.350954 -9.925306 -7.012451 -0.868401 -0.295924 0.397881 0.000000 0.000000 220 178 122 255
27.548653 -4.374038 -8.999894 -0.868401 -0.295924 0.397881 0.000000 0.000000 250 202 145 255
29.461508 -12.104508 -10.574510 -0.868401 -0.295924 0.397881 0.000000 0.000000 255 205 147 255
27.147556 -18.702225 -13.226454 0.567403 0.821482 0.056757 0.000000 0.000000 249 200 144 255
35.659431 -24.961819 -7.720767 0.567403 0.821482 0.056757 0.000000 0.000000 139 112 80 255
34.486462 -23.622631 -15.377538 0.567403 0.821482 0.056757 0.000000 0.000000 139 112 80 255
27.548653 -4.374038 -8.999894 -0.671032 -0.015053 -0.741275 0.000000 0.000000 250 202 145 255
29.406729 -4.227805 -10.684869 -0.671032 -0.015053 -0.741275 0.000000 0.000000 255 205 147 255
29.461508 -12.104508 -10.574510 -0.671032 -0.015053 -0.741275 0.000000 0.000000 255 205 147 255
29.461508 -12.104508 -10.574510 -0.141630 -0.828293 0.542099 0.000000 0.000000 255 205 147 255
35.200172 -11.792199 -8.598029 -0.141630 -0.828293 0.542099 0.000000 0.000000 193 155 111 255
30.350954 -9.925306 -7.012451 -0.141630 -0.828293 0.542099 0.000000 0.000000 220 178 122 255
28.721844 -18.048923 -6.938187 -0.182041 -0.071674 -0.980675 0.000000 0.000000 255 205 147 255
35.200172 -11.792199 -8.598029 -0.182041 -0.071674 -0.980675 0.000000 0.000000 193 155 111 255
35.659431 -24.961819 -7.720767 -0.182041 -0.071674 -0.980675 0.000000 0.000000 139 112 80 255
27.147556 -18.702225 -13.226454 0.742093 -0.457265 0.490108 0.000000 0.000000 249 200 144 255
34.530403 -10.975956 -17.196609 0.742093 -0.457265 0.490108 0.000000 0.000000 139 112 80 255
29.461508 -12.104508 -10.574510 0.742093 -0.457265 0.490108 0.000000 0.000000 255 205 147 255
35.200172 -11.792199 -8.598029 -0.230124 -0.072669 -0.970444 0.000000 0.000000 193 155 111 255
47.694664 -22.571333 -10.753712 -0.230124 -0.072669 -0.970444 0.000000 0.000000 139 112 80 255
35.659431 -24.961819 -7.720767 -0.230124 -0.072669 -0.970444 0.000000 0.000000 139 112 80 255
35.200172 -11.792199 -8.598029 0.009266 -0.999883 0.012153 0.000000 0.000000 193 155 111 255
39.847744 -11.846834 -16.636591 0.009266 -0.999883 0.012153 0.000000 0.000000 139 112 80 255
48.360325 -11.681194 -9.499118 0.009266 -0.999883 0.012153 0.000000 0.000000 166 133 96 255
35.659431 -24.961819 -7.720767 0.039967 0.985281 0.166205 0.000000 0.000000 139 112 80 255
39.095783 -23.725113 -15.878397 0.039967 0.985281 0.166205 0.000000 0.000000 139 112 80 255
34.486462 -23.622631 -15.377538 0.039967 0.985281 0.166205 0.000000 0.000000 139 112 80 255
34.530403 -10.975956 -17.196609 -0.093256 0.069302 0.993227 0.000000 0.000000 139 112 80 255
39.095783 -23.725113 -15.878397 -0.093256 0.069302 0.993227 0.000000 0.000000 139 112 80 255
39.847744 -11.846834 -16.636591 -0.093256 0.069302 0.993227 0.000000 0.000000 139 112 80 255
39.847744 -11.846834 -16.636591 -0.046373 -0.995841 0.078418 0.000000 0.000000 139 112 80 255
46.226460 -12.843516 -25.521460 -0.046373 -0.995841 0.078418 0.000000 0.000000 139 112 80 255
48.360325 -11.681194 -9.499118 -0.046373 -0.995841 0.078418 0.000000 0.000000 166 133 96 255
39.095783 -23.725113 -15.878397 -0.106374 0.966127 -0.235125 0.000000 0.000000 139 112 80 255
48.083366 -24.851814 -24.574121 -0.106374 0.966127 -0.235125 0.000000 0.000000 139 112 80 255
36.986034 -26.181372 -25.016663 -0.106374 0.966127 -0.235125 0.000000 0.000000 139 112 80 255
47.694664 -22.571333 -10.753712 -0.988221 -0.153015 -0.002545 0.000000 0.000000 139 112 80 255
46.226460 -12.843516 -25.521460 -0.988221 -0.153015 -0.002545 0.000000 0.000000 139 112 80 255
48.083366 -24.851814 -24.574121 -0.988221 -0.153015 -0.002545 0.000000 0.000000 139 112 80 255
39.095783 -23.725113 -15.878397 0.995367 -0.067389 -0.068572 0.000000 0.000000 139 112 80 255
39.010445 -14.208031 -26.469997 0.995367 -0.067389 -0.068572 0.000000 0.000000 139 112 80 255
39.847744 -11.846834 -16.636591 0.995367 -0.067389 -0.068572 0.000000 0.000000 139 112 80 255
36.986034 -26.181372 -25.016663 0.064062 0.997821 -0.015789 0.000000 0.000000 139 112 80 255
42.926895 -26.733654 -35.815174 0.064062 0.997821 -0.015789 0.000000 0.000000 140 113 80 255
33.233543 -26.124573 -36.652645 0.064062 0.997821 -0.015789 0.000000 0.000000 144 116 83 255
48.083366 -24.851814 -24.574121 -0.894056 -0.123057 0.430720 0.000000 0.000000 139 112 80 255
41.751316 -16.990889 -35.471848 -0.894056 -0.123057 0.430720 0.000000 0.000000 139 112 80 255
42.926895 -26.733654 -35.815174 -0.894056 -0.123057 0.430720 0.000000 0.000000 140 113 80 255
36.986034 -26.181372 -25.016663 0.787858 -0.203752 -0.581175 0.000000 0.000000 139 112 80 255
31.928167 -14.516432 -35.962818 0.787858 -0.203752 -0.581175 0.000000 0.000000 147 118 84 255
39.010445 -14.208031 -26.469997 0.787858 -0.203752 -0.581175 0.000000 0.000000 139 112 80 255
39.010445 -14.208031 -26.469997 0.133418 -0.934658 0.329566 0.000000 0.000000 139 112 80 255
41.751316 -16.990889 -35.471848 0.133418 -0.934658 0.329566 0.000000 0.000000 139 112 80 255
46.226460 -12.843516 -25.521460 0.133418 -0.934658 0.329566 0.000000 0.000000 139 112 80 255
28.721844 -18.048923 -6.938187 -0.225293 0.036280 -0.973615 0.000000 0.000000 255 205 147 255
25.513142 -14.260455 -6.054528 -0.225293 0.036280 -0.973615 0.000000 0.000000 255 205 147 255
30.350954 -9.925306 -7.012451 -0.225293 0.036280 -0.973615 0.000000 0.000000 220 178 122 255
25.513142 -14.260455 -6.054528 -0.760825 -0.036387 -0.647936 0.000000 0.000000 255 205 147 255
25.309759 -0.353727 -6.596697 -0.760825 -0.036387 -0.647936 0.000000 0.000000 255 192 105 255
27.548653 -4.374038 -8.999894 -0.760825 -0.036387 -0.647936 0.000000 0.000000 250 200 143 255
24.907618 -14.460953 -10.278824 0.739828 0.658636 -0.137310 0.000000 0.000000 255 205 147 255
25.513142 -14.260455 -6.054528 0.739828 0.658636 -0.137310 0.000000 0.000000 255 205 147 255
28.721844 -18.048923 -6.938187 0.739828 0.658636 -0.137310 0.000000 0.000000 255 205 147 255
29.406729 -4.227805 -10.684869 -0.149202 0.012815 0.988724 0.000000 0.000000 255 205 147 255
25.624048 -0.427180 -11.304951 -0.149202 0.012815 0.988724 0.000000 0.000000 255 204 145 255
29.461508 -12.104508 -10.574510 -0.149202 0.012815 0.988724 0.000000 0.000000 255 205 147 255
25.624048 -0.427180 -11.304951 0.027748 0.071487 0.997056 0.000000 0.000000 255 204 145 255
24.907618 -14.460953 -10.278824 0.027748 0.071487 0.997056 0.000000 0.000000 255 205 147 255
29.461508 -12.104508 -10.574510 0.027748 0.071487 0.997056 0.000000 0.000000 255 205 147 255
27.147556 -18.702225 -13.226454 0.671291 0.700959 -0.240884 0.000000 0.000000 249 200 144 255
28.721844 -18.048923 -6.938187 0.671291 0.700959 -0.240884 0.000000 0.000000 255 205 147 255
35.659431 -24.961819 -7.720767 0.671291 0.700959 -0.240884 0.000000 0.000000 139 112 80 255
29.461508 -12.104508 -10.574510 0.088706 -0.990926 -0.100976 0.000000 0.000000 255 205 147 255
34.530403 -10.975956 -17.196609 0.088706 -0.990926 -0.100976 0.000000 0.000000 139 112 80 255
35.200172 -11.792199 -8.598029 0.088706 -0.990926 -0.100976 0.000000 0.000000 193 155 111 255
28.721844 -18.048923 -6.938187 -0.292946 0.050019 -0.954820 0.000000 0.000000 255 205 147 255
30.350954 -9.925306 -7.012451 -0.292946 0.050019 -0.954820 0.000000 0.000000 220 178 122 255
35.200172 -11.792199 -8.598029 -0.292946 0.050019 -0.954820 0.000000 0.000000 193 155 111 255
27.147556 -18.702225 -13.226454 0.359090 0.131654 0.923970 0.000000 0.000000 249 200 144 255
34.486462 -23.622631 -15.377538 0.359090 0.131654 0.923970 0.000000 0.000000 139 112 80 255
34.530403 -10.975956 -17.196609 0.359090 0.131654 0.923970 0.000000 0.000000 139 112 80 255
35.200172 -11.792199 -8.598029 -0.068825 0.118327 -0.990587 0.000000 0.000000 193 155 111 255
48.360325 -11.681194 -9.499118 -0.068825 0.118327 -0.990587 0.000000 0.000000 166 133 96 255
47.694664 -22.571333 -10.753712 -0.068825 0.118327 -0.990587 0.000000 0.000000 139 112 80 255
35.200172 -11.792199 -8.598029 -0.152713 -0.984896 -0.081599 0.000000 0.000000 193 155 111 255
34.530403 -10.975956 -17.196609 -0.152713 -0.984896 -0.081599 0.000000 0.000000 139 112 80 255
39.847744 -11.846834 -16.636591 -0.152713 -0.984896 -0.081599 0.000000 0.000000 139 112 80 255
35.659431 -24.961819 -7.720767 -0.176157 0.981532 0.074596 0.000000 0.000000 139 112 80 255
47.694664 -22.571333 -10.753712 -0.176157 0.981532 0.074596 0.000000 0.000000 139 112 80 255
39.095783 -23.725113 -15.878397 -0.176157 0.981532 0.074596 0.000000 0.000000 139 112 80 255
34.530403 -10.975956 -17.196609 0.110046 0.141133 0.983855 0.000000 0.000000 139 112 80 255
34.486462 -23.622631 -15.377538 0.110046 0.141133 0.983855 0.000000 0.000000 139 112 80 255
39.095783 -23.725113 -15.878397 0.110046 0.141133 0.983855 0.000000 0.000000 139 112 80 255
39.847744 -11.846834 -16.636591 0.153535 -0.963720 0.218335 0.000000 0.000000 139 112 80 255
39.010445 -14.208031 -26.469997 0.153535 -0.963720 0.218335 0.000000 0.000000 139 112 80 255
46.226460 -12.843516 -25.521460 0.153535 -0.963720 0.218335 0.000000 0.000000 139 112 80 255
39.095783 -23.725113 -15.878397 -0.034750 0.985905 -0.163660 0.000000 0.000000 139 112 80 255
47.694664 -22.571333 -10.753712 -0.034750 0.985905 -0.163660 0.000000 0.000000 139 112 80 255
48.083366 -24.851814 -24.574121 -0.034750 0.985905 -0.163660 0.000000 0.000000 139 112 80 255
47.694664 -22.571333 -10.753712 -0.990639 0.045736 0.128616 0.000000 0.000000 139 112 80 255
48.360325 -11.681194 -9.499118 -0.990639 0.045736 0.128616 0.000000 0.000000 166 133 96 255
46.226460 -12.843516 -25.521460 -0.990639 0.045736 0.128616 0.000000 0.000000 139 112 80 255
39.095783 -23.725113 -15.878397 0.967335 -0.184637 -0.173700 0.000000 0.000000 139 112 80 255
36.986034 -26.181372 -25.016663 0.967335 -0.184637 -0.173700 0.000000 0.000000 139 112 80 255
39.010445 -14.208031 -26.469997 0.967335 -0.184637 -0.173700 0.000000 0.000000 139 112 80 255
36.986034 -26.181372 -25.016663 -0.113749 0.987055 -0.113062 0.000000 0.000000 139 112 80 255
48.083366 -24.851814 -24.574121 -0.113749 0.987055 -0.113062 0.000000 0.000000 139 112 80 255
42.926895 -26.733654 -35.815174 -0.113749 0.987055 -0.113062 0.000000 0.000000 140 113 80 255
48.083366 -24.851814 -24.574121 -0.890467 -0.102726 0.443300 0.000000 0.000000 139 112 80 255
46.226460 -12.843516 -25.521460 -0.890467 -0.102726 0.443300 0.000000 0.000000 139 112 80 255
41.751316 -16.990889 -35.471848 -0.890467 -0.102726 0.443300 0.000000 0.000000 139 112 80 255
36.986034 -26.181372 -25.016663 0.944532 0.124281 -0.303996 0.000000 0.000000 139 112 80 255
33.233543 -26.124573 -36.652645 0.944532 0.124281 -0.303996 0.000000 0.000000 144 116 83 255
31.928167 -14.516432 -35.962818 0.944532 0.124281 -0.303996 0.000000 0.000000 147 118 84 255
39.010445 -14.208031 -26.469997 -0.248640 -0.944164 0.216176 0.000000 0.000000 139 112 80 255
31.928167 -14.516432 -35.962818 -0.248640 -0.944164 0.216176 0.000000 0.000000 147 119 86 255
41.751316 -16.990889 -35.471848 -0.248640 -0.944164 0.216176 0.000000 0.000000 139 112 80 255
3 0 1 2
3 3 4 5
3 6 7 8
3 9 10 11
3 12 13 14
3 15 16 17
3 18 19 20
3 21 22 23
3 24 25 26
3 27 28 29
3 30 31 32
3 33 34 35
3 36 37 38
3 39 40 41
3 42 43 44
3 45 46 47
3 48 49 50
3 51 52 53
3 54 55 56
3 57 58 59
3 60 61 62
3 63 64 65
3 66 67 68
3 69 70 71
3 72 73 74
3 75 76 77
3 78 79 80
3 81 82 83
3 84 85 86
3 87 88 89
3 90 91 92
3 93 94 95
3 96 97 98
3 99 100 101
3 102 103 104
3 105 106 107
3 108 109 110
3 111 112 113
3 114 115 116
3 117 118 119
3 120 121 122
3 123 124 125
