# Blender v3.2.0 OBJ File: 'scene.blend'
# www.blender.org
mtllib mirrors.mtl
o Cube.001
v -3.347426 6.469981 10.840327
v 8.013290 -8.137761 7.693819
v 11.873796 10.670977 9.157947
v -0.849393 6.290047 -2.578169
v -3.282063 -5.140658 6.455651
v 1.180029 9.029118 9.443802
vt 0.136582 0.234487
vt 0.197523 0.269671
vt 0.197523 0.340040
vt 0.136582 0.234487
vt 0.197523 0.269671
vt 0.197523 0.340040
vn -0.1378 0.1050 -0.9849
vn 0.9550 -0.2802 -0.0974
usemtl Material
s off
f 1/1/1 3/2/1 2/3/1
f 4/4/2 6/5/2 5/6/2
