# Blender v3.2.0 OBJ File: 'scene.blend'
# www.blender.org
mtllib scene.mtl
o Cube
v 9.705658 2.407420 7.356535
v 5.800457 1.440258 0.425213
v -1.082950 0.453769 4.812649
v 6.666482 1.440258 1.925214
v 6.969383 -0.200740 -5.758358
v 4.934432 1.440258 1.925213
v 5.800457 3.980033 1.425213
v 5.421072 1.863668 2.214407
v 5.421072 5.510095 3.214407
v 4.555046 1.863668 3.714407
v 6.287097 1.863668 3.714407
vt 0.250000 0.490000
vt 0.250000 0.250000
vt 0.457846 0.130000
vt 0.750000 0.490000
vt 0.957846 0.130000
vt 0.542154 0.130000
vt 0.042154 0.130000
vt 0.042154 0.130000
vt 0.250000 0.250000
vt 0.250000 0.490000
vt 0.750000 0.490000
vt 0.957846 0.130000
vt 0.542154 0.130000
vt 0.042154 0.130000
vt 0.250000 0.250000
vt 0.250000 0.490000
vt 0.457846 0.130000
vn 0.8497 0.1932 -0.4906
vn 0.0000 -1.0000 0.0000
vn -0.0000 0.1932 0.9812
vn -0.1378 0.9765 -0.1654
vn -0.8497 0.1932 -0.4906
vn -0.8580 0.1358 -0.4954
vn -0.0000 0.1358 0.9907
vn 0.8580 0.1358 -0.4954
usemtl Material
s off
f 2/1/1 7/2/1 4/3/1
f 2/4/2 4/5/2 6/6/2
f 4/3/3 7/2/3 6/7/3
f 3/8/4 1/9/4 5/10/4
f 8/11/2 11/12/2 10/13/2
f 6/7/5 7/2/5 2/1/5
f 10/14/6 9/15/6 8/16/6
f 11/17/7 9/15/7 10/14/7
f 8/16/8 9/15/8 11/17/8
