# Blender v3.2.0 OBJ File: 'scene.blend'
# www.blender.org
mtllib scene2.mtl
o Cube
v 9.705658 2.407420 7.356535
v -1.082950 0.453769 4.812649
v 6.969383 -0.200740 -5.758358
v 2.306126 1.416548 4.563352
v 6.017664 1.241678 1.861032
v 6.623669 1.819309 3.864962
v 1.936159 4.037903 4.119232
v 4.297110 3.846000 1.019803
v 5.099389 4.610715 4.865101
v 4.667077 1.224645 1.463923
v 5.469355 1.989360 5.309221
v 6.697968 2.952870 -0.238474
v 6.704087 0.816706 0.375422
v 7.886705 1.943952 4.286092
v 7.880587 4.080115 3.672196
v 6.011546 3.377842 1.247136
v 6.617550 3.955473 3.251066
vt 0.197523 0.340040
vt 0.197523 0.269671
vt 0.197523 0.269671
vt 0.042154 0.130000
vt 0.136582 0.234487
vt 0.250000 0.250000
vt 0.215939 0.291916
vt 0.231584 0.286051
vt 0.215939 0.291916
vt 0.136582 0.234487
vt 0.197523 0.340040
vt 0.231584 0.389779
vt 0.250000 0.490000
vt 0.215939 0.345069
vt 0.231584 0.286051
vt 0.215939 0.345069
vt 0.231584 0.389779
vn 0.9700 0.0993 -0.2221
vn -0.2814 0.9204 -0.2714
vn -0.2392 0.9213 0.3067
vn -0.3284 0.2600 0.9080
vn -0.1378 0.9765 -0.1654
vn -0.2494 0.1274 0.9600
vn -0.7840 -0.2096 -0.5842
vn -0.0789 0.9808 -0.1786
vn -0.1280 0.9775 -0.1677
vn 0.0609 0.9667 -0.2484
vn -0.0357 0.9911 -0.1284
vn -0.0028 0.9611 -0.2762
vn 0.9603 -0.0745 -0.2689
vn -0.9139 -0.1145 -0.3895
vn -0.9603 0.0745 0.2689
vn 0.0754 0.9518 -0.2972
vn 0.3987 0.8421 -0.3633
vn 0.1121 0.9811 -0.1579
vn -0.0463 0.9871 -0.1532
usemtl Material
s off
f 10/1/1 9/2/1 11/3/1
f 10/1/2 2/4/2 4/5/2
f 11/3/3 2/4/3 1/6/3
f 6/7/4 15/8/4 17/9/4
f 7/10/5 9/2/5 8/11/5
f 11/3/6 7/10/6 4/5/6
f 10/1/7 7/10/7 8/11/7
f 6/7/8 10/1/8 11/3/8
f 13/12/9 1/6/9 3/13/9
f 13/12/10 10/1/10 5/14/10
f 14/15/11 11/3/11 1/6/11
f 16/16/12 15/8/12 12/17/12
f 13/12/13 15/8/13 14/15/13
f 13/12/14 16/16/14 12/17/14
f 6/7/15 16/16/15 5/14/15
f 10/1/1 8/11/1 9/2/1
f 10/1/2 3/13/2 2/4/2
f 11/3/3 4/5/3 2/4/3
f 6/7/4 14/15/4 15/8/4
f 11/3/6 9/2/6 7/10/6
f 10/1/7 4/5/7 7/10/7
f 6/7/16 5/14/16 10/1/16
f 13/12/17 14/15/17 1/6/17
f 13/12/18 3/13/18 10/1/18
f 14/15/19 6/7/19 11/3/19
f 16/16/12 17/9/12 15/8/12
f 13/12/13 12/17/13 15/8/13
f 13/12/14 5/14/14 16/16/14
f 6/7/15 17/9/15 16/16/15
