ply
format ascii 1.0
comment Created by Blender 2.93.1 - www.blender.org
element vertex 24
property float x
property float y
property float z
property float nx
property float ny
property float nz
property float s
property float t
element face 6
property list uchar uint vertex_indices
end_header
21.638927 -23.461176 -5.782491 1.000000 0.000000 0.000000 0.375000 0.000000
21.638927 1.220089 -5.782491 1.000000 0.000000 0.000000 0.625000 0.000000
21.638927 1.220089 9.776390 1.000000 0.000000 0.000000 0.625000 0.250000
21.638927 -23.461176 9.776390 1.000000 0.000000 0.000000 0.375000 0.250000
21.638927 -23.461176 9.776390 -0.000000 0.000000 1.000000 0.375000 0.250000
21.638927 1.220089 9.776390 -0.000000 0.000000 1.000000 0.625000 0.250000
-5.425201 1.220089 9.776390 -0.000000 0.000000 1.000000 0.625000 0.500000
-5.425201 -23.461176 9.776390 -0.000000 0.000000 1.000000 0.375000 0.500000
-5.425201 -23.461176 9.776390 -1.000000 0.000000 0.000000 0.375000 0.500000
-5.425201 1.220089 9.776390 -1.000000 0.000000 0.000000 0.625000 0.500000
-5.425201 1.220089 -5.782491 -1.000000 0.000000 0.000000 0.625000 0.750000
-5.425201 -23.461176 -5.782491 -1.000000 0.000000 0.000000 0.375000 0.750000
-5.425201 -23.461176 -5.782491 -0.000000 0.000000 -1.000000 0.375000 0.750000
-5.425201 1.220089 -5.782491 -0.000000 0.000000 -1.000000 0.625000 0.750000
21.638927 1.220089 -5.782491 -0.000000 0.000000 -1.000000 0.625000 1.000000
21.638927 -23.461176 -5.782491 -0.000000 0.000000 -1.000000 0.375000 1.000000
21.638927 -23.461176 9.776390 0.000000 -1.000000 0.000000 0.125000 0.500000
-5.425201 -23.461176 9.776390 0.000000 -1.000000 0.000000 0.375000 0.500000
-5.425201 -23.461176 -5.782491 0.000000 -1.000000 0.000000 0.375000 0.750000
21.638927 -23.461176 -5.782491 0.000000 -1.000000 0.000000 0.125000 0.750000
-5.425201 1.220089 9.776390 0.000000 1.000000 -0.000000 0.625000 0.500000
21.638927 1.220089 9.776390 0.000000 1.000000 -0.000000 0.875000 0.500000
21.638927 1.220089 -5.782491 0.000000 1.000000 -0.000000 0.875000 0.750000
-5.425201 1.220089 -5.782491 0.000000 1.000000 -0.000000 0.625000 0.750000
4 0 1 2 3
4 4 5 6 7
4 8 9 10 11
4 12 13 14 15
4 16 17 18 19
4 20 21 22 23
