ply
format ascii 1.0
comment Created by Blender 2.93.1 - www.blender.org
element vertex 24
property float x
property float y
property float z
property float nx
property float ny
property float nz
property float s
property float t
element face 6
property list uchar uint vertex_indices
end_header
83.363068 -9.636604 -49.655807 1.000000 0.000000 0.000000 0.375000 0.000000
83.363068 -7.636604 -49.655807 1.000000 0.000000 0.000000 0.625000 0.000000
83.363068 -7.636604 -47.655807 1.000000 0.000000 0.000000 0.625000 0.250000
83.363068 -9.636604 -47.655807 1.000000 0.000000 0.000000 0.375000 0.250000
83.363068 -9.636604 -47.655807 -0.000000 0.000000 1.000000 0.375000 0.250000
83.363068 -7.636604 -47.655807 -0.000000 0.000000 1.000000 0.625000 0.250000
81.363068 -7.636604 -47.655807 -0.000000 0.000000 1.000000 0.625000 0.500000
81.363068 -9.636604 -47.655807 -0.000000 0.000000 1.000000 0.375000 0.500000
81.363068 -9.636604 -47.655807 -1.000000 0.000000 0.000000 0.375000 0.500000
81.363068 -7.636604 -47.655807 -1.000000 0.000000 0.000000 0.625000 0.500000
81.363068 -7.636604 -49.655807 -1.000000 0.000000 0.000000 0.625000 0.750000
81.363068 -9.636604 -49.655807 -1.000000 0.000000 0.000000 0.375000 0.750000
81.363068 -9.636604 -49.655807 -0.000000 0.000000 -1.000000 0.375000 0.750000
81.363068 -7.636604 -49.655807 -0.000000 0.000000 -1.000000 0.625000 0.750000
83.363068 -7.636604 -49.655807 -0.000000 0.000000 -1.000000 0.625000 1.000000
83.363068 -9.636604 -49.655807 -0.000000 0.000000 -1.000000 0.375000 1.000000
83.363068 -9.636604 -47.655807 0.000000 -1.000000 0.000000 0.125000 0.500000
81.363068 -9.636604 -47.655807 0.000000 -1.000000 0.000000 0.375000 0.500000
81.363068 -9.636604 -49.655807 0.000000 -1.000000 0.000000 0.375000 0.750000
83.363068 -9.636604 -49.655807 0.000000 -1.000000 0.000000 0.125000 0.750000
81.363068 -7.636604 -47.655807 0.000000 1.000000 -0.000000 0.625000 0.500000
83.363068 -7.636604 -47.655807 0.000000 1.000000 -0.000000 0.875000 0.500000
83.363068 -7.636604 -49.655807 0.000000 1.000000 -0.000000 0.875000 0.750000
81.363068 -7.636604 -49.655807 0.000000 1.000000 -0.000000 0.625000 0.750000
4 0 1 2 3
4 4 5 6 7
4 8 9 10 11
4 12 13 14 15
4 16 17 18 19
4 20 21 22 23
