ply
format ascii 1.0
comment Created by Blender 2.93.1 - www.blender.org
element vertex 20
property float x
property float y
property float z
property float nx
property float ny
property float nz
property float s
property float t
property uchar red
property uchar green
property uchar blue
property uchar alpha
element face 16
property list uchar uint vertex_indices
end_header
-0.586063 -0.808398 0.000000 0.000000 0.000000 1.000000 0.108932 0.055836 255 254 93 255
-0.000632 -0.383057 0.000000 0.000000 0.000000 1.000000 0.249435 0.157918 255 254 86 255
-0.362105 -0.119128 0.000000 0.000000 0.000000 1.000000 0.162681 0.221261 255 254 0 255
0.001723 1.000619 -0.000000 0.000000 0.000000 1.000000 0.250000 0.490000 255 254 22 255
-0.222792 0.309636 -0.000000 0.000000 0.000000 1.000000 0.196117 0.324164 255 254 80 255
0.223333 0.309636 -0.000000 0.000000 0.000000 1.000000 0.303187 0.324164 255 254 0 255
0.362105 -0.119128 0.000000 -0.000000 -0.000000 -1.000000 0.162681 0.221261 255 254 0 255
0.222792 0.309636 -0.000000 -0.000000 -0.000000 -1.000000 0.196117 0.324164 255 254 0 255
0.949334 0.309636 -0.000000 -0.000000 -0.000000 -1.000000 0.021746 0.324164 255 255 225 255
0.581907 -0.808398 0.000000 -0.000000 0.000000 1.000000 0.389244 0.055836 255 254 31 255
0.361183 -0.120183 0.000000 -0.000000 0.000000 1.000000 0.336271 0.221008 255 254 0 255
-0.361183 -0.120183 0.000000 0.000000 -0.000000 -1.000000 0.336271 0.221008 255 254 0 255
-0.581907 -0.808398 0.000000 0.000000 -0.000000 -1.000000 0.389244 0.055836 255 254 17 255
0.000632 -0.383057 0.000000 0.000000 -0.000000 -1.000000 0.249435 0.157918 255 254 0 255
0.952779 0.309636 0.000000 -0.000000 0.000000 1.000000 0.478254 0.324164 255 254 0 255
-0.001723 1.000619 -0.000000 0.000000 -0.000000 -1.000000 0.250000 0.490000 255 254 10 255
-0.223333 0.309636 -0.000000 0.000000 -0.000000 -1.000000 0.303187 0.324164 255 254 0 255
-0.949334 0.309636 -0.000000 -0.000000 0.000000 1.000000 0.021746 0.324164 255 254 36 255
0.586063 -0.808398 0.000000 0.000000 -0.000000 -1.000000 0.108932 0.055836 255 254 36 255
-0.952779 0.309636 -0.000000 0.000000 -0.000000 -1.000000 0.478254 0.324164 255 254 7 255
3 0 1 2
3 3 4 5
3 6 7 8
3 9 10 1
3 11 7 6
3 12 11 13
3 5 10 14
3 15 7 16
3 10 4 2
3 2 4 17
3 18 13 6
3 16 11 19
3 6 13 11
3 11 16 7
3 2 1 10
3 10 5 4
