ply
format ascii 1.0
comment Created by Blender 2.93.1 - www.blender.org
element vertex 18
property float x
property float y
property float z
property float nx
property float ny
property float nz
property float s
property float t
property uchar red
property uchar green
property uchar blue
property uchar alpha
element face 6
property list uchar uint vertex_indices
end_header
24.986067 -5.413276 -20.593513 0.017450 0.071256 -0.997305 0.250000 0.490000 107 97 74 255
25.152946 -4.050638 -20.493235 0.017450 0.071256 -0.997305 0.250000 0.250000 107 97 74 255
25.323231 -5.413276 -20.587614 0.017450 0.071256 -0.997305 0.457846 0.130000 107 97 74 255
24.721048 -4.619893 -20.752769 0.017426 0.089692 -0.995817 0.250000 0.490000 83 141 84 255
25.152946 -1.822299 -20.493235 0.017426 0.089692 -0.995817 0.250000 0.250000 83 141 84 255
25.593660 -4.619893 -20.737499 0.017426 0.089692 -0.995817 0.457846 0.130000 83 141 84 255
25.323231 -5.413276 -20.587614 0.854966 0.071258 0.513766 0.457846 0.130000 107 97 74 255
25.152946 -4.050638 -20.493235 0.854966 0.071258 0.513766 0.250000 0.250000 107 97 74 255
25.149540 -5.413276 -20.298573 0.854966 0.071258 0.513766 0.042154 0.130000 107 97 74 255
25.149540 -5.413276 -20.298573 -0.872416 0.071258 0.483543 0.042154 0.130000 107 97 74 255
25.152946 -4.050638 -20.493235 -0.872416 0.071258 0.483543 0.250000 0.250000 107 97 74 255
24.986067 -5.413276 -20.593513 -0.872416 0.071258 0.483543 0.250000 0.490000 107 97 74 255
25.593660 -4.619893 -20.737499 0.853691 0.089694 0.512998 0.457846 0.130000 83 141 84 255
25.152946 -1.822299 -20.493235 0.853691 0.089694 0.512998 0.250000 0.250000 83 141 84 255
25.144133 -4.619893 -19.989429 0.853691 0.089694 0.512998 0.042154 0.130000 83 141 84 255
25.144133 -4.619893 -19.989429 -0.871115 0.089693 0.482819 0.042154 0.130000 83 141 84 255
25.152946 -1.822299 -20.493235 -0.871115 0.089693 0.482819 0.250000 0.250000 83 141 84 255
24.721048 -4.619893 -20.752769 -0.871115 0.089693 0.482819 0.250000 0.490000 83 141 84 255
3 0 1 2
3 3 4 5
3 6 7 8
3 9 10 11
3 12 13 14
3 15 16 17
