ply
format ascii 1.0
comment Created by Blender 2.92.0 - www.blender.org
element vertex 217
property float x
property float y
property float z
property float nx
property float ny
property float nz
property float s
property float t
property uchar red
property uchar green
property uchar blue
property uchar alpha
element face 79
property list uchar uint vertex_indices
end_header
22.635754 -1.355731 4.381810 0.954976 -0.046606 0.292999 0.625000 0.250000 110 99 92 255
20.977221 -0.457216 9.930411 0.954976 -0.046606 0.292999 0.625000 0.250000 110 99 92 255
20.946493 -4.291354 9.420683 0.954976 -0.046606 0.292999 0.462735 0.250000 102 88 81 255
26.810818 -7.262935 3.762487 -0.742207 0.455341 -0.491725 0.375000 1.000000 98 83 76 255
26.761740 -0.457216 10.138717 -0.742207 0.455341 -0.491725 0.625000 1.000000 97 82 75 255
29.886547 -1.355731 4.590116 -0.742207 0.455341 -0.491725 0.625000 1.000000 97 82 75 255
20.756172 -7.262935 3.596479 -0.003653 0.991077 0.133240 0.125000 0.500000 0 224 48 255
24.501781 -8.017397 9.311089 -0.003653 0.991077 0.133240 0.125000 0.750000 14 150 34 255
26.810818 -7.262935 3.762487 -0.003653 0.991077 0.133240 0.125000 0.750000 34 213 53 255
21.596424 -8.017397 9.145081 0.691118 0.409890 0.595270 0.375000 0.250000 97 82 75 255
20.026344 -6.949762 10.232819 0.691118 0.409890 0.595270 0.461238 0.250000 102 88 81 255
19.272112 -9.155400 12.627251 0.691118 0.409890 0.595270 0.375000 0.250000 97 82 75 255
24.501781 -8.017397 9.311089 -0.705680 0.282100 -0.649950 0.375000 1.000000 98 83 76 255
23.486633 -0.627156 13.620886 -0.705680 0.282100 -0.649950 0.625000 1.000000 97 82 75 255
26.761740 -0.457216 10.138717 -0.705680 0.282100 -0.649950 0.625000 1.000000 97 82 75 255
21.596424 -8.017397 9.145081 -0.017156 0.953707 0.300248 0.125000 0.500000 13 138 31 255
22.181477 -9.155400 12.793259 -0.017156 0.953707 0.300248 0.125000 0.750000 13 138 31 255
24.501781 -8.017397 9.311089 -0.017156 0.953707 0.300248 0.125000 0.750000 14 150 34 255
18.846148 -7.011745 15.519939 0.996925 0.049993 -0.060346 0.467526 0.250000 102 88 81 255
19.125694 -4.680470 22.069427 0.996925 0.049993 -0.060346 0.463687 0.250000 102 88 81 255
19.345358 -9.397088 21.790833 0.996925 0.049993 -0.060346 0.375000 0.250000 97 82 75 255
23.486633 -0.627156 13.620886 -0.944798 0.258319 0.201564 0.625000 1.000000 97 82 75 255
22.002382 -9.397088 17.903002 -0.944798 0.258319 0.201564 0.375000 1.000000 98 83 76 255
24.510672 -0.868843 18.730629 -0.944798 0.258319 0.201564 0.625000 1.000000 97 82 75 255
19.272112 -9.155400 12.627251 -0.002691 0.998884 0.047152 0.125000 0.500000 13 138 31 255
22.002382 -9.397088 17.903002 -0.002691 0.998884 0.047152 0.125000 0.750000 11 124 28 255
22.181477 -9.155400 12.793259 -0.002691 0.998884 0.047152 0.125000 0.750000 13 138 31 255
19.125694 -4.680470 22.069427 0.993021 -0.117938 -0.000404 0.463687 0.250000 102 88 81 255
18.846148 -7.011745 15.519939 0.993021 -0.117938 -0.000404 0.467526 0.250000 102 88 81 255
19.124756 -4.674467 18.014790 0.993021 -0.117938 -0.000404 0.463938 0.250000 102 88 81 255
18.726152 -0.868843 22.576162 0.994550 0.104261 -0.000076 0.625000 0.250000 110 99 92 255
19.125694 -4.680470 22.069427 0.994550 0.104261 -0.000076 0.463687 0.250000 102 88 81 255
19.124756 -4.674467 18.014790 0.994550 0.104261 -0.000076 0.463938 0.250000 102 88 81 255
17.734499 -7.146155 13.013010 0.089535 0.991644 -0.092870 0.497802 0.250000 13 138 31 255
18.846148 -7.011745 15.519939 0.089535 0.991644 -0.092870 0.467526 0.250000 12 133 29 255
19.003771 -7.274468 12.866614 0.089535 0.991644 -0.092870 0.451199 0.250000 13 138 31 255
19.003771 -7.274468 12.866614 0.118172 0.978923 0.166566 0.451199 0.250000 13 138 31 255
20.026344 -6.949762 10.232819 0.118172 0.978923 0.166566 0.461238 0.250000 13 138 31 255
17.734499 -7.146155 13.013010 0.118172 0.978923 0.166566 0.497802 0.250000 13 138 31 255
20.946493 -4.291354 9.420683 0.644130 -0.105875 0.757553 0.462735 0.250000 102 88 81 255
20.977221 -0.457216 9.930411 0.644130 -0.105875 0.757553 0.625000 0.250000 110 99 92 255
16.853952 -0.627156 13.412580 0.644130 -0.105875 0.757553 0.625000 0.250000 110 99 92 255
24.474928 -7.241367 7.643829 -0.998075 0.000000 -0.062020 1.000000 1.000000 138 44 0 255
24.488401 -7.764729 7.427003 -0.998075 0.000000 -0.062020 0.666667 0.500000 140 52 28 255
24.474928 -7.764729 7.643829 -0.998075 0.000000 -0.062020 1.000000 0.500000 138 44 0 255
24.488401 -7.241367 7.427003 0.552748 0.000000 -0.833348 0.666667 1.000000 138 44 0 255
24.669443 -7.764729 7.547086 0.552748 0.000000 -0.833348 0.333333 0.500000 148 77 64 255
24.488401 -7.764729 7.427003 0.552748 0.000000 -0.833348 0.666667 0.500000 138 45 8 255
24.669443 -7.241367 7.547086 0.125053 -0.959762 0.251435 0.333333 1.000000 0 97 12 255
24.330389 -7.203113 7.861741 0.125053 -0.959762 0.251435 -0.000000 1.000000 0 97 12 255
24.474928 -7.241367 7.643829 0.125053 -0.959762 0.251435 -0.000000 1.000000 0 97 12 255
24.669443 -7.241367 7.547086 0.445320 0.000000 0.895372 0.333333 1.000000 138 44 0 255
24.474928 -7.764729 7.643829 0.445320 0.000000 0.895372 -0.000000 0.500000 138 44 0 255
24.669443 -7.764729 7.547086 0.445320 0.000000 0.895372 0.333333 0.500000 148 77 64 255
24.474928 -7.764729 7.643829 -0.000000 -1.000000 0.000000 0.750000 0.490000 255 255 255 255
24.488401 -7.764729 7.427003 -0.000000 -1.000000 0.000000 0.957846 0.130000 255 255 255 255
24.669443 -7.764729 7.547086 -0.000000 -1.000000 0.000000 0.542154 0.130000 255 255 255 255
24.330389 -7.203113 7.861741 0.441745 0.126484 0.888180 -0.000000 1.000000 1 105 23 255
24.930429 -7.203113 7.563305 0.441745 0.126484 0.888180 0.333333 1.000000 2 105 23 255
24.544256 -5.685882 7.539306 0.441745 0.126484 0.888180 -0.000000 1.000000 61 119 65 255
24.669443 -7.241367 7.547086 0.155223 -0.959761 -0.234019 0.333333 1.000000 0 97 12 255
24.371954 -7.203113 7.192873 0.155223 -0.959761 -0.234019 0.666667 1.000000 19 98 22 255
24.930429 -7.203113 7.563305 0.155223 -0.959761 -0.234019 0.333333 1.000000 1 97 12 255
24.488401 -7.241367 7.427003 -0.280277 -0.959761 -0.017417 0.666667 1.000000 0 97 12 255
24.330389 -7.203113 7.861741 -0.280277 -0.959761 -0.017417 1.000000 1.000000 0 97 12 255
24.371954 -7.203113 7.192873 -0.280277 -0.959761 -0.017417 0.666667 1.000000 19 98 22 255
24.930429 -7.203113 7.563305 0.548311 0.126483 -0.826654 0.333333 1.000000 2 105 23 255
24.371954 -7.203113 7.192873 0.548311 0.126483 -0.826654 0.666667 1.000000 0 105 23 255
24.544256 -5.685882 7.539306 0.548311 0.126483 -0.826654 0.333333 1.000000 61 119 65 255
24.371954 -7.203113 7.192873 -0.990059 0.126483 -0.061525 0.666667 1.000000 0 105 23 255
24.330389 -7.203113 7.861741 -0.990059 0.126483 -0.061525 1.000000 1.000000 1 105 23 255
24.544256 -5.685882 7.539306 -0.990059 0.126483 -0.061525 0.666667 1.000000 61 119 65 255
24.485624 -7.479298 8.291962 -0.342309 0.000000 -0.939587 1.000000 1.000000 138 44 0 255
24.741268 -8.134771 8.198826 -0.342309 0.000000 -0.939587 0.666667 0.500000 140 52 28 255
24.485624 -8.134771 8.291962 -0.342309 0.000000 -0.939587 1.000000 0.500000 138 44 0 255
24.741268 -7.479298 8.198826 0.984861 0.000000 0.173346 0.666667 1.000000 138 44 0 255
24.694103 -8.134771 8.466792 0.984861 0.000000 0.173346 0.333333 0.500000 148 77 64 255
24.741268 -8.134771 8.198826 0.984861 0.000000 0.173346 0.666667 0.500000 138 45 8 255
24.485624 -7.479298 8.291962 -0.180440 -0.959762 0.215170 -0.000000 1.000000 0 97 12 255
24.806206 -7.431386 8.774508 -0.180440 -0.959762 0.215170 0.333333 1.000000 1 97 12 255
24.163082 -7.431386 8.235189 -0.180440 -0.959762 0.215170 -0.000000 1.000000 0 97 12 255
24.694103 -7.479298 8.466792 -0.642563 0.000000 0.766233 0.333333 1.000000 138 44 0 255
24.485624 -8.134771 8.291962 -0.642563 0.000000 0.766233 -0.000000 0.500000 138 44 0 255
24.694103 -8.134771 8.466792 -0.642563 0.000000 0.766233 0.333333 0.500000 148 77 64 255
24.485624 -8.134771 8.291962 -0.000000 -1.000000 -0.000000 0.750000 0.490000 255 255 255 255
24.741268 -8.134771 8.198826 -0.000000 -1.000000 -0.000000 0.957846 0.130000 255 255 255 255
24.694103 -8.134771 8.466792 -0.000000 -1.000000 -0.000000 0.542154 0.130000 255 255 255 255
24.163082 -7.431386 8.235189 -0.637399 0.126484 0.760082 -0.000000 1.000000 1 105 23 255
24.806206 -7.431386 8.774508 -0.637399 0.126484 0.760082 0.333333 1.000000 2 105 23 255
24.640331 -5.531157 8.319193 -0.637399 0.126484 0.760082 -0.000000 1.000000 61 119 65 255
24.694103 -7.479298 8.466792 0.276569 -0.959760 0.048680 0.333333 1.000000 0 97 12 255
24.951704 -7.431386 7.947885 0.276569 -0.959760 0.048680 0.666667 1.000000 19 98 22 255
24.806206 -7.431386 8.774508 0.276569 -0.959760 0.048680 0.333333 1.000000 1 97 12 255
24.485624 -7.479298 8.291962 -0.096128 -0.959760 -0.263856 1.000000 1.000000 0 97 12 255
24.951704 -7.431386 7.947885 -0.096128 -0.959760 -0.263856 0.666667 1.000000 19 98 22 255
24.741268 -7.479298 8.198826 -0.096128 -0.959760 -0.263856 0.666667 1.000000 0 97 12 255
24.806206 -7.431386 8.774508 0.976951 0.126483 0.171958 0.333333 1.000000 2 105 23 255
24.951704 -7.431386 7.947885 0.976951 0.126483 0.171958 0.666667 1.000000 0 105 23 255
24.640331 -5.531157 8.319193 0.976951 0.126483 0.171958 0.333333 1.000000 61 119 65 255
24.951704 -7.431386 7.947885 -0.339555 0.126483 -0.932043 0.666667 1.000000 0 105 23 255
24.163082 -7.431386 8.235189 -0.339555 0.126483 -0.932043 1.000000 1.000000 1 105 23 255
24.640331 -5.531157 8.319193 -0.339555 0.126483 -0.932043 0.666667 1.000000 61 119 65 255
18.120611 -6.440902 13.013222 -0.342311 0.000000 -0.939587 1.000000 1.000000 138 44 0 255
18.508535 -7.435544 12.871893 -0.342311 0.000000 -0.939587 0.666667 0.500000 140 52 28 255
18.120611 -7.435544 13.013222 -0.342311 0.000000 -0.939587 1.000000 0.500000 138 44 0 255
18.508535 -6.440902 12.871893 0.984861 0.000000 0.173346 0.666667 1.000000 138 44 0 255
18.436966 -7.435544 13.278514 0.984861 0.000000 0.173346 0.333333 0.500000 148 77 64 255
18.508535 -7.435544 12.871893 0.984861 0.000000 0.173346 0.666667 0.500000 138 45 8 255
18.436966 -6.440902 13.278514 -0.180437 -0.959763 0.215167 0.333333 1.000000 0 97 12 255
17.631174 -6.368200 12.927073 -0.180437 -0.959763 0.215167 -0.000000 1.000000 0 97 12 255
18.120611 -6.440902 13.013222 -0.180437 -0.959763 0.215167 -0.000000 1.000000 0 97 12 255
18.436966 -6.440902 13.278514 -0.642559 0.000000 0.766236 0.333333 1.000000 138 44 0 255
18.120611 -7.435544 13.013222 -0.642559 0.000000 0.766236 -0.000000 0.500000 138 44 0 255
18.436966 -7.435544 13.278514 -0.642559 0.000000 0.766236 0.333333 0.500000 148 77 64 255
18.120611 -7.435544 13.013222 -0.000000 -1.000000 -0.000000 0.750000 0.490000 255 255 255 255
18.508535 -7.435544 12.871893 -0.000000 -1.000000 -0.000000 0.957846 0.130000 255 255 255 255
18.436966 -7.435544 13.278514 -0.000000 -1.000000 -0.000000 0.542154 0.130000 255 255 255 255
17.631174 -6.368200 12.927073 -0.637399 0.126484 0.760082 -0.000000 1.000000 1 105 23 255
18.607075 -6.368200 13.745455 -0.637399 0.126484 0.760082 0.333333 1.000000 2 105 23 255
18.355370 -3.484720 13.054543 -0.637399 0.126484 0.760082 -0.000000 1.000000 61 119 65 255
18.436966 -6.440902 13.278514 0.276563 -0.959762 0.048679 0.333333 1.000000 0 97 12 255
18.827858 -6.368200 12.491104 0.276563 -0.959762 0.048679 0.666667 1.000000 19 98 22 255
18.607075 -6.368200 13.745455 0.276563 -0.959762 0.048679 0.333333 1.000000 1 97 12 255
18.120611 -6.440902 13.013222 -0.096126 -0.959762 -0.263851 1.000000 1.000000 0 97 12 255
18.827858 -6.368200 12.491104 -0.096126 -0.959762 -0.263851 0.666667 1.000000 19 98 22 255
18.508535 -6.440902 12.871893 -0.096126 -0.959762 -0.263851 0.666667 1.000000 0 97 12 255
18.607075 -6.368200 13.745455 0.976951 0.126483 0.171957 0.333333 1.000000 2 105 23 255
18.827858 -6.368200 12.491104 0.976951 0.126483 0.171957 0.666667 1.000000 0 105 23 255
18.355370 -3.484720 13.054543 0.976951 0.126483 0.171957 0.333333 1.000000 61 119 65 255
18.827858 -6.368200 12.491104 -0.339556 0.126483 -0.932043 0.666667 1.000000 0 105 23 255
17.631174 -6.368200 12.927073 -0.339556 0.126483 -0.932043 1.000000 1.000000 1 105 23 255
18.355370 -3.484720 13.054543 -0.339556 0.126483 -0.932043 0.666667 1.000000 61 119 65 255
21.596424 -8.017397 9.145081 0.976010 0.179373 -0.123412 0.375000 0.250000 97 82 75 255
20.756172 -7.262935 3.596479 0.976010 0.179373 -0.123412 0.375000 0.250000 97 82 75 255
20.946493 -4.291354 9.420683 0.976010 0.179373 -0.123412 0.462735 0.250000 102 88 81 255
20.756172 -7.262935 3.596479 0.939599 -0.316341 0.130697 0.375000 0.250000 97 82 75 255
22.635754 -1.355731 4.381810 0.939599 -0.316341 0.130697 0.625000 0.250000 110 99 92 255
20.946493 -4.291354 9.420683 0.939599 -0.316341 0.130697 0.462735 0.250000 102 88 81 255
26.810818 -7.262935 3.762487 -0.893673 0.303342 -0.330653 0.375000 1.000000 98 83 76 255
24.501781 -8.017397 9.311089 -0.893673 0.303342 -0.330653 0.375000 1.000000 98 83 76 255
26.761740 -0.457216 10.138717 -0.893673 0.303342 -0.330653 0.625000 1.000000 97 82 75 255
20.756172 -7.262935 3.596479 -0.007764 0.990694 0.135884 0.125000 0.500000 0 224 48 255
21.596424 -8.017397 9.145081 -0.007764 0.990694 0.135884 0.125000 0.500000 13 138 31 255
24.501781 -8.017397 9.311089 -0.007764 0.990694 0.135884 0.125000 0.750000 14 150 34 255
21.596424 -8.017397 9.145081 0.588518 0.042938 0.807343 0.375000 0.250000 97 82 75 255
20.946493 -4.291354 9.420683 0.588518 0.042938 0.807343 0.462735 0.250000 102 88 81 255
20.026344 -6.949762 10.232819 0.588518 0.042938 0.807343 0.461238 0.250000 102 88 81 255
20.026344 -6.949762 10.232819 0.925257 0.084953 0.369705 0.461238 0.250000 102 88 81 255
19.003771 -7.274468 12.866614 0.925257 0.084953 0.369705 0.451199 0.250000 101 87 80 255
19.272112 -9.155400 12.627251 0.925257 0.084953 0.369705 0.375000 0.250000 97 82 75 255
24.501781 -8.017397 9.311089 -0.844736 0.178250 -0.504627 0.375000 1.000000 98 83 76 255
22.181477 -9.155400 12.793259 -0.844736 0.178250 -0.504627 0.375000 1.000000 98 83 76 255
23.486633 -0.627156 13.620886 -0.844736 0.178250 -0.504627 0.625000 1.000000 97 82 75 255
21.596424 -8.017397 9.145081 -0.017132 0.953708 0.300245 0.125000 0.500000 13 138 31 255
19.272112 -9.155400 12.627251 -0.017132 0.953708 0.300245 0.125000 0.500000 13 138 31 255
22.181477 -9.155400 12.793259 -0.017132 0.953708 0.300245 0.125000 0.750000 13 138 31 255
19.345358 -9.397088 21.790833 0.980142 0.198279 -0.002605 0.375000 0.250000 97 82 75 255
19.272112 -9.155400 12.627251 0.980142 0.198279 -0.002605 0.375000 0.250000 97 82 75 255
18.846148 -7.011745 15.519939 0.980142 0.198279 -0.002605 0.467526 0.250000 102 88 81 255
19.272112 -9.155400 12.627251 0.989747 0.135425 0.045388 0.375000 0.250000 97 82 75 255
19.003771 -7.274468 12.866614 0.989747 0.135425 0.045388 0.451199 0.250000 101 87 80 255
18.846148 -7.011745 15.519939 0.989747 0.135425 0.045388 0.467526 0.250000 102 88 81 255
23.486633 -0.627156 13.620886 -0.987721 0.153814 -0.027344 0.625000 1.000000 97 82 75 255
22.181477 -9.155400 12.793259 -0.987721 0.153814 -0.027344 0.375000 1.000000 98 83 76 255
22.002382 -9.397088 17.903002 -0.987721 0.153814 -0.027344 0.375000 1.000000 98 83 76 255
19.272112 -9.155400 12.627251 0.038106 0.998934 0.026042 0.125000 0.500000 13 138 31 255
19.345358 -9.397088 21.790833 0.038106 0.998934 0.026042 0.125000 0.500000 13 138 31 255
22.002382 -9.397088 17.903002 0.038106 0.998934 0.026042 0.125000 0.750000 11 124 28 255
19.124756 -4.674467 18.014790 0.936834 0.196903 -0.289087 0.463938 0.250000 102 88 81 255
18.846148 -7.011745 15.519939 0.936834 0.196903 -0.289087 0.467526 0.250000 102 88 81 255
16.853952 -0.627156 13.412580 0.936834 0.196903 -0.289087 0.625000 0.250000 110 99 92 255
18.846148 -7.011745 15.519939 0.901323 0.146725 -0.407541 0.467526 0.250000 102 88 81 255
17.734499 -7.146155 13.013010 0.901323 0.146725 -0.407541 0.497802 0.250000 103 90 83 255
16.853952 -0.627156 13.412580 0.901323 0.146725 -0.407541 0.625000 0.250000 110 99 92 255
16.853952 -0.627156 13.412580 0.931279 0.315619 -0.181944 0.625000 0.250000 110 99 92 255
18.726152 -0.868843 22.576162 0.931279 0.315619 -0.181944 0.625000 0.250000 110 99 92 255
19.124756 -4.674467 18.014790 0.931279 0.315619 -0.181944 0.463938 0.250000 102 88 81 255
16.853952 -0.627156 13.412580 0.722103 0.055271 0.689574 0.625000 0.250000 110 99 92 255
17.734499 -7.146155 13.013010 0.722103 0.055271 0.689574 0.497802 0.250000 103 90 83 255
20.946493 -4.291354 9.420683 0.722103 0.055271 0.689574 0.462735 0.250000 102 88 81 255
17.734499 -7.146155 13.013010 0.772055 -0.074404 0.631186 0.497802 0.250000 103 90 83 255
20.026344 -6.949762 10.232819 0.772055 -0.074404 0.631186 0.461238 0.250000 102 88 81 255
20.946493 -4.291354 9.420683 0.772055 -0.074404 0.631186 0.462735 0.250000 102 88 81 255
24.488401 -7.241367 7.427003 -0.998075 0.000000 -0.062020 0.666667 1.000000 138 44 0 255
24.669443 -7.241367 7.547086 0.552748 0.000000 -0.833348 0.333333 1.000000 138 44 0 255
24.669443 -7.241367 7.547086 0.125054 -0.959761 0.251436 0.333333 1.000000 0 97 12 255
24.930429 -7.203113 7.563305 0.125054 -0.959761 0.251436 0.333333 1.000000 1 97 12 255
24.330389 -7.203113 7.861741 0.125054 -0.959761 0.251436 -0.000000 1.000000 0 97 12 255
24.474928 -7.241367 7.643829 0.445320 -0.000000 0.895372 -0.000000 1.000000 138 44 0 255
24.669443 -7.241367 7.547086 0.155220 -0.959762 -0.234017 0.333333 1.000000 0 97 12 255
24.488401 -7.241367 7.427003 0.155220 -0.959762 -0.234017 0.666667 1.000000 0 97 12 255
24.371954 -7.203113 7.192873 0.155220 -0.959762 -0.234017 0.666667 1.000000 19 98 22 255
24.488401 -7.241367 7.427003 -0.280275 -0.959762 -0.017416 0.666667 1.000000 0 97 12 255
24.474928 -7.241367 7.643829 -0.280275 -0.959762 -0.017416 1.000000 1.000000 0 97 12 255
24.330389 -7.203113 7.861741 -0.280275 -0.959762 -0.017416 1.000000 1.000000 0 97 12 255
24.741268 -7.479298 8.198826 -0.342309 0.000000 -0.939587 0.666667 1.000000 138 44 0 255
24.694103 -7.479298 8.466792 0.984861 -0.000000 0.173346 0.333333 1.000000 138 44 0 255
24.485624 -7.479298 8.291962 -0.180444 -0.959761 0.215173 -0.000000 1.000000 0 97 12 255
24.694103 -7.479298 8.466792 -0.180444 -0.959761 0.215173 0.333333 1.000000 0 97 12 255
24.806206 -7.431386 8.774508 -0.180444 -0.959761 0.215173 0.333333 1.000000 1 97 12 255
24.485624 -7.479298 8.291962 -0.642563 0.000000 0.766233 -0.000000 1.000000 138 44 0 255
24.694103 -7.479298 8.466792 0.276565 -0.959762 0.048678 0.333333 1.000000 0 97 12 255
24.741268 -7.479298 8.198826 0.276565 -0.959762 0.048678 0.666667 1.000000 0 97 12 255
24.951704 -7.431386 7.947885 0.276565 -0.959762 0.048678 0.666667 1.000000 19 98 22 255
24.485624 -7.479298 8.291962 -0.096125 -0.959762 -0.263852 1.000000 1.000000 0 97 12 255
24.163082 -7.431386 8.235189 -0.096125 -0.959762 -0.263852 1.000000 1.000000 0 97 12 255
24.951704 -7.431386 7.947885 -0.096125 -0.959762 -0.263852 0.666667 1.000000 19 98 22 255
18.508535 -6.440902 12.871893 -0.342311 0.000000 -0.939587 0.666667 1.000000 138 44 0 255
18.436966 -6.440902 13.278514 0.984861 -0.000000 0.173346 0.333333 1.000000 138 44 0 255
18.607075 -6.368200 13.745455 -0.180437 -0.959763 0.215167 0.333333 1.000000 1 97 12 255
18.120611 -6.440902 13.013222 -0.642559 0.000000 0.766236 -0.000000 1.000000 138 44 0 255
18.436966 -6.440902 13.278514 0.276560 -0.959763 0.048677 0.333333 1.000000 0 97 12 255
18.508535 -6.440902 12.871893 0.276560 -0.959763 0.048677 0.666667 1.000000 0 97 12 255
18.827858 -6.368200 12.491104 0.276560 -0.959763 0.048677 0.666667 1.000000 19 98 22 255
18.120611 -6.440902 13.013222 -0.096123 -0.959763 -0.263846 1.000000 1.000000 0 97 12 255
17.631174 -6.368200 12.927073 -0.096123 -0.959763 -0.263846 1.000000 1.000000 0 97 12 255
18.827858 -6.368200 12.491104 -0.096123 -0.959763 -0.263846 0.666667 1.000000 19 98 22 255
3 0 1 2
3 3 4 5
3 6 7 8
3 9 10 11
3 12 13 14
3 15 16 17
3 18 19 20
3 21 22 23
3 24 25 26
3 27 28 29
3 30 31 32
3 33 34 35
3 36 37 38
3 39 40 41
3 42 43 44
3 45 46 47
3 48 49 50
3 51 52 53
3 54 55 56
3 57 58 59
3 60 61 62
3 63 64 65
3 66 67 68
3 69 70 71
3 72 73 74
3 75 76 77
3 78 79 80
3 81 82 83
3 84 85 86
3 87 88 89
3 90 91 92
3 93 94 95
3 96 97 98
3 99 100 101
3 102 103 104
3 105 106 107
3 108 109 110
3 111 112 113
3 114 115 116
3 117 118 119
3 120 121 122
3 123 124 125
3 126 127 128
3 129 130 131
3 132 133 134
3 135 136 137
3 138 139 140
3 141 142 143
3 144 145 146
3 147 148 149
3 150 151 152
3 153 154 155
3 156 157 158
3 159 160 161
3 162 163 164
3 165 166 167
3 168 169 170
3 171 172 173
3 174 175 176
3 177 178 179
3 180 181 182
3 42 183 43
3 45 184 46
3 185 186 187
3 51 188 52
3 189 190 191
3 192 193 194
3 72 195 73
3 75 196 76
3 197 198 199
3 81 200 82
3 201 202 203
3 204 205 206
3 102 207 103
3 105 208 106
3 108 209 109
3 111 210 112
3 211 212 213
3 214 215 216
